<?xml version="1.0" encoding="utf-8"?>
<!-- Generator: Adobe Illustrator 24.3.0, SVG Export Plug-In . SVG Version: 6.00 Build 0)  -->
<svg version="1.1" id="Layer_1" xmlns="http://www.w3.org/2000/svg" xmlns:xlink="http://www.w3.org/1999/xlink" x="0px" y="0px"
	 viewBox="0 0 119.6 31.2" style="enable-background:new 0 0 119.6 31.2;" xml:space="preserve">
<style type="text/css">
	.st0{clip-path:url(#SVGID_2_);fill:url(#SVGID_3_);}
	.st1{clip-path:url(#SVGID_5_);fill:url(#SVGID_6_);}
	.st2{clip-path:url(#SVGID_8_);fill:url(#SVGID_9_);}
	.st3{clip-path:url(#SVGID_11_);fill:url(#SVGID_12_);}
	.st4{fill:#F9F9F9;}
</style>
<path d="M104,0H15.6C7,0,0,7,0,15.6v0c0,8.6,7,15.6,15.6,15.6H104c8.6,0,15.6-7,15.6-15.6v0C119.6,7,112.6,0,104,0z"/>
<g id="PLAY_2_">
	<g>
		<defs>
			<path id="SVGID_1_" d="M29,12.7l-4.3-2.5c0,0-7.9-4.5-8.3-4.8c-0.5-0.3-0.9-0.1-0.9,0.4c0,0.9,0,9.7,0,9.7s0,9.5,0,9.9
				s0.3,0.6,0.7,0.4c0.4-0.2,8.5-4.9,8.5-4.9l4.3-2.5c0,0,3.7-2.1,4.1-2.4c0.5-0.3,0.4-0.7,0-0.9C32.8,14.8,29,12.7,29,12.7z"/>
		</defs>
		<clipPath id="SVGID_2_">
			<use xlink:href="#SVGID_1_"  style="overflow:visible;"/>
		</clipPath>
		
			<linearGradient id="SVGID_3_" gradientUnits="userSpaceOnUse" x1="20.7843" y1="29.0687" x2="20.7843" y2="7.8991" gradientTransform="matrix(1 0 0 -1 0 34)">
			<stop  offset="0" style="stop-color:#3083B4"/>
			<stop  offset="0.2863" style="stop-color:#5399B9"/>
			<stop  offset="0.767" style="stop-color:#7FBFBF"/>
			<stop  offset="1" style="stop-color:#8FD2C1"/>
		</linearGradient>
		<polygon class="st0" points="15.5,4.9 15.5,15.5 15.5,26.1 26.1,15.5 		"/>
	</g>
	<g>
		<defs>
			<path id="SVGID_4_" d="M29,12.7l-4.3-2.5c0,0-7.9-4.5-8.3-4.8c-0.5-0.3-0.9-0.1-0.9,0.4c0,0.9,0,9.7,0,9.7s0,9.5,0,9.9
				s0.3,0.6,0.7,0.4c0.4-0.2,8.5-4.9,8.5-4.9l4.3-2.5c0,0,3.7-2.1,4.1-2.4c0.5-0.3,0.4-0.7,0-0.9C32.8,14.8,29,12.7,29,12.7z"/>
		</defs>
		<clipPath id="SVGID_5_">
			<use xlink:href="#SVGID_4_"  style="overflow:visible;"/>
		</clipPath>
		
			<linearGradient id="SVGID_6_" gradientUnits="userSpaceOnUse" x1="15.4524" y1="23.8187" x2="28.9947" y2="23.8187" gradientTransform="matrix(1 0 0 -1 0 34)">
			<stop  offset="0" style="stop-color:#5BC4B1"/>
			<stop  offset="1" style="stop-color:#E0EA9F"/>
		</linearGradient>
		<polygon class="st1" points="29,12.7 24.7,10.2 15.5,4.8 15.5,4.9 26.1,15.5 		"/>
	</g>
	<g>
		<defs>
			<path id="SVGID_7_" d="M29,12.7l-4.3-2.5c0,0-7.9-4.5-8.3-4.8c-0.5-0.3-0.9-0.1-0.9,0.4c0,0.9,0,9.7,0,9.7s0,9.5,0,9.9
				s0.3,0.6,0.7,0.4c0.4-0.2,8.5-4.9,8.5-4.9l4.3-2.5c0,0,3.7-2.1,4.1-2.4c0.5-0.3,0.4-0.7,0-0.9C32.8,14.8,29,12.7,29,12.7z"/>
		</defs>
		<clipPath id="SVGID_8_">
			<use xlink:href="#SVGID_7_"  style="overflow:visible;"/>
		</clipPath>
		
			<linearGradient id="SVGID_9_" gradientUnits="userSpaceOnUse" x1="22.2343" y1="18.4687" x2="22.2343" y2="7.8071" gradientTransform="matrix(1 0 0 -1 0 34)">
			<stop  offset="0" style="stop-color:#ED4B48"/>
			<stop  offset="0.1668" style="stop-color:#DB4E5B"/>
			<stop  offset="0.5748" style="stop-color:#B55281"/>
			<stop  offset="0.8619" style="stop-color:#9B5398"/>
			<stop  offset="1" style="stop-color:#9054A2"/>
		</linearGradient>
		<polygon class="st2" points="15.5,26.1 15.5,26.2 24.7,20.8 29,18.3 26.1,15.5 		"/>
	</g>
	<g>
		<defs>
			<path id="SVGID_10_" d="M29,12.7l-4.3-2.5c0,0-7.9-4.5-8.3-4.8c-0.5-0.3-0.9-0.1-0.9,0.4c0,0.9,0,9.7,0,9.7s0,9.5,0,9.9
				s0.3,0.6,0.7,0.4c0.4-0.2,8.5-4.9,8.5-4.9l4.3-2.5c0,0,3.7-2.1,4.1-2.4c0.5-0.3,0.4-0.7,0-0.9C32.8,14.8,29,12.7,29,12.7z"/>
		</defs>
		<clipPath id="SVGID_11_">
			<use xlink:href="#SVGID_10_"  style="overflow:visible;"/>
		</clipPath>
		
			<linearGradient id="SVGID_12_" gradientUnits="userSpaceOnUse" x1="29.9843" y1="21.3085" x2="29.9843" y2="15.6226" gradientTransform="matrix(1 0 0 -1 0 34)">
			<stop  offset="0" style="stop-color:#F58E80"/>
			<stop  offset="0.1194" style="stop-color:#F69680"/>
			<stop  offset="0.7128" style="stop-color:#FCBC7E"/>
			<stop  offset="1" style="stop-color:#FECA7C"/>
		</linearGradient>
		<polygon class="st3" points="29,12.7 26.1,15.5 29,18.3 33.9,15.5 		"/>
	</g>
</g>
<g>
	<path class="st4" d="M85.7,18.7c-0.4,0-0.8-0.1-1.1-0.2c-0.3-0.1-0.6-0.4-0.8-0.7h-0.1c0,0.4,0.1,0.7,0.1,1v2.5h-0.9v-8.9h0.8
		l0.1,0.8l0,0c0.2-0.3,0.5-0.6,0.8-0.7c0.3-0.1,0.7-0.2,1.1-0.2c0.8,0,1.4,0.3,1.9,0.8c0.4,0.6,0.7,1.3,0.7,2.3s-0.2,1.8-0.7,2.4
		C87.1,18.5,86.5,18.7,85.7,18.7z M85.5,13.2c-0.6,0-1.1,0.2-1.4,0.5s-0.4,0.9-0.4,1.7v0.2c0,0.9,0.1,1.5,0.4,1.9
		c0.3,0.4,0.8,0.6,1.4,0.6c0.5,0,0.9-0.2,1.3-0.6c0.3-0.4,0.5-1,0.5-1.8s-0.2-1.4-0.5-1.8C86.5,13.4,86.1,13.2,85.5,13.2z"/>
	<path class="st4" d="M90.4,18.6h-0.9V9.9h0.9V18.6z"/>
	<path class="st4" d="M95.7,18.6l-0.2-0.9l0,0c-0.3,0.4-0.6,0.6-0.9,0.8c-0.3,0.1-0.7,0.2-1.1,0.2c-0.6,0-1.1-0.2-1.4-0.5
		s-0.5-0.8-0.5-1.3c0-1.2,1-1.9,3-2h1v-0.4c0-0.5-0.1-0.8-0.3-1.1c-0.2-0.2-0.5-0.3-1-0.3s-1.1,0.2-1.7,0.5l-0.3-0.7
		c0.3-0.2,0.6-0.3,1-0.4c0.4-0.1,0.7-0.1,1.1-0.1c0.7,0,1.3,0.2,1.6,0.5c0.4,0.3,0.5,0.8,0.5,1.6v4.2h-0.8V18.6z M93.6,18
		c0.6,0,1-0.2,1.4-0.5c0.3-0.3,0.5-0.8,0.5-1.3v-0.6h-0.9c-0.7,0-1.3,0.1-1.6,0.3c-0.3,0.2-0.5,0.5-0.5,1c0,0.3,0.1,0.6,0.3,0.8
		C93,17.9,93.3,18,93.6,18z"/>
	<path class="st4" d="M97,12.5h1l1.3,3.5c0.3,0.8,0.5,1.4,0.6,1.7l0,0c0-0.2,0.2-0.5,0.3-1c0.2-0.5,0.7-1.9,1.5-4.3h1l-2.6,7
		c-0.3,0.7-0.6,1.2-0.9,1.5s-0.8,0.4-1.3,0.4c-0.3,0-0.6,0-0.8-0.1v-0.7c0.2,0,0.4,0.1,0.7,0.1c0.6,0,1.1-0.4,1.4-1.1l0.3-0.9
		L97,12.5z"/>
</g>
<g>
	<path class="st4" d="M68.4,13c0.3,0.2,0.9,0.8,0.9,1.7c0,1-0.5,1.4-1.1,1.8c-0.2,0.2-0.4,0.3-0.4,0.6c0,0.3,0.2,0.4,0.3,0.6
		l0.5,0.4c0.6,0.5,1.1,0.9,1.1,1.8c0,1.2-1.2,2.4-3.4,2.4c-1.9,0-2.8-0.9-2.8-1.8c0-0.5,0.2-1.1,1-1.6c0.8-0.5,1.9-0.6,2.5-0.6
		c-0.2-0.2-0.4-0.5-0.4-0.9c0-0.2,0.1-0.3,0.1-0.5c-0.1,0-0.3,0-0.4,0c-1.4,0-2.1-1-2.1-2c0-0.6,0.3-1.2,0.8-1.7
		c0.7-0.6,1.6-0.7,2.3-0.7H70L69.2,13H68.4z M67.5,18.8c-0.1,0-0.2,0-0.3,0s-0.8,0-1.4,0.2c-0.3,0.1-1.1,0.4-1.1,1.3
		s0.9,1.6,2.3,1.6c1.2,0,1.9-0.6,1.9-1.4C68.9,19.8,68.5,19.5,67.5,18.8z M67.9,16.3c0.3-0.3,0.3-0.7,0.3-0.9c0-0.9-0.6-2.4-1.6-2.4
		c-0.3,0-0.7,0.2-0.9,0.4c-0.2,0.3-0.3,0.6-0.3,1c0,0.9,0.5,2.3,1.6,2.3C67.3,16.7,67.7,16.5,67.9,16.3z"/>
	<path class="st4" d="M60.3,18.6c-2,0-3.1-1.6-3.1-3c0-1.7,1.4-3.1,3.3-3.1c1.9,0,3.1,1.5,3.1,3C63.6,16.9,62.4,18.6,60.3,18.6z
		 M61.9,17.5c0.3-0.4,0.4-0.9,0.4-1.4c0-1.1-0.5-3.3-2.1-3.3c-0.4,0-0.8,0.2-1.2,0.4c-0.5,0.4-0.6,1-0.6,1.6c0,1.3,0.6,3.4,2.2,3.4
		C61.1,18.2,61.6,17.9,61.9,17.5z"/>
	<path class="st4" d="M53.3,18.6c-2,0-3.1-1.6-3.1-3c0-1.7,1.4-3.1,3.3-3.1c1.9,0,3.1,1.5,3.1,3C56.6,16.9,55.4,18.6,53.3,18.6z
		 M54.9,17.5c0.3-0.4,0.4-0.9,0.4-1.4c0-1.1-0.5-3.3-2.1-3.3c-0.4,0-0.8,0.2-1.2,0.4c-0.5,0.4-0.6,1-0.6,1.6c0,1.3,0.6,3.4,2.2,3.4
		C54.1,18.2,54.6,17.9,54.9,17.5z"/>
	<path class="st4" d="M49.2,18.4l-1.8,0.4C46.6,18.9,46,19,45.3,19c-3.6,0-4.9-2.6-4.9-4.7c0-2.5,1.9-4.8,5.2-4.8
		c0.7,0,1.4,0.1,2,0.3c1,0.3,1.4,0.6,1.7,0.8l-1.1,1l-0.5,0.1l0.3-0.5c-0.4-0.4-1.2-1.2-2.8-1.2c-2,0-3.6,1.6-3.6,3.8
		c0,2.4,1.8,4.7,4.6,4.7c0.8,0,1.3-0.2,1.6-0.3v-2.1l-2,0.1l1-0.6h2.7l-0.3,0.3c0.1,0.1,0.1,0.2,0,0.3c0,0.1,0,0.5,0,0.6V18.4z"/>
	<path class="st4" d="M72.5,18c-0.4,0-0.5-0.1-0.5-0.6v-0.1V10V9.9c0.1-0.5,0.2-0.5,0.6-0.8h-1.8l-1,0.5h1l0,0l0,0v7.6v0.4
		c0,0.3-0.1,0.3-0.3,0.7h2.3l0.5-0.3C72.9,18,72.7,18,72.5,18z"/>
	<path class="st4" d="M77.7,18.1c-0.1,0.1-0.3,0.2-0.4,0.2c-0.4,0.2-0.9,0.2-1.2,0.2c-0.4,0-1.1,0-1.7-0.5c-0.9-0.6-1.3-1.7-1.3-2.7
		c0-2,1.6-3,2.9-3c0.5,0,0.9,0.1,1.3,0.4c0.6,0.4,0.8,1,0.9,1.3l-3,1.2l-1,0.1c0.3,1.6,1.4,2.6,2.6,2.6c0.7,0,1.1-0.2,1.6-0.4
		L77.7,18.1z M76.5,14.3c0.2-0.1,0.4-0.2,0.4-0.3c0-0.5-0.6-1.1-1.3-1.1c-0.5,0-1.5,0.4-1.5,1.8c0,0.2,0,0.4,0,0.7L76.5,14.3z"/>
	<g>
		<path class="st4" d="M79,12.5v0.8h-0.1L79,12.5h-0.4v-0.1h0.7v0.1H79z"/>
		<path class="st4" d="M80.1,13.3v-0.9l0,0l-0.3,0.9h-0.1l-0.3-0.9l0,0v0.9h-0.1v-0.9h0.2l0.2,0.8l0,0l0.2-0.8h0.2L80.1,13.3
			L80.1,13.3z"/>
	</g>
</g>
</svg>
