<?xml version="1.0" encoding="utf-8"?>
<!-- Generator: Adobe Illustrator 24.3.0, SVG Export Plug-In . SVG Version: 6.00 Build 0)  -->
<svg version="1.1" id="Layer_1" xmlns="http://www.w3.org/2000/svg" xmlns:xlink="http://www.w3.org/1999/xlink" x="0px" y="0px"
	 viewBox="0 0 32 32" style="enable-background:new 0 0 32 32;" xml:space="preserve">
<style type="text/css">
	.st0{fill:#FFFFFF;}
	.st1{fill:#422505;}
	.st2{fill:#F8F8F8;}
	.st3{fill:#EDF0F6;}
	.st4{fill:#EB4235;}
	.st5{fill:#F8F189;}
	.st6{fill:#5A3000;}
</style>
<g>
	<path class="st0" d="M29.3,8.8c-1-1-2.7-1.4-4.3-0.8c2.2-7.2-6.7-10.2-11.3-5.5C8.6-1.8,1.9,4.2,5.1,10.1c-4.6,0.6-5.7,6-1,7.5
		C4.6,21,6.6,29.2,6.8,30c0.6,0.2,7.4,1.6,10.3,2c1.7-0.4,7.6-3.9,9-4.7c0.2-1.3,0.4-2.5,0.8-3.8c0,0,0,0,0,0
		c0.4-1.9,1.1-5.6,1.5-7.5C30.8,14.8,31.7,10.5,29.3,8.8z"/>
	<g>
		<path class="st1" d="M26.5,24.4L26.5,24.4C26.5,24.4,26.5,24.4,26.5,24.4z"/>
		<path class="st2" d="M12.2,28.9c0-3.2,0-6.5-0.1-9.7c-0.2-1.6,0.4-1.7,1.4-2.7c0.1-0.1,0.1-0.1,0.2,0c0.8,0.9,1.6,1.9,2.5,2.8
			c0.5,1.7,0.2,3.7,0.4,5.5c0.1,1.9,0.2,3.9,0.3,5.8c0,0.1,0,0.1-0.1,0.1c-1.4-0.3-2.9-0.6-4.3-0.8C12,29.8,12.3,29.2,12.2,28.9
			C12.2,28.9,12.2,28.9,12.2,28.9z"/>
		<path class="st3" d="M17.3,30.7c0-3.8-0.6-7.6-0.4-11.4c0.9-1,1.7-2.1,2.6-3.1c0.1-0.1,0.1-0.1,0.2,0c0.3,0.4,0.8,0.8,1,1.3
			c0.1,3.8,0.2,7.5,0.3,11.2C20,29.5,18.5,30,17.3,30.7z"/>
		<path class="st2" d="M5.5,18.4C6.6,19.2,8,19.7,9,20.7c0.5,3,0.9,5.9,1.4,8.8c-0.7-0.2-2.3-0.2-2.6-0.6C6.9,25.4,6,22,5.5,18.4z"
			/>
		<path class="st3" d="M26.9,16.8c-0.6,3.2-1.3,6.5-1.9,9.7c-0.1,0.5-1.7,1.1-2.2,1.3c0-2.8,0-5.6,0-8.4c0-0.2,0-0.2,0.2-0.3
			C24.3,18.4,25.5,17.5,26.9,16.8C26.8,16.8,26.9,16.8,26.9,16.8z"/>
		<path class="st4" d="M11.8,18.3c0.1,3.8,0.3,7.5,0.3,11.3c0,0.4-1-0.1-1.3,0c-0.4-1.1-1.5-9.1-1.5-9.1S10.8,19.1,11.8,18.3z"/>
		<g>
			<path class="st4" d="M22,28.3C22,28.3,22,28.3,22,28.3C22,28.3,22,28.3,22,28.3z"/>
			<path class="st4" d="M21.9,28.3C21.9,28.3,21.9,28.3,21.9,28.3C21.9,28.3,21.9,28.3,21.9,28.3z"/>
		</g>
		<path class="st5" d="M6.1,17c-0.3-0.4-1.4-0.3-1.9-0.5c0.5,0.5,2.5,0.2,1.7,1.3c-0.1,0.2,0,0.3,0.2,0.5C6.3,17.9,6.3,17.4,6.1,17z
			"/>
		<path class="st5" d="M6.6,10.6c0.3,0.2,0.1,0.3-0.1,0.3C6.5,10.8,6.5,10.7,6.6,10.6z"/>
		<path class="st3" d="M26.8,16.8C26.9,16.7,26.9,16.8,26.8,16.8C26.9,16.8,26.8,16.8,26.8,16.8z"/>
		<path class="st5" d="M13.6,3.6C13.6,3.6,13.6,3.5,13.6,3.6C13.6,3.5,13.6,3.6,13.6,3.6z"/>
		<path class="st5" d="M13.6,3.6C13.6,3.6,13.6,3.6,13.6,3.6C13.6,3.6,13.6,3.6,13.6,3.6z"/>
		<path class="st5" d="M13.7,3.6C13.7,3.6,13.6,3.6,13.7,3.6C13.7,3.6,13.7,3.6,13.7,3.6z"/>
		<path class="st2" d="M23.8,9.2C23.7,9.2,23.7,9.2,23.8,9.2C23.7,9.2,23.7,9.2,23.8,9.2C23.7,9.2,23.7,9.2,23.8,9.2z"/>
		<path class="st1" d="M9.5,8.2C9.3,6.4,11.3,7.4,11,8.7c-0.2,0.7-1,0.6-1.3,0C10.5,8.7,10,7.6,9.5,8.2z"/>
		<path class="st1" d="M18.9,7.5c-0.1-0.8,0.8-1.3,1.2-0.4c0.7,1.1-0.6,2.4-1.2,0.9C19.7,8.3,19.5,7,18.9,7.5z"/>
		<path class="st0" d="M18.9,7.5c0.6-0.5,0.9,0.8,0,0.5C18.8,7.8,18.8,7.7,18.9,7.5z"/>
		<path class="st0" d="M9.5,8.2c0.5-0.6,1,0.5,0.2,0.4C9.5,8.5,9.5,8.4,9.5,8.2z"/>
		<path class="st4" d="M17.4,9.8C17.4,9.8,17.4,9.7,17.4,9.8C17.4,9.8,17.4,9.8,17.4,9.8C17.4,9.8,17.4,9.8,17.4,9.8z"/>
		<path class="st4" d="M22.5,27.8c0-2.7,0-5.5,0-8.2c-0.2-0.8-1-1.3-1.5-1.9c0.1,3.6,0.2,7.2,0.3,10.8c0,0.4,0.4-0.1,0.6-0.1
			C22.1,28.2,22.6,28.2,22.5,27.8z"/>
		<path class="st5" d="M28.9,10.1c-1.3-2-3.8-1.2-5.6-0.3c0,0,2.5-5.8-1.4-7.7c-2.9-1.5-6.1-0.4-8.2,1.8C8.7-1,2.5,5.4,6.5,10.7
			C6.8,10.9,6.6,11,6.4,11c-0.8,0-1.6,0.2-2.3,0.5c-2.5,0.8-2.9,4.1-0.3,5c1.4,0.9,2.8,0.3,2,1.6c-0.1,0.2,0.2,0.2,0.3,0.2
			c0,0,0,0,0,0C7,18.9,8,19.5,8.9,20.1C9,20.1,9,20.1,9.1,20c1.5-1.4,3-2.7,4.4-4.1c0.1-0.1,0.2-0.1,0.2,0c3.8,4.3,1.9,3.8,5.6-0.3
			c0.1-0.1,0.1-0.1,0.2,0c0.9,1.1,1.9,2.1,2.8,3.2c0.1,0.1,0.2,0.1,0.3,0c1-0.6,2-1.3,3-1.9c0.2,0,0.5-0.3,0.6-0.4
			c0-0.3-0.2-0.5-0.2-0.8C28.6,15.3,30.7,12.3,28.9,10.1z M9,11.7C9,11.7,9,11.7,9,11.7C9,11.7,9,11.7,9,11.7z M10.9,8.8
			c-0.2,0.7-1,0.6-1.3,0C9.3,8.5,9.4,8,9.5,7.7C10,6.5,11.2,7.9,10.9,8.8z M11,2.7L11,2.7C11,2.7,11,2.7,11,2.7
			C11,2.7,11,2.7,11,2.7z M20.1,8.4c-0.9,1.2-2-1.4-0.8-1.7C20.1,6.6,20.5,7.9,20.1,8.4z"/>
		<path class="st6" d="M28.9,9.5c-1.1-0.8-1.9-1.7-5.2-0.2c0,0,0,0,0-0.1c2.1-3.3,0.3-9.8-6.5-8c-1.4,0.4-2.3,1-3.3,2.1
			c-0.1,0.1-0.1,0.3-0.2,0.1c-2-1.9-4.3-2.1-6-1.1c-3.1,1.5-3.3,5.5-1.5,8.1c0.1,0.2,0.2,0.2,0,0.2c-6.2,0.6-5.4,5.9-0.4,6.6
			c-0.1,0.2-0.2,0.4-0.3,0.6c-0.2-0.1-0.4-0.3-0.7-0.4c0.5,3.7,1.4,7.4,2.3,11c0.2,0.3,0.1,0.9,0.5,0.9c0,0,0,0,0,0c0,0,0.1,0,0.1,0
			c0,0,0,0,0,0c3.2,0.4,6.4,1.5,9.6,1.6c2.6-1.4,5.3-2.7,7.9-4.2c0,0,0,0,0,0c0.1-0.8,0.3-1.7,0.5-2.5c0-0.1,0-0.1,0-0.2
			c0,0,0,0,0,0c0.5-2.8,1.2-5.7,1.7-8.5c-0.3,0.2-0.6,0.4-0.9,0.6c0-0.2,0-0.3,0-0.5C29.3,15.5,31.4,11.5,28.9,9.5z M7.9,29
			C6.7,25.7,6.1,22,5.5,18.4C6.6,19.2,8,19.7,9,20.7c0.5,3,0.9,5.9,1.4,8.8C9.5,29.4,8.7,29.2,7.9,29z M11.7,29.7
			c-0.3-0.1-0.6-0.1-0.9-0.2c-0.2-1.6-0.6-3.3-0.9-4.9c-0.3-2.6-0.4-3.4-0.5-4c0.2-0.5,0.8-1,2.4-2.3c0.1,2.6,0,5.2,0.1,7.8
			C11.8,26.6,12.2,29.9,11.7,29.7z M16.8,30.7c-1.4-0.3-2.9-0.6-4.3-0.8c-0.4-0.1-0.1-0.7-0.2-1h0c0-3.2,0-6.5-0.1-9.7
			c0.1-0.5-0.2-1,0.1-1.5c0.4-0.2,1.3-1.5,1.6-1.2c0.8,0.9,1.6,1.9,2.5,2.8c0.4,0.8,0.1,1.7,0.3,2.5c0.1,2.7,0.2,5.3,0.4,8
			C16.9,30.1,17.1,30.8,16.8,30.7z M20.9,28.9c-1.2,0.6-2.4,1.2-3.6,1.8c-0.2-3.7-0.3-7.4-0.5-11c0.7-1.3,1.9-2.3,2.7-3.5
			c0.2-0.3,0.9,0.9,1.1,1.1c0.2,0.8,0,1.6,0.1,2.4C20.7,22.7,21,25.9,20.9,28.9z M22.5,27.7c-0.1,0.5-0.6,0.6-0.7,0.6
			c-0.2,0-0.5,0.4-0.6,0.1c-0.1-3.6-0.1-7.2-0.3-10.8c0.5,0.6,1.3,1.1,1.5,1.9C22.5,22.3,22.5,25,22.5,27.7z M26.7,16.8
			c0,0,0.1,0,0.1-0.1c0-0.1,0.1,0,0,0.1c-0.6,3.2-1.3,6.5-1.9,9.7c-0.1,0.5-1.7,1.1-2.2,1.3c0-2.8,0-5.6,0-8.4c0-0.2,0-0.2,0.2-0.3
			C24.2,18.4,25.5,17.6,26.7,16.8z M29.3,12.6c-0.3,1.5-1.6,2.6-3.1,2.9c-0.4,0.1-0.3,1-0.1,1.2c-1.1,0.7-2.2,1.4-3.3,2.1
			c-0.1,0.1-0.2,0.1-0.3,0c-0.9-1.1-1.9-2.1-2.8-3.2c-0.1-0.1-0.1-0.1-0.2,0c-2,2.1-2.3,2.9-2.9,3.3c-0.4,0-0.9-1-2.8-3
			c-0.1-0.1-0.1-0.1-0.2,0c-1.5,1.4-3,2.7-4.4,4.1C9.1,20,9,20,8.9,20c-1-0.6-1.9-1.1-2.9-1.7c-0.3-0.1,0.5-1.2,0.4-1.2
			c-5.6-0.9-4.7-4.8-2.3-5.7C5,11.1,5.9,11,6.7,11c0.2,0,0.1-0.3,0-0.4C4.5,6.5,5.4,3.4,9.2,2.3C11.1,2,12.1,2.9,13.8,4
			c1.9-2.3,5.4-3.3,8.1-1.9c2.8,1.3,2.5,5.2,1.3,7.5c-0.1,0.2,0.1,0.3,0.2,0.2C27.9,7.6,29.8,10.5,29.3,12.6z"/>
	</g>
	<path class="st1" d="M12.3,9.6c1.8,0.6,3.7,0.2,5.4-0.4c0.1,0,0.1,0,0.1,0.1C18,13.5,12.7,13.8,12.3,9.6z M17.4,9.8
		c-1.5,0.4-3.1,0.7-4.6,0.4C13.4,13.2,17.4,12.7,17.4,9.8C17.4,9.8,17.4,9.8,17.4,9.8C17.4,9.7,17.4,9.8,17.4,9.8z"/>
	<path class="st4" d="M17.4,9.8c0,3-4,3.4-4.6,0.4C14.4,10.5,15.9,10.2,17.4,9.8z"/>
</g>
</svg>
