<?xml version="1.0" encoding="utf-8"?>
<!-- Generator: Adobe Illustrator 24.3.0, SVG Export Plug-In . SVG Version: 6.00 Build 0)  -->
<svg version="1.1" id="Layer_1" xmlns="http://www.w3.org/2000/svg" xmlns:xlink="http://www.w3.org/1999/xlink" x="0px" y="0px"
	 viewBox="0 0 1280 1280" style="enable-background:new 0 0 1280 1280;" xml:space="preserve">
<style type="text/css">
	.st0{fill:url(#SVGID_1_);}
	.st1{fill:#FFFFFF;}
	.st2{font-family:'AvenirNext-Bold';}
	.st3{font-size:55.7677px;}
	.st4{font-size:26px;}
	.st5{fill:#CE725D;}
	.st6{fill:#FF6E45;}
	.st7{font-family:'AvenirNext-DemiBold';}
	.st8{font-size:16.9px;}
	.st9{font-family:'AvenirNext-Regular';}
	.st10{fill:none;stroke:#FFFFFF;stroke-width:2;}
	.st11{font-size:13px;}
	.st12{fill:none;stroke:#FFFFFF;stroke-width:2;stroke-linecap:square;}
</style>
<linearGradient id="SVGID_1_" gradientUnits="userSpaceOnUse" x1="850.352" y1="-147.661" x2="493.4097" y2="1185.1154" gradientTransform="matrix(1 0 0 -1 0 1280)">
	<stop  offset="0" style="stop-color:#F44F64"/>
	<stop  offset="0.4665" style="stop-color:#FA8762"/>
	<stop  offset="0.8134" style="stop-color:#FEAA61"/>
	<stop  offset="1" style="stop-color:#FFB761"/>
</linearGradient>
<rect x="-2.5" y="-3" class="st0" width="1283" height="1283"/>
<text transform="matrix(1 0 0 1 107.748 127.8838)" class="st1 st2 st3">USERS IN 12 MONTHS</text>
<text transform="matrix(1 0 0 1 108.7245 325.304)" class="st1 st2 st4">IN TABLE</text>
<text transform="matrix(1 0 0 1 473.7245 325.304)" class="st1 st2 st4">IN GRAPH</text>
<rect x="108.7" y="350.3" class="st5" width="99.6" height="53.4"/>
<rect x="208.3" y="350.3" class="st5" width="104.3" height="53.4"/>
<rect x="208.3" y="456.9" class="st6" width="104.3" height="52.6"/>
<rect x="208.3" y="562.1" class="st6" width="104.3" height="52.6"/>
<rect x="208.3" y="667.2" class="st6" width="104.3" height="52.6"/>
<rect x="208.3" y="772.3" class="st6" width="104.3" height="52.6"/>
<rect x="208.3" y="877.5" class="st6" width="104.3" height="52.6"/>
<rect x="208.3" y="982.6" class="st6" width="104.3" height="52.9"/>
<text transform="matrix(1 0 0 1 114.412 382.3333)" class="st1 st7 st8">Month</text>
<text transform="matrix(1 0 0 1 213.537 382.3333)" class="st1 st7 st8">Users</text>
<text transform="matrix(1 0 0 1 114.412 435.9388)" class="st1 st7 st8">September</text>
<text transform="matrix(1 0 0 1 263.3124 435.9388)" class="st1 st9 st8">5,000</text>
<text transform="matrix(1 0 0 1 114.412 488.765)" class="st1 st7 st8">October</text>
<text transform="matrix(1 0 0 1 263.3124 488.765)" class="st1 st9 st8">7,500</text>
<text transform="matrix(1 0 0 1 114.412 541.3323)" class="st1 st7 st8">November</text>
<text transform="matrix(1 0 0 1 253.5106 541.3323)" class="st1 st9 st8">11,250</text>
<text transform="matrix(1 0 0 1 114.412 593.8987)" class="st1 st7 st8">December</text>
<text transform="matrix(1 0 0 1 253.5106 593.8987)" class="st1 st9 st8">16,875</text>
<text transform="matrix(1 0 0 1 114.412 646.4661)" class="st1 st7 st8">J</text>
<text transform="matrix(1 0 0 1 122.742 646.4661)" class="st1 st7 st8">anuary</text>
<text transform="matrix(1 0 0 1 253.5106 646.4661)" class="st1 st9 st8">25,312</text>
<text transform="matrix(1 0 0 1 114.412 699.0325)" class="st1 st7 st8">F</text>
<text transform="matrix(1 0 0 1 123.302 699.0325)" class="st1 st7 st8">ebruary</text>
<text transform="matrix(1 0 0 1 253.5106 699.0325)" class="st1 st9 st8">37,968</text>
<text transform="matrix(1 0 0 1 114.412 751.5999)" class="st1 st7 st8">Ma</text>
<text transform="matrix(1 0 0 1 139.252 751.5999)" class="st1 st7 st8">r</text>
<text transform="matrix(1 0 0 1 145.122 751.5999)" class="st1 st7 st8">ch</text>
<text transform="matrix(1 0 0 1 253.5106 751.5999)" class="st1 st9 st8">56,953</text>
<text transform="matrix(1 0 0 1 114.412 804.1663)" class="st1 st7 st8">April</text>
<text transform="matrix(1 0 0 1 253.5106 804.1663)" class="st1 st9 st8">85,492</text>
<text transform="matrix(1 0 0 1 114.412 856.7327)" class="st1 st7 st8">May</text>
<text transform="matrix(1 0 0 1 243.7079 856.7327)" class="st1 st9 st8">128,144</text>
<text transform="matrix(1 0 0 1 114.412 909.3001)" class="st1 st7 st8">June</text>
<text transform="matrix(1 0 0 1 243.7079 909.3001)" class="st1 st9 st8">192,216</text>
<text transform="matrix(1 0 0 1 114.412 961.8675)" class="st1 st7 st8">July</text>
<text transform="matrix(1 0 0 1 243.7079 961.8675)" class="st1 st9 st8">288,325</text>
<text transform="matrix(1 0 0 1 114.412 1014.4339)" class="st1 st7 st8">August</text>
<text transform="matrix(1 0 0 1 243.7079 1014.4339)" class="st1 st9 st8">432,487</text>
<line class="st10" x1="108.1" y1="456.9" x2="208.3" y2="456.9"/>
<line class="st10" x1="208.3" y1="456.9" x2="313.2" y2="456.9"/>
<line class="st10" x1="108.1" y1="509.5" x2="208.3" y2="509.5"/>
<line class="st10" x1="208.3" y1="509.5" x2="313.2" y2="509.5"/>
<line class="st10" x1="108.1" y1="562.1" x2="208.3" y2="562.1"/>
<line class="st10" x1="208.3" y1="562.1" x2="313.2" y2="562.1"/>
<line class="st10" x1="108.1" y1="614.6" x2="208.3" y2="614.6"/>
<line class="st10" x1="208.3" y1="614.6" x2="313.2" y2="614.6"/>
<line class="st10" x1="108.1" y1="667.2" x2="208.3" y2="667.2"/>
<line class="st10" x1="208.3" y1="667.2" x2="313.2" y2="667.2"/>
<line class="st10" x1="108.1" y1="719.8" x2="208.3" y2="719.8"/>
<line class="st10" x1="208.3" y1="719.8" x2="313.2" y2="719.8"/>
<line class="st10" x1="108.1" y1="772.3" x2="208.3" y2="772.3"/>
<line class="st10" x1="208.3" y1="772.3" x2="313.2" y2="772.3"/>
<line class="st10" x1="108.1" y1="824.9" x2="208.3" y2="824.9"/>
<line class="st10" x1="208.3" y1="824.9" x2="313.2" y2="824.9"/>
<line class="st10" x1="108.1" y1="877.5" x2="208.3" y2="877.5"/>
<line class="st10" x1="208.3" y1="877.5" x2="313.2" y2="877.5"/>
<line class="st10" x1="108.1" y1="930" x2="208.3" y2="930"/>
<line class="st10" x1="208.3" y1="930" x2="313.2" y2="930"/>
<line class="st10" x1="108.1" y1="982.6" x2="208.3" y2="982.6"/>
<line class="st10" x1="208.3" y1="982.6" x2="313.2" y2="982.6"/>
<line class="st10" x1="208.3" y1="351" x2="208.3" y2="1036.1"/>
<line class="st10" x1="108.1" y1="403.8" x2="313.2" y2="403.8"/>
<line class="st10" x1="108.7" y1="349.7" x2="108.7" y2="403.8"/>
<line class="st10" x1="108.7" y1="403.8" x2="108.7" y2="1036.1"/>
<line class="st10" x1="312.6" y1="349.7" x2="312.6" y2="403.8"/>
<line class="st10" x1="312.6" y1="403.8" x2="312.6" y2="1036.1"/>
<line class="st10" x1="108.1" y1="350.3" x2="313.2" y2="350.3"/>
<line class="st10" x1="108.1" y1="1035.4" x2="208.3" y2="1035.4"/>
<line class="st10" x1="208.3" y1="1035.4" x2="313.2" y2="1035.4"/>
<line class="st10" x1="474.4" y1="905" x2="1180.2" y2="905"/>
<line class="st10" x1="474.4" y1="773.7" x2="1180.2" y2="773.7"/>
<line class="st10" x1="474.4" y1="642.4" x2="1180.2" y2="642.4"/>
<line class="st10" x1="474.4" y1="511.1" x2="1180.2" y2="511.1"/>
<line class="st10" x1="474.4" y1="379.8" x2="1180.2" y2="379.8"/>
<line class="st10" x1="474.4" y1="970" x2="1180.2" y2="970"/>
<line class="st10" x1="474.4" y1="838.7" x2="1180.2" y2="838.7"/>
<line class="st10" x1="474.4" y1="707.4" x2="1180.2" y2="707.4"/>
<line class="st10" x1="474.4" y1="577.4" x2="1180.2" y2="577.4"/>
<line class="st10" x1="474.4" y1="446.1" x2="1180.2" y2="446.1"/>
<text transform="matrix(1 0 0 1 450.6473 1040.1252)" class="st1 st9 st11">0</text>
<text transform="matrix(1 0 0 1 409.5682 909.015)" class="st1 st9 st11">100,000</text>
<text transform="matrix(1 0 0 1 409.5682 777.9046)" class="st1 st9 st11">200,000</text>
<text transform="matrix(1 0 0 1 409.5682 646.7943)" class="st1 st9 st11">300,000</text>
<text transform="matrix(1 0 0 1 409.5682 515.6839)" class="st1 st9 st11">400,000</text>
<text transform="matrix(1 0 0 1 409.5682 384.5735)" class="st1 st9 st11">500,000</text>
<line class="st12" x1="473.7" y1="1036.3" x2="1180.9" y2="1036.3"/>
<text transform="matrix(1 0 0 1 492.3602 1056.1545)" class="st1 st9 st11">SEP</text>
<text transform="matrix(1 0 0 1 548.6288 1056.1545)" class="st1 st9 st11">O</text>
<text transform="matrix(1 0 0 1 559.6788 1056.1545)" class="st1 st9 st11">C</text>
<text transform="matrix(1 0 0 1 568.9688 1056.1545)" class="st1 st9 st11">T</text>
<text transform="matrix(1 0 0 1 606.8925 1056.1545)" class="st1 st9 st11">N</text>
<text transform="matrix(1 0 0 1 616.8225 1056.1545)" class="st1 st9 st11">O</text>
<text transform="matrix(1 0 0 1 627.7325 1056.1545)" class="st1 st9 st11">V</text>
<text transform="matrix(1 0 0 1 667.7753 1056.1545)" class="st1 st9 st11">DES</text>
<text transform="matrix(1 0 0 1 726.4297 1056.1545)" class="st1 st9 st11">J</text>
<text transform="matrix(1 0 0 1 732.6797 1056.1545)" class="st1 st9 st11">AN</text>
<text transform="matrix(1 0 0 1 786.2849 1056.1545)" class="st1 st9 st11">FEB</text>
<text transform="matrix(1 0 0 1 842.5731 1056.1545)" class="st1 st9 st11">MAR</text>
<text transform="matrix(1 0 0 1 903.4169 1056.1545)" class="st1 st9 st11">APR</text>
<text transform="matrix(1 0 0 1 960.6542 1056.1545)" class="st1 st9 st11">M</text>
<text transform="matrix(1 0 0 1 972.1742 1056.1545)" class="st1 st9 st11">A</text>
<text transform="matrix(1 0 0 1 980.5042 1056.1545)" class="st1 st9 st11">Y</text>
<text transform="matrix(1 0 0 1 1020.5624 1056.1545)" class="st1 st9 st11">JUN</text>
<text transform="matrix(1 0 0 1 1081.0682 1056.1545)" class="st1 st9 st11">JUL</text>
<text transform="matrix(1 0 0 1 1136.9012 1056.1545)" class="st1 st9 st11">A</text>
<text transform="matrix(1 0 0 1 1145.8412 1056.1545)" class="st1 st9 st11">UG</text>
<path id="SVGID_177_" class="st1" d="M503.6,1029.2c7,0.3,19.5,0.6,21.4,6.5h-42.9C484.2,1029.7,496.6,1029.5,503.6,1029.2z"/>
<path id="SVGID_187_" class="st1" d="M562.8,1026.6c7.5,0.2,19.7,1.7,20.8,9.1h-41.6C543.1,1028.3,555.3,1026.7,562.8,1026.6z"/>
<path id="SVGID_197_" class="st1" d="M621.2,1021.3c9.1-0.1,20.6,4.9,20.8,14.3h-41.6C600.6,1026.2,612.2,1021.2,621.2,1021.3z"/>
<path id="SVGID_207_" class="st1" d="M680.4,1013.5c11.8-0.2,21.9,10.3,21.5,22.1H659C658.5,1023.8,668.6,1013.3,680.4,1013.5z"/>
<path id="SVGID_217_" class="st1" d="M738.9,1003.2c17.8,1.2,22.8,14.1,21.5,32.5h-42.9C716.1,1017.2,721.1,1004.3,738.9,1003.2z"/>
<path id="SVGID_227_" class="st1" d="M798,986.2c26.3,1.1,20.2,29.6,20.8,49.4h-41.6C777.9,1015.8,771.7,987.3,798,986.2z"/>
<path id="SVGID_237_" class="st1" d="M856.5,961.5c17.5,1.2,22.1,13.7,20.8,31.8c0,0,0,42.3,0,42.3h-41.6v-42.3
	C834.5,975.2,839.1,962.7,856.5,961.5z"/>
<path id="SVGID_247_" class="st1" d="M915.7,923.8c8.9-0.1,17.2,5.8,20.2,14.1c2.9,10.3,0.6,85,1.3,97.7h-42.9
	c0.7-13.2-1.6-87,1.3-97.7C898.5,929.6,906.8,923.8,915.7,923.8z"/>
<path id="SVGID_257_" class="st1" d="M974.8,868c8.6-0.1,16.7,5.6,19.5,13.7c2.8,7.1,0.6,142.9,1.3,154H954
	c0.7-11.8-1.6-146.4,1.2-154C958.1,873.5,966.3,867.9,974.8,868z"/>
<path id="SVGID_267_" class="st1" d="M1033.3,783.5c8.6-0.1,16.7,5.6,19.5,13.7c2.8-1.5,0.5,232.1,1.2,238.5h-41.6
	c0,0,0-220.4,0-220.4c0-9.1,0-14.5,1.2-18.1C1016.6,789,1024.8,783.4,1033.3,783.5z"/>
<path id="SVGID_277_" class="st1" d="M1091.8,657.3c8.6-0.1,16.7,5.6,19.5,13.7c1.2,3.6,1.2,9.1,1.2,18.1c0,0,0,346.5,0,346.5H1071
	c0,0,0-346.5,0-346.5c0-9,0-14.5,1.2-18.1C1075.1,662.9,1083.3,657.3,1091.8,657.3z"/>
<path id="SVGID_287_" class="st1" d="M1151,468.9c8.9-0.1,17.2,5.8,20.2,14.1c1.3,3.7,1.3,9.3,1.3,18.7c0,0,0,534,0,534h-42.9
	c0,0,0-534,0-534c0-9.3,0-14.9,1.3-18.7C1133.8,474.6,1142.1,468.8,1151,468.9z"/>
<line class="st10" x1="361" y1="1090.8" x2="361" y2="311.3"/>
<rect x="108.5" y="152" class="st1" width="600" height="9"/>
</svg>
