<?xml version="1.0" encoding="utf-8"?>
<!-- Generator: Adobe Illustrator 24.3.0, SVG Export Plug-In . SVG Version: 6.00 Build 0)  -->
<svg version="1.1" id="Layer_1" xmlns="http://www.w3.org/2000/svg" xmlns:xlink="http://www.w3.org/1999/xlink" x="0px" y="0px"
	 viewBox="0 0 1280 1280" enable-background="new 0 0 1280 1280" xml:space="preserve">
<rect fill="#FFFFFF" width="1280" height="1280"/>
<g>
	<g>
		<defs>
			<rect id="SVGID_1361_" x="220" y="540.68" width="840" height="504"/>
		</defs>
		<clipPath id="SVGID_2_">
			<use xlink:href="#SVGID_1361_"  overflow="visible"/>
		</clipPath>
		<rect x="224" y="544.68" clip-path="url(#SVGID_2_)" fill="#64615D" width="112" height="45.25"/>
		<rect x="336" y="544.68" clip-path="url(#SVGID_2_)" fill="#64615D" width="112" height="45.25"/>
		<rect x="448" y="544.68" clip-path="url(#SVGID_2_)" fill="#64615D" width="112" height="45.25"/>
		<rect x="560" y="544.68" clip-path="url(#SVGID_2_)" fill="#64615D" width="206" height="45.25"/>
		<rect x="766" y="544.68" clip-path="url(#SVGID_2_)" fill="#64615D" width="289.36" height="45.25"/>
		<rect x="224" y="634.93" clip-path="url(#SVGID_2_)" fill="#F0EBE3" width="112" height="45"/>
		<rect x="336" y="634.93" clip-path="url(#SVGID_2_)" fill="#F0EBE3" width="112" height="45"/>
		<rect x="448" y="634.93" clip-path="url(#SVGID_2_)" fill="#F0EBE3" width="112" height="45"/>
		<rect x="560" y="634.93" clip-path="url(#SVGID_2_)" fill="#F0EBE3" width="206" height="45"/>
		<rect x="766" y="634.93" clip-path="url(#SVGID_2_)" fill="#F0EBE3" width="289.36" height="45"/>
		<rect x="224" y="724.93" clip-path="url(#SVGID_2_)" fill="#F0EBE3" width="112" height="45"/>
		<rect x="336" y="724.93" clip-path="url(#SVGID_2_)" fill="#F0EBE3" width="112" height="45"/>
		<rect x="448" y="724.93" clip-path="url(#SVGID_2_)" fill="#F0EBE3" width="112" height="45"/>
		<rect x="560" y="724.93" clip-path="url(#SVGID_2_)" fill="#F0EBE3" width="206" height="45"/>
		<rect x="766" y="724.93" clip-path="url(#SVGID_2_)" fill="#F0EBE3" width="289.36" height="45"/>
		<rect x="224" y="814.93" clip-path="url(#SVGID_2_)" fill="#F0EBE3" width="112" height="45"/>
		<rect x="336" y="814.93" clip-path="url(#SVGID_2_)" fill="#F0EBE3" width="112" height="45"/>
		<rect x="448" y="814.93" clip-path="url(#SVGID_2_)" fill="#F0EBE3" width="112" height="45"/>
		<rect x="560" y="814.93" clip-path="url(#SVGID_2_)" fill="#F0EBE3" width="206" height="45"/>
		<rect x="766" y="814.93" clip-path="url(#SVGID_2_)" fill="#F0EBE3" width="289.36" height="45"/>
		<rect x="224" y="904.93" clip-path="url(#SVGID_2_)" fill="#F0EBE3" width="112" height="45"/>
		<rect x="336" y="904.93" clip-path="url(#SVGID_2_)" fill="#F0EBE3" width="112" height="45"/>
		<rect x="448" y="904.93" clip-path="url(#SVGID_2_)" fill="#F0EBE3" width="112" height="45"/>
		<rect x="560" y="904.93" clip-path="url(#SVGID_2_)" fill="#F0EBE3" width="206" height="45"/>
		<rect x="766" y="904.93" clip-path="url(#SVGID_2_)" fill="#F0EBE3" width="289.36" height="45"/>
		<rect x="224" y="994.93" clip-path="url(#SVGID_2_)" fill="#F0EBE3" width="112" height="45.25"/>
		<rect x="336" y="994.93" clip-path="url(#SVGID_2_)" fill="#F0EBE3" width="112" height="45.25"/>
		<rect x="448" y="994.93" clip-path="url(#SVGID_2_)" fill="#F0EBE3" width="112" height="45.25"/>
		<rect x="560" y="994.93" clip-path="url(#SVGID_2_)" fill="#F0EBE3" width="206" height="45.25"/>
		<rect x="766" y="994.93" clip-path="url(#SVGID_2_)" fill="#F0EBE3" width="289.36" height="45.25"/>
	</g>
	<g>
		<defs>
			<rect id="SVGID_1363_" x="224.75" y="545.43" width="111.25" height="44"/>
		</defs>
		<clipPath id="SVGID_4_">
			<use xlink:href="#SVGID_1363_"  overflow="visible"/>
		</clipPath>
		<g clip-path="url(#SVGID_4_)">
			<text transform="matrix(1 0 0 1 232.7505 574.106)"><tspan x="0" y="0" fill="#FFFFFF" font-family="'AvenirNext-DemiBold'" font-size="20px" letter-spacing="-1">P</tspan><tspan x="10.92" y="0" fill="#FFFFFF" font-family="'AvenirNext-DemiBold'" font-size="20px">eriod</tspan></text>
		</g>
	</g>
	<g>
		<defs>
			<rect id="SVGID_1365_" x="336" y="545.43" width="112" height="44"/>
		</defs>
		<clipPath id="SVGID_6_">
			<use xlink:href="#SVGID_1365_"  overflow="visible"/>
		</clipPath>
		<g clip-path="url(#SVGID_6_)">
			<text transform="matrix(1 0 0 1 344.0005 574.106)" fill="#FFFFFF" font-family="'AvenirNext-DemiBold'" font-size="20px">Month</text>
		</g>
	</g>
	<g>
		<defs>
			<rect id="SVGID_1367_" x="448" y="545.43" width="112" height="44"/>
		</defs>
		<clipPath id="SVGID_8_">
			<use xlink:href="#SVGID_1367_"  overflow="visible"/>
		</clipPath>
		<g clip-path="url(#SVGID_8_)">
			<text transform="matrix(1 0 0 1 456.0005 574.106)"><tspan x="0" y="0" fill="#FFFFFF" font-family="'AvenirNext-DemiBold'" font-size="20px" letter-spacing="-1">P</tspan><tspan x="10.92" y="0" fill="#FFFFFF" font-family="'AvenirNext-DemiBold'" font-size="20px">erson</tspan></text>
		</g>
	</g>
	<g>
		<defs>
			<rect id="SVGID_1369_" x="560" y="545.43" width="206" height="44"/>
		</defs>
		<clipPath id="SVGID_10_">
			<use xlink:href="#SVGID_1369_"  overflow="visible"/>
		</clipPath>
		<g clip-path="url(#SVGID_10_)">
			<text transform="matrix(1 0 0 1 568.0005 574.106)" fill="#FFFFFF" font-family="'AvenirNext-DemiBold'" font-size="20px">Salary</text>
		</g>
	</g>
	<g>
		<defs>
			<rect id="SVGID_1371_" x="766" y="545.43" width="288.61" height="44"/>
		</defs>
		<clipPath id="SVGID_12_">
			<use xlink:href="#SVGID_1371_"  overflow="visible"/>
		</clipPath>
		<g clip-path="url(#SVGID_12_)">
			<text transform="matrix(1 0 0 1 774.0005 574.106)"><tspan x="0" y="0" fill="#FFFFFF" font-family="'AvenirNext-DemiBold'" font-size="20px" letter-spacing="-1">T</tspan><tspan x="9.44" y="0" fill="#FFFFFF" font-family="'AvenirNext-DemiBold'" font-size="20px">otal </tspan><tspan x="49.8" y="0" fill="#FFFFFF" font-family="'AvenirNext-DemiBold'" font-size="20px">C</tspan><tspan x="63.48" y="0" fill="#FFFFFF" font-family="'AvenirNext-DemiBold'" font-size="20px">ost</tspan></text>
		</g>
	</g>
	<g>
		<defs>
			<rect id="SVGID_1373_" x="224.75" y="590.43" width="110.75" height="44"/>
		</defs>
		<clipPath id="SVGID_14_">
			<use xlink:href="#SVGID_1373_"  overflow="visible"/>
		</clipPath>
		<g clip-path="url(#SVGID_14_)">
			<text transform="matrix(1 0 0 1 232.7505 619.106)" font-family="'AvenirNext-Regular'" font-size="20px">1</text>
		</g>
	</g>
	<g>
		<defs>
			<rect id="SVGID_1375_" x="336.5" y="590.43" width="111" height="44"/>
		</defs>
		<clipPath id="SVGID_16_">
			<use xlink:href="#SVGID_1375_"  overflow="visible"/>
		</clipPath>
		<g clip-path="url(#SVGID_16_)">
			<text transform="matrix(1 0 0 1 368.2212 619.106)"><tspan x="0" y="0" font-family="'AvenirNext-Regular'" font-size="20px">J</tspan><tspan x="9.74" y="0" font-family="'AvenirNext-Regular'" font-size="20px">anuary</tspan></text>
		</g>
	</g>
	<g>
		<defs>
			<rect id="SVGID_1377_" x="448.5" y="590.43" width="111" height="44"/>
		</defs>
		<clipPath id="SVGID_18_">
			<use xlink:href="#SVGID_1377_"  overflow="visible"/>
		</clipPath>
		<g clip-path="url(#SVGID_18_)">
			<text transform="matrix(1 0 0 1 456.5005 619.106)" font-family="'AvenirNext-Regular'" font-size="20px">5</text>
		</g>
	</g>
	<g>
		<defs>
			<rect id="SVGID_1379_" x="560.5" y="590.43" width="205" height="44"/>
		</defs>
		<clipPath id="SVGID_20_">
			<use xlink:href="#SVGID_1379_"  overflow="visible"/>
		</clipPath>
		<g clip-path="url(#SVGID_20_)">
			<text transform="matrix(1 0 0 1 568.5005 619.106)"><tspan x="0" y="0" font-family="'AvenirNext-Regular'" font-size="20px">IDR</tspan><tspan x="32.32" y="0" font-family="'AvenirNext-Regular'" font-size="20px" letter-spacing="60"> </tspan><tspan x="97.38" y="0" font-family="'AvenirNext-Regular'" font-size="20px">5,000,000</tspan></text>
		</g>
	</g>
	<g>
		<defs>
			<rect id="SVGID_1381_" x="766.5" y="590.43" width="288.11" height="44"/>
		</defs>
		<clipPath id="SVGID_22_">
			<use xlink:href="#SVGID_1381_"  overflow="visible"/>
		</clipPath>
		<g clip-path="url(#SVGID_22_)">
			<text transform="matrix(1 0 0 1 774.5005 619.106)"><tspan x="0" y="0" font-family="'AvenirNext-Regular'" font-size="20px">IDR</tspan><tspan x="32.32" y="0" font-family="'AvenirNext-Regular'" font-size="20px" letter-spacing="131"> </tspan><tspan x="168.9" y="0" font-family="'AvenirNext-Regular'" font-size="20px">25,000,000</tspan></text>
		</g>
	</g>
	<g>
		<defs>
			<rect id="SVGID_1383_" x="224.75" y="635.43" width="110.75" height="44"/>
		</defs>
		<clipPath id="SVGID_24_">
			<use xlink:href="#SVGID_1383_"  overflow="visible"/>
		</clipPath>
		<g clip-path="url(#SVGID_24_)">
			<text transform="matrix(1 0 0 1 232.7505 664.106)" font-family="'AvenirNext-Regular'" font-size="20px">2</text>
		</g>
	</g>
	<g>
		<defs>
			<rect id="SVGID_1385_" x="336.5" y="635.43" width="111" height="44"/>
		</defs>
		<clipPath id="SVGID_26_">
			<use xlink:href="#SVGID_1385_"  overflow="visible"/>
		</clipPath>
		<g clip-path="url(#SVGID_26_)">
			<text transform="matrix(1 0 0 1 358.5806 664.106)"><tspan x="0" y="0" font-family="'AvenirNext-Regular'" font-size="20px">F</tspan><tspan x="10.3" y="0" font-family="'AvenirNext-Regular'" font-size="20px">ebruary</tspan></text>
		</g>
	</g>
	<g>
		<defs>
			<rect id="SVGID_1387_" x="448.5" y="635.43" width="111" height="44"/>
		</defs>
		<clipPath id="SVGID_28_">
			<use xlink:href="#SVGID_1387_"  overflow="visible"/>
		</clipPath>
		<g clip-path="url(#SVGID_28_)">
			<text transform="matrix(1 0 0 1 456.5005 664.106)" font-family="'AvenirNext-Regular'" font-size="20px">5</text>
		</g>
	</g>
	<g>
		<defs>
			<rect id="SVGID_1389_" x="560.5" y="635.43" width="205" height="44"/>
		</defs>
		<clipPath id="SVGID_30_">
			<use xlink:href="#SVGID_1389_"  overflow="visible"/>
		</clipPath>
		<g clip-path="url(#SVGID_30_)">
			<text transform="matrix(1 0 0 1 568.5005 664.106)"><tspan x="0" y="0" font-family="'AvenirNext-Regular'" font-size="20px">IDR</tspan><tspan x="32.32" y="0" font-family="'AvenirNext-Regular'" font-size="20px" letter-spacing="60"> </tspan><tspan x="97.38" y="0" font-family="'AvenirNext-Regular'" font-size="20px">5,000,000</tspan></text>
		</g>
	</g>
	<g>
		<defs>
			<rect id="SVGID_1391_" x="766.5" y="635.43" width="288.11" height="44"/>
		</defs>
		<clipPath id="SVGID_32_">
			<use xlink:href="#SVGID_1391_"  overflow="visible"/>
		</clipPath>
		<g clip-path="url(#SVGID_32_)">
			<text transform="matrix(1 0 0 1 774.5005 664.106)"><tspan x="0" y="0" font-family="'AvenirNext-Regular'" font-size="20px">IDR</tspan><tspan x="32.32" y="0" font-family="'AvenirNext-Regular'" font-size="20px" letter-spacing="131"> </tspan><tspan x="168.9" y="0" font-family="'AvenirNext-Regular'" font-size="20px">25,000,000</tspan></text>
		</g>
	</g>
	<g>
		<defs>
			<rect id="SVGID_1393_" x="224.75" y="680.43" width="110.75" height="44"/>
		</defs>
		<clipPath id="SVGID_34_">
			<use xlink:href="#SVGID_1393_"  overflow="visible"/>
		</clipPath>
		<g clip-path="url(#SVGID_34_)">
			<text transform="matrix(1 0 0 1 232.7505 709.106)" font-family="'AvenirNext-Regular'" font-size="20px">3</text>
		</g>
	</g>
	<g>
		<defs>
			<rect id="SVGID_1395_" x="336.5" y="680.43" width="111" height="44"/>
		</defs>
		<clipPath id="SVGID_36_">
			<use xlink:href="#SVGID_1395_"  overflow="visible"/>
		</clipPath>
		<g clip-path="url(#SVGID_36_)">
			<text transform="matrix(1 0 0 1 382.6011 709.106)"><tspan x="0" y="0" font-family="'AvenirNext-Regular'" font-size="20px">Ma</tspan><tspan x="28.4" y="0" font-family="'AvenirNext-Regular'" font-size="20px">r</tspan><tspan x="35.26" y="0" font-family="'AvenirNext-Regular'" font-size="20px">ch</tspan></text>
		</g>
	</g>
	<g>
		<defs>
			<rect id="SVGID_1397_" x="448.5" y="680.43" width="111" height="44"/>
		</defs>
		<clipPath id="SVGID_38_">
			<use xlink:href="#SVGID_1397_"  overflow="visible"/>
		</clipPath>
		<g clip-path="url(#SVGID_38_)">
			<text transform="matrix(1 0 0 1 456.5005 709.106)" font-family="'AvenirNext-Regular'" font-size="20px">5</text>
		</g>
	</g>
	<g>
		<defs>
			<rect id="SVGID_1399_" x="560.5" y="680.43" width="205" height="44"/>
		</defs>
		<clipPath id="SVGID_40_">
			<use xlink:href="#SVGID_1399_"  overflow="visible"/>
		</clipPath>
		<g clip-path="url(#SVGID_40_)">
			<text transform="matrix(1 0 0 1 568.5005 709.106)"><tspan x="0" y="0" font-family="'AvenirNext-Regular'" font-size="20px">IDR</tspan><tspan x="32.32" y="0" font-family="'AvenirNext-Regular'" font-size="20px" letter-spacing="60"> </tspan><tspan x="97.38" y="0" font-family="'AvenirNext-Regular'" font-size="20px">5,000,000</tspan></text>
		</g>
	</g>
	<g>
		<defs>
			<rect id="SVGID_1401_" x="766.5" y="680.43" width="288.11" height="44"/>
		</defs>
		<clipPath id="SVGID_42_">
			<use xlink:href="#SVGID_1401_"  overflow="visible"/>
		</clipPath>
		<g clip-path="url(#SVGID_42_)">
			<text transform="matrix(1 0 0 1 774.5005 709.106)"><tspan x="0" y="0" font-family="'AvenirNext-Regular'" font-size="20px">IDR</tspan><tspan x="32.32" y="0" font-family="'AvenirNext-Regular'" font-size="20px" letter-spacing="131"> </tspan><tspan x="168.9" y="0" font-family="'AvenirNext-Regular'" font-size="20px">25,000,000</tspan></text>
		</g>
	</g>
	<g>
		<defs>
			<rect id="SVGID_1403_" x="224.75" y="725.43" width="110.75" height="44"/>
		</defs>
		<clipPath id="SVGID_44_">
			<use xlink:href="#SVGID_1403_"  overflow="visible"/>
		</clipPath>
		<g clip-path="url(#SVGID_44_)">
			<text transform="matrix(1 0 0 1 232.7505 754.106)" font-family="'AvenirNext-Regular'" font-size="20px">4</text>
		</g>
	</g>
	<g>
		<defs>
			<rect id="SVGID_1405_" x="336.5" y="725.43" width="111" height="44"/>
		</defs>
		<clipPath id="SVGID_46_">
			<use xlink:href="#SVGID_1405_"  overflow="visible"/>
		</clipPath>
		<g clip-path="url(#SVGID_46_)">
			<text transform="matrix(1 0 0 1 395.561 754.106)" font-family="'AvenirNext-Regular'" font-size="20px">April</text>
		</g>
	</g>
	<g>
		<defs>
			<rect id="SVGID_1407_" x="448.5" y="725.43" width="111" height="44"/>
		</defs>
		<clipPath id="SVGID_48_">
			<use xlink:href="#SVGID_1407_"  overflow="visible"/>
		</clipPath>
		<g clip-path="url(#SVGID_48_)">
			<text transform="matrix(1 0 0 1 456.5005 754.106)" font-family="'AvenirNext-Regular'" font-size="20px">5</text>
		</g>
	</g>
	<g>
		<defs>
			<rect id="SVGID_1409_" x="560.5" y="725.43" width="205" height="44"/>
		</defs>
		<clipPath id="SVGID_50_">
			<use xlink:href="#SVGID_1409_"  overflow="visible"/>
		</clipPath>
		<g clip-path="url(#SVGID_50_)">
			<text transform="matrix(1 0 0 1 568.5005 754.106)"><tspan x="0" y="0" font-family="'AvenirNext-Regular'" font-size="20px">IDR</tspan><tspan x="32.32" y="0" font-family="'AvenirNext-Regular'" font-size="20px" letter-spacing="60"> </tspan><tspan x="97.38" y="0" font-family="'AvenirNext-Regular'" font-size="20px">5,000,000</tspan></text>
		</g>
	</g>
	<g>
		<defs>
			<rect id="SVGID_1411_" x="766.5" y="725.43" width="288.11" height="44"/>
		</defs>
		<clipPath id="SVGID_52_">
			<use xlink:href="#SVGID_1411_"  overflow="visible"/>
		</clipPath>
		<g clip-path="url(#SVGID_52_)">
			<text transform="matrix(1 0 0 1 774.5005 754.106)"><tspan x="0" y="0" font-family="'AvenirNext-Regular'" font-size="20px">IDR</tspan><tspan x="32.32" y="0" font-family="'AvenirNext-Regular'" font-size="20px" letter-spacing="131"> </tspan><tspan x="168.9" y="0" font-family="'AvenirNext-Regular'" font-size="20px">25,000,000</tspan></text>
		</g>
	</g>
	<g>
		<defs>
			<rect id="SVGID_1413_" x="224.75" y="770.43" width="110.75" height="44"/>
		</defs>
		<clipPath id="SVGID_54_">
			<use xlink:href="#SVGID_1413_"  overflow="visible"/>
		</clipPath>
		<g clip-path="url(#SVGID_54_)">
			<text transform="matrix(1 0 0 1 232.7505 799.106)" font-family="'AvenirNext-Regular'" font-size="20px">5</text>
		</g>
	</g>
	<g>
		<defs>
			<rect id="SVGID_1415_" x="336.5" y="770.43" width="111" height="44"/>
		</defs>
		<clipPath id="SVGID_56_">
			<use xlink:href="#SVGID_1415_"  overflow="visible"/>
		</clipPath>
		<g clip-path="url(#SVGID_56_)">
			<text transform="matrix(1 0 0 1 401.3403 799.106)" font-family="'AvenirNext-Regular'" font-size="20px">May</text>
		</g>
	</g>
	<g>
		<defs>
			<rect id="SVGID_1417_" x="448.5" y="770.43" width="111" height="44"/>
		</defs>
		<clipPath id="SVGID_58_">
			<use xlink:href="#SVGID_1417_"  overflow="visible"/>
		</clipPath>
		<g clip-path="url(#SVGID_58_)">
			<text transform="matrix(1 0 0 1 456.5005 799.106)" font-family="'AvenirNext-Regular'" font-size="20px">8</text>
		</g>
	</g>
	<g>
		<defs>
			<rect id="SVGID_1419_" x="560.5" y="770.43" width="205" height="44"/>
		</defs>
		<clipPath id="SVGID_60_">
			<use xlink:href="#SVGID_1419_"  overflow="visible"/>
		</clipPath>
		<g clip-path="url(#SVGID_60_)">
			<text transform="matrix(1 0 0 1 568.5005 799.106)"><tspan x="0" y="0" font-family="'AvenirNext-Regular'" font-size="20px">IDR</tspan><tspan x="32.32" y="0" font-family="'AvenirNext-Regular'" font-size="20px" letter-spacing="60"> </tspan><tspan x="97.38" y="0" font-family="'AvenirNext-Regular'" font-size="20px">5,000,000</tspan></text>
		</g>
	</g>
	<g>
		<defs>
			<rect id="SVGID_1421_" x="766.5" y="770.43" width="288.11" height="44"/>
		</defs>
		<clipPath id="SVGID_62_">
			<use xlink:href="#SVGID_1421_"  overflow="visible"/>
		</clipPath>
		<g clip-path="url(#SVGID_62_)">
			<text transform="matrix(1 0 0 1 774.5005 799.106)"><tspan x="0" y="0" font-family="'AvenirNext-Regular'" font-size="20px">IDR</tspan><tspan x="32.32" y="0" font-family="'AvenirNext-Regular'" font-size="20px" letter-spacing="131"> </tspan><tspan x="168.9" y="0" font-family="'AvenirNext-Regular'" font-size="20px">40,000,000</tspan></text>
		</g>
	</g>
	<g>
		<defs>
			<rect id="SVGID_1423_" x="224.75" y="815.43" width="110.75" height="44"/>
		</defs>
		<clipPath id="SVGID_64_">
			<use xlink:href="#SVGID_1423_"  overflow="visible"/>
		</clipPath>
		<g clip-path="url(#SVGID_64_)">
			<text transform="matrix(1 0 0 1 232.7505 844.106)" font-family="'AvenirNext-Regular'" font-size="20px">6</text>
		</g>
	</g>
	<g>
		<defs>
			<rect id="SVGID_1425_" x="336.5" y="815.43" width="111" height="44"/>
		</defs>
		<clipPath id="SVGID_66_">
			<use xlink:href="#SVGID_1425_"  overflow="visible"/>
		</clipPath>
		<g clip-path="url(#SVGID_66_)">
			<text transform="matrix(1 0 0 1 394.981 844.106)" font-family="'AvenirNext-Regular'" font-size="20px">June</text>
		</g>
	</g>
	<g>
		<defs>
			<rect id="SVGID_1427_" x="448.5" y="815.43" width="111" height="44"/>
		</defs>
		<clipPath id="SVGID_68_">
			<use xlink:href="#SVGID_1427_"  overflow="visible"/>
		</clipPath>
		<g clip-path="url(#SVGID_68_)">
			<text transform="matrix(1 0 0 1 456.5005 844.106)" font-family="'AvenirNext-Regular'" font-size="20px">8</text>
		</g>
	</g>
	<g>
		<defs>
			<rect id="SVGID_1429_" x="560.5" y="815.43" width="205" height="44"/>
		</defs>
		<clipPath id="SVGID_70_">
			<use xlink:href="#SVGID_1429_"  overflow="visible"/>
		</clipPath>
		<g clip-path="url(#SVGID_70_)">
			<text transform="matrix(1 0 0 1 568.5005 844.106)"><tspan x="0" y="0" font-family="'AvenirNext-Regular'" font-size="20px">IDR</tspan><tspan x="32.32" y="0" font-family="'AvenirNext-Regular'" font-size="20px" letter-spacing="60"> </tspan><tspan x="97.38" y="0" font-family="'AvenirNext-Regular'" font-size="20px">5,000,000</tspan></text>
		</g>
	</g>
	<g>
		<defs>
			<rect id="SVGID_1431_" x="766.5" y="815.43" width="288.11" height="44"/>
		</defs>
		<clipPath id="SVGID_72_">
			<use xlink:href="#SVGID_1431_"  overflow="visible"/>
		</clipPath>
		<g clip-path="url(#SVGID_72_)">
			<text transform="matrix(1 0 0 1 774.5005 844.106)"><tspan x="0" y="0" font-family="'AvenirNext-Regular'" font-size="20px">IDR</tspan><tspan x="32.32" y="0" font-family="'AvenirNext-Regular'" font-size="20px" letter-spacing="131"> </tspan><tspan x="168.9" y="0" font-family="'AvenirNext-Regular'" font-size="20px">40,000,000</tspan></text>
		</g>
	</g>
	<g>
		<defs>
			<rect id="SVGID_1433_" x="224.75" y="860.43" width="110.75" height="44"/>
		</defs>
		<clipPath id="SVGID_98_">
			<use xlink:href="#SVGID_1433_"  overflow="visible"/>
		</clipPath>
		<g clip-path="url(#SVGID_98_)">
			<text transform="matrix(1 0 0 1 232.7505 889.106)" font-family="'AvenirNext-Regular'" font-size="20px">7</text>
		</g>
	</g>
	<g>
		<defs>
			<rect id="SVGID_1435_" x="336.5" y="860.43" width="111" height="44"/>
		</defs>
		<clipPath id="SVGID_100_">
			<use xlink:href="#SVGID_1435_"  overflow="visible"/>
		</clipPath>
		<g clip-path="url(#SVGID_100_)">
			<text transform="matrix(1 0 0 1 403.2407 889.106)" font-family="'AvenirNext-Regular'" font-size="20px">July</text>
		</g>
	</g>
	<g>
		<defs>
			<rect id="SVGID_1437_" x="448.5" y="860.43" width="111" height="44"/>
		</defs>
		<clipPath id="SVGID_102_">
			<use xlink:href="#SVGID_1437_"  overflow="visible"/>
		</clipPath>
		<g clip-path="url(#SVGID_102_)">
			<text transform="matrix(1 0 0 1 456.5005 889.106)" font-family="'AvenirNext-Regular'" font-size="20px">8</text>
		</g>
	</g>
	<g>
		<defs>
			<rect id="SVGID_1439_" x="560.5" y="860.43" width="205" height="44"/>
		</defs>
		<clipPath id="SVGID_104_">
			<use xlink:href="#SVGID_1439_"  overflow="visible"/>
		</clipPath>
		<g clip-path="url(#SVGID_104_)">
			<text transform="matrix(1 0 0 1 568.5005 889.106)"><tspan x="0" y="0" font-family="'AvenirNext-Regular'" font-size="20px">IDR</tspan><tspan x="32.32" y="0" font-family="'AvenirNext-Regular'" font-size="20px" letter-spacing="60"> </tspan><tspan x="97.38" y="0" font-family="'AvenirNext-Regular'" font-size="20px">5,000,000</tspan></text>
		</g>
	</g>
	<g>
		<defs>
			<rect id="SVGID_1441_" x="766.5" y="860.43" width="288.11" height="44"/>
		</defs>
		<clipPath id="SVGID_106_">
			<use xlink:href="#SVGID_1441_"  overflow="visible"/>
		</clipPath>
		<g clip-path="url(#SVGID_106_)">
			<text transform="matrix(1 0 0 1 774.5005 889.106)"><tspan x="0" y="0" font-family="'AvenirNext-Regular'" font-size="20px">IDR</tspan><tspan x="32.32" y="0" font-family="'AvenirNext-Regular'" font-size="20px" letter-spacing="131"> </tspan><tspan x="168.9" y="0" font-family="'AvenirNext-Regular'" font-size="20px">40,000,000</tspan></text>
		</g>
	</g>
	<g>
		<defs>
			<rect id="SVGID_1443_" x="224.75" y="905.43" width="110.75" height="44"/>
		</defs>
		<clipPath id="SVGID_108_">
			<use xlink:href="#SVGID_1443_"  overflow="visible"/>
		</clipPath>
		<g clip-path="url(#SVGID_108_)">
			<text transform="matrix(1 0 0 1 232.7505 934.106)" font-family="'AvenirNext-Regular'" font-size="20px">8</text>
		</g>
	</g>
	<g>
		<defs>
			<rect id="SVGID_1445_" x="336.5" y="905.43" width="111" height="44"/>
		</defs>
		<clipPath id="SVGID_110_">
			<use xlink:href="#SVGID_1445_"  overflow="visible"/>
		</clipPath>
		<g clip-path="url(#SVGID_110_)">
			<text transform="matrix(1 0 0 1 374.4009 934.106)" font-family="'AvenirNext-Regular'" font-size="20px">August</text>
		</g>
	</g>
	<g>
		<defs>
			<rect id="SVGID_1447_" x="448.5" y="905.43" width="111" height="44"/>
		</defs>
		<clipPath id="SVGID_112_">
			<use xlink:href="#SVGID_1447_"  overflow="visible"/>
		</clipPath>
		<g clip-path="url(#SVGID_112_)">
			<text transform="matrix(1 0 0 1 456.5005 934.106)" font-family="'AvenirNext-Regular'" font-size="20px">8</text>
		</g>
	</g>
	<g>
		<defs>
			<rect id="SVGID_1449_" x="560.5" y="905.43" width="205" height="44"/>
		</defs>
		<clipPath id="SVGID_114_">
			<use xlink:href="#SVGID_1449_"  overflow="visible"/>
		</clipPath>
		<g clip-path="url(#SVGID_114_)">
			<text transform="matrix(1 0 0 1 568.5005 934.106)"><tspan x="0" y="0" font-family="'AvenirNext-Regular'" font-size="20px">IDR</tspan><tspan x="32.32" y="0" font-family="'AvenirNext-Regular'" font-size="20px" letter-spacing="60"> </tspan><tspan x="97.38" y="0" font-family="'AvenirNext-Regular'" font-size="20px">5,000,000</tspan></text>
		</g>
	</g>
	<g>
		<defs>
			<rect id="SVGID_1451_" x="766.5" y="905.43" width="288.11" height="44"/>
		</defs>
		<clipPath id="SVGID_116_">
			<use xlink:href="#SVGID_1451_"  overflow="visible"/>
		</clipPath>
		<g clip-path="url(#SVGID_116_)">
			<text transform="matrix(1 0 0 1 774.5005 934.106)"><tspan x="0" y="0" font-family="'AvenirNext-Regular'" font-size="20px">IDR</tspan><tspan x="32.32" y="0" font-family="'AvenirNext-Regular'" font-size="20px" letter-spacing="131"> </tspan><tspan x="168.9" y="0" font-family="'AvenirNext-Regular'" font-size="20px">40,000,000</tspan></text>
		</g>
	</g>
	<g>
		<defs>
			<rect id="SVGID_1453_" x="220" y="540.68" width="840" height="504"/>
		</defs>
		<clipPath id="SVGID_118_">
			<use xlink:href="#SVGID_1453_"  overflow="visible"/>
		</clipPath>
		<rect x="224" y="949.93" opacity="0" clip-path="url(#SVGID_118_)" fill="#426288" width="112" height="45"/>
		<rect x="336" y="949.93" opacity="0" clip-path="url(#SVGID_118_)" fill="#75611A" width="112" height="45"/>
		<rect x="448" y="949.93" opacity="0" clip-path="url(#SVGID_118_)" fill="#24D0E1" width="112" height="45"/>
		<rect x="560" y="949.93" opacity="0" clip-path="url(#SVGID_118_)" fill="#FB8A52" width="206" height="45"/>
		<rect x="766" y="949.93" opacity="0" clip-path="url(#SVGID_118_)" fill="#396477" width="289.36" height="45"/>
		<rect x="224" y="994.93" opacity="0" clip-path="url(#SVGID_118_)" fill="#DBB1CA" width="112" height="45.25"/>
		<rect x="336" y="994.93" opacity="0" clip-path="url(#SVGID_118_)" fill="#6B2F75" width="112" height="45.25"/>
		<rect x="448" y="994.93" opacity="0" clip-path="url(#SVGID_118_)" fill="#269DF6" width="112" height="45.25"/>
	</g>
	<g>
		<defs>
			<rect id="SVGID_1455_" x="560.5" y="995.43" width="205" height="44"/>
		</defs>
		<clipPath id="SVGID_120_">
			<use xlink:href="#SVGID_1455_"  overflow="visible"/>
		</clipPath>
		<g clip-path="url(#SVGID_120_)">
			<text transform="matrix(1 0 0 1 568.5005 1024.106)"><tspan x="0" y="0" font-family="'AvenirNext-Bold'" font-size="20px">SUB</tspan><tspan x="39.88" y="0" font-family="'AvenirNext-Bold'" font-size="20px" letter-spacing="-1">-</tspan><tspan x="44.62" y="0" font-family="'AvenirNext-Bold'" font-size="20px">T</tspan><tspan x="55.66" y="0" font-family="'AvenirNext-Bold'" font-size="20px">O</tspan><tspan x="72.08" y="0" font-family="'AvenirNext-Bold'" font-size="20px" letter-spacing="-1">T</tspan><tspan x="82.52" y="0" font-family="'AvenirNext-Bold'" font-size="20px">AL</tspan></text>
		</g>
	</g>
	<g>
		<defs>
			<rect id="SVGID_1457_" x="766.5" y="995.43" width="288.11" height="44"/>
		</defs>
		<clipPath id="SVGID_122_">
			<use xlink:href="#SVGID_1457_"  overflow="visible"/>
		</clipPath>
		<g clip-path="url(#SVGID_122_)">
			<text transform="matrix(1 0 0 1 774.5005 1024.106)"><tspan x="0" y="0" font-family="'AvenirNext-Bold'" font-size="20px">IDR</tspan><tspan x="35.1" y="0" font-family="'AvenirNext-Bold'" font-size="20px" letter-spacing="103"> </tspan><tspan x="143.82" y="0" font-family="'AvenirNext-Bold'" font-size="20px">260,000,000</tspan></text>
		</g>
	</g>
	<g>
		<defs>
			<rect id="SVGID_1459_" x="220" y="540.68" width="840" height="504"/>
		</defs>
		<clipPath id="SVGID_124_">
			<use xlink:href="#SVGID_1459_"  overflow="visible"/>
		</clipPath>
		
			<line clip-path="url(#SVGID_124_)" fill="none" stroke="#CFCCC9" stroke-width="0.5" x1="336" y1="588.93" x2="336" y2="1041.18"/>
		
			<line clip-path="url(#SVGID_124_)" fill="none" stroke="#CFCCC9" stroke-width="0.5" x1="448" y1="588.93" x2="448" y2="1041.18"/>
		
			<line clip-path="url(#SVGID_124_)" fill="none" stroke="#CFCCC9" stroke-width="0.5" x1="560" y1="588.93" x2="560" y2="1041.18"/>
		
			<line clip-path="url(#SVGID_124_)" fill="none" stroke="#CFCCC9" stroke-width="0.5" x1="766" y1="588.93" x2="766" y2="1041.18"/>
		
			<line clip-path="url(#SVGID_124_)" fill="none" stroke="#CFCCC9" stroke-width="0.5" x1="223" y1="634.93" x2="1056.36" y2="634.93"/>
		
			<line clip-path="url(#SVGID_124_)" fill="none" stroke="#CFCCC9" stroke-width="0.5" x1="223" y1="679.93" x2="1056.36" y2="679.93"/>
		
			<line clip-path="url(#SVGID_124_)" fill="none" stroke="#CFCCC9" stroke-width="0.5" x1="223" y1="724.93" x2="1056.36" y2="724.93"/>
		
			<line clip-path="url(#SVGID_124_)" fill="none" stroke="#CFCCC9" stroke-width="0.5" x1="223" y1="769.93" x2="1056.36" y2="769.93"/>
		
			<line clip-path="url(#SVGID_124_)" fill="none" stroke="#CFCCC9" stroke-width="0.5" x1="223" y1="814.93" x2="1056.36" y2="814.93"/>
		
			<line clip-path="url(#SVGID_124_)" fill="none" stroke="#CFCCC9" stroke-width="0.5" x1="223" y1="859.93" x2="1056.36" y2="859.93"/>
		
			<line clip-path="url(#SVGID_124_)" fill="none" stroke="#CFCCC9" stroke-width="0.5" x1="223" y1="904.93" x2="1056.36" y2="904.93"/>
		
			<line clip-path="url(#SVGID_124_)" fill="none" stroke="#CFCCC9" stroke-width="0.5" x1="223" y1="949.93" x2="1056.36" y2="949.93"/>
		
			<line clip-path="url(#SVGID_124_)" fill="none" stroke="#CFCCC9" stroke-width="0.5" x1="223" y1="994.93" x2="1056.36" y2="994.93"/>
		
			<line clip-path="url(#SVGID_124_)" fill="none" stroke="#CFCCC9" stroke-width="0.5" x1="223" y1="589.93" x2="1056.36" y2="589.93"/>
		
			<line clip-path="url(#SVGID_124_)" fill="none" stroke="#B6B2AD" stroke-width="0.75" x1="224" y1="543.68" x2="224" y2="589.93"/>
		
			<line clip-path="url(#SVGID_124_)" fill="none" stroke="#B6B2AD" stroke-width="0.75" x1="224" y1="589.93" x2="224" y2="1041.18"/>
		
			<line clip-path="url(#SVGID_124_)" fill="none" stroke="#B6B2AD" stroke-width="0.75" x1="1055.36" y1="543.68" x2="1055.36" y2="589.93"/>
		
			<line clip-path="url(#SVGID_124_)" fill="none" stroke="#B6B2AD" stroke-width="0.75" x1="1055.36" y1="589.93" x2="1055.36" y2="1041.18"/>
		
			<line clip-path="url(#SVGID_124_)" fill="none" stroke="#B6B2AD" stroke-width="0.75" x1="223" y1="544.68" x2="1056.36" y2="544.68"/>
		
			<line clip-path="url(#SVGID_124_)" fill="none" stroke="#B6B2AD" stroke-width="0.75" x1="223" y1="1040.18" x2="1056.36" y2="1040.18"/>
	</g>
	<g>
		<defs>
			<rect id="SVGID_1461_" x="220" y="321.98" width="840" height="144"/>
		</defs>
		<clipPath id="SVGID_126_">
			<use xlink:href="#SVGID_1461_"  overflow="visible"/>
		</clipPath>
		<rect x="224" y="325.98" clip-path="url(#SVGID_126_)" fill="#E5E3E0" width="542" height="45.25"/>
		<rect x="224" y="371.23" clip-path="url(#SVGID_126_)" fill="#E5E3E0" width="542" height="45"/>
		<rect x="766" y="371.23" clip-path="url(#SVGID_126_)" fill="#F0EBE3" width="290.11" height="45"/>
		<rect x="224" y="416.23" clip-path="url(#SVGID_126_)" fill="#E5E3E0" width="542" height="45.25"/>
	</g>
	<g>
		<defs>
			<rect id="SVGID_1463_" x="224.75" y="326.73" width="540.75" height="44"/>
		</defs>
		<clipPath id="SVGID_128_">
			<use xlink:href="#SVGID_1463_"  overflow="visible"/>
		</clipPath>
		<g clip-path="url(#SVGID_128_)">
			<text transform="matrix(1 0 0 1 232.7505 355.4067)"><tspan x="0" y="0" font-family="'AvenirNext-DemiBold'" font-size="20px">W</tspan><tspan x="19.36" y="0" font-family="'AvenirNext-DemiBold'" font-size="20px">orking hour</tspan></text>
		</g>
	</g>
	<g>
		<defs>
			<rect id="SVGID_1465_" x="766.5" y="326.73" width="288.86" height="44"/>
		</defs>
		<clipPath id="SVGID_130_">
			<use xlink:href="#SVGID_1465_"  overflow="visible"/>
		</clipPath>
		<g clip-path="url(#SVGID_130_)">
			<text transform="matrix(1 0 0 1 774.5005 355.4067)"><tspan x="0" y="0" font-family="'AvenirNext-Regular'" font-size="20px">8</tspan><tspan x="11.6" y="0" font-family="'AvenirNext-Regular'" font-size="20px"> </tspan><tspan x="16.38" y="0" font-family="'AvenirNext-Regular'" font-size="20px">J</tspan><tspan x="26.12" y="0" font-family="'AvenirNext-Regular'" font-size="20px">am / Hari</tspan></text>
		</g>
	</g>
	<g>
		<defs>
			<rect id="SVGID_1467_" x="224.75" y="371.73" width="540.75" height="44"/>
		</defs>
		<clipPath id="SVGID_132_">
			<use xlink:href="#SVGID_1467_"  overflow="visible"/>
		</clipPath>
		<g clip-path="url(#SVGID_132_)">
			<text transform="matrix(1 0 0 1 232.7505 400.4058)" font-family="'AvenirNext-DemiBold'" font-size="20px">Budget</text>
		</g>
	</g>
	<g>
		<defs>
			<rect id="SVGID_1469_" x="766.5" y="371.73" width="288.86" height="44"/>
		</defs>
		<clipPath id="SVGID_134_">
			<use xlink:href="#SVGID_1469_"  overflow="visible"/>
		</clipPath>
		<g clip-path="url(#SVGID_134_)">
			<text transform="matrix(1 0 0 1 774.5005 400.4058)"><tspan x="0" y="0" font-family="'AvenirNext-Regular'" font-size="20px">IDR</tspan><tspan x="32.32" y="0" font-family="'AvenirNext-Regular'" font-size="20px" letter-spacing="120"> </tspan><tspan x="158.06" y="0" font-family="'AvenirNext-Regular'" font-size="20px">360,000,000</tspan></text>
		</g>
	</g>
	<g>
		<defs>
			<rect id="SVGID_1471_" x="224.75" y="416.73" width="540.75" height="44"/>
		</defs>
		<clipPath id="SVGID_136_">
			<use xlink:href="#SVGID_1471_"  overflow="visible"/>
		</clipPath>
		<g clip-path="url(#SVGID_136_)">
			<text transform="matrix(1 0 0 1 232.7505 445.4058)"><tspan x="0" y="0" font-family="'AvenirNext-DemiBold'" font-size="20px">Alloc</tspan><tspan x="46.8" y="0" font-family="'AvenirNext-DemiBold'" font-size="20px">a</tspan><tspan x="57.62" y="0" font-family="'AvenirNext-DemiBold'" font-size="20px">ted to </tspan></text>
		</g>
		<g clip-path="url(#SVGID_136_)">
			<text transform="matrix(1 0 0 1 350.3091 445.4058)"><tspan x="0" y="0" font-family="'AvenirNext-DemiBoldItalic'" font-size="20px">PET</tspan><tspan x="34.52" y="0" font-family="'AvenirNext-DemiBoldItalic'" font-size="20px">T</tspan><tspan x="44.96" y="0" font-family="'AvenirNext-DemiBoldItalic'" font-size="20px">Y</tspan><tspan x="56" y="0" font-family="'AvenirNext-DemiBoldItalic'" font-size="20px"> </tspan><tspan x="61" y="0" font-family="'AvenirNext-DemiBoldItalic'" font-size="20px">C</tspan><tspan x="74.4" y="0" font-family="'AvenirNext-DemiBoldItalic'" font-size="20px">ASH</tspan></text>
		</g>
	</g>
	<g>
		<defs>
			<rect id="SVGID_1473_" x="766.5" y="416.73" width="288.86" height="44"/>
		</defs>
		<clipPath id="SVGID_138_">
			<use xlink:href="#SVGID_1473_"  overflow="visible"/>
		</clipPath>
		<g clip-path="url(#SVGID_138_)">
			<text transform="matrix(1 0 0 1 774.5005 445.4058)"><tspan x="0" y="0" font-family="'AvenirNext-Regular'" font-size="20px">IDR</tspan><tspan x="32.32" y="0" font-family="'AvenirNext-Regular'" font-size="20px" letter-spacing="120"> </tspan><tspan x="158.06" y="0" font-family="'AvenirNext-Regular'" font-size="20px">100,000,000</tspan></text>
		</g>
	</g>
	<g>
		<defs>
			<rect id="SVGID_1475_" x="220" y="321.98" width="840" height="144"/>
		</defs>
		<clipPath id="SVGID_140_">
			<use xlink:href="#SVGID_1475_"  overflow="visible"/>
		</clipPath>
		<line clip-path="url(#SVGID_140_)" fill="none" stroke="#CFCCC9" stroke-width="0.5" x1="223" y1="371.23" x2="766" y2="371.23"/>
		
			<line clip-path="url(#SVGID_140_)" fill="none" stroke="#CFCCC9" stroke-width="0.5" x1="766" y1="371.23" x2="1057.11" y2="371.23"/>
		<line clip-path="url(#SVGID_140_)" fill="none" stroke="#CFCCC9" stroke-width="0.5" x1="223" y1="416.23" x2="766" y2="416.23"/>
		
			<line clip-path="url(#SVGID_140_)" fill="none" stroke="#CFCCC9" stroke-width="0.5" x1="766" y1="416.23" x2="1057.11" y2="416.23"/>
		<line clip-path="url(#SVGID_140_)" fill="none" stroke="#CFCCC9" stroke-width="0.5" x1="766" y1="324.98" x2="766" y2="462.48"/>
		
			<line clip-path="url(#SVGID_140_)" fill="none" stroke="#B6B2AD" stroke-width="0.75" x1="224" y1="324.98" x2="224" y2="462.48"/>
		
			<line clip-path="url(#SVGID_140_)" fill="none" stroke="#B6B2AD" stroke-width="0.75" x1="1056.11" y1="324.98" x2="1056.11" y2="462.48"/>
		
			<line clip-path="url(#SVGID_140_)" fill="none" stroke="#B6B2AD" stroke-width="0.75" x1="223" y1="325.98" x2="766" y2="325.98"/>
		
			<line clip-path="url(#SVGID_140_)" fill="none" stroke="#B6B2AD" stroke-width="0.75" x1="766" y1="325.98" x2="1057.11" y2="325.98"/>
		
			<line clip-path="url(#SVGID_140_)" fill="none" stroke="#B6B2AD" stroke-width="0.75" x1="223" y1="461.48" x2="766" y2="461.48"/>
		
			<line clip-path="url(#SVGID_140_)" fill="none" stroke="#B6B2AD" stroke-width="0.75" x1="766" y1="461.48" x2="1057.11" y2="461.48"/>
	</g>
	<g>
		<defs>
			<rect id="SVGID_1477_" x="222.44" y="235.32" width="413.71" height="84.72"/>
		</defs>
		<clipPath id="SVGID_142_">
			<use xlink:href="#SVGID_1477_"  overflow="visible"/>
		</clipPath>
		<g clip-path="url(#SVGID_142_)">
			<text transform="matrix(1 0 0 1 232.0005 272.6382)" font-family="'AvenirNext-Bold'" font-size="28px">MARKETING</text>
		</g>
		<g clip-path="url(#SVGID_142_)">
			<text transform="matrix(1 0 0 1 403.4438 272.6382)" font-family="'AvenirNext-Italic'" font-size="28px"> (Cukis yg isi ntar)</text>
		</g>
	</g>
</g>
</svg>
