<?xml version="1.0" encoding="utf-8"?>
<!-- Generator: Adobe Illustrator 24.3.0, SVG Export Plug-In . SVG Version: 6.00 Build 0)  -->
<svg version="1.1" id="Layer_1" xmlns="http://www.w3.org/2000/svg" xmlns:xlink="http://www.w3.org/1999/xlink" x="0px" y="0px"
	 viewBox="0 0 1280 1280" enable-background="new 0 0 1280 1280" xml:space="preserve">
<rect fill="#FFFFFF" width="1280" height="1280"/>
<g>
	<g>
		<g>
			<defs>
				<rect id="SVGID_871_" x="211" y="523.35" width="840" height="504"/>
			</defs>
			<clipPath id="SVGID_2_">
				<use xlink:href="#SVGID_871_"  overflow="visible"/>
			</clipPath>
			<rect x="215" y="527.35" clip-path="url(#SVGID_2_)" fill="#64615D" width="112" height="45.25"/>
			<rect x="327" y="527.35" clip-path="url(#SVGID_2_)" fill="#64615D" width="112" height="45.25"/>
			<rect x="439" y="527.35" clip-path="url(#SVGID_2_)" fill="#64615D" width="112" height="45.25"/>
			<rect x="551" y="527.35" clip-path="url(#SVGID_2_)" fill="#64615D" width="206" height="45.25"/>
			<rect x="757" y="527.35" clip-path="url(#SVGID_2_)" fill="#64615D" width="289.36" height="45.25"/>
			<rect x="215" y="617.6" clip-path="url(#SVGID_2_)" fill="#F0EBE3" width="112" height="45"/>
			<rect x="327" y="617.6" clip-path="url(#SVGID_2_)" fill="#F0EBE3" width="112" height="45"/>
			<rect x="439" y="617.6" clip-path="url(#SVGID_2_)" fill="#F0EBE3" width="112" height="45"/>
			<rect x="551" y="617.6" clip-path="url(#SVGID_2_)" fill="#F0EBE3" width="206" height="45"/>
			<rect x="757" y="617.6" clip-path="url(#SVGID_2_)" fill="#F0EBE3" width="289.36" height="45"/>
			<rect x="215" y="707.6" clip-path="url(#SVGID_2_)" fill="#F0EBE3" width="112" height="45"/>
			<rect x="327" y="707.6" clip-path="url(#SVGID_2_)" fill="#F0EBE3" width="112" height="45"/>
			<rect x="439" y="707.6" clip-path="url(#SVGID_2_)" fill="#F0EBE3" width="112" height="45"/>
			<rect x="551" y="707.6" clip-path="url(#SVGID_2_)" fill="#F0EBE3" width="206" height="45"/>
			<rect x="757" y="707.6" clip-path="url(#SVGID_2_)" fill="#F0EBE3" width="289.36" height="45"/>
			<rect x="215" y="797.6" clip-path="url(#SVGID_2_)" fill="#F0EBE3" width="112" height="45"/>
			<rect x="327" y="797.6" clip-path="url(#SVGID_2_)" fill="#F0EBE3" width="112" height="45"/>
			<rect x="439" y="797.6" clip-path="url(#SVGID_2_)" fill="#F0EBE3" width="112" height="45"/>
			<rect x="551" y="797.6" clip-path="url(#SVGID_2_)" fill="#F0EBE3" width="206" height="45"/>
			<rect x="757" y="797.6" clip-path="url(#SVGID_2_)" fill="#F0EBE3" width="289.36" height="45"/>
			<rect x="215" y="887.6" clip-path="url(#SVGID_2_)" fill="#F0EBE3" width="112" height="45"/>
			<rect x="327" y="887.6" clip-path="url(#SVGID_2_)" fill="#F0EBE3" width="112" height="45"/>
			<rect x="439" y="887.6" clip-path="url(#SVGID_2_)" fill="#F0EBE3" width="112" height="45"/>
			<rect x="551" y="887.6" clip-path="url(#SVGID_2_)" fill="#F0EBE3" width="206" height="45"/>
			<rect x="757" y="887.6" clip-path="url(#SVGID_2_)" fill="#F0EBE3" width="289.36" height="45"/>
			<rect x="215" y="977.6" clip-path="url(#SVGID_2_)" fill="#F0EBE3" width="112" height="45.25"/>
			<rect x="327" y="977.6" clip-path="url(#SVGID_2_)" fill="#F0EBE3" width="112" height="45.25"/>
			<rect x="439" y="977.6" clip-path="url(#SVGID_2_)" fill="#F0EBE3" width="112" height="45.25"/>
			<rect x="551" y="977.6" clip-path="url(#SVGID_2_)" fill="#F0EBE3" width="206" height="45.25"/>
			<rect x="757" y="977.6" clip-path="url(#SVGID_2_)" fill="#F0EBE3" width="289.36" height="45.25"/>
		</g>
		<g>
			<defs>
				<rect id="SVGID_873_" x="215.75" y="528.1" width="111.25" height="44"/>
			</defs>
			<clipPath id="SVGID_4_">
				<use xlink:href="#SVGID_873_"  overflow="visible"/>
			</clipPath>
			<g clip-path="url(#SVGID_4_)">
				<text transform="matrix(1 0 0 1 223.7489 556.7822)"><tspan x="0" y="0" fill="#FFFFFF" font-family="'AvenirNext-DemiBold'" font-size="20px" letter-spacing="-1">P</tspan><tspan x="10.92" y="0" fill="#FFFFFF" font-family="'AvenirNext-DemiBold'" font-size="20px">eriod</tspan></text>
			</g>
		</g>
		<g>
			<defs>
				<rect id="SVGID_875_" x="327" y="528.1" width="112" height="44"/>
			</defs>
			<clipPath id="SVGID_6_">
				<use xlink:href="#SVGID_875_"  overflow="visible"/>
			</clipPath>
			<g clip-path="url(#SVGID_6_)">
				<text transform="matrix(1 0 0 1 334.9988 556.7822)" fill="#FFFFFF" font-family="'AvenirNext-DemiBold'" font-size="20px">Month</text>
			</g>
		</g>
		<g>
			<defs>
				<rect id="SVGID_877_" x="439" y="528.1" width="112" height="44"/>
			</defs>
			<clipPath id="SVGID_8_">
				<use xlink:href="#SVGID_877_"  overflow="visible"/>
			</clipPath>
			<g clip-path="url(#SVGID_8_)">
				<text transform="matrix(1 0 0 1 446.9988 556.7822)"><tspan x="0" y="0" fill="#FFFFFF" font-family="'AvenirNext-DemiBold'" font-size="20px" letter-spacing="-1">P</tspan><tspan x="10.92" y="0" fill="#FFFFFF" font-family="'AvenirNext-DemiBold'" font-size="20px">erson</tspan></text>
			</g>
		</g>
		<g>
			<defs>
				<rect id="SVGID_879_" x="551" y="528.1" width="206" height="44"/>
			</defs>
			<clipPath id="SVGID_10_">
				<use xlink:href="#SVGID_879_"  overflow="visible"/>
			</clipPath>
			<g clip-path="url(#SVGID_10_)">
				<text transform="matrix(1 0 0 1 558.9988 556.7822)" fill="#FFFFFF" font-family="'AvenirNext-DemiBold'" font-size="20px">Salary</text>
			</g>
		</g>
		<g>
			<defs>
				<rect id="SVGID_881_" x="757" y="528.1" width="288.61" height="44"/>
			</defs>
			<clipPath id="SVGID_12_">
				<use xlink:href="#SVGID_881_"  overflow="visible"/>
			</clipPath>
			<g clip-path="url(#SVGID_12_)">
				<text transform="matrix(1 0 0 1 764.9988 556.7822)"><tspan x="0" y="0" fill="#FFFFFF" font-family="'AvenirNext-DemiBold'" font-size="20px" letter-spacing="-1">T</tspan><tspan x="9.44" y="0" fill="#FFFFFF" font-family="'AvenirNext-DemiBold'" font-size="20px">otal </tspan><tspan x="49.8" y="0" fill="#FFFFFF" font-family="'AvenirNext-DemiBold'" font-size="20px">C</tspan><tspan x="63.48" y="0" fill="#FFFFFF" font-family="'AvenirNext-DemiBold'" font-size="20px">ost</tspan></text>
			</g>
		</g>
		<g>
			<defs>
				<rect id="SVGID_883_" x="215.75" y="573.1" width="110.75" height="44"/>
			</defs>
			<clipPath id="SVGID_14_">
				<use xlink:href="#SVGID_883_"  overflow="visible"/>
			</clipPath>
			<g clip-path="url(#SVGID_14_)">
				<text transform="matrix(1 0 0 1 223.7489 601.7822)" font-family="'AvenirNext-Regular'" font-size="20px">1</text>
			</g>
		</g>
		<g>
			<defs>
				<rect id="SVGID_885_" x="327.5" y="573.1" width="111" height="44"/>
			</defs>
			<clipPath id="SVGID_16_">
				<use xlink:href="#SVGID_885_"  overflow="visible"/>
			</clipPath>
			<g clip-path="url(#SVGID_16_)">
				<text transform="matrix(1 0 0 1 359.2195 601.7822)"><tspan x="0" y="0" font-family="'AvenirNext-Regular'" font-size="20px">J</tspan><tspan x="9.74" y="0" font-family="'AvenirNext-Regular'" font-size="20px">anuary</tspan></text>
			</g>
		</g>
		<g>
			<defs>
				<rect id="SVGID_887_" x="439.5" y="573.1" width="111" height="44"/>
			</defs>
			<clipPath id="SVGID_18_">
				<use xlink:href="#SVGID_887_"  overflow="visible"/>
			</clipPath>
			<g clip-path="url(#SVGID_18_)">
				<text transform="matrix(1 0 0 1 447.4988 601.7822)" font-family="'AvenirNext-Regular'" font-size="20px">10</text>
			</g>
		</g>
		<g>
			<defs>
				<rect id="SVGID_889_" x="551.5" y="573.1" width="205" height="44"/>
			</defs>
			<clipPath id="SVGID_20_">
				<use xlink:href="#SVGID_889_"  overflow="visible"/>
			</clipPath>
			<g clip-path="url(#SVGID_20_)">
				<text transform="matrix(1 0 0 1 559.4988 601.7822)"><tspan x="0" y="0" font-family="'AvenirNext-Regular'" font-size="20px">IDR</tspan><tspan x="32.32" y="0" font-family="'AvenirNext-Regular'" font-size="20px" letter-spacing="60"> </tspan><tspan x="97.38" y="0" font-family="'AvenirNext-Regular'" font-size="20px">3,500,000</tspan></text>
			</g>
		</g>
		<g>
			<defs>
				<rect id="SVGID_891_" x="757.5" y="573.1" width="288.11" height="44"/>
			</defs>
			<clipPath id="SVGID_22_">
				<use xlink:href="#SVGID_891_"  overflow="visible"/>
			</clipPath>
			<g clip-path="url(#SVGID_22_)">
				<text transform="matrix(1 0 0 1 765.4988 601.7822)"><tspan x="0" y="0" font-family="'AvenirNext-Regular'" font-size="20px">IDR</tspan><tspan x="32.32" y="0" font-family="'AvenirNext-Regular'" font-size="20px" letter-spacing="131"> </tspan><tspan x="168.9" y="0" font-family="'AvenirNext-Regular'" font-size="20px">35,000,000</tspan></text>
			</g>
		</g>
		<g>
			<defs>
				<rect id="SVGID_893_" x="215.75" y="618.1" width="110.75" height="44"/>
			</defs>
			<clipPath id="SVGID_24_">
				<use xlink:href="#SVGID_893_"  overflow="visible"/>
			</clipPath>
			<g clip-path="url(#SVGID_24_)">
				<text transform="matrix(1 0 0 1 223.7489 646.7822)" font-family="'AvenirNext-Regular'" font-size="20px">2</text>
			</g>
		</g>
		<g>
			<defs>
				<rect id="SVGID_895_" x="327.5" y="618.1" width="111" height="44"/>
			</defs>
			<clipPath id="SVGID_26_">
				<use xlink:href="#SVGID_895_"  overflow="visible"/>
			</clipPath>
			<g clip-path="url(#SVGID_26_)">
				<text transform="matrix(1 0 0 1 349.5789 646.7822)"><tspan x="0" y="0" font-family="'AvenirNext-Regular'" font-size="20px">F</tspan><tspan x="10.3" y="0" font-family="'AvenirNext-Regular'" font-size="20px">ebruary</tspan></text>
			</g>
		</g>
		<g>
			<defs>
				<rect id="SVGID_897_" x="439.5" y="618.1" width="111" height="44"/>
			</defs>
			<clipPath id="SVGID_28_">
				<use xlink:href="#SVGID_897_"  overflow="visible"/>
			</clipPath>
			<g clip-path="url(#SVGID_28_)">
				<text transform="matrix(1 0 0 1 447.4988 646.7822)" font-family="'AvenirNext-Regular'" font-size="20px">10</text>
			</g>
		</g>
		<g>
			<defs>
				<rect id="SVGID_899_" x="551.5" y="618.1" width="205" height="44"/>
			</defs>
			<clipPath id="SVGID_30_">
				<use xlink:href="#SVGID_899_"  overflow="visible"/>
			</clipPath>
			<g clip-path="url(#SVGID_30_)">
				<text transform="matrix(1 0 0 1 559.4988 646.7822)"><tspan x="0" y="0" font-family="'AvenirNext-Regular'" font-size="20px">IDR</tspan><tspan x="32.32" y="0" font-family="'AvenirNext-Regular'" font-size="20px" letter-spacing="60"> </tspan><tspan x="97.38" y="0" font-family="'AvenirNext-Regular'" font-size="20px">3,000,000</tspan></text>
			</g>
		</g>
		<g>
			<defs>
				<rect id="SVGID_901_" x="757.5" y="618.1" width="288.11" height="44"/>
			</defs>
			<clipPath id="SVGID_32_">
				<use xlink:href="#SVGID_901_"  overflow="visible"/>
			</clipPath>
			<g clip-path="url(#SVGID_32_)">
				<text transform="matrix(1 0 0 1 765.4988 646.7822)"><tspan x="0" y="0" font-family="'AvenirNext-Regular'" font-size="20px">IDR</tspan><tspan x="32.32" y="0" font-family="'AvenirNext-Regular'" font-size="20px" letter-spacing="131"> </tspan><tspan x="168.9" y="0" font-family="'AvenirNext-Regular'" font-size="20px">30,000,000</tspan></text>
			</g>
		</g>
		<g>
			<defs>
				<rect id="SVGID_903_" x="215.75" y="663.1" width="110.75" height="44"/>
			</defs>
			<clipPath id="SVGID_34_">
				<use xlink:href="#SVGID_903_"  overflow="visible"/>
			</clipPath>
			<g clip-path="url(#SVGID_34_)">
				<text transform="matrix(1 0 0 1 223.7489 691.7822)" font-family="'AvenirNext-Regular'" font-size="20px">3</text>
			</g>
		</g>
		<g>
			<defs>
				<rect id="SVGID_905_" x="327.5" y="663.1" width="111" height="44"/>
			</defs>
			<clipPath id="SVGID_36_">
				<use xlink:href="#SVGID_905_"  overflow="visible"/>
			</clipPath>
			<g clip-path="url(#SVGID_36_)">
				<text transform="matrix(1 0 0 1 373.5994 691.7822)"><tspan x="0" y="0" font-family="'AvenirNext-Regular'" font-size="20px">Ma</tspan><tspan x="28.4" y="0" font-family="'AvenirNext-Regular'" font-size="20px">r</tspan><tspan x="35.26" y="0" font-family="'AvenirNext-Regular'" font-size="20px">ch</tspan></text>
			</g>
		</g>
		<g>
			<defs>
				<rect id="SVGID_907_" x="439.5" y="663.1" width="111" height="44"/>
			</defs>
			<clipPath id="SVGID_38_">
				<use xlink:href="#SVGID_907_"  overflow="visible"/>
			</clipPath>
			<g clip-path="url(#SVGID_38_)">
				<text transform="matrix(1 0 0 1 447.4988 691.7822)" font-family="'AvenirNext-Regular'" font-size="20px">10</text>
			</g>
		</g>
		<g>
			<defs>
				<rect id="SVGID_909_" x="551.5" y="663.1" width="205" height="44"/>
			</defs>
			<clipPath id="SVGID_40_">
				<use xlink:href="#SVGID_909_"  overflow="visible"/>
			</clipPath>
			<g clip-path="url(#SVGID_40_)">
				<text transform="matrix(1 0 0 1 559.4988 691.7822)"><tspan x="0" y="0" font-family="'AvenirNext-Regular'" font-size="20px">IDR</tspan><tspan x="32.32" y="0" font-family="'AvenirNext-Regular'" font-size="20px" letter-spacing="60"> </tspan><tspan x="97.38" y="0" font-family="'AvenirNext-Regular'" font-size="20px">3,000,000</tspan></text>
			</g>
		</g>
		<g>
			<defs>
				<rect id="SVGID_911_" x="757.5" y="663.1" width="288.11" height="44"/>
			</defs>
			<clipPath id="SVGID_42_">
				<use xlink:href="#SVGID_911_"  overflow="visible"/>
			</clipPath>
			<g clip-path="url(#SVGID_42_)">
				<text transform="matrix(1 0 0 1 765.4988 691.7822)"><tspan x="0" y="0" font-family="'AvenirNext-Regular'" font-size="20px">IDR</tspan><tspan x="32.32" y="0" font-family="'AvenirNext-Regular'" font-size="20px" letter-spacing="131"> </tspan><tspan x="168.9" y="0" font-family="'AvenirNext-Regular'" font-size="20px">30,000,000</tspan></text>
			</g>
		</g>
		<g>
			<defs>
				<rect id="SVGID_913_" x="215.75" y="708.1" width="110.75" height="44"/>
			</defs>
			<clipPath id="SVGID_44_">
				<use xlink:href="#SVGID_913_"  overflow="visible"/>
			</clipPath>
			<g clip-path="url(#SVGID_44_)">
				<text transform="matrix(1 0 0 1 223.7489 736.7822)" font-family="'AvenirNext-Regular'" font-size="20px">4</text>
			</g>
		</g>
		<g>
			<defs>
				<rect id="SVGID_915_" x="327.5" y="708.1" width="111" height="44"/>
			</defs>
			<clipPath id="SVGID_46_">
				<use xlink:href="#SVGID_915_"  overflow="visible"/>
			</clipPath>
			<g clip-path="url(#SVGID_46_)">
				<text transform="matrix(1 0 0 1 386.5594 736.7822)" font-family="'AvenirNext-Regular'" font-size="20px">April</text>
			</g>
		</g>
		<g>
			<defs>
				<rect id="SVGID_917_" x="439.5" y="708.1" width="111" height="44"/>
			</defs>
			<clipPath id="SVGID_48_">
				<use xlink:href="#SVGID_917_"  overflow="visible"/>
			</clipPath>
			<g clip-path="url(#SVGID_48_)">
				<text transform="matrix(1 0 0 1 447.4988 736.7822)" font-family="'AvenirNext-Regular'" font-size="20px">10</text>
			</g>
		</g>
		<g>
			<defs>
				<rect id="SVGID_919_" x="551.5" y="708.1" width="205" height="44"/>
			</defs>
			<clipPath id="SVGID_50_">
				<use xlink:href="#SVGID_919_"  overflow="visible"/>
			</clipPath>
			<g clip-path="url(#SVGID_50_)">
				<text transform="matrix(1 0 0 1 559.4988 736.7822)"><tspan x="0" y="0" font-family="'AvenirNext-Regular'" font-size="20px">IDR</tspan><tspan x="32.32" y="0" font-family="'AvenirNext-Regular'" font-size="20px" letter-spacing="60"> </tspan><tspan x="97.38" y="0" font-family="'AvenirNext-Regular'" font-size="20px">3,000,000</tspan></text>
			</g>
		</g>
		<g>
			<defs>
				<rect id="SVGID_921_" x="757.5" y="708.1" width="288.11" height="44"/>
			</defs>
			<clipPath id="SVGID_52_">
				<use xlink:href="#SVGID_921_"  overflow="visible"/>
			</clipPath>
			<g clip-path="url(#SVGID_52_)">
				<text transform="matrix(1 0 0 1 765.4988 736.7822)"><tspan x="0" y="0" font-family="'AvenirNext-Regular'" font-size="20px">IDR</tspan><tspan x="32.32" y="0" font-family="'AvenirNext-Regular'" font-size="20px" letter-spacing="131"> </tspan><tspan x="168.9" y="0" font-family="'AvenirNext-Regular'" font-size="20px">30,000,000</tspan></text>
			</g>
		</g>
		<g>
			<defs>
				<rect id="SVGID_923_" x="215.75" y="753.1" width="110.75" height="44"/>
			</defs>
			<clipPath id="SVGID_54_">
				<use xlink:href="#SVGID_923_"  overflow="visible"/>
			</clipPath>
			<g clip-path="url(#SVGID_54_)">
				<text transform="matrix(1 0 0 1 223.7489 781.7822)" font-family="'AvenirNext-Regular'" font-size="20px">5</text>
			</g>
		</g>
		<g>
			<defs>
				<rect id="SVGID_925_" x="327.5" y="753.1" width="111" height="44"/>
			</defs>
			<clipPath id="SVGID_56_">
				<use xlink:href="#SVGID_925_"  overflow="visible"/>
			</clipPath>
			<g clip-path="url(#SVGID_56_)">
				<text transform="matrix(1 0 0 1 392.3397 781.7822)" font-family="'AvenirNext-Regular'" font-size="20px">May</text>
			</g>
		</g>
		<g>
			<defs>
				<rect id="SVGID_927_" x="439.5" y="753.1" width="111" height="44"/>
			</defs>
			<clipPath id="SVGID_58_">
				<use xlink:href="#SVGID_927_"  overflow="visible"/>
			</clipPath>
			<g clip-path="url(#SVGID_58_)">
				<text transform="matrix(1 0 0 1 447.4988 781.7822)" font-family="'AvenirNext-Regular'" font-size="20px">10</text>
			</g>
		</g>
		<g>
			<defs>
				<rect id="SVGID_929_" x="551.5" y="753.1" width="205" height="44"/>
			</defs>
			<clipPath id="SVGID_60_">
				<use xlink:href="#SVGID_929_"  overflow="visible"/>
			</clipPath>
			<g clip-path="url(#SVGID_60_)">
				<text transform="matrix(1 0 0 1 559.4988 781.7822)"><tspan x="0" y="0" font-family="'AvenirNext-Regular'" font-size="20px">IDR</tspan><tspan x="32.32" y="0" font-family="'AvenirNext-Regular'" font-size="20px" letter-spacing="60"> </tspan><tspan x="97.38" y="0" font-family="'AvenirNext-Regular'" font-size="20px">3,000,000</tspan></text>
			</g>
		</g>
		<g>
			<defs>
				<rect id="SVGID_931_" x="757.5" y="753.1" width="288.11" height="44"/>
			</defs>
			<clipPath id="SVGID_62_">
				<use xlink:href="#SVGID_931_"  overflow="visible"/>
			</clipPath>
			<g clip-path="url(#SVGID_62_)">
				<text transform="matrix(1 0 0 1 765.4988 781.7822)"><tspan x="0" y="0" font-family="'AvenirNext-Regular'" font-size="20px">IDR</tspan><tspan x="32.32" y="0" font-family="'AvenirNext-Regular'" font-size="20px" letter-spacing="131"> </tspan><tspan x="168.9" y="0" font-family="'AvenirNext-Regular'" font-size="20px">30,000,000</tspan></text>
			</g>
		</g>
		<g>
			<defs>
				<rect id="SVGID_933_" x="215.75" y="798.1" width="110.75" height="44"/>
			</defs>
			<clipPath id="SVGID_64_">
				<use xlink:href="#SVGID_933_"  overflow="visible"/>
			</clipPath>
			<g clip-path="url(#SVGID_64_)">
				<text transform="matrix(1 0 0 1 223.7489 826.7822)" font-family="'AvenirNext-Regular'" font-size="20px">6</text>
			</g>
		</g>
		<g>
			<defs>
				<rect id="SVGID_935_" x="327.5" y="798.1" width="111" height="44"/>
			</defs>
			<clipPath id="SVGID_66_">
				<use xlink:href="#SVGID_935_"  overflow="visible"/>
			</clipPath>
			<g clip-path="url(#SVGID_66_)">
				<text transform="matrix(1 0 0 1 385.9793 826.7822)" font-family="'AvenirNext-Regular'" font-size="20px">June</text>
			</g>
		</g>
		<g>
			<defs>
				<rect id="SVGID_937_" x="439.5" y="798.1" width="111" height="44"/>
			</defs>
			<clipPath id="SVGID_68_">
				<use xlink:href="#SVGID_937_"  overflow="visible"/>
			</clipPath>
			<g clip-path="url(#SVGID_68_)">
				<text transform="matrix(1 0 0 1 447.4988 826.7822)" font-family="'AvenirNext-Regular'" font-size="20px">5</text>
			</g>
		</g>
		<g>
			<defs>
				<rect id="SVGID_939_" x="551.5" y="798.1" width="205" height="44"/>
			</defs>
			<clipPath id="SVGID_70_">
				<use xlink:href="#SVGID_939_"  overflow="visible"/>
			</clipPath>
			<g clip-path="url(#SVGID_70_)">
				<text transform="matrix(1 0 0 1 559.4988 826.7822)"><tspan x="0" y="0" font-family="'AvenirNext-Regular'" font-size="20px">IDR</tspan><tspan x="32.32" y="0" font-family="'AvenirNext-Regular'" font-size="20px" letter-spacing="60"> </tspan><tspan x="97.38" y="0" font-family="'AvenirNext-Regular'" font-size="20px">3,000,000</tspan></text>
			</g>
		</g>
		<g>
			<defs>
				<rect id="SVGID_941_" x="757.5" y="798.1" width="288.11" height="44"/>
			</defs>
			<clipPath id="SVGID_72_">
				<use xlink:href="#SVGID_941_"  overflow="visible"/>
			</clipPath>
			<g clip-path="url(#SVGID_72_)">
				<text transform="matrix(1 0 0 1 765.4988 826.7822)"><tspan x="0" y="0" font-family="'AvenirNext-Regular'" font-size="20px">IDR</tspan><tspan x="32.32" y="0" font-family="'AvenirNext-Regular'" font-size="20px" letter-spacing="131"> </tspan><tspan x="168.9" y="0" font-family="'AvenirNext-Regular'" font-size="20px">15,000,000</tspan></text>
			</g>
		</g>
		<g>
			<defs>
				<rect id="SVGID_943_" x="215.75" y="843.1" width="110.75" height="44"/>
			</defs>
			<clipPath id="SVGID_98_">
				<use xlink:href="#SVGID_943_"  overflow="visible"/>
			</clipPath>
			<g clip-path="url(#SVGID_98_)">
				<text transform="matrix(1 0 0 1 223.7489 871.7822)" font-family="'AvenirNext-Regular'" font-size="20px">7</text>
			</g>
		</g>
		<g>
			<defs>
				<rect id="SVGID_945_" x="327.5" y="843.1" width="111" height="44"/>
			</defs>
			<clipPath id="SVGID_100_">
				<use xlink:href="#SVGID_945_"  overflow="visible"/>
			</clipPath>
			<g clip-path="url(#SVGID_100_)">
				<text transform="matrix(1 0 0 1 394.2391 871.7822)" font-family="'AvenirNext-Regular'" font-size="20px">July</text>
			</g>
		</g>
		<g>
			<defs>
				<rect id="SVGID_947_" x="439.5" y="843.1" width="111" height="44"/>
			</defs>
			<clipPath id="SVGID_102_">
				<use xlink:href="#SVGID_947_"  overflow="visible"/>
			</clipPath>
			<g clip-path="url(#SVGID_102_)">
				<text transform="matrix(1 0 0 1 447.4988 871.7822)" font-family="'AvenirNext-Regular'" font-size="20px">5</text>
			</g>
		</g>
		<g>
			<defs>
				<rect id="SVGID_949_" x="551.5" y="843.1" width="205" height="44"/>
			</defs>
			<clipPath id="SVGID_104_">
				<use xlink:href="#SVGID_949_"  overflow="visible"/>
			</clipPath>
			<g clip-path="url(#SVGID_104_)">
				<text transform="matrix(1 0 0 1 559.4988 871.7822)"><tspan x="0" y="0" font-family="'AvenirNext-Regular'" font-size="20px">IDR</tspan><tspan x="32.32" y="0" font-family="'AvenirNext-Regular'" font-size="20px" letter-spacing="60"> </tspan><tspan x="97.38" y="0" font-family="'AvenirNext-Regular'" font-size="20px">3,000,000</tspan></text>
			</g>
		</g>
		<g>
			<defs>
				<rect id="SVGID_951_" x="757.5" y="843.1" width="288.11" height="44"/>
			</defs>
			<clipPath id="SVGID_106_">
				<use xlink:href="#SVGID_951_"  overflow="visible"/>
			</clipPath>
			<g clip-path="url(#SVGID_106_)">
				<text transform="matrix(1 0 0 1 765.4988 871.7822)"><tspan x="0" y="0" font-family="'AvenirNext-Regular'" font-size="20px">IDR</tspan><tspan x="32.32" y="0" font-family="'AvenirNext-Regular'" font-size="20px" letter-spacing="131"> </tspan><tspan x="168.9" y="0" font-family="'AvenirNext-Regular'" font-size="20px">15,000,000</tspan></text>
			</g>
		</g>
		<g>
			<defs>
				<rect id="SVGID_953_" x="215.75" y="888.1" width="110.75" height="44"/>
			</defs>
			<clipPath id="SVGID_108_">
				<use xlink:href="#SVGID_953_"  overflow="visible"/>
			</clipPath>
			<g clip-path="url(#SVGID_108_)">
				<text transform="matrix(1 0 0 1 223.7489 916.7822)" font-family="'AvenirNext-Regular'" font-size="20px">8</text>
			</g>
		</g>
		<g>
			<defs>
				<rect id="SVGID_955_" x="327.5" y="888.1" width="111" height="44"/>
			</defs>
			<clipPath id="SVGID_110_">
				<use xlink:href="#SVGID_955_"  overflow="visible"/>
			</clipPath>
			<g clip-path="url(#SVGID_110_)">
				<text transform="matrix(1 0 0 1 365.3992 916.7822)" font-family="'AvenirNext-Regular'" font-size="20px">August</text>
			</g>
		</g>
		<g>
			<defs>
				<rect id="SVGID_957_" x="439.5" y="888.1" width="111" height="44"/>
			</defs>
			<clipPath id="SVGID_112_">
				<use xlink:href="#SVGID_957_"  overflow="visible"/>
			</clipPath>
			<g clip-path="url(#SVGID_112_)">
				<text transform="matrix(1 0 0 1 447.4988 916.7822)" font-family="'AvenirNext-Regular'" font-size="20px">5</text>
			</g>
		</g>
		<g>
			<defs>
				<rect id="SVGID_959_" x="551.5" y="888.1" width="205" height="44"/>
			</defs>
			<clipPath id="SVGID_114_">
				<use xlink:href="#SVGID_959_"  overflow="visible"/>
			</clipPath>
			<g clip-path="url(#SVGID_114_)">
				<text transform="matrix(1 0 0 1 559.4988 916.7822)"><tspan x="0" y="0" font-family="'AvenirNext-Regular'" font-size="20px">IDR</tspan><tspan x="32.32" y="0" font-family="'AvenirNext-Regular'" font-size="20px" letter-spacing="60"> </tspan><tspan x="97.38" y="0" font-family="'AvenirNext-Regular'" font-size="20px">3,000,000</tspan></text>
			</g>
		</g>
		<g>
			<defs>
				<rect id="SVGID_961_" x="757.5" y="888.1" width="288.11" height="44"/>
			</defs>
			<clipPath id="SVGID_116_">
				<use xlink:href="#SVGID_961_"  overflow="visible"/>
			</clipPath>
			<g clip-path="url(#SVGID_116_)">
				<text transform="matrix(1 0 0 1 765.4988 916.7822)"><tspan x="0" y="0" font-family="'AvenirNext-Regular'" font-size="20px">IDR</tspan><tspan x="32.32" y="0" font-family="'AvenirNext-Regular'" font-size="20px" letter-spacing="131"> </tspan><tspan x="168.9" y="0" font-family="'AvenirNext-Regular'" font-size="20px">15,000,000</tspan></text>
			</g>
		</g>
		<g>
			<defs>
				<rect id="SVGID_963_" x="211" y="523.35" width="840" height="504"/>
			</defs>
			<clipPath id="SVGID_118_">
				<use xlink:href="#SVGID_963_"  overflow="visible"/>
			</clipPath>
			<rect x="215" y="932.6" opacity="0" clip-path="url(#SVGID_118_)" fill="#8699AE" width="112" height="45"/>
			<rect x="327" y="932.6" opacity="0" clip-path="url(#SVGID_118_)" fill="#15C39D" width="112" height="45"/>
			<rect x="439" y="932.6" opacity="0" clip-path="url(#SVGID_118_)" fill="#2E303D" width="112" height="45"/>
			<rect x="551" y="932.6" opacity="0" clip-path="url(#SVGID_118_)" fill="#C8D8BE" width="206" height="45"/>
			<rect x="757" y="932.6" opacity="0" clip-path="url(#SVGID_118_)" fill="#3AAD59" width="289.36" height="45"/>
			<rect x="215" y="977.6" opacity="0" clip-path="url(#SVGID_118_)" fill="#27E326" width="112" height="45.25"/>
			<rect x="327" y="977.6" opacity="0" clip-path="url(#SVGID_118_)" fill="#804F3E" width="112" height="45.25"/>
			<rect x="439" y="977.6" opacity="0" clip-path="url(#SVGID_118_)" fill="#52ACF1" width="112" height="45.25"/>
		</g>
		<g>
			<defs>
				<rect id="SVGID_965_" x="551.5" y="978.1" width="205" height="44"/>
			</defs>
			<clipPath id="SVGID_120_">
				<use xlink:href="#SVGID_965_"  overflow="visible"/>
			</clipPath>
			<g clip-path="url(#SVGID_120_)">
				<text transform="matrix(1 0 0 1 559.4988 1006.7822)"><tspan x="0" y="0" font-family="'AvenirNext-Bold'" font-size="20px">SUB</tspan><tspan x="39.88" y="0" font-family="'AvenirNext-Bold'" font-size="20px" letter-spacing="-1">-</tspan><tspan x="44.62" y="0" font-family="'AvenirNext-Bold'" font-size="20px">T</tspan><tspan x="55.66" y="0" font-family="'AvenirNext-Bold'" font-size="20px">O</tspan><tspan x="72.08" y="0" font-family="'AvenirNext-Bold'" font-size="20px" letter-spacing="-1">T</tspan><tspan x="82.52" y="0" font-family="'AvenirNext-Bold'" font-size="20px">AL</tspan></text>
			</g>
		</g>
		<g>
			<defs>
				<rect id="SVGID_967_" x="757.5" y="978.1" width="288.11" height="44"/>
			</defs>
			<clipPath id="SVGID_122_">
				<use xlink:href="#SVGID_967_"  overflow="visible"/>
			</clipPath>
			<g clip-path="url(#SVGID_122_)">
				<text transform="matrix(1 0 0 1 765.4988 1006.7822)"><tspan x="0" y="0" font-family="'AvenirNext-Bold'" font-size="20px">IDR</tspan><tspan x="35.1" y="0" font-family="'AvenirNext-Bold'" font-size="20px" letter-spacing="103"> </tspan><tspan x="143.82" y="0" font-family="'AvenirNext-Bold'" font-size="20px">200,000,000</tspan></text>
			</g>
		</g>
		<g>
			<defs>
				<rect id="SVGID_969_" x="211" y="523.35" width="840" height="504"/>
			</defs>
			<clipPath id="SVGID_124_">
				<use xlink:href="#SVGID_969_"  overflow="visible"/>
			</clipPath>
			
				<line clip-path="url(#SVGID_124_)" fill="none" stroke="#CFCCC9" stroke-width="0.5" x1="327" y1="571.6" x2="327" y2="1023.85"/>
			
				<line clip-path="url(#SVGID_124_)" fill="none" stroke="#CFCCC9" stroke-width="0.5" x1="439" y1="571.6" x2="439" y2="1023.85"/>
			
				<line clip-path="url(#SVGID_124_)" fill="none" stroke="#CFCCC9" stroke-width="0.5" x1="551" y1="571.6" x2="551" y2="1023.85"/>
			
				<line clip-path="url(#SVGID_124_)" fill="none" stroke="#CFCCC9" stroke-width="0.5" x1="757" y1="571.6" x2="757" y2="1023.85"/>
			
				<line clip-path="url(#SVGID_124_)" fill="none" stroke="#CFCCC9" stroke-width="0.5" x1="214" y1="617.6" x2="1047.36" y2="617.6"/>
			
				<line clip-path="url(#SVGID_124_)" fill="none" stroke="#CFCCC9" stroke-width="0.5" x1="214" y1="662.6" x2="1047.36" y2="662.6"/>
			
				<line clip-path="url(#SVGID_124_)" fill="none" stroke="#CFCCC9" stroke-width="0.5" x1="214" y1="707.6" x2="1047.36" y2="707.6"/>
			
				<line clip-path="url(#SVGID_124_)" fill="none" stroke="#CFCCC9" stroke-width="0.5" x1="214" y1="752.6" x2="1047.36" y2="752.6"/>
			
				<line clip-path="url(#SVGID_124_)" fill="none" stroke="#CFCCC9" stroke-width="0.5" x1="214" y1="797.6" x2="1047.36" y2="797.6"/>
			
				<line clip-path="url(#SVGID_124_)" fill="none" stroke="#CFCCC9" stroke-width="0.5" x1="214" y1="842.6" x2="1047.36" y2="842.6"/>
			
				<line clip-path="url(#SVGID_124_)" fill="none" stroke="#CFCCC9" stroke-width="0.5" x1="214" y1="887.6" x2="1047.36" y2="887.6"/>
			
				<line clip-path="url(#SVGID_124_)" fill="none" stroke="#CFCCC9" stroke-width="0.5" x1="214" y1="932.6" x2="1047.36" y2="932.6"/>
			
				<line clip-path="url(#SVGID_124_)" fill="none" stroke="#CFCCC9" stroke-width="0.5" x1="214" y1="977.6" x2="1047.36" y2="977.6"/>
			
				<line clip-path="url(#SVGID_124_)" fill="none" stroke="#CFCCC9" stroke-width="0.5" x1="214" y1="572.6" x2="1047.36" y2="572.6"/>
			
				<line clip-path="url(#SVGID_124_)" fill="none" stroke="#B6B2AD" stroke-width="0.75" x1="215" y1="526.35" x2="215" y2="572.6"/>
			
				<line clip-path="url(#SVGID_124_)" fill="none" stroke="#B6B2AD" stroke-width="0.75" x1="215" y1="572.6" x2="215" y2="1023.85"/>
			
				<line clip-path="url(#SVGID_124_)" fill="none" stroke="#B6B2AD" stroke-width="0.75" x1="1046.36" y1="526.35" x2="1046.36" y2="572.6"/>
			
				<line clip-path="url(#SVGID_124_)" fill="none" stroke="#B6B2AD" stroke-width="0.75" x1="1046.36" y1="572.6" x2="1046.36" y2="1023.85"/>
			
				<line clip-path="url(#SVGID_124_)" fill="none" stroke="#B6B2AD" stroke-width="0.75" x1="214" y1="527.35" x2="1047.36" y2="527.35"/>
			
				<line clip-path="url(#SVGID_124_)" fill="none" stroke="#B6B2AD" stroke-width="0.75" x1="214" y1="1022.85" x2="1047.36" y2="1022.85"/>
		</g>
		<g>
			<defs>
				<rect id="SVGID_971_" x="211" y="304.65" width="840" height="144"/>
			</defs>
			<clipPath id="SVGID_126_">
				<use xlink:href="#SVGID_971_"  overflow="visible"/>
			</clipPath>
			<rect x="215" y="308.65" clip-path="url(#SVGID_126_)" fill="#E5E3E0" width="542" height="45.25"/>
			<rect x="215" y="353.9" clip-path="url(#SVGID_126_)" fill="#E5E3E0" width="542" height="45"/>
			<rect x="757" y="353.9" clip-path="url(#SVGID_126_)" fill="#F0EBE3" width="290.11" height="45"/>
			<rect x="215" y="398.9" clip-path="url(#SVGID_126_)" fill="#E5E3E0" width="542" height="45.25"/>
		</g>
		<g>
			<defs>
				<rect id="SVGID_973_" x="215.75" y="309.4" width="540.75" height="44"/>
			</defs>
			<clipPath id="SVGID_128_">
				<use xlink:href="#SVGID_973_"  overflow="visible"/>
			</clipPath>
			<g clip-path="url(#SVGID_128_)">
				<text transform="matrix(1 0 0 1 223.7489 338.082)"><tspan x="0" y="0" font-family="'AvenirNext-DemiBold'" font-size="20px">W</tspan><tspan x="19.36" y="0" font-family="'AvenirNext-DemiBold'" font-size="20px">orking hour</tspan></text>
			</g>
		</g>
		<g>
			<defs>
				<rect id="SVGID_975_" x="757.5" y="309.4" width="288.86" height="44"/>
			</defs>
			<clipPath id="SVGID_130_">
				<use xlink:href="#SVGID_975_"  overflow="visible"/>
			</clipPath>
			<g clip-path="url(#SVGID_130_)">
				<text transform="matrix(1 0 0 1 765.4988 338.082)"><tspan x="0" y="0" font-family="'AvenirNext-Regular'" font-size="20px">8</tspan><tspan x="11.6" y="0" font-family="'AvenirNext-Regular'" font-size="20px"> </tspan><tspan x="16.38" y="0" font-family="'AvenirNext-Regular'" font-size="20px">J</tspan><tspan x="26.12" y="0" font-family="'AvenirNext-Regular'" font-size="20px">am / Hari</tspan></text>
			</g>
		</g>
		<g>
			<defs>
				<rect id="SVGID_977_" x="215.75" y="354.4" width="540.75" height="44"/>
			</defs>
			<clipPath id="SVGID_132_">
				<use xlink:href="#SVGID_977_"  overflow="visible"/>
			</clipPath>
			<g clip-path="url(#SVGID_132_)">
				<text transform="matrix(1 0 0 1 223.7489 383.082)" font-family="'AvenirNext-DemiBold'" font-size="20px">Budget</text>
			</g>
		</g>
		<g>
			<defs>
				<rect id="SVGID_979_" x="757.5" y="354.4" width="288.86" height="44"/>
			</defs>
			<clipPath id="SVGID_134_">
				<use xlink:href="#SVGID_979_"  overflow="visible"/>
			</clipPath>
			<g clip-path="url(#SVGID_134_)">
				<text transform="matrix(1 0 0 1 765.4988 383.082)"><tspan x="0" y="0" font-family="'AvenirNext-Regular'" font-size="20px">IDR</tspan><tspan x="32.32" y="0" font-family="'AvenirNext-Regular'" font-size="20px" letter-spacing="120"> </tspan><tspan x="158.06" y="0" font-family="'AvenirNext-Regular'" font-size="20px">210,000,000</tspan></text>
			</g>
		</g>
		<g>
			<defs>
				<rect id="SVGID_981_" x="215.75" y="399.4" width="540.75" height="44"/>
			</defs>
			<clipPath id="SVGID_136_">
				<use xlink:href="#SVGID_981_"  overflow="visible"/>
			</clipPath>
			<g clip-path="url(#SVGID_136_)">
				<text transform="matrix(1 0 0 1 223.7489 428.082)"><tspan x="0" y="0" font-family="'AvenirNext-DemiBold'" font-size="20px">Alloc</tspan><tspan x="46.8" y="0" font-family="'AvenirNext-DemiBold'" font-size="20px">a</tspan><tspan x="57.62" y="0" font-family="'AvenirNext-DemiBold'" font-size="20px">ted to </tspan></text>
			</g>
			<g clip-path="url(#SVGID_136_)">
				<text transform="matrix(1 0 0 1 341.3094 428.082)"><tspan x="0" y="0" font-family="'AvenirNext-DemiBoldItalic'" font-size="20px">PET</tspan><tspan x="34.52" y="0" font-family="'AvenirNext-DemiBoldItalic'" font-size="20px">T</tspan><tspan x="44.96" y="0" font-family="'AvenirNext-DemiBoldItalic'" font-size="20px">Y</tspan><tspan x="56" y="0" font-family="'AvenirNext-DemiBoldItalic'" font-size="20px"> </tspan><tspan x="61" y="0" font-family="'AvenirNext-DemiBoldItalic'" font-size="20px">C</tspan><tspan x="74.4" y="0" font-family="'AvenirNext-DemiBoldItalic'" font-size="20px">ASH</tspan></text>
			</g>
		</g>
		<g>
			<defs>
				<rect id="SVGID_983_" x="757.5" y="399.4" width="288.86" height="44"/>
			</defs>
			<clipPath id="SVGID_138_">
				<use xlink:href="#SVGID_983_"  overflow="visible"/>
			</clipPath>
			<g clip-path="url(#SVGID_138_)">
				<text transform="matrix(1 0 0 1 765.4988 428.082)"><tspan x="0" y="0" font-family="'AvenirNext-Regular'" font-size="20px">IDR</tspan><tspan x="32.32" y="0" font-family="'AvenirNext-Regular'" font-size="20px" letter-spacing="132"> </tspan><tspan x="169.66" y="0" font-family="'AvenirNext-Regular'" font-size="20px">10,000,000</tspan></text>
			</g>
		</g>
		<g>
			<defs>
				<rect id="SVGID_985_" x="211" y="304.65" width="840" height="144"/>
			</defs>
			<clipPath id="SVGID_140_">
				<use xlink:href="#SVGID_985_"  overflow="visible"/>
			</clipPath>
			<line clip-path="url(#SVGID_140_)" fill="none" stroke="#CFCCC9" stroke-width="0.5" x1="214" y1="353.9" x2="757" y2="353.9"/>
			
				<line clip-path="url(#SVGID_140_)" fill="none" stroke="#CFCCC9" stroke-width="0.5" x1="757" y1="353.9" x2="1048.11" y2="353.9"/>
			<line clip-path="url(#SVGID_140_)" fill="none" stroke="#CFCCC9" stroke-width="0.5" x1="214" y1="398.9" x2="757" y2="398.9"/>
			
				<line clip-path="url(#SVGID_140_)" fill="none" stroke="#CFCCC9" stroke-width="0.5" x1="757" y1="398.9" x2="1048.11" y2="398.9"/>
			
				<line clip-path="url(#SVGID_140_)" fill="none" stroke="#CFCCC9" stroke-width="0.5" x1="757" y1="307.65" x2="757" y2="445.15"/>
			
				<line clip-path="url(#SVGID_140_)" fill="none" stroke="#B6B2AD" stroke-width="0.75" x1="215" y1="307.65" x2="215" y2="445.15"/>
			
				<line clip-path="url(#SVGID_140_)" fill="none" stroke="#B6B2AD" stroke-width="0.75" x1="1047.11" y1="307.65" x2="1047.11" y2="445.15"/>
			
				<line clip-path="url(#SVGID_140_)" fill="none" stroke="#B6B2AD" stroke-width="0.75" x1="214" y1="308.65" x2="757" y2="308.65"/>
			
				<line clip-path="url(#SVGID_140_)" fill="none" stroke="#B6B2AD" stroke-width="0.75" x1="757" y1="308.65" x2="1048.11" y2="308.65"/>
			
				<line clip-path="url(#SVGID_140_)" fill="none" stroke="#B6B2AD" stroke-width="0.75" x1="214" y1="444.15" x2="757" y2="444.15"/>
			
				<line clip-path="url(#SVGID_140_)" fill="none" stroke="#B6B2AD" stroke-width="0.75" x1="757" y1="444.15" x2="1048.11" y2="444.15"/>
		</g>
		<g>
			<defs>
				<rect id="SVGID_987_" x="213.44" y="218" width="189.15" height="84.72"/>
			</defs>
			<clipPath id="SVGID_142_">
				<use xlink:href="#SVGID_987_"  overflow="visible"/>
			</clipPath>
			<g clip-path="url(#SVGID_142_)">
				<text transform="matrix(1 0 0 1 222.9989 255.3144)"><tspan x="0" y="0" font-family="'AvenirNext-Bold'" font-size="28px">ANIM</tspan><tspan x="78.17" y="0" font-family="'AvenirNext-Bold'" font-size="28px" letter-spacing="-1">A</tspan><tspan x="96.93" y="0" font-family="'AvenirNext-Bold'" font-size="28px">TION</tspan></text>
			</g>
		</g>
	</g>
</g>
</svg>
