<?xml version="1.0" encoding="utf-8"?>
<!-- Generator: Adobe Illustrator 24.3.0, SVG Export Plug-In . SVG Version: 6.00 Build 0)  -->
<svg version="1.1" id="Layer_1" xmlns="http://www.w3.org/2000/svg" xmlns:xlink="http://www.w3.org/1999/xlink" x="0px" y="0px"
	 viewBox="0 0 1280 1280" style="enable-background:new 0 0 1280 1280;" xml:space="preserve">
<style type="text/css">
	.st0{fill:#FFFFFF;}
	.st1{opacity:0.2948;}
	.st2{clip-path:url(#SVGID_2_);fill:#64615D;}
	.st3{clip-path:url(#SVGID_4_);fill:#64615D;}
	.st4{clip-path:url(#SVGID_6_);fill:#64615D;}
	.st5{clip-path:url(#SVGID_8_);fill:#64615D;}
	.st6{clip-path:url(#SVGID_10_);fill:#64615D;}
	.st7{clip-path:url(#SVGID_12_);fill:#F0EBE3;}
	.st8{clip-path:url(#SVGID_14_);fill:#F0EBE3;}
	.st9{clip-path:url(#SVGID_16_);fill:#F0EBE3;}
	.st10{clip-path:url(#SVGID_18_);fill:#F0EBE3;}
	.st11{clip-path:url(#SVGID_20_);fill:#F0EBE3;}
	.st12{clip-path:url(#SVGID_22_);fill:#F0EBE3;}
	.st13{clip-path:url(#SVGID_24_);fill:#F0EBE3;}
	.st14{clip-path:url(#SVGID_26_);fill:#F0EBE3;}
	.st15{clip-path:url(#SVGID_28_);fill:#F0EBE3;}
	.st16{clip-path:url(#SVGID_30_);fill:#F0EBE3;}
	.st17{clip-path:url(#SVGID_32_);fill:#F0EBE3;}
	.st18{clip-path:url(#SVGID_34_);fill:#F0EBE3;}
	.st19{clip-path:url(#SVGID_36_);fill:#F0EBE3;}
	.st20{clip-path:url(#SVGID_38_);fill:#F0EBE3;}
	.st21{clip-path:url(#SVGID_40_);fill:#F0EBE3;}
	.st22{clip-path:url(#SVGID_42_);fill:#F0EBE3;}
	.st23{clip-path:url(#SVGID_44_);fill:#F0EBE3;}
	.st24{clip-path:url(#SVGID_46_);fill:#F0EBE3;}
	.st25{clip-path:url(#SVGID_48_);fill:#F0EBE3;}
	.st26{clip-path:url(#SVGID_50_);fill:#F0EBE3;}
	.st27{clip-path:url(#SVGID_52_);fill:#F0EBE3;}
	.st28{clip-path:url(#SVGID_54_);fill:#F0EBE3;}
	.st29{clip-path:url(#SVGID_56_);fill:#F0EBE3;}
	.st30{clip-path:url(#SVGID_58_);fill:#F0EBE3;}
	.st31{clip-path:url(#SVGID_60_);fill:#F0EBE3;}
	.st32{clip-path:url(#SVGID_62_);}
	.st33{enable-background:new    ;}
	.st34{clip-path:url(#SVGID_64_);}
	.st35{clip-path:url(#SVGID_66_);}
	.st36{clip-path:url(#SVGID_68_);}
	.st37{clip-path:url(#SVGID_70_);}
	.st38{clip-path:url(#SVGID_72_);fill:#426288;fill-opacity:0;}
	.st39{clip-path:url(#SVGID_74_);fill:#75611A;fill-opacity:0;}
	.st40{clip-path:url(#SVGID_76_);fill:#24D0E1;fill-opacity:0;}
	.st41{clip-path:url(#SVGID_78_);fill:#FB8A52;fill-opacity:0;}
	.st42{clip-path:url(#SVGID_80_);fill:#396477;fill-opacity:0;}
	.st43{clip-path:url(#SVGID_82_);fill:#DBB1CA;fill-opacity:0;}
	.st44{clip-path:url(#SVGID_84_);fill:#6B2F75;fill-opacity:0;}
	.st45{clip-path:url(#SVGID_86_);fill:#269DF6;fill-opacity:0;}
	.st46{clip-path:url(#SVGID_88_);fill:none;stroke:#CFCCC9;stroke-width:0.5;}
	.st47{clip-path:url(#SVGID_90_);fill:none;stroke:#CFCCC9;stroke-width:0.5;}
	.st48{clip-path:url(#SVGID_92_);fill:none;stroke:#CFCCC9;stroke-width:0.5;}
	.st49{clip-path:url(#SVGID_94_);fill:none;stroke:#CFCCC9;stroke-width:0.5;}
	.st50{clip-path:url(#SVGID_96_);fill:none;stroke:#CFCCC9;stroke-width:0.5;}
	.st51{clip-path:url(#SVGID_98_);fill:none;stroke:#CFCCC9;stroke-width:0.5;}
	.st52{clip-path:url(#SVGID_100_);fill:none;stroke:#CFCCC9;stroke-width:0.5;}
	.st53{clip-path:url(#SVGID_102_);fill:none;stroke:#CFCCC9;stroke-width:0.5;}
	.st54{clip-path:url(#SVGID_104_);fill:none;stroke:#CFCCC9;stroke-width:0.5;}
	.st55{clip-path:url(#SVGID_106_);fill:none;stroke:#CFCCC9;stroke-width:0.5;}
	.st56{clip-path:url(#SVGID_108_);fill:none;stroke:#CFCCC9;stroke-width:0.5;}
	.st57{clip-path:url(#SVGID_110_);fill:none;stroke:#CFCCC9;stroke-width:0.5;}
	.st58{clip-path:url(#SVGID_112_);fill:none;stroke:#CFCCC9;stroke-width:0.5;}
	.st59{clip-path:url(#SVGID_114_);fill:none;stroke:#CFCCC9;stroke-width:0.5;}
	.st60{clip-path:url(#SVGID_116_);fill:none;stroke:#B6B2AD;stroke-width:0.75;}
	.st61{clip-path:url(#SVGID_118_);fill:none;stroke:#B6B2AD;stroke-width:0.75;}
	.st62{clip-path:url(#SVGID_120_);fill:none;stroke:#B6B2AD;stroke-width:0.75;}
	.st63{clip-path:url(#SVGID_122_);fill:none;stroke:#B6B2AD;stroke-width:0.75;}
	.st64{clip-path:url(#SVGID_124_);fill:none;stroke:#B6B2AD;stroke-width:0.75;}
	.st65{clip-path:url(#SVGID_126_);fill:none;stroke:#B6B2AD;stroke-width:0.75;}
	.st66{clip-path:url(#SVGID_128_);fill:#E5E3E0;}
	.st67{clip-path:url(#SVGID_130_);fill:#E5E3E0;}
	.st68{clip-path:url(#SVGID_132_);fill:#F0EBE3;}
	.st69{clip-path:url(#SVGID_134_);fill:#E5E3E0;}
	.st70{clip-path:url(#SVGID_136_);}
	.st71{clip-path:url(#SVGID_138_);}
	.st72{clip-path:url(#SVGID_140_);}
	.st73{clip-path:url(#SVGID_142_);}
	.st74{clip-path:url(#SVGID_144_);}
	.st75{clip-path:url(#SVGID_146_);}
	.st76{clip-path:url(#SVGID_148_);}
	.st77{clip-path:url(#SVGID_150_);fill:none;stroke:#CFCCC9;stroke-width:0.5;}
	.st78{clip-path:url(#SVGID_152_);fill:none;stroke:#CFCCC9;stroke-width:0.5;}
	.st79{clip-path:url(#SVGID_154_);fill:none;stroke:#CFCCC9;stroke-width:0.5;}
	.st80{clip-path:url(#SVGID_156_);fill:none;stroke:#CFCCC9;stroke-width:0.5;}
	.st81{clip-path:url(#SVGID_158_);fill:none;stroke:#CFCCC9;stroke-width:0.5;}
	.st82{clip-path:url(#SVGID_160_);fill:none;stroke:#B6B2AD;stroke-width:0.75;}
	.st83{clip-path:url(#SVGID_162_);fill:none;stroke:#B6B2AD;stroke-width:0.75;}
	.st84{clip-path:url(#SVGID_164_);fill:none;stroke:#B6B2AD;stroke-width:0.75;}
	.st85{clip-path:url(#SVGID_166_);fill:none;stroke:#B6B2AD;stroke-width:0.75;}
	.st86{clip-path:url(#SVGID_168_);fill:none;stroke:#B6B2AD;stroke-width:0.75;}
	.st87{clip-path:url(#SVGID_170_);fill:none;stroke:#B6B2AD;stroke-width:0.75;}
	.st88{clip-path:url(#SVGID_172_);}
	.st89{fill:#777777;}
</style>
<rect class="st0" width="1280" height="1280"/>
<g>
	<g class="st1">
		<g>
			<g>
				<g>
					<defs>
						<rect id="SVGID_1_" x="220" y="540.7" width="840" height="504"/>
					</defs>
					<clipPath id="SVGID_2_">
						<use xlink:href="#SVGID_1_"  style="overflow:visible;"/>
					</clipPath>
					<rect x="224" y="544.7" class="st2" width="112" height="45.2"/>
				</g>
			</g>
			<g>
				<g>
					<defs>
						<rect id="SVGID_3_" x="220" y="540.7" width="840" height="504"/>
					</defs>
					<clipPath id="SVGID_4_">
						<use xlink:href="#SVGID_3_"  style="overflow:visible;"/>
					</clipPath>
					<rect x="336" y="544.7" class="st3" width="112" height="45.2"/>
				</g>
			</g>
			<g>
				<g>
					<defs>
						<rect id="SVGID_5_" x="220" y="540.7" width="840" height="504"/>
					</defs>
					<clipPath id="SVGID_6_">
						<use xlink:href="#SVGID_5_"  style="overflow:visible;"/>
					</clipPath>
					<rect x="448" y="544.7" class="st4" width="112" height="45.2"/>
				</g>
			</g>
			<g>
				<g>
					<defs>
						<rect id="SVGID_7_" x="220" y="540.7" width="840" height="504"/>
					</defs>
					<clipPath id="SVGID_8_">
						<use xlink:href="#SVGID_7_"  style="overflow:visible;"/>
					</clipPath>
					<rect x="560" y="544.7" class="st5" width="206" height="45.2"/>
				</g>
			</g>
			<g>
				<g>
					<defs>
						<rect id="SVGID_9_" x="220" y="540.7" width="840" height="504"/>
					</defs>
					<clipPath id="SVGID_10_">
						<use xlink:href="#SVGID_9_"  style="overflow:visible;"/>
					</clipPath>
					<rect x="766" y="544.7" class="st6" width="289.4" height="45.2"/>
				</g>
			</g>
			<g>
				<g>
					<defs>
						<rect id="SVGID_11_" x="220" y="540.7" width="840" height="504"/>
					</defs>
					<clipPath id="SVGID_12_">
						<use xlink:href="#SVGID_11_"  style="overflow:visible;"/>
					</clipPath>
					<rect x="224" y="634.9" class="st7" width="112" height="45"/>
				</g>
			</g>
			<g>
				<g>
					<defs>
						<rect id="SVGID_13_" x="220" y="540.7" width="840" height="504"/>
					</defs>
					<clipPath id="SVGID_14_">
						<use xlink:href="#SVGID_13_"  style="overflow:visible;"/>
					</clipPath>
					<rect x="336" y="634.9" class="st8" width="112" height="45"/>
				</g>
			</g>
			<g>
				<g>
					<defs>
						<rect id="SVGID_15_" x="220" y="540.7" width="840" height="504"/>
					</defs>
					<clipPath id="SVGID_16_">
						<use xlink:href="#SVGID_15_"  style="overflow:visible;"/>
					</clipPath>
					<rect x="448" y="634.9" class="st9" width="112" height="45"/>
				</g>
			</g>
			<g>
				<g>
					<defs>
						<rect id="SVGID_17_" x="220" y="540.7" width="840" height="504"/>
					</defs>
					<clipPath id="SVGID_18_">
						<use xlink:href="#SVGID_17_"  style="overflow:visible;"/>
					</clipPath>
					<rect x="560" y="634.9" class="st10" width="206" height="45"/>
				</g>
			</g>
			<g>
				<g>
					<defs>
						<rect id="SVGID_19_" x="220" y="540.7" width="840" height="504"/>
					</defs>
					<clipPath id="SVGID_20_">
						<use xlink:href="#SVGID_19_"  style="overflow:visible;"/>
					</clipPath>
					<rect x="766" y="634.9" class="st11" width="289.4" height="45"/>
				</g>
			</g>
			<g>
				<g>
					<defs>
						<rect id="SVGID_21_" x="220" y="540.7" width="840" height="504"/>
					</defs>
					<clipPath id="SVGID_22_">
						<use xlink:href="#SVGID_21_"  style="overflow:visible;"/>
					</clipPath>
					<rect x="224" y="724.9" class="st12" width="112" height="45"/>
				</g>
			</g>
			<g>
				<g>
					<defs>
						<rect id="SVGID_23_" x="220" y="540.7" width="840" height="504"/>
					</defs>
					<clipPath id="SVGID_24_">
						<use xlink:href="#SVGID_23_"  style="overflow:visible;"/>
					</clipPath>
					<rect x="336" y="724.9" class="st13" width="112" height="45"/>
				</g>
			</g>
			<g>
				<g>
					<defs>
						<rect id="SVGID_25_" x="220" y="540.7" width="840" height="504"/>
					</defs>
					<clipPath id="SVGID_26_">
						<use xlink:href="#SVGID_25_"  style="overflow:visible;"/>
					</clipPath>
					<rect x="448" y="724.9" class="st14" width="112" height="45"/>
				</g>
			</g>
			<g>
				<g>
					<defs>
						<rect id="SVGID_27_" x="220" y="540.7" width="840" height="504"/>
					</defs>
					<clipPath id="SVGID_28_">
						<use xlink:href="#SVGID_27_"  style="overflow:visible;"/>
					</clipPath>
					<rect x="560" y="724.9" class="st15" width="206" height="45"/>
				</g>
			</g>
			<g>
				<g>
					<defs>
						<rect id="SVGID_29_" x="220" y="540.7" width="840" height="504"/>
					</defs>
					<clipPath id="SVGID_30_">
						<use xlink:href="#SVGID_29_"  style="overflow:visible;"/>
					</clipPath>
					<rect x="766" y="724.9" class="st16" width="289.4" height="45"/>
				</g>
			</g>
			<g>
				<g>
					<defs>
						<rect id="SVGID_31_" x="220" y="540.7" width="840" height="504"/>
					</defs>
					<clipPath id="SVGID_32_">
						<use xlink:href="#SVGID_31_"  style="overflow:visible;"/>
					</clipPath>
					<rect x="224" y="814.9" class="st17" width="112" height="45"/>
				</g>
			</g>
			<g>
				<g>
					<defs>
						<rect id="SVGID_33_" x="220" y="540.7" width="840" height="504"/>
					</defs>
					<clipPath id="SVGID_34_">
						<use xlink:href="#SVGID_33_"  style="overflow:visible;"/>
					</clipPath>
					<rect x="336" y="814.9" class="st18" width="112" height="45"/>
				</g>
			</g>
			<g>
				<g>
					<defs>
						<rect id="SVGID_35_" x="220" y="540.7" width="840" height="504"/>
					</defs>
					<clipPath id="SVGID_36_">
						<use xlink:href="#SVGID_35_"  style="overflow:visible;"/>
					</clipPath>
					<rect x="448" y="814.9" class="st19" width="112" height="45"/>
				</g>
			</g>
			<g>
				<g>
					<defs>
						<rect id="SVGID_37_" x="220" y="540.7" width="840" height="504"/>
					</defs>
					<clipPath id="SVGID_38_">
						<use xlink:href="#SVGID_37_"  style="overflow:visible;"/>
					</clipPath>
					<rect x="560" y="814.9" class="st20" width="206" height="45"/>
				</g>
			</g>
			<g>
				<g>
					<defs>
						<rect id="SVGID_39_" x="220" y="540.7" width="840" height="504"/>
					</defs>
					<clipPath id="SVGID_40_">
						<use xlink:href="#SVGID_39_"  style="overflow:visible;"/>
					</clipPath>
					<rect x="766" y="814.9" class="st21" width="289.4" height="45"/>
				</g>
			</g>
			<g>
				<g>
					<defs>
						<rect id="SVGID_41_" x="220" y="540.7" width="840" height="504"/>
					</defs>
					<clipPath id="SVGID_42_">
						<use xlink:href="#SVGID_41_"  style="overflow:visible;"/>
					</clipPath>
					<rect x="224" y="904.9" class="st22" width="112" height="45"/>
				</g>
			</g>
			<g>
				<g>
					<defs>
						<rect id="SVGID_43_" x="220" y="540.7" width="840" height="504"/>
					</defs>
					<clipPath id="SVGID_44_">
						<use xlink:href="#SVGID_43_"  style="overflow:visible;"/>
					</clipPath>
					<rect x="336" y="904.9" class="st23" width="112" height="45"/>
				</g>
			</g>
			<g>
				<g>
					<defs>
						<rect id="SVGID_45_" x="220" y="540.7" width="840" height="504"/>
					</defs>
					<clipPath id="SVGID_46_">
						<use xlink:href="#SVGID_45_"  style="overflow:visible;"/>
					</clipPath>
					<rect x="448" y="904.9" class="st24" width="112" height="45"/>
				</g>
			</g>
			<g>
				<g>
					<defs>
						<rect id="SVGID_47_" x="220" y="540.7" width="840" height="504"/>
					</defs>
					<clipPath id="SVGID_48_">
						<use xlink:href="#SVGID_47_"  style="overflow:visible;"/>
					</clipPath>
					<rect x="560" y="904.9" class="st25" width="206" height="45"/>
				</g>
			</g>
			<g>
				<g>
					<defs>
						<rect id="SVGID_49_" x="220" y="540.7" width="840" height="504"/>
					</defs>
					<clipPath id="SVGID_50_">
						<use xlink:href="#SVGID_49_"  style="overflow:visible;"/>
					</clipPath>
					<rect x="766" y="904.9" class="st26" width="289.4" height="45"/>
				</g>
			</g>
			<g>
				<g>
					<defs>
						<rect id="SVGID_51_" x="220" y="540.7" width="840" height="504"/>
					</defs>
					<clipPath id="SVGID_52_">
						<use xlink:href="#SVGID_51_"  style="overflow:visible;"/>
					</clipPath>
					<rect x="224" y="994.9" class="st27" width="112" height="45.2"/>
				</g>
			</g>
			<g>
				<g>
					<defs>
						<rect id="SVGID_53_" x="220" y="540.7" width="840" height="504"/>
					</defs>
					<clipPath id="SVGID_54_">
						<use xlink:href="#SVGID_53_"  style="overflow:visible;"/>
					</clipPath>
					<rect x="336" y="994.9" class="st28" width="112" height="45.2"/>
				</g>
			</g>
			<g>
				<g>
					<defs>
						<rect id="SVGID_55_" x="220" y="540.7" width="840" height="504"/>
					</defs>
					<clipPath id="SVGID_56_">
						<use xlink:href="#SVGID_55_"  style="overflow:visible;"/>
					</clipPath>
					<rect x="448" y="994.9" class="st29" width="112" height="45.2"/>
				</g>
			</g>
			<g>
				<g>
					<defs>
						<rect id="SVGID_57_" x="220" y="540.7" width="840" height="504"/>
					</defs>
					<clipPath id="SVGID_58_">
						<use xlink:href="#SVGID_57_"  style="overflow:visible;"/>
					</clipPath>
					<rect x="560" y="994.9" class="st30" width="206" height="45.2"/>
				</g>
			</g>
			<g>
				<g>
					<defs>
						<rect id="SVGID_59_" x="220" y="540.7" width="840" height="504"/>
					</defs>
					<clipPath id="SVGID_60_">
						<use xlink:href="#SVGID_59_"  style="overflow:visible;"/>
					</clipPath>
					<rect x="766" y="994.9" class="st31" width="289.4" height="45.2"/>
				</g>
			</g>
		</g>
		<g>
			<g>
				<g>
					<defs>
						<rect id="SVGID_61_" x="224.8" y="545.4" width="111.2" height="44"/>
					</defs>
					<clipPath id="SVGID_62_">
						<use xlink:href="#SVGID_61_"  style="overflow:visible;"/>
					</clipPath>
					<g class="st32">
						<g class="st33">
							<path class="st0" d="M234.3,559.9h4.6c0.8,0,1.5,0.1,2.2,0.2c0.7,0.1,1.2,0.4,1.7,0.7c0.5,0.3,0.8,0.8,1.1,1.3
								c0.3,0.5,0.4,1.1,0.4,1.9c0,0.8-0.1,1.4-0.4,2c-0.3,0.5-0.7,1-1.2,1.3c-0.5,0.3-1.1,0.6-1.8,0.7c-0.7,0.1-1.4,0.2-2.1,0.2
								h-1.9v5.9h-2.5V559.9z M238.6,566.1c0.4,0,0.8,0,1.2-0.1c0.4-0.1,0.7-0.2,1-0.3c0.3-0.2,0.5-0.4,0.7-0.6
								c0.2-0.3,0.3-0.6,0.3-1c0-0.4-0.1-0.8-0.3-1c-0.2-0.3-0.4-0.5-0.7-0.6s-0.6-0.2-1-0.3s-0.7-0.1-1.1-0.1h-1.8v4.1H238.6z"/>
						</g>
						<g class="st33">
							<path class="st0" d="M254.3,569.4c0,0.1,0,0.2,0,0.3c0,0.1,0,0.2,0,0.3H247c0,0.3,0.1,0.7,0.3,1s0.4,0.5,0.6,0.7
								c0.3,0.2,0.5,0.4,0.9,0.5s0.7,0.2,1,0.2c0.6,0,1.1-0.1,1.5-0.3c0.4-0.2,0.8-0.5,1-0.9l1.6,1.3c-0.9,1.3-2.3,1.9-4.1,1.9
								c-0.7,0-1.4-0.1-2.1-0.4c-0.6-0.2-1.2-0.6-1.6-1s-0.8-1-1.1-1.6c-0.3-0.6-0.4-1.3-0.4-2.1c0-0.8,0.1-1.5,0.4-2.1
								c0.3-0.6,0.6-1.2,1.1-1.6c0.5-0.4,1-0.8,1.6-1c0.6-0.2,1.3-0.4,2-0.4c0.7,0,1.3,0.1,1.9,0.3c0.6,0.2,1.1,0.5,1.5,1
								c0.4,0.4,0.7,1,1,1.6C254.2,567.8,254.3,568.6,254.3,569.4z M251.9,568.3c0-0.3,0-0.6-0.1-0.9c-0.1-0.3-0.2-0.5-0.4-0.7
								c-0.2-0.2-0.4-0.4-0.7-0.5c-0.3-0.1-0.6-0.2-1-0.2c-0.7,0-1.3,0.2-1.8,0.7s-0.8,1-0.8,1.7H251.9z"/>
							<path class="st0" d="M256.6,564.5h2.3v1.6h0c0.3-0.6,0.6-1,1.1-1.4c0.5-0.3,1-0.5,1.7-0.5c0.1,0,0.2,0,0.3,0
								c0.1,0,0.2,0,0.3,0v2.2c-0.2,0-0.3-0.1-0.4-0.1c-0.1,0-0.2,0-0.3,0c-0.5,0-1,0.1-1.3,0.3c-0.3,0.2-0.6,0.4-0.8,0.7
								s-0.3,0.6-0.4,0.9c-0.1,0.3-0.1,0.5-0.1,0.7v5.1h-2.4V564.5z"/>
							<path class="st0" d="M263.6,561.2c0-0.4,0.1-0.7,0.4-1c0.3-0.3,0.7-0.4,1.1-0.4s0.8,0.1,1.1,0.4s0.5,0.6,0.5,1
								c0,0.4-0.2,0.8-0.5,1s-0.7,0.4-1.1,0.4s-0.8-0.1-1.1-0.4C263.7,562,263.6,561.6,263.6,561.2z M263.9,564.5h2.4v9.6h-2.4
								V564.5z"/>
							<path class="st0" d="M268.7,569.3c0-0.8,0.1-1.5,0.4-2.1c0.3-0.6,0.6-1.1,1.1-1.6s1-0.8,1.7-1c0.6-0.2,1.3-0.4,2-0.4
								c0.7,0,1.4,0.1,2,0.4c0.6,0.2,1.2,0.6,1.7,1s0.8,1,1.1,1.6c0.3,0.6,0.4,1.3,0.4,2.1s-0.1,1.5-0.4,2.1
								c-0.3,0.6-0.6,1.2-1.1,1.6c-0.5,0.4-1,0.8-1.7,1.1c-0.6,0.3-1.3,0.4-2,0.4c-0.7,0-1.4-0.1-2-0.4c-0.6-0.3-1.2-0.6-1.7-1.1
								c-0.5-0.4-0.8-1-1.1-1.6C268.8,570.7,268.7,570,268.7,569.3z M271.1,569.3c0,0.4,0.1,0.7,0.2,1.1c0.1,0.4,0.3,0.7,0.5,1
								c0.2,0.3,0.5,0.5,0.9,0.7s0.8,0.3,1.2,0.3s0.9-0.1,1.2-0.3s0.6-0.4,0.9-0.7c0.2-0.3,0.4-0.6,0.5-1s0.2-0.7,0.2-1.1
								s-0.1-0.7-0.2-1.1c-0.1-0.4-0.3-0.7-0.5-1c-0.2-0.3-0.5-0.5-0.9-0.7c-0.3-0.2-0.8-0.3-1.2-0.3s-0.9,0.1-1.2,0.3
								c-0.3,0.2-0.6,0.4-0.9,0.7c-0.2,0.3-0.4,0.6-0.5,1C271.2,568.5,271.1,568.9,271.1,569.3z"/>
							<path class="st0" d="M291.2,574.1h-2.3v-1.4h0c-0.3,0.6-0.8,1-1.4,1.3c-0.6,0.3-1.2,0.4-1.9,0.4c-0.7,0-1.4-0.1-2-0.4
								s-1.1-0.6-1.5-1.1c-0.4-0.5-0.7-1-0.9-1.6c-0.2-0.6-0.3-1.3-0.3-2s0.1-1.4,0.3-2c0.2-0.6,0.5-1.1,1-1.6
								c0.4-0.5,0.9-0.8,1.5-1.1c0.6-0.3,1.2-0.4,1.9-0.4c0.4,0,0.8,0,1.2,0.1c0.3,0.1,0.6,0.2,0.9,0.4c0.3,0.1,0.5,0.3,0.7,0.5
								c0.2,0.2,0.3,0.3,0.5,0.5h0.1V559h2.4V574.1z M283.3,569.3c0,0.4,0.1,0.7,0.2,1.1c0.1,0.4,0.3,0.7,0.5,1
								c0.2,0.3,0.5,0.5,0.9,0.7s0.8,0.3,1.2,0.3c0.4,0,0.8-0.1,1.2-0.3c0.3-0.2,0.6-0.4,0.9-0.7c0.2-0.3,0.4-0.6,0.6-1
								c0.1-0.4,0.2-0.7,0.2-1.1s-0.1-0.7-0.2-1.1c-0.1-0.4-0.3-0.7-0.6-1s-0.5-0.5-0.9-0.7c-0.3-0.2-0.7-0.3-1.2-0.3
								c-0.5,0-0.9,0.1-1.2,0.3c-0.3,0.2-0.6,0.4-0.9,0.7c-0.2,0.3-0.4,0.6-0.5,1C283.3,568.5,283.3,568.9,283.3,569.3z"/>
						</g>
					</g>
				</g>
			</g>
		</g>
		<g>
			<g>
				<g>
					<defs>
						<rect id="SVGID_63_" x="336" y="545.4" width="112" height="44"/>
					</defs>
					<clipPath id="SVGID_64_">
						<use xlink:href="#SVGID_63_"  style="overflow:visible;"/>
					</clipPath>
					<g class="st34">
						<g class="st33">
							<path class="st0" d="M345.6,559.9h3.9l3.7,10.1h0.1l3.6-10.1h4v14.2h-2.5v-11.4h0l-4.3,11.4h-1.8l-4.2-11.4h0v11.4h-2.4
								V559.9z"/>
							<path class="st0" d="M363.3,569.3c0-0.8,0.1-1.5,0.4-2.1c0.3-0.6,0.6-1.1,1.1-1.6s1-0.8,1.7-1c0.6-0.2,1.3-0.4,2-0.4
								c0.7,0,1.4,0.1,2,0.4c0.6,0.2,1.2,0.6,1.7,1s0.8,1,1.1,1.6c0.3,0.6,0.4,1.3,0.4,2.1s-0.1,1.5-0.4,2.1
								c-0.3,0.6-0.6,1.2-1.1,1.6c-0.5,0.4-1,0.8-1.7,1.1c-0.6,0.3-1.3,0.4-2,0.4c-0.7,0-1.4-0.1-2-0.4c-0.6-0.3-1.2-0.6-1.7-1.1
								c-0.5-0.4-0.8-1-1.1-1.6C363.4,570.7,363.3,570,363.3,569.3z M365.7,569.3c0,0.4,0.1,0.7,0.2,1.1c0.1,0.4,0.3,0.7,0.5,1
								c0.2,0.3,0.5,0.5,0.9,0.7s0.8,0.3,1.2,0.3s0.9-0.1,1.2-0.3s0.6-0.4,0.9-0.7c0.2-0.3,0.4-0.6,0.5-1s0.2-0.7,0.2-1.1
								s-0.1-0.7-0.2-1.1c-0.1-0.4-0.3-0.7-0.5-1c-0.2-0.3-0.5-0.5-0.9-0.7c-0.3-0.2-0.8-0.3-1.2-0.3s-0.9,0.1-1.2,0.3
								c-0.3,0.2-0.6,0.4-0.9,0.7c-0.2,0.3-0.4,0.6-0.5,1C365.8,568.5,365.7,568.9,365.7,569.3z"/>
							<path class="st0" d="M376,564.5h2.3v1.5h0c0.2-0.5,0.6-0.9,1.1-1.3c0.5-0.4,1.1-0.5,1.9-0.5c0.6,0,1.2,0.1,1.6,0.3
								c0.4,0.2,0.8,0.5,1.1,0.9c0.3,0.4,0.5,0.8,0.6,1.2c0.1,0.5,0.2,0.9,0.2,1.4v6h-2.4v-5.3c0-0.3,0-0.6-0.1-0.9
								s-0.1-0.6-0.3-0.8c-0.1-0.2-0.3-0.5-0.6-0.6c-0.2-0.2-0.5-0.2-0.9-0.2s-0.7,0.1-1,0.2c-0.3,0.2-0.5,0.4-0.7,0.6
								c-0.2,0.2-0.3,0.5-0.4,0.8c-0.1,0.3-0.1,0.6-0.1,1v5.3H376V564.5z"/>
							<path class="st0" d="M386.3,566.4v-1.9h1.7v-2.8h2.4v2.8h2.4v1.9h-2.4v4.5c0,0.4,0.1,0.8,0.2,1.1c0.2,0.3,0.5,0.4,1,0.4
								c0.2,0,0.3,0,0.5,0s0.4-0.1,0.5-0.2l0.1,1.9c-0.2,0.1-0.5,0.1-0.8,0.2c-0.3,0-0.6,0.1-0.8,0.1c-0.6,0-1.2-0.1-1.6-0.3
								c-0.4-0.2-0.7-0.4-0.9-0.7c-0.2-0.3-0.4-0.7-0.5-1.1c-0.1-0.4-0.1-0.8-0.1-1.3v-4.5H386.3z"/>
							<path class="st0" d="M399.8,564.2c0.6,0,1.2,0.1,1.6,0.3c0.4,0.2,0.8,0.5,1.1,0.9c0.3,0.4,0.5,0.8,0.6,1.2
								c0.1,0.5,0.2,0.9,0.2,1.4v6H401v-5.3c0-0.3,0-0.6-0.1-0.9c0-0.3-0.1-0.6-0.2-0.8c-0.1-0.2-0.3-0.5-0.5-0.6s-0.5-0.2-0.9-0.2
								c-0.4,0-0.7,0.1-1,0.2c-0.3,0.1-0.5,0.3-0.7,0.6c-0.2,0.2-0.3,0.5-0.4,0.8s-0.1,0.6-0.1,0.9v5.2h-2.4V559h2.4v6.9h0
								c0.1-0.2,0.2-0.4,0.4-0.6c0.2-0.2,0.4-0.4,0.6-0.5c0.2-0.2,0.5-0.3,0.8-0.4C399.1,564.3,399.5,564.2,399.8,564.2z"/>
						</g>
					</g>
				</g>
			</g>
		</g>
		<g>
			<g>
				<g>
					<defs>
						<rect id="SVGID_65_" x="448" y="545.4" width="112" height="44"/>
					</defs>
					<clipPath id="SVGID_66_">
						<use xlink:href="#SVGID_65_"  style="overflow:visible;"/>
					</clipPath>
					<g class="st35">
						<g class="st33">
							<path class="st0" d="M457.6,559.9h4.6c0.8,0,1.5,0.1,2.2,0.2c0.7,0.1,1.2,0.4,1.7,0.7c0.5,0.3,0.8,0.8,1.1,1.3
								c0.3,0.5,0.4,1.1,0.4,1.9c0,0.8-0.1,1.4-0.4,2c-0.3,0.5-0.7,1-1.2,1.3c-0.5,0.3-1.1,0.6-1.8,0.7c-0.7,0.1-1.4,0.2-2.1,0.2
								h-1.9v5.9h-2.5V559.9z M461.8,566.1c0.4,0,0.8,0,1.2-0.1c0.4-0.1,0.7-0.2,1-0.3c0.3-0.2,0.5-0.4,0.7-0.6
								c0.2-0.3,0.3-0.6,0.3-1c0-0.4-0.1-0.8-0.3-1c-0.2-0.3-0.4-0.5-0.7-0.6s-0.6-0.2-1-0.3s-0.7-0.1-1.1-0.1h-1.8v4.1H461.8z"/>
						</g>
						<g class="st33">
							<path class="st0" d="M477.5,569.4c0,0.1,0,0.2,0,0.3c0,0.1,0,0.2,0,0.3h-7.3c0,0.3,0.1,0.7,0.3,1s0.4,0.5,0.6,0.7
								c0.3,0.2,0.5,0.4,0.9,0.5s0.7,0.2,1,0.2c0.6,0,1.1-0.1,1.5-0.3c0.4-0.2,0.8-0.5,1-0.9l1.6,1.3c-0.9,1.3-2.3,1.9-4.1,1.9
								c-0.7,0-1.4-0.1-2.1-0.4c-0.6-0.2-1.2-0.6-1.6-1s-0.8-1-1.1-1.6c-0.3-0.6-0.4-1.3-0.4-2.1c0-0.8,0.1-1.5,0.4-2.1
								c0.3-0.6,0.6-1.2,1.1-1.6c0.5-0.4,1-0.8,1.6-1c0.6-0.2,1.3-0.4,2-0.4c0.7,0,1.3,0.1,1.9,0.3c0.6,0.2,1.1,0.5,1.5,1
								c0.4,0.4,0.7,1,1,1.6C477.4,567.8,477.5,568.6,477.5,569.4z M475.1,568.3c0-0.3,0-0.6-0.1-0.9c-0.1-0.3-0.2-0.5-0.4-0.7
								c-0.2-0.2-0.4-0.4-0.7-0.5c-0.3-0.1-0.6-0.2-1-0.2c-0.7,0-1.3,0.2-1.8,0.7s-0.8,1-0.8,1.7H475.1z"/>
							<path class="st0" d="M479.8,564.5h2.3v1.6h0c0.3-0.6,0.6-1,1.1-1.4c0.5-0.3,1-0.5,1.7-0.5c0.1,0,0.2,0,0.3,0
								c0.1,0,0.2,0,0.3,0v2.2c-0.2,0-0.3-0.1-0.4-0.1c-0.1,0-0.2,0-0.3,0c-0.5,0-1,0.1-1.3,0.3c-0.3,0.2-0.6,0.4-0.8,0.7
								s-0.3,0.6-0.4,0.9c-0.1,0.3-0.1,0.5-0.1,0.7v5.1h-2.4V564.5z"/>
							<path class="st0" d="M492.4,567.1c-0.2-0.3-0.5-0.5-0.9-0.7c-0.4-0.2-0.8-0.3-1.2-0.3c-0.4,0-0.7,0.1-1.1,0.2
								s-0.5,0.4-0.5,0.8s0.2,0.6,0.5,0.8s0.9,0.3,1.6,0.5c0.4,0.1,0.7,0.2,1.1,0.3c0.4,0.1,0.7,0.3,1,0.5c0.3,0.2,0.5,0.5,0.7,0.8
								c0.2,0.3,0.3,0.7,0.3,1.2c0,0.6-0.1,1.1-0.3,1.5c-0.2,0.4-0.5,0.7-0.9,1c-0.4,0.3-0.8,0.4-1.3,0.6c-0.5,0.1-1,0.2-1.5,0.2
								c-0.7,0-1.5-0.1-2.2-0.4c-0.7-0.3-1.3-0.7-1.8-1.2l1.6-1.5c0.3,0.3,0.6,0.6,1,0.9s0.9,0.3,1.4,0.3c0.2,0,0.4,0,0.5-0.1
								c0.2,0,0.3-0.1,0.5-0.2c0.2-0.1,0.3-0.2,0.4-0.3c0.1-0.1,0.1-0.3,0.1-0.5c0-0.4-0.2-0.7-0.5-0.9c-0.4-0.2-0.9-0.3-1.6-0.5
								c-0.4-0.1-0.7-0.2-1.1-0.3c-0.3-0.1-0.6-0.3-0.9-0.5c-0.3-0.2-0.5-0.5-0.6-0.8s-0.2-0.7-0.2-1.1c0-0.5,0.1-1,0.3-1.4
								c0.2-0.4,0.5-0.7,0.9-1c0.4-0.2,0.8-0.4,1.2-0.5s0.9-0.2,1.4-0.2c0.7,0,1.4,0.1,2,0.4c0.7,0.2,1.2,0.6,1.6,1.1L492.4,567.1z"
								/>
							<path class="st0" d="M495.4,569.3c0-0.8,0.1-1.5,0.4-2.1c0.3-0.6,0.6-1.1,1.1-1.6s1-0.8,1.7-1c0.6-0.2,1.3-0.4,2-0.4
								c0.7,0,1.4,0.1,2,0.4c0.6,0.2,1.2,0.6,1.7,1s0.8,1,1.1,1.6c0.3,0.6,0.4,1.3,0.4,2.1s-0.1,1.5-0.4,2.1
								c-0.3,0.6-0.6,1.2-1.1,1.6c-0.5,0.4-1,0.8-1.7,1.1c-0.6,0.3-1.3,0.4-2,0.4c-0.7,0-1.4-0.1-2-0.4c-0.6-0.3-1.2-0.6-1.7-1.1
								c-0.5-0.4-0.8-1-1.1-1.6C495.6,570.7,495.4,570,495.4,569.3z M497.9,569.3c0,0.4,0.1,0.7,0.2,1.1c0.1,0.4,0.3,0.7,0.5,1
								c0.2,0.3,0.5,0.5,0.9,0.7s0.8,0.3,1.2,0.3s0.9-0.1,1.2-0.3s0.6-0.4,0.9-0.7c0.2-0.3,0.4-0.6,0.5-1s0.2-0.7,0.2-1.1
								s-0.1-0.7-0.2-1.1c-0.1-0.4-0.3-0.7-0.5-1c-0.2-0.3-0.5-0.5-0.9-0.7c-0.3-0.2-0.8-0.3-1.2-0.3s-0.9,0.1-1.2,0.3
								c-0.3,0.2-0.6,0.4-0.9,0.7c-0.2,0.3-0.4,0.6-0.5,1C497.9,568.5,497.9,568.9,497.9,569.3z"/>
							<path class="st0" d="M508.2,564.5h2.3v1.5h0c0.2-0.5,0.6-0.9,1.1-1.3c0.5-0.4,1.1-0.5,1.9-0.5c0.6,0,1.2,0.1,1.6,0.3
								c0.4,0.2,0.8,0.5,1.1,0.9c0.3,0.4,0.5,0.8,0.6,1.2c0.1,0.5,0.2,0.9,0.2,1.4v6h-2.4v-5.3c0-0.3,0-0.6-0.1-0.9
								s-0.1-0.6-0.3-0.8c-0.1-0.2-0.3-0.5-0.6-0.6c-0.2-0.2-0.5-0.2-0.9-0.2s-0.7,0.1-1,0.2c-0.3,0.2-0.5,0.4-0.7,0.6
								c-0.2,0.2-0.3,0.5-0.4,0.8c-0.1,0.3-0.1,0.6-0.1,1v5.3h-2.4V564.5z"/>
						</g>
					</g>
				</g>
			</g>
		</g>
		<g>
			<g>
				<g>
					<defs>
						<rect id="SVGID_67_" x="560" y="545.4" width="206" height="44"/>
					</defs>
					<clipPath id="SVGID_68_">
						<use xlink:href="#SVGID_67_"  style="overflow:visible;"/>
					</clipPath>
					<g class="st36">
						<g class="st33">
							<path class="st0" d="M576.8,562.9c-0.3-0.3-0.6-0.6-1.1-0.9c-0.5-0.2-1-0.3-1.5-0.3c-0.3,0-0.6,0-0.9,0.1s-0.6,0.2-0.8,0.3
								s-0.4,0.4-0.6,0.6c-0.2,0.2-0.2,0.5-0.2,0.9c0,0.3,0.1,0.6,0.2,0.8s0.3,0.4,0.6,0.6c0.2,0.2,0.5,0.3,0.8,0.4
								c0.3,0.1,0.7,0.2,1.1,0.4c0.5,0.1,0.9,0.3,1.4,0.5c0.5,0.2,0.9,0.4,1.3,0.7s0.7,0.7,1,1.2c0.3,0.5,0.4,1,0.4,1.7
								c0,0.8-0.1,1.4-0.4,2c-0.3,0.6-0.7,1-1.1,1.4s-1,0.7-1.6,0.8s-1.3,0.3-2,0.3c-0.9,0-1.8-0.2-2.7-0.5
								c-0.9-0.3-1.6-0.8-2.2-1.5l1.8-1.7c0.3,0.5,0.8,0.9,1.4,1.1s1.1,0.4,1.7,0.4c0.3,0,0.6,0,0.9-0.1s0.6-0.2,0.8-0.4
								c0.2-0.2,0.4-0.4,0.6-0.7s0.2-0.6,0.2-1c0-0.4-0.1-0.7-0.3-0.9c-0.2-0.2-0.4-0.5-0.7-0.6c-0.3-0.2-0.6-0.3-1-0.5
								c-0.4-0.1-0.8-0.3-1.3-0.4c-0.4-0.1-0.9-0.3-1.3-0.5c-0.4-0.2-0.8-0.4-1.1-0.7s-0.6-0.7-0.8-1.1c-0.2-0.4-0.3-1-0.3-1.7
								c0-0.7,0.1-1.3,0.4-1.9c0.3-0.5,0.7-1,1.2-1.3c0.5-0.3,1-0.6,1.7-0.8c0.6-0.2,1.2-0.2,1.9-0.2c0.7,0,1.5,0.1,2.2,0.4
								c0.7,0.3,1.4,0.6,1.9,1.1L576.8,562.9z"/>
							<path class="st0" d="M586.9,572.9L586.9,572.9c-0.3,0.4-0.7,0.8-1.2,1c-0.5,0.3-1.1,0.4-1.8,0.4c-0.4,0-0.8,0-1.2-0.2
								c-0.4-0.1-0.8-0.3-1.2-0.5c-0.4-0.2-0.6-0.5-0.9-0.9s-0.4-0.8-0.4-1.4c0-0.7,0.2-1.3,0.6-1.7c0.4-0.4,0.9-0.8,1.6-1
								c0.6-0.2,1.4-0.4,2.1-0.4c0.8-0.1,1.5-0.1,2.3-0.1v-0.2c0-0.6-0.2-1-0.6-1.3c-0.4-0.3-1-0.4-1.5-0.4c-0.5,0-1,0.1-1.5,0.3
								c-0.5,0.2-0.9,0.5-1.2,0.8l-1.2-1.5c0.5-0.5,1.2-0.9,1.9-1.1c0.7-0.3,1.4-0.4,2.2-0.4c0.9,0,1.6,0.1,2.1,0.4
								c0.6,0.2,1,0.6,1.3,0.9c0.3,0.4,0.5,0.8,0.7,1.3c0.1,0.5,0.2,1,0.2,1.4v5.8h-2.2V572.9z M586.8,569.7h-0.5
								c-0.4,0-0.8,0-1.2,0c-0.4,0-0.8,0.1-1.2,0.2c-0.4,0.1-0.7,0.3-0.9,0.5c-0.2,0.2-0.4,0.5-0.4,0.8c0,0.2,0,0.4,0.1,0.6
								s0.2,0.3,0.4,0.4c0.2,0.1,0.3,0.2,0.5,0.2c0.2,0,0.4,0.1,0.6,0.1c0.8,0,1.5-0.2,1.9-0.7c0.4-0.4,0.6-1,0.6-1.8V569.7z"/>
							<path class="st0" d="M592,559h2.4v15.1H592V559z"/>
							<path class="st0" d="M603.2,572.9L603.2,572.9c-0.3,0.4-0.7,0.8-1.2,1c-0.5,0.3-1.1,0.4-1.8,0.4c-0.4,0-0.8,0-1.2-0.2
								c-0.4-0.1-0.8-0.3-1.2-0.5c-0.4-0.2-0.6-0.5-0.9-0.9s-0.4-0.8-0.4-1.4c0-0.7,0.2-1.3,0.6-1.7c0.4-0.4,0.9-0.8,1.6-1
								c0.6-0.2,1.4-0.4,2.1-0.4c0.8-0.1,1.5-0.1,2.3-0.1v-0.2c0-0.6-0.2-1-0.6-1.3c-0.4-0.3-1-0.4-1.5-0.4c-0.5,0-1,0.1-1.5,0.3
								c-0.5,0.2-0.9,0.5-1.2,0.8l-1.2-1.5c0.5-0.5,1.2-0.9,1.9-1.1c0.7-0.3,1.4-0.4,2.2-0.4c0.9,0,1.6,0.1,2.1,0.4
								c0.6,0.2,1,0.6,1.3,0.9c0.3,0.4,0.5,0.8,0.7,1.3c0.1,0.5,0.2,1,0.2,1.4v5.8h-2.2V572.9z M603.2,569.7h-0.5
								c-0.4,0-0.8,0-1.2,0c-0.4,0-0.8,0.1-1.2,0.2c-0.4,0.1-0.7,0.3-0.9,0.5c-0.2,0.2-0.4,0.5-0.4,0.8c0,0.2,0,0.4,0.1,0.6
								s0.2,0.3,0.4,0.4c0.2,0.1,0.3,0.2,0.5,0.2c0.2,0,0.4,0.1,0.6,0.1c0.8,0,1.5-0.2,1.9-0.7c0.4-0.4,0.6-1,0.6-1.8V569.7z"/>
							<path class="st0" d="M608.3,564.5h2.3v1.6h0c0.3-0.6,0.6-1,1.1-1.4c0.5-0.3,1-0.5,1.7-0.5c0.1,0,0.2,0,0.3,0
								c0.1,0,0.2,0,0.3,0v2.2c-0.2,0-0.3-0.1-0.4-0.1c-0.1,0-0.2,0-0.3,0c-0.5,0-1,0.1-1.3,0.3c-0.3,0.2-0.6,0.4-0.8,0.7
								s-0.3,0.6-0.4,0.9c-0.1,0.3-0.1,0.5-0.1,0.7v5.1h-2.4V564.5z"/>
							<path class="st0" d="M614.1,564.5h2.7l2.7,7h0l2.4-7h2.5l-4.5,11.7c-0.2,0.4-0.4,0.8-0.6,1.2c-0.2,0.3-0.4,0.6-0.7,0.9
								c-0.3,0.2-0.6,0.4-1,0.5c-0.4,0.1-0.8,0.2-1.4,0.2c-0.2,0-0.4,0-0.6,0c-0.2,0-0.4-0.1-0.6-0.1l0.2-2.1
								c0.2,0.1,0.3,0.1,0.5,0.1c0.2,0,0.3,0,0.4,0c0.3,0,0.5,0,0.6-0.1c0.2-0.1,0.3-0.2,0.4-0.3s0.2-0.3,0.3-0.5s0.2-0.4,0.3-0.7
								l0.5-1.2L614.1,564.5z"/>
						</g>
					</g>
				</g>
			</g>
		</g>
		<g>
			<g>
				<g>
					<defs>
						<rect id="SVGID_69_" x="766" y="545.4" width="288.6" height="44"/>
					</defs>
					<clipPath id="SVGID_70_">
						<use xlink:href="#SVGID_69_"  style="overflow:visible;"/>
					</clipPath>
					<g class="st37">
						<g class="st33">
							<path class="st0" d="M778.4,562.1h-4.3v-2.2h11.2v2.2h-4.3v12h-2.5V562.1z"/>
						</g>
						<g class="st33">
							<path class="st0" d="M784.3,569.3c0-0.8,0.1-1.5,0.4-2.1s0.6-1.1,1.1-1.6s1-0.8,1.7-1c0.6-0.2,1.3-0.4,2-0.4
								c0.7,0,1.4,0.1,2,0.4c0.6,0.2,1.2,0.6,1.7,1s0.8,1,1.1,1.6c0.3,0.6,0.4,1.3,0.4,2.1s-0.1,1.5-0.4,2.1
								c-0.3,0.6-0.6,1.2-1.1,1.6c-0.5,0.4-1,0.8-1.7,1.1c-0.6,0.3-1.3,0.4-2,0.4c-0.7,0-1.4-0.1-2-0.4c-0.6-0.3-1.2-0.6-1.7-1.1
								c-0.5-0.4-0.8-1-1.1-1.6S784.3,570,784.3,569.3z M786.8,569.3c0,0.4,0.1,0.7,0.2,1.1c0.1,0.4,0.3,0.7,0.5,1
								c0.2,0.3,0.5,0.5,0.9,0.7c0.3,0.2,0.8,0.3,1.2,0.3c0.5,0,0.9-0.1,1.2-0.3s0.6-0.4,0.9-0.7s0.4-0.6,0.5-1s0.2-0.7,0.2-1.1
								s-0.1-0.7-0.2-1.1c-0.1-0.4-0.3-0.7-0.5-1c-0.2-0.3-0.5-0.5-0.9-0.7c-0.3-0.2-0.8-0.3-1.2-0.3c-0.5,0-0.9,0.1-1.2,0.3
								c-0.3,0.2-0.6,0.4-0.9,0.7c-0.2,0.3-0.4,0.6-0.5,1C786.8,568.5,786.8,568.9,786.8,569.3z"/>
							<path class="st0" d="M795.7,566.4v-1.9h1.7v-2.8h2.4v2.8h2.4v1.9h-2.4v4.5c0,0.4,0.1,0.8,0.2,1.1c0.2,0.3,0.5,0.4,1,0.4
								c0.2,0,0.3,0,0.5,0c0.2,0,0.4-0.1,0.5-0.2l0.1,1.9c-0.2,0.1-0.5,0.1-0.8,0.2s-0.6,0.1-0.8,0.1c-0.6,0-1.2-0.1-1.6-0.3
								c-0.4-0.2-0.7-0.4-0.9-0.7c-0.2-0.3-0.4-0.7-0.5-1.1c-0.1-0.4-0.1-0.8-0.1-1.3v-4.5H795.7z"/>
							<path class="st0" d="M809.8,572.9L809.8,572.9c-0.3,0.4-0.7,0.8-1.2,1c-0.5,0.3-1.1,0.4-1.8,0.4c-0.4,0-0.8,0-1.2-0.2
								c-0.4-0.1-0.8-0.3-1.2-0.5s-0.6-0.5-0.9-0.9s-0.4-0.8-0.4-1.4c0-0.7,0.2-1.3,0.6-1.7c0.4-0.4,0.9-0.8,1.6-1
								c0.6-0.2,1.4-0.4,2.1-0.4c0.8-0.1,1.5-0.1,2.3-0.1v-0.2c0-0.6-0.2-1-0.6-1.3c-0.4-0.3-1-0.4-1.6-0.4c-0.5,0-1,0.1-1.5,0.3
								c-0.5,0.2-0.9,0.5-1.2,0.8l-1.2-1.5c0.5-0.5,1.2-0.9,1.9-1.1c0.7-0.3,1.4-0.4,2.2-0.4c0.9,0,1.6,0.1,2.1,0.4
								c0.6,0.2,1,0.6,1.3,0.9c0.3,0.4,0.5,0.8,0.7,1.3c0.1,0.5,0.2,1,0.2,1.4v5.8h-2.2V572.9z M809.8,569.7h-0.5
								c-0.4,0-0.8,0-1.2,0s-0.8,0.1-1.2,0.2c-0.4,0.1-0.7,0.3-0.9,0.5c-0.2,0.2-0.4,0.5-0.4,0.8c0,0.2,0.1,0.4,0.2,0.6
								s0.2,0.3,0.4,0.4c0.2,0.1,0.3,0.2,0.5,0.2c0.2,0,0.4,0.1,0.6,0.1c0.8,0,1.5-0.2,1.9-0.7c0.4-0.4,0.6-1,0.6-1.8V569.7z"/>
							<path class="st0" d="M814.9,559h2.4v15.1h-2.4V559z"/>
						</g>
						<g class="st33">
							<path class="st0" d="M835.6,563.3c-0.4-0.5-0.9-0.9-1.5-1.1c-0.6-0.2-1.2-0.3-1.8-0.3c-0.7,0-1.4,0.1-2,0.4
								c-0.6,0.3-1.1,0.6-1.5,1.1s-0.8,1-1,1.6c-0.2,0.6-0.3,1.3-0.3,2c0,0.8,0.1,1.5,0.3,2.1c0.2,0.6,0.5,1.2,1,1.7
								s0.9,0.8,1.5,1.1c0.6,0.3,1.2,0.4,2,0.4c0.8,0,1.4-0.1,2-0.4c0.6-0.3,1.1-0.7,1.4-1.2l2,1.4c-0.6,0.8-1.4,1.4-2.3,1.8
								c-0.9,0.4-2,0.7-3.2,0.7c-1.1,0-2.1-0.2-3-0.6c-0.9-0.4-1.7-0.9-2.4-1.5c-0.7-0.7-1.2-1.4-1.6-2.4s-0.6-1.9-0.6-3
								c0-1.1,0.2-2.2,0.6-3.1c0.4-0.9,0.9-1.7,1.6-2.3c0.7-0.6,1.5-1.1,2.4-1.5s1.9-0.5,3-0.5c0.5,0,0.9,0,1.4,0.1s1,0.2,1.4,0.4
								c0.5,0.2,0.9,0.4,1.3,0.7c0.4,0.3,0.7,0.6,1,1L835.6,563.3z"/>
						</g>
						<g class="st33">
							<path class="st0" d="M838.4,569.3c0-0.8,0.1-1.5,0.4-2.1c0.3-0.6,0.6-1.1,1.1-1.6s1-0.8,1.7-1c0.6-0.2,1.3-0.4,2-0.4
								c0.7,0,1.4,0.1,2,0.4c0.6,0.2,1.2,0.6,1.7,1s0.8,1,1.1,1.6s0.4,1.3,0.4,2.1s-0.1,1.5-0.4,2.1s-0.6,1.2-1.1,1.6
								c-0.5,0.4-1,0.8-1.7,1.1c-0.6,0.3-1.3,0.4-2,0.4c-0.7,0-1.4-0.1-2-0.4c-0.6-0.3-1.2-0.6-1.7-1.1c-0.5-0.4-0.8-1-1.1-1.6
								C838.5,570.7,838.4,570,838.4,569.3z M840.8,569.3c0,0.4,0.1,0.7,0.2,1.1s0.3,0.7,0.5,1s0.5,0.5,0.9,0.7
								c0.3,0.2,0.8,0.3,1.2,0.3c0.5,0,0.9-0.1,1.2-0.3s0.6-0.4,0.9-0.7c0.2-0.3,0.4-0.6,0.5-1s0.2-0.7,0.2-1.1s-0.1-0.7-0.2-1.1
								c-0.1-0.4-0.3-0.7-0.5-1c-0.2-0.3-0.5-0.5-0.9-0.7c-0.3-0.2-0.8-0.3-1.2-0.3c-0.5,0-0.9,0.1-1.2,0.3
								c-0.3,0.2-0.6,0.4-0.9,0.7c-0.2,0.3-0.4,0.6-0.5,1C840.9,568.5,840.8,568.9,840.8,569.3z"/>
							<path class="st0" d="M856.4,567.1c-0.2-0.3-0.5-0.5-0.9-0.7c-0.4-0.2-0.8-0.3-1.2-0.3c-0.4,0-0.7,0.1-1.1,0.2
								c-0.3,0.2-0.5,0.4-0.5,0.8s0.2,0.6,0.5,0.8s0.9,0.3,1.6,0.5c0.4,0.1,0.7,0.2,1.1,0.3c0.4,0.1,0.7,0.3,1,0.5
								c0.3,0.2,0.5,0.5,0.7,0.8c0.2,0.3,0.3,0.7,0.3,1.2c0,0.6-0.1,1.1-0.3,1.5c-0.2,0.4-0.5,0.7-0.9,1c-0.4,0.3-0.8,0.4-1.3,0.6
								c-0.5,0.1-1,0.2-1.5,0.2c-0.7,0-1.5-0.1-2.2-0.4s-1.3-0.7-1.8-1.2l1.6-1.5c0.3,0.3,0.6,0.6,1,0.9c0.4,0.2,0.9,0.3,1.4,0.3
								c0.2,0,0.4,0,0.5-0.1c0.2,0,0.3-0.1,0.5-0.2c0.2-0.1,0.3-0.2,0.4-0.3s0.1-0.3,0.1-0.5c0-0.4-0.2-0.7-0.6-0.9
								c-0.4-0.2-0.9-0.3-1.6-0.5c-0.4-0.1-0.7-0.2-1-0.3c-0.3-0.1-0.6-0.3-0.9-0.5c-0.3-0.2-0.5-0.5-0.6-0.8s-0.2-0.7-0.2-1.1
								c0-0.5,0.1-1,0.3-1.4c0.2-0.4,0.5-0.7,0.9-1c0.4-0.2,0.8-0.4,1.2-0.5s0.9-0.2,1.4-0.2c0.7,0,1.4,0.1,2,0.4
								c0.7,0.2,1.2,0.6,1.6,1.1L856.4,567.1z"/>
							<path class="st0" d="M858.6,566.4v-1.9h1.7v-2.8h2.4v2.8h2.4v1.9h-2.4v4.5c0,0.4,0.1,0.8,0.2,1.1c0.2,0.3,0.5,0.4,1,0.4
								c0.2,0,0.3,0,0.5,0c0.2,0,0.4-0.1,0.5-0.2l0.1,1.9c-0.2,0.1-0.5,0.1-0.8,0.2s-0.6,0.1-0.8,0.1c-0.6,0-1.2-0.1-1.6-0.3
								c-0.4-0.2-0.7-0.4-0.9-0.7c-0.2-0.3-0.4-0.7-0.5-1.1c-0.1-0.4-0.1-0.8-0.1-1.3v-4.5H858.6z"/>
						</g>
					</g>
				</g>
			</g>
		</g>
		<g>
			<g>
				<g>
					<defs>
						<rect id="SVGID_71_" x="220" y="540.7" width="840" height="504"/>
					</defs>
					<clipPath id="SVGID_72_">
						<use xlink:href="#SVGID_71_"  style="overflow:visible;"/>
					</clipPath>
					<rect x="224" y="949.9" class="st38" width="112" height="45"/>
				</g>
			</g>
			<g>
				<g>
					<defs>
						<rect id="SVGID_73_" x="220" y="540.7" width="840" height="504"/>
					</defs>
					<clipPath id="SVGID_74_">
						<use xlink:href="#SVGID_73_"  style="overflow:visible;"/>
					</clipPath>
					<rect x="336" y="949.9" class="st39" width="112" height="45"/>
				</g>
			</g>
			<g>
				<g>
					<defs>
						<rect id="SVGID_75_" x="220" y="540.7" width="840" height="504"/>
					</defs>
					<clipPath id="SVGID_76_">
						<use xlink:href="#SVGID_75_"  style="overflow:visible;"/>
					</clipPath>
					<rect x="448" y="949.9" class="st40" width="112" height="45"/>
				</g>
			</g>
			<g>
				<g>
					<defs>
						<rect id="SVGID_77_" x="220" y="540.7" width="840" height="504"/>
					</defs>
					<clipPath id="SVGID_78_">
						<use xlink:href="#SVGID_77_"  style="overflow:visible;"/>
					</clipPath>
					<rect x="560" y="949.9" class="st41" width="206" height="45"/>
				</g>
			</g>
			<g>
				<g>
					<defs>
						<rect id="SVGID_79_" x="220" y="540.7" width="840" height="504"/>
					</defs>
					<clipPath id="SVGID_80_">
						<use xlink:href="#SVGID_79_"  style="overflow:visible;"/>
					</clipPath>
					<rect x="766" y="949.9" class="st42" width="289.4" height="45"/>
				</g>
			</g>
			<g>
				<g>
					<defs>
						<rect id="SVGID_81_" x="220" y="540.7" width="840" height="504"/>
					</defs>
					<clipPath id="SVGID_82_">
						<use xlink:href="#SVGID_81_"  style="overflow:visible;"/>
					</clipPath>
					<rect x="224" y="994.9" class="st43" width="112" height="45.2"/>
				</g>
			</g>
			<g>
				<g>
					<defs>
						<rect id="SVGID_83_" x="220" y="540.7" width="840" height="504"/>
					</defs>
					<clipPath id="SVGID_84_">
						<use xlink:href="#SVGID_83_"  style="overflow:visible;"/>
					</clipPath>
					<rect x="336" y="994.9" class="st44" width="112" height="45.2"/>
				</g>
			</g>
			<g>
				<g>
					<defs>
						<rect id="SVGID_85_" x="220" y="540.7" width="840" height="504"/>
					</defs>
					<clipPath id="SVGID_86_">
						<use xlink:href="#SVGID_85_"  style="overflow:visible;"/>
					</clipPath>
					<rect x="448" y="994.9" class="st45" width="112" height="45.2"/>
				</g>
			</g>
		</g>
		<g>
			<g>
				<g>
					<defs>
						<rect id="SVGID_87_" x="220" y="540.7" width="840" height="504"/>
					</defs>
					<clipPath id="SVGID_88_">
						<use xlink:href="#SVGID_87_"  style="overflow:visible;"/>
					</clipPath>
					<line class="st46" x1="336" y1="588.9" x2="336" y2="1041.2"/>
				</g>
			</g>
			<g>
				<g>
					<defs>
						<rect id="SVGID_89_" x="220" y="540.7" width="840" height="504"/>
					</defs>
					<clipPath id="SVGID_90_">
						<use xlink:href="#SVGID_89_"  style="overflow:visible;"/>
					</clipPath>
					<line class="st47" x1="448" y1="588.9" x2="448" y2="1041.2"/>
				</g>
			</g>
			<g>
				<g>
					<defs>
						<rect id="SVGID_91_" x="220" y="540.7" width="840" height="504"/>
					</defs>
					<clipPath id="SVGID_92_">
						<use xlink:href="#SVGID_91_"  style="overflow:visible;"/>
					</clipPath>
					<line class="st48" x1="560" y1="588.9" x2="560" y2="1041.2"/>
				</g>
			</g>
			<g>
				<g>
					<defs>
						<rect id="SVGID_93_" x="220" y="540.7" width="840" height="504"/>
					</defs>
					<clipPath id="SVGID_94_">
						<use xlink:href="#SVGID_93_"  style="overflow:visible;"/>
					</clipPath>
					<line class="st49" x1="766" y1="588.9" x2="766" y2="1041.2"/>
				</g>
			</g>
			<g>
				<g>
					<defs>
						<rect id="SVGID_95_" x="220" y="540.7" width="840" height="504"/>
					</defs>
					<clipPath id="SVGID_96_">
						<use xlink:href="#SVGID_95_"  style="overflow:visible;"/>
					</clipPath>
					<line class="st50" x1="223" y1="634.9" x2="1056.4" y2="634.9"/>
				</g>
			</g>
			<g>
				<g>
					<defs>
						<rect id="SVGID_97_" x="220" y="540.7" width="840" height="504"/>
					</defs>
					<clipPath id="SVGID_98_">
						<use xlink:href="#SVGID_97_"  style="overflow:visible;"/>
					</clipPath>
					<line class="st51" x1="223" y1="679.9" x2="1056.4" y2="679.9"/>
				</g>
			</g>
			<g>
				<g>
					<defs>
						<rect id="SVGID_99_" x="220" y="540.7" width="840" height="504"/>
					</defs>
					<clipPath id="SVGID_100_">
						<use xlink:href="#SVGID_99_"  style="overflow:visible;"/>
					</clipPath>
					<line class="st52" x1="223" y1="724.9" x2="1056.4" y2="724.9"/>
				</g>
			</g>
			<g>
				<g>
					<defs>
						<rect id="SVGID_101_" x="220" y="540.7" width="840" height="504"/>
					</defs>
					<clipPath id="SVGID_102_">
						<use xlink:href="#SVGID_101_"  style="overflow:visible;"/>
					</clipPath>
					<line class="st53" x1="223" y1="769.9" x2="1056.4" y2="769.9"/>
				</g>
			</g>
			<g>
				<g>
					<defs>
						<rect id="SVGID_103_" x="220" y="540.7" width="840" height="504"/>
					</defs>
					<clipPath id="SVGID_104_">
						<use xlink:href="#SVGID_103_"  style="overflow:visible;"/>
					</clipPath>
					<line class="st54" x1="223" y1="814.9" x2="1056.4" y2="814.9"/>
				</g>
			</g>
			<g>
				<g>
					<defs>
						<rect id="SVGID_105_" x="220" y="540.7" width="840" height="504"/>
					</defs>
					<clipPath id="SVGID_106_">
						<use xlink:href="#SVGID_105_"  style="overflow:visible;"/>
					</clipPath>
					<line class="st55" x1="223" y1="859.9" x2="1056.4" y2="859.9"/>
				</g>
			</g>
			<g>
				<g>
					<defs>
						<rect id="SVGID_107_" x="220" y="540.7" width="840" height="504"/>
					</defs>
					<clipPath id="SVGID_108_">
						<use xlink:href="#SVGID_107_"  style="overflow:visible;"/>
					</clipPath>
					<line class="st56" x1="223" y1="904.9" x2="1056.4" y2="904.9"/>
				</g>
			</g>
			<g>
				<g>
					<defs>
						<rect id="SVGID_109_" x="220" y="540.7" width="840" height="504"/>
					</defs>
					<clipPath id="SVGID_110_">
						<use xlink:href="#SVGID_109_"  style="overflow:visible;"/>
					</clipPath>
					<line class="st57" x1="223" y1="949.9" x2="1056.4" y2="949.9"/>
				</g>
			</g>
			<g>
				<g>
					<defs>
						<rect id="SVGID_111_" x="220" y="540.7" width="840" height="504"/>
					</defs>
					<clipPath id="SVGID_112_">
						<use xlink:href="#SVGID_111_"  style="overflow:visible;"/>
					</clipPath>
					<line class="st58" x1="223" y1="994.9" x2="1056.4" y2="994.9"/>
				</g>
			</g>
			<g>
				<g>
					<defs>
						<rect id="SVGID_113_" x="220" y="540.7" width="840" height="504"/>
					</defs>
					<clipPath id="SVGID_114_">
						<use xlink:href="#SVGID_113_"  style="overflow:visible;"/>
					</clipPath>
					<line class="st59" x1="223" y1="589.9" x2="1056.4" y2="589.9"/>
				</g>
			</g>
			<g>
				<g>
					<defs>
						<rect id="SVGID_115_" x="220" y="540.7" width="840" height="504"/>
					</defs>
					<clipPath id="SVGID_116_">
						<use xlink:href="#SVGID_115_"  style="overflow:visible;"/>
					</clipPath>
					<line class="st60" x1="224" y1="543.7" x2="224" y2="589.9"/>
				</g>
			</g>
			<g>
				<g>
					<defs>
						<rect id="SVGID_117_" x="220" y="540.7" width="840" height="504"/>
					</defs>
					<clipPath id="SVGID_118_">
						<use xlink:href="#SVGID_117_"  style="overflow:visible;"/>
					</clipPath>
					<line class="st61" x1="224" y1="589.9" x2="224" y2="1041.2"/>
				</g>
			</g>
			<g>
				<g>
					<defs>
						<rect id="SVGID_119_" x="220" y="540.7" width="840" height="504"/>
					</defs>
					<clipPath id="SVGID_120_">
						<use xlink:href="#SVGID_119_"  style="overflow:visible;"/>
					</clipPath>
					<line class="st62" x1="1055.4" y1="543.7" x2="1055.4" y2="589.9"/>
				</g>
			</g>
			<g>
				<g>
					<defs>
						<rect id="SVGID_121_" x="220" y="540.7" width="840" height="504"/>
					</defs>
					<clipPath id="SVGID_122_">
						<use xlink:href="#SVGID_121_"  style="overflow:visible;"/>
					</clipPath>
					<line class="st63" x1="1055.4" y1="589.9" x2="1055.4" y2="1041.2"/>
				</g>
			</g>
			<g>
				<g>
					<defs>
						<rect id="SVGID_123_" x="220" y="540.7" width="840" height="504"/>
					</defs>
					<clipPath id="SVGID_124_">
						<use xlink:href="#SVGID_123_"  style="overflow:visible;"/>
					</clipPath>
					<line class="st64" x1="223" y1="544.7" x2="1056.4" y2="544.7"/>
				</g>
			</g>
			<g>
				<g>
					<defs>
						<rect id="SVGID_125_" x="220" y="540.7" width="840" height="504"/>
					</defs>
					<clipPath id="SVGID_126_">
						<use xlink:href="#SVGID_125_"  style="overflow:visible;"/>
					</clipPath>
					<line class="st65" x1="223" y1="1040.2" x2="1056.4" y2="1040.2"/>
				</g>
			</g>
		</g>
	</g>
	<g>
		<g>
			<g>
				<defs>
					<rect id="SVGID_127_" x="220" y="322" width="840" height="144"/>
				</defs>
				<clipPath id="SVGID_128_">
					<use xlink:href="#SVGID_127_"  style="overflow:visible;"/>
				</clipPath>
				<rect x="224" y="326" class="st66" width="542" height="45.2"/>
			</g>
		</g>
		<g>
			<g>
				<defs>
					<rect id="SVGID_129_" x="220" y="322" width="840" height="144"/>
				</defs>
				<clipPath id="SVGID_130_">
					<use xlink:href="#SVGID_129_"  style="overflow:visible;"/>
				</clipPath>
				<rect x="224" y="371.2" class="st67" width="542" height="45"/>
			</g>
		</g>
		<g>
			<g>
				<defs>
					<rect id="SVGID_131_" x="220" y="322" width="840" height="144"/>
				</defs>
				<clipPath id="SVGID_132_">
					<use xlink:href="#SVGID_131_"  style="overflow:visible;"/>
				</clipPath>
				<rect x="766" y="371.2" class="st68" width="290.1" height="45"/>
			</g>
		</g>
		<g>
			<g>
				<defs>
					<rect id="SVGID_133_" x="220" y="322" width="840" height="144"/>
				</defs>
				<clipPath id="SVGID_134_">
					<use xlink:href="#SVGID_133_"  style="overflow:visible;"/>
				</clipPath>
				<rect x="224" y="416.2" class="st69" width="542" height="45.2"/>
			</g>
		</g>
	</g>
	<g>
		<g>
			<g>
				<defs>
					<rect id="SVGID_135_" x="224.8" y="326.7" width="540.8" height="44"/>
				</defs>
				<clipPath id="SVGID_136_">
					<use xlink:href="#SVGID_135_"  style="overflow:visible;"/>
				</clipPath>
				<g class="st70">
					<g class="st33">
						<path d="M232.9,341.2h2.8l2.7,10.4h0l3.1-10.4h2.6l3.1,10.4h0l2.8-10.4h2.7l-4.1,14.2h-2.4l-3.3-10.6h0l-3.3,10.6H237
							L232.9,341.2z"/>
					</g>
					<g class="st33">
						<path d="M253,350.6c0-0.8,0.1-1.5,0.4-2.1c0.3-0.6,0.6-1.1,1.1-1.6s1-0.8,1.7-1c0.6-0.2,1.3-0.4,2-0.4c0.7,0,1.4,0.1,2,0.4
							c0.6,0.2,1.2,0.6,1.7,1s0.8,1,1.1,1.6c0.3,0.6,0.4,1.3,0.4,2.1s-0.1,1.5-0.4,2.1c-0.3,0.6-0.6,1.2-1.1,1.6
							c-0.5,0.4-1,0.8-1.7,1.1c-0.6,0.3-1.3,0.4-2,0.4c-0.7,0-1.4-0.1-2-0.4c-0.6-0.3-1.2-0.6-1.7-1.1c-0.5-0.4-0.8-1-1.1-1.6
							C253.1,352,253,351.3,253,350.6z M255.4,350.6c0,0.4,0.1,0.7,0.2,1.1c0.1,0.4,0.3,0.7,0.5,1c0.2,0.3,0.5,0.5,0.9,0.7
							s0.8,0.3,1.2,0.3s0.9-0.1,1.2-0.3s0.6-0.4,0.9-0.7c0.2-0.3,0.4-0.6,0.5-1s0.2-0.7,0.2-1.1s-0.1-0.7-0.2-1.1
							c-0.1-0.4-0.3-0.7-0.5-1c-0.2-0.3-0.5-0.5-0.9-0.7c-0.3-0.2-0.8-0.3-1.2-0.3s-0.9,0.1-1.2,0.3c-0.3,0.2-0.6,0.4-0.9,0.7
							c-0.2,0.3-0.4,0.6-0.5,1C255.5,349.8,255.4,350.2,255.4,350.6z"/>
						<path d="M265.8,345.8h2.3v1.6h0c0.3-0.6,0.6-1,1.1-1.4c0.5-0.3,1-0.5,1.7-0.5c0.1,0,0.2,0,0.3,0c0.1,0,0.2,0,0.3,0v2.2
							c-0.2,0-0.3-0.1-0.4-0.1c-0.1,0-0.2,0-0.3,0c-0.5,0-1,0.1-1.3,0.3c-0.3,0.2-0.6,0.4-0.8,0.7s-0.3,0.6-0.4,0.9
							c-0.1,0.3-0.1,0.5-0.1,0.7v5.1h-2.4V345.8z"/>
						<path d="M273.1,340.3h2.4v9.6h0.1l3.6-4h3.1l-4.2,4.3l4.4,5.3h-3.2l-3.8-4.9h-0.1v4.9h-2.4V340.3z"/>
						<path d="M283.6,342.5c0-0.4,0.1-0.7,0.4-1c0.3-0.3,0.7-0.4,1.1-0.4s0.8,0.1,1.1,0.4s0.5,0.6,0.5,1c0,0.4-0.2,0.8-0.5,1
							s-0.7,0.4-1.1,0.4s-0.8-0.1-1.1-0.4C283.7,343.3,283.6,342.9,283.6,342.5z M283.9,345.8h2.4v9.6h-2.4V345.8z"/>
						<path d="M289.2,345.8h2.3v1.5h0c0.2-0.5,0.6-0.9,1.1-1.3c0.5-0.4,1.1-0.5,1.9-0.5c0.6,0,1.2,0.1,1.6,0.3
							c0.4,0.2,0.8,0.5,1.1,0.9c0.3,0.4,0.5,0.8,0.6,1.2c0.1,0.5,0.2,0.9,0.2,1.4v6h-2.4v-5.3c0-0.3,0-0.6-0.1-0.9s-0.1-0.6-0.3-0.8
							c-0.1-0.2-0.3-0.5-0.6-0.6c-0.2-0.2-0.5-0.2-0.9-0.2s-0.7,0.1-1,0.2c-0.3,0.2-0.5,0.4-0.7,0.6c-0.2,0.2-0.3,0.5-0.4,0.8
							c-0.1,0.3-0.1,0.6-0.1,1v5.3h-2.4V345.8z"/>
						<path d="M310.6,345.8v8.7c0,0.9-0.1,1.7-0.3,2.4s-0.5,1.3-1,1.8c-0.4,0.5-1,0.9-1.7,1.1c-0.7,0.3-1.5,0.4-2.4,0.4
							c-0.4,0-0.8,0-1.2-0.1c-0.4-0.1-0.9-0.2-1.3-0.3c-0.4-0.1-0.8-0.3-1.2-0.5c-0.4-0.2-0.7-0.4-1-0.7l1.4-1.9
							c0.5,0.4,1,0.8,1.6,1c0.6,0.2,1.2,0.3,1.8,0.3c0.6,0,1.1-0.1,1.5-0.3c0.4-0.2,0.7-0.4,0.9-0.7c0.2-0.3,0.4-0.6,0.5-1
							s0.1-0.8,0.1-1.3v-0.7h0c-0.3,0.5-0.8,0.8-1.3,1.1s-1.1,0.4-1.8,0.4c-0.7,0-1.4-0.1-2-0.4c-0.6-0.3-1.1-0.6-1.5-1.1
							c-0.4-0.5-0.7-1-0.9-1.6c-0.2-0.6-0.3-1.2-0.3-1.9c0-0.7,0.1-1.3,0.3-2c0.2-0.6,0.5-1.1,0.9-1.6c0.4-0.5,0.9-0.8,1.5-1.1
							c0.6-0.3,1.2-0.4,2-0.4c0.7,0,1.3,0.1,1.9,0.4c0.6,0.3,1.1,0.7,1.4,1.3h0v-1.4H310.6z M305.5,347.5c-0.4,0-0.8,0.1-1.2,0.2
							c-0.3,0.2-0.6,0.4-0.9,0.6s-0.4,0.6-0.5,1c-0.1,0.4-0.2,0.8-0.2,1.2c0,0.4,0.1,0.8,0.2,1.1c0.1,0.4,0.3,0.7,0.5,1
							c0.2,0.3,0.5,0.5,0.9,0.7c0.3,0.2,0.7,0.3,1.1,0.3c0.4,0,0.8-0.1,1.2-0.2c0.4-0.2,0.7-0.4,0.9-0.7s0.4-0.6,0.6-1
							c0.1-0.4,0.2-0.7,0.2-1.1c0-0.4-0.1-0.8-0.2-1.2c-0.1-0.4-0.3-0.7-0.6-1c-0.2-0.3-0.5-0.5-0.9-0.7S306,347.5,305.5,347.5z"/>
						<path d="M323.9,345.5c0.6,0,1.2,0.1,1.6,0.3c0.4,0.2,0.8,0.5,1.1,0.9c0.3,0.4,0.5,0.8,0.6,1.2c0.1,0.5,0.2,0.9,0.2,1.4v6H325
							v-5.3c0-0.3,0-0.6-0.1-0.9c0-0.3-0.1-0.6-0.2-0.8c-0.1-0.2-0.3-0.5-0.5-0.6s-0.5-0.2-0.9-0.2c-0.4,0-0.7,0.1-1,0.2
							c-0.3,0.1-0.5,0.3-0.7,0.6c-0.2,0.2-0.3,0.5-0.4,0.8s-0.1,0.6-0.1,0.9v5.2h-2.4v-15.1h2.4v6.9h0c0.1-0.2,0.2-0.4,0.4-0.6
							c0.2-0.2,0.4-0.4,0.6-0.5c0.2-0.2,0.5-0.3,0.8-0.4C323.2,345.6,323.5,345.5,323.9,345.5z"/>
						<path d="M329.6,350.6c0-0.8,0.1-1.5,0.4-2.1c0.3-0.6,0.6-1.1,1.1-1.6s1-0.8,1.7-1c0.6-0.2,1.3-0.4,2-0.4c0.7,0,1.4,0.1,2,0.4
							c0.6,0.2,1.2,0.6,1.7,1s0.8,1,1.1,1.6c0.3,0.6,0.4,1.3,0.4,2.1s-0.1,1.5-0.4,2.1c-0.3,0.6-0.6,1.2-1.1,1.6
							c-0.5,0.4-1,0.8-1.7,1.1c-0.6,0.3-1.3,0.4-2,0.4c-0.7,0-1.4-0.1-2-0.4c-0.6-0.3-1.2-0.6-1.7-1.1c-0.5-0.4-0.8-1-1.1-1.6
							C329.8,352,329.6,351.3,329.6,350.6z M332.1,350.6c0,0.4,0.1,0.7,0.2,1.1c0.1,0.4,0.3,0.7,0.5,1c0.2,0.3,0.5,0.5,0.9,0.7
							s0.8,0.3,1.2,0.3s0.9-0.1,1.2-0.3s0.6-0.4,0.9-0.7c0.2-0.3,0.4-0.6,0.5-1s0.2-0.7,0.2-1.1s-0.1-0.7-0.2-1.1
							c-0.1-0.4-0.3-0.7-0.5-1c-0.2-0.3-0.5-0.5-0.9-0.7c-0.3-0.2-0.8-0.3-1.2-0.3s-0.9,0.1-1.2,0.3c-0.3,0.2-0.6,0.4-0.9,0.7
							c-0.2,0.3-0.4,0.6-0.5,1C332.1,349.8,332.1,350.2,332.1,350.6z"/>
						<path d="M351.2,355.4h-2.3v-1.5h0c-0.2,0.5-0.6,0.9-1.1,1.3c-0.5,0.4-1.1,0.5-1.9,0.5c-0.6,0-1.2-0.1-1.6-0.3
							c-0.4-0.2-0.8-0.5-1.1-0.9s-0.5-0.8-0.6-1.2s-0.2-0.9-0.2-1.4v-6h2.4v5.3c0,0.3,0,0.6,0.1,0.9c0,0.3,0.1,0.6,0.3,0.8
							c0.1,0.2,0.3,0.5,0.5,0.6s0.5,0.2,0.9,0.2c0.4,0,0.7-0.1,1-0.2s0.5-0.3,0.7-0.6s0.3-0.5,0.4-0.8c0.1-0.3,0.1-0.6,0.1-1v-5.3
							h2.4V355.4z"/>
						<path d="M354,345.8h2.3v1.6h0c0.3-0.6,0.6-1,1.1-1.4c0.5-0.3,1-0.5,1.7-0.5c0.1,0,0.2,0,0.3,0c0.1,0,0.2,0,0.3,0v2.2
							c-0.2,0-0.3-0.1-0.4-0.1c-0.1,0-0.2,0-0.3,0c-0.5,0-1,0.1-1.3,0.3c-0.3,0.2-0.6,0.4-0.8,0.7s-0.3,0.6-0.4,0.9
							c-0.1,0.3-0.1,0.5-0.1,0.7v5.1H354V345.8z"/>
					</g>
				</g>
			</g>
		</g>
	</g>
	<g>
		<g>
			<g>
				<defs>
					<rect id="SVGID_137_" x="766.5" y="326.7" width="288.9" height="44"/>
				</defs>
				<clipPath id="SVGID_138_">
					<use xlink:href="#SVGID_137_"  style="overflow:visible;"/>
				</clipPath>
				<g class="st71">
					<g class="st33">
						<path d="M782.2,347.9c0.8,0.2,1.4,0.7,1.9,1.3c0.5,0.7,0.8,1.5,0.8,2.4c0,0.6-0.1,1.2-0.4,1.7c-0.2,0.5-0.6,0.9-1,1.3
							c-0.4,0.4-0.9,0.6-1.5,0.8c-0.6,0.2-1.1,0.3-1.7,0.3s-1.2-0.1-1.7-0.3c-0.6-0.2-1-0.5-1.4-0.8c-0.4-0.4-0.7-0.8-1-1.3
							c-0.2-0.5-0.4-1.1-0.4-1.7c0-0.5,0.1-0.9,0.2-1.3c0.1-0.4,0.3-0.8,0.6-1.1c0.2-0.3,0.5-0.6,0.9-0.8c0.3-0.2,0.7-0.4,1.1-0.5v0
							c-0.3-0.1-0.6-0.3-0.9-0.5s-0.5-0.5-0.7-0.7c-0.2-0.3-0.3-0.6-0.4-0.9c-0.1-0.3-0.2-0.7-0.2-1c0-0.6,0.1-1.1,0.3-1.6
							c0.2-0.5,0.5-0.9,0.9-1.2c0.4-0.3,0.8-0.6,1.3-0.8c0.5-0.2,1-0.3,1.5-0.3c0.5,0,1,0.1,1.5,0.3s0.9,0.4,1.3,0.8
							c0.4,0.3,0.7,0.7,0.9,1.2s0.3,1,0.3,1.6c0,0.4-0.1,0.7-0.2,1c-0.1,0.3-0.3,0.7-0.4,0.9c-0.2,0.3-0.4,0.5-0.7,0.7
							C782.8,347.6,782.5,347.8,782.2,347.9L782.2,347.9z M777.2,351.5c0,0.4,0.1,0.8,0.2,1.2s0.4,0.7,0.6,1s0.6,0.5,1,0.6
							s0.8,0.2,1.3,0.2s0.9-0.1,1.3-0.2c0.4-0.2,0.7-0.4,1-0.6s0.5-0.6,0.6-1c0.1-0.4,0.2-0.8,0.2-1.2s-0.1-0.8-0.2-1.2
							c-0.1-0.4-0.4-0.7-0.6-0.9s-0.6-0.5-1-0.6c-0.4-0.1-0.8-0.2-1.3-0.2s-0.9,0.1-1.3,0.2c-0.4,0.1-0.7,0.4-1,0.6
							s-0.5,0.6-0.6,0.9C777.3,350.7,777.2,351.1,777.2,351.5z M777.7,344.7c0,0.4,0.1,0.7,0.2,1s0.3,0.6,0.6,0.8s0.5,0.4,0.8,0.5
							c0.3,0.1,0.6,0.2,1,0.2c0.4,0,0.7-0.1,1-0.2c0.3-0.1,0.6-0.3,0.8-0.5s0.4-0.5,0.6-0.8c0.1-0.3,0.2-0.6,0.2-1
							c0-0.4-0.1-0.7-0.2-1c-0.1-0.3-0.3-0.6-0.6-0.8s-0.5-0.4-0.8-0.5c-0.3-0.1-0.7-0.2-1-0.2s-0.7,0.1-1,0.2
							c-0.3,0.1-0.6,0.3-0.8,0.5c-0.2,0.2-0.4,0.5-0.6,0.8C777.8,344,777.7,344.4,777.7,344.7z"/>
					</g>
					<g class="st33">
					</g>
					<g class="st33">
						<path d="M792.7,352.5c0.1,0.6,0.4,1,0.8,1.4c0.4,0.4,0.9,0.6,1.5,0.6c0.5,0,0.9-0.1,1.2-0.3c0.3-0.2,0.6-0.4,0.8-0.7
							c0.2-0.3,0.3-0.7,0.4-1s0.1-0.8,0.1-1.2v-10h1.4v10.1c0,0.5-0.1,1-0.2,1.5c-0.1,0.5-0.3,1-0.6,1.4c-0.3,0.4-0.7,0.8-1.2,1.1
							c-0.5,0.3-1.1,0.4-1.9,0.4c-1,0-1.9-0.3-2.5-0.8s-1.1-1.2-1.3-2.1L792.7,352.5z"/>
					</g>
					<g class="st33">
						<path d="M808.3,349.3c0-0.8-0.2-1.4-0.6-1.8c-0.4-0.4-1-0.6-1.9-0.6c-0.6,0-1.1,0.1-1.6,0.3c-0.5,0.2-0.9,0.5-1.2,0.8
							l-0.8-0.9c0.4-0.4,0.9-0.7,1.5-1c0.6-0.3,1.3-0.4,2.1-0.4c0.5,0,1,0.1,1.4,0.2c0.4,0.1,0.8,0.3,1.2,0.6
							c0.3,0.3,0.6,0.6,0.8,1.1s0.3,0.9,0.3,1.5v4.1c0,0.4,0,0.7,0,1.1c0,0.4,0.1,0.7,0.1,1h-1.2c0-0.2-0.1-0.5-0.1-0.7
							c0-0.3,0-0.5,0-0.8h0c-0.4,0.6-0.9,1.1-1.5,1.3s-1.2,0.4-2,0.4c-0.4,0-0.7-0.1-1.1-0.2c-0.4-0.1-0.7-0.3-1-0.5
							c-0.3-0.2-0.6-0.5-0.8-0.9s-0.3-0.8-0.3-1.3c0-0.7,0.2-1.3,0.5-1.7c0.4-0.4,0.9-0.7,1.5-0.9c0.6-0.2,1.3-0.3,2.1-0.4
							c0.8-0.1,1.6-0.1,2.5-0.1V349.3z M807.9,350.7c-0.6,0-1.1,0-1.7,0.1c-0.6,0-1.1,0.1-1.5,0.3s-0.8,0.3-1.1,0.6
							c-0.3,0.3-0.4,0.6-0.4,1.1c0,0.3,0.1,0.6,0.2,0.8c0.1,0.2,0.3,0.4,0.5,0.6c0.2,0.1,0.5,0.2,0.7,0.3c0.3,0.1,0.5,0.1,0.8,0.1
							c0.5,0,0.9-0.1,1.3-0.2c0.4-0.2,0.7-0.4,0.9-0.7c0.3-0.3,0.4-0.6,0.6-1c0.1-0.4,0.2-0.8,0.2-1.2v-0.7H807.9z"/>
						<path d="M815.7,346.3c0.6-0.3,1.2-0.5,1.9-0.5c0.3,0,0.5,0,0.8,0.1c0.3,0.1,0.5,0.2,0.8,0.3c0.3,0.2,0.5,0.4,0.7,0.6
							c0.2,0.3,0.4,0.6,0.6,1c0.3-0.6,0.8-1.1,1.3-1.5c0.6-0.3,1.2-0.5,2-0.5c1.2,0,2.1,0.4,2.7,1.1c0.6,0.7,0.9,1.6,0.9,2.8v5.7
							h-1.4v-5.2c0-1-0.2-1.8-0.5-2.4c-0.4-0.6-1-0.9-1.9-0.9c-0.5,0-0.9,0.1-1.2,0.3s-0.6,0.5-0.8,0.8c-0.2,0.3-0.4,0.7-0.4,1.1
							c-0.1,0.4-0.1,0.8-0.1,1.3v5h-1.4v-5.5c0-0.5,0-0.9-0.1-1.2c-0.1-0.4-0.2-0.7-0.3-1c-0.2-0.3-0.4-0.5-0.7-0.6
							s-0.7-0.2-1.1-0.2c-0.3,0-0.6,0.1-1,0.2c-0.3,0.1-0.6,0.4-0.9,0.7c-0.3,0.3-0.5,0.7-0.6,1.1s-0.2,1-0.2,1.6v4.8h-1.4v-7.3
							c0-0.3,0-0.6,0-1c0-0.4,0-0.8-0.1-1.1h1.3c0,0.3,0,0.5,0.1,0.8s0,0.6,0,0.8h0C814.7,347.1,815.1,346.7,815.7,346.3z"/>
						<path d="M835.2,355.8l-1.2-0.4l6.1-14.5l1.1,0.4L835.2,355.8z"/>
						<path d="M848.2,341.2h1.4v6.1h7.7v-6.1h1.4v14.2h-1.4v-6.7h-7.7v6.7h-1.4V341.2z"/>
						<path d="M868.4,349.3c0-0.8-0.2-1.4-0.6-1.8c-0.4-0.4-1-0.6-1.9-0.6c-0.6,0-1.1,0.1-1.6,0.3c-0.5,0.2-0.9,0.5-1.2,0.8
							l-0.8-0.9c0.4-0.4,0.9-0.7,1.5-1c0.6-0.3,1.3-0.4,2.1-0.4c0.5,0,1,0.1,1.4,0.2c0.4,0.1,0.8,0.3,1.2,0.6
							c0.3,0.3,0.6,0.6,0.8,1.1s0.3,0.9,0.3,1.5v4.1c0,0.4,0,0.7,0,1.1c0,0.4,0.1,0.7,0.1,1h-1.2c0-0.2-0.1-0.5-0.1-0.7
							c0-0.3,0-0.5,0-0.8h0c-0.4,0.6-0.9,1.1-1.5,1.3s-1.2,0.4-2,0.4c-0.4,0-0.7-0.1-1.1-0.2c-0.4-0.1-0.7-0.3-1-0.5
							c-0.3-0.2-0.6-0.5-0.8-0.9s-0.3-0.8-0.3-1.3c0-0.7,0.2-1.3,0.5-1.7c0.4-0.4,0.9-0.7,1.5-0.9c0.6-0.2,1.3-0.3,2.1-0.4
							c0.8-0.1,1.6-0.1,2.5-0.1V349.3z M868,350.7c-0.6,0-1.1,0-1.7,0.1c-0.6,0-1.1,0.1-1.5,0.3s-0.8,0.3-1.1,0.6
							c-0.3,0.3-0.4,0.6-0.4,1.1c0,0.3,0.1,0.6,0.2,0.8c0.1,0.2,0.3,0.4,0.5,0.6c0.2,0.1,0.5,0.2,0.7,0.3c0.3,0.1,0.5,0.1,0.8,0.1
							c0.5,0,0.9-0.1,1.3-0.2c0.4-0.2,0.7-0.4,0.9-0.7c0.3-0.3,0.4-0.6,0.6-1c0.1-0.4,0.2-0.8,0.2-1.2v-0.7H868z"/>
						<path d="M873.2,347.1c0-0.4,0-0.8-0.1-1.1h1.3c0,0.3,0,0.5,0.1,0.8s0,0.6,0,0.8h0c0.3-0.5,0.7-1,1.2-1.3s1.1-0.5,1.8-0.5
							c0.2,0,0.3,0,0.5,0c0.1,0,0.3,0,0.4,0.1l-0.2,1.3c-0.1,0-0.2-0.1-0.4-0.1c-0.2,0-0.4,0-0.6,0c-0.4,0-0.7,0.1-1,0.2
							c-0.3,0.1-0.6,0.3-0.9,0.6c-0.2,0.3-0.4,0.7-0.6,1.1c-0.2,0.4-0.2,1-0.2,1.6v4.8h-1.4v-7.3
							C873.2,347.9,873.2,347.5,873.2,347.1z"/>
						<path d="M882.1,342.4c0,0.3-0.1,0.5-0.3,0.7c-0.2,0.2-0.4,0.3-0.7,0.3s-0.5-0.1-0.7-0.3c-0.2-0.2-0.3-0.4-0.3-0.7
							s0.1-0.5,0.3-0.7c0.2-0.2,0.4-0.3,0.7-0.3s0.5,0.1,0.7,0.3C882,341.9,882.1,342.2,882.1,342.4z M881.8,355.4h-1.4V346h1.4
							V355.4z"/>
					</g>
				</g>
			</g>
		</g>
	</g>
	<g>
		<g>
			<g>
				<defs>
					<rect id="SVGID_139_" x="224.8" y="371.7" width="540.8" height="44"/>
				</defs>
				<clipPath id="SVGID_140_">
					<use xlink:href="#SVGID_139_"  style="overflow:visible;"/>
				</clipPath>
				<g class="st72">
					<g class="st33">
						<path d="M234.3,386.2h5.5c0.5,0,1.1,0.1,1.6,0.2s1,0.3,1.4,0.6c0.4,0.3,0.7,0.7,1,1.1c0.3,0.5,0.4,1,0.4,1.6
							c0,0.8-0.2,1.5-0.7,2c-0.5,0.5-1,0.9-1.8,1.1v0c0.9,0.1,1.6,0.5,2.2,1c0.6,0.6,0.9,1.3,0.9,2.3c0,0.8-0.2,1.4-0.5,2
							c-0.3,0.5-0.7,1-1.2,1.3c-0.5,0.3-1.1,0.6-1.7,0.7c-0.6,0.1-1.3,0.2-2,0.2h-5.1V386.2z M236.8,392h2.2c0.8,0,1.5-0.2,1.9-0.5
							c0.4-0.3,0.7-0.8,0.7-1.4c0-0.6-0.2-1.1-0.7-1.4c-0.5-0.3-1.2-0.4-2.1-0.4h-2V392z M236.8,398.3h2.3c0.3,0,0.7,0,1-0.1
							c0.4,0,0.7-0.1,1-0.3c0.3-0.1,0.6-0.4,0.8-0.6c0.2-0.3,0.3-0.7,0.3-1.1c0-0.7-0.3-1.3-0.8-1.6c-0.5-0.3-1.3-0.4-2.3-0.4h-2.4
							V398.3z"/>
						<path d="M255.9,400.4h-2.3v-1.5h0c-0.2,0.5-0.6,0.9-1.1,1.3c-0.5,0.4-1.1,0.5-1.9,0.5c-0.6,0-1.2-0.1-1.6-0.3
							c-0.4-0.2-0.8-0.5-1.1-0.9s-0.5-0.8-0.6-1.2s-0.2-0.9-0.2-1.4v-6h2.4v5.3c0,0.3,0,0.6,0.1,0.9c0,0.3,0.1,0.6,0.3,0.8
							c0.1,0.2,0.3,0.5,0.5,0.6s0.5,0.2,0.9,0.2c0.4,0,0.7-0.1,1-0.2s0.5-0.3,0.7-0.6s0.3-0.5,0.4-0.8c0.1-0.3,0.1-0.6,0.1-1v-5.3
							h2.4V400.4z"/>
						<path d="M268.5,400.4h-2.3V399h0c-0.3,0.6-0.8,1-1.4,1.3c-0.6,0.3-1.2,0.4-1.9,0.4c-0.7,0-1.4-0.1-2-0.4s-1.1-0.6-1.5-1.1
							c-0.4-0.5-0.7-1-0.9-1.6c-0.2-0.6-0.3-1.3-0.3-2s0.1-1.4,0.3-2c0.2-0.6,0.5-1.1,1-1.6c0.4-0.5,0.9-0.8,1.5-1.1
							c0.6-0.3,1.2-0.4,1.9-0.4c0.4,0,0.8,0,1.2,0.1c0.3,0.1,0.6,0.2,0.9,0.4c0.3,0.1,0.5,0.3,0.7,0.5c0.2,0.2,0.3,0.3,0.5,0.5h0.1
							v-6.7h2.4V400.4z M260.6,395.6c0,0.4,0.1,0.7,0.2,1.1c0.1,0.4,0.3,0.7,0.5,1c0.2,0.3,0.5,0.5,0.9,0.7s0.8,0.3,1.2,0.3
							c0.4,0,0.8-0.1,1.2-0.3c0.3-0.2,0.6-0.4,0.9-0.7c0.2-0.3,0.4-0.6,0.6-1c0.1-0.4,0.2-0.7,0.2-1.1s-0.1-0.7-0.2-1.1
							c-0.1-0.4-0.3-0.7-0.6-1s-0.5-0.5-0.9-0.7c-0.3-0.2-0.7-0.3-1.2-0.3c-0.5,0-0.9,0.1-1.2,0.3c-0.3,0.2-0.6,0.4-0.9,0.7
							c-0.2,0.3-0.4,0.6-0.5,1C260.7,394.8,260.6,395.2,260.6,395.6z"/>
						<path d="M281.2,390.8v8.7c0,0.9-0.1,1.7-0.3,2.4s-0.5,1.3-1,1.8c-0.4,0.5-1,0.9-1.7,1.1c-0.7,0.3-1.5,0.4-2.4,0.4
							c-0.4,0-0.8,0-1.2-0.1c-0.4-0.1-0.9-0.2-1.3-0.3c-0.4-0.1-0.8-0.3-1.2-0.5c-0.4-0.2-0.7-0.4-1-0.7l1.4-1.9
							c0.5,0.4,1,0.8,1.6,1c0.6,0.2,1.2,0.3,1.8,0.3c0.6,0,1.1-0.1,1.5-0.3c0.4-0.2,0.7-0.4,0.9-0.7c0.2-0.3,0.4-0.6,0.5-1
							s0.1-0.8,0.1-1.3v-0.7h0c-0.3,0.5-0.8,0.8-1.3,1.1s-1.1,0.4-1.8,0.4c-0.7,0-1.4-0.1-2-0.4c-0.6-0.3-1.1-0.6-1.5-1.1
							c-0.4-0.5-0.7-1-0.9-1.6c-0.2-0.6-0.3-1.2-0.3-1.9c0-0.7,0.1-1.3,0.3-2c0.2-0.6,0.5-1.1,0.9-1.6c0.4-0.5,0.9-0.8,1.5-1.1
							c0.6-0.3,1.2-0.4,2-0.4c0.7,0,1.3,0.1,1.9,0.4c0.6,0.3,1.1,0.7,1.4,1.3h0v-1.4H281.2z M276.1,392.5c-0.4,0-0.8,0.1-1.2,0.2
							c-0.3,0.2-0.6,0.4-0.9,0.6s-0.4,0.6-0.5,1c-0.1,0.4-0.2,0.8-0.2,1.2c0,0.4,0.1,0.8,0.2,1.1c0.1,0.4,0.3,0.7,0.5,1
							c0.2,0.3,0.5,0.5,0.9,0.7c0.3,0.2,0.7,0.3,1.1,0.3c0.4,0,0.8-0.1,1.2-0.2c0.4-0.2,0.7-0.4,0.9-0.7s0.4-0.6,0.6-1
							c0.1-0.4,0.2-0.7,0.2-1.1c0-0.4-0.1-0.8-0.2-1.2c-0.1-0.4-0.3-0.7-0.6-1c-0.2-0.3-0.5-0.5-0.9-0.7S276.5,392.5,276.1,392.5z"
							/>
						<path d="M293.2,395.7c0,0.1,0,0.2,0,0.3c0,0.1,0,0.2,0,0.3h-7.3c0,0.3,0.1,0.7,0.3,1s0.4,0.5,0.6,0.7c0.3,0.2,0.5,0.4,0.9,0.5
							s0.7,0.2,1,0.2c0.6,0,1.1-0.1,1.5-0.3c0.4-0.2,0.8-0.5,1-0.9l1.6,1.3c-0.9,1.3-2.3,1.9-4.1,1.9c-0.7,0-1.4-0.1-2.1-0.4
							c-0.6-0.2-1.2-0.6-1.6-1s-0.8-1-1.1-1.6c-0.3-0.6-0.4-1.3-0.4-2.1c0-0.8,0.1-1.5,0.4-2.1c0.3-0.6,0.6-1.2,1.1-1.6
							c0.5-0.4,1-0.8,1.6-1c0.6-0.2,1.3-0.4,2-0.4c0.7,0,1.3,0.1,1.9,0.3c0.6,0.2,1.1,0.5,1.5,1c0.4,0.4,0.7,1,1,1.6
							C293.1,394.1,293.2,394.9,293.2,395.7z M290.8,394.6c0-0.3,0-0.6-0.1-0.9c-0.1-0.3-0.2-0.5-0.4-0.7c-0.2-0.2-0.4-0.4-0.7-0.5
							c-0.3-0.1-0.6-0.2-1-0.2c-0.7,0-1.3,0.2-1.8,0.7s-0.8,1-0.8,1.7H290.8z"/>
						<path d="M294.2,392.7v-1.9h1.7V388h2.4v2.8h2.4v1.9h-2.4v4.5c0,0.4,0.1,0.8,0.2,1.1c0.2,0.3,0.5,0.4,1,0.4c0.2,0,0.3,0,0.5,0
							s0.4-0.1,0.5-0.2l0.1,1.9c-0.2,0.1-0.5,0.1-0.8,0.2c-0.3,0-0.6,0.1-0.8,0.1c-0.6,0-1.2-0.1-1.6-0.3c-0.4-0.2-0.7-0.4-0.9-0.7
							c-0.2-0.3-0.4-0.7-0.5-1.1c-0.1-0.4-0.1-0.8-0.1-1.3v-4.5H294.2z"/>
					</g>
				</g>
			</g>
		</g>
	</g>
	<g>
		<g>
			<g>
				<defs>
					<rect id="SVGID_141_" x="766.5" y="371.7" width="288.9" height="44"/>
				</defs>
				<clipPath id="SVGID_142_">
					<use xlink:href="#SVGID_141_"  style="overflow:visible;"/>
				</clipPath>
				<g class="st73">
					<g class="st33">
						<path d="M777.8,400.4h-1.4v-14.2h1.4V400.4z"/>
						<path d="M781.6,386.2h4.7c0.9,0,1.8,0.1,2.6,0.4s1.7,0.7,2.4,1.3c0.7,0.6,1.3,1.3,1.7,2.2c0.4,0.9,0.7,1.9,0.7,3.1
							c0,1.2-0.2,2.2-0.7,3.1c-0.4,0.9-1,1.6-1.7,2.2c-0.7,0.6-1.5,1-2.4,1.3c-0.9,0.3-1.8,0.4-2.6,0.4h-4.7V386.2z M783,399.1h2.9
							c1.1,0,2-0.2,2.8-0.5c0.8-0.3,1.5-0.8,2-1.3c0.5-0.5,0.9-1.2,1.2-1.9c0.3-0.7,0.4-1.4,0.4-2.1s-0.1-1.4-0.4-2.1
							s-0.7-1.3-1.2-1.9c-0.5-0.5-1.2-1-2-1.3s-1.7-0.5-2.8-0.5H783V399.1z"/>
						<path d="M798.2,400.4h-1.4v-14.2h4.2c0.7,0,1.3,0.1,1.9,0.2c0.6,0.1,1.1,0.3,1.5,0.7c0.4,0.3,0.8,0.7,1,1.2
							c0.2,0.5,0.4,1.1,0.4,1.8c0,0.5-0.1,1-0.3,1.4s-0.4,0.8-0.8,1.1c-0.3,0.3-0.7,0.6-1.1,0.8c-0.4,0.2-0.9,0.3-1.4,0.4l4.1,6.7
							h-1.8l-3.9-6.6h-2.4V400.4z M798.2,392.5h2.5c1.2,0,2.1-0.2,2.7-0.6s0.9-1,0.9-1.9c0-0.5-0.1-0.9-0.3-1.2
							c-0.2-0.3-0.4-0.6-0.7-0.8s-0.7-0.3-1.1-0.4c-0.4-0.1-0.9-0.1-1.5-0.1h-2.6V392.5z"/>
					</g>
					<g class="st33">
					</g>
				</g>
			</g>
		</g>
	</g>
	<g>
		<g>
			<g>
				<defs>
					<rect id="SVGID_143_" x="224.8" y="416.7" width="540.8" height="44"/>
				</defs>
				<clipPath id="SVGID_144_">
					<use xlink:href="#SVGID_143_"  style="overflow:visible;"/>
				</clipPath>
				<g class="st74">
					<g class="st33">
						<path d="M238.8,431.2h2.2l6.1,14.2h-2.9l-1.3-3.2h-6.1l-1.3,3.2h-2.8L238.8,431.2z M242,440l-2.2-5.8l-2.2,5.8H242z"/>
						<path d="M248.4,430.3h2.4v15.1h-2.4V430.3z"/>
						<path d="M253.7,430.3h2.4v15.1h-2.4V430.3z"/>
						<path d="M258.5,440.6c0-0.8,0.1-1.5,0.4-2.1c0.3-0.6,0.6-1.1,1.1-1.6s1-0.8,1.7-1c0.6-0.2,1.3-0.4,2-0.4c0.7,0,1.4,0.1,2,0.4
							c0.6,0.2,1.2,0.6,1.7,1s0.8,1,1.1,1.6c0.3,0.6,0.4,1.3,0.4,2.1s-0.1,1.5-0.4,2.1c-0.3,0.6-0.6,1.2-1.1,1.6
							c-0.5,0.4-1,0.8-1.7,1.1c-0.6,0.3-1.3,0.4-2,0.4c-0.7,0-1.4-0.1-2-0.4c-0.6-0.3-1.2-0.6-1.7-1.1c-0.5-0.4-0.8-1-1.1-1.6
							C258.6,442,258.5,441.3,258.5,440.6z M260.9,440.6c0,0.4,0.1,0.7,0.2,1.1c0.1,0.4,0.3,0.7,0.5,1c0.2,0.3,0.5,0.5,0.9,0.7
							s0.8,0.3,1.2,0.3s0.9-0.1,1.2-0.3s0.6-0.4,0.9-0.7c0.2-0.3,0.4-0.6,0.5-1s0.2-0.7,0.2-1.1s-0.1-0.7-0.2-1.1
							c-0.1-0.4-0.3-0.7-0.5-1c-0.2-0.3-0.5-0.5-0.9-0.7c-0.3-0.2-0.8-0.3-1.2-0.3s-0.9,0.1-1.2,0.3c-0.3,0.2-0.6,0.4-0.9,0.7
							c-0.2,0.3-0.4,0.6-0.5,1C261,439.8,260.9,440.2,260.9,440.6z"/>
						<path d="M277.8,438.5c-0.2-0.3-0.5-0.5-0.8-0.7c-0.4-0.2-0.8-0.3-1.1-0.3c-0.4,0-0.8,0.1-1.2,0.3c-0.3,0.2-0.6,0.4-0.8,0.7
							c-0.2,0.3-0.4,0.6-0.5,1c-0.1,0.4-0.2,0.7-0.2,1.1s0.1,0.7,0.2,1.1c0.1,0.4,0.3,0.7,0.5,1c0.2,0.3,0.5,0.5,0.9,0.7
							c0.3,0.2,0.7,0.3,1.2,0.3c0.4,0,0.7-0.1,1.1-0.2c0.4-0.1,0.7-0.4,0.9-0.6l1.5,1.5c-0.4,0.4-0.9,0.8-1.5,1
							c-0.6,0.2-1.3,0.4-2,0.4c-0.7,0-1.4-0.1-2-0.3s-1.2-0.6-1.7-1c-0.5-0.4-0.8-1-1.1-1.6c-0.3-0.6-0.4-1.3-0.4-2.1
							c0-0.8,0.1-1.5,0.4-2.1c0.3-0.6,0.6-1.2,1.1-1.6s1-0.8,1.6-1c0.6-0.2,1.3-0.4,2-0.4c0.7,0,1.4,0.1,2,0.4
							c0.7,0.3,1.2,0.6,1.6,1.1L277.8,438.5z"/>
					</g>
					<g class="st33">
						<path d="M287,444.2L287,444.2c-0.3,0.4-0.7,0.8-1.2,1s-1.1,0.4-1.8,0.4c-0.4,0-0.8,0-1.2-0.2c-0.4-0.1-0.8-0.3-1.2-0.5
							c-0.4-0.2-0.6-0.5-0.9-0.9s-0.3-0.8-0.3-1.4c0-0.7,0.2-1.3,0.6-1.7c0.4-0.4,0.9-0.8,1.6-1c0.6-0.2,1.4-0.4,2.1-0.4
							c0.8-0.1,1.5-0.1,2.3-0.1v-0.2c0-0.6-0.2-1-0.6-1.3c-0.4-0.3-1-0.4-1.5-0.4c-0.5,0-1,0.1-1.5,0.3c-0.5,0.2-0.9,0.5-1.2,0.8
							l-1.2-1.5c0.5-0.5,1.2-0.9,1.9-1.1c0.7-0.3,1.4-0.4,2.2-0.4c0.9,0,1.6,0.1,2.1,0.4c0.6,0.2,1,0.6,1.3,0.9
							c0.3,0.4,0.5,0.8,0.7,1.3c0.1,0.5,0.2,1,0.2,1.4v5.8H287V444.2z M286.9,441h-0.5c-0.4,0-0.8,0-1.2,0s-0.8,0.1-1.2,0.2
							c-0.4,0.1-0.7,0.3-0.9,0.5s-0.4,0.5-0.4,0.8c0,0.2,0,0.4,0.1,0.6c0.1,0.2,0.2,0.3,0.4,0.4c0.2,0.1,0.3,0.2,0.5,0.2
							c0.2,0,0.4,0.1,0.6,0.1c0.8,0,1.5-0.2,1.9-0.7c0.4-0.4,0.6-1,0.6-1.8V441z"/>
					</g>
					<g class="st33">
						<path d="M290.4,437.7v-1.9h1.7V433h2.4v2.8h2.4v1.9h-2.4v4.5c0,0.4,0.1,0.8,0.2,1.1c0.2,0.3,0.5,0.4,1,0.4c0.2,0,0.3,0,0.5,0
							s0.4-0.1,0.5-0.2l0.1,1.9c-0.2,0.1-0.5,0.1-0.8,0.2c-0.3,0-0.6,0.1-0.8,0.1c-0.6,0-1.2-0.1-1.6-0.3c-0.4-0.2-0.7-0.4-0.9-0.7
							c-0.2-0.3-0.4-0.7-0.5-1.1c-0.1-0.4-0.1-0.8-0.1-1.3v-4.5H290.4z"/>
						<path d="M307.8,440.7c0,0.1,0,0.2,0,0.3c0,0.1,0,0.2,0,0.3h-7.3c0,0.3,0.1,0.7,0.3,1s0.4,0.5,0.6,0.7c0.3,0.2,0.5,0.4,0.9,0.5
							s0.7,0.2,1,0.2c0.6,0,1.1-0.1,1.5-0.3c0.4-0.2,0.8-0.5,1-0.9l1.6,1.3c-0.9,1.3-2.3,1.9-4.1,1.9c-0.7,0-1.4-0.1-2.1-0.4
							c-0.6-0.2-1.2-0.6-1.6-1s-0.8-1-1.1-1.6c-0.3-0.6-0.4-1.3-0.4-2.1c0-0.8,0.1-1.5,0.4-2.1c0.3-0.6,0.6-1.2,1.1-1.6
							c0.5-0.4,1-0.8,1.6-1c0.6-0.2,1.3-0.4,2-0.4c0.7,0,1.3,0.1,1.9,0.3c0.6,0.2,1.1,0.5,1.5,1c0.4,0.4,0.7,1,1,1.6
							C307.7,439.1,307.8,439.9,307.8,440.7z M305.4,439.6c0-0.3,0-0.6-0.1-0.9c-0.1-0.3-0.2-0.5-0.4-0.7c-0.2-0.2-0.4-0.4-0.7-0.5
							c-0.3-0.1-0.6-0.2-1-0.2c-0.7,0-1.3,0.2-1.8,0.7s-0.8,1-0.8,1.7H305.4z"/>
						<path d="M319.9,445.4h-2.3V444h0c-0.3,0.6-0.8,1-1.4,1.3c-0.6,0.3-1.2,0.4-1.9,0.4c-0.7,0-1.4-0.1-2-0.4s-1.1-0.6-1.5-1.1
							c-0.4-0.5-0.7-1-0.9-1.6c-0.2-0.6-0.3-1.3-0.3-2s0.1-1.4,0.3-2c0.2-0.6,0.5-1.1,1-1.6c0.4-0.5,0.9-0.8,1.5-1.1
							c0.6-0.3,1.2-0.4,1.9-0.4c0.4,0,0.8,0,1.2,0.1c0.3,0.1,0.6,0.2,0.9,0.4c0.3,0.1,0.5,0.3,0.7,0.5c0.2,0.2,0.3,0.3,0.5,0.5h0.1
							v-6.7h2.4V445.4z M312,440.6c0,0.4,0.1,0.7,0.2,1.1c0.1,0.4,0.3,0.7,0.5,1c0.2,0.3,0.5,0.5,0.9,0.7s0.8,0.3,1.2,0.3
							c0.4,0,0.8-0.1,1.2-0.3c0.3-0.2,0.6-0.4,0.9-0.7c0.2-0.3,0.4-0.6,0.6-1c0.1-0.4,0.2-0.7,0.2-1.1s-0.1-0.7-0.2-1.1
							c-0.1-0.4-0.3-0.7-0.6-1s-0.5-0.5-0.9-0.7c-0.3-0.2-0.7-0.3-1.2-0.3c-0.5,0-0.9,0.1-1.2,0.3c-0.3,0.2-0.6,0.4-0.9,0.7
							c-0.2,0.3-0.4,0.6-0.5,1C312,439.8,312,440.2,312,440.6z"/>
						<path d="M326.4,437.7v-1.9h1.7V433h2.4v2.8h2.4v1.9h-2.4v4.5c0,0.4,0.1,0.8,0.2,1.1c0.2,0.3,0.5,0.4,1,0.4c0.2,0,0.3,0,0.5,0
							s0.4-0.1,0.5-0.2l0.1,1.9c-0.2,0.1-0.5,0.1-0.8,0.2c-0.3,0-0.6,0.1-0.8,0.1c-0.6,0-1.2-0.1-1.6-0.3c-0.4-0.2-0.7-0.4-0.9-0.7
							c-0.2-0.3-0.4-0.7-0.5-1.1c-0.1-0.4-0.1-0.8-0.1-1.3v-4.5H326.4z"/>
						<path d="M334,440.6c0-0.8,0.1-1.5,0.4-2.1c0.3-0.6,0.6-1.1,1.1-1.6s1-0.8,1.7-1c0.6-0.2,1.3-0.4,2-0.4c0.7,0,1.4,0.1,2,0.4
							c0.6,0.2,1.2,0.6,1.7,1s0.8,1,1.1,1.6c0.3,0.6,0.4,1.3,0.4,2.1s-0.1,1.5-0.4,2.1c-0.3,0.6-0.6,1.2-1.1,1.6
							c-0.5,0.4-1,0.8-1.7,1.1c-0.6,0.3-1.3,0.4-2,0.4c-0.7,0-1.4-0.1-2-0.4c-0.6-0.3-1.2-0.6-1.7-1.1c-0.5-0.4-0.8-1-1.1-1.6
							C334.1,442,334,441.3,334,440.6z M336.4,440.6c0,0.4,0.1,0.7,0.2,1.1c0.1,0.4,0.3,0.7,0.5,1c0.2,0.3,0.5,0.5,0.9,0.7
							s0.8,0.3,1.2,0.3s0.9-0.1,1.2-0.3s0.6-0.4,0.9-0.7c0.2-0.3,0.4-0.6,0.5-1s0.2-0.7,0.2-1.1s-0.1-0.7-0.2-1.1
							c-0.1-0.4-0.3-0.7-0.5-1c-0.2-0.3-0.5-0.5-0.9-0.7c-0.3-0.2-0.8-0.3-1.2-0.3s-0.9,0.1-1.2,0.3c-0.3,0.2-0.6,0.4-0.9,0.7
							c-0.2,0.3-0.4,0.6-0.5,1C336.5,439.8,336.4,440.2,336.4,440.6z"/>
					</g>
				</g>
			</g>
		</g>
		<g>
			<g>
				<defs>
					<rect id="SVGID_145_" x="224.8" y="416.7" width="540.8" height="44"/>
				</defs>
				<clipPath id="SVGID_146_">
					<use xlink:href="#SVGID_145_"  style="overflow:visible;"/>
				</clipPath>
				<g class="st75">
					<g class="st33">
						<path d="M357.6,431.2c1.6,0,2.8,0.3,3.6,1s1.2,1.6,1.2,2.7c0,0.8-0.1,1.5-0.4,2.1s-0.7,1-1.2,1.4c-0.5,0.4-1.2,0.6-1.9,0.8
							c-0.7,0.2-1.5,0.3-2.4,0.3h-2.1l-1,5.9h-2.4l2.5-14.2H357.6z M356.5,437.4c0.5,0,0.9,0,1.4-0.1c0.4-0.1,0.8-0.2,1.1-0.4
							c0.3-0.2,0.5-0.4,0.7-0.7c0.2-0.3,0.2-0.6,0.2-1.1c0-0.4-0.1-0.7-0.2-0.9c-0.1-0.2-0.3-0.4-0.6-0.6c-0.2-0.1-0.5-0.2-0.9-0.3
							c-0.3-0.1-0.7-0.1-1.1-0.1h-1.8l-0.7,4.1H356.5z"/>
						<path d="M363,445.4l2.5-14.2h8.9l-0.4,2.2h-6.5l-0.6,3.7h6.2l-0.4,2.1h-6.2l-0.7,4.1h7.1l-0.4,2.2H363z"/>
						<path d="M381.8,433.4l-2.1,12h-2.5l2.1-12h-4.2l0.4-2.2h10.8l-0.4,2.2H381.8z"/>
					</g>
					<g class="st33">
						<path d="M392.4,433.4l-2.1,12h-2.5l2.1-12h-4.2l0.4-2.2H397l-0.4,2.2H392.4z"/>
					</g>
					<g class="st33">
						<path d="M402.1,439.3l-1.1,6.1h-2.5l1.1-6.1l-3.5-8h2.8l2.4,6l4.7-6h3L402.1,439.3z"/>
					</g>
					<g class="st33">
					</g>
					<g class="st33">
						<path d="M424.2,443.2c-0.3,0.4-0.6,0.7-1,1c-0.4,0.3-0.8,0.6-1.3,0.8c-0.5,0.2-1,0.4-1.5,0.5c-0.6,0.1-1.2,0.2-1.8,0.2
							c-0.9,0-1.8-0.1-2.6-0.4c-0.8-0.3-1.4-0.7-2-1.2c-0.6-0.5-1-1.2-1.3-1.9c-0.3-0.7-0.5-1.6-0.5-2.5c0-1.2,0.2-2.4,0.6-3.4
							c0.4-1.1,1-2,1.8-2.8c0.8-0.8,1.6-1.4,2.6-1.9c1-0.5,2.1-0.7,3.3-0.7c0.5,0,1,0.1,1.5,0.2c0.5,0.1,0.9,0.3,1.4,0.4
							s0.8,0.4,1.1,0.7c0.3,0.3,0.6,0.6,0.8,0.9l-1.9,1.5c-0.1-0.2-0.2-0.3-0.4-0.5s-0.4-0.3-0.6-0.5c-0.3-0.1-0.5-0.3-0.9-0.4
							c-0.3-0.1-0.7-0.1-1-0.1c-0.8,0-1.6,0.2-2.3,0.5c-0.7,0.4-1.3,0.8-1.8,1.4s-0.9,1.3-1.2,2c-0.3,0.8-0.4,1.5-0.4,2.3
							c0,0.6,0.1,1.1,0.3,1.7c0.2,0.5,0.4,1,0.8,1.3c0.3,0.4,0.8,0.7,1.3,0.9s1.1,0.3,1.7,0.3c0.7,0,1.4-0.1,2-0.4
							c0.6-0.3,1.2-0.8,1.7-1.4L424.2,443.2z"/>
					</g>
					<g class="st33">
						<path d="M434.5,445.4l-0.6-3.3h-6.1l-2,3.3H423l9.2-14.2h2.1l2.8,14.2H434.5z M432.7,434.1l-3.6,5.9h4.5L432.7,434.1z"/>
						<path d="M447.5,434.2c-0.3-0.4-0.6-0.7-1-0.9c-0.4-0.2-0.9-0.3-1.4-0.3c-0.3,0-0.5,0-0.8,0.1c-0.3,0.1-0.6,0.2-0.9,0.4
							c-0.3,0.2-0.5,0.4-0.6,0.7c-0.2,0.3-0.3,0.6-0.3,1c0,0.5,0.2,0.9,0.5,1.2c0.4,0.3,0.8,0.5,1.4,0.8c1.2,0.5,2.2,1,2.9,1.6
							c0.7,0.6,1,1.5,1,2.6c0,0.8-0.2,1.5-0.5,2.1c-0.3,0.6-0.7,1-1.3,1.4c-0.5,0.4-1.1,0.6-1.8,0.8c-0.7,0.2-1.3,0.2-2,0.2
							c-0.5,0-0.9,0-1.4-0.1c-0.5-0.1-0.9-0.2-1.4-0.4c-0.4-0.2-0.8-0.4-1.2-0.7c-0.4-0.3-0.7-0.6-0.9-1l2-1.4
							c0.3,0.5,0.7,0.9,1.2,1.2c0.5,0.3,1.1,0.5,1.8,0.5c0.3,0,0.7,0,1-0.1c0.3-0.1,0.6-0.2,0.9-0.4c0.3-0.2,0.5-0.4,0.6-0.7
							c0.2-0.3,0.2-0.6,0.2-1.1c0-0.3-0.1-0.6-0.2-0.8c-0.1-0.2-0.3-0.5-0.6-0.7c-0.2-0.2-0.5-0.4-0.8-0.5s-0.6-0.3-1-0.4
							c-0.4-0.2-0.8-0.3-1.2-0.5c-0.4-0.2-0.7-0.4-1-0.7s-0.5-0.6-0.7-1c-0.2-0.4-0.2-0.9-0.2-1.4c0-0.7,0.1-1.3,0.5-1.9
							c0.3-0.5,0.7-1,1.2-1.4c0.5-0.4,1.1-0.7,1.7-0.9c0.6-0.2,1.3-0.3,2-0.3c0.4,0,0.7,0,1.1,0.1s0.7,0.2,1.1,0.4
							c0.4,0.2,0.7,0.3,1,0.6c0.3,0.2,0.6,0.5,0.8,0.8L447.5,434.2z"/>
						<path d="M459,445.4l1.1-6.3h-6.5l-1.1,6.3H450l2.5-14.2h2.5l-1,5.7h6.5l1-5.7h2.5l-2.5,14.2H459z"/>
					</g>
				</g>
			</g>
		</g>
	</g>
	<g>
		<g>
			<g>
				<defs>
					<rect id="SVGID_147_" x="766.5" y="416.7" width="288.9" height="44"/>
				</defs>
				<clipPath id="SVGID_148_">
					<use xlink:href="#SVGID_147_"  style="overflow:visible;"/>
				</clipPath>
				<g class="st76">
					<g class="st33">
						<path d="M777.8,445.4h-1.4v-14.2h1.4V445.4z"/>
						<path d="M781.6,431.2h4.7c0.9,0,1.8,0.1,2.6,0.4s1.7,0.7,2.4,1.3c0.7,0.6,1.3,1.3,1.7,2.2c0.4,0.9,0.7,1.9,0.7,3.1
							c0,1.2-0.2,2.2-0.7,3.1c-0.4,0.9-1,1.6-1.7,2.2c-0.7,0.6-1.5,1-2.4,1.3c-0.9,0.3-1.8,0.4-2.6,0.4h-4.7V431.2z M783,444.1h2.9
							c1.1,0,2-0.2,2.8-0.5c0.8-0.3,1.5-0.8,2-1.3c0.5-0.5,0.9-1.2,1.2-1.9c0.3-0.7,0.4-1.4,0.4-2.1s-0.1-1.4-0.4-2.1
							s-0.7-1.3-1.2-1.9c-0.5-0.5-1.2-1-2-1.3s-1.7-0.5-2.8-0.5H783V444.1z"/>
						<path d="M798.2,445.4h-1.4v-14.2h4.2c0.7,0,1.3,0.1,1.9,0.2c0.6,0.1,1.1,0.3,1.5,0.7c0.4,0.3,0.8,0.7,1,1.2
							c0.2,0.5,0.4,1.1,0.4,1.8c0,0.5-0.1,1-0.3,1.4s-0.4,0.8-0.8,1.1c-0.3,0.3-0.7,0.6-1.1,0.8c-0.4,0.2-0.9,0.3-1.4,0.4l4.1,6.7
							h-1.8l-3.9-6.6h-2.4V445.4z M798.2,437.5h2.5c1.2,0,2.1-0.2,2.7-0.6s0.9-1,0.9-1.9c0-0.5-0.1-0.9-0.3-1.2
							c-0.2-0.3-0.4-0.6-0.7-0.8s-0.7-0.3-1.1-0.4c-0.4-0.1-0.9-0.1-1.5-0.1h-2.6V437.5z"/>
					</g>
					<g class="st33">
					</g>
				</g>
			</g>
		</g>
	</g>
	<g>
		<g>
			<g>
				<defs>
					<rect id="SVGID_149_" x="220" y="322" width="840" height="144"/>
				</defs>
				<clipPath id="SVGID_150_">
					<use xlink:href="#SVGID_149_"  style="overflow:visible;"/>
				</clipPath>
				<line class="st77" x1="223" y1="371.2" x2="766" y2="371.2"/>
			</g>
		</g>
		<g>
			<g>
				<defs>
					<rect id="SVGID_151_" x="220" y="322" width="840" height="144"/>
				</defs>
				<clipPath id="SVGID_152_">
					<use xlink:href="#SVGID_151_"  style="overflow:visible;"/>
				</clipPath>
				<line class="st78" x1="766" y1="371.2" x2="1057.1" y2="371.2"/>
			</g>
		</g>
		<g>
			<g>
				<defs>
					<rect id="SVGID_153_" x="220" y="322" width="840" height="144"/>
				</defs>
				<clipPath id="SVGID_154_">
					<use xlink:href="#SVGID_153_"  style="overflow:visible;"/>
				</clipPath>
				<line class="st79" x1="223" y1="416.2" x2="766" y2="416.2"/>
			</g>
		</g>
		<g>
			<g>
				<defs>
					<rect id="SVGID_155_" x="220" y="322" width="840" height="144"/>
				</defs>
				<clipPath id="SVGID_156_">
					<use xlink:href="#SVGID_155_"  style="overflow:visible;"/>
				</clipPath>
				<line class="st80" x1="766" y1="416.2" x2="1057.1" y2="416.2"/>
			</g>
		</g>
		<g>
			<g>
				<defs>
					<rect id="SVGID_157_" x="220" y="322" width="840" height="144"/>
				</defs>
				<clipPath id="SVGID_158_">
					<use xlink:href="#SVGID_157_"  style="overflow:visible;"/>
				</clipPath>
				<line class="st81" x1="766" y1="325" x2="766" y2="462.5"/>
			</g>
		</g>
		<g>
			<g>
				<defs>
					<rect id="SVGID_159_" x="220" y="322" width="840" height="144"/>
				</defs>
				<clipPath id="SVGID_160_">
					<use xlink:href="#SVGID_159_"  style="overflow:visible;"/>
				</clipPath>
				<line class="st82" x1="224" y1="325" x2="224" y2="462.5"/>
			</g>
		</g>
		<g>
			<g>
				<defs>
					<rect id="SVGID_161_" x="220" y="322" width="840" height="144"/>
				</defs>
				<clipPath id="SVGID_162_">
					<use xlink:href="#SVGID_161_"  style="overflow:visible;"/>
				</clipPath>
				<line class="st83" x1="1056.1" y1="325" x2="1056.1" y2="462.5"/>
			</g>
		</g>
		<g>
			<g>
				<defs>
					<rect id="SVGID_163_" x="220" y="322" width="840" height="144"/>
				</defs>
				<clipPath id="SVGID_164_">
					<use xlink:href="#SVGID_163_"  style="overflow:visible;"/>
				</clipPath>
				<line class="st84" x1="223" y1="326" x2="766" y2="326"/>
			</g>
		</g>
		<g>
			<g>
				<defs>
					<rect id="SVGID_165_" x="220" y="322" width="840" height="144"/>
				</defs>
				<clipPath id="SVGID_166_">
					<use xlink:href="#SVGID_165_"  style="overflow:visible;"/>
				</clipPath>
				<line class="st85" x1="766" y1="326" x2="1057.1" y2="326"/>
			</g>
		</g>
		<g>
			<g>
				<defs>
					<rect id="SVGID_167_" x="220" y="322" width="840" height="144"/>
				</defs>
				<clipPath id="SVGID_168_">
					<use xlink:href="#SVGID_167_"  style="overflow:visible;"/>
				</clipPath>
				<line class="st86" x1="223" y1="461.5" x2="766" y2="461.5"/>
			</g>
		</g>
		<g>
			<g>
				<defs>
					<rect id="SVGID_169_" x="220" y="322" width="840" height="144"/>
				</defs>
				<clipPath id="SVGID_170_">
					<use xlink:href="#SVGID_169_"  style="overflow:visible;"/>
				</clipPath>
				<line class="st87" x1="766" y1="461.5" x2="1057.1" y2="461.5"/>
			</g>
		</g>
	</g>
	<g>
		<g>
			<g>
				<defs>
					<rect id="SVGID_171_" x="222.4" y="235.3" width="413.7" height="84.7"/>
				</defs>
				<clipPath id="SVGID_172_">
					<use xlink:href="#SVGID_171_"  style="overflow:visible;"/>
				</clipPath>
				<g class="st88">
					<g class="st33">
						<path d="M252,272.6l0.1-14H252l-5.2,14h-3.4l-5-14h-0.1l0.1,14H234v-19.8h6.8l4.5,12.7h0.1l4.3-12.7h6.9v19.8H252z"/>
						<path d="M274.2,272.6l-1.5-3.9H265l-1.5,3.9h-5.2l8.3-19.8h4.6l8.2,19.8H274.2z M268.9,258.1l-2.5,6.8h5L268.9,258.1z"/>
						<path d="M291.8,272.6l-4.3-7.9h-1.6v7.9h-4.7v-19.8h7.6c1,0,1.9,0.1,2.8,0.3c0.9,0.2,1.7,0.5,2.4,1c0.7,0.5,1.3,1.1,1.7,1.8
							c0.4,0.8,0.6,1.7,0.6,2.9c0,1.3-0.4,2.5-1.1,3.4c-0.7,0.9-1.7,1.6-3,2l5.2,8.5H291.8z M291.6,258.9c0-0.5-0.1-0.8-0.3-1.1
							c-0.2-0.3-0.5-0.5-0.8-0.7c-0.3-0.2-0.7-0.3-1-0.3c-0.4-0.1-0.8-0.1-1.1-0.1h-2.6v4.6h2.3c0.4,0,0.8,0,1.2-0.1
							c0.4-0.1,0.8-0.2,1.1-0.3c0.3-0.2,0.6-0.4,0.8-0.7S291.6,259.4,291.6,258.9z"/>
						<path d="M311.9,272.6l-7.4-9.1h-0.1v9.1h-4.7v-19.8h4.7v8.1h0.1l7.1-8.1h6l-8.5,9.1l9,10.7H311.9z"/>
						<path d="M319.7,272.6v-19.8H333v4h-8.7v3.8h8.2v3.8h-8.2v4.1h9.2v4.1H319.7z"/>
						<path d="M345.1,256.9v15.7h-4.8v-15.7h-5.6v-4.1h16v4.1H345.1z"/>
						<path d="M352.9,272.6v-19.8h4.8v19.8H352.9z"/>
						<path d="M374.4,272.6l-8-13h-0.1l0.1,13h-4.6v-19.8h5.5l8,12.9h0.1l-0.1-12.9h4.6v19.8H374.4z"/>
						<path d="M398.2,272.7c-1.3,0.3-2.7,0.5-4.2,0.5c-1.6,0-3-0.3-4.4-0.8s-2.5-1.2-3.4-2.1c-1-0.9-1.7-2-2.3-3.3
							c-0.5-1.3-0.8-2.7-0.8-4.3c0-1.6,0.3-3,0.8-4.3s1.3-2.4,2.3-3.3c1-0.9,2.1-1.6,3.4-2.1c1.3-0.5,2.7-0.7,4.2-0.7
							c1.6,0,3,0.2,4.4,0.7c1.3,0.5,2.4,1.1,3.3,1.9l-3,3.4c-0.5-0.5-1.1-1-1.8-1.3c-0.8-0.3-1.6-0.5-2.6-0.5
							c-0.8,0-1.6,0.2-2.3,0.5s-1.3,0.7-1.8,1.3c-0.5,0.6-0.9,1.2-1.2,2c-0.3,0.8-0.4,1.6-0.4,2.5c0,0.9,0.1,1.8,0.4,2.5
							c0.3,0.8,0.6,1.4,1.2,2c0.5,0.6,1.1,1,1.9,1.3c0.8,0.3,1.6,0.5,2.6,0.5c0.6,0,1.1,0,1.6-0.1s1-0.2,1.4-0.4v-3.6h-3.8v-3.9h8.2
							v10.5C400.6,271.9,399.5,272.3,398.2,272.7z"/>
					</g>
				</g>
			</g>
		</g>
		<g>
			<g>
				<defs>
					<rect id="SVGID_173_" x="222.4" y="235.3" width="413.7" height="84.7"/>
				</defs>
				<clipPath id="SVGID_174_">
					<use xlink:href="#SVGID_173_"  style="overflow:visible;"/>
				</clipPath>
			</g>
		</g>
	</g>
</g>
<g class="st33">
	<path class="st89" d="M362.1,789.1c-0.7,1.1-1.9,1.9-3.5,2.4c1.6,0.4,2.8,1.2,3.5,2.4c0.7,1.1,1,2.8,1,5v7.7c0,1.4,0.4,2.5,1.1,3.2
		c0.7,0.7,1.8,1.1,3.2,1.1h0.8v8.7h-3.9c-4.2,0-7.3-1-9.5-3c-2.1-2-3.2-4.9-3.2-8.7v-9.3c0-0.9-0.2-1.6-0.7-2
		c-0.5-0.4-1.1-0.7-1.9-0.7h-2v-8.8h2c0.8,0,1.4-0.2,1.9-0.7c0.5-0.4,0.7-1.1,0.7-2v-9.3c0-3.8,1.1-6.6,3.2-8.7c2.1-2,5.3-3,9.5-3
		h3.9v8.7h-0.8c-1.4,0-2.5,0.4-3.2,1.1c-0.7,0.7-1.1,1.8-1.1,3.2v7.7C363.2,786.3,362.8,788,362.1,789.1z"/>
	<path class="st89" d="M426.6,775.4l-11.6,32.5h-11l-6.1-17.7l-6.4,17.7h-11l-11.6-32.5h10.8l6.7,19.7l6.9-19.7h9.7l6.7,19.9
		l6.9-19.9H426.6z"/>
	<path class="st89" d="M436.1,806.3c-2.8-1.4-5-3.4-6.6-6c-1.6-2.6-2.4-5.5-2.4-8.7c0-3.2,0.8-6.1,2.4-8.6c1.6-2.6,3.8-4.5,6.5-6
		c2.8-1.4,5.9-2.1,9.5-2.1c3.5,0,6.7,0.7,9.5,2.1c2.8,1.4,5,3.4,6.5,5.9c1.6,2.5,2.3,5.4,2.3,8.7c0,3.2-0.8,6.1-2.3,8.7
		c-1.6,2.6-3.7,4.6-6.5,6c-2.8,1.4-6,2.2-9.5,2.2C442.1,808.5,438.9,807.7,436.1,806.3z M450.5,797.3c1.3-1.4,1.9-3.3,1.9-5.7
		c0-2.4-0.6-4.3-1.9-5.6c-1.3-1.4-2.9-2-4.9-2c-2,0-3.6,0.7-4.9,2c-1.3,1.4-1.9,3.2-1.9,5.6c0,2.4,0.6,4.4,1.9,5.7
		c1.3,1.4,2.9,2.1,4.9,2.1C447.5,799.4,449.2,798.7,450.5,797.3z"/>
	<path class="st89" d="M484.6,776c1.9-0.7,4-1.1,6.4-1.1v10.3c-1-0.1-1.9-0.2-2.6-0.2c-2.4,0-4.4,0.7-5.7,2s-2.1,3.3-2.1,6.1v14.9
		h-11.4v-32.5H480v3.9C481.2,777.8,482.7,776.7,484.6,776z"/>
	<path class="st89" d="M510.4,796.5l-3.4,3.4v8h-11.4v-44.5H507v23.3l11.6-11.3h13.5l-13.5,13.9l14.6,18.6h-13.8L510.4,796.5z"/>
	<path class="st89" d="M554.9,770.1c-1.3-1.2-1.9-2.6-1.9-4.3s0.6-3.2,1.9-4.3c1.3-1.2,3-1.7,5-1.7c2.1,0,3.8,0.6,5,1.7
		c1.3,1.1,1.9,2.5,1.9,4.2c0,1.8-0.6,3.3-1.9,4.5c-1.3,1.2-3,1.8-5,1.8C557.9,771.8,556.2,771.2,554.9,770.1z M554.3,775.4h11.4
		v32.5h-11.4V775.4z"/>
	<path class="st89" d="M604,778.5c2.5,2.4,3.7,6,3.7,10.9v18.6h-11.4v-16.7c0-4.4-1.8-6.7-5.3-6.7c-2,0-3.5,0.6-4.7,1.9
		c-1.2,1.3-1.8,3.2-1.8,5.8v15.7H573v-32.5h10.9v3.5c1.3-1.3,2.8-2.3,4.6-3c1.8-0.7,3.7-1,5.8-1C598.3,774.9,601.5,776.1,604,778.5z
		"/>
	<path class="st89" d="M660.8,776.9c2.4,1.4,4.3,3.3,5.8,5.9c1.4,2.5,2.1,5.5,2.1,8.9c0,3.4-0.7,6.3-2.1,8.8
		c-1.4,2.5-3.3,4.5-5.8,5.9s-5.1,2.1-8.1,2.1c-3.8,0-6.8-1.1-9.1-3.4v14.5h-11.4v-44.2h10.9v3.2c2.1-2.5,5.3-3.8,9.6-3.8
		C655.7,774.9,658.4,775.5,660.8,776.9z M655.2,797.3c1.3-1.4,1.9-3.3,1.9-5.7c0-2.4-0.6-4.3-1.9-5.7s-2.9-2.1-4.9-2.1
		c-2,0-3.6,0.7-4.9,2.1c-1.3,1.4-1.9,3.3-1.9,5.7c0,2.4,0.6,4.3,1.9,5.7c1.3,1.4,2.9,2.1,4.9,2.1C652.3,799.4,654,798.7,655.2,797.3
		z"/>
	<path class="st89" d="M689.3,776c1.9-0.7,4-1.1,6.4-1.1v10.3c-1-0.1-1.9-0.2-2.6-0.2c-2.4,0-4.4,0.7-5.7,2s-2.1,3.3-2.1,6.1v14.9
		H674v-32.5h10.9v3.9C686,777.8,687.5,776.7,689.3,776z"/>
	<path class="st89" d="M707,806.3c-2.8-1.4-5-3.4-6.6-6c-1.6-2.6-2.4-5.5-2.4-8.7c0-3.2,0.8-6.1,2.4-8.6c1.6-2.6,3.8-4.5,6.5-6
		c2.8-1.4,5.9-2.1,9.5-2.1c3.5,0,6.7,0.7,9.5,2.1s5,3.4,6.5,5.9c1.6,2.5,2.3,5.4,2.3,8.7c0,3.2-0.8,6.1-2.3,8.7
		c-1.6,2.6-3.7,4.6-6.5,6c-2.8,1.4-6,2.2-9.5,2.2C713,808.5,709.8,807.7,707,806.3z M721.4,797.3c1.3-1.4,1.9-3.3,1.9-5.7
		c0-2.4-0.6-4.3-1.9-5.6c-1.3-1.4-2.9-2-4.9-2c-2,0-3.6,0.7-4.9,2c-1.3,1.4-1.9,3.2-1.9,5.6c0,2.4,0.6,4.4,1.9,5.7
		c1.3,1.4,2.9,2.1,4.9,2.1C718.4,799.4,720.1,798.7,721.4,797.3z"/>
	<path class="st89" d="M775.1,775.4V802c0,6-1.6,10.6-4.9,13.6c-3.3,3-8,4.5-14.2,4.5c-3.2,0-6.2-0.4-9-1.1
		c-2.8-0.7-5.2-1.8-7.1-3.2l4.1-8c1.3,1.1,3,1.9,5,2.5c2,0.6,4,0.9,6,0.9c3,0,5.2-0.7,6.6-2c1.4-1.3,2.1-3.3,2.1-5.9v-1.1
		c-2.2,2.6-5.4,3.8-9.7,3.8c-2.9,0-5.5-0.7-8-2c-2.4-1.3-4.4-3.1-5.8-5.5c-1.4-2.4-2.2-5.1-2.2-8.2c0-3.1,0.7-5.8,2.2-8.2
		s3.4-4.2,5.8-5.5c2.4-1.3,5.1-1.9,8-1.9c4.6,0,8,1.5,10.2,4.5v-4H775.1z M761.8,795.3c1.3-1.2,2-2.8,2-4.8c0-2-0.7-3.5-2-4.8
		c-1.3-1.2-3-1.8-5.1-1.8c-2.1,0-3.8,0.6-5.1,1.8c-1.3,1.2-2,2.8-2,4.8c0,2,0.7,3.6,2,4.8c1.4,1.2,3.1,1.9,5.1,1.9
		S760.4,796.6,761.8,795.3z"/>
	<path class="st89" d="M797.8,776c1.9-0.7,4-1.1,6.4-1.1v10.3c-1-0.1-1.9-0.2-2.6-0.2c-2.4,0-4.3,0.7-5.7,2s-2.1,3.3-2.1,6.1v14.9
		h-11.4v-32.5h10.9v3.9C794.4,777.8,795.9,776.7,797.8,776z"/>
	<path class="st89" d="M841.6,794.5H818c0.5,1.7,1.4,3,2.8,3.9c1.4,0.9,3.1,1.3,5.2,1.3c1.6,0,2.9-0.2,4-0.7
		c1.1-0.4,2.3-1.2,3.5-2.2l6,6.2c-3.2,3.5-7.8,5.3-13.9,5.3c-3.8,0-7.1-0.7-10-2.2c-2.9-1.4-5.1-3.4-6.7-6c-1.6-2.6-2.4-5.5-2.4-8.7
		c0-3.2,0.8-6.1,2.3-8.6c1.5-2.5,3.7-4.5,6.4-6c2.7-1.4,5.8-2.2,9.2-2.2c3.2,0,6.2,0.7,8.8,2c2.6,1.3,4.7,3.3,6.3,5.8
		c1.5,2.5,2.3,5.6,2.3,9C841.8,791.8,841.7,792.7,841.6,794.5z M820,784.5c-1.2,1-1.9,2.4-2.2,4.1h13.3c-0.3-1.7-1.1-3.1-2.2-4.1
		c-1.2-1-2.7-1.5-4.4-1.5C822.7,783,821.2,783.5,820,784.5z"/>
	<path class="st89" d="M850.8,807.5c-2.6-0.6-4.8-1.4-6.4-2.4l3.4-7.8c1.5,0.9,3.2,1.7,5.3,2.2s4.1,0.8,6.1,0.8
		c1.8,0,3.2-0.2,3.9-0.6c0.8-0.4,1.2-0.9,1.2-1.6s-0.5-1.2-1.4-1.5c-0.9-0.3-2.4-0.6-4.5-0.9c-2.6-0.3-4.8-0.7-6.6-1.3
		c-1.8-0.5-3.4-1.5-4.7-2.9c-1.3-1.4-2-3.4-2-5.9c0-2.1,0.6-3.9,1.9-5.5c1.2-1.6,3-2.9,5.4-3.8c2.4-0.9,5.2-1.4,8.5-1.4
		c2.4,0,4.7,0.2,7,0.7c2.3,0.5,4.3,1.2,5.8,2l-3.4,7.7c-2.9-1.6-6-2.4-9.4-2.4c-1.8,0-3.1,0.2-4,0.6c-0.8,0.4-1.3,1-1.3,1.7
		c0,0.8,0.5,1.3,1.4,1.6s2.4,0.6,4.6,0.9c2.7,0.4,4.9,0.9,6.7,1.4c1.8,0.5,3.3,1.5,4.6,2.9c1.3,1.4,2,3.3,2,5.8c0,2-0.6,3.9-1.9,5.5
		c-1.2,1.6-3.1,2.9-5.5,3.8s-5.3,1.4-8.7,1.4C856.2,808.5,853.5,808.1,850.8,807.5z"/>
	<path class="st89" d="M883.7,807.5c-2.6-0.6-4.8-1.4-6.4-2.4l3.4-7.8c1.5,0.9,3.2,1.7,5.3,2.2c2,0.5,4.1,0.8,6.1,0.8
		c1.8,0,3.2-0.2,3.9-0.6c0.8-0.4,1.2-0.9,1.2-1.6s-0.5-1.2-1.4-1.5s-2.4-0.6-4.5-0.9c-2.6-0.3-4.8-0.7-6.6-1.3
		c-1.8-0.5-3.4-1.5-4.7-2.9c-1.3-1.4-2-3.4-2-5.9c0-2.1,0.6-3.9,1.9-5.5c1.2-1.6,3-2.9,5.4-3.8c2.4-0.9,5.2-1.4,8.6-1.4
		c2.4,0,4.7,0.2,7,0.7c2.3,0.5,4.3,1.2,5.8,2l-3.4,7.7c-2.9-1.6-6-2.4-9.4-2.4c-1.8,0-3.1,0.2-4,0.6s-1.3,1-1.3,1.7
		c0,0.8,0.5,1.3,1.4,1.6c0.9,0.3,2.4,0.6,4.6,0.9c2.7,0.4,4.9,0.9,6.7,1.4c1.8,0.5,3.3,1.5,4.6,2.9s2,3.3,2,5.8c0,2-0.6,3.9-1.9,5.5
		c-1.2,1.6-3.1,2.9-5.5,3.8c-2.4,0.9-5.3,1.4-8.7,1.4C889,808.5,886.3,808.1,883.7,807.5z"/>
	<path class="st89" d="M930.9,787.1v8.8h-2c-0.8,0-1.4,0.2-1.9,0.7c-0.5,0.4-0.7,1.1-0.7,2v9.3c0,3.8-1.1,6.6-3.2,8.7
		c-2.1,2-5.3,3-9.4,3h-4v-8.7h0.9c1.4,0,2.5-0.4,3.2-1.1c0.7-0.7,1.1-1.8,1.1-3.2v-7.7c0-2.2,0.3-3.9,1-5c0.7-1.1,1.8-1.9,3.5-2.4
		c-1.6-0.4-2.8-1.2-3.5-2.4c-0.7-1.1-1-2.8-1-5v-7.7c0-1.4-0.4-2.5-1.1-3.2c-0.7-0.7-1.8-1.1-3.2-1.1h-0.9v-8.7h4c4.2,0,7.3,1,9.4,3
		c2.1,2,3.2,4.9,3.2,8.7v9.3c0,0.9,0.2,1.6,0.7,2c0.5,0.4,1.1,0.7,1.9,0.7H930.9z"/>
</g>
</svg>
