<?xml version="1.0" encoding="utf-8"?>
<!-- Generator: Adobe Illustrator 24.3.0, SVG Export Plug-In . SVG Version: 6.00 Build 0)  -->
<svg version="1.1" id="Layer_1" xmlns="http://www.w3.org/2000/svg" xmlns:xlink="http://www.w3.org/1999/xlink" x="0px" y="0px"
	 viewBox="0 0 1280 1280" enable-background="new 0 0 1280 1280" xml:space="preserve">
<rect fill="#FFFFFF" width="1280" height="1280"/>
<g>
	<g>
		<g>
			<defs>
				<rect id="SVGID_635_" x="211" y="528" width="840" height="504"/>
			</defs>
			<clipPath id="SVGID_2_">
				<use xlink:href="#SVGID_635_"  overflow="visible"/>
			</clipPath>
			<rect x="215" y="532" clip-path="url(#SVGID_2_)" fill="#64615D" width="112" height="45.25"/>
			<rect x="327" y="532" clip-path="url(#SVGID_2_)" fill="#64615D" width="112" height="45.25"/>
			<rect x="439" y="532" clip-path="url(#SVGID_2_)" fill="#64615D" width="112" height="45.25"/>
			<rect x="551" y="532" clip-path="url(#SVGID_2_)" fill="#64615D" width="206" height="45.25"/>
			<rect x="757" y="532" clip-path="url(#SVGID_2_)" fill="#64615D" width="289.36" height="45.25"/>
			<rect x="215" y="622.25" clip-path="url(#SVGID_2_)" fill="#F0EBE3" width="112" height="45"/>
			<rect x="327" y="622.25" clip-path="url(#SVGID_2_)" fill="#F0EBE3" width="112" height="45"/>
			<rect x="439" y="622.25" clip-path="url(#SVGID_2_)" fill="#F0EBE3" width="112" height="45"/>
			<rect x="551" y="622.25" clip-path="url(#SVGID_2_)" fill="#F0EBE3" width="206" height="45"/>
			<rect x="757" y="622.25" clip-path="url(#SVGID_2_)" fill="#F0EBE3" width="289.36" height="45"/>
			<rect x="215" y="712.25" clip-path="url(#SVGID_2_)" fill="#F0EBE3" width="112" height="45"/>
			<rect x="327" y="712.25" clip-path="url(#SVGID_2_)" fill="#F0EBE3" width="112" height="45"/>
			<rect x="439" y="712.25" clip-path="url(#SVGID_2_)" fill="#F0EBE3" width="112" height="45"/>
			<rect x="551" y="712.25" clip-path="url(#SVGID_2_)" fill="#F0EBE3" width="206" height="45"/>
			<rect x="757" y="712.25" clip-path="url(#SVGID_2_)" fill="#F0EBE3" width="289.36" height="45"/>
			<rect x="215" y="802.25" clip-path="url(#SVGID_2_)" fill="#F0EBE3" width="112" height="45"/>
			<rect x="327" y="802.25" clip-path="url(#SVGID_2_)" fill="#F0EBE3" width="112" height="45"/>
			<rect x="439" y="802.25" clip-path="url(#SVGID_2_)" fill="#F0EBE3" width="112" height="45"/>
			<rect x="551" y="802.25" clip-path="url(#SVGID_2_)" fill="#F0EBE3" width="206" height="45"/>
			<rect x="757" y="802.25" clip-path="url(#SVGID_2_)" fill="#F0EBE3" width="289.36" height="45"/>
			<rect x="215" y="892.25" clip-path="url(#SVGID_2_)" fill="#F0EBE3" width="112" height="45"/>
			<rect x="327" y="892.25" clip-path="url(#SVGID_2_)" fill="#F0EBE3" width="112" height="45"/>
			<rect x="439" y="892.25" clip-path="url(#SVGID_2_)" fill="#F0EBE3" width="112" height="45"/>
			<rect x="551" y="892.25" clip-path="url(#SVGID_2_)" fill="#F0EBE3" width="206" height="45"/>
			<rect x="757" y="892.25" clip-path="url(#SVGID_2_)" fill="#F0EBE3" width="289.36" height="45"/>
			<rect x="215" y="982.25" clip-path="url(#SVGID_2_)" fill="#F0EBE3" width="112" height="45.25"/>
			<rect x="327" y="982.25" clip-path="url(#SVGID_2_)" fill="#F0EBE3" width="112" height="45.25"/>
			<rect x="439" y="982.25" clip-path="url(#SVGID_2_)" fill="#F0EBE3" width="112" height="45.25"/>
			<rect x="551" y="982.25" clip-path="url(#SVGID_2_)" fill="#F0EBE3" width="206" height="45.25"/>
			<rect x="757" y="982.25" clip-path="url(#SVGID_2_)" fill="#F0EBE3" width="289.36" height="45.25"/>
		</g>
		<g>
			<defs>
				<rect id="SVGID_637_" x="215.75" y="532.75" width="111.25" height="44"/>
			</defs>
			<clipPath id="SVGID_4_">
				<use xlink:href="#SVGID_637_"  overflow="visible"/>
			</clipPath>
			<g clip-path="url(#SVGID_4_)">
				<text transform="matrix(1 0 0 1 223.749 561.4303)"><tspan x="0" y="0" fill="#FFFFFF" font-family="'AvenirNext-DemiBold'" font-size="20px" letter-spacing="-1">P</tspan><tspan x="10.92" y="0" fill="#FFFFFF" font-family="'AvenirNext-DemiBold'" font-size="20px">eriod</tspan></text>
			</g>
		</g>
		<g>
			<defs>
				<rect id="SVGID_639_" x="327" y="532.75" width="112" height="44"/>
			</defs>
			<clipPath id="SVGID_6_">
				<use xlink:href="#SVGID_639_"  overflow="visible"/>
			</clipPath>
			<g clip-path="url(#SVGID_6_)">
				<text transform="matrix(1 0 0 1 334.999 561.4303)" fill="#FFFFFF" font-family="'AvenirNext-DemiBold'" font-size="20px">Month</text>
			</g>
		</g>
		<g>
			<defs>
				<rect id="SVGID_641_" x="439" y="532.75" width="112" height="44"/>
			</defs>
			<clipPath id="SVGID_8_">
				<use xlink:href="#SVGID_641_"  overflow="visible"/>
			</clipPath>
			<g clip-path="url(#SVGID_8_)">
				<text transform="matrix(1 0 0 1 446.999 561.4303)"><tspan x="0" y="0" fill="#FFFFFF" font-family="'AvenirNext-DemiBold'" font-size="20px" letter-spacing="-1">P</tspan><tspan x="10.92" y="0" fill="#FFFFFF" font-family="'AvenirNext-DemiBold'" font-size="20px">erson</tspan></text>
			</g>
		</g>
		<g>
			<defs>
				<rect id="SVGID_643_" x="551" y="532.75" width="206" height="44"/>
			</defs>
			<clipPath id="SVGID_10_">
				<use xlink:href="#SVGID_643_"  overflow="visible"/>
			</clipPath>
			<g clip-path="url(#SVGID_10_)">
				<text transform="matrix(1 0 0 1 558.999 561.4303)" fill="#FFFFFF" font-family="'AvenirNext-DemiBold'" font-size="20px">Salary</text>
			</g>
		</g>
		<g>
			<defs>
				<rect id="SVGID_645_" x="757" y="532.75" width="288.61" height="44"/>
			</defs>
			<clipPath id="SVGID_12_">
				<use xlink:href="#SVGID_645_"  overflow="visible"/>
			</clipPath>
			<g clip-path="url(#SVGID_12_)">
				<text transform="matrix(1 0 0 1 764.999 561.4303)"><tspan x="0" y="0" fill="#FFFFFF" font-family="'AvenirNext-DemiBold'" font-size="20px" letter-spacing="-1">T</tspan><tspan x="9.44" y="0" fill="#FFFFFF" font-family="'AvenirNext-DemiBold'" font-size="20px">otal </tspan><tspan x="49.8" y="0" fill="#FFFFFF" font-family="'AvenirNext-DemiBold'" font-size="20px">C</tspan><tspan x="63.48" y="0" fill="#FFFFFF" font-family="'AvenirNext-DemiBold'" font-size="20px">ost</tspan></text>
			</g>
		</g>
		<g>
			<defs>
				<rect id="SVGID_647_" x="215.75" y="577.75" width="110.75" height="44"/>
			</defs>
			<clipPath id="SVGID_14_">
				<use xlink:href="#SVGID_647_"  overflow="visible"/>
			</clipPath>
			<g clip-path="url(#SVGID_14_)">
				<text transform="matrix(1 0 0 1 223.749 606.4303)" font-family="'AvenirNext-Regular'" font-size="20px">1</text>
			</g>
		</g>
		<g>
			<defs>
				<rect id="SVGID_649_" x="327.5" y="577.75" width="111" height="44"/>
			</defs>
			<clipPath id="SVGID_16_">
				<use xlink:href="#SVGID_649_"  overflow="visible"/>
			</clipPath>
			<g clip-path="url(#SVGID_16_)">
				<text transform="matrix(1 0 0 1 359.2197 606.4303)"><tspan x="0" y="0" font-family="'AvenirNext-Regular'" font-size="20px">J</tspan><tspan x="9.74" y="0" font-family="'AvenirNext-Regular'" font-size="20px">anuary</tspan></text>
			</g>
		</g>
		<g>
			<defs>
				<rect id="SVGID_651_" x="439.5" y="577.75" width="111" height="44"/>
			</defs>
			<clipPath id="SVGID_18_">
				<use xlink:href="#SVGID_651_"  overflow="visible"/>
			</clipPath>
			<g clip-path="url(#SVGID_18_)">
				<text transform="matrix(1 0 0 1 447.499 606.4303)" font-family="'AvenirNext-Regular'" font-size="20px">8</text>
			</g>
		</g>
		<g>
			<defs>
				<rect id="SVGID_653_" x="551.5" y="577.75" width="205" height="44"/>
			</defs>
			<clipPath id="SVGID_20_">
				<use xlink:href="#SVGID_653_"  overflow="visible"/>
			</clipPath>
			<g clip-path="url(#SVGID_20_)">
				<text transform="matrix(1 0 0 1 559.499 606.4303)"><tspan x="0" y="0" font-family="'AvenirNext-Regular'" font-size="20px">IDR</tspan><tspan x="32.32" y="0" font-family="'AvenirNext-Regular'" font-size="20px" letter-spacing="60"> </tspan><tspan x="97.38" y="0" font-family="'AvenirNext-Regular'" font-size="20px">3,000,000</tspan></text>
			</g>
		</g>
		<g>
			<defs>
				<rect id="SVGID_655_" x="757.5" y="577.75" width="288.11" height="44"/>
			</defs>
			<clipPath id="SVGID_22_">
				<use xlink:href="#SVGID_655_"  overflow="visible"/>
			</clipPath>
			<g clip-path="url(#SVGID_22_)">
				<text transform="matrix(1 0 0 1 765.499 606.4303)"><tspan x="0" y="0" font-family="'AvenirNext-Regular'" font-size="20px">IDR</tspan><tspan x="32.32" y="0" font-family="'AvenirNext-Regular'" font-size="20px" letter-spacing="131"> </tspan><tspan x="168.9" y="0" font-family="'AvenirNext-Regular'" font-size="20px">24,000,000</tspan></text>
			</g>
		</g>
		<g>
			<defs>
				<rect id="SVGID_657_" x="215.75" y="622.75" width="110.75" height="44"/>
			</defs>
			<clipPath id="SVGID_24_">
				<use xlink:href="#SVGID_657_"  overflow="visible"/>
			</clipPath>
			<g clip-path="url(#SVGID_24_)">
				<text transform="matrix(1 0 0 1 223.749 651.4303)" font-family="'AvenirNext-Regular'" font-size="20px">2</text>
			</g>
		</g>
		<g>
			<defs>
				<rect id="SVGID_659_" x="327.5" y="622.75" width="111" height="44"/>
			</defs>
			<clipPath id="SVGID_26_">
				<use xlink:href="#SVGID_659_"  overflow="visible"/>
			</clipPath>
			<g clip-path="url(#SVGID_26_)">
				<text transform="matrix(1 0 0 1 349.5791 651.4303)"><tspan x="0" y="0" font-family="'AvenirNext-Regular'" font-size="20px">F</tspan><tspan x="10.3" y="0" font-family="'AvenirNext-Regular'" font-size="20px">ebruary</tspan></text>
			</g>
		</g>
		<g>
			<defs>
				<rect id="SVGID_661_" x="439.5" y="622.75" width="111" height="44"/>
			</defs>
			<clipPath id="SVGID_28_">
				<use xlink:href="#SVGID_661_"  overflow="visible"/>
			</clipPath>
			<g clip-path="url(#SVGID_28_)">
				<text transform="matrix(1 0 0 1 447.499 651.4303)" font-family="'AvenirNext-Regular'" font-size="20px">8</text>
			</g>
		</g>
		<g>
			<defs>
				<rect id="SVGID_663_" x="551.5" y="622.75" width="205" height="44"/>
			</defs>
			<clipPath id="SVGID_30_">
				<use xlink:href="#SVGID_663_"  overflow="visible"/>
			</clipPath>
			<g clip-path="url(#SVGID_30_)">
				<text transform="matrix(1 0 0 1 559.499 651.4303)"><tspan x="0" y="0" font-family="'AvenirNext-Regular'" font-size="20px">IDR</tspan><tspan x="32.32" y="0" font-family="'AvenirNext-Regular'" font-size="20px" letter-spacing="60"> </tspan><tspan x="97.38" y="0" font-family="'AvenirNext-Regular'" font-size="20px">3,000,000</tspan></text>
			</g>
		</g>
		<g>
			<defs>
				<rect id="SVGID_665_" x="757.5" y="622.75" width="288.11" height="44"/>
			</defs>
			<clipPath id="SVGID_32_">
				<use xlink:href="#SVGID_665_"  overflow="visible"/>
			</clipPath>
			<g clip-path="url(#SVGID_32_)">
				<text transform="matrix(1 0 0 1 765.499 651.4303)"><tspan x="0" y="0" font-family="'AvenirNext-Regular'" font-size="20px">IDR</tspan><tspan x="32.32" y="0" font-family="'AvenirNext-Regular'" font-size="20px" letter-spacing="131"> </tspan><tspan x="168.9" y="0" font-family="'AvenirNext-Regular'" font-size="20px">24,000,000</tspan></text>
			</g>
		</g>
		<g>
			<defs>
				<rect id="SVGID_667_" x="215.75" y="667.75" width="110.75" height="44"/>
			</defs>
			<clipPath id="SVGID_34_">
				<use xlink:href="#SVGID_667_"  overflow="visible"/>
			</clipPath>
			<g clip-path="url(#SVGID_34_)">
				<text transform="matrix(1 0 0 1 223.749 696.4303)" font-family="'AvenirNext-Regular'" font-size="20px">3</text>
			</g>
		</g>
		<g>
			<defs>
				<rect id="SVGID_669_" x="327.5" y="667.75" width="111" height="44"/>
			</defs>
			<clipPath id="SVGID_36_">
				<use xlink:href="#SVGID_669_"  overflow="visible"/>
			</clipPath>
			<g clip-path="url(#SVGID_36_)">
				<text transform="matrix(1 0 0 1 373.5996 696.4303)"><tspan x="0" y="0" font-family="'AvenirNext-Regular'" font-size="20px">Ma</tspan><tspan x="28.4" y="0" font-family="'AvenirNext-Regular'" font-size="20px">r</tspan><tspan x="35.26" y="0" font-family="'AvenirNext-Regular'" font-size="20px">ch</tspan></text>
			</g>
		</g>
		<g>
			<defs>
				<rect id="SVGID_671_" x="439.5" y="667.75" width="111" height="44"/>
			</defs>
			<clipPath id="SVGID_38_">
				<use xlink:href="#SVGID_671_"  overflow="visible"/>
			</clipPath>
			<g clip-path="url(#SVGID_38_)">
				<text transform="matrix(1 0 0 1 447.499 696.4303)" font-family="'AvenirNext-Regular'" font-size="20px">8</text>
			</g>
		</g>
		<g>
			<defs>
				<rect id="SVGID_673_" x="551.5" y="667.75" width="205" height="44"/>
			</defs>
			<clipPath id="SVGID_40_">
				<use xlink:href="#SVGID_673_"  overflow="visible"/>
			</clipPath>
			<g clip-path="url(#SVGID_40_)">
				<text transform="matrix(1 0 0 1 559.499 696.4303)"><tspan x="0" y="0" font-family="'AvenirNext-Regular'" font-size="20px">IDR</tspan><tspan x="32.32" y="0" font-family="'AvenirNext-Regular'" font-size="20px" letter-spacing="60"> </tspan><tspan x="97.38" y="0" font-family="'AvenirNext-Regular'" font-size="20px">3,000,000</tspan></text>
			</g>
		</g>
		<g>
			<defs>
				<rect id="SVGID_675_" x="757.5" y="667.75" width="288.11" height="44"/>
			</defs>
			<clipPath id="SVGID_42_">
				<use xlink:href="#SVGID_675_"  overflow="visible"/>
			</clipPath>
			<g clip-path="url(#SVGID_42_)">
				<text transform="matrix(1 0 0 1 765.499 696.4303)"><tspan x="0" y="0" font-family="'AvenirNext-Regular'" font-size="20px">IDR</tspan><tspan x="32.32" y="0" font-family="'AvenirNext-Regular'" font-size="20px" letter-spacing="131"> </tspan><tspan x="168.9" y="0" font-family="'AvenirNext-Regular'" font-size="20px">24,000,000</tspan></text>
			</g>
		</g>
		<g>
			<defs>
				<rect id="SVGID_677_" x="215.75" y="712.75" width="110.75" height="44"/>
			</defs>
			<clipPath id="SVGID_44_">
				<use xlink:href="#SVGID_677_"  overflow="visible"/>
			</clipPath>
			<g clip-path="url(#SVGID_44_)">
				<text transform="matrix(1 0 0 1 223.749 741.4303)" font-family="'AvenirNext-Regular'" font-size="20px">4</text>
			</g>
		</g>
		<g>
			<defs>
				<rect id="SVGID_679_" x="327.5" y="712.75" width="111" height="44"/>
			</defs>
			<clipPath id="SVGID_46_">
				<use xlink:href="#SVGID_679_"  overflow="visible"/>
			</clipPath>
			<g clip-path="url(#SVGID_46_)">
				<text transform="matrix(1 0 0 1 386.5596 741.4303)" font-family="'AvenirNext-Regular'" font-size="20px">April</text>
			</g>
		</g>
		<g>
			<defs>
				<rect id="SVGID_681_" x="439.5" y="712.75" width="111" height="44"/>
			</defs>
			<clipPath id="SVGID_48_">
				<use xlink:href="#SVGID_681_"  overflow="visible"/>
			</clipPath>
			<g clip-path="url(#SVGID_48_)">
				<text transform="matrix(1 0 0 1 447.499 741.4303)" font-family="'AvenirNext-Regular'" font-size="20px">10</text>
			</g>
		</g>
		<g>
			<defs>
				<rect id="SVGID_683_" x="551.5" y="712.75" width="205" height="44"/>
			</defs>
			<clipPath id="SVGID_50_">
				<use xlink:href="#SVGID_683_"  overflow="visible"/>
			</clipPath>
			<g clip-path="url(#SVGID_50_)">
				<text transform="matrix(1 0 0 1 559.499 741.4303)"><tspan x="0" y="0" font-family="'AvenirNext-Regular'" font-size="20px">IDR</tspan><tspan x="32.32" y="0" font-family="'AvenirNext-Regular'" font-size="20px" letter-spacing="60"> </tspan><tspan x="97.38" y="0" font-family="'AvenirNext-Regular'" font-size="20px">3,000,000</tspan></text>
			</g>
		</g>
		<g>
			<defs>
				<rect id="SVGID_685_" x="757.5" y="712.75" width="288.11" height="44"/>
			</defs>
			<clipPath id="SVGID_52_">
				<use xlink:href="#SVGID_685_"  overflow="visible"/>
			</clipPath>
			<g clip-path="url(#SVGID_52_)">
				<text transform="matrix(1 0 0 1 765.499 741.4303)"><tspan x="0" y="0" font-family="'AvenirNext-Regular'" font-size="20px">IDR</tspan><tspan x="32.32" y="0" font-family="'AvenirNext-Regular'" font-size="20px" letter-spacing="131"> </tspan><tspan x="168.9" y="0" font-family="'AvenirNext-Regular'" font-size="20px">30,000,000</tspan></text>
			</g>
		</g>
		<g>
			<defs>
				<rect id="SVGID_687_" x="215.75" y="757.75" width="110.75" height="44"/>
			</defs>
			<clipPath id="SVGID_54_">
				<use xlink:href="#SVGID_687_"  overflow="visible"/>
			</clipPath>
			<g clip-path="url(#SVGID_54_)">
				<text transform="matrix(1 0 0 1 223.749 786.4303)" font-family="'AvenirNext-Regular'" font-size="20px">5</text>
			</g>
		</g>
		<g>
			<defs>
				<rect id="SVGID_689_" x="327.5" y="757.75" width="111" height="44"/>
			</defs>
			<clipPath id="SVGID_56_">
				<use xlink:href="#SVGID_689_"  overflow="visible"/>
			</clipPath>
			<g clip-path="url(#SVGID_56_)">
				<text transform="matrix(1 0 0 1 392.3398 786.4303)" font-family="'AvenirNext-Regular'" font-size="20px">May</text>
			</g>
		</g>
		<g>
			<defs>
				<rect id="SVGID_691_" x="439.5" y="757.75" width="111" height="44"/>
			</defs>
			<clipPath id="SVGID_58_">
				<use xlink:href="#SVGID_691_"  overflow="visible"/>
			</clipPath>
			<g clip-path="url(#SVGID_58_)">
				<text transform="matrix(1 0 0 1 447.499 786.4303)" font-family="'AvenirNext-Regular'" font-size="20px">10</text>
			</g>
		</g>
		<g>
			<defs>
				<rect id="SVGID_693_" x="551.5" y="757.75" width="205" height="44"/>
			</defs>
			<clipPath id="SVGID_60_">
				<use xlink:href="#SVGID_693_"  overflow="visible"/>
			</clipPath>
			<g clip-path="url(#SVGID_60_)">
				<text transform="matrix(1 0 0 1 559.499 786.4303)"><tspan x="0" y="0" font-family="'AvenirNext-Regular'" font-size="20px">IDR</tspan><tspan x="32.32" y="0" font-family="'AvenirNext-Regular'" font-size="20px" letter-spacing="60"> </tspan><tspan x="97.38" y="0" font-family="'AvenirNext-Regular'" font-size="20px">3,000,000</tspan></text>
			</g>
		</g>
		<g>
			<defs>
				<rect id="SVGID_695_" x="757.5" y="757.75" width="288.11" height="44"/>
			</defs>
			<clipPath id="SVGID_62_">
				<use xlink:href="#SVGID_695_"  overflow="visible"/>
			</clipPath>
			<g clip-path="url(#SVGID_62_)">
				<text transform="matrix(1 0 0 1 765.499 786.4303)"><tspan x="0" y="0" font-family="'AvenirNext-Regular'" font-size="20px">IDR</tspan><tspan x="32.32" y="0" font-family="'AvenirNext-Regular'" font-size="20px" letter-spacing="131"> </tspan><tspan x="168.9" y="0" font-family="'AvenirNext-Regular'" font-size="20px">30,000,000</tspan></text>
			</g>
		</g>
		<g>
			<defs>
				<rect id="SVGID_697_" x="215.75" y="802.75" width="110.75" height="44"/>
			</defs>
			<clipPath id="SVGID_64_">
				<use xlink:href="#SVGID_697_"  overflow="visible"/>
			</clipPath>
			<g clip-path="url(#SVGID_64_)">
				<text transform="matrix(1 0 0 1 223.749 831.4303)" font-family="'AvenirNext-Regular'" font-size="20px">6</text>
			</g>
		</g>
		<g>
			<defs>
				<rect id="SVGID_699_" x="327.5" y="802.75" width="111" height="44"/>
			</defs>
			<clipPath id="SVGID_66_">
				<use xlink:href="#SVGID_699_"  overflow="visible"/>
			</clipPath>
			<g clip-path="url(#SVGID_66_)">
				<text transform="matrix(1 0 0 1 385.9795 831.4303)" font-family="'AvenirNext-Regular'" font-size="20px">June</text>
			</g>
		</g>
		<g>
			<defs>
				<rect id="SVGID_701_" x="439.5" y="802.75" width="111" height="44"/>
			</defs>
			<clipPath id="SVGID_68_">
				<use xlink:href="#SVGID_701_"  overflow="visible"/>
			</clipPath>
			<g clip-path="url(#SVGID_68_)">
				<text transform="matrix(1 0 0 1 447.499 831.4303)" font-family="'AvenirNext-Regular'" font-size="20px">10</text>
			</g>
		</g>
		<g>
			<defs>
				<rect id="SVGID_703_" x="551.5" y="802.75" width="205" height="44"/>
			</defs>
			<clipPath id="SVGID_70_">
				<use xlink:href="#SVGID_703_"  overflow="visible"/>
			</clipPath>
			<g clip-path="url(#SVGID_70_)">
				<text transform="matrix(1 0 0 1 559.499 831.4303)"><tspan x="0" y="0" font-family="'AvenirNext-Regular'" font-size="20px">IDR</tspan><tspan x="32.32" y="0" font-family="'AvenirNext-Regular'" font-size="20px" letter-spacing="60"> </tspan><tspan x="97.38" y="0" font-family="'AvenirNext-Regular'" font-size="20px">3,000,000</tspan></text>
			</g>
		</g>
		<g>
			<defs>
				<rect id="SVGID_705_" x="757.5" y="802.75" width="288.11" height="44"/>
			</defs>
			<clipPath id="SVGID_72_">
				<use xlink:href="#SVGID_705_"  overflow="visible"/>
			</clipPath>
			<g clip-path="url(#SVGID_72_)">
				<text transform="matrix(1 0 0 1 765.499 831.4303)"><tspan x="0" y="0" font-family="'AvenirNext-Regular'" font-size="20px">IDR</tspan><tspan x="32.32" y="0" font-family="'AvenirNext-Regular'" font-size="20px" letter-spacing="131"> </tspan><tspan x="168.9" y="0" font-family="'AvenirNext-Regular'" font-size="20px">30,000,000</tspan></text>
			</g>
		</g>
		<g>
			<defs>
				<rect id="SVGID_707_" x="215.75" y="847.75" width="110.75" height="44"/>
			</defs>
			<clipPath id="SVGID_98_">
				<use xlink:href="#SVGID_707_"  overflow="visible"/>
			</clipPath>
			<g clip-path="url(#SVGID_98_)">
				<text transform="matrix(1 0 0 1 223.749 876.4303)" font-family="'AvenirNext-Regular'" font-size="20px">7</text>
			</g>
		</g>
		<g>
			<defs>
				<rect id="SVGID_709_" x="327.5" y="847.75" width="111" height="44"/>
			</defs>
			<clipPath id="SVGID_100_">
				<use xlink:href="#SVGID_709_"  overflow="visible"/>
			</clipPath>
			<g clip-path="url(#SVGID_100_)">
				<text transform="matrix(1 0 0 1 394.2393 876.4303)" font-family="'AvenirNext-Regular'" font-size="20px">July</text>
			</g>
		</g>
		<g>
			<defs>
				<rect id="SVGID_711_" x="439.5" y="847.75" width="111" height="44"/>
			</defs>
			<clipPath id="SVGID_102_">
				<use xlink:href="#SVGID_711_"  overflow="visible"/>
			</clipPath>
			<g clip-path="url(#SVGID_102_)">
				<text transform="matrix(1 0 0 1 447.499 876.4303)" font-family="'AvenirNext-Regular'" font-size="20px">12</text>
			</g>
		</g>
		<g>
			<defs>
				<rect id="SVGID_713_" x="551.5" y="847.75" width="205" height="44"/>
			</defs>
			<clipPath id="SVGID_104_">
				<use xlink:href="#SVGID_713_"  overflow="visible"/>
			</clipPath>
			<g clip-path="url(#SVGID_104_)">
				<text transform="matrix(1 0 0 1 559.499 876.4303)"><tspan x="0" y="0" font-family="'AvenirNext-Regular'" font-size="20px">IDR</tspan><tspan x="32.32" y="0" font-family="'AvenirNext-Regular'" font-size="20px" letter-spacing="60"> </tspan><tspan x="97.38" y="0" font-family="'AvenirNext-Regular'" font-size="20px">3,000,000</tspan></text>
			</g>
		</g>
		<g>
			<defs>
				<rect id="SVGID_715_" x="757.5" y="847.75" width="288.11" height="44"/>
			</defs>
			<clipPath id="SVGID_106_">
				<use xlink:href="#SVGID_715_"  overflow="visible"/>
			</clipPath>
			<g clip-path="url(#SVGID_106_)">
				<text transform="matrix(1 0 0 1 765.499 876.4303)"><tspan x="0" y="0" font-family="'AvenirNext-Regular'" font-size="20px">IDR</tspan><tspan x="32.32" y="0" font-family="'AvenirNext-Regular'" font-size="20px" letter-spacing="131"> </tspan><tspan x="168.9" y="0" font-family="'AvenirNext-Regular'" font-size="20px">36,000,000</tspan></text>
			</g>
		</g>
		<g>
			<defs>
				<rect id="SVGID_717_" x="215.75" y="892.75" width="110.75" height="44"/>
			</defs>
			<clipPath id="SVGID_108_">
				<use xlink:href="#SVGID_717_"  overflow="visible"/>
			</clipPath>
			<g clip-path="url(#SVGID_108_)">
				<text transform="matrix(1 0 0 1 223.749 921.4303)" font-family="'AvenirNext-Regular'" font-size="20px">8</text>
			</g>
		</g>
		<g>
			<defs>
				<rect id="SVGID_719_" x="327.5" y="892.75" width="111" height="44"/>
			</defs>
			<clipPath id="SVGID_110_">
				<use xlink:href="#SVGID_719_"  overflow="visible"/>
			</clipPath>
			<g clip-path="url(#SVGID_110_)">
				<text transform="matrix(1 0 0 1 365.3994 921.4303)" font-family="'AvenirNext-Regular'" font-size="20px">August</text>
			</g>
		</g>
		<g>
			<defs>
				<rect id="SVGID_721_" x="439.5" y="892.75" width="111" height="44"/>
			</defs>
			<clipPath id="SVGID_112_">
				<use xlink:href="#SVGID_721_"  overflow="visible"/>
			</clipPath>
			<g clip-path="url(#SVGID_112_)">
				<text transform="matrix(1 0 0 1 447.499 921.4303)" font-family="'AvenirNext-Regular'" font-size="20px">12</text>
			</g>
		</g>
		<g>
			<defs>
				<rect id="SVGID_723_" x="551.5" y="892.75" width="205" height="44"/>
			</defs>
			<clipPath id="SVGID_114_">
				<use xlink:href="#SVGID_723_"  overflow="visible"/>
			</clipPath>
			<g clip-path="url(#SVGID_114_)">
				<text transform="matrix(1 0 0 1 559.499 921.4303)"><tspan x="0" y="0" font-family="'AvenirNext-Regular'" font-size="20px">IDR</tspan><tspan x="32.32" y="0" font-family="'AvenirNext-Regular'" font-size="20px" letter-spacing="60"> </tspan><tspan x="97.38" y="0" font-family="'AvenirNext-Regular'" font-size="20px">3,000,000</tspan></text>
			</g>
		</g>
		<g>
			<defs>
				<rect id="SVGID_725_" x="757.5" y="892.75" width="288.11" height="44"/>
			</defs>
			<clipPath id="SVGID_116_">
				<use xlink:href="#SVGID_725_"  overflow="visible"/>
			</clipPath>
			<g clip-path="url(#SVGID_116_)">
				<text transform="matrix(1 0 0 1 765.499 921.4303)"><tspan x="0" y="0" font-family="'AvenirNext-Regular'" font-size="20px">IDR</tspan><tspan x="32.32" y="0" font-family="'AvenirNext-Regular'" font-size="20px" letter-spacing="131"> </tspan><tspan x="168.9" y="0" font-family="'AvenirNext-Regular'" font-size="20px">36,000,000</tspan></text>
			</g>
		</g>
		<g>
			<defs>
				<rect id="SVGID_727_" x="211" y="528" width="840" height="504"/>
			</defs>
			<clipPath id="SVGID_118_">
				<use xlink:href="#SVGID_727_"  overflow="visible"/>
			</clipPath>
			<rect x="215" y="937.25" opacity="0" clip-path="url(#SVGID_118_)" fill="#17886E" width="112" height="45"/>
			<rect x="327" y="937.25" opacity="0" clip-path="url(#SVGID_118_)" fill="#407A34" width="112" height="45"/>
			<rect x="439" y="937.25" opacity="0" clip-path="url(#SVGID_118_)" fill="#587709" width="112" height="45"/>
			<rect x="551" y="937.25" opacity="0" clip-path="url(#SVGID_118_)" fill="#AA2C7D" width="206" height="45"/>
			<rect x="757" y="937.25" opacity="0" clip-path="url(#SVGID_118_)" fill="#21C9CA" width="289.36" height="45"/>
			<rect x="215" y="982.25" opacity="0" clip-path="url(#SVGID_118_)" fill="#B2E8DE" width="112" height="45.25"/>
			<rect x="327" y="982.25" opacity="0" clip-path="url(#SVGID_118_)" fill="#1C198B" width="112" height="45.25"/>
			<rect x="439" y="982.25" opacity="0" clip-path="url(#SVGID_118_)" fill="#38ED28" width="112" height="45.25"/>
		</g>
		<g>
			<defs>
				<rect id="SVGID_729_" x="551.5" y="982.75" width="205" height="44"/>
			</defs>
			<clipPath id="SVGID_120_">
				<use xlink:href="#SVGID_729_"  overflow="visible"/>
			</clipPath>
			<g clip-path="url(#SVGID_120_)">
				<text transform="matrix(1 0 0 1 559.499 1011.4303)"><tspan x="0" y="0" font-family="'AvenirNext-Bold'" font-size="20px">SUB</tspan><tspan x="39.88" y="0" font-family="'AvenirNext-Bold'" font-size="20px" letter-spacing="-1">-</tspan><tspan x="44.62" y="0" font-family="'AvenirNext-Bold'" font-size="20px">T</tspan><tspan x="55.66" y="0" font-family="'AvenirNext-Bold'" font-size="20px">O</tspan><tspan x="72.08" y="0" font-family="'AvenirNext-Bold'" font-size="20px" letter-spacing="-1">T</tspan><tspan x="82.52" y="0" font-family="'AvenirNext-Bold'" font-size="20px">AL</tspan></text>
			</g>
		</g>
		<g>
			<defs>
				<rect id="SVGID_731_" x="757.5" y="982.75" width="288.11" height="44"/>
			</defs>
			<clipPath id="SVGID_122_">
				<use xlink:href="#SVGID_731_"  overflow="visible"/>
			</clipPath>
			<g clip-path="url(#SVGID_122_)">
				<text transform="matrix(1 0 0 1 765.499 1011.4303)"><tspan x="0" y="0" font-family="'AvenirNext-Bold'" font-size="20px">IDR</tspan><tspan x="35.1" y="0" font-family="'AvenirNext-Bold'" font-size="20px" letter-spacing="103"> </tspan><tspan x="143.82" y="0" font-family="'AvenirNext-Bold'" font-size="20px">234,000,000</tspan></text>
			</g>
		</g>
		<g>
			<defs>
				<rect id="SVGID_733_" x="211" y="528" width="840" height="504"/>
			</defs>
			<clipPath id="SVGID_124_">
				<use xlink:href="#SVGID_733_"  overflow="visible"/>
			</clipPath>
			
				<line clip-path="url(#SVGID_124_)" fill="none" stroke="#CFCCC9" stroke-width="0.5" x1="327" y1="576.25" x2="327" y2="1028.5"/>
			
				<line clip-path="url(#SVGID_124_)" fill="none" stroke="#CFCCC9" stroke-width="0.5" x1="439" y1="576.25" x2="439" y2="1028.5"/>
			
				<line clip-path="url(#SVGID_124_)" fill="none" stroke="#CFCCC9" stroke-width="0.5" x1="551" y1="576.25" x2="551" y2="1028.5"/>
			
				<line clip-path="url(#SVGID_124_)" fill="none" stroke="#CFCCC9" stroke-width="0.5" x1="757" y1="576.25" x2="757" y2="1028.5"/>
			
				<line clip-path="url(#SVGID_124_)" fill="none" stroke="#CFCCC9" stroke-width="0.5" x1="214" y1="622.25" x2="1047.36" y2="622.25"/>
			
				<line clip-path="url(#SVGID_124_)" fill="none" stroke="#CFCCC9" stroke-width="0.5" x1="214" y1="667.25" x2="1047.36" y2="667.25"/>
			
				<line clip-path="url(#SVGID_124_)" fill="none" stroke="#CFCCC9" stroke-width="0.5" x1="214" y1="712.25" x2="1047.36" y2="712.25"/>
			
				<line clip-path="url(#SVGID_124_)" fill="none" stroke="#CFCCC9" stroke-width="0.5" x1="214" y1="757.25" x2="1047.36" y2="757.25"/>
			
				<line clip-path="url(#SVGID_124_)" fill="none" stroke="#CFCCC9" stroke-width="0.5" x1="214" y1="802.25" x2="1047.36" y2="802.25"/>
			
				<line clip-path="url(#SVGID_124_)" fill="none" stroke="#CFCCC9" stroke-width="0.5" x1="214" y1="847.25" x2="1047.36" y2="847.25"/>
			
				<line clip-path="url(#SVGID_124_)" fill="none" stroke="#CFCCC9" stroke-width="0.5" x1="214" y1="892.25" x2="1047.36" y2="892.25"/>
			
				<line clip-path="url(#SVGID_124_)" fill="none" stroke="#CFCCC9" stroke-width="0.5" x1="214" y1="937.25" x2="1047.36" y2="937.25"/>
			
				<line clip-path="url(#SVGID_124_)" fill="none" stroke="#CFCCC9" stroke-width="0.5" x1="214" y1="982.25" x2="1047.36" y2="982.25"/>
			
				<line clip-path="url(#SVGID_124_)" fill="none" stroke="#CFCCC9" stroke-width="0.5" x1="214" y1="577.25" x2="1047.36" y2="577.25"/>
			<line clip-path="url(#SVGID_124_)" fill="none" stroke="#B6B2AD" stroke-width="0.75" x1="215" y1="531" x2="215" y2="577.25"/>
			
				<line clip-path="url(#SVGID_124_)" fill="none" stroke="#B6B2AD" stroke-width="0.75" x1="215" y1="577.25" x2="215" y2="1028.5"/>
			
				<line clip-path="url(#SVGID_124_)" fill="none" stroke="#B6B2AD" stroke-width="0.75" x1="1046.36" y1="531" x2="1046.36" y2="577.25"/>
			
				<line clip-path="url(#SVGID_124_)" fill="none" stroke="#B6B2AD" stroke-width="0.75" x1="1046.36" y1="577.25" x2="1046.36" y2="1028.5"/>
			<line clip-path="url(#SVGID_124_)" fill="none" stroke="#B6B2AD" stroke-width="0.75" x1="214" y1="532" x2="1047.36" y2="532"/>
			
				<line clip-path="url(#SVGID_124_)" fill="none" stroke="#B6B2AD" stroke-width="0.75" x1="214" y1="1027.5" x2="1047.36" y2="1027.5"/>
		</g>
		<g>
			<defs>
				<rect id="SVGID_735_" x="211" y="309.3" width="840" height="144"/>
			</defs>
			<clipPath id="SVGID_126_">
				<use xlink:href="#SVGID_735_"  overflow="visible"/>
			</clipPath>
			<rect x="215" y="313.3" clip-path="url(#SVGID_126_)" fill="#E5E3E0" width="542" height="45.25"/>
			<rect x="215" y="358.55" clip-path="url(#SVGID_126_)" fill="#E5E3E0" width="542" height="45"/>
			<rect x="757" y="358.55" clip-path="url(#SVGID_126_)" fill="#F0EBE3" width="290.11" height="45"/>
			<rect x="215" y="403.55" clip-path="url(#SVGID_126_)" fill="#E5E3E0" width="542" height="45.25"/>
		</g>
		<g>
			<defs>
				<rect id="SVGID_737_" x="215.75" y="314.05" width="540.75" height="44"/>
			</defs>
			<clipPath id="SVGID_128_">
				<use xlink:href="#SVGID_737_"  overflow="visible"/>
			</clipPath>
			<g clip-path="url(#SVGID_128_)">
				<text transform="matrix(1 0 0 1 223.749 342.7301)"><tspan x="0" y="0" font-family="'AvenirNext-DemiBold'" font-size="20px">W</tspan><tspan x="19.36" y="0" font-family="'AvenirNext-DemiBold'" font-size="20px">orking hour</tspan></text>
			</g>
		</g>
		<g>
			<defs>
				<rect id="SVGID_739_" x="757.5" y="314.05" width="288.86" height="44"/>
			</defs>
			<clipPath id="SVGID_130_">
				<use xlink:href="#SVGID_739_"  overflow="visible"/>
			</clipPath>
			<g clip-path="url(#SVGID_130_)">
				<text transform="matrix(1 0 0 1 765.499 342.7301)"><tspan x="0" y="0" font-family="'AvenirNext-Regular'" font-size="20px">8</tspan><tspan x="11.6" y="0" font-family="'AvenirNext-Regular'" font-size="20px"> </tspan><tspan x="16.38" y="0" font-family="'AvenirNext-Regular'" font-size="20px">J</tspan><tspan x="26.12" y="0" font-family="'AvenirNext-Regular'" font-size="20px">am / Hari</tspan></text>
			</g>
		</g>
		<g>
			<defs>
				<rect id="SVGID_741_" x="215.75" y="359.05" width="540.75" height="44"/>
			</defs>
			<clipPath id="SVGID_132_">
				<use xlink:href="#SVGID_741_"  overflow="visible"/>
			</clipPath>
			<g clip-path="url(#SVGID_132_)">
				<text transform="matrix(1 0 0 1 223.749 387.7301)" font-family="'AvenirNext-DemiBold'" font-size="20px">Budget</text>
			</g>
		</g>
		<g>
			<defs>
				<rect id="SVGID_743_" x="757.5" y="359.05" width="288.86" height="44"/>
			</defs>
			<clipPath id="SVGID_134_">
				<use xlink:href="#SVGID_743_"  overflow="visible"/>
			</clipPath>
			<g clip-path="url(#SVGID_134_)">
				<text transform="matrix(1 0 0 1 765.499 387.7301)"><tspan x="0" y="0" font-family="'AvenirNext-Regular'" font-size="20px">IDR</tspan><tspan x="32.32" y="0" font-family="'AvenirNext-Regular'" font-size="20px" letter-spacing="120"> </tspan><tspan x="158.06" y="0" font-family="'AvenirNext-Regular'" font-size="20px">260,000,000</tspan></text>
			</g>
		</g>
		<g>
			<defs>
				<rect id="SVGID_745_" x="215.75" y="404.05" width="540.75" height="44"/>
			</defs>
			<clipPath id="SVGID_136_">
				<use xlink:href="#SVGID_745_"  overflow="visible"/>
			</clipPath>
			<g clip-path="url(#SVGID_136_)">
				<text transform="matrix(1 0 0 1 223.749 432.7301)"><tspan x="0" y="0" font-family="'AvenirNext-DemiBold'" font-size="20px">Alloc</tspan><tspan x="46.8" y="0" font-family="'AvenirNext-DemiBold'" font-size="20px">a</tspan><tspan x="57.62" y="0" font-family="'AvenirNext-DemiBold'" font-size="20px">ted to </tspan></text>
			</g>
			<g clip-path="url(#SVGID_136_)">
				<text transform="matrix(1 0 0 1 341.3096 432.7301)"><tspan x="0" y="0" font-family="'AvenirNext-DemiBoldItalic'" font-size="20px">PET</tspan><tspan x="34.52" y="0" font-family="'AvenirNext-DemiBoldItalic'" font-size="20px">T</tspan><tspan x="44.96" y="0" font-family="'AvenirNext-DemiBoldItalic'" font-size="20px">Y</tspan><tspan x="56" y="0" font-family="'AvenirNext-DemiBoldItalic'" font-size="20px"> </tspan><tspan x="61" y="0" font-family="'AvenirNext-DemiBoldItalic'" font-size="20px">C</tspan><tspan x="74.4" y="0" font-family="'AvenirNext-DemiBoldItalic'" font-size="20px">ASH</tspan></text>
			</g>
		</g>
		<g>
			<defs>
				<rect id="SVGID_747_" x="757.5" y="404.05" width="288.86" height="44"/>
			</defs>
			<clipPath id="SVGID_138_">
				<use xlink:href="#SVGID_747_"  overflow="visible"/>
			</clipPath>
			<g clip-path="url(#SVGID_138_)">
				<text transform="matrix(1 0 0 1 765.499 432.7301)"><tspan x="0" y="0" font-family="'AvenirNext-Regular'" font-size="20px">IDR</tspan><tspan x="32.32" y="0" font-family="'AvenirNext-Regular'" font-size="20px" letter-spacing="132"> </tspan><tspan x="169.66" y="0" font-family="'AvenirNext-Regular'" font-size="20px">26,000,000</tspan></text>
			</g>
		</g>
		<g>
			<defs>
				<rect id="SVGID_749_" x="211" y="309.3" width="840" height="144"/>
			</defs>
			<clipPath id="SVGID_140_">
				<use xlink:href="#SVGID_749_"  overflow="visible"/>
			</clipPath>
			
				<line clip-path="url(#SVGID_140_)" fill="none" stroke="#CFCCC9" stroke-width="0.5" x1="214" y1="358.55" x2="757" y2="358.55"/>
			
				<line clip-path="url(#SVGID_140_)" fill="none" stroke="#CFCCC9" stroke-width="0.5" x1="757" y1="358.55" x2="1048.11" y2="358.55"/>
			
				<line clip-path="url(#SVGID_140_)" fill="none" stroke="#CFCCC9" stroke-width="0.5" x1="214" y1="403.55" x2="757" y2="403.55"/>
			
				<line clip-path="url(#SVGID_140_)" fill="none" stroke="#CFCCC9" stroke-width="0.5" x1="757" y1="403.55" x2="1048.11" y2="403.55"/>
			<line clip-path="url(#SVGID_140_)" fill="none" stroke="#CFCCC9" stroke-width="0.5" x1="757" y1="312.3" x2="757" y2="449.8"/>
			<line clip-path="url(#SVGID_140_)" fill="none" stroke="#B6B2AD" stroke-width="0.75" x1="215" y1="312.3" x2="215" y2="449.8"/>
			
				<line clip-path="url(#SVGID_140_)" fill="none" stroke="#B6B2AD" stroke-width="0.75" x1="1047.11" y1="312.3" x2="1047.11" y2="449.8"/>
			<line clip-path="url(#SVGID_140_)" fill="none" stroke="#B6B2AD" stroke-width="0.75" x1="214" y1="313.3" x2="757" y2="313.3"/>
			
				<line clip-path="url(#SVGID_140_)" fill="none" stroke="#B6B2AD" stroke-width="0.75" x1="757" y1="313.3" x2="1048.11" y2="313.3"/>
			<line clip-path="url(#SVGID_140_)" fill="none" stroke="#B6B2AD" stroke-width="0.75" x1="214" y1="448.8" x2="757" y2="448.8"/>
			
				<line clip-path="url(#SVGID_140_)" fill="none" stroke="#B6B2AD" stroke-width="0.75" x1="757" y1="448.8" x2="1048.11" y2="448.8"/>
		</g>
		<g>
			<defs>
				<rect id="SVGID_751_" x="213.44" y="222.65" width="207.21" height="84.72"/>
			</defs>
			<clipPath id="SVGID_142_">
				<use xlink:href="#SVGID_751_"  overflow="visible"/>
			</clipPath>
			<g clip-path="url(#SVGID_142_)">
				<text transform="matrix(1 0 0 1 222.999 259.9625)" font-family="'AvenirNext-Bold'" font-size="28px">ASSETING 3D</text>
			</g>
		</g>
	</g>
</g>
</svg>
