<?xml version="1.0" encoding="utf-8"?>
<!-- Generator: Adobe Illustrator 24.3.0, SVG Export Plug-In . SVG Version: 6.00 Build 0)  -->
<svg version="1.1"
	 id="svg2" xmlns:cc="http://creativecommons.org/ns#" xmlns:dc="http://purl.org/dc/elements/1.1/" xmlns:rdf="http://www.w3.org/1999/02/22-rdf-syntax-ns#" xmlns:svg="http://www.w3.org/2000/svg"
	 xmlns="http://www.w3.org/2000/svg" xmlns:xlink="http://www.w3.org/1999/xlink" x="0px" y="0px" viewBox="0 0 836.5 244.8"
	 style="enable-background:new 0 0 836.5 244.8;" xml:space="preserve">
<style type="text/css">
	.st0{fill:#FFFFFF;}
	.st1{fill-rule:evenodd;clip-rule:evenodd;fill:#D34D46;}
</style>
<g>
	<path class="st0" d="M349.9,101.9h-14.4V88.3h-50.8V72.1l47.6-34.7h17.6v39.5h10.1v11.4h-10.1V101.9z M335.5,76.9V49.9L299,76.9
		H335.5z"/>
	<path class="st0" d="M409.9,102.7c-34.5,0-40.4-4.3-40.4-32.4v-1.8c0-28.1,5.4-32.4,40.4-32.4h2.9c31.6,0,36.5,3.8,36.5,20.7v3
		h-14.6v-1.7c0-8.2-1.8-10-22.3-10h-2c-23.5,0-25.8,1.7-25.8,20.7V70c0,19,2.3,20.5,25.8,20.5h2c20.8,0,23.1-1.6,23.1-10.7v-1.5
		h14.5v3.5c0,16.2-5.6,21-37.2,21H409.9z"/>
	<path class="st0" d="M535.4,101.9h-15.1v-6.7c0-12.4-2-14.3-19.3-14.3h-25.2v21h-15.1V37h48.9c20.8,0,25.9,4,25.9,19.3v2.4
		c0,9.7-3.5,14.2-10.4,16.1c8.1,1.6,10.2,4.7,10.2,16V101.9z M505.2,69.6c12.6,0,15.1-2.2,15.1-9.6v-1.4c0-8.8-2.1-10-15.9-10h-28.6
		v21H505.2z"/>
	<path class="st0" d="M586.6,102.7c-35.8,0-41.1-4.1-41.1-32.4v-1.8c0-28.2,5.3-32.4,41.1-32.4h2.8c35.7,0,41,4.1,41,32.4v1.8
		c0,28.2-5.3,32.4-41,32.4H586.6z M588.8,90.6c24.3,0,26.4-1.8,26.4-20.7v-1c0-19-2.1-20.8-26.4-20.8h-1.8
		c-24.1,0-26.3,1.8-26.3,20.8v1c0,18.9,2.2,20.7,26.3,20.7H588.8z"/>
	<path class="st0" d="M731.5,101.9h-18l-18.7-47l-18.5,47h-18.1L634.6,37h16.2l17.7,50.1L687.9,37h14.9l19.7,50.1l17-50.1h15.7
		L731.5,101.9z"/>
	<path class="st0" d="M836.5,82.9c0,16-5.3,19.8-35.6,19.8h-3c-33.7,0-37.4-3-37.4-19.8v-2.5h15v2.1c0,7.7,2.8,8.6,21.5,8.6h2.4
		c19.8,0,22.2-1.6,22.2-7.7v-0.7c0-6.7-1.7-8.1-22.9-8.1c-34,0-37.2-3.2-37.2-18.5v-0.8c0-15.5,5.3-19.1,33.4-19.1h3.2
		c32.6,0,36.4,4,36.4,19.3v2.3h-15v-1.6c0-7-2.3-8.6-19.3-8.6h-2.4c-19.2,0-21.4,1.2-21.4,7.7V56c0,5.9,1.3,7,23.7,7
		c32.2,0,36.4,2.9,36.4,19.2V82.9z"/>
</g>
<g>
	<path class="st0" d="M329.8,140.5v61.6h-10v-5.7c-1.7,2.1-3.8,3.7-6.3,4.7c-2.5,1.1-5.3,1.6-8.3,1.6c-4.3,0-8.1-0.9-11.5-2.8
		c-3.4-1.9-6.1-4.6-8-8c-1.9-3.5-2.9-7.4-2.9-11.9c0-4.5,1-8.4,2.9-11.9c1.9-3.4,4.6-6.1,8-8c3.4-1.9,7.2-2.8,11.5-2.8
		c2.9,0,5.6,0.5,8.1,1.5c2.4,1,4.5,2.5,6.2,4.5v-22.7H329.8z M313.1,192.1c2-1.1,3.6-2.8,4.7-4.9c1.2-2.1,1.7-4.5,1.7-7.3
		c0-2.8-0.6-5.2-1.7-7.3c-1.2-2.1-2.7-3.7-4.7-4.9c-2-1.1-4.2-1.7-6.7-1.7c-2.5,0-4.7,0.6-6.7,1.7c-2,1.1-3.6,2.8-4.7,4.9
		c-1.2,2.1-1.7,4.5-1.7,7.3c0,2.8,0.6,5.2,1.7,7.3c1.2,2.1,2.7,3.7,4.7,4.9c2,1.1,4.2,1.7,6.7,1.7
		C308.9,193.8,311.1,193.2,313.1,192.1z"/>
	<path class="st0" d="M392,148.7c-1.3-1.2-1.9-2.7-1.9-4.4c0-1.8,0.6-3.2,1.9-4.4c1.3-1.2,2.8-1.8,4.7-1.8c1.9,0,3.5,0.6,4.7,1.7
		c1.3,1.1,1.9,2.6,1.9,4.3c0,1.8-0.6,3.4-1.9,4.6s-2.8,1.9-4.8,1.9C394.9,150.5,393.3,149.9,392,148.7z M391.5,157.8h10.4v44.3
		h-10.4V157.8z"/>
	<path class="st0" d="M507.9,157.8v37.6c0,15.6-8,23.4-23.9,23.4c-4.3,0-8.3-0.5-12.1-1.6c-3.8-1.1-7-2.6-9.5-4.7l4.6-7.8
		c1.9,1.6,4.4,2.9,7.3,3.9c3,1,6,1.5,9,1.5c4.9,0,8.4-1.1,10.7-3.3c2.3-2.2,3.4-5.6,3.4-10.1v-2.3c-1.8,1.9-3.9,3.4-6.5,4.4
		c-2.5,1-5.3,1.5-8.4,1.5c-4.2,0-8-0.9-11.4-2.7c-3.4-1.8-6.1-4.3-8.1-7.6c-2-3.3-2.9-7-2.9-11.2c0-4.2,1-7.9,2.9-11.2
		c2-3.2,4.6-5.7,8.1-7.5c3.4-1.8,7.2-2.7,11.4-2.7c3.2,0,6.1,0.5,8.8,1.6c2.6,1.1,4.8,2.7,6.6,4.8v-5.9H507.9z M493.9,187.8
		c2.5-2.4,3.8-5.4,3.8-9.2c0-3.7-1.3-6.7-3.8-9c-2.5-2.3-5.7-3.5-9.7-3.5c-4,0-7.2,1.2-9.8,3.5c-2.5,2.3-3.8,5.3-3.8,9
		c0,3.8,1.3,6.8,3.8,9.2c2.5,2.4,5.8,3.5,9.8,3.5C488.2,191.3,491.4,190.1,493.9,187.8z"/>
	<path class="st0" d="M570.2,148.7c-1.3-1.2-1.9-2.7-1.9-4.4c0-1.8,0.6-3.2,1.9-4.4c1.3-1.2,2.8-1.8,4.7-1.8c1.9,0,3.5,0.6,4.7,1.7
		c1.3,1.1,1.9,2.6,1.9,4.3c0,1.8-0.6,3.4-1.9,4.6s-2.8,1.9-4.8,1.9C573.1,150.5,571.5,149.9,570.2,148.7z M569.7,157.8h10.4v44.3
		h-10.4V157.8z"/>
	<path class="st0" d="M668.9,199.7c-1.2,1-2.7,1.7-4.4,2.2s-3.6,0.7-5.5,0.7c-4.9,0-8.6-1.3-11.3-3.8c-2.7-2.5-4-6.3-4-11.1v-21.3
		h-7.3v-8.3h7.3V148H654v10.1h11.9v8.3H654v21.1c0,2.2,0.5,3.8,1.6,4.9c1.1,1.1,2.6,1.7,4.6,1.7c2.3,0,4.3-0.6,5.8-1.8L668.9,199.7z
		"/>
	<path class="st0" d="M757.9,162c3.5,3.1,5.2,7.8,5.2,14.2v26h-9.8v-5.4c-1.3,1.9-3.1,3.4-5.4,4.4c-2.4,1-5.2,1.5-8.5,1.5
		s-6.2-0.6-8.7-1.7c-2.5-1.1-4.4-2.7-5.8-4.7c-1.4-2-2-4.3-2-6.8c0-4,1.5-7.2,4.4-9.6c3-2.4,7.6-3.6,14-3.6h11.5v-0.7
		c0-3.1-0.9-5.5-2.8-7.1c-1.9-1.7-4.6-2.5-8.3-2.5c-2.5,0-4.9,0.4-7.3,1.2c-2.4,0.8-4.4,1.9-6.1,3.2l-4.1-7.6
		c2.3-1.8,5.1-3.1,8.4-4.1c3.3-0.9,6.7-1.4,10.4-1.4C749.4,157.3,754.4,158.9,757.9,162z M748.4,193.4c2-1.2,3.4-2.9,4.3-5.1v-5.1
		H742c-6,0-9,2-9,5.9c0,1.9,0.7,3.4,2.2,4.5c1.5,1.1,3.6,1.7,6.2,1.7C744.1,195.1,746.4,194.5,748.4,193.4z"/>
	<path class="st0" d="M824.6,140.5H835v61.6h-10.4V140.5z"/>
</g>
<g>
	<path class="st1" d="M106.5,224.3c0.7-0.9,0.9-2.5,1.3-3.8c0.7-2.1,1.8-6,3.2-7.5c1.4-1.5,1.3-2.1,2.2-3.5c2.1,1.8,1.6,2.7,1.1,5
		c-0.3,1.6-0.8,3.7-1.2,5.2c-0.4,1.4-1,4.3-1.7,5.2C109.5,226.9,107.6,225.6,106.5,224.3L106.5,224.3z M200.8,146.1l-0.1,0.2
		c-4.2-1.2-9.9-5.3-12.4-3.1c-0.6,0.5,0,0.2-0.8,0.7c-0.7,0.4-2.3,0.6-2.7,0.9c-0.5,0.4-0.4,0.5-0.7,1.1c0,0-0.1-0.1-0.1,0
		c-0.5,0.6-0.1,0-0.2,0h-0.1l-0.3,0.1c-0.4,0.8-1.9,3.4-3,4.2c-1,1.1-2.2,8.4-5.7,12.1c-10.1,10.8-3.4,18.9-31.4,31.5
		c0.1-0.1-5.7,2.4-5.6,2.4c-0.7,1.1-0.5,0.9-2.6,2.8c-2.2,4-5.4,2.4-7.3,5.1c-4.7,4.7-6.9,1.5-8.6,5c-1.6,3.5-0.8-0.1-2.6,6.5
		c-0.6,2.3-2.2,6.9-2.2,9.2c0.1,3.1-0.8,6.4-2.5,9c-1.5,2.4-4.2,4.9-6.5,7.1c-2.5,2.5-0.5,1.4-4.3,2.5c-1.9,0.6-3.4,2.1-5.1,0.7
		l3.1-2c-1.2,0-2.3,0.1-3.1-0.8c3.8-0.4,1.5,0.5,4.3-1.5c0.9-0.6,1.1-0.4,2.1-1.2c0.5-0.4,1.2-1.2,1.6-1.7c1.4-1.6,4.1-5.6,4.3-7.1
		c-1-0.5-1.7-1.4-2.7-2.3c-0.9,3.6,1,3.7-1.6,7.9c-1.1,1.8-4.7,5-7.3,4.3c0.2-0.2-0.4,0.1,0.6-0.4c0.4-0.2,0.7-0.3,1.1-0.5
		c1.6-0.9,1-1.7,1.8-2.7c0.5-0.7,1.1-0.9,1.3-1.6c-1.4,1.2-1.4,2.1-3.1,3.2c-2,1.3-3.3,1.2-4.6-0.2c1.5-0.2,2,0,3.3-0.7l0.3-2.5
		l1.9-1c0.6-2.8-0.2-3.3,2.6-5.1c-0.7-0.9-1.9-2.2-2.7-3.1c-0.8-0.9-2.6-1.9-2.9-2.8c-0.4-1.2,0.4-2.4-1.4-3.2
		c-1.4-0.6-2.7,0.8-4.1,0.8c0.9-2.3,3.9-2.9,6-2.1c1.8,0.7,3,3.3,4.8,4.9c0.1-0.7-1-2-1.4-2.8c-0.6-1.2-1.3-1-2.2-2.2
		c3-0.2,4.2,2.8,6,4.4c1.3-1.7,1.9-5.5,2.6-7.6c0.4-1.2,0.8-1.6,0.4-3.1c-0.6-2.1-1.6-4.7-0.8-6.4c0.9-1.7-0.8-2-0.3-3.5
		c-0.4,0-0.8,0.1-1.2,0.3c10.2-9.9,12.4-20.6,19.2-28c3.3-3.6,4.5-10.5,5.4-11.5c1-0.7,2.4-3.2,2.8-3.9l0.3-0.1h0.1
		c0.1,0-0.2,0.6,0.2,0h0.1c0.2-0.5,0.2-0.7,0.6-1s1.9-0.5,2.5-0.9c0.8-0.5,0.2-0.2,0.8-0.7c2.3-2,7.8,1.8,11.7,3l0.1-0.2
		c-1.9-2.2-3.5-3.8-6.1-5.6c-2.1-1.5-5.4-3.2-6.3-3.7c1.5-0.8,3.7-0.8,5.8-0.6c2.7,0.4,6,1.1,9.2,2c0.2,0.1,0.9,0.8,1.1,1
		c1.1-3.5-11.6-9.1-14.4-10c-1.1-0.3-1.3-1-1.9-2c-1-1.4-1-0.8-1.9-1.7l-4.4-1.2c-1.3,0-1.9-1-5.6-0.9c-3.3,0-6.1,1.2-8.4,3.2
		l-10,5.2c-1.8,2.6-2,2.4-3.5,2.6c-1.4-0.6-24.1-18.5-23.7-19.1c-4-7.7-31.9-14.4-39.9-14.2l-4-1.1c1.5,0.1,3.1,0.2,4.8,0.3
		c-2.7-0.3-5.2-0.7-7.5-1.1c-10.5-3-13.9-4-18.1-5c-4.5-1.9-8.8-4.3-13.6-7.3c12.8,1.1,23.4,0.7,36.2,1.7
		c-12.7-3.4-25.7-5.1-30.9-15.7c9,2.6,22,2.6,31.1,5.2c-8.2-5-22.7-8.5-25.1-18.9c6.5,3.9,16.4,5.3,23,9.2c-4-4-12.3-13.1-13.7-17.5
		c14.7,9.6,14.8,10,34.1,14.6C37,67.5,32.3,64.5,33.4,55.9c13.9,6.3,25.2,11.2,39.1,17.5C66,66.7,52.9,63,46.7,49.3
		C58.2,53.9,67,63,79.2,65.9c22.3,5.4,17,2.1,37.9,19.3c5,5.9,19.3,24.2,23.6,32.4c-0.4,0.7,9.5,15.4,10.9,16c1.6-0.2,1.8,0,3.7-2.7
		l10.6-5.4c2.5-2.1,5.5-3.3,8.9-3.4c3.9-0.1,4.6,1,6,1l4.7,1.3c0.9,1,1,0.3,2,1.7c0.7,1,0.8,1.7,2,2.1c3,0.9,16.4,6.8,15.2,10.5
		c-0.1-0.3-0.9-1-1.1-1.1c-3.4-1-6.8-1.7-9.7-2.1c-2.2-0.2-4.5-0.2-6.1,0.7c1,0.5,4.4,2.3,6.6,3.9
		C197.1,142.1,198.8,143.8,200.8,146.1L200.8,146.1z"/>
	<path class="st1" d="M244.9,128.6c-0.8-0.3-1.4-1.2-2.1-1.9c-1.2-1-3.2-3-4.6-3.4c-1.4-0.4-1.5-0.8-2.5-1.3c-0.6,1.8,0,2.2,1.1,3.5
		c0.8,0.8,1.8,2,2.6,2.7c0.8,0.7,2.1,2.3,2.9,2.5C244,131.2,244.7,129.8,244.9,128.6L244.9,128.6z M159.8,114.3l0.1,0.1
		c2.1-2.2,4.2-6.7,6.4-6.3c0.6,0.1,0.1,0.1,0.7,0.2c0.5,0,1.6-0.4,2-0.4c0.4,0.1,0.4,0.2,0.8,0.4c0,0,0-0.1,0.1-0.1
		c0.5,0.2,0-0.1,0.1-0.1h0.1l0.2-0.1c0.6,0.3,2.4,1.4,3.3,1.5c1,0.3,4.3,4.3,7.8,5.4c10,3,8.7,10.3,30.3,8c-0.1,0,4.4-0.5,4.3-0.6
		c0.8,0.4,0.7,0.4,2.6,0.8c2.8,1.7,4.2-0.4,6.3,0.5c4.5,1.2,4.7-1.6,7,0c2.2,1.6,0.4-0.3,3.9,3.1c1.2,1.2,3.8,3.4,4.6,4.9
		c1,1.9,2.8,3.6,4.7,4.6c1.8,0.9,4.3,1.5,6.5,2c2.4,0.6,0.8,0.7,3.5,0c1.4-0.3,2.8,0.1,3.3-1.3l-2.6-0.1c0.7-0.4,1.4-0.7,1.6-1.6
		c-2.4,1.1-0.7,0.9-3.1,0.6c-0.7-0.1-0.8,0.2-1.7,0c-0.4-0.1-1.2-0.3-1.6-0.5c-1.4-0.5-4.5-2-5.2-2.8c0.4-0.7,0.5-1.5,0.8-2.3
		c1.8,1.9,0.7,2.6,3.8,4.3c1.3,0.7,4.6,1.4,6,0c-0.2-0.1,0.3-0.1-0.5-0.1c-0.3,0-0.5,0.1-0.9,0.1c-1.3,0-1.2-0.7-2-1
		c-0.6-0.2-1-0.2-1.3-0.5c1.3,0.3,1.6,0.8,3,0.8c1.7,0,2.5-0.5,2.7-1.7c-1,0.4-1.2,0.7-2.3,0.8l-1.1-1.4h-1.6
		c-1.4-1.5-1.1-2.1-3.4-2.2c0.1-0.8,0.4-2,0.6-2.8c0.2-0.8,0.9-2,0.8-2.8c-0.2-0.9-1.1-1.3-0.3-2.5c0.6-0.9,2-0.5,2.8-1
		c-1.4-1.1-3.4-0.4-4.4,0.9c-0.8,1.1-0.7,3.1-1.2,4.7c-0.3-0.4-0.1-1.6-0.2-2.2c-0.1-0.9,0.4-1.1,0.5-2.1c-1.9,0.9-1.6,3.2-2.1,4.8
		c-1.4-0.6-3.1-2.7-4.3-3.7c-0.7-0.6-1-0.7-1.3-1.7c-0.4-1.5-0.7-3.4-1.8-4.1c-1.2-0.7-0.2-1.5-1.1-2.2c0.3-0.1,0.5-0.2,0.8-0.2
		c-9.7-2.4-14.9-8.2-21.6-10.2c-3.3-1-6.5-4.8-7.4-5.1c-0.9-0.1-2.6-1.1-3.1-1.4h-0.2h-0.1c-0.1,0,0.3,0.3-0.1,0.1c0,0,0,0-0.1,0.1
		c-0.3-0.2-0.4-0.3-0.7-0.4c-0.4,0-1.3,0.4-1.9,0.4s-0.2-0.1-0.7-0.2c-2.1-0.4-4.1,3.8-6.1,6l-0.1-0.1c0.4-2,0.8-3.5,1.7-5.6
		c0.7-1.6,2.1-3.8,2.5-4.5c-1.2,0.1-2.6,0.8-3.7,1.7c-1.5,1.2-3.3,2.8-4.9,4.5c-0.1,0.1-0.3,0.8-0.3,1c-1.9-1.7,3.8-9.7,5.3-11.2
		c0.6-0.6,0.4-1.1,0.5-1.9c0.1-1.2,0.3-0.8,0.5-1.7l2.3-2.3c0.8-0.5,0.8-1.3,3.1-2.5c2-1.1,4.1-1.4,6.3-1l7.9-0.4c2,0.9,2,0.8,3,0.3
		c0.6-0.8,8-19.7,7.6-20c-0.3-6.1,14.3-20,19.2-22.8l2-2.1c-0.8,0.6-1.8,1.2-2.8,1.9c1.5-1.2,2.9-2.3,4.2-3.3
		c5.3-5.5,7.1-7.3,9.2-9.4c2.1-2.8,3.8-5.7,5.7-9.3c-7.4,5.2-14,8.7-21.4,13.8c6.5-6.6,13.8-12.2,13.2-20.5
		c-4.6,4.8-12.5,9.3-17,14.2c3.2-6,10.8-13.3,8.5-20.4c-2.6,4.7-8.1,9-10.7,13.7c1-3.9,2.9-12.3,2.1-15.5
		c-5.6,11-5.5,11.4-15.5,20.9c7.1-12.7,8.8-16.2,5.1-21c-6.2,8.7-11.3,15.7-17.5,24.6c1.5-6.4,8.2-13.2,7.1-23.9
		c-5.3,6.9-7.5,15.5-13.8,21.6c-11.7,11.2-9.6,7.3-16.2,25.3c-1,5.4-3.2,21.5-2.9,28.1c0.5,0.3-0.3,12.7-1,13.6
		c-1,0.5-1.1,0.6-3.2-0.4l-8.4,0.4c-2.3-0.4-4.5-0.1-6.6,1.1c-2.4,1.4-2.5,2.2-3.3,2.7l-2.4,2.5c-0.2,0.9-0.5,0.5-0.6,1.8
		c-0.1,0.8,0.1,1.4-0.5,2c-1.5,1.6-7.6,10-5.5,11.8c0-0.2,0.2-0.9,0.3-1.1c1.7-1.8,3.6-3.5,5.1-4.7c1.2-0.9,2.6-1.7,3.9-1.8
		c-0.4,0.7-1.9,3-2.7,4.7C160.7,110.6,160.3,112.2,159.8,114.3L159.8,114.3z"/>
</g>
</svg>
