<?xml version="1.0" encoding="utf-8"?>
<!-- Generator: Adobe Illustrator 24.3.0, SVG Export Plug-In . SVG Version: 6.00 Build 0)  -->
<svg version="1.1" id="Layer_1" xmlns="http://www.w3.org/2000/svg" xmlns:xlink="http://www.w3.org/1999/xlink" x="0px" y="0px"
	 viewBox="0 0 95.6 31.3" style="enable-background:new 0 0 95.6 31.3;" xml:space="preserve">
<style type="text/css">
	.st0{fill:#ACAEB0;}
	.st1{fill:#FFFFFF;}
	.st2{clip-path:url(#SVGID_2_);fill:url(#SVGID_3_);}
	.st3{clip-path:url(#SVGID_2_);fill:url(#SVGID_4_);}
	.st4{clip-path:url(#SVGID_2_);fill:url(#SVGID_5_);}
	.st5{clip-path:url(#SVGID_2_);fill:url(#SVGID_6_);}
	.st6{fill:#F9F9F9;}
	.st7{fill:#F9FAFA;}
	.st8{clip-path:url(#SVGID_8_);fill:url(#SVGID_9_);}
	.st9{clip-path:url(#SVGID_8_);fill:url(#SVGID_10_);}
	.st10{clip-path:url(#SVGID_8_);fill:url(#SVGID_11_);}
	.st11{clip-path:url(#SVGID_8_);fill:url(#SVGID_12_);}
	.st12{clip-path:url(#SVGID_14_);fill:url(#SVGID_15_);}
	.st13{clip-path:url(#SVGID_14_);fill:url(#SVGID_16_);}
	.st14{clip-path:url(#SVGID_14_);fill:url(#SVGID_17_);}
	.st15{clip-path:url(#SVGID_14_);fill:url(#SVGID_18_);}
</style>
<path d="M95.6,27c0,2.3-1.9,4.2-4.2,4.2H4.2C1.9,31.3,0,29.4,0,27V4.2C0,1.9,1.9,0,4.2,0h87.1c2.3,0,4.2,1.9,4.2,4.2V27z"/>
<g id="PLAY_2_">
	<defs>
		<path id="SVGID_13_" d="M20.7,13.8l-4.3-2.5c0,0-7.9-4.5-8.3-4.8C7.6,6.2,7.2,6.4,7.2,6.9c0,0.9,0,9.7,0,9.7s0,9.5,0,9.9
			c0,0.4,0.3,0.6,0.7,0.4c0.4-0.2,8.5-4.9,8.5-4.9l4.3-2.5c0,0,3.7-2.1,4.1-2.4c0.5-0.3,0.4-0.7,0-0.9
			C24.5,15.9,20.7,13.8,20.7,13.8z"/>
	</defs>
	<clipPath id="SVGID_2_">
		<use xlink:href="#SVGID_13_"  style="overflow:visible;"/>
	</clipPath>
	<linearGradient id="SVGID_3_" gradientUnits="userSpaceOnUse" x1="12.5056" y1="6.0184" x2="12.5056" y2="27.188">
		<stop  offset="0" style="stop-color:#3083B4"/>
		<stop  offset="0.2863" style="stop-color:#5399B9"/>
		<stop  offset="0.767" style="stop-color:#7FBFBF"/>
		<stop  offset="1" style="stop-color:#8FD2C1"/>
	</linearGradient>
	<polygon class="st2" points="7.2,6 7.2,16.6 7.2,27.2 17.8,16.6 	"/>
	<linearGradient id="SVGID_4_" gradientUnits="userSpaceOnUse" x1="7.1681" y1="11.2724" x2="20.7104" y2="11.2724">
		<stop  offset="0" style="stop-color:#5BC4B1"/>
		<stop  offset="1" style="stop-color:#E0EA9F"/>
	</linearGradient>
	<polygon class="st3" points="20.7,13.8 16.4,11.3 7.2,5.9 7.2,6 17.8,16.6 	"/>
	<linearGradient id="SVGID_5_" gradientUnits="userSpaceOnUse" x1="13.9392" y1="16.6034" x2="13.9392" y2="27.265">
		<stop  offset="0" style="stop-color:#ED4B48"/>
		<stop  offset="0.1668" style="stop-color:#DB4E5B"/>
		<stop  offset="0.5748" style="stop-color:#B55281"/>
		<stop  offset="0.8619" style="stop-color:#9B5398"/>
		<stop  offset="1" style="stop-color:#9054A2"/>
	</linearGradient>
	<polygon class="st4" points="7.2,27.2 7.2,27.3 16.4,21.9 20.7,19.4 17.8,16.6 	"/>
	<linearGradient id="SVGID_6_" gradientUnits="userSpaceOnUse" x1="21.7389" y1="13.7602" x2="21.7389" y2="19.4461">
		<stop  offset="0" style="stop-color:#F58E80"/>
		<stop  offset="0.1194" style="stop-color:#F69680"/>
		<stop  offset="0.7128" style="stop-color:#FCBC7E"/>
		<stop  offset="1" style="stop-color:#FECA7C"/>
	</linearGradient>
	<polygon class="st5" points="20.7,13.8 17.8,16.6 20.7,19.4 25.6,16.6 	"/>
</g>
<g>
	<path class="st6" d="M74.4,18.7c-0.4,0-0.8-0.1-1.1-0.2c-0.3-0.1-0.6-0.4-0.8-0.7h-0.1c0,0.4,0.1,0.7,0.1,1v2.5h-0.9v-8.9h0.8
		l0.1,0.8h0c0.2-0.3,0.5-0.6,0.8-0.7c0.3-0.1,0.7-0.2,1.1-0.2c0.8,0,1.4,0.3,1.9,0.8c0.4,0.6,0.7,1.3,0.7,2.3c0,1-0.2,1.8-0.7,2.4
		C75.8,18.5,75.2,18.7,74.4,18.7z M74.2,13.2c-0.6,0-1.1,0.2-1.4,0.5c-0.3,0.3-0.4,0.9-0.4,1.7v0.2c0,0.9,0.1,1.5,0.4,1.9
		c0.3,0.4,0.8,0.6,1.4,0.6c0.5,0,0.9-0.2,1.3-0.6c0.3-0.4,0.5-1,0.5-1.8c0-0.8-0.2-1.4-0.5-1.8C75.2,13.4,74.8,13.2,74.2,13.2z"/>
	<path class="st6" d="M79.1,18.6h-0.9V9.9h0.9V18.6z"/>
	<path class="st6" d="M84.4,18.6l-0.2-0.9h0c-0.3,0.4-0.6,0.6-0.9,0.8c-0.3,0.1-0.7,0.2-1.1,0.2c-0.6,0-1.1-0.2-1.4-0.5
		c-0.3-0.3-0.5-0.8-0.5-1.3c0-1.2,1-1.9,3-2l1,0v-0.4c0-0.5-0.1-0.8-0.3-1.1c-0.2-0.2-0.5-0.3-1-0.3c-0.5,0-1.1,0.2-1.7,0.5
		l-0.3-0.7c0.3-0.2,0.6-0.3,1-0.4c0.4-0.1,0.7-0.1,1.1-0.1c0.7,0,1.3,0.2,1.6,0.5c0.4,0.3,0.5,0.8,0.5,1.6v4.2H84.4z M82.3,18
		c0.6,0,1-0.2,1.4-0.5c0.3-0.3,0.5-0.8,0.5-1.3v-0.6l-0.9,0c-0.7,0-1.3,0.1-1.6,0.3c-0.3,0.2-0.5,0.5-0.5,1c0,0.3,0.1,0.6,0.3,0.8
		C81.7,17.9,82,18,82.3,18z"/>
	<path class="st6" d="M85.7,12.5h1L88,16c0.3,0.8,0.5,1.4,0.6,1.7h0c0-0.2,0.2-0.5,0.3-1c0.2-0.5,0.7-1.9,1.5-4.3h1l-2.6,7
		c-0.3,0.7-0.6,1.2-0.9,1.5c-0.3,0.3-0.8,0.4-1.3,0.4c-0.3,0-0.6,0-0.8-0.1v-0.7c0.2,0,0.4,0.1,0.7,0.1c0.6,0,1.1-0.4,1.4-1.1
		l0.3-0.9L85.7,12.5z"/>
</g>
<g>
	<path class="st6" d="M57.1,13c0.3,0.2,0.9,0.8,0.9,1.7c0,1-0.5,1.4-1.1,1.8c-0.2,0.2-0.4,0.3-0.4,0.6c0,0.3,0.2,0.4,0.3,0.6
		l0.5,0.4c0.6,0.5,1.1,0.9,1.1,1.8c0,1.2-1.2,2.4-3.4,2.4c-1.9,0-2.8-0.9-2.8-1.8c0-0.5,0.2-1.1,1-1.6c0.8-0.5,1.9-0.6,2.5-0.6
		c-0.2-0.2-0.4-0.5-0.4-0.9c0-0.2,0.1-0.3,0.1-0.5c-0.1,0-0.3,0-0.4,0c-1.4,0-2.1-1-2.1-2c0-0.6,0.3-1.2,0.8-1.7
		c0.7-0.6,1.6-0.7,2.3-0.7h2.7L57.9,13H57.1z M56.2,18.8c-0.1,0-0.2,0-0.3,0c-0.1,0-0.8,0-1.4,0.2c-0.3,0.1-1.1,0.4-1.1,1.3
		c0,0.9,0.9,1.6,2.3,1.6c1.2,0,1.9-0.6,1.9-1.4C57.6,19.8,57.2,19.5,56.2,18.8z M56.6,16.3c0.3-0.3,0.3-0.7,0.3-0.9
		c0-0.9-0.6-2.4-1.6-2.4c-0.3,0-0.7,0.2-0.9,0.4c-0.2,0.3-0.3,0.6-0.3,1c0,0.9,0.5,2.3,1.6,2.3C56,16.7,56.4,16.5,56.6,16.3z"/>
	<path class="st6" d="M49,18.6c-2,0-3.1-1.6-3.1-3c0-1.7,1.4-3.1,3.3-3.1c1.9,0,3.1,1.5,3.1,3C52.3,16.9,51.1,18.6,49,18.6z
		 M50.6,17.5c0.3-0.4,0.4-0.9,0.4-1.4c0-1.1-0.5-3.3-2.1-3.3c-0.4,0-0.8,0.2-1.2,0.4c-0.5,0.4-0.6,1-0.6,1.6c0,1.3,0.6,3.4,2.2,3.4
		C49.8,18.2,50.3,17.9,50.6,17.5z"/>
	<path class="st6" d="M42,18.6c-2,0-3.1-1.6-3.1-3c0-1.7,1.4-3.1,3.3-3.1c1.9,0,3.1,1.5,3.1,3C45.3,16.9,44.1,18.6,42,18.6z
		 M43.6,17.5c0.3-0.4,0.4-0.9,0.4-1.4c0-1.1-0.5-3.3-2.1-3.3c-0.4,0-0.8,0.2-1.2,0.4c-0.5,0.4-0.6,1-0.6,1.6c0,1.3,0.6,3.4,2.2,3.4
		C42.8,18.2,43.3,17.9,43.6,17.5z"/>
	<path class="st6" d="M37.9,18.4l-1.8,0.4c-0.8,0.1-1.4,0.2-2.1,0.2c-3.6,0-4.9-2.6-4.9-4.7c0-2.5,1.9-4.8,5.2-4.8
		c0.7,0,1.4,0.1,2,0.3c1,0.3,1.4,0.6,1.7,0.8l-1.1,1l-0.5,0.1l0.3-0.5c-0.4-0.4-1.2-1.2-2.8-1.2c-2,0-3.6,1.6-3.6,3.8
		c0,2.4,1.8,4.7,4.6,4.7c0.8,0,1.3-0.2,1.6-0.3v-2.1l-2,0.1l1-0.6h2.7l-0.3,0.3C38,16,38,16.1,37.9,16.2c0,0.1,0,0.5,0,0.6V18.4z"/>
	<path class="st6" d="M61.2,18c-0.4,0-0.5-0.1-0.5-0.6v-0.1V10c0,0,0-0.1,0-0.1c0.1-0.5,0.2-0.5,0.6-0.8h-1.8l-1,0.5h1v0l0,0v7.6
		v0.4c0,0.3-0.1,0.3-0.3,0.7h2.3l0.5-0.3C61.6,18,61.4,18,61.2,18z"/>
	<path class="st6" d="M66.4,18.1c-0.1,0.1-0.3,0.2-0.4,0.2c-0.4,0.2-0.9,0.2-1.2,0.2c-0.4,0-1.1,0-1.7-0.5c-0.9-0.6-1.3-1.7-1.3-2.7
		c0-2,1.6-3,2.9-3c0.5,0,0.9,0.1,1.3,0.4c0.6,0.4,0.8,1,0.9,1.3l-3,1.2l-1,0.1c0.3,1.6,1.4,2.6,2.6,2.6c0.7,0,1.1-0.2,1.6-0.4
		L66.4,18.1z M65.2,14.3c0.2-0.1,0.4-0.2,0.4-0.3c0-0.5-0.6-1.1-1.3-1.1c-0.5,0-1.5,0.4-1.5,1.8c0,0.2,0,0.4,0,0.7L65.2,14.3z"/>
	<g>
		<path class="st6" d="M67.7,12.5v0.8h-0.1v-0.8h-0.3v-0.1H68v0.1H67.7z"/>
		<path class="st6" d="M68.8,13.3v-0.9h0l-0.3,0.9h-0.1l-0.3-0.9h0v0.9h-0.1v-0.9h0.2l0.2,0.8h0l0.2-0.8h0.2L68.8,13.3L68.8,13.3z"
			/>
	</g>
</g>
</svg>
