<?xml version="1.0" encoding="utf-8"?>
<!-- Generator: Adobe Illustrator 24.3.0, SVG Export Plug-In . SVG Version: 6.00 Build 0)  -->
<svg version="1.1" id="Layer_1" xmlns="http://www.w3.org/2000/svg" xmlns:xlink="http://www.w3.org/1999/xlink" x="0px" y="0px"
	 viewBox="0 0 97.5 31.9" style="enable-background:new 0 0 97.5 31.9;" xml:space="preserve">
<style type="text/css">
	.st0{fill:#ACAEB0;}
	.st1{fill:#FFFFFF;}
	.st2{clip-path:url(#SVGID_2_);fill:url(#SVGID_3_);}
	.st3{clip-path:url(#SVGID_2_);fill:url(#SVGID_4_);}
	.st4{clip-path:url(#SVGID_2_);fill:url(#SVGID_5_);}
	.st5{clip-path:url(#SVGID_2_);fill:url(#SVGID_6_);}
	.st6{fill:#F9F9F9;}
	.st7{fill:#F9FAFA;}
	.st8{clip-path:url(#SVGID_8_);fill:url(#SVGID_9_);}
	.st9{clip-path:url(#SVGID_8_);fill:url(#SVGID_10_);}
	.st10{clip-path:url(#SVGID_8_);fill:url(#SVGID_11_);}
	.st11{clip-path:url(#SVGID_8_);fill:url(#SVGID_12_);}
	.st12{clip-path:url(#SVGID_14_);fill:url(#SVGID_15_);}
	.st13{clip-path:url(#SVGID_14_);fill:url(#SVGID_16_);}
	.st14{clip-path:url(#SVGID_14_);fill:url(#SVGID_17_);}
	.st15{clip-path:url(#SVGID_14_);fill:url(#SVGID_18_);}
</style>
<g>
	<path d="M97.5,27.6c0,2.4-1.9,4.3-4.3,4.3H4.3C1.9,31.9,0,30,0,27.6V4.3C0,1.9,1.9,0,4.3,0h88.9c2.4,0,4.3,1.9,4.3,4.3V27.6z"/>
	<g>
		<path class="st1" d="M25.4,21.1c-0.5,1.1-0.8,1.7-1.4,2.7c-0.9,1.4-2.2,3.2-3.9,3.2c-1.4,0-1.8-0.9-3.8-0.9c-2,0-2.4,0.9-3.8,0.9
			c-1.6,0-2.9-1.6-3.8-3c-2.6-3.9-2.9-8.6-1.3-11c1.1-1.7,2.9-2.8,4.6-2.8c1.7,0,2.8,0.9,4.2,0.9c1.4,0,2.2-0.9,4.2-0.9
			c1.5,0,3.1,0.8,4.2,2.2C21.1,14.4,21.7,19.7,25.4,21.1z"/>
		<g>
			<path class="st1" d="M19.1,8.5c0.7-0.9,1.3-2.2,1.1-3.6c-1.2,0.1-2.6,0.8-3.4,1.8C16,7.7,15.4,9,15.7,10.2
				C17,10.3,18.3,9.5,19.1,8.5z"/>
		</g>
	</g>
	<g>
		<g>
			<path class="st1" d="M33.3,9.8l-3.7,10.9h1.7l1.1-3.4H36l1.1,3.4h1.7L35.2,9.8H33.3z M34.2,11.6c0.1,0.5,0.3,1,0.4,1.5l1,2.9
				h-2.8l1-2.9C33.9,12.7,34.1,12.2,34.2,11.6z"/>
			<path class="st1" d="M43.7,12.7c-1.1,0-2,0.4-2.6,1.3L41,12.8h-1.5l0,0.1c0,0.7,0.1,1.4,0.1,2.5v8.4h1.7v-3.9
				c0.5,0.6,1.3,1,2.3,1c1,0,1.9-0.4,2.5-1.1c0.7-0.8,1.1-1.9,1.1-3.2c0-1.2-0.3-2.2-1-2.9C45.5,13,44.7,12.7,43.7,12.7z M43.3,14
				c1.5,0,2.1,1.4,2.1,2.7c0,1.7-0.8,2.8-2.2,2.8c-0.9,0-1.7-0.6-1.9-1.5c0-0.1-0.1-0.3-0.1-0.5v-1.3c0-0.1,0-0.3,0.1-0.4
				c0,0,0-0.1,0-0.1C41.5,14.7,42.4,14,43.3,14z"/>
			<path class="st1" d="M52.2,12.7c-1.1,0-2,0.4-2.6,1.3l-0.1-1.1H48l0,0.1c0,0.7,0.1,1.4,0.1,2.5v8.4h1.7v-3.9c0.5,0.6,1.3,1,2.3,1
				c1,0,1.9-0.4,2.5-1.1c0.7-0.8,1.1-1.9,1.1-3.2c0-1.2-0.3-2.2-1-2.9C54,13,53.2,12.7,52.2,12.7z M51.8,14c1.5,0,2.1,1.4,2.1,2.7
				c0,1.7-0.8,2.8-2.2,2.8c-0.9,0-1.7-0.6-1.9-1.5c0-0.1-0.1-0.3-0.1-0.5v-1.3c0-0.1,0-0.3,0.1-0.4c0,0,0-0.1,0-0.1
				C50.1,14.7,50.9,14,51.8,14z"/>
			<path class="st1" d="M62.9,14.4c-1.5-0.6-2-1.1-2-1.9c0-0.7,0.6-1.5,1.9-1.5c1.1,0,1.8,0.4,1.9,0.5l0.1,0.1l0.5-1.4l-0.1-0.1
				c-0.3-0.2-1.1-0.5-2.4-0.5c-2.1,0-3.6,1.2-3.6,3c0,1.4,0.9,2.4,2.9,3.2c1.4,0.5,1.9,1.1,1.9,2c0,1-0.8,1.7-2.1,1.7
				c-0.8,0-1.7-0.2-2.4-0.7l-0.1-0.1l-0.4,1.4l0.1,0.1c0.6,0.4,1.8,0.7,2.8,0.7c2.8,0,3.9-1.7,3.9-3.2
				C65.7,16.2,64.9,15.2,62.9,14.4z"/>
			<path class="st1" d="M68.7,10.9L67,11.5v1.4h-1.2v1.3H67v4c0,1,0.2,1.7,0.6,2.1c0.4,0.4,0.9,0.6,1.6,0.6c0.6,0,1.1-0.1,1.3-0.2
				l0.1,0l-0.1-1.3l-0.2,0c-0.2,0.1-0.4,0.1-0.8,0.1c-0.6,0-0.9-0.4-0.9-1.4v-4h2v-1.3h-2V10.9z"/>
			<path class="st1" d="M74.7,12.7c-2.3,0-3.9,1.7-3.9,4.2c0,2.4,1.6,4.1,3.8,4.1h0c1.9,0,3.9-1.3,3.9-4.2c0-1.2-0.4-2.2-1.1-2.9
				C76.8,13,75.9,12.7,74.7,12.7z M74.7,14c1.5,0,2.2,1.5,2.2,2.8c0,1.7-0.9,2.9-2.2,2.9h0c-1.3,0-2.2-1.2-2.2-2.8
				C72.5,15.4,73.2,14,74.7,14z"/>
			<path class="st1" d="M83.6,12.7L83.6,12.7c-0.2-0.1-0.4-0.1-0.5-0.1c-0.9,0-1.6,0.5-2.1,1.3l0-1.2h-1.5l0,0.1
				c0,0.7,0.1,1.4,0.1,2.4l0,5.4h1.7v-4.2c0-0.2,0-0.4,0-0.6c0.2-1,0.9-1.7,1.7-1.7c0.2,0,0.3,0,0.4,0l0.2,0V12.7z"/>
			<path class="st1" d="M87.3,12.6c-2.2,0-3.7,1.8-3.7,4.3c0,2.4,1.5,4,3.9,4c1.2,0,2.1-0.3,2.6-0.5l0.1,0l-0.3-1.2l-0.1,0.1
				c-0.5,0.2-1,0.4-2.1,0.4c-0.7,0-2.4-0.2-2.5-2.4l5.3,0l0-0.1c0-0.2,0-0.4,0-0.7C90.6,14.6,89.8,12.6,87.3,12.6z M87.2,13.9
				c0.5,0,0.9,0.2,1.2,0.5c0.5,0.5,0.6,1.2,0.6,1.5h-3.8C85.4,14.9,86,13.9,87.2,13.9z"/>
		</g>
	</g>
</g>
</svg>
