<?xml version="1.0" encoding="utf-8"?>
<!-- Generator: Adobe Illustrator 24.3.0, SVG Export Plug-In . SVG Version: 6.00 Build 0)  -->
<svg version="1.1" id="Layer_1" xmlns="http://www.w3.org/2000/svg" xmlns:xlink="http://www.w3.org/1999/xlink" x="0px" y="0px"
	 viewBox="0 0 730 447" style="enable-background:new 0 0 730 447;" xml:space="preserve">
<style type="text/css">
	.st0{fill:#500021;}
	.st1{clip-path:url(#SVGID_2_);fill:url(#SVGID_3_);}
	.st2{clip-path:url(#SVGID_5_);fill:url(#SVGID_6_);}
	.st3{clip-path:url(#SVGID_8_);fill:url(#SVGID_9_);}
	.st4{clip-path:url(#SVGID_11_);fill:url(#SVGID_12_);}
	.st5{fill:#F8F8F8;}
	.st6{fill:#FFFFFF;}
</style>
<g>
	<polygon class="st0" points="120.2,167.5 119.5,171.6 140.1,156.4 140.2,155.8 122.1,140.8 120.8,148.2 88.4,150.9 128.3,92.5 
		128.8,92.2 125,132.1 125.2,133.2 146.6,150.9 160.4,36.7 138.6,38.5 8.6,229.5 37.8,227.1 76.9,171.1 	"/>
	<path class="st0" d="M119.2,181.9c-0.3,0.4-0.4,0.8-0.6,1.1l-0.2,0.3l24.7-2l2.3-21L120,180.5C119.7,181,119.4,181.5,119.2,181.9z"
		/>
	<polygon class="st0" points="199.8,176.8 206.4,159.9 182.1,161.9 218.6,68.7 195.3,70.6 152.1,180.8 	"/>
	<polygon class="st0" points="256.7,172.1 263.3,155.2 238.9,157.2 275.5,64 252.1,65.9 208.9,176.1 	"/>
	<path class="st0" d="M359.6,113.1l-1.3,50.5l26.4-2.2l2.1-57.1c0.8-0.1,2.8-0.4,5.7-1.1c3-0.7,6.4-2.3,10.4-5.1
		c1.7-1.2,3-2.5,4-3.9c1-1.4,2-3.1,3-4.9l27.1-69c0-0.5-0.2-1.2-0.7-1.9c-0.5-0.7-1.2-1.4-2.1-2c-0.9-0.6-1.9-1.1-3-1.5
		c-1.1-0.4-2.3-0.6-3.6-0.5l-57,4.7l-64.8,164.8l27-2.7L359.6,113.1z M389.1,33.2l10.9-0.9c1.9-0.2,3.4-0.1,4.4,0.2
		c1,0.3,1.6,1.2,1.8,2.9c-0.1,0.3-0.2,0.7-0.3,1.3l0,0.3l-17.8,45.3c-0.5,1.4-1.3,2.5-2.2,3.3s-1.8,1.4-2.8,1.9
		c-0.9,0.4-1.8,0.7-2.7,0.8c-0.9,0.1-1.7,0.2-2.3,0.3L367,89.4L389.1,33.2z"/>
	<path class="st0" d="M412,159.1l4.7-8.6l16.6-1.4l-1.7,8.4l21.5-1.8L477,47.4l-23.2,1.9l-62.6,111.6L412,159.1z M443,105.1
		l-5.6,26.1l-10.1,0.8L443,105.1z"/>
	<polygon class="st0" points="485.5,153.1 528.7,42.9 505.4,44.9 462.3,155 	"/>
	<polygon class="st0" points="542.3,148.5 549,131.6 524.6,133.6 561.2,40.4 537.8,42.3 494.6,152.5 	"/>
	<path class="st0" d="M587.5,126.7l-0.7,1l-28.4,2.4l-6.8,17.5l46-3.8c1.5-0.1,2.8-0.7,3.9-1.7c1.1-1,2.1-2.2,3-3.5
		c0.9-1.3,1.6-2.6,2.1-3.9l1.2-2.9l1.4-3.7c0.9-2.3,1.8-4.4,2.4-6.6c0.7-2.1,1.1-3.3,1.2-3.5l0.3-1c0.2-0.7,0.3-1.3,0.1-2l-0.1-2
		c-0.1-0.5,0-1.2,0-2c0.1-0.7,0.2-1.2,0.3-1.3l-5.3-48.6c0-0.1,0-0.4,0-0.8c0-0.4,0-0.7,0-0.9c-0.2-0.4-0.1-1.1,0.3-2.1
		c0.4-1,0.7-2,1.1-2.8c0.4-1.3,0.8-1.9,1-1.9l29.4-2.4l6.6-16.9l-43,3.6c-1.2,0.1-2.3,0.4-3.4,1.1c-1.1,0.6-2.1,1.3-3.1,2.2
		c-1,0.9-1.9,1.8-2.8,2.7c-0.9,1-1.7,1.8-2.5,2.6l-6.8,17.5l5.1,57.6L587.5,126.7z"/>
	<polygon class="st0" points="162.3,240.5 99.6,245.7 93,262.6 113.2,260.9 76.6,354.1 99.5,352.3 136.1,259 155.7,257.4 	"/>
	<path class="st0" d="M223,256.3c-0.4-2.3-0.9-4.6-1.6-7c-0.7-2.4-1.4-4.6-2.2-6.5c-0.8-2-1.7-3.5-2.7-4.8c-1-1.2-2.1-1.8-3.2-1.7
		l-19.3,1.6l-1.6,0.3c-1.2,0.3-2.8,1.2-4.7,2.7c-2,1.5-4.1,3.4-6.5,5.6c-2.4,2.2-4.7,4.6-7.2,7.2c-2.4,2.6-4.7,5.1-6.8,7.5
		c-2.1,2.4-3.9,4.6-5.5,6.5c-1.5,1.9-2.6,3.3-3.1,4.2l-18,45.8c-0.3,1.4-0.3,3.7,0.1,6.9c0.4,3.2,1.1,6.5,2.1,9.9
		c1,3.4,2.2,6.4,3.5,9.1c1.4,2.7,2.8,4.1,4.4,4.3l19.3-1.6c1.2-0.1,2.8-0.9,4.8-2.3c2.1-1.5,4.3-3.3,6.8-5.5c2.5-2.2,5-4.7,7.6-7.3
		c2.6-2.7,5-5.2,7.3-7.8c2.3-2.5,4.3-4.8,6-6.8c1.7-2,2.9-3.5,3.5-4.3l18-45.8c0.1-0.8,0-2.2-0.2-4
		C223.8,260.6,223.5,258.6,223,256.3z M197.8,275.8c-0.1,1.9-0.2,3.2-0.4,3.9l-9.1,23c-0.5,1-1.5,2.5-2.9,4.5
		c-1.4,2-3.1,4.2-5.1,6.6c-1.9,2.3-4,4.7-6.1,7.1c-2.1,2.4-4.1,4.5-5.9,6.2c-0.6-1.5-1-3.3-1.3-5.5s-0.4-4.4-0.5-6.6
		c-0.1-2.3-0.1-4.3,0-6.2c0.1-1.9,0.3-3.3,0.6-4.3l9.1-23c0.4-0.8,1.2-2.1,2.6-4.1c1.3-2,2.9-4.1,4.8-6.5c1.8-2.3,3.8-4.7,5.9-7.1
		c2.1-2.4,4.1-4.5,6.1-6.2c0.6,1.5,1.1,3.4,1.4,5.6c0.4,2.2,0.6,4.4,0.7,6.6C197.9,272,197.9,274,197.8,275.8z"/>
	<path class="st0" d="M423.8,246c-0.2-1.9-0.5-3.9-0.9-6.2c-0.4-2.3-0.9-4.6-1.6-7c-0.7-2.4-1.4-4.6-2.2-6.5c-0.8-2-1.7-3.5-2.7-4.8
		c-1-1.2-2.1-1.8-3.2-1.7l-19.3,1.6l-1.6,0.3c-1.2,0.3-2.8,1.2-4.7,2.7c-2,1.5-4.1,3.4-6.5,5.6c-2.4,2.2-4.7,4.6-7.2,7.2
		c-2.4,2.6-4.7,5.1-6.8,7.5c-2.1,2.4-3.9,4.6-5.5,6.5c-1.5,1.9-2.6,3.3-3.1,4.2l-18,45.8c-0.3,1.4-0.3,3.7,0.1,6.9
		c0.4,3.2,1.1,6.5,2.1,9.9c1,3.4,2.2,6.4,3.5,9.1c1.4,2.7,2.8,4.1,4.4,4.3l19.3-1.6c1.2-0.1,2.8-0.9,4.8-2.3
		c2.1-1.5,4.3-3.3,6.8-5.5s5-4.7,7.6-7.3c2.6-2.7,5-5.2,7.3-7.8c2.3-2.5,4.3-4.8,6-6.8c1.7-2,2.9-3.5,3.5-4.3l18-45.8
		C424.1,249.2,424,247.8,423.8,246z M397.7,259.3c-0.1,1.9-0.2,3.2-0.4,3.9l-9.1,23c-0.5,1-1.5,2.5-2.9,4.5c-1.4,2-3.1,4.2-5.1,6.6
		c-1.9,2.3-4,4.7-6.1,7.1c-2.1,2.4-4.1,4.5-5.9,6.2c-0.6-1.5-1-3.3-1.3-5.5c-0.3-2.2-0.4-4.4-0.5-6.6c-0.1-2.3-0.1-4.3,0-6.2
		c0.1-1.9,0.3-3.3,0.6-4.3l9.1-23c0.4-0.8,1.2-2.1,2.6-4.1c1.3-2,2.9-4.1,4.8-6.5c1.8-2.3,3.8-4.7,5.9-7.1c2.1-2.4,4.1-4.5,6.1-6.2
		c0.6,1.5,1.1,3.4,1.4,5.6c0.4,2.2,0.6,4.4,0.7,6.6C397.8,255.4,397.8,257.5,397.7,259.3z"/>
	<path class="st0" d="M459.5,259.2l-6.8,17.5l6.6-0.5l-11,28c-0.4,1-1,1.6-1.8,1.8c-0.8,0.2-1.7,0.4-2.8,0.5l-1.7,0.1
		c-0.9,0.1-1.9,0.1-3,0.2c-1,0-2,0-2.8-0.2c-0.8-0.2-1.5-0.5-2.1-1.1c-0.6-0.5-0.9-1.3-0.9-2.3l0-0.5l17.1-43.3
		c0.4-1.3,1.9-3.4,4.4-6.5c2.5-3.1,5.3-6.2,8.3-9.4c3.1-3.2,6-6.1,8.9-8.6c2.9-2.5,4.9-3.8,6-3.9l21.2-1.7l6.6-17l-37,3.1
		c-1.2,0.1-2.7,0.9-4.8,2.3c-2,1.5-4.3,3.3-6.8,5.5c-2.5,2.2-5.1,4.7-7.7,7.3c-2.6,2.7-5,5.2-7.3,7.8c-2.3,2.5-4.3,4.8-6,6.8
		c-1.7,2-2.8,3.4-3.3,4.3L409.2,310l-0.3,2.8c-0.3,3.4,0.3,6,1.8,7.8c1.5,1.7,3.6,2.9,6.2,3.6c2.6,0.7,5.6,0.9,8.9,0.8
		c3.3-0.1,6.6-0.3,9.9-0.6l3.3-0.3l-3.1,7.9l26.6-9.8l25.6-65.4L459.5,259.2z"/>
	<path class="st0" d="M553.4,208.2l-34.9,88.9c-0.1,0.3-0.3,0.6-0.4,0.9c-0.1,0.3-0.2,0.5-0.2,0.6c-1.3,1.6-2.4,2.6-3.3,3.1
		c-0.9,0.5-2,0.8-3.2,1l-4.7,0.4c-1.7,0.1-2.9,0.1-3.7-0.2c-0.8-0.3-1.2-1.3-1.1-2.9c-0.2-0.1-0.2-0.6,0.1-1.4l0.8-1.9l9.5-24.1
		l-21.8,1.8l-15.9,40.4c0,0.5,0.1,1.2,0.4,1.9c0.3,0.7,0.9,1.5,1.5,2.1c0.7,0.7,1.5,1.2,2.4,1.6s1.8,0.5,2.8,0.5l40.8-3.4
		c1.1-0.1,2.2-0.4,3.5-1c1.3-0.6,2.5-1.3,3.6-2.1c1.2-0.8,2.3-1.7,3.3-2.5c1-0.9,1.8-1.6,2.4-2.1l40.5-103.2L553.4,208.2z"/>
	<path class="st0" d="M541.5,315.7l20.9-1.7l4.7-8.6l16.6-1.4l-1.7,8.4l21.5-1.8l23.9-108.4l-23.2,1.9L541.5,315.7z M587.7,286.1
		l-10.1,0.8l15.7-27L587.7,286.1z"/>
	<path class="st0" d="M65.5,216.7l-6.1,9.3l286.2-23.6L301.4,315c-0.1,0.3-0.3,0.6-0.4,0.9c-0.1,0.3-0.2,0.5-0.2,0.6
		c-1.3,1.6-2.5,2.6-3.5,3.1c-1,0.5-2.3,0.9-3.8,1.1l-5.5,0.5c-1.9,0.2-3.3,0.1-4.3-0.2c-1-0.3-1.5-1.2-1.7-2.9
		c-0.2-0.1-0.2-0.6,0.1-1.4l0.8-1.9l16.1-41l-25,2.1L251.5,333c0,0.5,0.2,1.2,0.6,1.9c0.5,0.7,1.1,1.4,1.9,2.1
		c0.8,0.7,1.8,1.2,2.8,1.6c1.1,0.4,2.2,0.5,3.3,0.4l46.9-3.9c1.2-0.1,2.4-0.4,3.9-1c1.4-0.6,2.8-1.3,4.1-2.1
		c1.3-0.8,2.6-1.7,3.8-2.6c1.2-0.9,2.1-1.6,2.8-2.2l49.9-127l327.5-27.1l20.9-23.7L65.5,216.7z"/>
</g>
<path d="M595.5,379.7H456.7c-13.5,0-24.5,11-24.5,24.5l0,0c0,13.5,11,24.5,24.5,24.5h138.8c13.5,0,24.5-11,24.5-24.5l0,0
	C620,390.7,609,379.7,595.5,379.7z"/>
<g id="PLAY_2_">
	<g>
		<g>
			<defs>
				<path id="SVGID_1_" d="M477.7,399.6l-6.8-3.9c0,0-12.4-7.1-13-7.5c-0.8-0.5-1.4-0.2-1.4,0.6c0,1.4,0,15.2,0,15.2s0,14.9,0,15.5
					s0.5,0.9,1.1,0.6s13.4-7.7,13.4-7.7l6.8-3.9c0,0,5.8-3.3,6.4-3.8c0.8-0.5,0.6-1.1,0-1.4C483.7,402.9,477.7,399.6,477.7,399.6z"
					/>
			</defs>
			<clipPath id="SVGID_2_">
				<use xlink:href="#SVGID_1_"  style="overflow:visible;"/>
			</clipPath>
			
				<linearGradient id="SVGID_3_" gradientUnits="userSpaceOnUse" x1="464.8239" y1="417.4395" x2="464.8239" y2="450.6886" gradientTransform="matrix(1 0 0 1 0 -30)">
				<stop  offset="0" style="stop-color:#3E7BAA"/>
				<stop  offset="0.2863" style="stop-color:#5B91B1"/>
				<stop  offset="0.767" style="stop-color:#86B9BA"/>
				<stop  offset="1" style="stop-color:#97CCBD"/>
			</linearGradient>
			<polygon class="st1" points="456.5,387.4 456.5,404 456.5,420.7 473.1,404 			"/>
		</g>
	</g>
	<g>
		<g>
			<defs>
				<path id="SVGID_4_" d="M477.7,399.6l-6.8-3.9c0,0-12.4-7.1-13-7.5c-0.8-0.5-1.4-0.2-1.4,0.6c0,1.4,0,15.2,0,15.2s0,14.9,0,15.5
					s0.5,0.9,1.1,0.6s13.4-7.7,13.4-7.7l6.8-3.9c0,0,5.8-3.3,6.4-3.8c0.8-0.5,0.6-1.1,0-1.4C483.7,402.9,477.7,399.6,477.7,399.6z"
					/>
			</defs>
			<clipPath id="SVGID_5_">
				<use xlink:href="#SVGID_4_"  style="overflow:visible;"/>
			</clipPath>
			
				<linearGradient id="SVGID_6_" gradientUnits="userSpaceOnUse" x1="456.4249" y1="425.636" x2="477.6945" y2="425.636" gradientTransform="matrix(1 0 0 1 0 -30)">
				<stop  offset="0" style="stop-color:#70BDAC"/>
				<stop  offset="1" style="stop-color:#E0E7A2"/>
			</linearGradient>
			<polygon class="st2" points="477.7,399.6 470.9,395.7 456.5,387.2 456.5,387.4 473.1,404 			"/>
		</g>
	</g>
	<g>
		<g>
			<defs>
				<path id="SVGID_7_" d="M477.7,399.6l-6.8-3.9c0,0-12.4-7.1-13-7.5c-0.8-0.5-1.4-0.2-1.4,0.6c0,1.4,0,15.2,0,15.2s0,14.9,0,15.5
					s0.5,0.9,1.1,0.6s13.4-7.7,13.4-7.7l6.8-3.9c0,0,5.8-3.3,6.4-3.8c0.8-0.5,0.6-1.1,0-1.4C483.7,402.9,477.7,399.6,477.7,399.6z"
					/>
			</defs>
			<clipPath id="SVGID_8_">
				<use xlink:href="#SVGID_7_"  style="overflow:visible;"/>
			</clipPath>
			
				<linearGradient id="SVGID_9_" gradientUnits="userSpaceOnUse" x1="467.1013" y1="434.0879" x2="467.1013" y2="450.8331" gradientTransform="matrix(1 0 0 1 0 -30)">
				<stop  offset="0" style="stop-color:#D94F46"/>
				<stop  offset="0.1668" style="stop-color:#C85056"/>
				<stop  offset="0.5748" style="stop-color:#A45079"/>
				<stop  offset="0.8619" style="stop-color:#8B4F8E"/>
				<stop  offset="1" style="stop-color:#805097"/>
			</linearGradient>
			<polygon class="st3" points="456.5,420.7 456.5,420.8 470.9,412.4 477.7,408.4 473.1,404 			"/>
		</g>
	</g>
	<g>
		<g>
			<defs>
				<path id="SVGID_10_" d="M477.7,399.6l-6.8-3.9c0,0-12.4-7.1-13-7.5c-0.8-0.5-1.4-0.2-1.4,0.6c0,1.4,0,15.2,0,15.2s0,14.9,0,15.5
					s0.5,0.9,1.1,0.6s13.4-7.7,13.4-7.7l6.8-3.9c0,0,5.8-3.3,6.4-3.8c0.8-0.5,0.6-1.1,0-1.4C483.7,402.9,477.7,399.6,477.7,399.6z"
					/>
			</defs>
			<clipPath id="SVGID_11_">
				<use xlink:href="#SVGID_10_"  style="overflow:visible;"/>
			</clipPath>
			
				<linearGradient id="SVGID_12_" gradientUnits="userSpaceOnUse" x1="479.2735" y1="429.6277" x2="479.2735" y2="438.558" gradientTransform="matrix(1 0 0 1 0 -30)">
				<stop  offset="0" style="stop-color:#E58C7E"/>
				<stop  offset="0.1194" style="stop-color:#E7947E"/>
				<stop  offset="0.7128" style="stop-color:#F1B980"/>
				<stop  offset="1" style="stop-color:#F5C780"/>
			</linearGradient>
			<polygon class="st4" points="477.7,399.6 473.1,404 477.7,408.4 485.4,404 			"/>
		</g>
	</g>
</g>
<g>
	<path class="st5" d="M566.8,409.1c-0.6,0-1.3-0.2-1.7-0.3c-0.5-0.2-0.9-0.6-1.3-1.1h-0.2c0,0.6,0.2,1.1,0.2,1.6v3.9h-1.4v-14h1.3
		l0.2,1.3l0,0c0.3-0.5,0.8-0.9,1.3-1.1c0.5-0.2,1.1-0.3,1.7-0.3c1.3,0,2.2,0.5,3,1.3c0.6,0.9,1.1,2,1.1,3.6s-0.3,2.8-1.1,3.8
		C569,408.8,568,409.1,566.8,409.1z M566.4,400.4c-0.9,0-1.7,0.3-2.2,0.8s-0.6,1.4-0.6,2.7v0.3c0,1.4,0.2,2.4,0.6,3s1.3,0.9,2.2,0.9
		c0.8,0,1.4-0.3,2-0.9c0.5-0.6,0.8-1.6,0.8-2.8c0-1.3-0.3-2.2-0.8-2.8C568,400.7,567.4,400.4,566.4,400.4z"/>
	<path class="st5" d="M574.1,408.9h-1.4v-13.7h1.4V408.9z"/>
	<path class="st5" d="M582.5,408.9l-0.3-1.4l0,0c-0.5,0.6-0.9,0.9-1.4,1.3c-0.5,0.2-1.1,0.3-1.7,0.3c-0.9,0-1.7-0.3-2.2-0.8
		s-0.8-1.3-0.8-2c0-1.9,1.6-3,4.7-3.1h1.6v-0.6c0-0.8-0.2-1.3-0.5-1.7c-0.3-0.3-0.8-0.5-1.6-0.5c-0.8,0-1.7,0.3-2.7,0.8l-0.5-1.1
		c0.5-0.3,0.9-0.5,1.6-0.6c0.6-0.2,1.1-0.2,1.7-0.2c1.1,0,2,0.3,2.5,0.8c0.6,0.5,0.8,1.3,0.8,2.5v6.6h-1.3
		C582.5,409.1,582.5,408.9,582.5,408.9z M579.2,408c0.9,0,1.6-0.3,2.2-0.8c0.5-0.5,0.8-1.3,0.8-2v-0.9h-1.4c-1.1,0-2,0.2-2.5,0.5
		s-0.8,0.8-0.8,1.6c0,0.5,0.2,0.9,0.5,1.3C578.2,407.8,578.7,408,579.2,408z"/>
	<path class="st5" d="M584.5,399.3h1.6l2,5.5c0.5,1.3,0.8,2.2,0.9,2.7l0,0c0-0.3,0.3-0.8,0.5-1.6c0.3-0.8,1.1-3,2.4-6.8h1.6l-4.1,11
		c-0.5,1.1-0.9,1.9-1.4,2.4c-0.5,0.5-1.3,0.6-2,0.6c-0.5,0-0.9,0-1.3-0.2v-1.1c0.3,0,0.6,0.2,1.1,0.2c0.9,0,1.7-0.6,2.2-1.7l0.5-1.4
		L584.5,399.3z"/>
</g>
<g>
	<path class="st5" d="M539.6,400.1c0.5,0.3,1.4,1.3,1.4,2.7c0,1.6-0.8,2.2-1.7,2.8c-0.3,0.3-0.6,0.5-0.6,0.9c0,0.5,0.3,0.6,0.5,0.9
		l0.8,0.6c0.9,0.8,1.7,1.4,1.7,2.8c0,1.9-1.9,3.8-5.3,3.8c-3,0-4.4-1.4-4.4-2.8c0-0.8,0.3-1.7,1.6-2.5s3-0.9,3.9-0.9
		c-0.3-0.3-0.6-0.8-0.6-1.4c0-0.3,0.2-0.5,0.2-0.8c-0.2,0-0.5,0-0.6,0c-2.2,0-3.3-1.6-3.3-3.1c0-0.9,0.5-1.9,1.3-2.7
		c1.1-0.9,2.5-1.1,3.6-1.1h4.2l-1.3,0.8H539.6z M538.2,409.2c-0.2,0-0.3,0-0.5,0c-0.2,0-1.3,0-2.2,0.3c-0.5,0.2-1.7,0.6-1.7,2
		s1.4,2.5,3.6,2.5c1.9,0,3-0.9,3-2.2C540.4,410.8,539.7,410.3,538.2,409.2z M538.8,405.3c0.5-0.5,0.5-1.1,0.5-1.4
		c0-1.4-0.9-3.8-2.5-3.8c-0.5,0-1.1,0.3-1.4,0.6c-0.3,0.5-0.5,0.9-0.5,1.6c0,1.4,0.8,3.6,2.5,3.6
		C537.9,405.9,538.5,405.6,538.8,405.3z"/>
	<path class="st5" d="M526.9,408.9c-3.1,0-4.9-2.5-4.9-4.7c0-2.7,2.2-4.9,5.2-4.9c3,0,4.9,2.4,4.9,4.7
		C532,406.2,530.2,408.9,526.9,408.9z M529.4,407.2c0.5-0.6,0.6-1.4,0.6-2.2c0-1.7-0.8-5.2-3.3-5.2c-0.6,0-1.3,0.3-1.9,0.6
		c-0.8,0.6-0.9,1.6-0.9,2.5c0,2,0.9,5.3,3.5,5.3C528.1,408.3,528.9,407.8,529.4,407.2z"/>
	<path class="st5" d="M515.9,408.9c-3.1,0-4.9-2.5-4.9-4.7c0-2.7,2.2-4.9,5.2-4.9c3,0,4.9,2.4,4.9,4.7
		C521.1,406.2,519.2,408.9,515.9,408.9z M518.4,407.2c0.5-0.6,0.6-1.4,0.6-2.2c0-1.7-0.8-5.2-3.3-5.2c-0.6,0-1.3,0.3-1.9,0.6
		c-0.8,0.6-0.9,1.6-0.9,2.5c0,2,0.9,5.3,3.5,5.3C517.1,408.3,517.9,407.8,518.4,407.2z"/>
	<path class="st5" d="M509.4,408.6l-2.8,0.6c-1.3,0.2-2.2,0.3-3.3,0.3c-5.7,0-7.7-4.1-7.7-7.4c0-3.9,3-7.5,8.2-7.5
		c1.1,0,2.2,0.2,3.1,0.5c1.6,0.5,2.2,0.9,2.7,1.3l-1.7,1.6l-0.8,0.2l0.5-0.8c-0.6-0.6-1.9-1.9-4.4-1.9c-3.1,0-5.7,2.5-5.7,6
		c0,3.8,2.8,7.4,7.2,7.4c1.3,0,2-0.3,2.5-0.5V405l-3.1,0.2l1.6-0.9h4.2l-0.5,0.5c0.2,0.2,0.2,0.3,0,0.5c0,0.2,0,0.8,0,0.9V408.6z"/>
	<path class="st5" d="M546,408c-0.6,0-0.8-0.2-0.8-0.9v-0.2v-11.5v-0.2c0.2-0.8,0.3-0.8,0.9-1.3h-2.8l-1.6,0.8h1.6l0,0l0,0v11.9v0.6
		c0,0.5-0.2,0.5-0.5,1.1h3.6l0.8-0.5C546.7,408,546.3,408,546,408z"/>
	<path class="st5" d="M554.2,408.1c-0.2,0.2-0.5,0.3-0.6,0.3c-0.6,0.3-1.4,0.3-1.9,0.3c-0.6,0-1.7,0-2.7-0.8c-1.4-0.9-2-2.7-2-4.2
		c0-3.1,2.5-4.7,4.6-4.7c0.8,0,1.4,0.2,2,0.6c0.9,0.6,1.3,1.6,1.4,2l-4.7,1.9l-1.6,0.2c0.5,2.5,2.2,4.1,4.1,4.1
		c1.1,0,1.7-0.3,2.5-0.6L554.2,408.1z M552.3,402.2c0.3-0.2,0.6-0.3,0.6-0.5c0-0.8-0.9-1.7-2-1.7c-0.8,0-2.4,0.6-2.4,2.8
		c0,0.3,0,0.6,0,1.1L552.3,402.2z"/>
	<g>
		<path class="st5" d="M556.2,399.3v1.3h-0.2L556.2,399.3h-0.6v-0.2h1.1v0.2H556.2z"/>
		<path class="st5" d="M558,400.6v-1.4l0,0l-0.5,1.4h-0.2l-0.5-1.4l0,0v1.4h-0.2v-1.4h0.3l0.3,1.3l0,0l0.3-1.3h0.3V400.6L558,400.6z
			"/>
	</g>
</g>
<path d="M370.9,379.7H232.1c-13.5,0-24.5,11-24.5,24.5l0,0c0,13.5,11,24.5,24.5,24.5h138.8c13.5,0,24.5-11,24.5-24.5l0,0
	C395.4,390.7,384.4,379.7,370.9,379.7z"/>
<g>
	<g>
		<path class="st6" d="M264.8,412.3c-0.8,1.7-1.3,2.7-2.2,4.2c-1.4,2.2-3.5,5-6.1,5c-2.2,0-2.8-1.4-6-1.4s-3.8,1.4-6,1.4
			c-2.5,0-4.6-2.5-6-4.7c-4.1-6.1-4.6-13.5-2-17.3c1.7-2.7,4.6-4.4,7.2-4.4s4.4,1.4,6.6,1.4s3.5-1.4,6.6-1.4c2.4,0,4.9,1.3,6.6,3.5
			C258.1,401.8,259,410.1,264.8,412.3z"/>
		<g>
			<path class="st6" d="M254.9,392.5c1.1-1.4,2-3.5,1.7-5.7c-1.9,0.2-4.1,1.3-5.3,2.8c-1.3,1.6-2.2,3.6-1.7,5.5
				C251.6,395.3,253.7,394.1,254.9,392.5z"/>
		</g>
	</g>
	<g>
		<g>
			<path class="st6" d="M277.2,394.5l-5.8,17.1h2.7l1.7-5.3h5.7l1.7,5.3h2.7l-5.7-17.1H277.2z M278.6,397.4c0.2,0.8,0.5,1.6,0.6,2.4
				l1.6,4.6h-4.4l1.6-4.6C278.2,399.1,278.5,398.3,278.6,397.4z"/>
			<path class="st6" d="M293.5,399.1c-1.7,0-3.1,0.6-4.1,2l-0.2-1.9H287v0.2c0,1.1,0.2,2.2,0.2,3.9v13.2h2.7v-6.1
				c0.8,0.9,2,1.6,3.6,1.6s3-0.6,3.9-1.7c1.1-1.3,1.7-3,1.7-5c0-1.9-0.5-3.5-1.6-4.6S295.1,399.1,293.5,399.1z M292.9,401.1
				c2.4,0,3.3,2.2,3.3,4.2c0,2.7-1.3,4.4-3.5,4.4c-1.4,0-2.7-0.9-3-2.4c0-0.2-0.2-0.5-0.2-0.8v-2c0-0.2,0-0.5,0.2-0.6v-0.2
				C290.1,402.2,291.5,401.1,292.9,401.1z"/>
			<path class="st6" d="M306.9,399.1c-1.7,0-3.1,0.6-4.1,2l-0.2-1.7h-2.4v0.2c0,1.1,0.2,2.2,0.2,3.9v13.2h2.7v-6.1
				c0.8,0.9,2,1.6,3.6,1.6c1.6,0,3-0.6,3.9-1.7c1.1-1.3,1.7-3,1.7-5c0-1.9-0.5-3.5-1.6-4.6C309.7,399.6,308.5,399.1,306.9,399.1z
				 M306.3,401.1c2.4,0,3.3,2.2,3.3,4.2c0,2.7-1.3,4.4-3.5,4.4c-1.4,0-2.7-0.9-3-2.4c0-0.2-0.2-0.5-0.2-0.8v-2c0-0.2,0-0.5,0.2-0.6
				v-0.2C303.6,402.2,304.9,401.1,306.3,401.1z"/>
			<path class="st6" d="M323.7,401.8c-2.4-0.9-3.1-1.7-3.1-3c0-1.1,0.9-2.4,3-2.4c1.7,0,2.8,0.6,3,0.8l0.2,0.2l0.8-2.2l-0.2-0.2
				c-0.5-0.3-1.7-0.8-3.8-0.8c-3.3,0-5.7,1.9-5.7,4.7c0,2.2,1.4,3.8,4.6,5c2.2,0.8,3,1.7,3,3.1c0,1.6-1.3,2.7-3.3,2.7
				c-1.3,0-2.7-0.3-3.8-1.1l-0.2-0.2l-0.6,2.2l0.2,0.2c0.9,0.6,2.8,1.1,4.4,1.1c4.4,0,6.1-2.7,6.1-5
				C328.1,404.6,326.8,403,323.7,401.8z"/>
			<path class="st6" d="M332.8,396.3l-2.7,0.9v2.2h-1.9v2h1.9v6.3c0,1.6,0.3,2.7,0.9,3.3c0.6,0.6,1.4,0.9,2.5,0.9
				c0.9,0,1.7-0.2,2-0.3h0.2l-0.2-2h-0.3c-0.3,0.2-0.6,0.2-1.3,0.2c-0.9,0-1.4-0.6-1.4-2.2v-6.3h3.1v-2h-3.1v-3H332.8z"/>
			<path class="st6" d="M342.2,399.1c-3.6,0-6.1,2.7-6.1,6.6c0,3.8,2.5,6.4,6,6.4l0,0c3,0,6.1-2,6.1-6.6c0-1.9-0.6-3.5-1.7-4.6
				C345.5,399.6,344.1,399.1,342.2,399.1z M342.2,401.1c2.4,0,3.5,2.4,3.5,4.4c0,2.7-1.4,4.6-3.5,4.6l0,0c-2,0-3.5-1.9-3.5-4.4
				C338.8,403.3,339.9,401.1,342.2,401.1z"/>
			<path class="st6" d="M356.2,399.1L356.2,399.1c-0.3-0.2-0.6-0.2-0.8-0.2c-1.4,0-2.5,0.8-3.3,2v-1.9h-2.4v0.2
				c0,1.1,0.2,2.2,0.2,3.8v8.5h2.7v-6.6c0-0.3,0-0.6,0-0.9c0.3-1.6,1.4-2.7,2.7-2.7c0.3,0,0.5,0,0.6,0h0.3
				C356.2,401.3,356.2,399.1,356.2,399.1z"/>
			<path class="st6" d="M362,398.9c-3.5,0-5.8,2.8-5.8,6.8c0,3.8,2.4,6.3,6.1,6.3c1.9,0,3.3-0.5,4.1-0.8h0.2l-0.5-1.9l-0.2,0.2
				c-0.8,0.3-1.6,0.6-3.3,0.6c-1.1,0-3.8-0.3-3.9-3.8h8.3v-0.2c0-0.3,0-0.6,0-1.1C367.2,402.1,366,398.9,362,398.9z M361.9,401
				c0.8,0,1.4,0.3,1.9,0.8c0.8,0.8,0.9,1.9,0.9,2.4h-6C359,402.5,360,401,361.9,401z"/>
		</g>
	</g>
</g>
<g>
</g>
<g>
</g>
<g>
</g>
<g>
</g>
<g>
</g>
<g>
</g>
<g>
</g>
<g>
</g>
<g>
</g>
<g>
</g>
<g>
</g>
<g>
</g>
<g>
</g>
<g>
</g>
<g>
</g>
</svg>
