<?xml version="1.0" encoding="utf-8"?>
<!-- Generator: Adobe Illustrator 24.3.0, SVG Export Plug-In . SVG Version: 6.00 Build 0)  -->
<svg version="1.1" id="Layer_1" xmlns="http://www.w3.org/2000/svg" xmlns:xlink="http://www.w3.org/1999/xlink" x="0px" y="0px"
	 viewBox="0 0 207.6 57.9" style="enable-background:new 0 0 207.6 57.9;" xml:space="preserve">
<style type="text/css">
	.st0{fill:none;stroke:#FFFFFF;stroke-width:5;stroke-miterlimit:10;}
	.st1{fill:#FFFFFF;}
</style>
<path class="st0" d="M178.7,2.5H28.9C14.4,2.5,2.5,14.4,2.5,28.9l0,0c0,14.6,11.9,26.4,26.4,26.4h149.7c14.6,0,26.4-11.9,26.4-26.4
	l0,0C205.1,14.4,193.2,2.5,178.7,2.5z"/>
<g>
	<g>
		<path class="st1" d="M64.2,37.7c-0.9,1.8-1.4,2.9-2.4,4.5c-1.5,2.4-3.8,5.4-6.6,5.4c-2.4,0-3-1.5-6.5-1.5s-4.1,1.5-6.5,1.5
			c-2.7,0-5-2.7-6.5-5.1c-4.4-6.6-5-14.6-2.2-18.7c1.8-2.9,5-4.7,7.8-4.7c2.8,0,4.7,1.5,7.1,1.5s3.8-1.5,7.1-1.5
			c2.6,0,5.3,1.4,7.1,3.8C57,26.3,57.9,35.3,64.2,37.7z"/>
		<g>
			<path class="st1" d="M53.5,16.3c1.2-1.5,2.2-3.8,1.8-6.1c-2,0.2-4.4,1.4-5.7,3c-1.4,1.7-2.4,3.9-1.8,5.9
				C50,19.3,52.2,18,53.5,16.3z"/>
		</g>
	</g>
	<g>
		<g>
			<path class="st1" d="M77.6,18.5l-6.3,18.4h2.9l1.8-5.7h6.1l1.8,5.7H87l-6.1-18.4H77.6z M79.1,21.6c0.2,0.9,0.5,1.7,0.6,2.6l1.7,5
				h-4.7l1.7-5C78.7,23.4,79,22.6,79.1,21.6z"/>
			<path class="st1" d="M95.2,23.4c-1.8,0-3.3,0.6-4.4,2.2l-0.2-2h-2.4v0.2c0,1.2,0.2,2.4,0.2,4.2v14.2h2.9v-6.6
				c0.9,1,2.2,1.7,3.9,1.7c1.7,0,3.2-0.6,4.2-1.8c1.2-1.4,1.8-3.2,1.8-5.4c0-2-0.5-3.8-1.7-5C98.3,24,96.9,23.4,95.2,23.4z
				 M94.5,25.6c2.6,0,3.6,2.4,3.6,4.5c0,2.9-1.4,4.7-3.8,4.7c-1.5,0-2.9-1-3.2-2.6c0-0.2-0.2-0.5-0.2-0.9v-2.2c0-0.2,0-0.5,0.2-0.6
				v-0.2C91.5,26.8,93,25.6,94.5,25.6z"/>
			<path class="st1" d="M109.6,23.4c-1.8,0-3.3,0.6-4.4,2.2l-0.2-1.8h-2.6V24c0,1.2,0.2,2.4,0.2,4.2v14.2h2.9v-6.6
				c0.9,1,2.2,1.7,3.9,1.7s3.2-0.6,4.2-1.8c1.2-1.4,1.8-3.2,1.8-5.4c0-2-0.5-3.8-1.7-5C112.6,24,111.3,23.4,109.6,23.4z M109,25.6
				c2.6,0,3.6,2.4,3.6,4.5c0,2.9-1.4,4.7-3.8,4.7c-1.5,0-2.9-1-3.2-2.6c0-0.2-0.2-0.5-0.2-0.9v-2.2c0-0.2,0-0.5,0.2-0.6v-0.2
				C106.1,26.8,107.5,25.6,109,25.6z"/>
			<path class="st1" d="M127.7,26.3c-2.6-1-3.3-1.8-3.3-3.2c0-1.2,1-2.6,3.2-2.6c1.8,0,3,0.6,3.2,0.9l0.2,0.2l0.9-2.4l-0.2-0.2
				c-0.5-0.3-1.8-0.9-4.1-0.9c-3.6,0-6.1,2-6.1,5.1c0,2.4,1.5,4.1,5,5.4c2.4,0.9,3.2,1.8,3.2,3.3c0,1.7-1.4,2.9-3.6,2.9
				c-1.4,0-2.9-0.3-4.1-1.2l-0.2-0.2l-0.6,2.4l0.2,0.2c1,0.6,3,1.2,4.7,1.2c4.7,0,6.6-2.9,6.6-5.4C132.5,29.4,131.1,27.6,127.7,26.3
				z"/>
			<path class="st1" d="M137.6,20.4l-2.9,1v2.4h-2v2.2h2v6.8c0,1.7,0.3,2.9,1,3.6c0.6,0.6,1.5,1,2.7,1c1,0,1.8-0.2,2.2-0.3h0.2
				l-0.2-2.2h-0.3c-0.3,0.2-0.6,0.2-1.4,0.2c-1,0-1.5-0.6-1.5-2.4v-6.8h3.3v-2.2h-3.3v-3.2H137.6z"/>
			<path class="st1" d="M147.7,23.4c-3.9,0-6.6,2.9-6.6,7.1c0,4.1,2.7,6.9,6.5,6.9l0,0c3.2,0,6.6-2.2,6.6-7.1c0-2-0.6-3.8-1.8-5
				C151.3,24,149.8,23.4,147.7,23.4z M147.7,25.6c2.6,0,3.8,2.6,3.8,4.7c0,2.9-1.5,5-3.8,5l0,0c-2.2,0-3.8-2-3.8-4.7
				C144,28,145.2,25.6,147.7,25.6z"/>
			<path class="st1" d="M162.8,23.4L162.8,23.4c-0.3-0.2-0.6-0.2-0.9-0.2c-1.5,0-2.7,0.9-3.6,2.2v-2h-2.6v0.2c0,1.2,0.2,2.4,0.2,4.1
				v9.2h2.9v-7.1c0-0.3,0-0.6,0-1c0.3-1.7,1.5-2.9,2.9-2.9c0.3,0,0.5,0,0.6,0h0.3C162.8,25.8,162.8,23.4,162.8,23.4z"/>
			<path class="st1" d="M169.1,23.2c-3.8,0-6.3,3-6.3,7.3c0,4.1,2.6,6.8,6.6,6.8c2,0,3.6-0.5,4.4-0.9h0.2l-0.5-2l-0.2,0.2
				c-0.9,0.3-1.7,0.6-3.6,0.6c-1.2,0-4.1-0.3-4.2-4.1h9V31c0-0.3,0-0.6,0-1.2C174.7,26.7,173.4,23.2,169.1,23.2z M169,25.5
				c0.9,0,1.5,0.3,2,0.9c0.9,0.9,1,2,1,2.6h-6.5C165.8,27.1,166.9,25.5,169,25.5z"/>
		</g>
	</g>
</g>
</svg>
