<?xml version="1.0" encoding="utf-8"?>
<!-- Generator: Adobe Illustrator 24.3.0, SVG Export Plug-In . SVG Version: 6.00 Build 0)  -->
<svg version="1.1" id="Layer_1" xmlns="http://www.w3.org/2000/svg" xmlns:xlink="http://www.w3.org/1999/xlink" x="0px" y="0px"
	 viewBox="0 0 207.6 57.9" style="enable-background:new 0 0 207.6 57.9;" xml:space="preserve">
<style type="text/css">
	.st0{fill:none;stroke:#FFFFFF;stroke-width:4;stroke-miterlimit:10;}
	.st1{fill:#FFFFFF;}
</style>
<path class="st0" d="M178.7,2.6H28.9C14.4,2.6,2.5,14.5,2.5,29l0,0c0,14.6,11.9,26.4,26.4,26.4h149.7c14.6,0,26.4-11.9,26.4-26.4
	l0,0C205.1,14.5,193.2,2.6,178.7,2.6z"/>
<path class="st1" d="M151.6,35.1c-0.7,0-1.6-0.2-2.1-0.3c-0.6-0.2-1.2-0.7-1.6-1.4h-0.2c0,0.7,0.2,1.4,0.2,2v4.9h-1.7V22.7h1.6
	l0.2,1.6l0,0c0.3-0.6,1-1.2,1.6-1.4c0.6-0.2,1.4-0.3,2.1-0.3c1.6,0,2.8,0.6,3.7,1.6c0.7,1.2,1.4,2.6,1.4,4.5s-0.3,3.5-1.4,4.8
	C154.4,34.8,153.1,35.1,151.6,35.1z M151.1,24.2c-1.2,0-2.1,0.3-2.8,1c-0.6,0.6-0.7,1.7-0.7,3.4v0.3c0,1.7,0.2,3,0.7,3.7
	c0.5,0.7,1.6,1.2,2.8,1.2c1,0,1.7-0.3,2.6-1.2c0.6-0.7,1-2,1-3.5c0-1.6-0.3-2.8-1-3.5C153.1,24.6,152.3,24.2,151.1,24.2z"/>
<path class="st1" d="M160.8,34.9H159V17.7h1.7V34.9z"/>
<path class="st1" d="M171.2,34.9l-0.3-1.7l0,0c-0.6,0.7-1.2,1.2-1.7,1.6c-0.6,0.2-1.4,0.3-2.1,0.3c-1.2,0-2.1-0.3-2.8-1
	c-0.6-0.6-1-1.6-1-2.6c0-2.3,2-3.7,5.9-3.8h2V27c0-1-0.2-1.6-0.6-2.1c-0.3-0.3-1-0.6-2-0.6s-2.1,0.3-3.4,1l-0.6-1.4
	c0.6-0.3,1.2-0.6,2-0.7c0.7-0.2,1.4-0.2,2.1-0.2c1.4,0,2.6,0.3,3.1,1c0.7,0.6,1,1.6,1,3.1v8.2h-1.6
	C171.2,35.1,171.2,34.9,171.2,34.9z M167.2,33.7c1.2,0,2-0.3,2.8-1c0.6-0.6,1-1.6,1-2.6v-1.2h-1.7c-1.4,0-2.6,0.2-3.1,0.6
	c-0.6,0.3-1,1-1,2c0,0.6,0.2,1.2,0.6,1.6C165.9,33.5,166.5,33.7,167.2,33.7z"/>
<path class="st1" d="M173.8,22.8h2l2.6,6.9c0.6,1.6,1,2.8,1.2,3.4l0,0c0-0.3,0.3-1,0.6-2c0.3-1,1.4-3.7,3-8.5h2l-5.1,13.8
	c-0.6,1.4-1.2,2.3-1.7,3c-0.6,0.6-1.6,0.7-2.6,0.7c-0.6,0-1.2,0-1.6-0.2v-1.4c0.3,0,0.7,0.2,1.4,0.2c1.2,0,2.1-0.7,2.8-2.1l0.6-1.7
	L173.8,22.8z"/>
<path class="st1" d="M117.5,23.8c0.6,0.3,1.7,1.6,1.7,3.4c0,2-1,2.8-2.1,3.5c-0.3,0.3-0.7,0.6-0.7,1.2c0,0.6,0.3,0.7,0.6,1.2l1,0.7
	c1.2,1,2.1,1.7,2.1,3.5c0,2.3-2.3,4.8-6.6,4.8c-3.7,0-5.5-1.7-5.5-3.5c0-1,0.3-2.1,2-3.1c1.6-1,3.7-1.2,4.9-1.2
	c-0.3-0.3-0.7-1-0.7-1.7c0-0.3,0.2-0.6,0.2-1c-0.2,0-0.6,0-0.7,0c-2.8,0-4.2-2-4.2-3.8c0-1.2,0.6-2.3,1.6-3.4
	c1.4-1.2,3.1-1.4,4.5-1.4h5.2l-1.6,1L117.5,23.8L117.5,23.8z M115.7,35.2c-0.2,0-0.3,0-0.6,0s-1.6,0-2.8,0.3
	c-0.6,0.2-2.1,0.7-2.1,2.6c0,1.9,1.7,3.1,4.5,3.1c2.3,0,3.7-1.2,3.7-2.8C118.5,37.2,117.7,36.6,115.7,35.2z M116.5,30.3
	c0.6-0.6,0.6-1.4,0.6-1.7c0-1.7-1.2-4.8-3.1-4.8c-0.6,0-1.4,0.3-1.7,0.7c-0.3,0.6-0.6,1.2-0.6,2c0,1.7,1,4.5,3.1,4.5
	C115.3,31.1,116.1,30.7,116.5,30.3z"/>
<path class="st1" d="M101.6,34.9c-3.8,0-6.2-3.1-6.2-5.9c0-3.4,2.8-6.2,6.5-6.2s6.2,3,6.2,5.9C108,31.5,105.7,34.9,101.6,34.9z
	 M104.8,32.8c0.6-0.7,0.7-1.7,0.7-2.8c0-2.1-1-6.5-4.2-6.5c-0.7,0-1.6,0.3-2.3,0.7c-1,0.7-1.2,2-1.2,3.1c0,2.6,1.2,6.6,4.4,6.6
	C103.1,34.2,104.1,33.5,104.8,32.8z"/>
<path class="st1" d="M87.8,34.9c-3.8,0-6.2-3.1-6.2-5.9c0-3.4,2.8-6.2,6.5-6.2s6.2,3,6.2,5.9C94.3,31.5,92,34.9,87.8,34.9z
	 M90.9,32.8c0.6-0.7,0.7-1.7,0.7-2.8c0-2.1-1-6.5-4.2-6.5c-0.7,0-1.6,0.3-2.3,0.7c-1,0.7-1.2,2-1.2,3.1c0,2.6,1.2,6.6,4.4,6.6
	C89.3,34.2,90.2,33.5,90.9,32.8z"/>
<path class="st1" d="M79.7,34.5l-3.5,0.7c-1.6,0.2-2.8,0.3-4.2,0.3c-7.1,0-9.6-5.1-9.6-9.3c0-4.9,3.7-9.4,10.2-9.4
	c1.4,0,2.8,0.2,3.8,0.6c2,0.6,2.8,1.2,3.4,1.6l-2.1,2l-1,0.2l0.6-1c-0.7-0.7-2.3-2.3-5.5-2.3c-3.8,0-7.1,3.1-7.1,7.6
	c0,4.8,3.5,9.3,9.1,9.3c1.6,0,2.6-0.3,3.1-0.6v-4.3L73,30.2l2-1.2h5.2l-0.6,0.6c0.2,0.2,0.2,0.3,0,0.6c0,0.2,0,1,0,1.2L79.7,34.5
	L79.7,34.5z"/>
<path class="st1" d="M125.6,33.7c-0.7,0-1-0.2-1-1.2v-0.2V17.9v-0.2c0.2-1,0.3-1,1.2-1.6h-3.5l-2,1h2l0,0l0,0V32v0.7
	c0,0.6-0.2,0.6-0.6,1.4h4.5l1-0.6C126.4,33.7,125.9,33.7,125.6,33.7z"/>
<path class="st1" d="M135.8,33.8c-0.2,0.2-0.6,0.3-0.7,0.3c-0.7,0.3-1.7,0.3-2.3,0.3c-0.7,0-2.1,0-3.4-1c-1.7-1.2-2.6-3.4-2.6-5.2
	c0-3.8,3.1-5.9,5.8-5.9c1,0,1.7,0.2,2.6,0.7c1.2,0.7,1.6,2,1.7,2.6l-5.9,2.3l-2,0.2c0.6,3.1,2.8,5.1,5.1,5.1c1.4,0,2.1-0.3,3.1-0.7
	L135.8,33.8z M133.5,26.5c0.3-0.2,0.7-0.3,0.7-0.6c0-1-1.2-2.1-2.6-2.1c-1,0-3,0.7-3,3.5c0,0.3,0,0.7,0,1.4L133.5,26.5z"/>
<path class="st1" d="M28.7,15.1L51,27.5c1,0.6,1,2.1,0,2.7L28.7,42.8c-1,0.6-2.3-0.2-2.3-1.4V16.5C26.4,15.3,27.7,14.5,28.7,15.1z"
	/>
</svg>
