<?xml version="1.0" encoding="utf-8"?>
<!-- Generator: Adobe Illustrator 24.3.0, SVG Export Plug-In . SVG Version: 6.00 Build 0)  -->
<svg version="1.1" id="Layer_1" xmlns="http://www.w3.org/2000/svg" xmlns:xlink="http://www.w3.org/1999/xlink" x="0px" y="0px"
	 viewBox="0 0 207.6 57.9" style="enable-background:new 0 0 207.6 57.9;" xml:space="preserve">
<style type="text/css">
	.st0{fill:none;stroke:#FFFFFF;stroke-width:5;stroke-miterlimit:10;}
	.st1{fill:#FFFFFF;}
</style>
<g>
	<path class="st0" d="M178.7,2.5H28.9C14.4,2.5,2.5,14.4,2.5,28.9l0,0c0,14.6,11.9,26.4,26.4,26.4h149.7c14.6,0,26.4-11.9,26.4-26.4
		l0,0C205.1,14.4,193.2,2.5,178.7,2.5z"/>
	<g>
		<path class="st1" d="M147.7,34.2c-0.6,0-1.4-0.2-1.8-0.3c-0.5-0.2-1-0.6-1.4-1.2h-0.2c0,0.6,0.2,1.2,0.2,1.7v4.2H143V23.5h1.4
			l0.2,1.4l0,0c0.3-0.5,0.9-1,1.4-1.2s1.2-0.3,1.8-0.3c1.4,0,2.4,0.5,3.2,1.4c0.6,1,1.2,2.2,1.2,3.9c0,1.7-0.3,3-1.2,4.1
			C150.1,33.9,149,34.2,147.7,34.2z M147.3,24.8c-1,0-1.8,0.3-2.4,0.9c-0.5,0.5-0.6,1.5-0.6,2.9v0.3c0,1.5,0.2,2.6,0.6,3.2
			c0.4,0.6,1.4,1,2.4,1c0.9,0,1.5-0.3,2.2-1c0.5-0.6,0.9-1.7,0.9-3c0-1.4-0.3-2.4-0.9-3C149,25.2,148.3,24.8,147.3,24.8z"/>
		<path class="st1" d="M155.6,34h-1.5V19.2h1.5V34z"/>
		<path class="st1" d="M164.6,34l-0.3-1.5l0,0c-0.5,0.6-1,1-1.5,1.4c-0.5,0.2-1.2,0.3-1.8,0.3c-1,0-1.8-0.3-2.4-0.9
			c-0.5-0.5-0.9-1.4-0.9-2.2c0-2,1.7-3.2,5.1-3.3h1.7v-0.6c0-0.9-0.2-1.4-0.5-1.8c-0.3-0.3-0.9-0.5-1.7-0.5s-1.8,0.3-2.9,0.9
			l-0.5-1.2c0.5-0.3,1-0.5,1.7-0.6c0.6-0.2,1.2-0.2,1.8-0.2c1.2,0,2.2,0.3,2.7,0.9c0.6,0.5,0.9,1.4,0.9,2.7v7.1h-1.4
			C164.6,34.2,164.6,34,164.6,34z M161.1,33c1,0,1.7-0.3,2.4-0.9c0.5-0.5,0.9-1.4,0.9-2.2v-1h-1.5c-1.2,0-2.2,0.2-2.7,0.5
			c-0.5,0.3-0.9,0.9-0.9,1.7c0,0.5,0.2,1,0.5,1.4C160,32.8,160.5,33,161.1,33z"/>
		<path class="st1" d="M166.8,23.6h1.7l2.2,5.9c0.5,1.4,0.9,2.4,1,2.9l0,0c0-0.3,0.3-0.9,0.5-1.7c0.3-0.9,1.2-3.2,2.6-7.3h1.7
			l-4.4,11.9c-0.5,1.2-1,2-1.5,2.6c-0.5,0.5-1.4,0.6-2.2,0.6c-0.5,0-1,0-1.4-0.2v-1.2c0.3,0,0.6,0.2,1.2,0.2c1,0,1.8-0.6,2.4-1.8
			l0.5-1.5L166.8,23.6z"/>
	</g>
	<g>
		<path class="st1" d="M118.4,24.5c0.5,0.3,1.5,1.4,1.5,2.9c0,1.7-0.9,2.4-1.8,3c-0.3,0.3-0.6,0.5-0.6,1c0,0.5,0.3,0.6,0.5,1
			l0.9,0.6c1,0.9,1.8,1.5,1.8,3c0,2-2,4.1-5.7,4.1c-3.2,0-4.7-1.5-4.7-3c0-0.9,0.3-1.8,1.7-2.7c1.4-0.9,3.2-1,4.2-1
			c-0.3-0.3-0.6-0.9-0.6-1.5c0-0.3,0.2-0.5,0.2-0.9c-0.2,0-0.5,0-0.6,0c-2.4,0-3.6-1.7-3.6-3.3c0-1,0.5-2,1.4-2.9
			c1.2-1,2.7-1.2,3.9-1.2h4.5l-1.4,0.9L118.4,24.5L118.4,24.5z M116.8,34.3c-0.2,0-0.3,0-0.5,0c-0.2,0-1.4,0-2.4,0.3
			c-0.5,0.2-1.8,0.6-1.8,2.2s1.5,2.7,3.9,2.7c2,0,3.2-1,3.2-2.4C119.2,36,118.5,35.5,116.8,34.3z M117.5,30.1
			c0.5-0.5,0.5-1.2,0.5-1.5c0-1.5-1-4.1-2.7-4.1c-0.5,0-1.2,0.3-1.5,0.6c-0.3,0.5-0.5,1-0.5,1.7c0,1.5,0.9,3.9,2.7,3.9
			C116.5,30.8,117.2,30.4,117.5,30.1z"/>
		<path class="st1" d="M104.7,34c-3.3,0-5.3-2.7-5.3-5.1c0-2.9,2.4-5.3,5.6-5.3c3.2,0,5.3,2.6,5.3,5.1C110.2,31.1,108.2,34,104.7,34
			z M107.4,32.2c0.5-0.6,0.6-1.5,0.6-2.4c0-1.8-0.9-5.6-3.6-5.6c-0.6,0-1.4,0.3-2,0.6c-0.9,0.6-1,1.7-1,2.7c0,2.2,1,5.7,3.8,5.7
			C106,33.4,106.8,32.8,107.4,32.2z"/>
		<path class="st1" d="M92.8,34c-3.3,0-5.3-2.7-5.3-5.1c0-2.9,2.4-5.3,5.6-5.3c3.2,0,5.3,2.6,5.3,5.1C98.4,31.1,96.4,34,92.8,34z
			 M95.5,32.2c0.5-0.6,0.6-1.5,0.6-2.4c0-1.8-0.9-5.6-3.6-5.6c-0.6,0-1.4,0.3-2,0.6c-0.9,0.6-1,1.7-1,2.7c0,2.2,1,5.7,3.8,5.7
			C94.1,33.4,94.9,32.8,95.5,32.2z"/>
		<path class="st1" d="M85.8,33.7l-3,0.6c-1.4,0.2-2.4,0.3-3.6,0.3c-6.1,0-8.3-4.4-8.3-8c0-4.2,3.2-8.1,8.8-8.1
			c1.2,0,2.4,0.2,3.3,0.5c1.7,0.5,2.4,1,2.9,1.4l-1.8,1.7l-0.9,0.2l0.5-0.9c-0.6-0.6-2-2-4.7-2c-3.3,0-6.1,2.7-6.1,6.5
			c0,4.1,3,8,7.8,8c1.4,0,2.2-0.3,2.7-0.5v-3.7L80.1,30l1.7-1h4.5l-0.5,0.5c0.2,0.2,0.2,0.3,0,0.5c0,0.2,0,0.9,0,1L85.8,33.7
			L85.8,33.7z"/>
		<path class="st1" d="M125.3,33c-0.6,0-0.9-0.2-0.9-1v-0.2V19.4v-0.2c0.2-0.9,0.3-0.9,1-1.4h-3l-1.7,0.9h1.7l0,0l0,0v12.8v0.6
			c0,0.5-0.2,0.5-0.5,1.2h3.9l0.9-0.5C126,33,125.6,33,125.3,33z"/>
		<path class="st1" d="M134.1,33.1c-0.2,0.2-0.5,0.3-0.6,0.3c-0.6,0.3-1.5,0.3-2,0.3c-0.6,0-1.8,0-2.9-0.9c-1.5-1-2.2-2.9-2.2-4.5
			c0-3.3,2.7-5.1,5-5.1c0.9,0,1.5,0.2,2.2,0.6c1,0.6,1.4,1.7,1.5,2.2l-5.1,2l-1.7,0.2c0.5,2.7,2.4,4.4,4.4,4.4
			c1.2,0,1.8-0.3,2.7-0.6L134.1,33.1z M132.1,26.8c0.3-0.2,0.6-0.3,0.6-0.5c0-0.9-1-1.8-2.2-1.8c-0.9,0-2.6,0.6-2.6,3
			c0,0.3,0,0.6,0,1.2L132.1,26.8z"/>
		<g>
			<path class="st1" d="M136.3,23.6V25h-0.2L136.3,23.6h-0.6v-0.2h1.2v0.2H136.3z"/>
			<path class="st1" d="M138.2,25v-1.5l0,0l-0.5,1.5h-0.2l-0.5-1.5l0,0V25h-0.2v-1.5h0.3l0.3,1.4l0,0l0.3-1.4h0.3V25H138.2z"/>
		</g>
	</g>
	<path class="st1" d="M34.9,12.9l26.2,14.6c1.2,0.7,1.2,2.5,0,3.2L34.9,45.4c-1.2,0.7-2.7-0.2-2.7-1.6V14.5
		C32.2,13.1,33.7,12.2,34.9,12.9z"/>
</g>
</svg>
