<?xml version="1.0" encoding="utf-8"?>
<!-- Generator: Adobe Illustrator 23.0.1, SVG Export Plug-In . SVG Version: 6.00 Build 0)  -->
<svg version="1.1" id="Layer_1" xmlns="http://www.w3.org/2000/svg" xmlns:xlink="http://www.w3.org/1999/xlink" x="0px" y="0px"
	 viewBox="0 0 60.9 15.3" style="enable-background:new 0 0 60.9 15.3;" xml:space="preserve">
<style type="text/css">
	.st0{fill:#E2E2E2;}
</style>
<g>
	<path class="st0" d="M1.4,1.8L1.4,1.8c0-0.4,0.1-0.7,0.4-0.9s0.6-0.3,1-0.3c0.4,0,0.7,0.1,1,0.3s0.4,0.5,0.4,0.8v0
		c0,0.3-0.1,0.6-0.4,0.8C3.5,2.9,3.2,3,2.8,3c-0.4,0-0.7-0.1-1-0.3C1.5,2.5,1.4,2.2,1.4,1.8z M1.6,11.5V5c0-0.3,0.1-0.6,0.4-0.9
		c0.2-0.2,0.5-0.4,0.9-0.4c0.3,0,0.6,0.1,0.9,0.4C3.9,4.4,4,4.7,4,5v6.5c0,0.3-0.1,0.6-0.4,0.9c-0.2,0.2-0.5,0.4-0.9,0.4
		c-0.3,0-0.6-0.1-0.9-0.4C1.7,12.1,1.6,11.8,1.6,11.5z"/>
	<path class="st0" d="M6.1,11.5V5c0-0.3,0.1-0.6,0.4-0.9C6.7,3.9,7,3.8,7.3,3.8c0.3,0,0.6,0.1,0.9,0.4C8.5,4.4,8.6,4.7,8.6,5v0.1
		c0.7-0.9,1.6-1.4,2.6-1.4c0.9,0,1.7,0.3,2.2,0.9C13.9,5.2,14.1,6,14.1,7v4.5c0,0.3-0.1,0.6-0.4,0.9c-0.2,0.2-0.5,0.4-0.9,0.4
		c-0.3,0-0.6-0.1-0.9-0.4c-0.2-0.2-0.4-0.5-0.4-0.9V7.8c0-0.6-0.1-1-0.4-1.3C11,6.1,10.6,6,10.1,6C9.7,6,9.3,6.1,9,6.4
		C8.7,6.7,8.6,7.2,8.6,7.8v3.7c0,0.3-0.1,0.6-0.4,0.9c-0.2,0.2-0.5,0.4-0.9,0.4c-0.3,0-0.6-0.1-0.9-0.4C6.2,12.1,6.1,11.8,6.1,11.5z
		"/>
	<path class="st0" d="M24.8,1.9v9.6c0,0.3-0.1,0.6-0.4,0.9c-0.2,0.2-0.5,0.4-0.9,0.4c-0.3,0-0.6-0.1-0.9-0.4
		c-0.2-0.2-0.4-0.5-0.4-0.9v-0.1c-0.7,0.9-1.6,1.4-2.7,1.4c-1.1,0-2-0.4-2.8-1.2c-0.8-0.8-1.2-1.9-1.2-3.3v0c0-1.4,0.4-2.5,1.2-3.3
		c0.8-0.8,1.7-1.2,2.8-1.2c1.1,0,2,0.4,2.7,1.3V1.9c0-0.3,0.1-0.6,0.4-0.9c0.2-0.2,0.5-0.4,0.9-0.4c0.3,0,0.6,0.1,0.9,0.4
		C24.7,1.2,24.8,1.5,24.8,1.9z M21.8,6.5c-0.4-0.5-0.9-0.7-1.5-0.7c-0.6,0-1.1,0.2-1.5,0.7c-0.4,0.4-0.6,1-0.6,1.7v0
		c0,0.7,0.2,1.3,0.6,1.7c0.4,0.5,0.9,0.7,1.5,0.7c0.6,0,1.1-0.2,1.5-0.7c0.4-0.5,0.6-1,0.6-1.7v0C22.4,7.5,22.2,7,21.8,6.5z"/>
	<path class="st0" d="M34.5,11.5c-0.9,0.9-2,1.3-3.4,1.3c-1.3,0-2.5-0.4-3.4-1.3c-0.9-0.9-1.3-1.9-1.3-3.2v0c0-1.3,0.5-2.3,1.4-3.2
		c0.9-0.9,2-1.3,3.4-1.3c1.3,0,2.5,0.4,3.4,1.3c0.9,0.9,1.3,1.9,1.3,3.2v0C35.9,9.5,35.4,10.6,34.5,11.5z M31.2,10.7
		c0.7,0,1.2-0.2,1.6-0.7c0.4-0.5,0.6-1,0.6-1.7v0c0-0.7-0.2-1.2-0.6-1.7c-0.4-0.5-1-0.7-1.7-0.7c-0.7,0-1.2,0.2-1.6,0.7
		c-0.4,0.5-0.6,1-0.6,1.7v0c0,0.7,0.2,1.2,0.6,1.7C29.9,10.5,30.5,10.7,31.2,10.7z"/>
	<path class="st0" d="M41.5,12.8c-1.3,0-2.4-0.4-3.3-1.3c-0.9-0.9-1.3-1.9-1.3-3.2v0c0-1.3,0.4-2.3,1.3-3.2c0.9-0.9,2-1.3,3.3-1.3
		c1.2,0,2.2,0.3,3,1c0.3,0.2,0.4,0.5,0.4,0.8c0,0.3-0.1,0.6-0.3,0.8c-0.2,0.2-0.5,0.3-0.8,0.3c-0.3,0-0.5-0.1-0.7-0.2
		c-0.5-0.4-1-0.6-1.5-0.6c-0.6,0-1.1,0.2-1.5,0.7c-0.4,0.5-0.6,1-0.6,1.7v0c0,0.7,0.2,1.3,0.6,1.7c0.4,0.5,0.9,0.7,1.6,0.7
		c0.6,0,1.1-0.2,1.6-0.6c0.2-0.2,0.4-0.2,0.7-0.2c0.3,0,0.5,0.1,0.7,0.3c0.2,0.2,0.3,0.5,0.3,0.7c0,0.3-0.1,0.6-0.4,0.8
		C43.8,12.5,42.7,12.8,41.5,12.8z"/>
	<path class="st0" d="M50.2,15.3c-1.1,0-2.2-0.2-3.2-0.6c-0.5-0.2-0.7-0.5-0.7-1c0-0.3,0.1-0.5,0.3-0.7c0.2-0.2,0.4-0.3,0.7-0.3
		c0.1,0,0.3,0,0.4,0.1c0.8,0.3,1.6,0.5,2.4,0.5c1.7,0,2.5-0.8,2.5-2.4v-0.4c-0.4,0.5-0.8,0.8-1.2,1.1c-0.4,0.2-1,0.4-1.6,0.4
		c-1.1,0-2-0.4-2.7-1.1c-0.8-0.7-1.1-1.7-1.1-3v0c0-1.2,0.4-2.2,1.1-3c0.8-0.7,1.7-1.1,2.7-1.1c1.1,0,2,0.4,2.8,1.3v0
		c0-0.3,0.1-0.6,0.4-0.9c0.2-0.2,0.5-0.4,0.9-0.4c0.3,0,0.6,0.1,0.9,0.4c0.2,0.2,0.4,0.5,0.4,0.9v5.6c0,1.6-0.4,2.7-1.1,3.4
		C53.2,14.9,51.9,15.3,50.2,15.3z M49,9.3c0.4,0.4,0.9,0.6,1.5,0.6c0.6,0,1.1-0.2,1.5-0.6c0.4-0.4,0.6-0.9,0.6-1.5v0
		c0-0.6-0.2-1.1-0.6-1.5c-0.4-0.4-0.9-0.6-1.5-0.6c-0.6,0-1.1,0.2-1.5,0.6c-0.4,0.4-0.6,0.9-0.6,1.5v0C48.4,8.4,48.6,8.9,49,9.3z"/>
	<path class="st0" d="M57,1.8L57,1.8c0-0.4,0.1-0.7,0.4-0.9c0.3-0.2,0.6-0.3,1-0.3c0.4,0,0.7,0.1,1,0.3c0.3,0.2,0.4,0.5,0.4,0.8v0
		c0,0.3-0.1,0.6-0.4,0.8c-0.3,0.2-0.6,0.3-1,0.3c-0.4,0-0.7-0.1-1-0.3C57.1,2.5,57,2.2,57,1.8z M57.1,11.5V5c0-0.3,0.1-0.6,0.4-0.9
		c0.2-0.2,0.5-0.4,0.9-0.4c0.3,0,0.6,0.1,0.9,0.4c0.2,0.2,0.4,0.5,0.4,0.9v6.5c0,0.3-0.1,0.6-0.4,0.9c-0.2,0.2-0.5,0.4-0.9,0.4
		c-0.3,0-0.6-0.1-0.9-0.4C57.3,12.1,57.1,11.8,57.1,11.5z"/>
</g>
</svg>
