<?xml version="1.0" encoding="utf-8"?>
<!-- Generator: Adobe Illustrator 24.3.0, SVG Export Plug-In . SVG Version: 6.00 Build 0)  -->
<svg version="1.1"
	 id="svg2" xmlns:cc="http://creativecommons.org/ns#" xmlns:dc="http://purl.org/dc/elements/1.1/" xmlns:rdf="http://www.w3.org/1999/02/22-rdf-syntax-ns#" xmlns:svg="http://www.w3.org/2000/svg"
	 xmlns="http://www.w3.org/2000/svg" xmlns:xlink="http://www.w3.org/1999/xlink" x="0px" y="0px" viewBox="0 0 250 250"
	 style="enable-background:new 0 0 250 250;" xml:space="preserve">
<style type="text/css">
	.st0{fill:none;}
	.st1{fill:#E44A48;}
	.st2{fill:#FFFFFF;}
</style>
<path class="st0" d="M47.4,280.6c-0.9,2.8-1.3,6.2-2.8,8.2c2.2,2.8,6.5,5.6,10.3,1.1c1.7-1.7,2.8-8,3.7-11c0.9-3.2,1.9-7.7,2.6-11
	c1.1-5,2.1-7.1-2.4-10.8c-2.1,3-1.7,4.3-4.7,7.5C51.3,267.7,48.9,276.1,47.4,280.6z"/>
<path class="st1" d="M217.3,112.5c-13.7-8.9-32.4-16.8-38.7-18.6c-4-1.2-4.6-4-7.1-7.4c-3.7-5.3-3.7-2.8-7.1-6.2l-16.7-4.6
	c-5,0-7.4-3.7-21.4-3.4c-12.4,0.3-22.9,4.6-31.9,12.1l-37.8,19.5c-6.8,9.6-7.4,9-13,9.6c-0.9-0.4-2.5-2-4.6-4.6
	c-1,5.2-1.5,10.6-1.5,16.1c0,48.2,39.2,87.5,87.5,87.5c0.9,0,1.9,0,2.8-0.1c10.8-14.1,14.8-37,18-40.5c3.7-2.8,9-12.1,10.5-14.9
	l1.2-0.3c0.3,0,0.6,0,0.6,0c0.6-0.3-0.6,2.2,0.9,0c0-0.3,0.3,0,0.3,0c0.9-1.9,0.9-2.5,2.5-3.7c1.5-1.2,7.1-1.9,9.6-3.4
	c2.8-1.5,0.6-0.6,2.8-2.5c8.7-7.7,29.1,6.8,44,11.1l0.3-0.9c-6.8-8.1-13-13.9-22.6-21.4c-7.7-5.6-20.1-12.1-23.5-13.9
	c5.9-3.1,13.9-3.1,21.7-2.5c7.8,1.2,16.8,2.9,25.9,5.3c2.9,0.8,5.8,1.6,8.7,2.5c0.9,0.3,3.4,3.1,4,4
	C234.6,125.9,227.3,119,217.3,112.5z"/>
<path class="st2" d="M222.8,133.1c-0.6,6.8-1.8,13.3-3.7,19.6c0.9,1.3,2,2.5,2.9,3.8c1,1.3,0.3,3.6-1.1,4.3
	c-1.6,0.8-3.2,0.8-4.8,0.6c-14.5,36.1-49.8,61.6-91,61.6c-54.1,0-98.1-44-98.1-98.1s44-98.1,98.1-98.1c48.9,0,89.6,36,96.9,82.9
	c0.6,0.4,1.1,0.7,1.7,1.1c6.6,4.3,12.6,8.6,17.5,13c-0.6-63.6-52.3-115-116.1-115C60.9,8.9,8.9,60.9,8.9,125s52,116.1,116.1,116.1
	c59.8,0,109-45.2,115.4-103.3c-3.8-1.1-7.7-2.2-11.5-3.2C226.8,134.1,224.8,133.6,222.8,133.1z"/>
</svg>
