<?xml version="1.0" encoding="utf-8"?>
<!-- Generator: Adobe Illustrator 24.3.0, SVG Export Plug-In . SVG Version: 6.00 Build 0)  -->
<svg version="1.1" xmlns="http://www.w3.org/2000/svg" xmlns:xlink="http://www.w3.org/1999/xlink" x="0px" y="0px"
	 viewBox="0 0 750 500" style="enable-background:new 0 0 750 500;" xml:space="preserve">
<style type="text/css">
	.st0{fill:#F4F4F4;}
	.st1{fill:url(#SVGID_1_);}
	.st2{fill:url(#SVGID_2_);}
	.st3{fill:url(#SVGID_3_);}
	.st4{fill:url(#SVGID_4_);}
	.st5{fill:url(#SVGID_5_);}
	.st6{fill:url(#SVGID_6_);}
	.st7{fill:url(#SVGID_7_);}
	.st8{fill:url(#SVGID_8_);}
	.st9{fill:url(#SVGID_9_);}
	.st10{fill:url(#SVGID_10_);}
	.st11{fill:url(#SVGID_11_);}
	.st12{fill:url(#SVGID_12_);}
	.st13{fill:url(#SVGID_13_);}
	.st14{fill:url(#SVGID_14_);}
	.st15{fill:#7E7E7E;}
	.st16{fill:#E28A5B;}
	.st17{fill:none;}
	.st18{fill:#494949;}
	.st19{fill:url(#SVGID_15_);}
	.st20{fill:url(#SVGID_16_);}
	.st21{fill:#D25A2E;}
	.st22{fill:#BB3F2E;}
	.st23{fill:url(#SVGID_17_);}
	.st24{fill:#961E27;}
	.st25{fill:url(#SVGID_18_);}
	.st26{fill:url(#SVGID_19_);}
	.st27{fill:url(#SVGID_20_);}
	.st28{fill:url(#SVGID_21_);}
	.st29{fill:#444D5B;}
	.st30{fill:url(#SVGID_22_);}
	.st31{fill:url(#SVGID_23_);}
	.st32{fill:url(#SVGID_24_);}
	.st33{fill:url(#SVGID_25_);}
	.st34{fill:url(#SVGID_26_);}
	.st35{fill:url(#SVGID_27_);}
	.st36{fill:url(#SVGID_28_);}
	.st37{fill:url(#SVGID_29_);}
	.st38{fill:url(#SVGID_30_);}
</style>
<g id="BACKGROUND">
	<rect class="st0" width="750" height="500"/>
</g>
<g id="OBJECTS">
	<g>
		<g>
			
				<image style="overflow:visible;opacity:0.2;" width="626" height="142" xlink:href="5122EA889A1F224E.png"  transform="matrix(1 0 0 1 64.2858 189.2858)">
			</image>
			<g>
				<g>
					<linearGradient id="SVGID_1_" gradientUnits="userSpaceOnUse" x1="75.7627" y1="257.2978" x2="672.7411" y2="257.2978">
						<stop  offset="0" style="stop-color:#E28A5B"/>
						<stop  offset="1" style="stop-color:#CA2E78"/>
					</linearGradient>
					<path class="st1" d="M672.7,257.3c-0.3,26.4-19.2,50.5-45.6,55.3c-23.2,4.3-47.1-6.1-59.3-26.6c0,0-0.1-0.1-0.1-0.1
						c-5.4-9.1-15-14.8-25.6-14.8h-13.8c-10.4,0-19.8,5.7-25,14.6c-8,13.6-21.4,23.9-37.6,26.9c-23.2,4.3-47.1-6.1-59.3-26.6
						c0,0-0.1-0.1-0.1-0.1c-5.4-9.1-15-14.8-25.6-14.8h-13.8c-10.4,0-19.8,5.7-25,14.6c-8,13.6-21.4,23.9-37.6,26.9
						c-23.2,4.3-47.1-6.1-59.3-26.6c0,0-0.1-0.1-0.1-0.1c-5.4-9.1-15-14.8-25.6-14.8h-13.8c-10.4,0-19.8,5.7-25,14.6
						c-8,13.6-21.4,23.9-37.6,26.9c-23.2,4.3-47.1-6.1-59.3-26.6c-12.2-20.5-9.7-46.7,5.4-65c14.8-17.9,40.8-24.9,62.5-16.7
						c12.6,4.8,22.7,13.6,29.2,24.7c5.2,9,14.9,14.4,25.3,14.4h13.6c10.6,0,20.2-5.8,25.6-15c1.5-2.6,3.3-5.1,5.2-7.5
						c14.8-17.9,40.8-24.9,62.5-16.7c12.6,4.8,22.7,13.6,29.2,24.7c5.2,9,14.9,14.4,25.4,14.4H381c10.6,0,20.2-5.8,25.6-15
						c1.5-2.6,3.3-5.1,5.2-7.5c14.8-17.9,40.8-24.9,62.5-16.7c12.6,4.8,22.7,13.6,29.2,24.7c5.2,9,14.9,14.4,25.4,14.4h13.6
						c10.6,0,20.2-5.8,25.6-15c1.5-2.6,3.3-5.1,5.2-7.5c14.8-17.9,40.8-24.9,62.5-16.7C657.9,212.8,672.5,233.7,672.7,257.3z"/>
				</g>
			</g>
		</g>
		<g>
			
				<image style="overflow:visible;opacity:0.5;" width="614" height="130" xlink:href="5122EA889A1F224D.png"  transform="matrix(1 0 0 1 70.2858 195.2858)">
			</image>
			<g>
				<g>
					<g>
						<g>
							<linearGradient id="SVGID_2_" gradientUnits="userSpaceOnUse" x1="97.9027" y1="218.6565" x2="180.8796" y2="312.7713">
								<stop  offset="0" style="stop-color:#FFFFFF"/>
								<stop  offset="1" style="stop-color:#BABCBE"/>
							</linearGradient>
							<circle class="st2" cx="132" cy="257.3" r="50.1"/>
						</g>
						<g>
							<linearGradient id="SVGID_3_" gradientUnits="userSpaceOnUse" x1="235.5927" y1="260.0308" x2="355.3239" y2="254.4619">
								<stop  offset="0" style="stop-color:#FFFFFF"/>
								<stop  offset="1" style="stop-color:#BABCBE"/>
							</linearGradient>
							<circle class="st3" cx="293.5" cy="257.3" r="50.1"/>
						</g>
						<g>
							<linearGradient id="SVGID_4_" gradientUnits="userSpaceOnUse" x1="413.5435" y1="235.8629" x2="501.2538" y2="281.3888">
								<stop  offset="0" style="stop-color:#FFFFFF"/>
								<stop  offset="1" style="stop-color:#BABCBE"/>
							</linearGradient>
							<circle class="st4" cx="454.9" cy="257.3" r="50.1"/>
						</g>
						<g>
							<linearGradient id="SVGID_5_" gradientUnits="userSpaceOnUse" x1="571.9037" y1="229.435" x2="657.1085" y2="282.8969">
								<stop  offset="0" style="stop-color:#FFFFFF"/>
								<stop  offset="1" style="stop-color:#BABCBE"/>
							</linearGradient>
							<circle class="st5" cx="616.4" cy="257.3" r="50.1"/>
						</g>
						<g>
							<g>
								<linearGradient id="SVGID_6_" gradientUnits="userSpaceOnUse" x1="132.0076" y1="281.5639" x2="132.0076" y2="83.3074">
									<stop  offset="0" style="stop-color:#FFFFFF"/>
									<stop  offset="1" style="stop-color:#6D6E70"/>
								</linearGradient>
								<circle class="st6" cx="132" cy="257.3" r="45.9"/>
							</g>
							<g>
								<linearGradient id="SVGID_7_" gradientUnits="userSpaceOnUse" x1="293.4637" y1="281.5639" x2="293.4637" y2="83.3074">
									<stop  offset="0" style="stop-color:#FFFFFF"/>
									<stop  offset="1" style="stop-color:#6D6E70"/>
								</linearGradient>
								<circle class="st7" cx="293.5" cy="257.3" r="45.9"/>
							</g>
							<g>
								<linearGradient id="SVGID_8_" gradientUnits="userSpaceOnUse" x1="454.9197" y1="281.5639" x2="454.9197" y2="83.3074">
									<stop  offset="0" style="stop-color:#FFFFFF"/>
									<stop  offset="1" style="stop-color:#6D6E70"/>
								</linearGradient>
								<circle class="st8" cx="454.9" cy="257.3" r="45.9"/>
							</g>
							<g>
								<linearGradient id="SVGID_9_" gradientUnits="userSpaceOnUse" x1="616.3758" y1="281.5639" x2="616.3758" y2="83.3074">
									<stop  offset="0" style="stop-color:#FFFFFF"/>
									<stop  offset="1" style="stop-color:#6D6E70"/>
								</linearGradient>
								<circle class="st9" cx="616.4" cy="257.3" r="45.9"/>
							</g>
						</g>
					</g>
					<g>
						<g>
							<g>
								<linearGradient id="SVGID_10_" gradientUnits="userSpaceOnUse" x1="119.5539" y1="259.7447" x2="145.0867" y2="259.7447">
									<stop  offset="0" style="stop-color:#BABCBE"/>
									<stop  offset="1" style="stop-color:#FFFFFF"/>
								</linearGradient>
								<path class="st10" d="M131.8,247c-2.3,0.1-4.5,1.1-5.4,3.4c-0.8,2.1-0.2,4.7,1.5,6.2c3.4,3.1,8.8,2.4,12.5,5.2
									c3,2.4,2.2,7.2-0.2,9.6c-2.7,2.7-6.9,3.3-10.6,2.7c-1.9-0.3-3.8-1-5.3-2.4c-1.5-1.4-2-3.3-2-5.4c-0.8,0.8-1.5,1.5-2.3,2.3
									c2.8,0,5.7,0,8.5,0c-0.8-0.8-1.5-1.5-2.3-2.3c0.2,2.2,1,4.4,3.1,5.5c2,1,4.9,1,6.8-0.3c2.4-1.6,3.1-4.9,1.6-7.4
									c-1.3-2.2-4.1-3.1-6.4-3.7c-2.4-0.7-5.4-1.2-7.4-3c-1.6-1.4-1.9-4-1.5-6c1-4.6,5.9-6.2,10.1-6.1c2.4,0,5.1,0.5,7,2.1
									c1.7,1.4,2.2,3.5,2.3,5.6c0.8-0.8,1.5-1.5,2.3-2.3c-2.9,0-5.8,0-8.7,0c0.8,0.8,1.5,1.5,2.3,2.3
									C137.3,249.6,135.4,247.1,131.8,247c-2.9-0.1-2.9,4.5,0,4.6c0.8,0,1.2,0.6,1.3,1.4c0.2,1.2,0.9,2.3,2.3,2.3
									c2.9,0,5.8,0,8.7,0c1.2,0,2.3-1,2.3-2.3c-0.2-4.9-2.4-8.9-6.9-10.9c-4.6-2-10.5-1.9-15,0.3c-4.6,2.2-7.2,7-6.6,12
									c0.3,2.7,1.5,5.2,3.7,6.9c2.2,1.7,5.1,2.6,7.7,3.3c1.3,0.3,2.8,0.6,3.9,1.3c0.6,0.4,1.2,1.2,0.5,1.8
									c-0.5,0.4-1.6,0.3-1.9,0.2c-0.6-0.2-0.8-0.7-0.9-1.6c-0.1-1.2-0.9-2.3-2.3-2.3c-2.8,0-5.7,0-8.5,0c-1.2,0-2.3,1-2.3,2.3
									c0.1,4.6,2.2,8.6,6.4,10.7c4.1,2,9.4,2.4,13.8,0.9c4.1-1.4,7.9-4.7,8.7-9.1c1-4.9-1-9.7-5.6-12c-2.6-1.3-5.4-1.8-8.1-2.7
									c-0.8-0.3-2.1-0.6-2.3-1.6c-0.1-0.8,0.4-1,1.1-1C134.8,251.4,134.8,246.9,131.8,247z"/>
							</g>
						</g>
						<g>
							<g>
								<linearGradient id="SVGID_11_" gradientUnits="userSpaceOnUse" x1="269.6234" y1="259.8109" x2="319.0399" y2="259.8109">
									<stop  offset="0" style="stop-color:#BABCBE"/>
									<stop  offset="1" style="stop-color:#FFFFFF"/>
								</linearGradient>
								<path class="st11" d="M309.8,245.7c2.9,0,5.7,0,8.6,0c-0.7-1-1.5-1.9-2.2-2.9c-2.7,9.6-5.4,19.2-8,28.7
									c-0.4,1.3-0.8,2.7-1.1,4c0.7-0.6,1.5-1.1,2.2-1.7c-3.1,0-6.1,0-9.2,0c0.7,0.6,1.5,1.1,2.2,1.7c-1.7-6-3.3-12.1-5-18.1
									c-0.2-0.9-0.5-1.8-0.7-2.6c-0.6-2.2-3.8-2.2-4.4,0c-1.7,6-3.3,12.1-5,18.1c-0.2,0.9-0.5,1.8-0.7,2.6
									c0.7-0.6,1.5-1.1,2.2-1.7c-3.1,0-6.1,0-9.2,0c0.7,0.6,1.5,1.1,2.2,1.7c-2.7-9.6-5.4-19.2-8.1-28.7c-0.4-1.3-0.8-2.7-1.1-4
									c-0.7,1-1.5,1.9-2.2,2.9c2.8,0,5.7,0,8.5,0c-0.7-0.6-1.5-1.1-2.2-1.7c1.7,6.9,3.3,13.7,5,20.6c0.2,1,0.5,2,0.7,3
									c0.5,2.2,3.9,2.2,4.4,0c1.7-6.9,3.4-13.7,5.1-20.6c0.2-1,0.5-2,0.7-3c-0.7,0.6-1.5,1.1-2.2,1.7c3,0,6,0,9.1,0
									c-0.7-0.6-1.5-1.1-2.2-1.7c1.6,6.8,3.3,13.5,4.9,20.3c0.2,1,0.5,2,0.7,2.9c0.5,2.1,3.9,2.2,4.4,0c1.4-6.8,2.8-13.6,4.3-20.3
									c0.2-1,0.4-1.9,0.6-2.9c0.6-2.9-3.8-4.1-4.4-1.2c-1.4,6.8-2.8,13.6-4.3,20.3c-0.2,1-0.4,1.9-0.6,2.9c1.5,0,2.9,0,4.4,0
									c-1.6-6.8-3.3-13.5-4.9-20.3c-0.2-1-0.5-2-0.7-2.9c-0.2-1-1.2-1.7-2.2-1.7c-3,0-6,0-9.1,0c-1,0-2,0.7-2.2,1.7
									c-1.7,6.9-3.4,13.7-5.1,20.6c-0.2,1-0.5,2-0.7,3c1.5,0,2.9,0,4.4,0c-1.7-6.9-3.3-13.7-5-20.6c-0.2-1-0.5-2-0.7-3
									c-0.2-1-1.2-1.7-2.2-1.7c-2.8,0-5.7,0-8.5,0c-1.5,0-2.6,1.5-2.2,2.9c2.7,9.6,5.4,19.2,8.1,28.7c0.4,1.3,0.8,2.7,1.1,4
									c0.3,1,1.2,1.7,2.2,1.7c3.1,0,6.1,0,9.2,0c1,0,1.9-0.7,2.2-1.7c1.7-6,3.3-12.1,5-18.1c0.2-0.9,0.5-1.8,0.7-2.6
									c-1.5,0-2.9,0-4.4,0c1.7,6,3.3,12.1,5,18.1c0.2,0.9,0.5,1.8,0.7,2.6c0.3,1,1.2,1.7,2.2,1.7c3.1,0,6.1,0,9.2,0
									c1,0,1.9-0.7,2.2-1.7c2.7-9.6,5.4-19.2,8-28.7c0.4-1.3,0.8-2.7,1.1-4c0.4-1.4-0.7-2.9-2.2-2.9c-2.9,0-5.7,0-8.6,0
									C306.9,241.1,306.9,245.7,309.8,245.7z"/>
							</g>
						</g>
						<g>
							<g>
								<linearGradient id="SVGID_12_" gradientUnits="userSpaceOnUse" x1="438.3557" y1="259.7437" x2="472.8577" y2="259.7437">
									<stop  offset="0" style="stop-color:#BABCBE"/>
									<stop  offset="1" style="stop-color:#FFFFFF"/>
								</linearGradient>
								<path class="st12" d="M445.3,270.2c-4.2-4.2-5.5-11-3-16.5c2.5-5.7,8.5-8.7,14.6-8.3c6,0.4,11.4,4.6,12.8,10.5
									c1.5,5.9-0.5,12.4-5.6,15.9C458.3,275.7,450.3,274.9,445.3,270.2c-2.1-2-5.4,1.2-3.2,3.2c5.9,5.6,14.7,7,22,3.6
									c7.3-3.4,11.2-11.4,10.5-19.3c-0.8-7.9-6.4-14.8-14.3-16.5c-7.9-1.8-16.3,1.2-20.8,8c-4.9,7.4-3.6,18,2.6,24.2
									C444.2,275.5,447.4,272.2,445.3,270.2z"/>
								<linearGradient id="SVGID_13_" gradientUnits="userSpaceOnUse" x1="438.3557" y1="259.7326" x2="472.8577" y2="259.7326">
									<stop  offset="0" style="stop-color:#BABCBE"/>
									<stop  offset="1" style="stop-color:#FFFFFF"/>
								</linearGradient>
								<path class="st13" d="M463.5,268.2c3.1-3.5,3.9-9.1,2.2-13.5c-1.8-4.5-6.2-7.1-11-6.7c-4.8,0.4-8.7,3.7-9.7,8.5
									c-1,4.7,0.1,10,4.2,13C453.4,272.6,460,272,463.5,268.2c2-2.1-1.2-5.4-3.2-3.2c-1.9,2-5.3,2.5-7.7,1.3
									c-1.3-0.7-2.2-1.7-2.8-3.1c-0.5-1.3-0.7-3-0.5-4.5c0.2-2.9,1.8-5.3,4.6-6c2.9-0.7,5.8,0.3,7.2,2.8c1.6,2.7,1.3,7.2-0.7,9.5
									c-0.8,0.9-0.9,2.3,0,3.2C461.1,269,462.7,269.1,463.5,268.2z"/>
							</g>
						</g>
						<g>
							<g>
								<linearGradient id="SVGID_14_" gradientUnits="userSpaceOnUse" x1="603.2921" y1="259.8109" x2="630.0861" y2="259.8109">
									<stop  offset="0" style="stop-color:#BABCBE"/>
									<stop  offset="1" style="stop-color:#FFFFFF"/>
								</linearGradient>
								<path class="st14" d="M606,249.5c0-2,0-4,0-6.1c-0.8,0.8-1.5,1.5-2.3,2.3c7.5,0,15.1,0,22.6,0c1.1,0,2.2,0,3.2,0
									c-0.8-0.8-1.5-1.5-2.3-2.3c0,2,0,4,0,6.1c0.8-0.8,1.5-1.5,2.3-2.3c-3,0-6,0-9,0c-1.2,0-2.3,1-2.3,2.3c0,7.8,0,15.6,0,23.4
									c0,1.1,0,2.2,0,3.3c0.8-0.8,1.5-1.5,2.3-2.3c-2.7,0-5.3,0-8,0c0.8,0.8,1.5,1.5,2.3,2.3c0-7.8,0-15.6,0-23.4
									c0-1.1,0-2.2,0-3.3c0-1.2-1-2.3-2.3-2.3c-3,0-5.9,0-8.9,0c-2.9,0-2.9,4.6,0,4.6c3,0,5.9,0,8.9,0c-0.8-0.8-1.5-1.5-2.3-2.3
									c0,7.8,0,15.6,0,23.4c0,1.1,0,2.2,0,3.3c0,1.2,1,2.3,2.3,2.3c2.7,0,5.3,0,8,0c1.2,0,2.3-1,2.3-2.3c0-7.8,0-15.6,0-23.4
									c0-1.1,0-2.2,0-3.3c-0.8,0.8-1.5,1.5-2.3,2.3c3,0,6,0,9,0c1.2,0,2.3-1,2.3-2.3c0-2,0-4,0-6.1c0-1.2-1-2.3-2.3-2.3
									c-7.5,0-15.1,0-22.6,0c-1.1,0-2.2,0-3.2,0c-1.2,0-2.3,1-2.3,2.3c0,2,0,4,0,6.1C601.5,252.4,606,252.4,606,249.5z"/>
							</g>
						</g>
					</g>
					<g>
						<g>
							<path class="st15" d="M131.8,249.3c-1,0-1.8,0.3-2.5,0.8c-0.6,0.5-1,1.3-1,2.3c0,1,0.3,1.8,0.9,2.4c0.6,0.6,1.4,1.1,2.3,1.4
								c0.9,0.3,2,0.6,3.2,0.9c1.2,0.3,2.3,0.7,3.5,1.1c1.2,0.4,2.2,0.9,3.2,1.6c0.9,0.6,1.7,1.5,2.3,2.6c0.6,1.1,0.9,2.5,0.9,4.1
								c0,2.8-1.1,5.1-3.4,7.1c-2.3,2-5.2,3-8.9,3c-3.7,0-6.7-0.9-8.9-2.7c-2.3-1.8-3.4-4.3-3.4-7.6h8.5c0.2,2.6,1.6,3.9,4,3.9
								c1.2,0,2.1-0.3,2.7-0.9c0.7-0.6,1-1.4,1-2.3c0-0.9-0.3-1.7-0.9-2.3c-0.6-0.6-1.4-1.1-2.3-1.4c-1-0.3-2-0.7-3.2-1
								c-1.2-0.3-2.3-0.7-3.5-1.1c-1.2-0.4-2.2-1-3.2-1.6c-1-0.6-1.7-1.5-2.3-2.6c-0.6-1.1-0.9-2.5-0.9-4c0-3.1,1.1-5.5,3.4-7.3
								c2.3-1.8,5.2-2.8,8.7-2.8c3.5,0,6.4,0.8,8.6,2.4c2.2,1.6,3.3,4.1,3.4,7.6h-8.7c-0.1-1.2-0.5-2.1-1.1-2.7
								C133.6,249.6,132.8,249.3,131.8,249.3z"/>
							<path class="st15" d="M309.8,243.4h8.6l-9.2,32.8h-9.2l-5.7-20.8l-5.7,20.8h-9.2l-9.3-32.8h8.5l5.7,23.6l5.8-23.6h9.1
								l5.6,23.2L309.8,243.4z"/>
							<path class="st15" d="M443.7,271.8c-3.3-3.2-4.9-7.2-4.9-12.1c0-4.9,1.6-8.9,4.9-12c3.3-3.2,7.2-4.7,12-4.7
								c4.7,0,8.7,1.6,11.9,4.7c3.2,3.2,4.8,7.2,4.8,12c0,4.9-1.6,8.9-4.9,12.1c-3.2,3.2-7.2,4.8-11.9,4.8
								C450.9,276.5,446.9,274.9,443.7,271.8z M461.9,266.6c1.6-1.7,2.4-4,2.4-6.9c0-2.9-0.8-5.2-2.4-6.9c-1.6-1.7-3.7-2.6-6.3-2.6
								c-2.6,0-4.7,0.9-6.3,2.6c-1.6,1.7-2.4,4-2.4,6.9c0,2.9,0.8,5.2,2.4,6.9c1.6,1.7,3.7,2.6,6.3,2.6
								C458.2,269.2,460.3,268.3,461.9,266.6z"/>
							<path class="st15" d="M603.7,249.5v-6.1h25.9v6.1h-9v26.7h-8v-26.7H603.7z"/>
						</g>
					</g>
				</g>
			</g>
		</g>
	</g>
	<g>
		<g>
			<g>
				<path class="st16" d="M97,369.1c-1.9,0-3.1-1.1-3.1-2.5h1c0.1,0.8,0.6,1.7,2.1,1.7c1.3,0,2-0.8,2-1.7c0-2.7-5.1-1-5.1-4.5
					c0-1.4,1.2-2.5,3-2.5c1.8,0,2.8,1,3,2.2h-1c-0.1-0.6-0.7-1.4-2-1.5c-1.1,0-2,0.6-2,1.7c0,2.7,5.1,1,5.1,4.5
					C100,367.8,98.9,369.1,97,369.1z"/>
				<path class="st16" d="M101.1,359.8h6.1v0.8h-2.6v8.5h-0.9v-8.5h-2.6V359.8z"/>
				<path class="st16" d="M111.4,359.8c2.1,0,3.1,1.2,3.1,2.7c0,1.3-0.7,2.3-2.3,2.6l2.4,3.9h-1.1l-2.3-3.9h-1.7v3.9h-0.9v-9.2
					H111.4z M111.4,360.5h-1.9v3.8h1.9c1.5,0,2.2-0.8,2.2-1.9C113.6,361.3,113,360.5,111.4,360.5z"/>
				<path class="st16" d="M121.2,360.5h-3.9v3.5h3.5v0.8h-3.5v3.5h3.9v0.8h-4.8v-9.3h4.8V360.5z"/>
				<path class="st16" d="M130,359.8v9.2h-0.9l-5.1-7.8v7.8H123v-9.2h0.9l5.1,7.8v-7.8H130z"/>
				<path class="st16" d="M140.5,362.5h-1.1c-0.5-1.2-1.6-2-3.1-2c-2.1,0-3.6,1.5-3.6,3.9s1.6,3.9,3.6,3.9c1.9,0,3.4-1.3,3.5-3.4
					h-3.9v-0.8h4.9v0.7c-0.1,2.4-2,4.3-4.5,4.3c-2.6,0-4.6-1.9-4.6-4.7c0-2.8,2-4.7,4.6-4.7C138.3,359.7,139.8,360.7,140.5,362.5z"
					/>
				<path class="st16" d="M141.8,359.8h6.1v0.8h-2.6v8.5h-0.9v-8.5h-2.6V359.8z"/>
				<path class="st16" d="M155.3,364.7h-5v4.3h-0.9v-9.2h0.9v4.2h5v-4.2h0.9v9.2h-0.9V364.7z"/>
				<path class="st16" d="M161.1,369.1c-1.9,0-3.1-1.1-3.1-2.5h1c0.1,0.8,0.6,1.7,2.1,1.7c1.3,0,2-0.8,2-1.7c0-2.7-5.1-1-5.1-4.5
					c0-1.4,1.2-2.5,3-2.5c1.8,0,2.8,1,3,2.2h-1c-0.1-0.6-0.7-1.4-2-1.5c-1.1,0-2,0.6-2,1.7c0,2.7,5.1,1,5.1,4.5
					C164.1,367.8,163.1,369.1,161.1,369.1z"/>
			</g>
		</g>
		<g>
			<rect x="59.9" y="386.9" class="st17" width="140" height="43.9"/>
			<path class="st18" d="M96.7,393c-1.2,0-1.9-0.7-1.9-1.5h0.6c0,0.5,0.4,1.1,1.3,1.1c0.8,0,1.3-0.5,1.3-1.1c0-1.7-3.2-0.6-3.2-2.8
				c0-0.9,0.7-1.5,1.8-1.5c1.1,0,1.8,0.6,1.9,1.4h-0.6c-0.1-0.4-0.5-0.9-1.2-0.9c-0.7,0-1.2,0.4-1.2,1c0,1.7,3.2,0.6,3.2,2.8
				C98.5,392.2,97.9,393,96.7,393z"/>
			<path class="st18" d="M99.7,386.9h0.6v6.1h-0.6V386.9z"/>
			<path class="st18" d="M101.6,387.2c0-0.2,0.2-0.4,0.4-0.4s0.4,0.2,0.4,0.4c0,0.2-0.2,0.4-0.4,0.4S101.6,387.4,101.6,387.2z
				 M101.8,388.5h0.6v4.5h-0.6V388.5z"/>
			<path class="st18" d="M110.3,390.4c0-1-0.5-1.5-1.3-1.5c-0.8,0-1.4,0.5-1.4,1.6v2.4h-0.6v-2.6c0-1-0.5-1.5-1.3-1.5
				c-0.8,0-1.4,0.5-1.4,1.6v2.4h-0.6v-4.5h0.6v0.8c0.3-0.6,0.9-0.9,1.5-0.9c0.7,0,1.4,0.4,1.7,1.1c0.2-0.7,0.9-1.1,1.6-1.1
				c1,0,1.8,0.6,1.8,1.9v2.6h-0.6V390.4z"/>
			<path class="st18" d="M116.4,393c-1.3,0-2.2-0.9-2.2-2.3c0-1.4,1-2.3,2.2-2.3c1.3,0,2.2,0.9,2.2,2.3
				C118.7,392.1,117.7,393,116.4,393z M116.4,392.5c0.8,0,1.7-0.6,1.7-1.8s-0.8-1.8-1.7-1.8s-1.7,0.6-1.7,1.8
				S115.5,392.5,116.4,392.5z"/>
			<path class="st18" d="M120.4,393h-0.6v-4.5h0.6v0.8c0.2-0.6,0.8-0.9,1.5-0.9v0.6h-0.2c-0.7,0-1.4,0.3-1.4,1.5V393z"/>
			<path class="st18" d="M124.7,388.4c0.9,0,1.5,0.5,1.8,1v-1h0.6v4.6c0,1.3-0.9,2.1-2.1,2.1c-1.2,0-2-0.6-2.1-1.5h0.6
				c0.2,0.6,0.8,1,1.6,1c0.9,0,1.5-0.6,1.5-1.6V392c-0.3,0.6-0.9,1.1-1.8,1.1c-1.2,0-2.1-0.9-2.1-2.3
				C122.5,389.3,123.4,388.4,124.7,388.4z M124.8,388.9c-0.9,0-1.7,0.7-1.7,1.8c0,1.1,0.7,1.8,1.7,1.8c0.9,0,1.7-0.7,1.7-1.8
				C126.5,389.6,125.7,388.9,124.8,388.9z"/>
			<path class="st18" d="M130.4,388.4c0.9,0,1.5,0.5,1.8,1.1v-1h0.6v4.5h-0.6v-1c-0.3,0.6-0.9,1.1-1.8,1.1c-1.2,0-2.1-0.9-2.1-2.3
				C128.2,389.3,129.1,388.4,130.4,388.4z M130.5,388.9c-0.9,0-1.7,0.7-1.7,1.8c0,1.1,0.7,1.8,1.7,1.8c0.9,0,1.7-0.7,1.7-1.8
				C132.2,389.6,131.4,388.9,130.5,388.9z"/>
			<path class="st18" d="M137.5,390.4c0-1-0.5-1.5-1.4-1.5c-0.8,0-1.4,0.5-1.4,1.6v2.5h-0.6v-4.5h0.6v0.8c0.3-0.6,0.9-0.8,1.5-0.8
				c1,0,1.8,0.6,1.8,1.9v2.6h-0.6V390.4z"/>
			<path class="st18" d="M139.4,387.2c0-0.2,0.2-0.4,0.4-0.4s0.4,0.2,0.4,0.4c0,0.2-0.2,0.4-0.4,0.4S139.4,387.4,139.4,387.2z
				 M139.5,388.5h0.6v4.5h-0.6V388.5z"/>
			<path class="st18" d="M144.1,389l-2.3,3.5h2.4v0.5h-3v-0.5l2.3-3.5h-2.3v-0.5h2.9V389z"/>
			<path class="st18" d="M146.9,388.4c0.9,0,1.5,0.5,1.8,1.1v-1h0.6v4.5h-0.6v-1c-0.3,0.6-0.9,1.1-1.8,1.1c-1.2,0-2.1-0.9-2.1-2.3
				C144.7,389.3,145.6,388.4,146.9,388.4z M147,388.9c-0.9,0-1.7,0.7-1.7,1.8c0,1.1,0.7,1.8,1.7,1.8c0.9,0,1.7-0.7,1.7-1.8
				C148.6,389.6,147.9,388.9,147,388.9z"/>
			<path class="st18" d="M150.8,389h-0.6v-0.5h0.6v-1.1h0.6v1.1h1.2v0.5h-1.2v2.8c0,0.6,0.2,0.7,0.7,0.7h0.5v0.5H152
				c-0.8,0-1.2-0.3-1.2-1.2V389z"/>
			<path class="st18" d="M153.5,387.2c0-0.2,0.2-0.4,0.4-0.4s0.4,0.2,0.4,0.4c0,0.2-0.2,0.4-0.4,0.4S153.5,387.4,153.5,387.2z
				 M153.6,388.5h0.6v4.5h-0.6V388.5z"/>
			<path class="st18" d="M157.6,393c-1.3,0-2.2-0.9-2.2-2.3c0-1.4,1-2.3,2.2-2.3c1.3,0,2.2,0.9,2.2,2.3
				C159.9,392.1,158.9,393,157.6,393z M157.6,392.5c0.8,0,1.7-0.6,1.7-1.8s-0.8-1.8-1.7-1.8s-1.7,0.6-1.7,1.8
				S156.7,392.5,157.6,392.5z"/>
			<path class="st18" d="M164.4,390.4c0-1-0.5-1.5-1.4-1.5c-0.8,0-1.4,0.5-1.4,1.6v2.5H161v-4.5h0.6v0.8c0.3-0.6,0.9-0.8,1.5-0.8
				c1,0,1.8,0.6,1.8,1.9v2.6h-0.6V390.4z"/>
			<path class="st18" d="M88.8,398.9h0.6v5.7h-0.6V398.9z"/>
			<path class="st18" d="M94.2,402.1c0-1-0.5-1.5-1.4-1.5c-0.8,0-1.4,0.5-1.4,1.6v2.5h-0.6v-4.5h0.6v0.8c0.3-0.6,0.9-0.8,1.5-0.8
				c1,0,1.8,0.6,1.8,1.9v2.6h-0.6V402.1z"/>
			<path class="st18" d="M96.3,400.7h-0.6v-0.5h0.6V399h0.6v1.1h1.2v0.5h-1.2v2.8c0,0.6,0.2,0.7,0.7,0.7h0.5v0.5h-0.6
				c-0.8,0-1.2-0.3-1.2-1.2V400.7z"/>
			<path class="st18" d="M100.9,404.7c-1.3,0-2.2-0.9-2.2-2.3c0-1.4,0.9-2.3,2.2-2.3c1.3,0,2.1,0.9,2.1,2.1c0,0.2,0,0.3,0,0.5h-3.7
				c0,1.1,0.8,1.6,1.6,1.6c0.8,0,1.3-0.4,1.4-1h0.6C102.8,404.1,102.1,404.7,100.9,404.7z M99.3,402.2h3.2c0-1-0.7-1.6-1.6-1.6
				C100.1,400.6,99.4,401.1,99.3,402.2z"/>
			<path class="st18" d="M104.8,404.7h-0.6v-4.5h0.6v0.8c0.2-0.6,0.8-0.9,1.5-0.9v0.6h-0.2c-0.7,0-1.4,0.3-1.4,1.5V404.7z"/>
			<path class="st18" d="M110.7,402.1c0-1-0.5-1.5-1.4-1.5c-0.8,0-1.4,0.5-1.4,1.6v2.5h-0.6v-4.5h0.6v0.8c0.3-0.6,0.9-0.8,1.5-0.8
				c1,0,1.8,0.6,1.8,1.9v2.6h-0.6V402.1z"/>
			<path class="st18" d="M114.6,400.1c0.9,0,1.5,0.5,1.8,1.1v-1h0.6v4.5h-0.6v-1c-0.3,0.6-0.9,1.1-1.8,1.1c-1.2,0-2.1-0.9-2.1-2.3
				C112.4,401,113.3,400.1,114.6,400.1z M114.7,400.6c-0.9,0-1.7,0.7-1.7,1.8c0,1.1,0.7,1.8,1.7,1.8c0.9,0,1.7-0.7,1.7-1.8
				C116.3,401.3,115.6,400.6,114.7,400.6z"/>
			<path class="st18" d="M118.5,400.7h-0.6v-0.5h0.6V399h0.6v1.1h1.2v0.5h-1.2v2.8c0,0.6,0.2,0.7,0.7,0.7h0.5v0.5h-0.6
				c-0.8,0-1.2-0.3-1.2-1.2V400.7z"/>
			<path class="st18" d="M121.2,398.9c0-0.2,0.2-0.4,0.4-0.4s0.4,0.2,0.4,0.4c0,0.2-0.2,0.4-0.4,0.4S121.2,399.1,121.2,398.9z
				 M121.3,400.2h0.6v4.5h-0.6V400.2z"/>
			<path class="st18" d="M125.3,404.7c-1.3,0-2.2-0.9-2.2-2.3c0-1.4,1-2.3,2.2-2.3c1.3,0,2.2,0.9,2.2,2.3
				C127.5,403.8,126.5,404.7,125.3,404.7z M125.3,404.2c0.8,0,1.7-0.6,1.7-1.8s-0.8-1.8-1.7-1.8s-1.7,0.6-1.7,1.8
				S124.4,404.2,125.3,404.2z"/>
			<path class="st18" d="M132.1,402.1c0-1-0.5-1.5-1.4-1.5c-0.8,0-1.4,0.5-1.4,1.6v2.5h-0.6v-4.5h0.6v0.8c0.3-0.6,0.9-0.8,1.5-0.8
				c1,0,1.8,0.6,1.8,1.9v2.6h-0.6V402.1z"/>
			<path class="st18" d="M136,400.1c0.9,0,1.5,0.5,1.8,1.1v-1h0.6v4.5h-0.6v-1c-0.3,0.6-0.9,1.1-1.8,1.1c-1.2,0-2.1-0.9-2.1-2.3
				C133.8,401,134.7,400.1,136,400.1z M136.1,400.6c-0.9,0-1.7,0.7-1.7,1.8c0,1.1,0.7,1.8,1.7,1.8c0.9,0,1.7-0.7,1.7-1.8
				C137.7,401.3,137,400.6,136.1,400.6z"/>
			<path class="st18" d="M139.8,398.6h0.6v6.1h-0.6V398.6z"/>
			<path class="st18" d="M145.8,400.1c0.9,0,1.5,0.5,1.8,1.1v-1h0.6v6.6h-0.6v-3.1c-0.2,0.6-0.9,1.1-1.8,1.1c-1.2,0-2.1-0.9-2.1-2.3
				C143.6,401,144.5,400.1,145.8,400.1z M145.9,400.6c-0.9,0-1.7,0.7-1.7,1.8c0,1.1,0.7,1.8,1.7,1.8c0.9,0,1.7-0.7,1.7-1.8
				C147.6,401.3,146.8,400.6,145.9,400.6z"/>
			<path class="st18" d="M153.5,404.7h-0.6v-0.8c-0.3,0.6-0.9,0.9-1.5,0.9c-1,0-1.8-0.6-1.8-1.9v-2.6h0.6v2.6c0,1,0.5,1.5,1.4,1.5
				c0.8,0,1.4-0.5,1.4-1.6v-2.4h0.6V404.7z"/>
			<path class="st18" d="M156.8,400.1c0.9,0,1.5,0.5,1.8,1.1v-1h0.6v4.5h-0.6v-1c-0.3,0.6-0.9,1.1-1.8,1.1c-1.2,0-2.1-0.9-2.1-2.3
				C154.7,401,155.6,400.1,156.8,400.1z M156.9,400.6c-0.9,0-1.7,0.7-1.7,1.8c0,1.1,0.7,1.8,1.7,1.8c0.9,0,1.7-0.7,1.7-1.8
				C158.6,401.3,157.8,400.6,156.9,400.6z"/>
			<path class="st18" d="M160.6,398.6h0.6v6.1h-0.6V398.6z"/>
			<path class="st18" d="M162.5,398.9c0-0.2,0.2-0.4,0.4-0.4s0.4,0.2,0.4,0.4c0,0.2-0.2,0.4-0.4,0.4S162.5,399.1,162.5,398.9z
				 M162.6,400.2h0.6v4.5h-0.6V400.2z"/>
			<path class="st18" d="M164.8,400.7h-0.6v-0.5h0.6V399h0.6v1.1h1.2v0.5h-1.2v2.8c0,0.6,0.2,0.7,0.7,0.7h0.5v0.5H166
				c-0.8,0-1.2-0.3-1.2-1.2V400.7z"/>
			<path class="st18" d="M171,400.2h0.6l-2.7,6.6h-0.6l0.9-2.1l-1.8-4.5h0.6l1.5,3.8L171,400.2z"/>
			<path class="st18" d="M84.3,410.6h0.6v3.6c0,1.2,0.6,1.7,1.5,1.7s1.5-0.5,1.5-1.7v-3.6h0.6v3.6c0,1.5-0.9,2.2-2.1,2.2
				s-2.1-0.7-2.1-2.2V410.6z"/>
			<path class="st18" d="M92.3,411.8c1.2,0,2.1,0.9,2.1,2.3c0,1.4-0.9,2.3-2.1,2.3c-0.9,0-1.5-0.5-1.8-1.1v3.1h-0.6v-6.6h0.6v1
				C90.7,412.3,91.4,411.8,92.3,411.8z M92.1,412.3c-0.9,0-1.7,0.7-1.7,1.8c0,1.1,0.8,1.8,1.7,1.8c0.9,0,1.7-0.7,1.7-1.8
				C93.8,413,93.1,412.3,92.1,412.3z"/>
			<path class="st18" d="M97.5,411.8c0.8,0,1.5,0.4,1.8,1v-2.6h0.6v6.1h-0.6v-1c-0.3,0.6-0.9,1.1-1.8,1.1c-1.2,0-2.1-0.9-2.1-2.3
				C95.3,412.7,96.3,411.8,97.5,411.8z M97.6,412.3c-0.9,0-1.7,0.7-1.7,1.8c0,1.1,0.7,1.8,1.7,1.8c0.9,0,1.7-0.7,1.7-1.8
				C99.3,413,98.5,412.3,97.6,412.3z"/>
			<path class="st18" d="M103.2,411.8c0.9,0,1.5,0.5,1.8,1.1v-1h0.6v4.5H105v-1c-0.3,0.6-0.9,1.1-1.8,1.1c-1.2,0-2.1-0.9-2.1-2.3
				C101,412.7,101.9,411.8,103.2,411.8z M103.3,412.3c-0.9,0-1.7,0.7-1.7,1.8c0,1.1,0.7,1.8,1.7,1.8c0.9,0,1.7-0.7,1.7-1.8
				C105,413,104.2,412.3,103.3,412.3z"/>
			<path class="st18" d="M107.1,412.3h-0.6v-0.5h0.6v-1.1h0.6v1.1h1.2v0.5h-1.2v2.8c0,0.6,0.2,0.7,0.7,0.7h0.5v0.5h-0.6
				c-0.8,0-1.2-0.3-1.2-1.2V412.3z"/>
			<path class="st18" d="M111.8,416.4c-1.3,0-2.2-0.9-2.2-2.3c0-1.4,0.9-2.3,2.2-2.3c1.3,0,2.1,0.9,2.1,2.1c0,0.2,0,0.3,0,0.5h-3.7
				c0,1.1,0.8,1.6,1.6,1.6c0.8,0,1.3-0.4,1.4-1h0.6C113.6,415.8,112.9,416.4,111.8,416.4z M110.1,413.9h3.2c0-1-0.7-1.6-1.6-1.6
				C110.9,412.3,110.2,412.8,110.1,413.9z"/>
			<path class="st18" d="M117,411.8c0.8,0,1.5,0.4,1.8,1v-2.6h0.6v6.1h-0.6v-1c-0.3,0.6-0.9,1.1-1.8,1.1c-1.2,0-2.1-0.9-2.1-2.3
				C114.8,412.7,115.7,411.8,117,411.8z M117.1,412.3c-0.9,0-1.7,0.7-1.7,1.8c0,1.1,0.7,1.8,1.7,1.8c0.9,0,1.7-0.7,1.7-1.8
				C118.7,413,118,412.3,117.1,412.3z"/>
			<path class="st18" d="M123.1,412.3h-0.6v-0.5h0.6v-1.1h0.6v1.1h1.2v0.5h-1.2v2.8c0,0.6,0.2,0.7,0.7,0.7h0.5v0.5h-0.6
				c-0.8,0-1.2-0.3-1.2-1.2V412.3z"/>
			<path class="st18" d="M127.7,416.4c-1.3,0-2.2-0.9-2.2-2.3c0-1.4,0.9-2.3,2.2-2.3c1.3,0,2.1,0.9,2.1,2.1c0,0.2,0,0.3,0,0.5h-3.7
				c0,1.1,0.8,1.6,1.6,1.6c0.8,0,1.3-0.4,1.4-1h0.6C129.5,415.8,128.8,416.4,127.7,416.4z M126.1,413.9h3.2c0-1-0.7-1.6-1.6-1.6
				C126.8,412.3,126.1,412.8,126.1,413.9z"/>
			<path class="st18" d="M132.9,411.8c1.1,0,1.9,0.6,2.1,1.5h-0.6c-0.1-0.6-0.7-1-1.4-1c-0.9,0-1.6,0.6-1.6,1.8
				c0,1.2,0.7,1.8,1.6,1.8c0.8,0,1.3-0.4,1.4-1h0.6c-0.2,0.9-0.9,1.5-2.1,1.5c-1.3,0-2.2-0.9-2.2-2.3S131.7,411.8,132.9,411.8z"/>
			<path class="st18" d="M136.2,410.3h0.6v2.4c0.3-0.6,0.9-0.8,1.6-0.8c1,0,1.8,0.6,1.8,1.9v2.6h-0.6v-2.6c0-1-0.5-1.5-1.4-1.5
				c-0.8,0-1.4,0.5-1.4,1.6v2.5h-0.6V410.3z"/>
			<path class="st18" d="M144.9,413.8c0-1-0.5-1.5-1.4-1.5c-0.8,0-1.4,0.5-1.4,1.6v2.5h-0.6v-4.5h0.6v0.8c0.3-0.6,0.9-0.8,1.5-0.8
				c1,0,1.8,0.6,1.8,1.9v2.6h-0.6V413.8z"/>
			<path class="st18" d="M148.8,416.4c-1.3,0-2.2-0.9-2.2-2.3c0-1.4,1-2.3,2.2-2.3c1.3,0,2.2,0.9,2.2,2.3
				C151.1,415.5,150.1,416.4,148.8,416.4z M148.8,415.9c0.8,0,1.7-0.6,1.7-1.8s-0.8-1.8-1.7-1.8s-1.7,0.6-1.7,1.8
				S148,415.9,148.8,415.9z"/>
			<path class="st18" d="M152.3,410.3h0.6v6.1h-0.6V410.3z"/>
			<path class="st18" d="M156.3,416.4c-1.3,0-2.2-0.9-2.2-2.3c0-1.4,1-2.3,2.2-2.3c1.3,0,2.2,0.9,2.2,2.3
				C158.5,415.5,157.5,416.4,156.3,416.4z M156.3,415.9c0.8,0,1.7-0.6,1.7-1.8s-0.8-1.8-1.7-1.8s-1.7,0.6-1.7,1.8
				S155.4,415.9,156.3,415.9z"/>
			<path class="st18" d="M161.6,411.8c0.9,0,1.5,0.5,1.8,1v-1h0.6v4.6c0,1.3-0.9,2.1-2.1,2.1c-1.2,0-2-0.6-2.1-1.5h0.6
				c0.2,0.6,0.8,1,1.6,1c0.9,0,1.5-0.6,1.5-1.6v-1.1c-0.3,0.6-0.9,1.1-1.8,1.1c-1.2,0-2.1-0.9-2.1-2.3
				C159.5,412.7,160.4,411.8,161.6,411.8z M161.7,412.3c-0.9,0-1.7,0.7-1.7,1.8c0,1.1,0.7,1.8,1.7,1.8c0.9,0,1.7-0.7,1.7-1.8
				C163.4,413,162.6,412.3,161.7,412.3z"/>
			<path class="st18" d="M165.3,410.6c0-0.2,0.2-0.4,0.4-0.4s0.4,0.2,0.4,0.4c0,0.2-0.2,0.4-0.4,0.4S165.3,410.8,165.3,410.6z
				 M165.4,411.9h0.6v4.5h-0.6V411.9z"/>
			<path class="st18" d="M169.4,416.4c-1.3,0-2.2-0.9-2.2-2.3c0-1.4,0.9-2.3,2.2-2.3c1.3,0,2.1,0.9,2.1,2.1c0,0.2,0,0.3,0,0.5h-3.7
				c0,1.1,0.8,1.6,1.6,1.6c0.8,0,1.3-0.4,1.4-1h0.6C171.2,415.8,170.5,416.4,169.4,416.4z M167.8,413.9h3.2c0-1-0.7-1.6-1.6-1.6
				C168.5,412.3,167.8,412.8,167.8,413.9z"/>
			<path class="st18" d="M174.2,416.4c-1,0-1.7-0.5-1.8-1.3h0.6c0,0.5,0.5,0.8,1.2,0.8c0.6,0,1-0.3,1-0.8c0-1.1-2.7-0.5-2.7-2.1
				c0-0.7,0.6-1.2,1.6-1.2c1,0,1.6,0.5,1.6,1.4h-0.6c0-0.5-0.4-0.9-1.1-0.9c-0.6,0-1,0.3-1,0.7c0,1.2,2.7,0.6,2.7,2.2
				C175.8,415.9,175.1,416.4,174.2,416.4z"/>
			<path class="st18" d="M82.4,425.4h-3.1v2.7h-0.6v-5.7h0.6v2.6h3.1v-2.6H83v5.7h-0.6V425.4z"/>
			<path class="st18" d="M84.3,422.3c0-0.2,0.2-0.4,0.4-0.4s0.4,0.2,0.4,0.4c0,0.2-0.2,0.4-0.4,0.4S84.3,422.5,84.3,422.3z
				 M84.5,423.6h0.6v4.5h-0.6V423.6z"/>
			<path class="st18" d="M88.4,423.5c0.9,0,1.5,0.5,1.8,1v-1h0.6v4.6c0,1.3-0.9,2.1-2.1,2.1c-1.2,0-2-0.6-2.1-1.5H87
				c0.2,0.6,0.8,1,1.6,1c0.9,0,1.5-0.6,1.5-1.6v-1.1c-0.3,0.6-0.9,1.1-1.8,1.1c-1.2,0-2.1-0.9-2.1-2.3
				C86.2,424.4,87.1,423.5,88.4,423.5z M88.5,424c-0.9,0-1.7,0.7-1.7,1.8c0,1.1,0.7,1.8,1.7,1.8c0.9,0,1.7-0.7,1.7-1.8
				C90.1,424.7,89.4,424,88.5,424z"/>
			<path class="st18" d="M92.2,422h0.6v2.4c0.3-0.6,0.9-0.8,1.6-0.8c1,0,1.8,0.6,1.8,1.9v2.6h-0.6v-2.6c0-1-0.5-1.5-1.4-1.5
				c-0.8,0-1.4,0.5-1.4,1.6v2.5h-0.6V422z"/>
			<path class="st18" d="M97.5,422h0.6v6.1h-0.6V422z"/>
			<path class="st18" d="M102.6,423.6h0.6l-2.7,6.6H100l0.9-2.1l-1.8-4.5h0.6l1.5,3.8L102.6,423.6z"/>
			<path class="st18" d="M108.2,428.1c-1.3,0-2.2-0.9-2.2-2.3c0-1.4,0.9-2.3,2.2-2.3c1.3,0,2.1,0.9,2.1,2.1c0,0.2,0,0.3,0,0.5h-3.7
				c0,1.1,0.8,1.6,1.6,1.6c0.8,0,1.3-0.4,1.4-1h0.6C110.1,427.5,109.3,428.1,108.2,428.1z M106.6,425.6h3.2c0-1-0.7-1.6-1.6-1.6
				C107.4,424,106.6,424.5,106.6,425.6z"/>
			<path class="st18" d="M112.6,426.2l-1.1,1.8h-0.6l1.4-2.2l-1.4-2.2h0.6l1.1,1.8l1.1-1.8h0.6l-1.4,2.2l1.4,2.3h-0.6L112.6,426.2z"
				/>
			<path class="st18" d="M117.7,423.5c1.2,0,2.1,0.9,2.1,2.3c0,1.4-0.9,2.3-2.1,2.3c-0.9,0-1.5-0.5-1.8-1.1v3.1h-0.6v-6.6h0.6v1
				C116.2,424,116.8,423.5,117.7,423.5z M117.6,424c-0.9,0-1.7,0.7-1.7,1.8c0,1.1,0.8,1.8,1.7,1.8c0.9,0,1.7-0.7,1.7-1.8
				C119.3,424.7,118.5,424,117.6,424z"/>
			<path class="st18" d="M123,428.1c-1.3,0-2.2-0.9-2.2-2.3c0-1.4,0.9-2.3,2.2-2.3c1.3,0,2.1,0.9,2.1,2.1c0,0.2,0,0.3,0,0.5h-3.7
				c0,1.1,0.8,1.6,1.6,1.6c0.8,0,1.3-0.4,1.4-1h0.6C124.9,427.5,124.1,428.1,123,428.1z M121.4,425.6h3.2c0-1-0.7-1.6-1.6-1.6
				C122.2,424,121.5,424.5,121.4,425.6z"/>
			<path class="st18" d="M126.9,428h-0.6v-4.5h0.6v0.8c0.2-0.6,0.8-0.9,1.5-0.9v0.6h-0.2c-0.7,0-1.4,0.3-1.4,1.5V428z"/>
			<path class="st18" d="M129.3,422.3c0-0.2,0.2-0.4,0.4-0.4s0.4,0.2,0.4,0.4c0,0.2-0.2,0.4-0.4,0.4S129.3,422.5,129.3,422.3z
				 M129.4,423.6h0.6v4.5h-0.6V423.6z"/>
			<path class="st18" d="M133.4,428.1c-1.3,0-2.2-0.9-2.2-2.3c0-1.4,0.9-2.3,2.2-2.3c1.3,0,2.1,0.9,2.1,2.1c0,0.2,0,0.3,0,0.5h-3.7
				c0,1.1,0.8,1.6,1.6,1.6c0.8,0,1.3-0.4,1.4-1h0.6C135.2,427.5,134.5,428.1,133.4,428.1z M131.7,425.6h3.2c0-1-0.7-1.6-1.6-1.6
				C132.5,424,131.8,424.5,131.7,425.6z"/>
			<path class="st18" d="M140,425.5c0-1-0.5-1.5-1.4-1.5c-0.8,0-1.4,0.5-1.4,1.6v2.5h-0.6v-4.5h0.6v0.8c0.3-0.6,0.9-0.8,1.5-0.8
				c1,0,1.8,0.6,1.8,1.9v2.6H140V425.5z"/>
			<path class="st18" d="M143.9,423.5c1.1,0,1.9,0.6,2.1,1.5h-0.6c-0.1-0.6-0.7-1-1.4-1c-0.9,0-1.6,0.6-1.6,1.8
				c0,1.2,0.7,1.8,1.6,1.8c0.8,0,1.3-0.4,1.4-1h0.6c-0.2,0.9-0.9,1.5-2.1,1.5c-1.3,0-2.2-0.9-2.2-2.3S142.7,423.5,143.9,423.5z"/>
			<path class="st18" d="M149.1,428.1c-1.3,0-2.2-0.9-2.2-2.3c0-1.4,0.9-2.3,2.2-2.3c1.3,0,2.1,0.9,2.1,2.1c0,0.2,0,0.3,0,0.5h-3.7
				c0,1.1,0.8,1.6,1.6,1.6c0.8,0,1.3-0.4,1.4-1h0.6C150.9,427.5,150.2,428.1,149.1,428.1z M147.5,425.6h3.2c0-1-0.7-1.6-1.6-1.6
				C148.3,424,147.5,424.5,147.5,425.6z"/>
			<path class="st18" d="M154.3,423.5c0.8,0,1.5,0.4,1.8,1V422h0.6v6.1h-0.6v-1c-0.3,0.6-0.9,1.1-1.8,1.1c-1.2,0-2.1-0.9-2.1-2.3
				C152.2,424.4,153.1,423.5,154.3,423.5z M154.4,424c-0.9,0-1.7,0.7-1.7,1.8c0,1.1,0.7,1.8,1.7,1.8c0.9,0,1.7-0.7,1.7-1.8
				C156.1,424.7,155.3,424,154.4,424z"/>
			<path class="st18" d="M160.4,424h-0.6v-0.5h0.6v-1.1h0.6v1.1h1.2v0.5H161v2.8c0,0.6,0.2,0.7,0.7,0.7h0.5v0.5h-0.6
				c-0.8,0-1.2-0.3-1.2-1.2V424z"/>
			<path class="st18" d="M165,428.1c-1.3,0-2.2-0.9-2.2-2.3c0-1.4,0.9-2.3,2.2-2.3c1.3,0,2.1,0.9,2.1,2.1c0,0.2,0,0.3,0,0.5h-3.7
				c0,1.1,0.8,1.6,1.6,1.6c0.8,0,1.3-0.4,1.4-1h0.6C166.9,427.5,166.2,428.1,165,428.1z M163.4,425.6h3.2c0-1-0.7-1.6-1.6-1.6
				C164.2,424,163.5,424.5,163.4,425.6z"/>
			<path class="st18" d="M170.2,423.5c0.9,0,1.5,0.5,1.8,1.1v-1h0.6v4.5H172v-1c-0.3,0.6-0.9,1.1-1.8,1.1c-1.2,0-2.1-0.9-2.1-2.3
				C168.1,424.4,169,423.5,170.2,423.5z M170.4,424c-0.9,0-1.7,0.7-1.7,1.8c0,1.1,0.7,1.8,1.7,1.8c0.9,0,1.7-0.7,1.7-1.8
				C172,424.7,171.3,424,170.4,424z"/>
			<path class="st18" d="M180.6,425.5c0-1-0.5-1.5-1.3-1.5c-0.8,0-1.4,0.5-1.4,1.6v2.4h-0.6v-2.6c0-1-0.5-1.5-1.3-1.5
				c-0.8,0-1.4,0.5-1.4,1.6v2.4H174v-4.5h0.6v0.8c0.3-0.6,0.9-0.9,1.5-0.9c0.7,0,1.4,0.4,1.7,1.1c0.2-0.7,0.9-1.1,1.6-1.1
				c1,0,1.8,0.6,1.8,1.9v2.6h-0.6V425.5z"/>
		</g>
		<linearGradient id="SVGID_15_" gradientUnits="userSpaceOnUse" x1="154.1459" y1="330.7609" x2="496.4599" y2="323.4517">
			<stop  offset="0" style="stop-color:#E28A5B"/>
			<stop  offset="1" style="stop-color:#CA2E78"/>
		</linearGradient>
		<path class="st19" d="M133.8,331.3c0,2.7-2.2,4.8-4.8,4.8c-2.7,0-4.8-2.2-4.8-4.8c0-2.7,2.2-4.8,4.8-4.8
			C131.6,326.5,133.8,328.6,133.8,331.3z"/>
	</g>
	<g>
		<g>
			<rect x="245.4" y="386.9" class="st17" width="96" height="43.9"/>
			<path class="st18" d="M277.5,387.2h3.1v0.5h-2.5v2.1h2.1v0.5h-2.1v2.6h-0.6V387.2z"/>
			<path class="st18" d="M285.4,393h-0.6v-0.8c-0.3,0.6-0.9,0.9-1.5,0.9c-1,0-1.8-0.6-1.8-1.9v-2.6h0.6v2.6c0,1,0.5,1.5,1.4,1.5
				c0.8,0,1.4-0.5,1.4-1.6v-2.4h0.6V393z"/>
			<path class="st18" d="M290.2,390.4c0-1-0.5-1.5-1.4-1.5c-0.8,0-1.4,0.5-1.4,1.6v2.5h-0.6v-4.5h0.6v0.8c0.3-0.6,0.9-0.8,1.5-0.8
				c1,0,1.8,0.6,1.8,1.9v2.6h-0.6V390.4z"/>
			<path class="st18" d="M294,388.4c0.8,0,1.5,0.4,1.8,1v-2.6h0.6v6.1h-0.6v-1c-0.3,0.6-0.9,1.1-1.8,1.1c-1.2,0-2.1-0.9-2.1-2.3
				C291.9,389.3,292.8,388.4,294,388.4z M294.1,388.9c-0.9,0-1.7,0.7-1.7,1.8c0,1.1,0.7,1.8,1.7,1.8c0.9,0,1.7-0.7,1.7-1.8
				C295.8,389.6,295,388.9,294.1,388.9z"/>
			<path class="st18" d="M297.7,387.2c0-0.2,0.2-0.4,0.4-0.4s0.4,0.2,0.4,0.4c0,0.2-0.2,0.4-0.4,0.4S297.7,387.4,297.7,387.2z
				 M297.8,388.5h0.6v4.5h-0.6V388.5z"/>
			<path class="st18" d="M303.2,390.4c0-1-0.5-1.5-1.4-1.5c-0.8,0-1.4,0.5-1.4,1.6v2.5h-0.6v-4.5h0.6v0.8c0.3-0.6,0.9-0.8,1.5-0.8
				c1,0,1.8,0.6,1.8,1.9v2.6h-0.6V390.4z"/>
			<path class="st18" d="M307.1,388.4c0.9,0,1.5,0.5,1.8,1v-1h0.6v4.6c0,1.3-0.9,2.1-2.1,2.1c-1.2,0-2-0.6-2.1-1.5h0.6
				c0.2,0.6,0.8,1,1.6,1c0.9,0,1.5-0.6,1.5-1.6V392c-0.3,0.6-0.9,1.1-1.8,1.1c-1.2,0-2.1-0.9-2.1-2.3
				C304.9,389.3,305.8,388.4,307.1,388.4z M307.2,388.9c-0.9,0-1.7,0.7-1.7,1.8c0,1.1,0.7,1.8,1.7,1.8c0.9,0,1.7-0.7,1.7-1.8
				C308.8,389.6,308.1,388.9,307.2,388.9z"/>
			<path class="st18" d="M265.7,399h0.6l2.2,4.9l2.2-4.9h0.6v5.7h-0.6v-4.5l-2,4.5h-0.4l-2-4.5v4.5h-0.6V399z"/>
			<path class="st18" d="M274.7,400.1c0.9,0,1.5,0.5,1.8,1.1v-1h0.6v4.5h-0.6v-1c-0.3,0.6-0.9,1.1-1.8,1.1c-1.2,0-2.1-0.9-2.1-2.3
				C272.6,401,273.5,400.1,274.7,400.1z M274.8,400.6c-0.9,0-1.7,0.7-1.7,1.8c0,1.1,0.7,1.8,1.7,1.8c0.9,0,1.7-0.7,1.7-1.8
				C276.5,401.3,275.7,400.6,274.8,400.6z"/>
			<path class="st18" d="M281.9,402.1c0-1-0.5-1.5-1.4-1.5c-0.8,0-1.4,0.5-1.4,1.6v2.5h-0.6v-4.5h0.6v0.8c0.3-0.6,0.9-0.8,1.5-0.8
				c1,0,1.8,0.6,1.8,1.9v2.6h-0.6V402.1z"/>
			<path class="st18" d="M285.7,400.1c0.9,0,1.5,0.5,1.8,1.1v-1h0.6v4.5h-0.6v-1c-0.3,0.6-0.9,1.1-1.8,1.1c-1.2,0-2.1-0.9-2.1-2.3
				C283.6,401,284.5,400.1,285.7,400.1z M285.8,400.6c-0.9,0-1.7,0.7-1.7,1.8c0,1.1,0.7,1.8,1.7,1.8c0.9,0,1.7-0.7,1.7-1.8
				C287.5,401.3,286.8,400.6,285.8,400.6z"/>
			<path class="st18" d="M291.4,400.1c0.9,0,1.5,0.5,1.8,1v-1h0.6v4.6c0,1.3-0.9,2.1-2.1,2.1c-1.2,0-2-0.6-2.1-1.5h0.6
				c0.2,0.6,0.8,1,1.6,1c0.9,0,1.5-0.6,1.5-1.6v-1.1c-0.3,0.6-0.9,1.1-1.8,1.1c-1.2,0-2.1-0.9-2.1-2.3
				C289.3,401,290.2,400.1,291.4,400.1z M291.5,400.6c-0.9,0-1.7,0.7-1.7,1.8c0,1.1,0.7,1.8,1.7,1.8c0.9,0,1.7-0.7,1.7-1.8
				C293.2,401.3,292.5,400.6,291.5,400.6z"/>
			<path class="st18" d="M297.2,404.7c-1.3,0-2.2-0.9-2.2-2.3c0-1.4,0.9-2.3,2.2-2.3c1.3,0,2.1,0.9,2.1,2.1c0,0.2,0,0.3,0,0.5h-3.7
				c0,1.1,0.8,1.6,1.6,1.6c0.8,0,1.3-0.4,1.4-1h0.6C299,404.1,298.3,404.7,297.2,404.7z M295.6,402.2h3.2c0-1-0.7-1.6-1.6-1.6
				C296.3,400.6,295.6,401.1,295.6,402.2z"/>
			<path class="st18" d="M307.1,402.1c0-1-0.5-1.5-1.3-1.5c-0.8,0-1.4,0.5-1.4,1.6v2.4h-0.6v-2.6c0-1-0.5-1.5-1.3-1.5
				c-0.8,0-1.4,0.5-1.4,1.6v2.4h-0.6v-4.5h0.6v0.8c0.3-0.6,0.9-0.9,1.5-0.9c0.7,0,1.4,0.4,1.7,1.1c0.2-0.7,0.9-1.1,1.6-1.1
				c1,0,1.8,0.6,1.8,1.9v2.6h-0.6V402.1z"/>
			<path class="st18" d="M311,404.7c-1.3,0-2.2-0.9-2.2-2.3c0-1.4,0.9-2.3,2.2-2.3c1.3,0,2.1,0.9,2.1,2.1c0,0.2,0,0.3,0,0.5h-3.7
				c0,1.1,0.8,1.6,1.6,1.6c0.8,0,1.3-0.4,1.4-1h0.6C312.9,404.1,312.1,404.7,311,404.7z M309.4,402.2h3.2c0-1-0.7-1.6-1.6-1.6
				C310.2,400.6,309.5,401.1,309.4,402.2z"/>
			<path class="st18" d="M317.7,402.1c0-1-0.5-1.5-1.4-1.5c-0.8,0-1.4,0.5-1.4,1.6v2.5h-0.6v-4.5h0.6v0.8c0.3-0.6,0.9-0.8,1.5-0.8
				c1,0,1.8,0.6,1.8,1.9v2.6h-0.6V402.1z"/>
			<path class="st18" d="M319.7,400.7h-0.6v-0.5h0.6V399h0.6v1.1h1.2v0.5h-1.2v2.8c0,0.6,0.2,0.7,0.7,0.7h0.5v0.5H321
				c-0.8,0-1.2-0.3-1.2-1.2V400.7z"/>
			<path class="st18" d="M258.8,413.9h-1.2v2.5H257v-5.7h1.7c1.3,0,1.9,0.7,1.9,1.7C260.7,413.2,260.1,413.9,258.8,413.9z
				 M258.8,413.4c1,0,1.3-0.4,1.3-1.2c0-0.7-0.4-1.2-1.3-1.2h-1.2v2.3H258.8z"/>
			<path class="st18" d="M262.3,416.4h-0.6v-4.5h0.6v0.8c0.2-0.6,0.8-0.9,1.5-0.9v0.6h-0.2c-0.7,0-1.4,0.3-1.4,1.5V416.4z"/>
			<path class="st18" d="M266.6,416.4c-1.3,0-2.2-0.9-2.2-2.3c0-1.4,1-2.3,2.2-2.3c1.3,0,2.2,0.9,2.2,2.3
				C268.9,415.5,267.9,416.4,266.6,416.4z M266.6,415.9c0.8,0,1.7-0.6,1.7-1.8s-0.8-1.8-1.7-1.8s-1.7,0.6-1.7,1.8
				S265.8,415.9,266.6,415.9z"/>
			<path class="st18" d="M272,411.8c0.8,0,1.5,0.4,1.8,1v-2.6h0.6v6.1h-0.6v-1c-0.3,0.6-0.9,1.1-1.8,1.1c-1.2,0-2.1-0.9-2.1-2.3
				C269.8,412.7,270.7,411.8,272,411.8z M272.1,412.3c-0.9,0-1.7,0.7-1.7,1.8c0,1.1,0.7,1.8,1.7,1.8c0.9,0,1.7-0.7,1.7-1.8
				C273.8,413,273,412.3,272.1,412.3z"/>
			<path class="st18" d="M279.7,416.4h-0.6v-0.8c-0.3,0.6-0.9,0.9-1.5,0.9c-1,0-1.8-0.6-1.8-1.9v-2.6h0.6v2.6c0,1,0.5,1.5,1.4,1.5
				c0.8,0,1.4-0.5,1.4-1.6v-2.4h0.6V416.4z"/>
			<path class="st18" d="M283,411.8c1.1,0,1.9,0.6,2.1,1.5h-0.6c-0.1-0.6-0.7-1-1.4-1c-0.9,0-1.6,0.6-1.6,1.8c0,1.2,0.7,1.8,1.6,1.8
				c0.8,0,1.3-0.4,1.4-1h0.6c-0.2,0.9-0.9,1.5-2.1,1.5c-1.3,0-2.2-0.9-2.2-2.3S281.8,411.8,283,411.8z"/>
			<path class="st18" d="M286.3,412.3h-0.6v-0.5h0.6v-1.1h0.6v1.1h1.2v0.5h-1.2v2.8c0,0.6,0.2,0.7,0.7,0.7h0.5v0.5h-0.6
				c-0.8,0-1.2-0.3-1.2-1.2V412.3z"/>
			<path class="st18" d="M289,410.6c0-0.2,0.2-0.4,0.4-0.4s0.4,0.2,0.4,0.4c0,0.2-0.2,0.4-0.4,0.4S289,410.8,289,410.6z
				 M289.2,411.9h0.6v4.5h-0.6V411.9z"/>
			<path class="st18" d="M293.1,416.4c-1.3,0-2.2-0.9-2.2-2.3c0-1.4,1-2.3,2.2-2.3c1.3,0,2.2,0.9,2.2,2.3
				C295.4,415.5,294.4,416.4,293.1,416.4z M293.1,415.9c0.8,0,1.7-0.6,1.7-1.8s-0.8-1.8-1.7-1.8s-1.7,0.6-1.7,1.8
				S292.3,415.9,293.1,415.9z"/>
			<path class="st18" d="M300,413.8c0-1-0.5-1.5-1.4-1.5c-0.8,0-1.4,0.5-1.4,1.6v2.5h-0.6v-4.5h0.6v0.8c0.3-0.6,0.9-0.8,1.5-0.8
				c1,0,1.8,0.6,1.8,1.9v2.6H300V413.8z"/>
			<path class="st18" d="M304.2,412.3h-0.6v-0.5h0.6v-0.3c0-1,0.5-1.4,1.6-1.4v0.5c-0.8,0-1,0.3-1,0.9v0.3h1v0.5h-1v4h-0.6V412.3z"
				/>
			<path class="st18" d="M308.5,411.8c0.9,0,1.5,0.5,1.8,1.1v-1h0.6v4.5h-0.6v-1c-0.3,0.6-0.9,1.1-1.8,1.1c-1.2,0-2.1-0.9-2.1-2.3
				C306.4,412.7,307.3,411.8,308.5,411.8z M308.6,412.3c-0.9,0-1.7,0.7-1.7,1.8c0,1.1,0.7,1.8,1.7,1.8c0.9,0,1.7-0.7,1.7-1.8
				C310.3,413,309.6,412.3,308.6,412.3z"/>
			<path class="st18" d="M314.3,411.8c1.1,0,1.9,0.6,2.1,1.5h-0.6c-0.1-0.6-0.7-1-1.4-1c-0.9,0-1.6,0.6-1.6,1.8
				c0,1.2,0.7,1.8,1.6,1.8c0.8,0,1.3-0.4,1.4-1h0.6c-0.2,0.9-0.9,1.5-2.1,1.5c-1.3,0-2.2-0.9-2.2-2.3S313,411.8,314.3,411.8z"/>
			<path class="st18" d="M317.4,410.6c0-0.2,0.2-0.4,0.4-0.4s0.4,0.2,0.4,0.4c0,0.2-0.2,0.4-0.4,0.4S317.4,410.8,317.4,410.6z
				 M317.5,411.9h0.6v4.5h-0.6V411.9z"/>
			<path class="st18" d="M319.5,410.3h0.6v6.1h-0.6V410.3z"/>
			<path class="st18" d="M321.4,410.6c0-0.2,0.2-0.4,0.4-0.4s0.4,0.2,0.4,0.4c0,0.2-0.2,0.4-0.4,0.4S321.4,410.8,321.4,410.6z
				 M321.5,411.9h0.6v4.5h-0.6V411.9z"/>
			<path class="st18" d="M323.7,412.3H323v-0.5h0.6v-1.1h0.6v1.1h1.2v0.5h-1.2v2.8c0,0.6,0.2,0.7,0.7,0.7h0.5v0.5h-0.6
				c-0.8,0-1.2-0.3-1.2-1.2V412.3z"/>
			<path class="st18" d="M329.8,411.9h0.6l-2.7,6.6h-0.6l0.9-2.1l-1.8-4.5h0.6l1.5,3.8L329.8,411.9z"/>
			<path class="st18" d="M273.7,422.4h0.6l2.2,4.9l2.2-4.9h0.6v5.7h-0.6v-4.5l-2,4.5h-0.4l-2-4.5v4.5h-0.6V422.4z"/>
			<path class="st18" d="M282.7,423.5c0.9,0,1.5,0.5,1.8,1.1v-1h0.6v4.5h-0.6v-1c-0.3,0.6-0.9,1.1-1.8,1.1c-1.2,0-2.1-0.9-2.1-2.3
				C280.6,424.4,281.5,423.5,282.7,423.5z M282.8,424c-0.9,0-1.7,0.7-1.7,1.8c0,1.1,0.7,1.8,1.7,1.8c0.9,0,1.7-0.7,1.7-1.8
				C284.5,424.7,283.8,424,282.8,424z"/>
			<path class="st18" d="M287.1,428h-0.6v-4.5h0.6v0.8c0.2-0.6,0.8-0.9,1.5-0.9v0.6h-0.2c-0.7,0-1.4,0.3-1.4,1.5V428z"/>
			<path class="st18" d="M289.6,422h0.6v3.6l1.8-2h0.8l-2.1,2.2l2.1,2.3H292l-1.9-2v2h-0.6V422z"/>
			<path class="st18" d="M295.4,428.1c-1.3,0-2.2-0.9-2.2-2.3c0-1.4,0.9-2.3,2.2-2.3c1.3,0,2.1,0.9,2.1,2.1c0,0.2,0,0.3,0,0.5h-3.7
				c0,1.1,0.8,1.6,1.6,1.6c0.8,0,1.3-0.4,1.4-1h0.6C297.2,427.5,296.5,428.1,295.4,428.1z M293.8,425.6h3.2c0-1-0.7-1.6-1.6-1.6
				C294.6,424,293.8,424.5,293.8,425.6z"/>
			<path class="st18" d="M298.8,424h-0.6v-0.5h0.6v-1.1h0.6v1.1h1.2v0.5h-1.2v2.8c0,0.6,0.2,0.7,0.7,0.7h0.5v0.5H300
				c-0.8,0-1.2-0.3-1.2-1.2V424z"/>
			<path class="st18" d="M301.5,422.3c0-0.2,0.2-0.4,0.4-0.4s0.4,0.2,0.4,0.4c0,0.2-0.2,0.4-0.4,0.4S301.5,422.5,301.5,422.3z
				 M301.6,423.6h0.6v4.5h-0.6V423.6z"/>
			<path class="st18" d="M307,425.5c0-1-0.5-1.5-1.4-1.5c-0.8,0-1.4,0.5-1.4,1.6v2.5h-0.6v-4.5h0.6v0.8c0.3-0.6,0.9-0.8,1.5-0.8
				c1,0,1.8,0.6,1.8,1.9v2.6H307V425.5z"/>
			<path class="st18" d="M310.8,423.5c0.9,0,1.5,0.5,1.8,1v-1h0.6v4.6c0,1.3-0.9,2.1-2.1,2.1c-1.2,0-2-0.6-2.1-1.5h0.6
				c0.2,0.6,0.8,1,1.6,1c0.9,0,1.5-0.6,1.5-1.6v-1.1c-0.3,0.6-0.9,1.1-1.8,1.1c-1.2,0-2.1-0.9-2.1-2.3
				C308.7,424.4,309.6,423.5,310.8,423.5z M310.9,424c-0.9,0-1.7,0.7-1.7,1.8c0,1.1,0.7,1.8,1.7,1.8c0.9,0,1.7-0.7,1.7-1.8
				C312.6,424.7,311.9,424,310.9,424z"/>
		</g>
		<linearGradient id="SVGID_16_" gradientUnits="userSpaceOnUse" x1="154.221" y1="334.2715" x2="496.5351" y2="326.9623">
			<stop  offset="0" style="stop-color:#E28A5B"/>
			<stop  offset="1" style="stop-color:#CA2E78"/>
		</linearGradient>
		<path class="st20" d="M298.3,331.3c0,2.7-2.2,4.8-4.8,4.8c-2.7,0-4.8-2.2-4.8-4.8c0-2.7,2.2-4.8,4.8-4.8
			C296.1,326.5,298.3,328.6,298.3,331.3z"/>
		<g>
			<g>
				<path class="st21" d="M255.7,359.7h1l2.1,7.9l2.3-7.9h1l2.2,7.9l2.1-7.9h1l-2.5,9h-1l-2.3-7.6l-2.3,7.6l-1,0L255.7,359.7z"/>
				<path class="st21" d="M273.3,360.5h-3.8v3.3h3.4v0.7h-3.4v3.4h3.8v0.7h-4.7v-9h4.7V360.5z"/>
				<path class="st21" d="M280.2,366.6h-4.1l-0.8,2.1h-0.9l3.3-8.8h1l3.3,8.8H281L280.2,366.6z M278.2,361l-1.8,4.8h3.5L278.2,361z"
					/>
				<path class="st21" d="M284.3,364.6v4.1h-0.9v-9h0.9v4.2l3.9-4.2h1.1l-4.2,4.5l4.2,4.5h-1.2L284.3,364.6z"/>
				<path class="st21" d="M297.4,359.7v9h-0.9l-5-7.5v7.5h-0.9v-9h0.9l5,7.5v-7.5H297.4z"/>
				<path class="st21" d="M304.1,360.5h-3.8v3.3h3.4v0.7h-3.4v3.4h3.8v0.7h-4.7v-9h4.7V360.5z"/>
				<path class="st21" d="M308.6,368.8c-1.8,0-3-1-3-2.4h0.9c0.1,0.7,0.6,1.6,2.1,1.6c1.2,0,2-0.7,2-1.7c0-2.6-4.9-1-4.9-4.3
					c0-1.4,1.1-2.4,2.9-2.4c1.7,0,2.7,0.9,2.9,2.2h-1c-0.1-0.6-0.7-1.4-1.9-1.4c-1.1,0-1.9,0.6-1.9,1.6c0,2.6,4.9,1,4.9,4.3
					C311.5,367.6,310.5,368.8,308.6,368.8z"/>
				<path class="st21" d="M316,368.8c-1.8,0-3-1-3-2.4h0.9c0.1,0.7,0.6,1.6,2.1,1.6c1.2,0,2-0.7,2-1.7c0-2.6-4.9-1-4.9-4.3
					c0-1.4,1.1-2.4,2.9-2.4c1.7,0,2.7,0.9,2.9,2.2h-1c-0.1-0.6-0.7-1.4-1.9-1.4c-1.1,0-1.9,0.6-1.9,1.6c0,2.6,4.9,1,4.9,4.3
					C318.8,367.6,317.9,368.8,316,368.8z"/>
				<path class="st21" d="M325.2,360.5h-3.8v3.3h3.4v0.7h-3.4v3.4h3.8v0.7h-4.7v-9h4.7V360.5z"/>
				<path class="st21" d="M329.7,368.8c-1.8,0-3-1-3-2.4h0.9c0.1,0.7,0.6,1.6,2.1,1.6c1.2,0,2-0.7,2-1.7c0-2.6-4.9-1-4.9-4.3
					c0-1.4,1.1-2.4,2.9-2.4c1.7,0,2.7,0.9,2.9,2.2h-1c-0.1-0.6-0.7-1.4-1.9-1.4c-1.1,0-1.9,0.6-1.9,1.6c0,2.6,4.9,1,4.9,4.3
					C332.6,367.6,331.6,368.8,329.7,368.8z"/>
			</g>
		</g>
	</g>
	<g>
		<g>
			<g>
				<path class="st22" d="M414.5,368.8c-2.5,0-4.4-1.9-4.4-4.6c0-2.7,1.9-4.6,4.4-4.6c2.5,0,4.4,1.9,4.4,4.6
					C418.9,366.9,417,368.8,414.5,368.8z M414.5,368c2,0,3.5-1.4,3.5-3.8s-1.5-3.8-3.5-3.8c-2,0-3.5,1.4-3.5,3.8
					S412.5,368,414.5,368z"/>
				<path class="st22" d="M423.2,364.9h-1.8v3.8h-0.9v-9h2.7c2.1,0,3,1.1,3,2.6C426.3,363.8,425.3,364.9,423.2,364.9z M423.2,364.1
					c1.5,0,2.1-0.7,2.1-1.8c0-1.2-0.6-1.8-2.1-1.8h-1.8v3.6H423.2z"/>
				<path class="st22" d="M430.5,364.9h-1.8v3.8h-0.9v-9h2.7c2.1,0,3,1.1,3,2.6C433.5,363.8,432.6,364.9,430.5,364.9z M430.5,364.1
					c1.5,0,2.1-0.7,2.1-1.8c0-1.2-0.6-1.8-2.1-1.8h-1.8v3.6H430.5z"/>
				<path class="st22" d="M439,368.8c-2.5,0-4.4-1.9-4.4-4.6c0-2.7,1.9-4.6,4.4-4.6c2.5,0,4.4,1.9,4.4,4.6
					C443.4,366.9,441.5,368.8,439,368.8z M439,368c2,0,3.5-1.4,3.5-3.8s-1.5-3.8-3.5-3.8c-2,0-3.5,1.4-3.5,3.8S437,368,439,368z"/>
				<path class="st22" d="M447.8,359.7c2.1,0,3.1,1.1,3.1,2.6c0,1.2-0.7,2.3-2.2,2.6l2.3,3.8h-1.1l-2.2-3.7H446v3.7h-0.9v-9H447.8z
					 M447.8,360.5H446v3.7h1.8c1.5,0,2.1-0.8,2.1-1.9C449.9,361.2,449.3,360.5,447.8,360.5z"/>
				<path class="st22" d="M452,359.7h5.9v0.7h-2.5v8.2h-0.9v-8.2H452V359.7z"/>
				<path class="st22" d="M459.2,359.7h0.9v5.6c0,1.9,1,2.6,2.4,2.6c1.4,0,2.3-0.8,2.3-2.6v-5.6h0.9v5.6c0,2.4-1.4,3.4-3.3,3.4
					c-1.8,0-3.3-1.1-3.3-3.4V359.7z"/>
				<path class="st22" d="M474.5,359.7v9h-0.9l-5-7.5v7.5h-0.9v-9h0.9l5,7.5v-7.5H474.5z"/>
				<path class="st22" d="M476.5,359.7h0.9v9h-0.9V359.7z"/>
				<path class="st22" d="M478.8,359.7h5.9v0.7h-2.5v8.2h-0.9v-8.2h-2.5V359.7z"/>
				<path class="st22" d="M486.1,359.7h0.9v9h-0.9V359.7z"/>
				<path class="st22" d="M493.7,360.5h-3.8v3.3h3.4v0.7h-3.4v3.4h3.8v0.7h-4.7v-9h4.7V360.5z"/>
				<path class="st22" d="M498.2,368.8c-1.8,0-3-1-3-2.4h0.9c0.1,0.7,0.6,1.6,2.1,1.6c1.2,0,2-0.7,2-1.7c0-2.6-4.9-1-4.9-4.3
					c0-1.4,1.1-2.4,2.9-2.4c1.7,0,2.7,0.9,2.9,2.2h-1c-0.1-0.6-0.7-1.4-1.9-1.4c-1.1,0-1.9,0.6-1.9,1.6c0,2.6,4.9,1,4.9,4.3
					C501.1,367.6,500.1,368.8,498.2,368.8z"/>
			</g>
		</g>
		<g>
			<rect x="390.7" y="386.9" class="st17" width="128.4" height="43.9"/>
			<path class="st18" d="M404.8,390.1c0,1.8-1.1,2.9-3,2.9H400v-5.7h1.7C403.6,387.2,404.8,388.3,404.8,390.1z M401.7,392.5
				c1.6,0,2.5-0.9,2.5-2.4c0-1.5-0.8-2.4-2.5-2.4h-1.1v4.8H401.7z"/>
			<path class="st18" d="M407.9,393c-1.3,0-2.2-0.9-2.2-2.3c0-1.4,0.9-2.3,2.2-2.3c1.3,0,2.1,0.9,2.1,2.1c0,0.2,0,0.3,0,0.5h-3.7
				c0,1.1,0.8,1.6,1.6,1.6c0.8,0,1.3-0.4,1.4-1h0.6C409.8,392.4,409,393,407.9,393z M406.3,390.5h3.2c0-1-0.7-1.6-1.6-1.6
				C407.1,388.9,406.4,389.4,406.3,390.5z"/>
			<path class="st18" d="M417.8,390.4c0-1-0.5-1.5-1.3-1.5c-0.8,0-1.4,0.5-1.4,1.6v2.4h-0.6v-2.6c0-1-0.5-1.5-1.3-1.5
				c-0.8,0-1.4,0.5-1.4,1.6v2.4h-0.6v-4.5h0.6v0.8c0.3-0.6,0.9-0.9,1.5-0.9c0.7,0,1.4,0.4,1.7,1.1c0.2-0.7,0.9-1.1,1.6-1.1
				c1,0,1.8,0.6,1.8,1.9v2.6h-0.6V390.4z"/>
			<path class="st18" d="M421.7,388.4c0.9,0,1.5,0.5,1.8,1.1v-1h0.6v4.5h-0.6v-1c-0.3,0.6-0.9,1.1-1.8,1.1c-1.2,0-2.1-0.9-2.1-2.3
				C419.5,389.3,420.4,388.4,421.7,388.4z M421.8,388.9c-0.9,0-1.7,0.7-1.7,1.8c0,1.1,0.7,1.8,1.7,1.8c0.9,0,1.7-0.7,1.7-1.8
				C423.5,389.6,422.7,388.9,421.8,388.9z"/>
			<path class="st18" d="M428.8,390.4c0-1-0.5-1.5-1.4-1.5c-0.8,0-1.4,0.5-1.4,1.6v2.5h-0.6v-4.5h0.6v0.8c0.3-0.6,0.9-0.8,1.5-0.8
				c1,0,1.8,0.6,1.8,1.9v2.6h-0.6V390.4z"/>
			<path class="st18" d="M432.7,388.4c0.8,0,1.5,0.4,1.8,1v-2.6h0.6v6.1h-0.6v-1c-0.3,0.6-0.9,1.1-1.8,1.1c-1.2,0-2.1-0.9-2.1-2.3
				C430.6,389.3,431.5,388.4,432.7,388.4z M432.8,388.9c-0.9,0-1.7,0.7-1.7,1.8c0,1.1,0.7,1.8,1.7,1.8c0.9,0,1.7-0.7,1.7-1.8
				C434.5,389.6,433.7,388.9,432.8,388.9z"/>
			<path class="st18" d="M440.5,388.4c0.8,0,1.5,0.4,1.8,1v-2.6h0.6v6.1h-0.6v-1c-0.3,0.6-0.9,1.1-1.8,1.1c-1.2,0-2.1-0.9-2.1-2.3
				C438.4,389.3,439.3,388.4,440.5,388.4z M440.6,388.9c-0.9,0-1.7,0.7-1.7,1.8c0,1.1,0.7,1.8,1.7,1.8c0.9,0,1.7-0.7,1.7-1.8
				C442.3,389.6,441.5,388.9,440.6,388.9z"/>
			<path class="st18" d="M448.2,393h-0.6v-0.8c-0.3,0.6-0.9,0.9-1.5,0.9c-1,0-1.8-0.6-1.8-1.9v-2.6h0.6v2.6c0,1,0.5,1.5,1.4,1.5
				c0.8,0,1.4-0.5,1.4-1.6v-2.4h0.6V393z"/>
			<path class="st18" d="M450.2,393h-0.6v-4.5h0.6v0.8c0.2-0.6,0.8-0.9,1.5-0.9v0.6h-0.2c-0.7,0-1.4,0.3-1.4,1.5V393z"/>
			<path class="st18" d="M452.6,387.2c0-0.2,0.2-0.4,0.4-0.4c0.2,0,0.4,0.2,0.4,0.4c0,0.2-0.2,0.4-0.4,0.4
				C452.8,387.6,452.6,387.4,452.6,387.2z M452.7,388.5h0.6v4.5h-0.6V388.5z"/>
			<path class="st18" d="M458.1,390.4c0-1-0.5-1.5-1.4-1.5c-0.8,0-1.4,0.5-1.4,1.6v2.5h-0.6v-4.5h0.6v0.8c0.3-0.6,0.9-0.8,1.5-0.8
				c1,0,1.8,0.6,1.8,1.9v2.6h-0.6V390.4z"/>
			<path class="st18" d="M462,388.4c0.9,0,1.5,0.5,1.8,1v-1h0.6v4.6c0,1.3-0.9,2.1-2.1,2.1c-1.2,0-2-0.6-2.1-1.5h0.6
				c0.2,0.6,0.8,1,1.6,1c0.9,0,1.5-0.6,1.5-1.6V392c-0.3,0.6-0.9,1.1-1.8,1.1c-1.2,0-2.1-0.9-2.1-2.3
				C459.8,389.3,460.7,388.4,462,388.4z M462.1,388.9c-0.9,0-1.7,0.7-1.7,1.8c0,1.1,0.7,1.8,1.7,1.8c0.9,0,1.7-0.7,1.7-1.8
				C463.7,389.6,463,388.9,462.1,388.9z"/>
			<path class="st18" d="M470.2,388.4c1.2,0,2.1,0.9,2.1,2.3c0,1.4-0.9,2.3-2.1,2.3c-0.9,0-1.5-0.5-1.8-1.1v3.1h-0.6v-6.6h0.6v1
				C468.7,388.9,469.3,388.4,470.2,388.4z M470.1,388.9c-0.9,0-1.7,0.7-1.7,1.8c0,1.1,0.8,1.8,1.7,1.8c0.9,0,1.7-0.7,1.7-1.8
				C471.8,389.6,471.1,388.9,470.1,388.9z"/>
			<path class="st18" d="M475.5,388.4c0.9,0,1.5,0.5,1.8,1.1v-1h0.6v4.5h-0.6v-1c-0.3,0.6-0.9,1.1-1.8,1.1c-1.2,0-2.1-0.9-2.1-2.3
				C473.3,389.3,474.2,388.4,475.5,388.4z M475.6,388.9c-0.9,0-1.7,0.7-1.7,1.8c0,1.1,0.7,1.8,1.7,1.8c0.9,0,1.7-0.7,1.7-1.8
				C477.2,389.6,476.5,388.9,475.6,388.9z"/>
			<path class="st18" d="M482.6,390.4c0-1-0.5-1.5-1.4-1.5c-0.8,0-1.4,0.5-1.4,1.6v2.5h-0.6v-4.5h0.6v0.8c0.3-0.6,0.9-0.8,1.5-0.8
				c1,0,1.8,0.6,1.8,1.9v2.6h-0.6V390.4z"/>
			<path class="st18" d="M486.5,388.4c0.8,0,1.5,0.4,1.8,1v-2.6h0.6v6.1h-0.6v-1c-0.3,0.6-0.9,1.1-1.8,1.1c-1.2,0-2.1-0.9-2.1-2.3
				C484.3,389.3,485.3,388.4,486.5,388.4z M486.6,388.9c-0.9,0-1.7,0.7-1.7,1.8c0,1.1,0.7,1.8,1.7,1.8c0.9,0,1.7-0.7,1.7-1.8
				C488.3,389.6,487.5,388.9,486.6,388.9z"/>
			<path class="st18" d="M492.2,393c-1.3,0-2.2-0.9-2.2-2.3c0-1.4,0.9-2.3,2.2-2.3c1.3,0,2.1,0.9,2.1,2.1c0,0.2,0,0.3,0,0.5h-3.7
				c0,1.1,0.8,1.6,1.6,1.6c0.8,0,1.3-0.4,1.4-1h0.6C494.1,392.4,493.4,393,492.2,393z M490.6,390.5h3.2c0-1-0.7-1.6-1.6-1.6
				C491.4,388.9,490.7,389.4,490.6,390.5z"/>
			<path class="st18" d="M502.1,390.4c0-1-0.5-1.5-1.3-1.5c-0.8,0-1.4,0.5-1.4,1.6v2.4h-0.6v-2.6c0-1-0.5-1.5-1.3-1.5
				c-0.8,0-1.4,0.5-1.4,1.6v2.4h-0.6v-4.5h0.6v0.8c0.3-0.6,0.9-0.9,1.5-0.9c0.7,0,1.4,0.4,1.7,1.1c0.2-0.7,0.9-1.1,1.6-1.1
				c1,0,1.8,0.6,1.8,1.9v2.6h-0.6V390.4z"/>
			<path class="st18" d="M504,387.2c0-0.2,0.2-0.4,0.4-0.4c0.2,0,0.4,0.2,0.4,0.4c0,0.2-0.2,0.4-0.4,0.4
				C504.2,387.6,504,387.4,504,387.2z M504.1,388.5h0.6v4.5h-0.6V388.5z"/>
			<path class="st18" d="M508,388.4c1.1,0,1.9,0.6,2.1,1.5h-0.6c-0.1-0.6-0.7-1-1.4-1c-0.9,0-1.6,0.6-1.6,1.8c0,1.2,0.7,1.8,1.6,1.8
				c0.8,0,1.3-0.4,1.4-1h0.6c-0.2,0.9-0.9,1.5-2.1,1.5c-1.3,0-2.2-0.9-2.2-2.3S506.8,388.4,508,388.4z"/>
			<path class="st18" d="M416.1,398.9v5.7h-0.6l-3.2-4.8v4.8h-0.6v-5.7h0.6l3.2,4.8v-4.8H416.1z"/>
			<path class="st18" d="M419.6,404.7c-1.3,0-2.2-0.9-2.2-2.3c0-1.4,0.9-2.3,2.2-2.3c1.3,0,2.1,0.9,2.1,2.1c0,0.2,0,0.3,0,0.5h-3.7
				c0,1.1,0.8,1.6,1.6,1.6c0.8,0,1.3-0.4,1.4-1h0.6C421.4,404.1,420.7,404.7,419.6,404.7z M417.9,402.2h3.2c0-1-0.7-1.6-1.6-1.6
				C418.7,400.6,418,401.1,417.9,402.2z"/>
			<path class="st18" d="M422.3,400.2h0.6l1.1,3.9l1.3-3.9h0.6l1.2,3.9l1.1-3.9h0.6l-1.4,4.5h-0.6l-1.2-3.8l-1.2,3.8h-0.6
				L422.3,400.2z"/>
			<path class="st18" d="M433.3,404.7c-1,0-1.7-0.5-1.8-1.3h0.6c0,0.5,0.5,0.8,1.2,0.8c0.6,0,1-0.3,1-0.8c0-1.1-2.7-0.5-2.7-2.1
				c0-0.7,0.6-1.2,1.6-1.2c1,0,1.6,0.5,1.6,1.4h-0.6c0-0.5-0.4-0.9-1.1-0.9c-0.6,0-1,0.3-1,0.7c0,1.2,2.7,0.6,2.7,2.2
				C434.9,404.2,434.2,404.7,433.3,404.7z"/>
			<path class="st18" d="M439.1,400.2h0.6l-2.7,6.6h-0.6l0.9-2.1l-1.8-4.5h0.6l1.5,3.8L439.1,400.2z"/>
			<path class="st18" d="M442.1,404.7c-1,0-1.7-0.5-1.8-1.3h0.6c0,0.5,0.5,0.8,1.2,0.8c0.6,0,1-0.3,1-0.8c0-1.1-2.7-0.5-2.7-2.1
				c0-0.7,0.6-1.2,1.6-1.2c1,0,1.6,0.5,1.6,1.4H443c0-0.5-0.4-0.9-1.1-0.9c-0.6,0-1,0.3-1,0.7c0,1.2,2.7,0.6,2.7,2.2
				C443.6,404.2,443,404.7,442.1,404.7z"/>
			<path class="st18" d="M445,400.7h-0.6v-0.5h0.6V399h0.6v1.1h1.2v0.5h-1.2v2.8c0,0.6,0.2,0.7,0.7,0.7h0.5v0.5h-0.6
				c-0.8,0-1.2-0.3-1.2-1.2V400.7z"/>
			<path class="st18" d="M449.6,404.7c-1.3,0-2.2-0.9-2.2-2.3c0-1.4,0.9-2.3,2.2-2.3c1.3,0,2.1,0.9,2.1,2.1c0,0.2,0,0.3,0,0.5H448
				c0,1.1,0.8,1.6,1.6,1.6c0.8,0,1.3-0.4,1.4-1h0.6C451.5,404.1,450.7,404.7,449.6,404.7z M448,402.2h3.2c0-1-0.7-1.6-1.6-1.6
				C448.8,400.6,448.1,401.1,448,402.2z"/>
			<path class="st18" d="M459.5,402.1c0-1-0.5-1.5-1.3-1.5c-0.8,0-1.4,0.5-1.4,1.6v2.4h-0.6v-2.6c0-1-0.5-1.5-1.3-1.5
				c-0.8,0-1.4,0.5-1.4,1.6v2.4h-0.6v-4.5h0.6v0.8c0.3-0.6,0.9-0.9,1.5-0.9c0.7,0,1.4,0.4,1.7,1.1c0.2-0.7,0.9-1.1,1.6-1.1
				c1,0,1.8,0.6,1.8,1.9v2.6h-0.6V402.1z"/>
			<path class="st18" d="M465.1,404.7c-1,0-1.7-0.5-1.8-1.3h0.6c0,0.5,0.5,0.8,1.2,0.8c0.6,0,1-0.3,1-0.8c0-1.1-2.7-0.5-2.7-2.1
				c0-0.7,0.6-1.2,1.6-1.2c1,0,1.6,0.5,1.6,1.4h-0.6c0-0.5-0.4-0.9-1.1-0.9c-0.6,0-1,0.3-1,0.7c0,1.2,2.7,0.6,2.7,2.2
				C466.7,404.2,466.1,404.7,465.1,404.7z"/>
			<path class="st18" d="M468,400.7h-0.6v-0.5h0.6V399h0.6v1.1h1.2v0.5h-1.2v2.8c0,0.6,0.2,0.7,0.7,0.7h0.5v0.5h-0.6
				c-0.8,0-1.2-0.3-1.2-1.2V400.7z"/>
			<path class="st18" d="M472.6,400.1c0.9,0,1.5,0.5,1.8,1.1v-1h0.6v4.5h-0.6v-1c-0.3,0.6-0.9,1.1-1.8,1.1c-1.2,0-2.1-0.9-2.1-2.3
				C470.5,401,471.4,400.1,472.6,400.1z M472.7,400.6c-0.9,0-1.7,0.7-1.7,1.8c0,1.1,0.7,1.8,1.7,1.8c0.9,0,1.7-0.7,1.7-1.8
				C474.4,401.3,473.6,400.6,472.7,400.6z"/>
			<path class="st18" d="M479.8,402.1c0-1-0.5-1.5-1.4-1.5c-0.8,0-1.4,0.5-1.4,1.6v2.5h-0.6v-4.5h0.6v0.8c0.3-0.6,0.9-0.8,1.5-0.8
				c1,0,1.8,0.6,1.8,1.9v2.6h-0.6V402.1z"/>
			<path class="st18" d="M483.6,400.1c0.8,0,1.5,0.4,1.8,1v-2.6h0.6v6.1h-0.6v-1c-0.3,0.6-0.9,1.1-1.8,1.1c-1.2,0-2.1-0.9-2.1-2.3
				C481.5,401,482.4,400.1,483.6,400.1z M483.7,400.6c-0.9,0-1.7,0.7-1.7,1.8c0,1.1,0.7,1.8,1.7,1.8c0.9,0,1.7-0.7,1.7-1.8
				C485.4,401.3,484.7,400.6,483.7,400.6z"/>
			<path class="st18" d="M489.3,400.1c0.9,0,1.5,0.5,1.8,1.1v-1h0.6v4.5h-0.6v-1c-0.3,0.6-0.9,1.1-1.8,1.1c-1.2,0-2.1-0.9-2.1-2.3
				C487.2,401,488.1,400.1,489.3,400.1z M489.4,400.6c-0.9,0-1.7,0.7-1.7,1.8c0,1.1,0.7,1.8,1.7,1.8c0.9,0,1.7-0.7,1.7-1.8
				C491.1,401.3,490.4,400.6,489.4,400.6z"/>
			<path class="st18" d="M493.7,404.7h-0.6v-4.5h0.6v0.8c0.2-0.6,0.8-0.9,1.5-0.9v0.6h-0.2c-0.7,0-1.4,0.3-1.4,1.5V404.7z"/>
			<path class="st18" d="M496.6,400.7H496v-0.5h0.6V399h0.6v1.1h1.2v0.5h-1.2v2.8c0,0.6,0.2,0.7,0.7,0.7h0.5v0.5h-0.6
				c-0.8,0-1.2-0.3-1.2-1.2V400.7z"/>
			<path class="st18" d="M400.9,410.6v5.7h-0.6l-3.2-4.8v4.8h-0.6v-5.7h0.6l3.2,4.8v-4.8H400.9z"/>
			<path class="st18" d="M404.4,416.4c-1.3,0-2.2-0.9-2.2-2.3c0-1.4,0.9-2.3,2.2-2.3c1.3,0,2.1,0.9,2.1,2.1c0,0.2,0,0.3,0,0.5h-3.7
				c0,1.1,0.8,1.6,1.6,1.6c0.8,0,1.3-0.4,1.4-1h0.6C406.2,415.8,405.5,416.4,404.4,416.4z M402.7,413.9h3.2c0-1-0.7-1.6-1.6-1.6
				C403.5,412.3,402.8,412.8,402.7,413.9z"/>
			<path class="st18" d="M407.1,411.9h0.6l1.1,3.9l1.3-3.9h0.6l1.2,3.9l1.1-3.9h0.6l-1.4,4.5h-0.6l-1.2-3.8l-1.2,3.8h-0.6
				L407.1,411.9z"/>
			<path class="st18" d="M418.5,411.8c1.1,0,1.9,0.6,2.1,1.5h-0.6c-0.1-0.6-0.7-1-1.4-1c-0.9,0-1.6,0.6-1.6,1.8
				c0,1.2,0.7,1.8,1.6,1.8c0.8,0,1.3-0.4,1.4-1h0.6c-0.2,0.9-0.9,1.5-2.1,1.5c-1.3,0-2.2-0.9-2.2-2.3S417.2,411.8,418.5,411.8z"/>
			<path class="st18" d="M423.6,416.4c-1.3,0-2.2-0.9-2.2-2.3c0-1.4,1-2.3,2.2-2.3c1.3,0,2.2,0.9,2.2,2.3
				C425.9,415.5,424.9,416.4,423.6,416.4z M423.6,415.9c0.8,0,1.7-0.6,1.7-1.8s-0.8-1.8-1.7-1.8s-1.7,0.6-1.7,1.8
				S422.8,415.9,423.6,415.9z"/>
			<path class="st18" d="M433.7,413.8c0-1-0.5-1.5-1.3-1.5c-0.8,0-1.4,0.5-1.4,1.6v2.4h-0.6v-2.6c0-1-0.5-1.5-1.3-1.5
				c-0.8,0-1.4,0.5-1.4,1.6v2.4h-0.6v-4.5h0.6v0.8c0.3-0.6,0.9-0.9,1.5-0.9c0.7,0,1.4,0.4,1.7,1.1c0.2-0.7,0.9-1.1,1.6-1.1
				c1,0,1.8,0.6,1.8,1.9v2.6h-0.6V413.8z"/>
			<path class="st18" d="M438,411.8c1.2,0,2.1,0.9,2.1,2.3c0,1.4-0.9,2.3-2.1,2.3c-0.9,0-1.5-0.5-1.8-1.1v3.1h-0.6v-6.6h0.6v1
				C436.5,412.3,437.1,411.8,438,411.8z M437.9,412.3c-0.9,0-1.7,0.7-1.7,1.8c0,1.1,0.8,1.8,1.7,1.8c0.9,0,1.7-0.7,1.7-1.8
				C439.6,413,438.8,412.3,437.9,412.3z"/>
			<path class="st18" d="M443.2,411.8c0.9,0,1.5,0.5,1.8,1.1v-1h0.6v4.5H445v-1c-0.3,0.6-0.9,1.1-1.8,1.1c-1.2,0-2.1-0.9-2.1-2.3
				C441.1,412.7,442,411.8,443.2,411.8z M443.3,412.3c-0.9,0-1.7,0.7-1.7,1.8c0,1.1,0.7,1.8,1.7,1.8c0.9,0,1.7-0.7,1.7-1.8
				C445,413,444.3,412.3,443.3,412.3z"/>
			<path class="st18" d="M450.4,413.8c0-1-0.5-1.5-1.4-1.5c-0.8,0-1.4,0.5-1.4,1.6v2.5H447v-4.5h0.6v0.8c0.3-0.6,0.9-0.8,1.5-0.8
				c1,0,1.8,0.6,1.8,1.9v2.6h-0.6V413.8z"/>
			<path class="st18" d="M455.3,411.9h0.6l-2.7,6.6h-0.6l0.9-2.1l-1.8-4.5h0.6l1.5,3.8L455.3,411.9z"/>
			<path class="st18" d="M460.8,411.8c1.1,0,1.9,0.6,2.1,1.5h-0.6c-0.1-0.6-0.7-1-1.4-1c-0.9,0-1.6,0.6-1.6,1.8
				c0,1.2,0.7,1.8,1.6,1.8c0.8,0,1.3-0.4,1.4-1h0.6c-0.2,0.9-0.9,1.5-2.1,1.5c-1.3,0-2.2-0.9-2.2-2.3S459.6,411.8,460.8,411.8z"/>
			<path class="st18" d="M466,416.4c-1.3,0-2.2-0.9-2.2-2.3c0-1.4,1-2.3,2.2-2.3c1.3,0,2.2,0.9,2.2,2.3
				C468.3,415.5,467.3,416.4,466,416.4z M466,415.9c0.8,0,1.7-0.6,1.7-1.8s-0.8-1.8-1.7-1.8s-1.7,0.6-1.7,1.8S465.2,415.9,466,415.9
				z"/>
			<path class="st18" d="M469.5,410.3h0.6v6.1h-0.6V410.3z"/>
			<path class="st18" d="M471.5,410.3h0.6v6.1h-0.6V410.3z"/>
			<path class="st18" d="M475.4,411.8c0.9,0,1.5,0.5,1.8,1.1v-1h0.6v4.5h-0.6v-1c-0.3,0.6-0.9,1.1-1.8,1.1c-1.2,0-2.1-0.9-2.1-2.3
				C473.3,412.7,474.2,411.8,475.4,411.8z M475.5,412.3c-0.9,0-1.7,0.7-1.7,1.8c0,1.1,0.7,1.8,1.7,1.8c0.9,0,1.7-0.7,1.7-1.8
				C477.2,413,476.4,412.3,475.5,412.3z"/>
			<path class="st18" d="M481.6,411.8c1.2,0,2.1,0.9,2.1,2.3c0,1.4-0.9,2.3-2.1,2.3c-0.9,0-1.5-0.5-1.8-1.1v1h-0.6v-6.1h0.6v2.6
				C480.1,412.3,480.7,411.8,481.6,411.8z M481.4,412.3c-0.9,0-1.7,0.7-1.7,1.8c0,1.1,0.8,1.8,1.7,1.8c0.9,0,1.7-0.7,1.7-1.8
				C483.1,413,482.4,412.3,481.4,412.3z"/>
			<path class="st18" d="M486.9,416.4c-1.3,0-2.2-0.9-2.2-2.3c0-1.4,1-2.3,2.2-2.3c1.3,0,2.2,0.9,2.2,2.3
				C489.1,415.5,488.1,416.4,486.9,416.4z M486.9,415.9c0.8,0,1.7-0.6,1.7-1.8s-0.8-1.8-1.7-1.8s-1.7,0.6-1.7,1.8
				S486,415.9,486.9,415.9z"/>
			<path class="st18" d="M490.9,416.4h-0.6v-4.5h0.6v0.8c0.2-0.6,0.8-0.9,1.5-0.9v0.6h-0.2c-0.7,0-1.4,0.3-1.4,1.5V416.4z"/>
			<path class="st18" d="M495.2,411.8c0.9,0,1.5,0.5,1.8,1.1v-1h0.6v4.5h-0.6v-1c-0.3,0.6-0.9,1.1-1.8,1.1c-1.2,0-2.1-0.9-2.1-2.3
				C493,412.7,493.9,411.8,495.2,411.8z M495.3,412.3c-0.9,0-1.7,0.7-1.7,1.8c0,1.1,0.7,1.8,1.7,1.8c0.9,0,1.7-0.7,1.7-1.8
				C496.9,413,496.2,412.3,495.3,412.3z"/>
			<path class="st18" d="M499.1,412.3h-0.6v-0.5h0.6v-1.1h0.6v1.1h1.2v0.5h-1.2v2.8c0,0.6,0.2,0.7,0.7,0.7h0.5v0.5h-0.6
				c-0.8,0-1.2-0.3-1.2-1.2V412.3z"/>
			<path class="st18" d="M501.8,410.6c0-0.2,0.2-0.4,0.4-0.4c0.2,0,0.4,0.2,0.4,0.4c0,0.2-0.2,0.4-0.4,0.4
				C502,411,501.8,410.8,501.8,410.6z M501.9,411.9h0.6v4.5h-0.6V411.9z"/>
			<path class="st18" d="M505.9,416.4c-1.3,0-2.2-0.9-2.2-2.3c0-1.4,1-2.3,2.2-2.3c1.3,0,2.2,0.9,2.2,2.3
				C508.2,415.5,507.2,416.4,505.9,416.4z M505.9,415.9c0.8,0,1.7-0.6,1.7-1.8s-0.8-1.8-1.7-1.8s-1.7,0.6-1.7,1.8
				S505,415.9,505.9,415.9z"/>
			<path class="st18" d="M512.7,413.8c0-1-0.5-1.5-1.4-1.5c-0.8,0-1.4,0.5-1.4,1.6v2.5h-0.6v-4.5h0.6v0.8c0.3-0.6,0.9-0.8,1.5-0.8
				c1,0,1.8,0.6,1.8,1.9v2.6h-0.6V413.8z"/>
			<path class="st18" d="M419.2,428h-2v-5.7h1.9c1.2,0,1.8,0.6,1.8,1.4c0,0.8-0.5,1.2-1,1.3c0.6,0.1,1.2,0.7,1.2,1.4
				C421,427.4,420.4,428,419.2,428z M419.1,422.8h-1.3v2.1h1.3c0.8,0,1.2-0.4,1.2-1C420.3,423.2,419.9,422.8,419.1,422.8z
				 M419.1,425.3h-1.3v2.2h1.4c0.8,0,1.3-0.4,1.3-1.1C420.5,425.8,419.9,425.3,419.1,425.3z"/>
			<path class="st18" d="M422.1,422.3c0-0.2,0.2-0.4,0.4-0.4c0.2,0,0.4,0.2,0.4,0.4c0,0.2-0.2,0.4-0.4,0.4
				C422.3,422.7,422.1,422.5,422.1,422.3z M422.3,423.6h0.6v4.5h-0.6V423.6z"/>
			<path class="st18" d="M426.2,423.5c0.9,0,1.5,0.5,1.8,1v-1h0.6v4.6c0,1.3-0.9,2.1-2.1,2.1c-1.2,0-2-0.6-2.1-1.5h0.6
				c0.2,0.6,0.8,1,1.6,1c0.9,0,1.5-0.6,1.5-1.6v-1.1c-0.3,0.6-0.9,1.1-1.8,1.1c-1.2,0-2.1-0.9-2.1-2.3
				C424,424.4,424.9,423.5,426.2,423.5z M426.3,424c-0.9,0-1.7,0.7-1.7,1.8c0,1.1,0.7,1.8,1.7,1.8c0.9,0,1.7-0.7,1.7-1.8
				C427.9,424.7,427.2,424,426.3,424z"/>
			<path class="st18" d="M434.4,423.5c1.2,0,2.1,0.9,2.1,2.3c0,1.4-0.9,2.3-2.1,2.3c-0.9,0-1.5-0.5-1.8-1.1v3.1h-0.6v-6.6h0.6v1
				C432.9,424,433.5,423.5,434.4,423.5z M434.3,424c-0.9,0-1.7,0.7-1.7,1.8c0,1.1,0.8,1.8,1.7,1.8c0.9,0,1.7-0.7,1.7-1.8
				C436,424.7,435.3,424,434.3,424z"/>
			<path class="st18" d="M437.8,422h0.6v6.1h-0.6V422z"/>
			<path class="st18" d="M441.7,423.5c0.9,0,1.5,0.5,1.8,1.1v-1h0.6v4.5h-0.6v-1c-0.3,0.6-0.9,1.1-1.8,1.1c-1.2,0-2.1-0.9-2.1-2.3
				C439.5,424.4,440.5,423.5,441.7,423.5z M441.8,424c-0.9,0-1.7,0.7-1.7,1.8c0,1.1,0.7,1.8,1.7,1.8c0.9,0,1.7-0.7,1.7-1.8
				C443.5,424.7,442.7,424,441.8,424z"/>
			<path class="st18" d="M448.6,423.6h0.6l-2.7,6.6h-0.6l0.9-2.1l-1.8-4.5h0.6l1.5,3.8L448.6,423.6z"/>
			<path class="st18" d="M451.9,428.1c-1.3,0-2.2-0.9-2.2-2.3c0-1.4,0.9-2.3,2.2-2.3c1.3,0,2.1,0.9,2.1,2.1c0,0.2,0,0.3,0,0.5h-3.7
				c0,1.1,0.8,1.6,1.6,1.6c0.8,0,1.3-0.4,1.4-1h0.6C453.8,427.5,453,428.1,451.9,428.1z M450.3,425.6h3.2c0-1-0.7-1.6-1.6-1.6
				C451.1,424,450.3,424.5,450.3,425.6z"/>
			<path class="st18" d="M455.8,428h-0.6v-4.5h0.6v0.8c0.2-0.6,0.8-0.9,1.5-0.9v0.6h-0.2c-0.7,0-1.4,0.3-1.4,1.5V428z"/>
			<path class="st18" d="M459.9,428.1c-1,0-1.7-0.5-1.8-1.3h0.6c0,0.5,0.5,0.8,1.2,0.8c0.6,0,1-0.3,1-0.8c0-1.1-2.7-0.5-2.7-2.1
				c0-0.7,0.6-1.2,1.6-1.2c1,0,1.6,0.5,1.6,1.4h-0.6c0-0.5-0.4-0.9-1.1-0.9c-0.6,0-1,0.3-1,0.7c0,1.2,2.7,0.6,2.7,2.2
				C461.4,427.6,460.8,428.1,459.9,428.1z"/>
			<path class="st18" d="M466.7,428.1c-1.3,0-2.2-0.9-2.2-2.3c0-1.4,0.9-2.3,2.2-2.3c1.3,0,2.1,0.9,2.1,2.1c0,0.2,0,0.3,0,0.5h-3.7
				c0,1.1,0.8,1.6,1.6,1.6c0.8,0,1.3-0.4,1.4-1h0.6C468.6,427.5,467.8,428.1,466.7,428.1z M465.1,425.6h3.2c0-1-0.7-1.6-1.6-1.6
				C465.9,424,465.2,424.5,465.1,425.6z"/>
			<path class="st18" d="M473.4,425.5c0-1-0.5-1.5-1.4-1.5c-0.8,0-1.4,0.5-1.4,1.6v2.5H470v-4.5h0.6v0.8c0.3-0.6,0.9-0.8,1.5-0.8
				c1,0,1.8,0.6,1.8,1.9v2.6h-0.6V425.5z"/>
			<path class="st18" d="M477.3,423.5c0.8,0,1.5,0.4,1.8,1V422h0.6v6.1H479v-1c-0.3,0.6-0.9,1.1-1.8,1.1c-1.2,0-2.1-0.9-2.1-2.3
				C475.1,424.4,476,423.5,477.3,423.5z M477.4,424c-0.9,0-1.7,0.7-1.7,1.8c0,1.1,0.7,1.8,1.7,1.8c0.9,0,1.7-0.7,1.7-1.8
				C479,424.7,478.3,424,477.4,424z"/>
			<path class="st18" d="M480.9,422.3c0-0.2,0.2-0.4,0.4-0.4c0.2,0,0.4,0.2,0.4,0.4c0,0.2-0.2,0.4-0.4,0.4
				C481.1,422.7,480.9,422.5,480.9,422.3z M481.1,423.6h0.6v4.5h-0.6V423.6z"/>
			<path class="st18" d="M486.4,425.5c0-1-0.5-1.5-1.4-1.5c-0.8,0-1.4,0.5-1.4,1.6v2.5h-0.6v-4.5h0.6v0.8c0.3-0.6,0.9-0.8,1.5-0.8
				c1,0,1.8,0.6,1.8,1.9v2.6h-0.6V425.5z"/>
			<path class="st18" d="M490.3,423.5c0.9,0,1.5,0.5,1.8,1v-1h0.6v4.6c0,1.3-0.9,2.1-2.1,2.1c-1.2,0-2-0.6-2.1-1.5h0.6
				c0.2,0.6,0.8,1,1.6,1c0.9,0,1.5-0.6,1.5-1.6v-1.1c-0.3,0.6-0.9,1.1-1.8,1.1c-1.2,0-2.1-0.9-2.1-2.3
				C488.2,424.4,489.1,423.5,490.3,423.5z M490.4,424c-0.9,0-1.7,0.7-1.7,1.8c0,1.1,0.7,1.8,1.7,1.8c0.9,0,1.7-0.7,1.7-1.8
				C492.1,424.7,491.3,424,490.4,424z"/>
		</g>
		<linearGradient id="SVGID_17_" gradientUnits="userSpaceOnUse" x1="154.2948" y1="337.7321" x2="496.6089" y2="330.4229">
			<stop  offset="0" style="stop-color:#E28A5B"/>
			<stop  offset="1" style="stop-color:#CA2E78"/>
		</linearGradient>
		<path class="st23" d="M460.4,331.3c0,2.7-2.2,4.8-4.8,4.8c-2.7,0-4.8-2.2-4.8-4.8c0-2.7,2.2-4.8,4.8-4.8
			C458.3,326.5,460.4,328.6,460.4,331.3z"/>
	</g>
	<g>
		<g>
			<g>
				<path class="st24" d="M591.2,359.7h5.9v0.7h-2.5v8.2h-0.9v-8.2h-2.5V359.7z"/>
				<path class="st24" d="M604.3,364.5h-4.9v4.2h-0.9v-9h0.9v4h4.9v-4h0.9v9h-0.9V364.5z"/>
				<path class="st24" d="M609.9,359.7c2.1,0,3.1,1.1,3.1,2.6c0,1.2-0.7,2.3-2.2,2.6l2.3,3.8H612l-2.2-3.7h-1.7v3.7h-0.9v-9H609.9z
					 M609.9,360.5h-1.8v3.7h1.8c1.5,0,2.1-0.8,2.1-1.9C612.1,361.2,611.4,360.5,609.9,360.5z"/>
				<path class="st24" d="M619.4,360.5h-3.8v3.3h3.4v0.7h-3.4v3.4h3.8v0.7h-4.7v-9h4.7V360.5z"/>
				<path class="st24" d="M626.4,366.6h-4.1l-0.8,2.1h-0.9l3.3-8.8h1l3.3,8.8h-0.9L626.4,366.6z M624.4,361l-1.8,4.8h3.5L624.4,361z
					"/>
				<path class="st24" d="M628.9,359.7h5.9v0.7h-2.5v8.2h-0.9v-8.2h-2.5V359.7z"/>
				<path class="st24" d="M638.9,368.8c-1.8,0-3-1-3-2.4h0.9c0.1,0.7,0.6,1.6,2.1,1.6c1.2,0,2-0.7,2-1.7c0-2.6-4.9-1-4.9-4.3
					c0-1.4,1.1-2.4,2.9-2.4c1.7,0,2.7,0.9,2.9,2.2h-1c-0.1-0.6-0.7-1.4-1.9-1.4c-1.1,0-1.9,0.6-1.9,1.6c0,2.6,4.9,1,4.9,4.3
					C641.8,367.6,640.8,368.8,638.9,368.8z"/>
			</g>
		</g>
		<g>
			<rect x="568.7" y="386.9" class="st17" width="96" height="43.9"/>
			<path class="st18" d="M576.3,393c-1.6,0-2.8-1.2-2.8-2.9c0-1.7,1.2-2.9,2.8-2.9c1.6,0,2.8,1.2,2.8,2.9
				C579.1,391.8,577.9,393,576.3,393z M576.3,392.5c1.3,0,2.3-0.9,2.3-2.4c0-1.5-1-2.4-2.3-2.4c-1.3,0-2.3,0.9-2.3,2.4
				C574,391.6,575,392.5,576.3,392.5z"/>
			<path class="st18" d="M580.4,388.5l1.5,3.9l1.5-3.9h0.6l-1.8,4.5h-0.6l-1.8-4.5H580.4z"/>
			<path class="st18" d="M586.7,393c-1.3,0-2.2-0.9-2.2-2.3c0-1.4,0.9-2.3,2.2-2.3c1.3,0,2.1,0.9,2.1,2.1c0,0.2,0,0.3,0,0.5h-3.7
				c0,1.1,0.8,1.6,1.6,1.6c0.8,0,1.3-0.4,1.4-1h0.6C588.5,392.4,587.8,393,586.7,393z M585.1,390.5h3.2c0-1-0.7-1.6-1.6-1.6
				C585.9,388.9,585.1,389.4,585.1,390.5z"/>
			<path class="st18" d="M590.6,393H590v-4.5h0.6v0.8c0.2-0.6,0.8-0.9,1.5-0.9v0.6H592c-0.7,0-1.4,0.3-1.4,1.5V393z"/>
			<path class="st18" d="M594.7,393c-1,0-1.7-0.5-1.8-1.3h0.6c0,0.5,0.5,0.8,1.2,0.8c0.6,0,1-0.3,1-0.8c0-1.1-2.7-0.5-2.7-2.1
				c0-0.7,0.6-1.2,1.6-1.2c1,0,1.6,0.5,1.6,1.4h-0.6c0-0.5-0.4-0.9-1.1-0.9c-0.6,0-1,0.3-1,0.7c0,1.2,2.7,0.6,2.7,2.2
				C596.2,392.5,595.6,393,594.7,393z"/>
			<path class="st18" d="M599.4,393c-1.3,0-2.2-0.9-2.2-2.3c0-1.4,0.9-2.3,2.2-2.3c1.3,0,2.1,0.9,2.1,2.1c0,0.2,0,0.3,0,0.5h-3.7
				c0,1.1,0.8,1.6,1.6,1.6c0.8,0,1.3-0.4,1.4-1h0.6C601.2,392.4,600.5,393,599.4,393z M597.7,390.5h3.2c0-1-0.7-1.6-1.6-1.6
				C598.5,388.9,597.8,389.4,597.7,390.5z"/>
			<path class="st18" d="M604.6,388.4c0.9,0,1.5,0.5,1.8,1.1v-1h0.6v4.5h-0.6v-1c-0.3,0.6-0.9,1.1-1.8,1.1c-1.2,0-2.1-0.9-2.1-2.3
				C602.4,389.3,603.3,388.4,604.6,388.4z M604.7,388.9c-0.9,0-1.7,0.7-1.7,1.8c0,1.1,0.7,1.8,1.7,1.8c0.9,0,1.7-0.7,1.7-1.8
				C606.3,389.6,605.6,388.9,604.7,388.9z"/>
			<path class="st18" d="M609.9,393c-1,0-1.7-0.5-1.8-1.3h0.6c0,0.5,0.5,0.8,1.2,0.8c0.6,0,1-0.3,1-0.8c0-1.1-2.7-0.5-2.7-2.1
				c0-0.7,0.6-1.2,1.6-1.2c1,0,1.6,0.5,1.6,1.4h-0.6c0-0.5-0.4-0.9-1.1-0.9c-0.6,0-1,0.3-1,0.7c0,1.2,2.7,0.6,2.7,2.2
				C611.5,392.5,610.8,393,609.9,393z"/>
			<path class="st18" d="M616.7,388.4c1.1,0,1.9,0.6,2.1,1.5h-0.6c-0.1-0.6-0.7-1-1.4-1c-0.9,0-1.6,0.6-1.6,1.8
				c0,1.2,0.7,1.8,1.6,1.8c0.8,0,1.3-0.4,1.4-1h0.6c-0.2,0.9-0.9,1.5-2.1,1.5c-1.3,0-2.2-0.9-2.2-2.3S615.5,388.4,616.7,388.4z"/>
			<path class="st18" d="M621.9,393c-1.3,0-2.2-0.9-2.2-2.3c0-1.4,1-2.3,2.2-2.3c1.3,0,2.2,0.9,2.2,2.3
				C624.2,392.1,623.2,393,621.9,393z M621.9,392.5c0.8,0,1.7-0.6,1.7-1.8s-0.8-1.8-1.7-1.8s-1.7,0.6-1.7,1.8
				S621.1,392.5,621.9,392.5z"/>
			<path class="st18" d="M631.9,390.4c0-1-0.5-1.5-1.3-1.5c-0.8,0-1.4,0.5-1.4,1.6v2.4h-0.6v-2.6c0-1-0.5-1.5-1.3-1.5
				c-0.8,0-1.4,0.5-1.4,1.6v2.4h-0.6v-4.5h0.6v0.8c0.3-0.6,0.9-0.9,1.5-0.9c0.7,0,1.4,0.4,1.7,1.1c0.2-0.7,0.9-1.1,1.6-1.1
				c1,0,1.8,0.6,1.8,1.9v2.6h-0.6V390.4z"/>
			<path class="st18" d="M636.3,388.4c1.2,0,2.1,0.9,2.1,2.3c0,1.4-0.9,2.3-2.1,2.3c-0.9,0-1.5-0.5-1.8-1.1v3.1h-0.6v-6.6h0.6v1
				C634.8,388.9,635.4,388.4,636.3,388.4z M636.2,388.9c-0.9,0-1.7,0.7-1.7,1.8c0,1.1,0.8,1.8,1.7,1.8c0.9,0,1.7-0.7,1.7-1.8
				C637.8,389.6,637.1,388.9,636.2,388.9z"/>
			<path class="st18" d="M641.6,393c-1.3,0-2.2-0.9-2.2-2.3c0-1.4,0.9-2.3,2.2-2.3c1.3,0,2.1,0.9,2.1,2.1c0,0.2,0,0.3,0,0.5H640
				c0,1.1,0.8,1.6,1.6,1.6c0.8,0,1.3-0.4,1.4-1h0.6C643.4,392.4,642.7,393,641.6,393z M640,390.5h3.2c0-1-0.7-1.6-1.6-1.6
				C640.7,388.9,640,389.4,640,390.5z"/>
			<path class="st18" d="M645,389h-0.6v-0.5h0.6v-1.1h0.6v1.1h1.2v0.5h-1.2v2.8c0,0.6,0.2,0.7,0.7,0.7h0.5v0.5h-0.6
				c-0.8,0-1.2-0.3-1.2-1.2V389z"/>
			<path class="st18" d="M647.6,387.2c0-0.2,0.2-0.4,0.4-0.4c0.2,0,0.4,0.2,0.4,0.4c0,0.2-0.2,0.4-0.4,0.4
				C647.8,387.6,647.6,387.4,647.6,387.2z M647.8,388.5h0.6v4.5h-0.6V388.5z"/>
			<path class="st18" d="M649.9,389h-0.6v-0.5h0.6v-1.1h0.6v1.1h1.2v0.5h-1.2v2.8c0,0.6,0.2,0.7,0.7,0.7h0.5v0.5h-0.6
				c-0.8,0-1.2-0.3-1.2-1.2V389z"/>
			<path class="st18" d="M654.6,393c-1.3,0-2.2-0.9-2.2-2.3c0-1.4,1-2.3,2.2-2.3c1.3,0,2.2,0.9,2.2,2.3
				C656.8,392.1,655.8,393,654.6,393z M654.6,392.5c0.8,0,1.7-0.6,1.7-1.8s-0.8-1.8-1.7-1.8s-1.7,0.6-1.7,1.8
				S653.7,392.5,654.6,392.5z"/>
			<path class="st18" d="M658.6,393H658v-4.5h0.6v0.8c0.2-0.6,0.8-0.9,1.5-0.9v0.6H660c-0.7,0-1.4,0.3-1.4,1.5V393z"/>
			<path class="st18" d="M596.7,398.9v5.7h-0.6l-3.2-4.8v4.8h-0.6v-5.7h0.6l3.2,4.8v-4.8H596.7z"/>
			<path class="st18" d="M600.1,404.7c-1.3,0-2.2-0.9-2.2-2.3c0-1.4,0.9-2.3,2.2-2.3c1.3,0,2.1,0.9,2.1,2.1c0,0.2,0,0.3,0,0.5h-3.7
				c0,1.1,0.8,1.6,1.6,1.6c0.8,0,1.3-0.4,1.4-1h0.6C602,404.1,601.3,404.7,600.1,404.7z M598.5,402.2h3.2c0-1-0.7-1.6-1.6-1.6
				C599.3,400.6,598.6,401.1,598.5,402.2z"/>
			<path class="st18" d="M602.8,400.2h0.6l1.1,3.9l1.3-3.9h0.6l1.2,3.9l1.1-3.9h0.6l-1.4,4.5h-0.6l-1.2-3.8l-1.2,3.8h-0.6
				L602.8,400.2z"/>
			<path class="st18" d="M613.9,404.7c-1,0-1.7-0.5-1.8-1.3h0.6c0,0.5,0.5,0.8,1.2,0.8c0.6,0,1-0.3,1-0.8c0-1.1-2.7-0.5-2.7-2.1
				c0-0.7,0.6-1.2,1.6-1.2c1,0,1.6,0.5,1.6,1.4h-0.6c0-0.5-0.4-0.9-1.1-0.9c-0.6,0-1,0.3-1,0.7c0,1.2,2.7,0.6,2.7,2.2
				C615.4,404.2,614.8,404.7,613.9,404.7z"/>
			<path class="st18" d="M616.8,400.7h-0.6v-0.5h0.6V399h0.6v1.1h1.2v0.5h-1.2v2.8c0,0.6,0.2,0.7,0.7,0.7h0.5v0.5H618
				c-0.8,0-1.2-0.3-1.2-1.2V400.7z"/>
			<path class="st18" d="M621.3,400.1c0.9,0,1.5,0.5,1.8,1.1v-1h0.6v4.5h-0.6v-1c-0.3,0.6-0.9,1.1-1.8,1.1c-1.2,0-2.1-0.9-2.1-2.3
				C619.2,401,620.1,400.1,621.3,400.1z M621.4,400.6c-0.9,0-1.7,0.7-1.7,1.8c0,1.1,0.7,1.8,1.7,1.8c0.9,0,1.7-0.7,1.7-1.8
				C623.1,401.3,622.4,400.6,621.4,400.6z"/>
			<path class="st18" d="M625.7,404.7h-0.6v-4.5h0.6v0.8c0.2-0.6,0.8-0.9,1.5-0.9v0.6h-0.2c-0.7,0-1.4,0.3-1.4,1.5V404.7z"/>
			<path class="st18" d="M628.6,400.7H628v-0.5h0.6V399h0.6v1.1h1.2v0.5h-1.2v2.8c0,0.6,0.2,0.7,0.7,0.7h0.5v0.5h-0.6
				c-0.8,0-1.2-0.3-1.2-1.2V400.7z"/>
			<path class="st18" d="M635.3,404.7h-0.6v-0.8c-0.3,0.6-0.9,0.9-1.5,0.9c-1,0-1.8-0.6-1.8-1.9v-2.6h0.6v2.6c0,1,0.5,1.5,1.4,1.5
				c0.8,0,1.4-0.5,1.4-1.6v-2.4h0.6V404.7z"/>
			<path class="st18" d="M639.1,400.1c1.2,0,2.1,0.9,2.1,2.3c0,1.4-0.9,2.3-2.1,2.3c-0.9,0-1.5-0.5-1.8-1.1v3.1h-0.6v-6.6h0.6v1
				C637.6,400.6,638.2,400.1,639.1,400.1z M639,400.6c-0.9,0-1.7,0.7-1.7,1.8c0,1.1,0.8,1.8,1.7,1.8c0.9,0,1.7-0.7,1.7-1.8
				C640.7,401.3,639.9,400.6,639,400.6z"/>
		</g>
		<linearGradient id="SVGID_18_" gradientUnits="userSpaceOnUse" x1="154.3696" y1="341.2274" x2="496.6837" y2="333.9182">
			<stop  offset="0" style="stop-color:#E28A5B"/>
			<stop  offset="1" style="stop-color:#CA2E78"/>
		</linearGradient>
		<path class="st25" d="M624.2,331.3c0,2.7-2.2,4.8-4.8,4.8c-2.7,0-4.8-2.2-4.8-4.8c0-2.7,2.2-4.8,4.8-4.8
			C622.1,326.5,624.2,328.6,624.2,331.3z"/>
	</g>
	<g>
		<g>
			<g>
				<linearGradient id="SVGID_19_" gradientUnits="userSpaceOnUse" x1="427.2374" y1="90.6446" x2="482.6023" y2="90.6446">
					<stop  offset="0" style="stop-color:#E28A5B"/>
					<stop  offset="1" style="stop-color:#CA2E78"/>
				</linearGradient>
				<path class="st26" d="M454.9,118.3c-15.3,0-27.7-12.4-27.7-27.7c0-15.3,12.4-27.7,27.7-27.7s27.7,12.4,27.7,27.7
					C482.6,105.9,470.2,118.3,454.9,118.3z M454.9,63.8c-14.8,0-26.8,12-26.8,26.8c0,14.8,12,26.8,26.8,26.8s26.8-12,26.8-26.8
					C481.8,75.8,469.7,63.8,454.9,63.8z"/>
			</g>
			<g>
				<linearGradient id="SVGID_20_" gradientUnits="userSpaceOnUse" x1="437.4142" y1="90.6446" x2="472.4255" y2="90.6446">
					<stop  offset="0" style="stop-color:#E28A5B"/>
					<stop  offset="1" style="stop-color:#CA2E78"/>
				</linearGradient>
				<path class="st27" d="M454.9,108.2c-9.7,0-17.5-7.9-17.5-17.5c0-9.7,7.9-17.5,17.5-17.5s17.5,7.9,17.5,17.5
					C472.4,100.3,464.6,108.2,454.9,108.2z M454.9,74c-9.2,0-16.7,7.5-16.7,16.7c0,9.2,7.5,16.7,16.7,16.7c9.2,0,16.7-7.5,16.7-16.7
					C471.6,81.5,464.1,74,454.9,74z"/>
			</g>
			<g>
				<linearGradient id="SVGID_21_" gradientUnits="userSpaceOnUse" x1="446.7434" y1="90.6446" x2="463.0963" y2="90.6446">
					<stop  offset="0" style="stop-color:#E28A5B"/>
					<stop  offset="1" style="stop-color:#CA2E78"/>
				</linearGradient>
				<path class="st28" d="M454.9,98.8c-4.5,0-8.2-3.7-8.2-8.2c0-4.5,3.7-8.2,8.2-8.2c4.5,0,8.2,3.7,8.2,8.2
					C463.1,95.2,459.4,98.8,454.9,98.8z M454.9,83.3c-4,0-7.3,3.3-7.3,7.3c0,4,3.3,7.3,7.3,7.3c4,0,7.3-3.3,7.3-7.3
					C462.3,86.6,459,83.3,454.9,83.3z"/>
			</g>
		</g>
		<g>
			<g>
				<path class="st29" d="M433.9,138.7c-2.1,0-3.8-1.6-3.8-3.9c0-2.3,1.6-3.9,3.8-3.9c2.1,0,3.8,1.6,3.8,3.9
					C437.7,137.1,436,138.7,433.9,138.7z M433.9,138c1.7,0,3-1.2,3-3.2c0-2-1.3-3.2-3-3.2c-1.7,0-3,1.2-3,3.2
					C430.9,136.8,432.2,138,433.9,138z"/>
				<path class="st29" d="M444.2,138.6h-0.8v-1c-0.4,0.7-1.1,1.1-2,1.1c-1.3,0-2.4-0.8-2.4-2.6v-3.5h0.8v3.4c0,1.3,0.7,2,1.8,2
					c1.1,0,1.9-0.7,1.9-2.1v-3.2h0.8V138.6z"/>
				<path class="st29" d="M446.7,138.6h-0.8v-5.9h0.8v1.1c0.3-0.7,1-1.2,2-1.2v0.8h-0.2c-1,0-1.8,0.4-1.8,1.9V138.6z"/>
				<path class="st29" d="M455.3,132.6c1.2,0,2,0.6,2.3,1.4v-1.3h0.8v6.1c0,1.7-1.1,2.8-2.8,2.8c-1.5,0-2.6-0.8-2.8-2h0.7
					c0.2,0.8,1,1.4,2.1,1.4c1.1,0,2-0.7,2-2.1v-1.5c-0.3,0.8-1.2,1.4-2.3,1.4c-1.6,0-2.8-1.2-2.8-3.1
					C452.5,133.8,453.7,132.6,455.3,132.6z M455.4,133.3c-1.2,0-2.2,0.9-2.2,2.4c0,1.5,1,2.4,2.2,2.4c1.2,0,2.2-0.9,2.2-2.4
					S456.7,133.3,455.4,133.3z"/>
				<path class="st29" d="M462.7,138.7c-1.7,0-2.9-1.2-2.9-3.1c0-1.9,1.3-3.1,3-3.1c1.7,0,3,1.2,3,3.1
					C465.7,137.5,464.4,138.7,462.7,138.7z M462.7,138c1.1,0,2.2-0.8,2.2-2.4c0-1.6-1.1-2.4-2.2-2.4s-2.2,0.8-2.2,2.4
					C460.6,137.3,461.6,138,462.7,138z"/>
				<path class="st29" d="M469.6,132.6c1.2,0,2,0.6,2.3,1.4v-1.3h0.8v5.9H472v-1.3c-0.3,0.8-1.2,1.4-2.4,1.4c-1.6,0-2.8-1.2-2.8-3.1
					C466.8,133.8,468,132.6,469.6,132.6z M469.7,133.3c-1.2,0-2.2,0.9-2.2,2.4c0,1.5,1,2.4,2.2,2.4c1.2,0,2.2-0.9,2.2-2.4
					S471,133.3,469.7,133.3z"/>
				<path class="st29" d="M474.4,130.6h0.8v8h-0.8V130.6z"/>
				<path class="st29" d="M479,138.7c-1.3,0-2.3-0.7-2.4-1.8h0.8c0.1,0.7,0.6,1.1,1.6,1.1c0.8,0,1.3-0.5,1.3-1
					c0-1.5-3.6-0.6-3.6-2.8c0-0.9,0.8-1.6,2.1-1.6c1.3,0,2.1,0.7,2.2,1.8h-0.8c0-0.7-0.5-1.2-1.4-1.2c-0.8,0-1.3,0.4-1.3,0.9
					c0,1.6,3.5,0.7,3.5,2.8C481,138,480.2,138.7,479,138.7z"/>
			</g>
		</g>
	</g>
	<g>
		<g>
			<g>
				<linearGradient id="SVGID_22_" gradientUnits="userSpaceOnUse" x1="574.673" y1="84.7048" x2="651.5231" y2="84.7048">
					<stop  offset="0" style="stop-color:#E28A5B"/>
					<stop  offset="1" style="stop-color:#CA2E78"/>
				</linearGradient>
				<path class="st30" d="M642.1,94.1h-58.1c-5.2,0-9.4-4.2-9.4-9.4s4.2-9.4,9.4-9.4h58.1c5.2,0,9.4,4.2,9.4,9.4
					S647.3,94.1,642.1,94.1z M584.1,76.1c-4.7,0-8.6,3.8-8.6,8.6s3.8,8.6,8.6,8.6h58.1c4.7,0,8.6-3.8,8.6-8.6s-3.8-8.6-8.6-8.6
					H584.1z"/>
			</g>
			<g>
				<linearGradient id="SVGID_23_" gradientUnits="userSpaceOnUse" x1="585.95" y1="93.3717" x2="589.7081" y2="93.3717">
					<stop  offset="0" style="stop-color:#E28A5B"/>
					<stop  offset="1" style="stop-color:#CA2E78"/>
				</linearGradient>
				<path class="st31" d="M587.8,118.3c-1,0-1.9-0.8-1.9-1.9V70.3c0-1,0.8-1.9,1.9-1.9s1.9,0.8,1.9,1.9v46.2
					C589.7,117.5,588.9,118.3,587.8,118.3z M587.8,69.3c-0.6,0-1,0.5-1,1v46.2c0,0.6,0.5,1,1,1s1-0.5,1-1V70.3
					C588.9,69.7,588.4,69.3,587.8,69.3z"/>
			</g>
			<g>
				<linearGradient id="SVGID_24_" gradientUnits="userSpaceOnUse" x1="635.652" y1="93.3717" x2="639.4109" y2="93.3717">
					<stop  offset="0" style="stop-color:#E28A5B"/>
					<stop  offset="1" style="stop-color:#CA2E78"/>
				</linearGradient>
				<path class="st32" d="M637.5,118.3c-1,0-1.9-0.8-1.9-1.9V70.3c0-1,0.8-1.9,1.9-1.9c1,0,1.9,0.8,1.9,1.9v46.2
					C639.4,117.5,638.6,118.3,637.5,118.3z M637.5,69.3c-0.6,0-1,0.5-1,1v46.2c0,0.6,0.5,1,1,1c0.6,0,1-0.5,1-1V70.3
					C638.6,69.7,638.1,69.3,637.5,69.3z"/>
			</g>
		</g>
		<g>
			<g>
				<path class="st29" d="M568.9,138.7c-2.1,0-3.8-1.6-3.8-3.9c0-2.3,1.6-3.9,3.8-3.9c2.1,0,3.8,1.6,3.8,3.9
					C572.6,137.1,571,138.7,568.9,138.7z M568.9,138c1.7,0,3-1.2,3-3.2c0-2-1.3-3.2-3-3.2c-1.7,0-3,1.2-3,3.2
					C565.9,136.8,567.2,138,568.9,138z"/>
				<path class="st29" d="M577.1,132.6c1.6,0,2.8,1.2,2.8,3c0,1.9-1.2,3.1-2.8,3.1c-1.2,0-2-0.6-2.4-1.4v1.3H574v-8h0.8v3.4
					C575.1,133.2,576,132.6,577.1,132.6z M577,133.3c-1.2,0-2.2,0.9-2.2,2.4s1,2.4,2.2,2.4c1.2,0,2.2-0.9,2.2-2.4
					C579.2,134.1,578.2,133.3,577,133.3z"/>
				<path class="st29" d="M583.4,138.7c-1.3,0-2.3-0.7-2.4-1.8h0.8c0.1,0.7,0.6,1.1,1.6,1.1c0.8,0,1.3-0.5,1.3-1
					c0-1.5-3.6-0.6-3.6-2.8c0-0.9,0.8-1.6,2.1-1.6c1.3,0,2.1,0.7,2.2,1.8h-0.8c0-0.7-0.5-1.2-1.4-1.2c-0.8,0-1.3,0.4-1.3,0.9
					c0,1.6,3.5,0.7,3.5,2.8C585.5,138,584.6,138.7,583.4,138.7z"/>
				<path class="st29" d="M587.1,133.3h-0.8v-0.6h0.8v-1.5h0.8v1.5h1.6v0.6h-1.6v3.7c0,0.7,0.2,1,0.9,1h0.7v0.7h-0.8
					c-1,0-1.6-0.4-1.6-1.6V133.3z"/>
				<path class="st29" d="M593.3,132.6c1.2,0,2,0.6,2.3,1.4v-1.3h0.8v5.9h-0.8v-1.3c-0.3,0.8-1.2,1.4-2.4,1.4
					c-1.6,0-2.8-1.2-2.8-3.1C590.4,133.8,591.6,132.6,593.3,132.6z M593.4,133.3c-1.2,0-2.2,0.9-2.2,2.4c0,1.5,1,2.4,2.2,2.4
					c1.2,0,2.2-0.9,2.2-2.4S594.6,133.3,593.4,133.3z"/>
				<path class="st29" d="M600.6,132.6c1.5,0,2.5,0.8,2.7,2h-0.8c-0.2-0.8-0.9-1.4-1.9-1.4c-1.2,0-2.1,0.8-2.1,2.4s0.9,2.4,2.1,2.4
					c1,0,1.7-0.5,1.9-1.4h0.8c-0.3,1.2-1.2,2-2.7,2c-1.7,0-2.9-1.2-2.9-3.1S599,132.6,600.6,132.6z"/>
				<path class="st29" d="M604.8,130.6h0.8v8h-0.8V130.6z"/>
				<path class="st29" d="M609.8,138.7c-1.7,0-2.9-1.2-2.9-3.1c0-1.9,1.2-3.1,2.9-3.1c1.7,0,2.8,1.2,2.8,2.7c0,0.2,0,0.4,0,0.6h-4.9
					c0.1,1.4,1,2.1,2.1,2.1c1,0,1.7-0.5,1.9-1.3h0.8C612.2,137.8,611.3,138.7,609.8,138.7z M607.7,135.3h4.2c0-1.4-1-2.1-2.1-2.1
					C608.7,133.2,607.7,133.9,607.7,135.3z"/>
				<path class="st29" d="M616,138.7c-1.3,0-2.3-0.7-2.4-1.8h0.8c0.1,0.7,0.6,1.1,1.6,1.1c0.8,0,1.3-0.5,1.3-1
					c0-1.5-3.6-0.6-3.6-2.8c0-0.9,0.8-1.6,2.1-1.6c1.3,0,2.1,0.7,2.2,1.8h-0.8c0-0.7-0.5-1.2-1.4-1.2c-0.8,0-1.3,0.4-1.3,0.9
					c0,1.6,3.5,0.7,3.5,2.8C618.1,138,617.3,138.7,616,138.7z"/>
				<path class="st29" d="M621.8,132.7h0.8l1.5,5.2l1.7-5.2h0.8l1.6,5.2l1.5-5.2h0.8l-1.9,5.9h-0.8l-1.6-5l-1.6,5h-0.8L621.8,132.7z
					"/>
				<path class="st29" d="M633.9,138.7c-1.7,0-2.9-1.2-2.9-3.1c0-1.9,1.2-3.1,2.9-3.1c1.7,0,2.8,1.2,2.8,2.7c0,0.2,0,0.4,0,0.6h-4.9
					c0.1,1.4,1,2.1,2.1,2.1c1,0,1.7-0.5,1.9-1.3h0.8C636.4,137.8,635.4,138.7,633.9,138.7z M631.8,135.3h4.2c0-1.4-1-2.1-2.1-2.1
					C632.8,133.2,631.9,133.9,631.8,135.3z"/>
				<path class="st29" d="M641.3,133.3h-0.8v-0.6h0.8v-0.4c0-1.3,0.6-1.9,2.1-1.9v0.7c-1,0-1.3,0.4-1.3,1.2v0.4h1.4v0.6H642v5.3
					h-0.8V133.3z"/>
				<path class="st29" d="M647.1,132.6c1.2,0,2,0.6,2.3,1.4v-1.3h0.8v5.9h-0.8v-1.3c-0.3,0.8-1.2,1.4-2.4,1.4
					c-1.6,0-2.8-1.2-2.8-3.1C644.3,133.8,645.5,132.6,647.1,132.6z M647.2,133.3c-1.2,0-2.2,0.9-2.2,2.4c0,1.5,1,2.4,2.2,2.4
					c1.2,0,2.2-0.9,2.2-2.4S648.5,133.3,647.2,133.3z"/>
				<path class="st29" d="M654.5,132.6c1.5,0,2.5,0.8,2.7,2h-0.8c-0.2-0.8-0.9-1.4-1.9-1.4c-1.2,0-2.1,0.8-2.1,2.4s0.9,2.4,2.1,2.4
					c1,0,1.7-0.5,1.9-1.4h0.8c-0.3,1.2-1.2,2-2.7,2c-1.7,0-2.9-1.2-2.9-3.1S652.8,132.6,654.5,132.6z"/>
				<path class="st29" d="M661.2,138.7c-1.7,0-2.9-1.2-2.9-3.1c0-1.9,1.2-3.1,2.9-3.1c1.7,0,2.8,1.2,2.8,2.7c0,0.2,0,0.4,0,0.6H659
					c0.1,1.4,1,2.1,2.1,2.1c1,0,1.7-0.5,1.9-1.3h0.8C663.6,137.8,662.7,138.7,661.2,138.7z M659,135.3h4.2c0-1.4-1-2.1-2.1-2.1
					C660.1,133.2,659.1,133.9,659,135.3z"/>
			</g>
		</g>
	</g>
	<g>
		<g>
			<linearGradient id="SVGID_25_" gradientUnits="userSpaceOnUse" x1="241.1643" y1="88.7765" x2="331.5893" y2="88.7765">
				<stop  offset="0" style="stop-color:#E28A5B"/>
				<stop  offset="1" style="stop-color:#CA2E78"/>
			</linearGradient>
			<polygon class="st33" points="331.6,118.3 241.2,118.3 241.2,59.2 242,59.2 242,117.5 331.6,117.5 			"/>
		</g>
		<g>
			<g>
				<path class="st29" d="M244,131h0.8l1.7,6.7l1.9-6.7h0.8l1.9,6.7l1.7-6.7h0.8l-2.2,7.6h-0.8l-1.9-6.5l-2,6.5l-0.8,0L244,131z"/>
				<path class="st29" d="M255,130.6h0.8v3.1c0.4-0.7,1.2-1.1,2.1-1.1c1.3,0,2.4,0.8,2.4,2.6v3.5h-0.8v-3.4c0-1.3-0.7-2-1.8-2
					c-1.1,0-1.9,0.7-1.9,2.1v3.2H255V130.6z"/>
				<path class="st29" d="M264.4,132.6c1.2,0,2,0.6,2.3,1.4v-1.3h0.8v5.9h-0.8v-1.3c-0.3,0.8-1.2,1.4-2.4,1.4
					c-1.6,0-2.8-1.2-2.8-3.1C261.5,133.8,262.7,132.6,264.4,132.6z M264.5,133.3c-1.2,0-2.2,0.9-2.2,2.4c0,1.5,1,2.4,2.2,2.4
					c1.2,0,2.2-0.9,2.2-2.4S265.7,133.3,264.5,133.3z"/>
				<path class="st29" d="M269.4,133.3h-0.8v-0.6h0.8v-1.5h0.8v1.5h1.6v0.6h-1.6v3.7c0,0.7,0.2,1,0.9,1h0.7v0.7H271
					c-1,0-1.6-0.4-1.6-1.6V133.3z"/>
				<path class="st29" d="M276.3,133.3h-0.8v-0.6h0.8v-1.5h0.8v1.5h1.6v0.6H277v3.7c0,0.7,0.2,1,0.9,1h0.7v0.7h-0.8
					c-1,0-1.6-0.4-1.6-1.6V133.3z"/>
				<path class="st29" d="M282.5,138.7c-1.7,0-2.9-1.2-2.9-3.1c0-1.9,1.3-3.1,3-3.1c1.7,0,3,1.2,3,3.1
					C285.5,137.5,284.2,138.7,282.5,138.7z M282.5,138c1.1,0,2.2-0.8,2.2-2.4c0-1.6-1.1-2.4-2.2-2.4s-2.2,0.8-2.2,2.4
					C280.3,137.3,281.4,138,282.5,138z"/>
				<path class="st29" d="M289.7,131c0-0.3,0.2-0.6,0.6-0.6s0.6,0.2,0.6,0.6c0,0.3-0.2,0.6-0.6,0.6S289.7,131.3,289.7,131z
					 M289.9,132.7h0.8v5.9h-0.8V132.7z"/>
				<path class="st29" d="M301,135.2c0-1.3-0.7-2-1.7-2c-1.1,0-1.8,0.7-1.8,2.2v3.2h-0.7v-3.4c0-1.3-0.7-2-1.7-2
					c-1.1,0-1.8,0.7-1.8,2.2v3.2h-0.8v-5.9h0.8v1c0.4-0.7,1.1-1.1,2-1.1c1,0,1.8,0.5,2.2,1.5c0.3-1,1.2-1.5,2.1-1.5
					c1.3,0,2.4,0.8,2.4,2.6v3.5H301V135.2z"/>
				<path class="st29" d="M306.5,132.6c1.6,0,2.8,1.2,2.8,3c0,1.9-1.2,3.1-2.8,3.1c-1.2,0-2-0.7-2.4-1.4v4.1h-0.7v-8.7h0.7v1.3
					C304.5,133.2,305.4,132.6,306.5,132.6z M306.4,133.3c-1.2,0-2.2,0.9-2.2,2.4s1,2.4,2.2,2.4c1.2,0,2.2-0.9,2.2-2.4
					C308.6,134.1,307.6,133.3,306.4,133.3z"/>
				<path class="st29" d="M311.5,138.6h-0.8v-5.9h0.8v1.1c0.3-0.7,1-1.2,2-1.2v0.8h-0.2c-1,0-1.8,0.4-1.8,1.9V138.6z"/>
				<path class="st29" d="M317.3,138.7c-1.7,0-2.9-1.2-2.9-3.1c0-1.9,1.3-3.1,3-3.1c1.7,0,3,1.2,3,3.1
					C320.3,137.5,319,138.7,317.3,138.7z M317.3,138c1.1,0,2.2-0.8,2.2-2.4c0-1.6-1.1-2.4-2.2-2.4s-2.2,0.8-2.2,2.4
					C315.1,137.3,316.2,138,317.3,138z"/>
				<path class="st29" d="M321.8,132.7l2,5.2l2-5.2h0.8l-2.4,5.9h-0.9l-2.4-5.9H321.8z"/>
				<path class="st29" d="M330.2,138.7c-1.7,0-2.9-1.2-2.9-3.1c0-1.9,1.2-3.1,2.9-3.1c1.7,0,2.8,1.2,2.8,2.7c0,0.2,0,0.4,0,0.6H328
					c0.1,1.4,1,2.1,2.1,2.1c1,0,1.7-0.5,1.9-1.3h0.8C332.6,137.8,331.7,138.7,330.2,138.7z M328,135.3h4.2c0-1.4-1-2.1-2.1-2.1
					C329.1,133.2,328.1,133.9,328,135.3z"/>
			</g>
		</g>
		<g>
			<g>
				<linearGradient id="SVGID_26_" gradientUnits="userSpaceOnUse" x1="317.6298" y1="77.6757" x2="325.258" y2="77.6757">
					<stop  offset="0" style="stop-color:#E28A5B"/>
					<stop  offset="1" style="stop-color:#CA2E78"/>
				</linearGradient>
				<polygon class="st34" points="324.7,79.7 321.4,76.8 318.2,79.7 317.6,79.1 321.3,75.7 325.3,79 				"/>
			</g>
			<g>
				<linearGradient id="SVGID_27_" gradientUnits="userSpaceOnUse" x1="241.1928" y1="95.949" x2="321.7742" y2="95.949">
					<stop  offset="0" style="stop-color:#E28A5B"/>
					<stop  offset="1" style="stop-color:#CA2E78"/>
				</linearGradient>
				<path class="st35" d="M242,115.3l-0.8-0.3c0.1-0.2,7-17.4,25.9-16.3c4,0.2,8.6,1.2,13.5,2.3c11.3,2.4,24.1,5.1,32.1-1.2
					c5.3-4.2,8-11.8,8.3-23.2l0.8,0c-0.3,11.7-3.1,19.5-8.6,23.8c-8.3,6.6-21.3,3.8-32.8,1.3c-4.9-1-9.4-2-13.3-2.2
					C248.8,98.5,242,115.2,242,115.3z"/>
			</g>
		</g>
	</g>
	<g>
		<g>
			<g>
				<path class="st29" d="M90.1,131H91l1.7,6.7l1.9-6.7h0.8l1.9,6.7l1.7-6.7h0.8l-2.2,7.6h-0.8l-1.9-6.5l-2,6.5l-0.8,0L90.1,131z"/>
				<path class="st29" d="M103.7,138.7c-1.7,0-2.9-1.2-2.9-3.1c0-1.9,1.2-3.1,2.9-3.1c1.7,0,2.8,1.2,2.8,2.7c0,0.2,0,0.4,0,0.6h-4.9
					c0.1,1.4,1,2.1,2.1,2.1c1,0,1.7-0.5,1.9-1.3h0.8C106.1,137.8,105.1,138.7,103.7,138.7z M101.5,135.3h4.2c0-1.4-1-2.1-2.1-2.1
					C102.5,133.2,101.6,133.9,101.5,135.3z"/>
				<path class="st29" d="M113.3,132.6c1.1,0,2,0.6,2.3,1.4v-3.4h0.8v8h-0.8v-1.3c-0.3,0.8-1.2,1.4-2.3,1.4c-1.6,0-2.8-1.2-2.8-3.1
					C110.5,133.8,111.7,132.6,113.3,132.6z M113.5,133.3c-1.2,0-2.2,0.9-2.2,2.4c0,1.5,1,2.4,2.2,2.4c1.2,0,2.2-0.9,2.2-2.4
					S114.7,133.3,113.5,133.3z"/>
				<path class="st29" d="M120.7,138.7c-1.7,0-2.9-1.2-2.9-3.1c0-1.9,1.3-3.1,3-3.1c1.7,0,3,1.2,3,3.1
					C123.7,137.5,122.4,138.7,120.7,138.7z M120.7,138c1.1,0,2.2-0.8,2.2-2.4c0-1.6-1.1-2.4-2.2-2.4s-2.2,0.8-2.2,2.4
					C118.6,137.3,119.6,138,120.7,138z"/>
				<path class="st29" d="M130.6,132.6c1.2,0,2,0.6,2.3,1.4v-1.3h0.8v6.1c0,1.7-1.1,2.8-2.8,2.8c-1.5,0-2.6-0.8-2.8-2h0.7
					c0.2,0.8,1,1.4,2.1,1.4c1.1,0,2-0.7,2-2.1v-1.5c-0.3,0.8-1.2,1.4-2.3,1.4c-1.6,0-2.8-1.2-2.8-3.1
					C127.8,133.8,129,132.6,130.6,132.6z M130.7,133.3c-1.2,0-2.2,0.9-2.2,2.4c0,1.5,1,2.4,2.2,2.4c1.2,0,2.2-0.9,2.2-2.4
					S131.9,133.3,130.7,133.3z"/>
				<path class="st29" d="M138,138.7c-1.7,0-2.9-1.2-2.9-3.1c0-1.9,1.3-3.1,3-3.1c1.7,0,3,1.2,3,3.1
					C141,137.5,139.7,138.7,138,138.7z M138,138c1.1,0,2.2-0.8,2.2-2.4c0-1.6-1.1-2.4-2.2-2.4s-2.2,0.8-2.2,2.4
					C135.9,137.3,136.9,138,138,138z"/>
				<path class="st29" d="M145,138.7c-1.7,0-2.9-1.2-2.9-3.1c0-1.9,1.3-3.1,3-3.1c1.7,0,3,1.2,3,3.1
					C148,137.5,146.7,138.7,145,138.7z M145,138c1.1,0,2.2-0.8,2.2-2.4c0-1.6-1.1-2.4-2.2-2.4s-2.2,0.8-2.2,2.4
					C142.8,137.3,143.9,138,145,138z"/>
				<path class="st29" d="M151.9,132.6c1.1,0,2,0.6,2.3,1.4v-3.4h0.8v8h-0.8v-1.3c-0.3,0.8-1.2,1.4-2.3,1.4c-1.6,0-2.8-1.2-2.8-3.1
					C149,133.8,150.2,132.6,151.9,132.6z M152,133.3c-1.2,0-2.2,0.9-2.2,2.4c0,1.5,1,2.4,2.2,2.4c1.2,0,2.2-0.9,2.2-2.4
					S153.2,133.3,152,133.3z"/>
				<path class="st29" d="M162.2,132.6c1.2,0,2,0.6,2.3,1.4v-1.3h0.8v5.9h-0.8v-1.3c-0.3,0.8-1.2,1.4-2.4,1.4
					c-1.6,0-2.8-1.2-2.8-3.1C159.3,133.8,160.5,132.6,162.2,132.6z M162.3,133.3c-1.2,0-2.2,0.9-2.2,2.4c0,1.5,1,2.4,2.2,2.4
					c1.2,0,2.2-0.9,2.2-2.4S163.5,133.3,162.3,133.3z"/>
				<path class="st29" d="M167.2,133.3h-0.8v-0.6h0.8v-1.5h0.8v1.5h1.6v0.6H168v3.7c0,0.7,0.2,1,0.9,1h0.7v0.7h-0.8
					c-1,0-1.6-0.4-1.6-1.6V133.3z"/>
			</g>
		</g>
		<g>
			<linearGradient id="SVGID_28_" gradientUnits="userSpaceOnUse" x1="114.0654" y1="87.4466" x2="153.3839" y2="87.4466">
				<stop  offset="0" style="stop-color:#E28A5B"/>
				<stop  offset="1" style="stop-color:#CA2E78"/>
			</linearGradient>
			<path class="st36" d="M152.7,99.3c-0.1-0.1-7.9-11.4-18.3-11.4c-10.4,0-15.5,10.6-15.6,10.7l-0.8-0.3c0-0.1,2.1-5.7,0-10
				c-2.2-4.5-3.9-12.3-3.9-12.6l0.8-0.2c0,0.1,1.7,8.1,3.9,12.4c1.3,2.6,1.2,5.7,0.8,7.8c2.3-3.3,7.2-8.7,14.8-8.7
				c10.9,0,18.7,11.3,19,11.8L152.7,99.3z"/>
		</g>
		<g>
			<linearGradient id="SVGID_29_" gradientUnits="userSpaceOnUse" x1="103.6709" y1="87.6645" x2="150.908" y2="87.6645">
				<stop  offset="0" style="stop-color:#E28A5B"/>
				<stop  offset="1" style="stop-color:#CA2E78"/>
			</linearGradient>
			<path class="st37" d="M134.3,116.5c-8.3,0-14.4-3-18.3-4.9c-1.7-0.8-3.1-1.5-3.8-1.5c-3.4,0.1-4.7-2.2-4.9-2.8
				c-3.4-2.6-3.8-6.8-3.5-12.9c0.3-6,1.2-21.8,1.3-21.9l0-0.1l0.1-0.1c1.9-3.2,8.3-13.5,10.4-13.6c2.1-0.1,9,4.4,10.7,9.7
				c1.2,3.8-2.3,7.1-3.4,8c-1.4,1.2-3.3,2.2-4.2,1.7c-1.5-0.8-2-2.9-2-3l0.8-0.2c0,0,0.4,1.8,1.6,2.4c0.3,0.1,1.6-0.3,3.3-1.6
				c1-0.8,4.2-3.8,3.1-7.1c-1.5-4.8-8-9.2-9.8-9.1c-1.1,0.1-5.7,6.7-9.6,13.1c-0.1,1.4-1,16.1-1.2,21.8c-0.3,5.9,0.1,9.9,3.3,12.3
				l0.1,0.1l0,0.1c0,0.1,0.9,2.4,4.2,2.3c0.9,0,2.3,0.6,4.2,1.6c6.1,3,17.5,8.5,34.2,1.1l0.3,0.8
				C144.7,115.5,139.1,116.5,134.3,116.5z"/>
		</g>
		<g>
			<linearGradient id="SVGID_30_" gradientUnits="userSpaceOnUse" x1="112.9746" y1="73.7675" x2="121.2291" y2="73.7675">
				<stop  offset="0" style="stop-color:#E28A5B"/>
				<stop  offset="1" style="stop-color:#CA2E78"/>
			</linearGradient>
			<path class="st38" d="M113.8,76.1c-0.5,0-0.8,0-0.8-0.1l0.1-0.8c0.2,0,4.6,0.7,7.4-3.8l0.7,0.4C118.9,75.6,115.4,76.1,113.8,76.1
				z"/>
		</g>
	</g>
</g>
<g id="DESIGNED_BY_FREEPIK">
	<g>
	</g>
	<g>
	</g>
	<g>
	</g>
	<g>
	</g>
	<g>
	</g>
	<g>
	</g>
	<g>
	</g>
	<g>
	</g>
	<g>
	</g>
	<g>
	</g>
	<g>
	</g>
	<g>
	</g>
	<g>
	</g>
	<g>
	</g>
	<g>
	</g>
</g>
</svg>
