<?xml version="1.0" encoding="utf-8"?>
<!-- Generator: Adobe Illustrator 24.3.0, SVG Export Plug-In . SVG Version: 6.00 Build 0)  -->
<svg version="1.1"
	 id="svg2" xmlns:cc="http://creativecommons.org/ns#" xmlns:dc="http://purl.org/dc/elements/1.1/" xmlns:rdf="http://www.w3.org/1999/02/22-rdf-syntax-ns#" xmlns:svg="http://www.w3.org/2000/svg"
	 xmlns="http://www.w3.org/2000/svg" xmlns:xlink="http://www.w3.org/1999/xlink" x="0px" y="0px" viewBox="0 0 816.6 250"
	 style="enable-background:new 0 0 816.6 250;" xml:space="preserve">
<style type="text/css">
	.st0{fill:#FFFFFF;}
	.st1{fill-rule:evenodd;clip-rule:evenodd;fill:#FFFFFF;}
</style>
<g>
	<polygon class="st0" points="707.6,158.3 707.9,158.3 708.2,158.3 708.5,158.3 708.8,158.3 709.1,158.3 709.4,158.3 709.7,158.3 
		710,158.3 710.3,158.3 710.6,158.3 710.9,158.3 711.2,158.3 711.5,158.3 711.8,158.3 712.1,158.3 711.9,158.1 711.8,157.8 
		711.7,157.5 711.6,157.2 711.5,156.9 711.4,156.7 711.3,156.4 711.2,156.1 711.1,155.8 711,155.6 710.9,155.3 710.7,155 
		710.7,154.7 710.5,154.5 710.4,154.2 710.3,153.9 710.2,153.6 710.1,153.4 710,153.1 709.9,152.8 709.8,152.5 709.7,152.2 
		709.6,152 709.4,152.2 709.4,152.5 709.2,152.8 709.1,153.1 709,153.4 708.9,153.6 708.8,153.9 708.7,154.2 708.6,154.5 
		708.5,154.7 708.3,155 708.2,155.3 708.1,155.6 708,155.8 707.9,156.1 707.8,156.4 707.7,156.7 707.6,156.9 707.5,157.2 
		707.4,157.5 707.2,157.8 707.1,158.1 707,158.3 707.3,158.3 	"/>
	<path class="st0" d="M724.1,87.7V69.6c0-2.9-1.3-4.2-4.1-4.2h-4.5v26.5h4.5C722.8,91.9,724.1,90.6,724.1,87.7z"/>
	<path class="st0" d="M797.9,30.8H665.5c-10.7,0-14.7,4-14.7,14.7V175c0,1.2,0,2.3,0.2,3.4c0.2,2.3,0.3,4.6,2.5,7.2
		c0.2,0.3,2.4,1.9,2.4,1.9c1.2,0.6,2,1,3.4,1.6l65.2,27.3c3.4,1.6,4.8,2.2,7.3,2.1v0c0,0,0,0,0,0s0,0,0,0v0c2.5,0,3.9-0.6,7.3-2.1
		l65.2-27.3c1.4-0.5,2.2-1,3.4-1.6c0,0,2.2-1.7,2.4-1.9c2.2-2.6,2.2-4.9,2.5-7.2c0.1-1,0.2-2.2,0.2-3.4V45.5
		C812.6,34.7,808.7,30.8,797.9,30.8z M740,55.7h11v72h-11V55.7z M735.2,153.6l0.1,0.2l0.1-0.2l0.1-0.3l0.2-0.2l0.1-0.3l0.1-0.2
		l0.1-0.3l0.2-0.2l0.1-0.3l0.1-0.2l0.1-0.2l0.2-0.3l0.1-0.2l0.1-0.3l0.1-0.2l0.2-0.3l0.1-0.2l0.1-0.3l0.1-0.2l0.2-0.2l0.2-0.3
		l0.1-0.2l0.1-0.3l0.1-0.2l0.2-0.3l0.1-0.2l0.1-0.2l0.1-0.3l0.2-0.2l0.1-0.3l0.1-0.2l0.1-0.3l0.2-0.2l0.1-0.3l0.1-0.2h0.3h0.3h0.3
		h0.3h0.3h0.3h0.3h0.3h0.3h0.3h0.3h0.3h0.3h0.3h0.3h0.3h0.3h0.3h0.3h0.3h0.3v0.3v0.3v0.3v0.3v0.3v0.3v0.3v0.3v0.3v0.3v0.3v0.3v0.3
		v0.3v0.3v0.3v0.3v0.3v0.3v0.3v0.3v0.3v0.3v0.3v0.3v0.3v0.3v0.3v0.3v0.3v0.3v0.3v0.3v0.3v0.3v0.3v0.3v0.3v0.3v0.3v0.3v0.3v0.3v0.3
		v0.3v0.3v0.3v0.3v0.3v0.3v0.3v0.3v0.3v0.3v0.3v0.3v0.3v0.3v0.3v0.3v0.3v0.3v0.3v0.3v0.3v0.3v0.3v0.3v0.3v0.3v0.3v0.3v0.3h-0.3h-0.3
		h-0.3h-0.3h-0.3h-0.3h-0.3h-0.3H744h-0.3h-0.3h-0.3h-0.3h-0.3h-0.3h-0.3h-0.3h-0.3H741v-0.3v-0.3v-0.3v-0.3v-0.3v-0.3v-0.3v-0.3
		v-0.3V164v-0.3v-0.3v-0.3v-0.3v-0.3v-0.3v-0.3v-0.3v-0.3V161v-0.3v-0.3v-0.3v-0.3v-0.3v-0.3v-0.3v-0.3v-0.3V158v-0.3v-0.3v-0.3
		v-0.3v-0.3v-0.3V156v-0.3v-0.3v-0.3v-0.3v-0.3v-0.3l-0.1,0.2l-0.2,0.3l-0.1,0.2l-0.2,0.2l-0.1,0.3l-0.2,0.2l-0.1,0.2l-0.1,0.3
		l-0.2,0.2l-0.1,0.2l-0.2,0.2l-0.1,0.3l-0.2,0.2l-0.1,0.2l-0.1,0.3l-0.2,0.2l-0.1,0.2l-0.2,0.3l-0.1,0.2l-0.2,0.2l-0.1,0.3l-0.1,0.2
		l-0.2,0.2l-0.1,0.3l-0.2,0.2l-0.1,0.2l-0.2,0.2l-0.1,0.3l-0.1,0.2l-0.2,0.2l-0.1,0.3l-0.2,0.2l-0.1,0.2l-0.2,0.3l-0.1,0.2h-0.1
		l-0.2-0.3l-0.1-0.2l-0.2-0.3l-0.1-0.2l-0.2-0.3l-0.1-0.2l-0.2-0.3l-0.1-0.2l-0.2-0.3l-0.1-0.2l-0.2-0.3l-0.1-0.2l-0.2-0.3l-0.1-0.2
		l-0.2-0.3l-0.1-0.2l-0.2-0.3l-0.2-0.2l-0.1-0.3l-0.2-0.2l-0.1-0.3l-0.2-0.2l-0.1-0.3l-0.2-0.2l-0.1-0.3l-0.2-0.2l-0.1-0.3l-0.2-0.2
		l-0.1-0.3l-0.2-0.2l-0.1-0.3l-0.2-0.2l-0.2-0.3l-0.2-0.2v0.3v0.3v0.3v0.3v0.3v0.3v0.3v0.3v0.3v0.3v0.3v0.3v0.3v0.3v0.3v0.3v0.3v0.3
		v0.3v0.3v0.3v0.3v0.3v0.3v0.3v0.3v0.3v0.3v0.3v0.3v0.3v0.3v0.3v0.3v0.3v0.3v0.3v0.3v0.3v0.3v0.3v0.3v0.3h-0.3h-0.3h-0.3h-0.3h-0.3
		h-0.3h-0.3h-0.3H727h-0.3h-0.3h-0.3h-0.3h-0.3h-0.3h-0.3h-0.3h-0.3H724v-0.3v-0.3v-0.3v-0.3v-0.3v-0.3v-0.3v-0.3v-0.3V164v-0.3
		v-0.3v-0.3v-0.3v-0.3v-0.3v-0.3v-0.3v-0.3v-0.3v-0.3v-0.3v-0.3v-0.3v-0.3v-0.3V159v-0.3v-0.3v-0.3v-0.3v-0.3v-0.3v-0.3v-0.3v-0.3
		V156v-0.3v-0.3v-0.3v-0.3v-0.3v-0.3v-0.3v-0.3v-0.3V153v-0.3v-0.3v-0.3v-0.3v-0.3v-0.3v-0.3v-0.3v-0.3V150v-0.3v-0.3v-0.3v-0.3
		v-0.3v-0.3V148v-0.3v-0.3v-0.3v-0.3v-0.3v-0.3v-0.3v-0.3v-0.3h0.3h0.3h0.3h0.3h0.3h0.3h0.3h0.3h0.3h0.3h0.3h0.3h0.3h0.3h0.3h0.3
		h0.3h0.3h0.3h0.3h0.3l0.1,0.2l0.1,0.3l0.2,0.2l0.1,0.3l0.1,0.2l0.1,0.3l0.1,0.2l0.2,0.3l0.1,0.2l0.1,0.2l0.1,0.3l0.1,0.2l0.2,0.3
		l0.1,0.2l0.1,0.3l0.1,0.2l0.2,0.2l0.1,0.3l0.1,0.2l0.1,0.3l0.1,0.2l0.2,0.3l0.1,0.2l0.1,0.3l0.1,0.2l0.1,0.2l0.2,0.3l0.1,0.2
		l0.1,0.3l0.1,0.2l0.1,0.3l0.2,0.2L735.2,153.6z M704.5,55.7h17.2c8.9,0,13.3,4.4,13.3,13.4v19.1c0,8.9-4.4,13.4-13.3,13.4h-6.2
		v26.1h-11V55.7z M674.7,55.7h24.4v10h-13.4v20.4h12.9v10h-12.9v21.7h13.6v10h-24.6V55.7z M695.4,154.6v0.3v0.3v0.3v0.3v0.3v0.3v0.3
		v0.3v0.3v0.3v0.3v0.3v0.3v0.3v0.3v0.3v0.3v0.3v0.3v0.3v0.3v0.3v0.3v0.3v0.3v0.3v0.3v0.3v0.3v0.3v0.3v0.3l-0.2,0.2l-0.2,0.2
		l-0.2,0.1l-0.2,0.2l-0.2,0.1l-0.2,0.2l-0.2,0.1l-0.2,0.1l-0.3,0.1l-0.3,0.1l-0.3,0.1l-0.3,0.1l-0.3,0.1l-0.3,0.1l-0.3,0.1l-0.3,0.1
		l-0.3,0.1l-0.3,0.1l-0.3,0.1l-0.3,0.1l-0.3,0.1l-0.3,0.1l-0.3,0.1l-0.3,0.1l-0.3,0.1l-0.3,0.1l-0.3,0l-0.3,0l-0.3,0l-0.3,0l-0.3,0
		l-0.3,0h-0.3h-0.3h-0.3h-0.3l-0.3,0l-0.3,0l-0.3,0l-0.3,0l-0.3,0l-0.3-0.1l-0.3-0.1l-0.3-0.1l-0.3-0.1l-0.3-0.1l-0.3-0.1l-0.3-0.1
		l-0.3-0.1l-0.3-0.1l-0.3-0.1l-0.3-0.1l-0.3-0.1l-0.3-0.1L680,166l-0.2-0.1l-0.3-0.1l-0.2-0.1l-0.2-0.1l-0.2-0.2l-0.2-0.2l-0.2-0.2
		l-0.2-0.2l-0.2-0.2l-0.2-0.2l-0.2-0.2l-0.2-0.2l-0.2-0.2l-0.2-0.2l-0.2-0.2l-0.2-0.2l-0.1-0.2l-0.2-0.2l-0.1-0.2l-0.1-0.2l-0.1-0.3
		l-0.1-0.2l-0.1-0.3l-0.1-0.3l-0.1-0.3l-0.1-0.3l-0.1-0.2l-0.1-0.3l-0.1-0.3l-0.1-0.3l-0.1-0.3l-0.1-0.3l-0.1-0.3l0-0.3l-0.1-0.3
		l0-0.3l0-0.3l0-0.3l0-0.3v-0.3v-0.3v-0.1v-0.3l0-0.3v-0.3l0-0.3l0-0.3l0.1-0.3l0-0.3l0.1-0.3l0.1-0.3l0.1-0.3l0.1-0.3l0.1-0.3
		l0.1-0.3l0.1-0.3l0.1-0.3l0.1-0.3l0.1-0.3l0.1-0.3l0.1-0.3l0.1-0.2l0.1-0.2l0.1-0.2l0.1-0.2l0.2-0.2l0.2-0.2l0.2-0.2l0.2-0.2
		l0.2-0.2l0.2-0.2l0.2-0.2l0.2-0.2l0.2-0.2l0.2-0.2l0.2-0.2l0.2-0.2l0.2-0.1l0.2-0.2l0.2-0.1l0.2-0.1l0.3-0.1l0.3-0.1l0.3-0.1
		l0.3-0.1l0.3-0.1l0.3-0.1l0.2-0.1l0.3-0.1l0.3-0.1l0.3-0.1l0.3-0.1l0.3-0.1l0.3-0.1l0.3-0.1l0.3,0l0.3-0.1l0.3,0l0.3,0l0.3,0l0.3,0
		h0.3h0.3h0.3h0.3l0.3,0l0.3,0h0.3l0.3,0l0.3,0.1l0.3,0l0.3,0.1l0.3,0.1l0.3,0.1l0.3,0.1l0.3,0.1l0.3,0.1l0.3,0.1l0.2,0.1l0.3,0.1
		l0.3,0.1l0.3,0.1l0.3,0.1l0.3,0.1l0.3,0.1l0.2,0.1l0.3,0.1l0.2,0.1l0.3,0.1l0.2,0.2l0.2,0.1l0.2,0.2l0.2,0.2l0.2,0.2l0.2,0.2
		l-0.2,0.2l-0.2,0.2l-0.2,0.2l-0.2,0.2l-0.2,0.2l-0.2,0.2l-0.2,0.2l-0.2,0.2L693,150l-0.2,0.2l-0.2,0.2l-0.2,0.2l-0.2,0.2l-0.2,0.2
		l-0.2,0.2l-0.2,0.2l-0.2,0.2l-0.2,0.2l-0.2-0.2l-0.2-0.2l-0.2-0.1l-0.2-0.2l-0.2-0.1l-0.2-0.1l-0.2-0.1l-0.3-0.1l-0.2-0.1l-0.2-0.1
		l-0.2-0.1l-0.3-0.1l-0.3-0.1l-0.3-0.1l-0.3-0.1l-0.3-0.1l-0.3,0l-0.3,0l-0.3,0h-0.3h-0.3l-0.3,0l-0.3,0l-0.3,0.1l-0.3,0.1l-0.3,0.1
		l-0.3,0.1l-0.3,0.1l-0.3,0.1l-0.2,0.1l-0.2,0.1l-0.2,0.1l-0.2,0.2l-0.2,0.2l-0.2,0.2l-0.2,0.2l-0.2,0.2l-0.2,0.2l-0.1,0.2l-0.1,0.2
		l-0.1,0.3l-0.1,0.2l-0.1,0.3l-0.1,0.3l-0.1,0.3l-0.1,0.3l-0.1,0.3l-0.1,0.3l-0.1,0.3l0,0.3l0,0.3v0.3v0.1v0.3l0,0.3l0,0.3l0,0.3
		l0.1,0.3l0.1,0.3l0.1,0.3l0.1,0.3l0.1,0.2l0.1,0.3l0.1,0.3l0.1,0.3l0.1,0.2l0.1,0.2l0.2,0.2l0.2,0.2l0.2,0.2l0.2,0.2l0.2,0.2
		l0.2,0.2l0.2,0.2l0.2,0.1l0.2,0.1l0.3,0.1l0.3,0.1l0.3,0.1l0.3,0.1l0.3,0.1l0.3,0.1l0.3,0.1l0.3,0l0.3,0h0.3h0.4l0.3,0l0.3,0l0.3,0
		l0.3-0.1l0.3-0.1l0.3-0.1l0.3-0.1l0.3-0.1l0.2-0.1l0.3-0.1l0.2-0.1l0.2-0.1v-0.3v-0.3v-0.3v-0.3v-0.3v-0.3v-0.3V159v-0.3h-0.3h-0.3
		h-0.3h-0.3h-0.3h-0.3h-0.3h-0.3h-0.3h-0.3h-0.3h-0.3h-0.3h-0.3h-0.3v-0.3v-0.3v-0.3v-0.3v-0.3V157v-0.3v-0.3v-0.3v-0.3v-0.3v-0.3
		v-0.3v-0.3v-0.3h0.3h0.3h0.3h0.3h0.3h0.3h0.3h0.3h0.3h0.3h0.3h0.3h0.3h0.3h0.3h0.3h0.3h0.3h0.3h0.3h0.3h0.3h0.3h0.3h0.3h0.3h0.3
		h0.3h0.3h0.3h0.3h0.3h0.3V154.6z M700,167h-0.3h-0.3h-0.3h-0.3h-0.3h-0.3h-0.3h-0.3l0.1-0.3l0.1-0.3l0.1-0.3l0.1-0.3l0.1-0.3
		l0.1-0.3l0.1-0.3l0.1-0.3l0.1-0.3l0.1-0.3l0.1-0.3l0.1-0.3l0.1-0.3l0.1-0.3l0.1-0.3l0.1-0.3l0.1-0.3l0.1-0.3l0.1-0.3l0.1-0.3
		l0.1-0.3l0.1-0.3l0.1-0.3l0.1-0.3l0.1-0.3l0.1-0.3l0.1-0.3l0.1-0.3l0.1-0.3l0.1-0.3l0.1-0.3l0.1-0.3l0.1-0.3l0.1-0.3l0.1-0.3
		l0.1-0.3l0.1-0.3l0.1-0.3l0.1-0.3l0.1-0.3l0.1-0.3l0.1-0.3l0.1-0.3l0.1-0.3l0.1-0.3l0.1-0.3l0.1-0.3l0.1-0.3l0.1-0.3l0.1-0.3
		l0.1-0.3l0.1-0.3l0.1-0.3l0.1-0.3l0.1-0.3l0.1-0.3l0.1-0.3l0.1-0.3l0.1-0.3l0.1-0.3l0.1-0.3l0.1-0.3l0.1-0.3l0.1-0.3l0.1-0.3
		l0.1-0.3l0.1-0.3l0.1-0.3l0.1-0.3l0.1-0.3l0.1-0.3l0.1-0.3l0.1-0.3l0.1-0.3l0.1-0.3l0.1-0.3l0.1-0.3l0.1-0.3l0.1-0.3l0.1-0.3h0.3
		h0.3h0.3h0.3h0.3h0.3h0.3h0.3h0.3h0.3h0.3h0.3h0.3h0.3h0.3h0.3h0.3h0.3h0.3l0.1,0.3l0.1,0.3l0.1,0.3l0.1,0.3l0.1,0.3l0.1,0.3
		l0.1,0.3l0.1,0.3l0.1,0.3l0.1,0.3l0.1,0.3l0.1,0.3l0.1,0.3l0.1,0.3l0.1,0.3l0.1,0.3l0.1,0.3l0.1,0.3l0.1,0.3l0.1,0.3l0.1,0.3
		l0.1,0.3l0.1,0.3l0.1,0.3l0.1,0.3l0.1,0.3l0.1,0.3l0.1,0.3l0.1,0.3l0.1,0.3l0.1,0.3l0.1,0.3l0.1,0.3l0.1,0.3l0.1,0.3l0.1,0.3
		l0.1,0.3l0.1,0.3l0.1,0.3l0.1,0.3l0.1,0.3l0.1,0.3l0.1,0.3l0.1,0.3l0.1,0.3l0.1,0.3l0.1,0.3l0.1,0.3l0.1,0.3l0.1,0.3l0.1,0.3
		l0.1,0.3l0.1,0.3l0.1,0.3l0.1,0.3l0.1,0.3l0.1,0.3l0.1,0.3l0.1,0.3l0.1,0.3l0.1,0.3l0.1,0.3l0.1,0.3l0.1,0.3l0.1,0.3l0.1,0.3
		l0.1,0.3l0.1,0.3l0.1,0.3l0.1,0.3l0.1,0.3l0.1,0.3l0.1,0.3l0.1,0.3l0.1,0.3l0.1,0.3l0.1,0.3l0.1,0.3l0.1,0.3l0.1,0.3h-0.3H721h-0.3
		h-0.3h-0.3h-0.3h-0.3h-0.3H719h-0.3h-0.3h-0.3h-0.3h-0.3h-0.3h-0.3h-0.3h-0.3H716h-0.3h-0.3l-0.1-0.3l-0.1-0.3l-0.1-0.3l-0.1-0.3
		l-0.1-0.3l-0.1-0.3l-0.1-0.3l-0.1-0.3l-0.1-0.3l-0.1-0.3l-0.1-0.3l-0.1-0.3l-0.1-0.3l-0.1-0.3l-0.1-0.3h-0.3h-0.3h-0.3h-0.3h-0.3
		h-0.3h-0.3h-0.3h-0.3h-0.3h-0.3h-0.3H710h-0.3h-0.3h-0.3h-0.3h-0.3h-0.3h-0.3h-0.3h-0.3H707h-0.3h-0.3h-0.3h-0.3h-0.3h-0.3
		l-0.1,0.3l-0.1,0.3l-0.1,0.3l-0.1,0.3l-0.1,0.3l-0.1,0.3l-0.1,0.3l-0.1,0.3l-0.1,0.3l-0.1,0.3l-0.1,0.3l-0.1,0.3l-0.1,0.3l-0.1,0.3
		l-0.1,0.3h-0.3H703h-0.3h-0.3h-0.3h-0.3h-0.3h-0.3h-0.3h-0.3h-0.3H700z M731.2,203.4l-30.7-10.6h62.7L731.2,203.4z M768.5,162.4
		v0.3v0.3v0.3v0.3v0.3v0.3v0.3v0.3v0.3v0.3v0.3v0.3v0.3v0.3v0.3v0.3h-0.3h-0.3h-0.3h-0.3H767h-0.3h-0.3h-0.3h-0.3h-0.3h-0.3h-0.3
		h-0.3h-0.3H764h-0.3h-0.3h-0.3h-0.3h-0.3h-0.3h-0.3h-0.3h-0.3H761h-0.3h-0.3h-0.3h-0.3h-0.3h-0.3h-0.3h-0.3h-0.3H758h-0.3h-0.3
		h-0.3h-0.3h-0.3h-0.3h-0.3h-0.3h-0.3H755h-0.3h-0.3h-0.3h-0.3h-0.3h-0.3h-0.3h-0.3h-0.3H752h-0.3h-0.3h-0.3v-0.3v-0.3v-0.3v-0.3
		v-0.3v-0.3v-0.3v-0.3v-0.3V164v-0.3v-0.3v-0.3v-0.3v-0.3v-0.3v-0.3v-0.3v-0.3v-0.3v-0.3v-0.3v-0.3v-0.3v-0.3v-0.3V159v-0.3v-0.3
		v-0.3v-0.3v-0.3v-0.3v-0.3v-0.3v-0.3V156v-0.3v-0.3v-0.3v-0.3v-0.3v-0.3v-0.3v-0.3v-0.3V153v-0.3v-0.3v-0.3v-0.3v-0.3v-0.3v-0.3
		v-0.3v-0.3V150v-0.3v-0.3v-0.3v-0.3v-0.3v-0.3V148v-0.3v-0.3v-0.3v-0.3v-0.3v-0.3v-0.3v-0.3v-0.3h0.3h0.3h0.3h0.3h0.3h0.3h0.3h0.3
		h0.3h0.3h0.3h0.3h0.3h0.3h0.3h0.3h0.3h0.3h0.3h0.3h0.3h0.3h0.3h0.3h0.3h0.3h0.3h0.3h0.3h0.3h0.3h0.3h0.3h0.3h0.3h0.3h0.3h0.3h0.3
		h0.3h0.3h0.3h0.3h0.3h0.3h0.3h0.3h0.3h0.3h0.3h0.3h0.3h0.3h0.3h0.3h0.3h0.3h0.3v0.3v0.3v0.3v0.3v0.3v0.3v0.3v0.3v0.3v0.3v0.3v0.3
		v0.3v0.3v0.3v0.3v0.3H768h-0.3h-0.3h-0.3h-0.3h-0.3h-0.3H766h-0.3h-0.3h-0.3h-0.3h-0.3h-0.3h-0.3h-0.3h-0.3H763h-0.3h-0.3h-0.3
		h-0.3h-0.3h-0.3H761h-0.3h-0.3h-0.3h-0.3h-0.3h-0.3h-0.3h-0.3h-0.3H758h-0.3h-0.3h-0.3h-0.3v0.3v0.3v0.3v0.3v0.3v0.3v0.3v0.3v0.3
		v0.3v0.3v0.3h0.3h0.3h0.3h0.3h0.3h0.3h0.3h0.3h0.3h0.3h0.3h0.3h0.3h0.3h0.3h0.3h0.3h0.3h0.3h0.3h0.3h0.3h0.3h0.3h0.3h0.3h0.3h0.3
		h0.3h0.3h0.3h0.3h0.3h0.3h0.3v0.3v0.3v0.3v0.3v0.3v0.3v0.3v0.3v0.3v0.3v0.3v0.3v0.3v0.3v0.3v0.3h-0.3h-0.3h-0.3H766h-0.3h-0.3h-0.3
		h-0.3h-0.3h-0.3h-0.3h-0.3h-0.3H763h-0.3h-0.3h-0.3h-0.3h-0.3h-0.3H761h-0.3h-0.3h-0.3h-0.3h-0.3h-0.3h-0.3h-0.3h-0.3H758h-0.3
		h-0.3h-0.3h-0.3v0.3v0.3v0.3v0.3v0.3v0.3v0.3v0.3v0.3v0.3v0.3v0.3h0.3h0.3h0.3h0.3h0.3h0.3h0.3h0.3h0.3h0.3h0.3h0.3h0.3h0.3h0.3
		h0.3h0.3h0.3h0.3h0.3h0.3h0.3h0.3h0.3h0.3h0.3h0.3h0.3h0.3h0.3h0.3h0.3h0.3h0.3h0.3h0.3h0.3h0.3h0.3V162.4z M756.7,115V68.5
		c0-8.9,4.4-13.4,13.3-13.4h5.3c8.9,0,13.2,4.3,13.2,13.3v14.7h-10.7V69c0-2.9-1.3-4.2-4.1-4.2h-1.8c-2.9,0-4.2,1.3-4.2,4.2v45.5
		c0,2.9,1.3,4.2,4.2,4.2h2c2.8,0,4.1-1.3,4.1-4.2V98.2h10.7V115c0,8.9-4.4,13.4-13.3,13.4H770C761.1,128.3,756.7,123.9,756.7,115z
		 M789.1,160.3L789.1,160.3v0.4l0,0.3l0,0.3l0,0.3l-0.1,0.3l-0.1,0.3l-0.1,0.3l-0.1,0.3l-0.1,0.3l-0.1,0.2l-0.1,0.3l-0.1,0.2
		l-0.1,0.2l-0.2,0.2l-0.1,0.2l-0.2,0.2l-0.2,0.2l-0.2,0.2l-0.2,0.2l-0.2,0.2l-0.2,0.2l-0.2,0.1l-0.2,0.2l-0.3,0.1l-0.3,0.1l-0.3,0.1
		l-0.3,0.1l-0.3,0.1l-0.3,0.1l-0.3,0.1l-0.3,0.1l-0.3,0.1l-0.3,0.1l-0.3,0.1l-0.3,0.1l-0.3,0l-0.3,0l-0.3,0l-0.3,0l-0.3,0h-0.3h-0.3
		h-0.3h-0.3l-0.3,0h-0.3l-0.3,0l-0.3,0l-0.3,0l-0.3-0.1l-0.3,0l-0.3-0.1l-0.3-0.1l-0.3-0.1l-0.3-0.1l-0.3-0.1l-0.3-0.1l-0.3-0.1
		l-0.3-0.1l-0.3-0.1l-0.3-0.1l-0.3-0.1l-0.3-0.1l-0.3-0.1l-0.3-0.1l-0.3-0.1l-0.3-0.1l-0.3-0.1l-0.2-0.1l-0.3-0.1l-0.2-0.1l-0.2-0.1
		l-0.2-0.2l-0.2-0.2l-0.2-0.2l-0.2-0.2l-0.2-0.2l-0.2-0.2l0.2-0.2l0.2-0.2l0.2-0.2l0.2-0.2l0.2-0.2l0.2-0.2l0.2-0.2l0.2-0.2l0.2-0.2
		l0.2-0.2l0.2-0.2l0.2-0.2l0.2-0.2l0.2-0.2l0.2-0.2l0.2-0.2l0.2-0.2l0.2,0.2l0.3,0.2l0.2,0.2l0.3,0.2l0.2,0.1l0.3,0.2l0.2,0.1
		l0.3,0.1l0.2,0.1l0.3,0.1l0.3,0.1l0.3,0.1l0.3,0.1l0.3,0.1l0.3,0.1l0.3,0.1l0.3,0.1l0.3,0.1l0.3,0.1l0.3,0.1l0.3,0l0.3,0.1h0.3
		l0.3,0h0.3h0.4l0.3,0l0.3-0.1l0.3-0.1l0.3-0.1l0.2-0.1l0.2-0.1l0.2-0.2l0.2-0.2l0.1-0.2l0.1-0.3l0-0.3v-0.1l0-0.4l-0.1-0.3L783,160
		l-0.2-0.2l-0.2-0.2l-0.2-0.1l-0.3-0.1l-0.3-0.1l-0.4-0.1l-0.2-0.1l-0.2-0.1l-0.3-0.1l-0.3-0.1l-0.3-0.1l-0.3-0.1l-0.3-0.1l-0.3-0.1
		l-0.3-0.1l-0.3-0.1l-0.3-0.1l-0.3-0.1l-0.3-0.1l-0.3-0.1l-0.3-0.1l-0.3-0.1l-0.3-0.1l-0.3-0.1l-0.3-0.1l-0.3-0.1l-0.3-0.1l-0.3-0.1
		l-0.3-0.1l-0.3-0.1l-0.2-0.1l-0.3-0.1l-0.2-0.2l-0.2-0.1l-0.2-0.2l-0.2-0.2l-0.2-0.2l-0.2-0.2l-0.2-0.2l-0.1-0.2l-0.1-0.2l-0.1-0.3
		l-0.1-0.2l-0.1-0.2l-0.1-0.3l-0.1-0.2l-0.1-0.3l-0.1-0.3l0-0.3l0-0.3l0-0.3v-0.3v-0.1v-0.3l0-0.3l0-0.3l0-0.3l0.1-0.3l0.1-0.3
		l0.1-0.3l0.1-0.3l0.1-0.3l0.1-0.3l0.1-0.3l0.1-0.3l0.1-0.3l0.2-0.2l0.2-0.2l0.2-0.2l0.2-0.2l0.2-0.2l0.2-0.2l0.2-0.1l0.2-0.2
		l0.2-0.2l0.2-0.1l0.3-0.1l0.3-0.1l0.3-0.1l0.3-0.1l0.3-0.1l0.3-0.1l0.3-0.1l0.2-0.1l0.3-0.1l0.3-0.1l0.3-0.1l0.3-0.1l0.3,0l0.3,0
		l0.3,0l0.3,0h0.3h0.3h0.3h0.3l0.3,0l0.3,0h0.3l0.3,0l0.3,0.1l0.3,0l0.3,0.1l0.3,0.1l0.3,0.1l0.3,0.1l0.3,0.1l0.3,0.1l0.3,0.1
		l0.3,0.1l0.3,0.1l0.3,0.1l0.3,0.1l0.3,0.1l0.3,0.1l0.3,0.1l0.2,0.1l0.3,0.1l0.3,0.1l0.2,0.1l0.3,0.2l0.2,0.1l0.2,0.2l0.2,0.2
		l0.2,0.2l-0.2,0.2l-0.1,0.2l-0.2,0.2l-0.2,0.2l-0.2,0.3l-0.1,0.2l-0.2,0.2l-0.2,0.2l-0.1,0.2l-0.2,0.2l-0.2,0.2l-0.1,0.2l-0.2,0.3
		l-0.2,0.2l-0.2,0.2l-0.1,0.2l-0.2,0.2l-0.2-0.2l-0.3-0.1l-0.2-0.1l-0.2-0.2l-0.3-0.1l-0.2-0.1l-0.3-0.1l-0.2-0.1l-0.3-0.1l-0.2-0.1
		l-0.3-0.1l-0.2-0.1l-0.3-0.1l-0.3-0.1l-0.3-0.1l-0.3-0.1l-0.3-0.1l-0.3-0.1l-0.3,0l-0.3,0l-0.3,0h-0.3h-0.4l-0.3,0.1l-0.3,0.1
		l-0.3,0.1l-0.2,0.1l-0.2,0.1l-0.3,0.2l-0.2,0.3l-0.1,0.3l0,0.3v0.1l0,0.4l0.1,0.3l0.1,0.2l0.2,0.2l0.3,0.1l0.2,0.1l0.3,0.1l0.3,0.1
		l0.4,0.1l0.2,0.1l0.2,0.1l0.3,0.1l0.3,0.1l0.3,0.1l0.3,0.1l0.3,0.1l0.3,0.1l0.3,0.1l0.3,0.1l0.3,0.1l0.3,0.1l0.3,0.1l0.3,0.1
		l0.3,0.1l0.3,0.1l0.3,0.1l0.3,0.1l0.3,0.1l0.3,0.1l0.3,0.1l0.3,0.1l0.3,0.1l0.3,0.1l0.2,0.1l0.2,0.2l0.2,0.1l0.2,0.2l0.2,0.2
		l0.2,0.2l0.2,0.2l0.2,0.2l0.2,0.3l0.1,0.2l0.1,0.3l0.1,0.2l0.1,0.3l0.1,0.3l0.1,0.3l0.1,0.3l0.1,0.3l0,0.3l0,0.3V160.3z"/>
</g>
<g>
	<path class="st1" d="M107.3,226.4c0.7-0.9,0.9-2.5,1.3-3.8c0.7-2.1,1.8-6,3.2-7.5c1.4-1.5,1.3-2.1,2.2-3.5c2.1,1.8,1.6,2.7,1.1,5
		c-0.3,1.6-0.8,3.7-1.2,5.2c-0.4,1.4-1,4.3-1.7,5.2C110.3,229,108.4,227.7,107.3,226.4L107.3,226.4z M201.4,148.4l-0.1,0.2
		c-4.2-1.2-9.9-5.3-12.4-3.1c-0.6,0.5,0,0.2-0.8,0.7c-0.7,0.4-2.3,0.6-2.7,0.9c-0.5,0.4-0.4,0.5-0.7,1.1c0,0-0.1-0.1-0.1,0
		c-0.5,0.6-0.1,0-0.2,0c0,0-0.1,0-0.1,0l-0.3,0.1c-0.4,0.8-1.9,3.4-3,4.2c-1,1.1-2.2,8.4-5.7,12.1c-10.1,10.8-3.4,18.9-31.3,31.4
		c0.1-0.1-5.7,2.4-5.6,2.4c-0.7,1.1-0.5,0.9-2.6,2.8c-2.2,4-5.4,2.4-7.3,5.1c-4.7,4.7-6.9,1.5-8.6,5c-1.6,3.5-0.8-0.1-2.6,6.5
		c-0.6,2.3-2.2,6.9-2.2,9.2c0.1,3.1-0.8,6.4-2.5,9c-1.5,2.4-4.2,4.9-6.5,7.1c-2.5,2.5-0.5,1.4-4.3,2.5c-1.9,0.6-3.4,2.1-5.1,0.7
		l3.1-2c-1.2,0-2.3,0.1-3.1-0.8c3.8-0.4,1.5,0.5,4.3-1.5c0.9-0.6,1.1-0.4,2.1-1.2c0.5-0.4,1.2-1.2,1.6-1.7c1.4-1.6,4.1-5.6,4.3-7.1
		c-1-0.5-1.7-1.4-2.7-2.3c-0.9,3.6,1,3.7-1.6,7.9c-1.1,1.8-4.7,5-7.3,4.3c0.2-0.2-0.4,0.1,0.6-0.4c0.4-0.2,0.7-0.3,1.1-0.5
		c1.6-0.9,1-1.7,1.8-2.7c0.5-0.7,1.1-0.9,1.3-1.6c-1.4,1.2-1.4,2.1-3.1,3.2c-2,1.3-3.3,1.2-4.6-0.2c1.5-0.2,2,0,3.3-0.7l0.3-2.5
		l1.9-1c0.6-2.8-0.2-3.3,2.6-5.1c-0.7-0.9-1.9-2.2-2.7-3.1c-0.8-0.9-2.6-1.9-2.9-2.8c-0.4-1.2,0.4-2.4-1.4-3.2
		c-1.4-0.6-2.7,0.8-4.1,0.8c0.9-2.3,3.9-2.9,6-2.1c1.8,0.7,3,3.3,4.8,4.9c0.1-0.7-1-2-1.4-2.8c-0.6-1.2-1.3-1-2.2-2.2
		c3-0.2,4.2,2.8,6,4.4c1.3-1.7,1.9-5.5,2.6-7.6c0.4-1.2,0.8-1.6,0.4-3.1c-0.6-2.1-1.6-4.7-0.8-6.4c0.9-1.7-0.8-2-0.3-3.5
		c-0.4,0-0.8,0.1-1.2,0.3c10.2-9.9,12.4-20.6,19.2-27.9c3.3-3.6,4.5-10.5,5.4-11.5c1-0.7,2.4-3.2,2.8-3.9l0.3-0.1c0,0,0.1,0,0.1,0
		c0.1,0-0.2,0.6,0.2,0c0,0,0.1,0,0.1,0c0.2-0.5,0.2-0.7,0.6-1c0.4-0.3,1.9-0.5,2.5-0.9c0.8-0.5,0.2-0.2,0.8-0.7
		c2.3-2,7.8,1.8,11.7,3l0.1-0.2c-1.9-2.2-3.5-3.8-6.1-5.6c-2.1-1.5-5.4-3.2-6.3-3.7c1.5-0.8,3.7-0.8,5.8-0.6c2.7,0.4,6,1.1,9.2,2
		c0.2,0.1,0.9,0.8,1.1,1c1.1-3.5-11.6-9.1-14.4-10c-1.1-0.3-1.3-1-1.9-2c-1-1.4-1-0.8-1.9-1.7l-4.4-1.2c-1.3,0-1.9-1-5.6-0.9
		c-3.3,0-6.1,1.2-8.4,3.2l-10,5.2c-1.8,2.6-2,2.4-3.5,2.6c-1.4-0.6-24-18.5-23.6-19.1c-4-7.7-31.8-14.4-39.8-14.2l-4-1.1
		c1.5,0.1,3.1,0.2,4.8,0.3c-2.7-0.3-5.2-0.7-7.5-1.1c-10.5-3-13.9-4-18.1-5c-4.5-1.9-8.8-4.3-13.6-7.3c12.8,1.1,23.3,0.7,36.1,1.7
		c-12.7-3.4-25.6-5.1-30.8-15.7c9,2.6,22,2.6,31,5.2c-8.2-5-22.7-8.5-25-18.9c6.5,3.9,16.4,5.3,22.9,9.2c-4-4-12.3-13.1-13.7-17.5
		c14.7,9.6,14.8,10,34,14.6C37.9,70,33.2,67,34.3,58.4c13.9,6.3,25.1,11.2,39,17.5c-6.4-6.7-19.5-10.4-25.7-24.1
		C59.1,56.4,67.9,65.5,80,68.4c22.3,5.4,17,2.1,37.8,19.3c5,5.9,19.3,24.1,23.5,32.3c-0.4,0.7,9.5,15.4,10.9,16
		c1.6-0.2,1.8,0,3.7-2.7l10.6-5.4c2.5-2.1,5.5-3.3,8.9-3.4c3.9-0.1,4.6,1,6,1l4.7,1.3c0.9,1,1,0.3,2,1.7c0.7,1,0.8,1.7,2,2.1
		c3,0.9,16.4,6.8,15.2,10.5c-0.1-0.3-0.9-1-1.1-1.1c-3.4-1-6.8-1.7-9.7-2.1c-2.2-0.2-4.5-0.2-6.1,0.7c1,0.5,4.4,2.3,6.6,3.9
		C197.7,144.4,199.4,146.1,201.4,148.4L201.4,148.4z"/>
	<path class="st1" d="M245.4,130.9c-0.8-0.3-1.4-1.2-2.1-1.9c-1.2-1-3.2-3-4.6-3.4c-1.4-0.4-1.5-0.8-2.5-1.3c-0.6,1.8,0,2.2,1.1,3.5
		c0.8,0.8,1.8,2,2.6,2.7c0.8,0.7,2.1,2.3,2.9,2.5C244.5,133.5,245.2,132.1,245.4,130.9L245.4,130.9z M160.5,116.7l0.1,0.1
		c2.1-2.2,4.2-6.7,6.4-6.3c0.6,0.1,0.1,0.1,0.7,0.2c0.5,0,1.6-0.4,2-0.4c0.4,0.1,0.4,0.2,0.8,0.4c0,0,0-0.1,0.1-0.1
		c0.5,0.2,0-0.1,0.1-0.1c0,0,0.1,0,0.1,0l0.2-0.1c0.6,0.3,2.4,1.4,3.3,1.5c1,0.3,4.3,4.3,7.8,5.4c10,3,8.7,10.3,30.2,8
		c-0.1,0,4.4-0.5,4.3-0.6c0.8,0.4,0.7,0.4,2.6,0.8c2.8,1.7,4.2-0.4,6.3,0.5c4.5,1.2,4.7-1.6,7,0c2.2,1.6,0.4-0.3,3.9,3.1
		c1.2,1.2,3.8,3.4,4.6,4.9c1,1.9,2.8,3.6,4.7,4.6c1.8,0.9,4.3,1.5,6.5,2c2.4,0.6,0.8,0.7,3.5,0c1.4-0.3,2.8,0.1,3.3-1.3l-2.6-0.1
		c0.7-0.4,1.4-0.7,1.6-1.6c-2.4,1.1-0.7,0.9-3.1,0.6c-0.7-0.1-0.8,0.2-1.7,0c-0.4-0.1-1.2-0.3-1.6-0.5c-1.4-0.5-4.5-2-5.2-2.8
		c0.4-0.7,0.5-1.5,0.8-2.3c1.8,1.9,0.7,2.6,3.8,4.3c1.3,0.7,4.6,1.4,6,0c-0.2-0.1,0.3-0.1-0.5-0.1c-0.3,0-0.5,0.1-0.9,0.1
		c-1.3,0-1.2-0.7-2-1c-0.6-0.2-1-0.2-1.3-0.5c1.3,0.3,1.6,0.8,3,0.8c1.7,0,2.5-0.5,2.7-1.7c-1,0.4-1.2,0.7-2.3,0.8l-1.1-1.4l-1.6,0
		c-1.4-1.5-1.1-2.1-3.4-2.2c0.1-0.8,0.4-2,0.6-2.8c0.2-0.8,0.9-2,0.8-2.8c-0.2-0.9-1.1-1.3-0.3-2.5c0.6-0.9,2-0.5,2.8-1
		c-1.4-1.1-3.4-0.4-4.4,0.9c-0.8,1.1-0.7,3.1-1.2,4.7c-0.3-0.4-0.1-1.6-0.2-2.2c-0.1-0.9,0.4-1.1,0.5-2.1c-1.9,0.9-1.6,3.2-2.1,4.8
		c-1.4-0.6-3.1-2.7-4.3-3.7c-0.7-0.6-1-0.7-1.3-1.7c-0.4-1.5-0.7-3.4-1.8-4.1c-1.2-0.7-0.2-1.5-1.1-2.2c0.3-0.1,0.5-0.2,0.8-0.2
		c-9.7-2.4-14.9-8.2-21.6-10.2c-3.3-1-6.5-4.8-7.4-5.1c-0.9-0.1-2.6-1.1-3.1-1.4l-0.2,0c0,0-0.1,0-0.1,0c-0.1,0,0.3,0.3-0.1,0.1
		c0,0,0,0-0.1,0.1c-0.3-0.2-0.4-0.3-0.7-0.4c-0.4,0-1.3,0.4-1.9,0.4c-0.6,0-0.2-0.1-0.7-0.2c-2.1-0.4-4.1,3.8-6.1,6l-0.1-0.1
		c0.4-2,0.8-3.5,1.7-5.6c0.7-1.6,2.1-3.8,2.5-4.5c-1.2,0.1-2.6,0.8-3.7,1.7c-1.5,1.2-3.3,2.8-4.9,4.5c-0.1,0.1-0.3,0.8-0.3,1
		c-1.9-1.7,3.8-9.7,5.3-11.2c0.6-0.6,0.4-1.1,0.5-1.9c0.1-1.2,0.3-0.8,0.5-1.7l2.3-2.3c0.8-0.5,0.8-1.3,3.1-2.5c2-1.1,4.1-1.4,6.3-1
		l7.9-0.4c2,0.9,2,0.8,3,0.3c0.6-0.8,8-19.7,7.6-20c-0.3-6.1,14.3-20,19.2-22.8l2-2.1c-0.8,0.6-1.8,1.2-2.8,1.9
		c1.5-1.2,2.9-2.3,4.2-3.3c5.3-5.5,7.1-7.3,9.2-9.4c2.1-2.8,3.8-5.7,5.7-9.3c-7.4,5.2-14,8.7-21.4,13.8c6.5-6.6,13.8-12.2,13.2-20.5
		c-4.6,4.8-12.5,9.3-17,14.2c3.2-6,10.8-13.3,8.5-20.4c-2.6,4.7-8.1,9-10.7,13.7c1-3.9,2.9-12.3,2.1-15.5
		c-5.6,11-5.5,11.4-15.5,20.9c7.1-12.7,8.8-16.2,5.1-21c-6.2,8.7-11.3,15.7-17.5,24.5c1.5-6.4,8.2-13.2,7.1-23.8
		c-5.3,6.9-7.5,15.5-13.8,21.6c-11.7,11.2-9.6,7.3-16.2,25.2c-1,5.4-3.2,21.5-2.9,28c0.5,0.3-0.3,12.7-1,13.6
		c-1,0.5-1.1,0.6-3.2-0.4l-8.4,0.4c-2.3-0.4-4.5-0.1-6.6,1.1c-2.4,1.4-2.5,2.2-3.3,2.7l-2.4,2.5c-0.2,0.9-0.5,0.5-0.6,1.8
		c-0.1,0.8,0.1,1.4-0.5,2c-1.5,1.6-7.6,10-5.5,11.8c0-0.2,0.2-0.9,0.3-1.1c1.7-1.8,3.6-3.5,5.1-4.7c1.2-0.9,2.6-1.7,3.9-1.8
		c-0.4,0.7-1.9,3-2.7,4.7C161.3,113,160.9,114.6,160.5,116.7L160.5,116.7z"/>
</g>
<g>
	<path class="st0" d="M418.2,85.6c-1,10.3,4.4,15.9,13.4,19.1c1.7,0.6,2.8,2.4,4.3,3.6c1.3,1,2.8,2,4.3,3.1c1.8-3.8,3.2-6.6,4.5-9.3
		c-2.4-0.7-4.8-1.5-7.2-2.2c1.8-8.4,9.1-6.5,14.8-7.2c1.2,5.4,2.7,11.6,4.5,19c1.9-1.4,3.1-2.1,4.2-3.1c1.5-1.2,2.5-3.3,4.2-3.8
		c9.2-3.1,14.7-8.7,14.7-19.1c1,2.3,2.4,4.4,3,6.7c1.7,7.7,3.1,15.4,1.5,23.3c-1.7,8.3-5.2,15.5-13.8,18.5c-2.5,0.9-5.5,0.4-8.5,0.6
		c1.1,3.8,2.4,8.2,4,13.7c4.8-3.3,8.6-5.9,12.5-8.7c-0.3,1-0.4,1.9-0.7,2.9c1,0.3,1.7,0.5,2.8,0.8c-1.5,1.6-3,3-4.2,4.5
		c-1.2,1.6-1.9,4.2-4.7,1.8c-1.8,5.7-8.2,4.1-11.5,7.9c0.3,1,0.9,2.2,1.5,3.7c-8.7,2.1-17.4,1.6-26.3,0.2c0.5-1.4,1-2.6,1.4-3.8
		c-2.8-4-9.4-2-11-7.6c-5.9,2.1-4.9-5.7-9.1-6.6c0.9-0.3,1.7-0.7,2.6-1c-0.3-0.9-0.4-1.7-0.7-2.7c3.9,2.6,7.5,5.2,11.1,7.6
		c5.4-3.2,2.7-9.2,6.4-13.9c-6.7,2.7-11.5,0.6-15.7-3.2c-5.5-5.1-7.9-11.8-8-19.1c0-6.2,0.9-12.4,1.8-18.5c0.3-2.5,1.9-4.9,3-7.3
		C417.6,85.5,417.9,85.6,418.2,85.6z M455,141.6c1.2,3.8,2.4,7.4,3.4,11c0.3,0.2,0.8,0.3,1.1,0.4c1.2-1.7,3.8-3.8,3.5-5.2
		C462.4,144.1,459.1,142.5,455,141.6z M442.2,142c-3.7,0.3-8.2,3.3-8,5.2c0.3,2.4,1.5,4.6,4.8,5.1C439.9,149.2,441,145.9,442.2,142z
		"/>
	<path class="st0" d="M484.6,70.5c23.7,4.6,45.6,24.7,51,52.5c5.5,28.5-8.9,53.9-23.8,64.4c12.1-20.3,15.9-41.7,10.5-64.3
		C517,100.6,504.1,83.2,484.6,70.5z"/>
	<path class="st0" d="M537.4,113.5c-8.5-21.4-22.6-37.7-43.5-47.6c-20.8-9.8-42.1-10.7-64.3-3.2c9.6-10.2,36.5-20.3,62.1-11.6
		C521.4,60.9,537.6,88.6,537.4,113.5z"/>
	<path class="st0" d="M439.1,213.2c22.9-3.4,41.9-13.7,56.1-32s19.7-39.3,17.3-62.4c9.7,9.7,9,43.3-0.8,60.9
		C496.1,208.1,464.8,219.4,439.1,213.2z"/>
	<path class="st0" d="M392.9,156.6c-19.3-14.8-29.3-41-23.8-66.4c6-27.5,27.8-46,50.4-50.9c-20,13.4-32.7,31-37.7,53.6
		C376.9,115.6,381,136.8,392.9,156.6z"/>
	<path class="st0" d="M364.4,94.5c-4.5,46.3,27.3,87.9,74.9,93.6c-15.7,5.2-45,1.8-64.9-20.6C354.4,144.8,354.2,113.9,364.4,94.5z"
		/>
	<path class="st0" d="M388.4,101.7c-0.8-22.3,11.9-49.6,39.4-62.1c24.5-11.1,52.1-5.2,68.4,8.7c-22.6-7.2-44.1-6.2-64.9,4
		C410.5,62.6,396.6,79.1,388.4,101.7z"/>
	<path class="st0" d="M372.9,171.6c17.2,16.4,37.2,25,60.2,24.7c23.2-0.2,43-8.9,59.8-25.5c-6.6,17-27.4,36.1-54.3,38.3
		C406.3,211.8,381.8,191.7,372.9,171.6z"/>
</g>
</svg>
