<?xml version="1.0" encoding="utf-8"?>
<!-- Generator: Adobe Illustrator 24.3.0, SVG Export Plug-In . SVG Version: 6.00 Build 0)  -->
<svg version="1.1" id="Layer_1" xmlns="http://www.w3.org/2000/svg" xmlns:xlink="http://www.w3.org/1999/xlink" x="0px" y="0px"
	 viewBox="0 0 800 800" style="enable-background:new 0 0 800 800;" xml:space="preserve">
<style type="text/css">
	.st0{clip-path:url(#SVGID_2_);}
	.st1{clip-path:url(#SVGID_4_);fill:none;stroke:#B8B8B8;stroke-width:0.5;}
	.st2{clip-path:url(#SVGID_4_);fill:none;stroke:#000000;stroke-width:0.5;}
	.st3{clip-path:url(#SVGID_6_);}
	.st4{clip-path:url(#SVGID_8_);}
	.st5{clip-path:url(#SVGID_10_);}
	.st6{clip-path:url(#SVGID_12_);}
	.st7{clip-path:url(#SVGID_14_);}
	.st8{clip-path:url(#SVGID_16_);fill:none;stroke:#000000;stroke-linecap:square;}
	.st9{clip-path:url(#SVGID_18_);}
	.st10{clip-path:url(#SVGID_20_);}
	.st11{clip-path:url(#SVGID_22_);}
	.st12{clip-path:url(#SVGID_24_);}
	.st13{clip-path:url(#SVGID_26_);}
	.st14{clip-path:url(#SVGID_28_);}
	.st15{clip-path:url(#SVGID_30_);}
	.st16{clip-path:url(#SVGID_32_);}
	.st17{clip-path:url(#SVGID_34_);}
	.st18{clip-path:url(#SVGID_36_);}
	.st19{clip-path:url(#SVGID_38_);}
	.st20{clip-path:url(#SVGID_40_);}
	.st21{clip-path:url(#SVGID_42_);}
	.st22{clip-path:url(#SVGID_44_);enable-background:new    ;}
	.st23{clip-path:url(#SVGID_46_);}
	.st24{clip-path:url(#SVGID_48_);}
	.st25{clip-path:url(#SVGID_50_);fill:#4CAAE8;}
	.st26{clip-path:url(#SVGID_52_);}
	.st27{clip-path:url(#SVGID_54_);enable-background:new    ;}
	.st28{clip-path:url(#SVGID_56_);}
	.st29{clip-path:url(#SVGID_58_);}
	.st30{clip-path:url(#SVGID_60_);fill:#4CAAE8;}
	.st31{clip-path:url(#SVGID_62_);}
	.st32{clip-path:url(#SVGID_64_);enable-background:new    ;}
	.st33{clip-path:url(#SVGID_66_);}
	.st34{clip-path:url(#SVGID_68_);}
	.st35{clip-path:url(#SVGID_70_);fill:#4CAAE8;}
	.st36{clip-path:url(#SVGID_72_);}
	.st37{clip-path:url(#SVGID_74_);enable-background:new    ;}
	.st38{clip-path:url(#SVGID_76_);}
	.st39{clip-path:url(#SVGID_78_);}
	.st40{clip-path:url(#SVGID_80_);fill:#4CAAE8;}
	.st41{clip-path:url(#SVGID_82_);}
	.st42{clip-path:url(#SVGID_84_);enable-background:new    ;}
	.st43{clip-path:url(#SVGID_86_);}
	.st44{clip-path:url(#SVGID_88_);}
	.st45{clip-path:url(#SVGID_90_);fill:#4CAAE8;}
	.st46{clip-path:url(#SVGID_92_);}
	.st47{clip-path:url(#SVGID_94_);enable-background:new    ;}
	.st48{clip-path:url(#SVGID_96_);}
	.st49{clip-path:url(#SVGID_98_);}
	.st50{clip-path:url(#SVGID_100_);fill:#4CAAE8;}
	.st51{clip-path:url(#SVGID_102_);}
	.st52{clip-path:url(#SVGID_104_);enable-background:new    ;}
	.st53{clip-path:url(#SVGID_106_);}
	.st54{clip-path:url(#SVGID_108_);}
	.st55{clip-path:url(#SVGID_110_);fill:#4CAAE8;}
	.st56{clip-path:url(#SVGID_112_);}
	.st57{clip-path:url(#SVGID_114_);enable-background:new    ;}
	.st58{clip-path:url(#SVGID_116_);}
	.st59{clip-path:url(#SVGID_118_);}
	.st60{clip-path:url(#SVGID_120_);fill:#4CAAE8;}
	.st61{clip-path:url(#SVGID_122_);}
	.st62{clip-path:url(#SVGID_124_);enable-background:new    ;}
	.st63{clip-path:url(#SVGID_126_);}
	.st64{clip-path:url(#SVGID_128_);}
	.st65{clip-path:url(#SVGID_130_);fill:#4CAAE8;}
	.st66{clip-path:url(#SVGID_132_);}
	.st67{clip-path:url(#SVGID_134_);enable-background:new    ;}
	.st68{clip-path:url(#SVGID_136_);}
	.st69{clip-path:url(#SVGID_138_);}
	.st70{clip-path:url(#SVGID_140_);fill:#4CAAE8;}
	.st71{clip-path:url(#SVGID_142_);}
	.st72{clip-path:url(#SVGID_144_);enable-background:new    ;}
	.st73{clip-path:url(#SVGID_146_);}
	.st74{clip-path:url(#SVGID_148_);}
	.st75{clip-path:url(#SVGID_150_);fill:#4CAAE8;}
	.st76{clip-path:url(#SVGID_152_);}
	.st77{clip-path:url(#SVGID_154_);enable-background:new    ;}
	.st78{clip-path:url(#SVGID_156_);}
	.st79{clip-path:url(#SVGID_158_);}
	.st80{clip-path:url(#SVGID_160_);fill:#4CAAE8;}
	
		.st81{clip-path:url(#SVGID_162_);fill:none;stroke:#C2C3C6;stroke-width:3;stroke-linecap:round;stroke-linejoin:round;stroke-dasharray:0,9;}
	.st82{clip-path:url(#SVGID_164_);}
	.st83{clip-path:url(#SVGID_164_);fill:#E6E2DF;}
	.st84{clip-path:url(#SVGID_164_);fill:#F0EBE2;}
	.st85{clip-path:url(#SVGID_166_);}
	.st86{clip-path:url(#SVGID_168_);}
	.st87{clip-path:url(#SVGID_170_);}
	.st88{clip-path:url(#SVGID_172_);}
	.st89{clip-path:url(#SVGID_174_);}
	.st90{clip-path:url(#SVGID_176_);}
	.st91{clip-path:url(#SVGID_178_);}
	.st92{clip-path:url(#SVGID_180_);}
	.st93{clip-path:url(#SVGID_182_);}
	.st94{clip-path:url(#SVGID_184_);}
	.st95{clip-path:url(#SVGID_186_);}
	.st96{clip-path:url(#SVGID_188_);}
	.st97{clip-path:url(#SVGID_190_);}
	.st98{clip-path:url(#SVGID_192_);}
	.st99{clip-path:url(#SVGID_194_);}
	.st100{clip-path:url(#SVGID_196_);}
	.st101{clip-path:url(#SVGID_198_);}
	.st102{clip-path:url(#SVGID_200_);}
	.st103{clip-path:url(#SVGID_202_);}
	.st104{clip-path:url(#SVGID_204_);}
	.st105{clip-path:url(#SVGID_206_);}
	.st106{clip-path:url(#SVGID_208_);}
	.st107{clip-path:url(#SVGID_210_);}
	.st108{clip-path:url(#SVGID_212_);}
	.st109{clip-path:url(#SVGID_214_);}
	.st110{clip-path:url(#SVGID_216_);}
	.st111{clip-path:url(#SVGID_218_);}
	.st112{clip-path:url(#SVGID_220_);}
	.st113{clip-path:url(#SVGID_222_);}
	.st114{clip-path:url(#SVGID_224_);}
	.st115{clip-path:url(#SVGID_226_);}
	.st116{clip-path:url(#SVGID_228_);}
	.st117{clip-path:url(#SVGID_230_);}
	.st118{clip-path:url(#SVGID_232_);}
	.st119{clip-path:url(#SVGID_234_);}
	.st120{clip-path:url(#SVGID_236_);}
	.st121{clip-path:url(#SVGID_238_);}
	.st122{clip-path:url(#SVGID_240_);}
	.st123{clip-path:url(#SVGID_242_);}
	.st124{clip-path:url(#SVGID_244_);}
	.st125{clip-path:url(#SVGID_246_);}
	.st126{clip-path:url(#SVGID_248_);}
	.st127{clip-path:url(#SVGID_250_);}
	.st128{clip-path:url(#SVGID_252_);}
	.st129{clip-path:url(#SVGID_254_);}
	.st130{clip-path:url(#SVGID_256_);}
	.st131{clip-path:url(#SVGID_258_);}
	.st132{clip-path:url(#SVGID_260_);}
	.st133{clip-path:url(#SVGID_262_);}
	.st134{clip-path:url(#SVGID_264_);}
	.st135{clip-path:url(#SVGID_266_);}
	.st136{clip-path:url(#SVGID_268_);}
	.st137{clip-path:url(#SVGID_270_);}
	.st138{clip-path:url(#SVGID_272_);}
	.st139{clip-path:url(#SVGID_274_);}
	.st140{clip-path:url(#SVGID_276_);}
	.st141{clip-path:url(#SVGID_278_);}
	.st142{clip-path:url(#SVGID_280_);}
	.st143{clip-path:url(#SVGID_282_);}
	.st144{clip-path:url(#SVGID_284_);}
	.st145{clip-path:url(#SVGID_286_);}
	.st146{clip-path:url(#SVGID_288_);}
	.st147{clip-path:url(#SVGID_290_);}
	.st148{clip-path:url(#SVGID_292_);}
	.st149{clip-path:url(#SVGID_294_);}
	.st150{clip-path:url(#SVGID_296_);}
	.st151{opacity:0;clip-path:url(#SVGID_298_);fill:#01C8C5;}
	.st152{opacity:0;clip-path:url(#SVGID_298_);fill:#4B1DDD;}
	.st153{opacity:0;clip-path:url(#SVGID_298_);fill:#B80D73;}
	.st154{clip-path:url(#SVGID_300_);}
	.st155{clip-path:url(#SVGID_302_);fill:none;stroke:#CDCAC7;stroke-width:0.5;}
	.st156{clip-path:url(#SVGID_302_);fill:none;stroke:#9A958E;}
	.st157{clip-path:url(#SVGID_302_);fill:none;stroke:#B3AFAA;stroke-width:0.75;}
	.st158{clip-path:url(#SVGID_304_);}
	.st159{clip-path:url(#SVGID_306_);}
	.st160{clip-path:url(#SVGID_306_);fill:#E6E2DF;}
	.st161{clip-path:url(#SVGID_306_);fill:#F0EBE2;}
	.st162{clip-path:url(#SVGID_308_);}
	.st163{clip-path:url(#SVGID_310_);}
	.st164{clip-path:url(#SVGID_312_);}
	.st165{clip-path:url(#SVGID_314_);}
	.st166{clip-path:url(#SVGID_316_);}
	.st167{clip-path:url(#SVGID_318_);}
	.st168{clip-path:url(#SVGID_320_);}
	.st169{clip-path:url(#SVGID_322_);}
	.st170{clip-path:url(#SVGID_324_);}
	.st171{clip-path:url(#SVGID_326_);}
	.st172{clip-path:url(#SVGID_328_);}
	.st173{clip-path:url(#SVGID_330_);}
	.st174{clip-path:url(#SVGID_332_);}
	.st175{clip-path:url(#SVGID_334_);}
	.st176{clip-path:url(#SVGID_336_);}
	.st177{clip-path:url(#SVGID_338_);}
	.st178{clip-path:url(#SVGID_340_);}
	.st179{clip-path:url(#SVGID_342_);}
	.st180{clip-path:url(#SVGID_344_);}
	.st181{clip-path:url(#SVGID_346_);}
	.st182{clip-path:url(#SVGID_348_);}
	.st183{clip-path:url(#SVGID_350_);}
	.st184{clip-path:url(#SVGID_352_);}
	.st185{clip-path:url(#SVGID_354_);}
	.st186{clip-path:url(#SVGID_356_);}
	.st187{clip-path:url(#SVGID_358_);}
	.st188{clip-path:url(#SVGID_360_);}
	.st189{clip-path:url(#SVGID_362_);}
	.st190{clip-path:url(#SVGID_364_);}
	.st191{clip-path:url(#SVGID_366_);}
	.st192{clip-path:url(#SVGID_368_);}
	.st193{clip-path:url(#SVGID_370_);}
	.st194{clip-path:url(#SVGID_372_);}
	.st195{clip-path:url(#SVGID_374_);}
	.st196{clip-path:url(#SVGID_376_);}
	.st197{clip-path:url(#SVGID_378_);}
	.st198{clip-path:url(#SVGID_380_);}
	.st199{clip-path:url(#SVGID_382_);}
	.st200{clip-path:url(#SVGID_384_);}
	.st201{clip-path:url(#SVGID_386_);}
	.st202{clip-path:url(#SVGID_388_);}
	.st203{clip-path:url(#SVGID_390_);}
	.st204{clip-path:url(#SVGID_392_);}
	.st205{clip-path:url(#SVGID_394_);}
	.st206{clip-path:url(#SVGID_396_);}
	.st207{clip-path:url(#SVGID_398_);}
	.st208{clip-path:url(#SVGID_400_);}
	.st209{clip-path:url(#SVGID_402_);}
	.st210{clip-path:url(#SVGID_404_);}
	.st211{clip-path:url(#SVGID_406_);}
	.st212{clip-path:url(#SVGID_408_);}
	.st213{clip-path:url(#SVGID_410_);}
	.st214{clip-path:url(#SVGID_412_);}
	.st215{clip-path:url(#SVGID_414_);}
	.st216{clip-path:url(#SVGID_416_);}
	.st217{clip-path:url(#SVGID_418_);}
	.st218{clip-path:url(#SVGID_420_);}
	.st219{clip-path:url(#SVGID_422_);}
	.st220{clip-path:url(#SVGID_424_);}
	.st221{clip-path:url(#SVGID_426_);}
	.st222{clip-path:url(#SVGID_428_);}
	.st223{clip-path:url(#SVGID_430_);}
	.st224{clip-path:url(#SVGID_432_);}
	.st225{clip-path:url(#SVGID_434_);}
	.st226{clip-path:url(#SVGID_436_);}
	.st227{clip-path:url(#SVGID_438_);}
	.st228{opacity:0;clip-path:url(#SVGID_440_);fill:#FCB536;}
	.st229{opacity:0;clip-path:url(#SVGID_440_);fill:#79DD18;}
	.st230{opacity:0;clip-path:url(#SVGID_440_);fill:#19624D;}
	.st231{clip-path:url(#SVGID_442_);}
	.st232{clip-path:url(#SVGID_444_);fill:none;stroke:#CDCAC7;stroke-width:0.5;}
	.st233{clip-path:url(#SVGID_444_);fill:none;stroke:#9A958E;}
	.st234{clip-path:url(#SVGID_444_);fill:none;stroke:#B3AFAA;stroke-width:0.75;}
	.st235{clip-path:url(#SVGID_446_);}
	.st236{clip-path:url(#SVGID_448_);fill:#E6E2DF;}
	.st237{clip-path:url(#SVGID_448_);fill:#F0EBE2;}
	.st238{clip-path:url(#SVGID_448_);fill:#B3E196;}
	.st239{clip-path:url(#SVGID_450_);}
	.st240{clip-path:url(#SVGID_452_);}
	.st241{clip-path:url(#SVGID_454_);}
	.st242{clip-path:url(#SVGID_456_);}
	.st243{clip-path:url(#SVGID_458_);}
	.st244{clip-path:url(#SVGID_460_);}
	.st245{clip-path:url(#SVGID_462_);}
	.st246{clip-path:url(#SVGID_464_);}
	.st247{clip-path:url(#SVGID_466_);}
	.st248{clip-path:url(#SVGID_468_);}
	.st249{clip-path:url(#SVGID_470_);}
	.st250{clip-path:url(#SVGID_472_);}
	.st251{clip-path:url(#SVGID_474_);}
	.st252{clip-path:url(#SVGID_476_);}
	.st253{clip-path:url(#SVGID_478_);}
	.st254{clip-path:url(#SVGID_480_);}
	.st255{clip-path:url(#SVGID_482_);}
	.st256{clip-path:url(#SVGID_484_);}
	.st257{clip-path:url(#SVGID_486_);}
	.st258{clip-path:url(#SVGID_488_);}
	.st259{clip-path:url(#SVGID_490_);}
	.st260{clip-path:url(#SVGID_492_);}
	.st261{clip-path:url(#SVGID_494_);}
	.st262{clip-path:url(#SVGID_496_);}
	.st263{clip-path:url(#SVGID_498_);}
	.st264{clip-path:url(#SVGID_500_);}
	.st265{clip-path:url(#SVGID_502_);}
	.st266{clip-path:url(#SVGID_504_);}
	.st267{clip-path:url(#SVGID_506_);}
	.st268{clip-path:url(#SVGID_508_);}
	.st269{clip-path:url(#SVGID_510_);}
	.st270{clip-path:url(#SVGID_512_);}
	.st271{clip-path:url(#SVGID_514_);}
	.st272{clip-path:url(#SVGID_516_);}
	.st273{clip-path:url(#SVGID_518_);}
	.st274{clip-path:url(#SVGID_520_);}
	.st275{clip-path:url(#SVGID_522_);}
	.st276{clip-path:url(#SVGID_524_);}
	.st277{clip-path:url(#SVGID_526_);}
	.st278{clip-path:url(#SVGID_528_);}
	.st279{clip-path:url(#SVGID_530_);}
	.st280{clip-path:url(#SVGID_532_);}
	.st281{clip-path:url(#SVGID_534_);}
	.st282{clip-path:url(#SVGID_536_);}
	.st283{clip-path:url(#SVGID_538_);}
	.st284{clip-path:url(#SVGID_540_);}
	.st285{clip-path:url(#SVGID_542_);}
	.st286{clip-path:url(#SVGID_544_);}
	.st287{clip-path:url(#SVGID_546_);}
	.st288{clip-path:url(#SVGID_548_);}
	.st289{clip-path:url(#SVGID_550_);}
	.st290{clip-path:url(#SVGID_552_);}
	.st291{clip-path:url(#SVGID_554_);}
	.st292{clip-path:url(#SVGID_556_);}
	.st293{clip-path:url(#SVGID_558_);}
	.st294{clip-path:url(#SVGID_560_);}
	.st295{clip-path:url(#SVGID_562_);}
	.st296{clip-path:url(#SVGID_564_);}
	.st297{clip-path:url(#SVGID_566_);}
	.st298{clip-path:url(#SVGID_568_);}
	.st299{clip-path:url(#SVGID_570_);}
	.st300{clip-path:url(#SVGID_572_);}
	.st301{clip-path:url(#SVGID_574_);}
	.st302{clip-path:url(#SVGID_576_);}
	.st303{clip-path:url(#SVGID_578_);}
	.st304{clip-path:url(#SVGID_580_);}
	.st305{clip-path:url(#SVGID_582_);}
	.st306{clip-path:url(#SVGID_584_);}
	.st307{clip-path:url(#SVGID_586_);}
	.st308{clip-path:url(#SVGID_588_);}
	.st309{clip-path:url(#SVGID_590_);}
	.st310{clip-path:url(#SVGID_592_);}
	.st311{clip-path:url(#SVGID_594_);}
	.st312{clip-path:url(#SVGID_596_);}
	.st313{clip-path:url(#SVGID_598_);}
	.st314{clip-path:url(#SVGID_600_);}
	.st315{clip-path:url(#SVGID_602_);}
	.st316{clip-path:url(#SVGID_604_);}
	.st317{opacity:0;clip-path:url(#SVGID_606_);fill:#A8CE22;}
	.st318{opacity:0;clip-path:url(#SVGID_606_);fill:#0D0E75;}
	.st319{opacity:0;clip-path:url(#SVGID_606_);fill:#C7B071;}
	.st320{opacity:0;clip-path:url(#SVGID_606_);fill:#1E9694;}
	.st321{opacity:0;clip-path:url(#SVGID_606_);fill:#87985C;}
	.st322{opacity:0;clip-path:url(#SVGID_606_);fill:#4EE37A;}
	.st323{clip-path:url(#SVGID_608_);}
	.st324{clip-path:url(#SVGID_610_);}
	.st325{clip-path:url(#SVGID_612_);}
	.st326{clip-path:url(#SVGID_614_);}
	.st327{clip-path:url(#SVGID_616_);}
	.st328{clip-path:url(#SVGID_618_);}
	.st329{clip-path:url(#SVGID_620_);fill:none;stroke:#CDCAC7;stroke-width:0.5;}
	.st330{clip-path:url(#SVGID_620_);fill:none;stroke:#9A958E;}
	.st331{clip-path:url(#SVGID_620_);fill:none;stroke:#B3AFAA;stroke-width:0.75;}
	.st332{clip-path:url(#SVGID_622_);fill:#E6E2DF;}
	.st333{clip-path:url(#SVGID_622_);fill:#F0EBE2;}
	.st334{clip-path:url(#SVGID_624_);}
	.st335{clip-path:url(#SVGID_626_);}
	.st336{clip-path:url(#SVGID_628_);}
	.st337{clip-path:url(#SVGID_630_);}
	.st338{clip-path:url(#SVGID_632_);}
	.st339{clip-path:url(#SVGID_634_);}
	.st340{clip-path:url(#SVGID_636_);}
	.st341{clip-path:url(#SVGID_638_);}
	.st342{clip-path:url(#SVGID_640_);}
	.st343{clip-path:url(#SVGID_642_);}
	.st344{clip-path:url(#SVGID_644_);fill:none;stroke:#CDCAC7;stroke-width:0.5;}
	.st345{clip-path:url(#SVGID_644_);fill:none;stroke:#9A958E;}
	.st346{clip-path:url(#SVGID_644_);fill:none;stroke:#B3AFAA;stroke-width:0.75;}
	.st347{fill:#FFA6A6;}
	.st348{fill:#FFD578;}
	.st349{fill:#C7FF78;}
	.st350{fill:#8ED2F4;}
	.st351{clip-path:url(#SVGID_646_);}
	.st352{clip-path:url(#SVGID_648_);}
	.st353{fill:none;stroke:#CDCAC7;stroke-width:0.5;}
	.st354{fill:none;stroke:#D8D8D8;stroke-linecap:round;}
	.st355{fill:none;stroke:#D8D8D8;stroke-linecap:round;stroke-dasharray:6.1753,6.1753;}
	.st356{fill:#D8D8D8;}
</style>
<g>
	<g>
		<path d="M276.7,81.6l-3.7-6.7h-1.4v6.7h-4v-17h6.5c0.8,0,1.6,0.1,2.4,0.3c0.8,0.2,1.5,0.5,2.1,0.9c0.6,0.4,1.1,0.9,1.5,1.6
			c0.4,0.7,0.6,1.5,0.6,2.4c0,1.2-0.3,2.1-0.9,2.9c-0.6,0.8-1.5,1.3-2.6,1.7l4.4,7.3H276.7z M276.5,69.8c0-0.4-0.1-0.7-0.3-1
			c-0.2-0.2-0.4-0.4-0.7-0.6c-0.3-0.1-0.6-0.2-0.9-0.3c-0.3,0-0.6-0.1-1-0.1h-2.2v4h2c0.3,0,0.7,0,1-0.1c0.4-0.1,0.7-0.2,1-0.3
			c0.3-0.1,0.5-0.4,0.7-0.6C276.4,70.6,276.5,70.2,276.5,69.8z"/>
		<path d="M283.5,81.6v-17h11.4V68h-7.5v3.2h7.1v3.3h-7.1v3.5h7.9v3.5H283.5z"/>
		<path d="M306.5,81.6h-4.1l-6.4-17h4.6l3.9,12h0.1l3.9-12h4.5L306.5,81.6z"/>
		<path d="M314.5,81.6v-17h11.4V68h-7.5v3.2h7.1v3.3h-7.1v3.5h7.9v3.5H314.5z"/>
		<path d="M339.8,81.6L333,70.5h-0.1l0.1,11.1h-4v-17h4.7l6.8,11.1h0.1l-0.1-11.1h4v17H339.8z"/>
		<path d="M361.9,78c-0.3,0.8-0.8,1.6-1.5,2.2c-0.6,0.6-1.4,1.1-2.3,1.4c-0.9,0.3-1.9,0.5-3,0.5c-1.1,0-2.1-0.2-3-0.5
			c-0.9-0.3-1.7-0.8-2.3-1.4c-0.6-0.6-1.1-1.3-1.4-2.2s-0.5-1.8-0.5-2.8V64.6h4.1v10.2c0,0.5,0.1,0.9,0.2,1.3
			c0.1,0.4,0.3,0.8,0.6,1.1s0.6,0.6,1,0.8c0.4,0.2,0.9,0.3,1.5,0.3s1.1-0.1,1.5-0.3c0.4-0.2,0.7-0.5,1-0.8c0.3-0.3,0.4-0.7,0.6-1.1
			c0.1-0.4,0.2-0.9,0.2-1.3V64.6h4.1v10.6C362.4,76.2,362.2,77.1,361.9,78z"/>
		<path d="M365.7,81.6v-17h11.4V68h-7.5v3.2h7.1v3.3h-7.1v3.5h7.9v3.5H365.7z"/>
		<path d="M389.2,69c-0.4-0.4-0.8-0.8-1.4-1.1c-0.6-0.3-1.1-0.4-1.6-0.4c-0.3,0-0.5,0-0.8,0.1s-0.5,0.1-0.8,0.3
			c-0.2,0.1-0.4,0.3-0.6,0.5c-0.2,0.2-0.2,0.5-0.2,0.8c0,0.3,0.1,0.5,0.2,0.7c0.1,0.2,0.3,0.4,0.5,0.5c0.2,0.1,0.5,0.3,0.8,0.4
			c0.3,0.1,0.7,0.2,1.1,0.4c0.6,0.2,1.2,0.4,1.8,0.6c0.6,0.2,1.2,0.5,1.7,0.9c0.5,0.4,0.9,0.9,1.3,1.4c0.3,0.6,0.5,1.3,0.5,2.1
			c0,1-0.2,1.8-0.5,2.5c-0.4,0.7-0.8,1.3-1.5,1.8c-0.6,0.5-1.3,0.8-2.1,1c-0.8,0.2-1.6,0.3-2.4,0.3c-1.2,0-2.4-0.2-3.5-0.6
			c-1.1-0.4-2.1-1-2.8-1.8l2.7-2.7c0.4,0.5,1,0.9,1.6,1.3c0.7,0.3,1.4,0.5,2,0.5c0.3,0,0.6,0,0.9-0.1c0.3-0.1,0.5-0.2,0.8-0.3
			c0.2-0.1,0.4-0.3,0.5-0.6c0.1-0.2,0.2-0.5,0.2-0.9c0-0.3-0.1-0.6-0.2-0.8c-0.2-0.2-0.4-0.4-0.7-0.6c-0.3-0.2-0.7-0.4-1.1-0.5
			c-0.4-0.2-0.9-0.3-1.5-0.5c-0.5-0.2-1.1-0.4-1.6-0.6c-0.5-0.2-1-0.5-1.4-0.9c-0.4-0.4-0.7-0.8-1-1.4s-0.4-1.2-0.4-2
			c0-0.9,0.2-1.8,0.6-2.4c0.4-0.7,0.9-1.2,1.5-1.7c0.6-0.4,1.3-0.7,2.1-0.9c0.8-0.2,1.6-0.3,2.4-0.3c1,0,1.9,0.2,2.9,0.5
			c1,0.4,1.9,0.9,2.6,1.6L389.2,69z"/>
		<path d="M412.6,81.3c-1.1,0.5-2.4,0.8-3.8,0.8c-1.3,0-2.5-0.2-3.6-0.6c-1.1-0.4-2.1-1-2.9-1.8s-1.5-1.7-1.9-2.8
			c-0.5-1.1-0.7-2.3-0.7-3.6c0-1.4,0.2-2.6,0.7-3.7c0.5-1.1,1.1-2,2-2.8c0.8-0.8,1.8-1.4,2.9-1.8c1.1-0.4,2.3-0.6,3.6-0.6
			c1.2,0,2.4,0.2,3.5,0.6s2.1,1,2.8,1.9l-2.8,2.8c-0.4-0.5-0.9-0.9-1.5-1.2c-0.6-0.3-1.3-0.4-1.9-0.4c-0.7,0-1.4,0.1-2,0.4
			c-0.6,0.3-1.1,0.6-1.5,1.1c-0.4,0.5-0.8,1-1,1.6c-0.2,0.6-0.4,1.3-0.4,2.1c0,0.8,0.1,1.5,0.4,2.1c0.2,0.6,0.6,1.2,1,1.6
			s0.9,0.8,1.5,1.1c0.6,0.3,1.2,0.4,1.9,0.4c0.8,0,1.5-0.2,2.1-0.5c0.6-0.3,1.1-0.7,1.5-1.2l2.9,2.7
			C414.6,80.1,413.7,80.8,412.6,81.3z"/>
		<path d="M434.6,73c0,1.3-0.2,2.6-0.7,3.7c-0.5,1.1-1.1,2.1-1.9,2.9c-0.8,0.8-1.8,1.4-2.9,1.8c-1.1,0.4-2.4,0.6-3.7,0.6
			s-2.6-0.2-3.7-0.6c-1.1-0.4-2.1-1-2.9-1.8s-1.5-1.7-1.9-2.9c-0.5-1.1-0.7-2.3-0.7-3.7c0-1.4,0.2-2.6,0.7-3.7
			c0.5-1.1,1.1-2,1.9-2.8c0.8-0.8,1.8-1.4,2.9-1.8c1.1-0.4,2.4-0.6,3.7-0.6s2.6,0.2,3.7,0.6c1.1,0.4,2.1,1,2.9,1.8
			c0.8,0.8,1.5,1.7,1.9,2.8C434.4,70.4,434.6,71.6,434.6,73z M430.2,73c0-0.7-0.1-1.4-0.4-2.1s-0.6-1.2-1-1.6s-0.9-0.8-1.5-1.1
			c-0.6-0.3-1.3-0.4-2-0.4c-0.7,0-1.4,0.1-2,0.4c-0.6,0.3-1.1,0.6-1.5,1.1s-0.8,1-1,1.6c-0.2,0.6-0.3,1.3-0.3,2.1
			c0,0.8,0.1,1.5,0.4,2.1c0.2,0.6,0.6,1.2,1,1.7c0.4,0.5,0.9,0.8,1.5,1.1c0.6,0.3,1.2,0.4,2,0.4c0.7,0,1.4-0.1,2-0.4
			c0.6-0.3,1.1-0.6,1.5-1.1c0.4-0.5,0.8-1,1-1.7C430.1,74.5,430.2,73.8,430.2,73z"/>
		<path d="M452.7,81.6l0.1-12h-0.1l-4.4,12h-2.9l-4.3-12h-0.1l0.1,12h-3.9v-17h5.8l3.9,10.9h0.1l3.7-10.9h5.9v17H452.7z"/>
		<path d="M473.5,76.6c0,0.9-0.2,1.7-0.6,2.3c-0.4,0.6-0.9,1.1-1.5,1.5s-1.3,0.7-2.1,0.8c-0.8,0.2-1.6,0.3-2.4,0.3h-6.8v-17h6.8
			c0.7,0,1.3,0.1,2,0.2c0.7,0.1,1.3,0.4,1.9,0.7s1,0.8,1.4,1.3c0.4,0.6,0.5,1.3,0.5,2.1c0,0.9-0.3,1.7-0.8,2.3
			c-0.5,0.6-1.2,1.1-2,1.3v0c0.5,0.1,0.9,0.2,1.4,0.4c0.4,0.2,0.8,0.5,1.1,0.8s0.6,0.7,0.7,1.2C473.4,75.6,473.5,76.1,473.5,76.6z
			 M468.8,69.5c0-0.6-0.2-1-0.7-1.3s-1.1-0.4-2-0.4h-2v3.5h2.2c0.8,0,1.4-0.2,1.8-0.5C468.6,70.6,468.8,70.1,468.8,69.5z
			 M469.4,76.2c0-0.7-0.3-1.2-0.8-1.5c-0.5-0.3-1.2-0.4-2.1-0.4h-2.3v3.9h2.3c0.3,0,0.7,0,1-0.1c0.3-0.1,0.7-0.2,0.9-0.3
			c0.3-0.1,0.5-0.3,0.7-0.6C469.3,77,469.4,76.7,469.4,76.2z"/>
		<path d="M476.2,81.6v-17h4.1v17H476.2z"/>
		<path d="M494.6,81.6l-6.8-11.1h-0.1l0.1,11.1h-4v-17h4.7l6.8,11.1h0.1l-0.1-11.1h4v17H494.6z"/>
		<path d="M502.8,81.6v-17h11.4V68h-7.5v3.2h7.1v3.3h-7.1v3.5h7.9v3.5H502.8z"/>
		<path d="M533.2,73c0,1.5-0.3,2.8-0.8,3.9c-0.6,1.1-1.3,2-2.2,2.7c-0.9,0.7-1.9,1.2-3.1,1.5c-1.1,0.3-2.3,0.5-3.5,0.5h-6.3v-17h6.1
			c1.2,0,2.4,0.1,3.6,0.4c1.2,0.3,2.2,0.7,3.1,1.4c0.9,0.6,1.6,1.5,2.2,2.6C532.9,70.1,533.2,71.4,533.2,73z M528.9,73
			c0-1-0.2-1.8-0.5-2.4s-0.7-1.1-1.2-1.5c-0.5-0.4-1.1-0.6-1.8-0.8c-0.7-0.2-1.3-0.2-2.1-0.2h-2V78h1.9c0.7,0,1.4-0.1,2.1-0.3
			c0.7-0.2,1.3-0.4,1.8-0.8s0.9-0.9,1.2-1.5S528.9,74,528.9,73z"/>
	</g>
</g>
<g>
	<defs>
		<rect id="SVGID_621_" x="91.5" y="447.4" width="617" height="283"/>
	</defs>
	<clipPath id="SVGID_2_">
		<use xlink:href="#SVGID_621_"  style="overflow:visible;"/>
	</clipPath>
	<rect x="93.5" y="449.4" style="clip-path:url(#SVGID_2_);fill:#E6E2DF;" width="256.9" height="36.7"/>
	<rect x="350.3" y="449.4" style="clip-path:url(#SVGID_2_);fill:#E6E2DF;" width="355.8" height="36.7"/>
	<rect x="93.5" y="547.2" style="clip-path:url(#SVGID_2_);fill:#F0EBE2;" width="256.9" height="60.5"/>
	<rect x="350.3" y="547.2" style="clip-path:url(#SVGID_2_);fill:#F0EBE2;" width="355.8" height="60.5"/>
	<rect x="93.5" y="668.2" style="clip-path:url(#SVGID_2_);fill:#F0EBE2;" width="256.9" height="60.5"/>
	<rect x="350.3" y="668.2" style="clip-path:url(#SVGID_2_);fill:#F0EBE2;" width="355.8" height="60.5"/>
</g>
<g>
	<defs>
		<rect id="SVGID_623_" x="93.8" y="449.8" width="256.5" height="35.8"/>
	</defs>
	<clipPath id="SVGID_4_">
		<use xlink:href="#SVGID_623_"  style="overflow:visible;"/>
	</clipPath>
	<g style="clip-path:url(#SVGID_4_);">
		<path d="M99.2,461.4h2.3v12.7h-2.3V461.4z"/>
		<path d="M104.2,465.5h2.1v1.4h0c0.2-0.4,0.5-0.8,1-1.1c0.5-0.3,1-0.5,1.7-0.5c0.6,0,1,0.1,1.4,0.3c0.4,0.2,0.7,0.5,1,0.8
			c0.3,0.3,0.4,0.7,0.6,1.1c0.1,0.4,0.2,0.9,0.2,1.3v5.4H110v-4.8c0-0.3,0-0.5-0.1-0.8c0-0.3-0.1-0.5-0.2-0.7
			c-0.1-0.2-0.3-0.4-0.5-0.5s-0.5-0.2-0.8-0.2c-0.3,0-0.6,0.1-0.9,0.2s-0.5,0.3-0.6,0.5c-0.2,0.2-0.3,0.5-0.4,0.7
			c-0.1,0.3-0.1,0.6-0.1,0.9v4.8h-2.2V465.5z"/>
		<path d="M120.6,467.9c-0.2-0.2-0.4-0.4-0.8-0.6s-0.7-0.2-1-0.2c-0.4,0-0.7,0.1-1,0.2s-0.5,0.4-0.7,0.6c-0.2,0.3-0.3,0.6-0.4,0.9
			c-0.1,0.3-0.1,0.7-0.1,1s0.1,0.7,0.2,1c0.1,0.3,0.3,0.6,0.5,0.9s0.5,0.5,0.8,0.6c0.3,0.2,0.7,0.2,1.1,0.2c0.3,0,0.7-0.1,1-0.2
			s0.6-0.3,0.8-0.6l1.3,1.4c-0.4,0.4-0.8,0.7-1.4,0.9c-0.6,0.2-1.2,0.3-1.8,0.3c-0.6,0-1.2-0.1-1.8-0.3s-1.1-0.5-1.5-0.9
			c-0.4-0.4-0.8-0.9-1-1.4c-0.2-0.6-0.4-1.2-0.4-1.9c0-0.7,0.1-1.3,0.4-1.9c0.2-0.6,0.6-1,1-1.4c0.4-0.4,0.9-0.7,1.5-0.9
			c0.6-0.2,1.2-0.3,1.8-0.3s1.3,0.1,1.8,0.4c0.6,0.2,1.1,0.6,1.4,1L120.6,467.9z"/>
		<path d="M123,469.8c0-0.7,0.1-1.3,0.4-1.9c0.2-0.6,0.6-1,1-1.4c0.4-0.4,0.9-0.7,1.5-0.9c0.6-0.2,1.2-0.3,1.8-0.3
			c0.6,0,1.3,0.1,1.8,0.3c0.6,0.2,1.1,0.5,1.5,0.9c0.4,0.4,0.8,0.9,1,1.4c0.2,0.6,0.4,1.2,0.4,1.9c0,0.7-0.1,1.3-0.4,1.9
			c-0.2,0.6-0.6,1-1,1.4c-0.4,0.4-0.9,0.7-1.5,0.9c-0.6,0.2-1.2,0.3-1.8,0.3c-0.6,0-1.3-0.1-1.8-0.3c-0.6-0.2-1.1-0.5-1.5-0.9
			c-0.4-0.4-0.8-0.9-1-1.4C123.1,471.1,123,470.5,123,469.8z M125.2,469.8c0,0.3,0.1,0.7,0.2,1s0.3,0.6,0.5,0.9
			c0.2,0.3,0.5,0.5,0.8,0.6c0.3,0.2,0.7,0.3,1.1,0.3c0.4,0,0.8-0.1,1.1-0.3c0.3-0.2,0.6-0.4,0.8-0.6c0.2-0.3,0.4-0.6,0.5-0.9
			c0.1-0.3,0.2-0.7,0.2-1c0-0.3-0.1-0.7-0.2-1c-0.1-0.3-0.3-0.6-0.5-0.9c-0.2-0.3-0.5-0.5-0.8-0.6c-0.3-0.2-0.7-0.2-1.1-0.2
			c-0.4,0-0.8,0.1-1.1,0.2c-0.3,0.2-0.6,0.4-0.8,0.6c-0.2,0.3-0.4,0.6-0.5,0.9C125.2,469.1,125.2,469.5,125.2,469.8z"/>
		<path d="M144.8,465.3c0.6,0,1,0.1,1.4,0.3c0.4,0.2,0.7,0.5,1,0.8c0.3,0.3,0.4,0.7,0.6,1.1c0.1,0.4,0.2,0.9,0.2,1.3v5.4h-2.2v-4.8
			c0-0.3,0-0.5-0.1-0.8c0-0.3-0.1-0.5-0.2-0.7c-0.1-0.2-0.3-0.4-0.5-0.5s-0.5-0.2-0.8-0.2c-0.3,0-0.6,0.1-0.9,0.2s-0.4,0.3-0.6,0.6
			c-0.2,0.2-0.3,0.5-0.3,0.8c-0.1,0.3-0.1,0.6-0.1,0.8v4.7h-2.2v-5.2c0-0.5-0.1-1-0.4-1.3c-0.3-0.4-0.7-0.5-1.2-0.5
			c-0.3,0-0.6,0.1-0.8,0.2s-0.4,0.3-0.6,0.5c-0.2,0.2-0.3,0.5-0.3,0.7c-0.1,0.3-0.1,0.6-0.1,0.9v4.8h-2.2v-8.6h2.1v1.4h0
			c0.1-0.2,0.2-0.4,0.4-0.6c0.2-0.2,0.4-0.4,0.6-0.5c0.2-0.2,0.5-0.3,0.8-0.4s0.6-0.1,1-0.1c0.7,0,1.2,0.1,1.7,0.4
			c0.4,0.3,0.8,0.7,1,1.2c0.3-0.5,0.7-0.9,1.2-1.2C143.5,465.4,144.1,465.3,144.8,465.3z"/>
		<path d="M158.7,470c0,0.1,0,0.2,0,0.3s0,0.2,0,0.3h-6.6c0,0.3,0.1,0.6,0.2,0.9c0.1,0.3,0.3,0.5,0.5,0.7c0.2,0.2,0.5,0.3,0.8,0.4
			c0.3,0.1,0.6,0.2,0.9,0.2c0.5,0,1-0.1,1.4-0.3c0.4-0.2,0.7-0.5,0.9-0.8l1.4,1.2c-0.9,1.2-2.1,1.7-3.7,1.7c-0.7,0-1.3-0.1-1.9-0.3
			c-0.6-0.2-1.1-0.5-1.5-0.9c-0.4-0.4-0.7-0.9-1-1.4c-0.2-0.6-0.4-1.2-0.4-1.9c0-0.7,0.1-1.3,0.4-1.9c0.2-0.6,0.6-1.1,1-1.5
			s0.9-0.7,1.4-0.9c0.6-0.2,1.2-0.3,1.8-0.3c0.6,0,1.2,0.1,1.7,0.3c0.5,0.2,1,0.5,1.3,0.9s0.7,0.9,0.9,1.5S158.7,469.2,158.7,470z
			 M156.5,469c0-0.3,0-0.5-0.1-0.8s-0.2-0.5-0.4-0.7c-0.2-0.2-0.4-0.3-0.6-0.5c-0.3-0.1-0.6-0.2-0.9-0.2c-0.6,0-1.2,0.2-1.6,0.6
			c-0.5,0.4-0.7,0.9-0.7,1.5H156.5z"/>
		<path d="M171.9,464.1c-0.2-0.3-0.6-0.6-1-0.8c-0.4-0.2-0.9-0.3-1.3-0.3c-0.3,0-0.5,0-0.8,0.1c-0.3,0.1-0.5,0.2-0.7,0.3
			c-0.2,0.1-0.4,0.3-0.5,0.5c-0.1,0.2-0.2,0.5-0.2,0.8c0,0.3,0.1,0.5,0.2,0.7c0.1,0.2,0.3,0.4,0.5,0.5c0.2,0.1,0.5,0.3,0.8,0.4
			s0.6,0.2,1,0.3c0.4,0.1,0.8,0.3,1.3,0.5c0.4,0.2,0.8,0.4,1.2,0.7c0.4,0.3,0.7,0.6,0.9,1s0.4,0.9,0.4,1.6c0,0.7-0.1,1.3-0.4,1.8
			c-0.3,0.5-0.6,0.9-1,1.3s-0.9,0.6-1.5,0.8c-0.6,0.2-1.2,0.3-1.8,0.3c-0.8,0-1.6-0.2-2.4-0.5c-0.8-0.3-1.4-0.8-1.9-1.4l1.6-1.5
			c0.3,0.4,0.7,0.8,1.3,1c0.5,0.3,1,0.4,1.5,0.4c0.3,0,0.5,0,0.8-0.1c0.3-0.1,0.5-0.2,0.7-0.3c0.2-0.2,0.4-0.4,0.5-0.6
			c0.1-0.2,0.2-0.5,0.2-0.9c0-0.3-0.1-0.6-0.2-0.8c-0.2-0.2-0.4-0.4-0.6-0.6c-0.3-0.2-0.6-0.3-0.9-0.4s-0.7-0.2-1.1-0.4
			c-0.4-0.1-0.8-0.3-1.2-0.4s-0.7-0.4-1-0.7c-0.3-0.3-0.6-0.6-0.7-1c-0.2-0.4-0.3-0.9-0.3-1.5c0-0.6,0.1-1.2,0.4-1.7
			c0.3-0.5,0.6-0.9,1.1-1.2c0.4-0.3,0.9-0.5,1.5-0.7c0.6-0.2,1.1-0.2,1.7-0.2c0.6,0,1.3,0.1,2,0.3c0.7,0.2,1.2,0.6,1.7,1
			L171.9,464.1z"/>
		<path d="M174.3,467.3v-1.7h1.5V463h2.1v2.5h2.2v1.7h-2.2v4c0,0.4,0.1,0.7,0.2,1s0.4,0.4,0.9,0.4c0.1,0,0.3,0,0.5,0
			c0.2,0,0.3-0.1,0.5-0.1l0.1,1.7c-0.2,0.1-0.4,0.1-0.7,0.2c-0.3,0-0.5,0.1-0.8,0.1c-0.6,0-1-0.1-1.4-0.2c-0.4-0.2-0.6-0.4-0.9-0.7
			c-0.2-0.3-0.4-0.6-0.4-1s-0.1-0.8-0.1-1.2v-4H174.3z"/>
		<path d="M181.7,465.5h2.1v1.4h0c0.2-0.5,0.6-0.9,1-1.2c0.4-0.3,0.9-0.5,1.5-0.5c0.1,0,0.2,0,0.3,0c0.1,0,0.2,0,0.3,0v2
			c-0.1,0-0.3-0.1-0.4-0.1c-0.1,0-0.2,0-0.3,0c-0.5,0-0.9,0.1-1.2,0.3c-0.3,0.2-0.5,0.4-0.7,0.6s-0.3,0.5-0.3,0.8
			c-0.1,0.3-0.1,0.5-0.1,0.6v4.6h-2.2V465.5z"/>
		<path d="M196.1,470c0,0.1,0,0.2,0,0.3s0,0.2,0,0.3h-6.6c0,0.3,0.1,0.6,0.2,0.9c0.1,0.3,0.3,0.5,0.5,0.7c0.2,0.2,0.5,0.3,0.8,0.4
			c0.3,0.1,0.6,0.2,0.9,0.2c0.5,0,1-0.1,1.4-0.3c0.4-0.2,0.7-0.5,0.9-0.8l1.4,1.2c-0.9,1.2-2.1,1.7-3.7,1.7c-0.7,0-1.3-0.1-1.9-0.3
			c-0.6-0.2-1.1-0.5-1.5-0.9c-0.4-0.4-0.7-0.9-1-1.4c-0.2-0.6-0.4-1.2-0.4-1.9c0-0.7,0.1-1.3,0.4-1.9c0.2-0.6,0.6-1.1,1-1.5
			c0.4-0.4,0.9-0.7,1.4-0.9c0.6-0.2,1.2-0.3,1.8-0.3c0.6,0,1.2,0.1,1.7,0.3c0.5,0.2,1,0.5,1.3,0.9c0.4,0.4,0.7,0.9,0.9,1.5
			C196,468.5,196.1,469.2,196.1,470z M194,469c0-0.3,0-0.5-0.1-0.8c-0.1-0.3-0.2-0.5-0.4-0.7c-0.2-0.2-0.4-0.3-0.6-0.5
			s-0.6-0.2-0.9-0.2c-0.6,0-1.2,0.2-1.6,0.6c-0.5,0.4-0.7,0.9-0.7,1.5H194z"/>
		<path d="M208.5,465.3c0.6,0,1,0.1,1.4,0.3c0.4,0.2,0.7,0.5,1,0.8c0.3,0.3,0.4,0.7,0.6,1.1c0.1,0.4,0.2,0.9,0.2,1.3v5.4h-2.2v-4.8
			c0-0.3,0-0.5-0.1-0.8c0-0.3-0.1-0.5-0.2-0.7c-0.1-0.2-0.3-0.4-0.5-0.5s-0.5-0.2-0.8-0.2c-0.3,0-0.6,0.1-0.9,0.2s-0.4,0.3-0.6,0.6
			c-0.2,0.2-0.3,0.5-0.3,0.8c-0.1,0.3-0.1,0.6-0.1,0.8v4.7h-2.2v-5.2c0-0.5-0.1-1-0.4-1.3c-0.3-0.4-0.7-0.5-1.2-0.5
			c-0.3,0-0.6,0.1-0.8,0.2s-0.4,0.3-0.6,0.5c-0.2,0.2-0.3,0.5-0.3,0.7c-0.1,0.3-0.1,0.6-0.1,0.9v4.8h-2.2v-8.6h2.1v1.4h0
			c0.1-0.2,0.2-0.4,0.4-0.6c0.2-0.2,0.4-0.4,0.6-0.5c0.2-0.2,0.5-0.3,0.8-0.4s0.6-0.1,1-0.1c0.7,0,1.2,0.1,1.7,0.4
			c0.4,0.3,0.8,0.7,1,1.2c0.3-0.5,0.7-0.9,1.2-1.2C207.3,465.4,207.9,465.3,208.5,465.3z"/>
		<path d="M219,467.8c-0.2-0.3-0.5-0.5-0.8-0.7c-0.3-0.2-0.7-0.3-1.1-0.3c-0.3,0-0.7,0.1-1,0.2c-0.3,0.1-0.4,0.4-0.4,0.7
			s0.2,0.6,0.5,0.7c0.3,0.1,0.8,0.3,1.4,0.4c0.3,0.1,0.7,0.2,1,0.3s0.6,0.3,0.9,0.5c0.3,0.2,0.5,0.4,0.7,0.7s0.3,0.7,0.3,1.1
			c0,0.5-0.1,1-0.3,1.3s-0.5,0.7-0.8,0.9c-0.3,0.2-0.7,0.4-1.2,0.5c-0.4,0.1-0.9,0.2-1.4,0.2c-0.7,0-1.3-0.1-2-0.4
			c-0.6-0.2-1.2-0.6-1.6-1.1l1.4-1.3c0.2,0.3,0.6,0.6,0.9,0.8s0.8,0.3,1.3,0.3c0.2,0,0.3,0,0.5-0.1c0.2,0,0.3-0.1,0.5-0.2
			c0.1-0.1,0.2-0.2,0.3-0.3s0.1-0.3,0.1-0.5c0-0.4-0.2-0.6-0.5-0.8s-0.8-0.3-1.5-0.5c-0.3-0.1-0.6-0.2-0.9-0.3s-0.6-0.3-0.8-0.5
			c-0.2-0.2-0.4-0.4-0.6-0.7c-0.1-0.3-0.2-0.6-0.2-1c0-0.5,0.1-0.9,0.3-1.2c0.2-0.3,0.5-0.6,0.8-0.9c0.3-0.2,0.7-0.4,1.1-0.5
			c0.4-0.1,0.8-0.2,1.3-0.2c0.6,0,1.2,0.1,1.8,0.3c0.6,0.2,1.1,0.5,1.4,1L219,467.8z"/>
	</g>
</g>
<g>
	<defs>
		<rect id="SVGID_625_" x="350.3" y="449.8" width="355.5" height="35.8"/>
	</defs>
	<clipPath id="SVGID_6_">
		<use xlink:href="#SVGID_625_"  style="overflow:visible;"/>
	</clipPath>
	<g class="st3">
		<path d="M493.3,461.4h4.4c0.6,0,1.2,0.1,1.7,0.2s1.1,0.3,1.5,0.6c0.4,0.3,0.8,0.7,1.1,1.1c0.3,0.5,0.4,1,0.4,1.7
			c0,0.9-0.3,1.7-0.8,2.3s-1.2,1-2.1,1.2l3.4,5.7h-2.7l-3-5.4h-1.7v5.4h-2.3V461.4z M497.4,466.9c0.3,0,0.6,0,1-0.1s0.6-0.1,0.9-0.3
			s0.5-0.3,0.6-0.6s0.3-0.6,0.3-0.9c0-0.3-0.1-0.6-0.2-0.9c-0.2-0.2-0.4-0.4-0.6-0.5c-0.2-0.1-0.5-0.2-0.8-0.3
			c-0.3,0-0.6-0.1-0.9-0.1h-2.1v3.6H497.4z"/>
		<path d="M512.6,470c0,0.1,0,0.2,0,0.3s0,0.2,0,0.3H506c0,0.3,0.1,0.6,0.2,0.9c0.1,0.3,0.3,0.5,0.5,0.7c0.2,0.2,0.5,0.3,0.8,0.4
			c0.3,0.1,0.6,0.2,0.9,0.2c0.5,0,1-0.1,1.4-0.3c0.4-0.2,0.7-0.5,0.9-0.8l1.4,1.2c-0.9,1.2-2.1,1.7-3.7,1.7c-0.7,0-1.3-0.1-1.9-0.3
			c-0.6-0.2-1.1-0.5-1.5-0.9c-0.4-0.4-0.7-0.9-1-1.4c-0.2-0.6-0.4-1.2-0.4-1.9c0-0.7,0.1-1.3,0.4-1.9c0.2-0.6,0.6-1.1,1-1.5
			c0.4-0.4,0.9-0.7,1.4-0.9c0.6-0.2,1.2-0.3,1.8-0.3c0.6,0,1.2,0.1,1.7,0.3c0.5,0.2,1,0.5,1.3,0.9s0.7,0.9,0.9,1.5
			S512.6,469.2,512.6,470z M510.4,469c0-0.3,0-0.5-0.1-0.8s-0.2-0.5-0.4-0.7c-0.2-0.2-0.4-0.3-0.6-0.5c-0.3-0.1-0.6-0.2-0.9-0.2
			c-0.6,0-1.2,0.2-1.6,0.6c-0.4,0.4-0.7,0.9-0.7,1.5H510.4z"/>
		<path d="M513.4,465.5h2.4l2.3,6.3h0l2.3-6.3h2.3l-3.4,8.6h-2.3L513.4,465.5z"/>
		<path d="M532.1,470c0,0.1,0,0.2,0,0.3s0,0.2,0,0.3h-6.6c0,0.3,0.1,0.6,0.2,0.9c0.1,0.3,0.3,0.5,0.5,0.7c0.2,0.2,0.5,0.3,0.8,0.4
			c0.3,0.1,0.6,0.2,0.9,0.2c0.5,0,1-0.1,1.4-0.3c0.4-0.2,0.7-0.5,0.9-0.8l1.4,1.2c-0.9,1.2-2.1,1.7-3.7,1.7c-0.7,0-1.3-0.1-1.9-0.3
			c-0.6-0.2-1.1-0.5-1.5-0.9c-0.4-0.4-0.7-0.9-1-1.4c-0.2-0.6-0.4-1.2-0.4-1.9c0-0.7,0.1-1.3,0.4-1.9c0.2-0.6,0.6-1.1,1-1.5
			s0.9-0.7,1.4-0.9c0.6-0.2,1.2-0.3,1.8-0.3c0.6,0,1.2,0.1,1.7,0.3c0.5,0.2,1,0.5,1.3,0.9c0.4,0.4,0.7,0.9,0.9,1.5
			C532,468.5,532.1,469.2,532.1,470z M530,469c0-0.3,0-0.5-0.1-0.8c-0.1-0.3-0.2-0.5-0.4-0.7c-0.2-0.2-0.4-0.3-0.6-0.5
			s-0.6-0.2-0.9-0.2c-0.6,0-1.2,0.2-1.6,0.6c-0.5,0.4-0.7,0.9-0.7,1.5H530z"/>
		<path d="M534.2,465.5h2.1v1.4h0c0.2-0.4,0.5-0.8,1-1.1c0.5-0.3,1-0.5,1.7-0.5c0.6,0,1,0.1,1.4,0.3c0.4,0.2,0.7,0.5,1,0.8
			c0.3,0.3,0.4,0.7,0.6,1.1c0.1,0.4,0.2,0.9,0.2,1.3v5.4H540v-4.8c0-0.3,0-0.5-0.1-0.8c0-0.3-0.1-0.5-0.2-0.7
			c-0.1-0.2-0.3-0.4-0.5-0.5s-0.5-0.2-0.8-0.2c-0.3,0-0.6,0.1-0.9,0.2c-0.3,0.1-0.5,0.3-0.6,0.5c-0.2,0.2-0.3,0.5-0.4,0.7
			c-0.1,0.3-0.1,0.6-0.1,0.9v4.8h-2.2V465.5z"/>
		<path d="M552.6,474.2h-2.1v-1.4h0c-0.2,0.4-0.5,0.8-1,1.1c-0.5,0.3-1,0.5-1.7,0.5c-0.6,0-1-0.1-1.4-0.3s-0.7-0.5-1-0.8
			c-0.3-0.3-0.4-0.7-0.6-1.1c-0.1-0.4-0.2-0.9-0.2-1.3v-5.4h2.2v4.8c0,0.3,0,0.5,0.1,0.8c0,0.3,0.1,0.5,0.2,0.7
			c0.1,0.2,0.3,0.4,0.5,0.5c0.2,0.1,0.5,0.2,0.8,0.2c0.3,0,0.6-0.1,0.9-0.2c0.3-0.1,0.5-0.3,0.6-0.5s0.3-0.5,0.4-0.7
			c0.1-0.3,0.1-0.6,0.1-0.9v-4.8h2.2V474.2z"/>
		<path d="M563.4,470c0,0.1,0,0.2,0,0.3s0,0.2,0,0.3h-6.6c0,0.3,0.1,0.6,0.2,0.9c0.1,0.3,0.3,0.5,0.5,0.7c0.2,0.2,0.5,0.3,0.8,0.4
			c0.3,0.1,0.6,0.2,0.9,0.2c0.5,0,1-0.1,1.4-0.3c0.4-0.2,0.7-0.5,0.9-0.8l1.4,1.2c-0.9,1.2-2.1,1.7-3.7,1.7c-0.7,0-1.3-0.1-1.9-0.3
			c-0.6-0.2-1.1-0.5-1.5-0.9c-0.4-0.4-0.7-0.9-1-1.4c-0.2-0.6-0.4-1.2-0.4-1.9c0-0.7,0.1-1.3,0.4-1.9c0.2-0.6,0.6-1.1,1-1.5
			s0.9-0.7,1.4-0.9c0.6-0.2,1.2-0.3,1.8-0.3c0.6,0,1.2,0.1,1.7,0.3c0.5,0.2,1,0.5,1.3,0.9c0.4,0.4,0.7,0.9,0.9,1.5
			C563.3,468.5,563.4,469.2,563.4,470z M561.3,469c0-0.3,0-0.5-0.1-0.8c-0.1-0.3-0.2-0.5-0.4-0.7c-0.2-0.2-0.4-0.3-0.6-0.5
			s-0.6-0.2-0.9-0.2c-0.6,0-1.2,0.2-1.6,0.6c-0.5,0.4-0.7,0.9-0.7,1.5H561.3z"/>
	</g>
</g>
<g>
	<defs>
		<rect id="SVGID_627_" x="93.8" y="486.6" width="256.3" height="60.4"/>
	</defs>
	<clipPath id="SVGID_8_">
		<use xlink:href="#SVGID_627_"  style="overflow:visible;"/>
	</clipPath>
	<g class="st4">
		<path d="M100.8,523h-1.3v-12.7h1.3V523z"/>
		<path d="M113.2,521.1L113.2,521.1l0-10.9h1.3V523H113l-7.4-11h0v11h-1.3v-12.7h1.6L113.2,521.1z"/>
		<path d="M122.1,523h-1.4l5.5-12.7h1.3l5.5,12.7h-1.4l-1.4-3.3h-6.6L122.1,523z M123.9,518.5h5.6l-2.8-6.8L123.9,518.5z"/>
		<path d="M134.8,510.2h3.6c0.6,0,1.2,0.1,1.8,0.2c0.5,0.1,1,0.3,1.4,0.6c0.4,0.3,0.7,0.6,0.9,1.1c0.2,0.4,0.3,0.9,0.3,1.5
			s-0.1,1.1-0.3,1.5s-0.5,0.8-0.9,1.1c-0.4,0.3-0.8,0.5-1.4,0.6c-0.5,0.1-1.1,0.2-1.8,0.2H136v5.9h-1.3V510.2z M136,516h2.2
			c1,0,1.8-0.2,2.3-0.6c0.5-0.4,0.8-1,0.8-1.7c0-0.8-0.3-1.4-0.8-1.7c-0.5-0.4-1.3-0.5-2.3-0.5H136V516z"/>
		<path d="M145.2,510.2h3.6c0.6,0,1.2,0.1,1.8,0.2c0.5,0.1,1,0.3,1.4,0.6c0.4,0.3,0.7,0.6,0.9,1.1c0.2,0.4,0.3,0.9,0.3,1.5
			s-0.1,1.1-0.3,1.5s-0.5,0.8-0.9,1.1c-0.4,0.3-0.8,0.5-1.4,0.6c-0.5,0.1-1.1,0.2-1.8,0.2h-2.3v5.9h-1.3V510.2z M146.5,516h2.2
			c1,0,1.8-0.2,2.3-0.6c0.5-0.4,0.8-1,0.8-1.7c0-0.8-0.3-1.4-0.8-1.7c-0.5-0.4-1.3-0.5-2.3-0.5h-2.2V516z"/>
		<path d="M160.1,510.2h3.6c0.6,0,1.2,0.1,1.8,0.2c0.5,0.1,1,0.3,1.4,0.6c0.4,0.3,0.7,0.6,0.9,1.1c0.2,0.4,0.3,0.9,0.3,1.5
			s-0.1,1.1-0.3,1.5s-0.5,0.8-0.9,1.1c-0.4,0.3-0.8,0.5-1.4,0.6c-0.5,0.1-1.1,0.2-1.8,0.2h-2.3v5.9h-1.3V510.2z M161.4,516h2.2
			c1,0,1.8-0.2,2.3-0.6c0.5-0.4,0.8-1,0.8-1.7c0-0.8-0.3-1.4-0.8-1.7c-0.5-0.4-1.3-0.5-2.3-0.5h-2.2V516z"/>
		<path d="M175.3,523.3c-1,0-1.7-0.2-2.4-0.5s-1.1-0.7-1.5-1.3s-0.6-1.1-0.7-1.6c-0.1-0.6-0.2-1.2-0.2-1.7v-8h1.3v7.8
			c0,0.5,0.1,1,0.2,1.5c0.1,0.5,0.3,0.9,0.6,1.3c0.3,0.4,0.6,0.7,1.1,0.9c0.4,0.2,1,0.4,1.6,0.4c0.6,0,1.2-0.1,1.6-0.4
			c0.4-0.2,0.8-0.5,1.1-0.9c0.3-0.4,0.5-0.8,0.6-1.3c0.1-0.5,0.2-1,0.2-1.5v-7.8h1.3v8c0,0.5-0.1,1.1-0.2,1.7
			c-0.1,0.6-0.4,1.1-0.7,1.6c-0.4,0.5-0.8,0.9-1.5,1.3S176.2,523.3,175.3,523.3z"/>
		<path d="M184.6,523h-1.3v-12.7h3.7c0.6,0,1.2,0.1,1.7,0.2c0.5,0.1,1,0.3,1.4,0.6c0.4,0.3,0.7,0.6,0.9,1.1c0.2,0.4,0.3,1,0.3,1.6
			c0,0.5-0.1,0.9-0.3,1.3c-0.2,0.4-0.4,0.7-0.7,1c-0.3,0.3-0.6,0.5-1,0.7c-0.4,0.2-0.8,0.3-1.3,0.3l3.7,6.1h-1.6l-3.5-6h-2.2V523z
			 M184.6,515.9h2.2c1,0,1.8-0.2,2.4-0.6c0.6-0.4,0.8-0.9,0.8-1.7c0-0.4-0.1-0.8-0.2-1.1s-0.4-0.5-0.6-0.7c-0.3-0.2-0.6-0.3-1-0.4
			c-0.4-0.1-0.8-0.1-1.3-0.1h-2.3V515.9z"/>
		<path d="M204.9,520.9c-0.2,0.3-0.5,0.6-0.8,0.9c-0.3,0.3-0.7,0.5-1.1,0.8c-0.4,0.2-0.8,0.4-1.3,0.5c-0.5,0.1-1,0.2-1.6,0.2
			c-1,0-1.8-0.2-2.7-0.5c-0.8-0.3-1.5-0.8-2.1-1.4s-1-1.3-1.4-2.1c-0.3-0.8-0.5-1.7-0.5-2.7s0.2-1.9,0.5-2.7
			c0.3-0.8,0.8-1.5,1.4-2.1c0.6-0.6,1.3-1.1,2.1-1.4c0.8-0.3,1.7-0.5,2.6-0.5c0.5,0,0.9,0,1.4,0.1c0.5,0.1,0.9,0.2,1.3,0.4
			c0.4,0.2,0.8,0.4,1.1,0.6c0.3,0.2,0.6,0.5,0.8,0.8l-1.1,0.8c-0.1-0.2-0.3-0.4-0.5-0.6c-0.2-0.2-0.5-0.4-0.8-0.5
			c-0.3-0.2-0.6-0.3-1-0.4c-0.4-0.1-0.7-0.1-1.1-0.1c-0.8,0-1.6,0.1-2.2,0.4c-0.7,0.3-1.2,0.7-1.7,1.2c-0.5,0.5-0.8,1.1-1,1.8
			s-0.4,1.4-0.4,2.1c0,0.7,0.1,1.4,0.4,2.1c0.2,0.7,0.6,1.3,1.1,1.8c0.5,0.5,1,0.9,1.7,1.2c0.7,0.3,1.4,0.4,2.2,0.4
			c0.7,0,1.4-0.1,2.1-0.5c0.7-0.3,1.2-0.8,1.7-1.4L204.9,520.9z"/>
		<path d="M207.1,510.2h1.3v5.5h6.9v-5.5h1.3V523h-1.3v-6h-6.9v6h-1.3V510.2z"/>
		<path d="M219.9,523h-1.4l5.5-12.7h1.3l5.5,12.7h-1.4l-1.4-3.3h-6.6L219.9,523z M221.8,518.5h5.6l-2.8-6.8L221.8,518.5z"/>
		<path d="M238.8,512.3c-0.3-0.4-0.6-0.7-1.1-0.9c-0.4-0.2-1-0.4-1.6-0.4c-0.3,0-0.6,0-1,0.1c-0.3,0.1-0.6,0.2-0.9,0.4
			c-0.3,0.2-0.5,0.4-0.6,0.7s-0.2,0.7-0.2,1.1c0,0.4,0.1,0.7,0.2,1c0.2,0.3,0.4,0.5,0.6,0.7c0.3,0.2,0.6,0.3,0.9,0.5s0.7,0.2,1,0.4
			c0.4,0.1,0.9,0.3,1.3,0.5c0.4,0.2,0.9,0.4,1.2,0.7c0.4,0.3,0.7,0.6,0.9,1c0.2,0.4,0.3,0.9,0.3,1.6c0,0.6-0.1,1.2-0.4,1.6
			c-0.2,0.5-0.6,0.8-0.9,1.1c-0.4,0.3-0.8,0.5-1.3,0.7c-0.5,0.1-1,0.2-1.5,0.2c-0.4,0-0.8,0-1.2-0.1s-0.8-0.2-1.1-0.4
			c-0.3-0.2-0.7-0.4-1-0.6c-0.3-0.2-0.6-0.5-0.8-0.8l1.1-0.8c0.3,0.5,0.7,0.8,1.2,1.1s1.1,0.5,1.8,0.5c0.3,0,0.7-0.1,1-0.2
			c0.3-0.1,0.6-0.3,0.9-0.5c0.3-0.2,0.5-0.5,0.7-0.8c0.2-0.3,0.3-0.7,0.3-1.1c0-0.4-0.1-0.8-0.3-1.1c-0.2-0.3-0.4-0.5-0.7-0.7
			c-0.3-0.2-0.6-0.4-1-0.5s-0.8-0.3-1.2-0.4c-0.4-0.1-0.8-0.3-1.2-0.5c-0.4-0.2-0.8-0.4-1.1-0.7c-0.3-0.3-0.6-0.6-0.8-1
			c-0.2-0.4-0.3-0.9-0.3-1.5c0-0.6,0.1-1.1,0.4-1.6c0.2-0.4,0.6-0.8,1-1.1c0.4-0.3,0.8-0.5,1.3-0.6c0.5-0.1,1-0.2,1.4-0.2
			c0.9,0,1.6,0.2,2.2,0.5c0.6,0.3,1.1,0.7,1.4,1.1L238.8,512.3z"/>
		<path d="M244.1,521.8h6.8v1.2h-8.1v-12.7h7.9v1.2h-6.6v4.4h6.2v1.2h-6.2V521.8z"/>
	</g>
</g>
<g>
	<defs>
		<rect id="SVGID_629_" x="350.6" y="486.6" width="355.2" height="60.4"/>
	</defs>
	<clipPath id="SVGID_10_">
		<use xlink:href="#SVGID_629_"  style="overflow:visible;"/>
	</clipPath>
	<g class="st5">
		<path d="M587.2,515.8h0.6c0.4,0,0.8,0,1.2-0.1c0.4-0.1,0.7-0.2,0.9-0.4c0.3-0.2,0.5-0.4,0.6-0.7s0.2-0.7,0.2-1.1
			c0-0.4-0.1-0.7-0.2-1s-0.3-0.5-0.5-0.8c-0.2-0.2-0.5-0.4-0.8-0.5c-0.3-0.1-0.6-0.2-1-0.2c-0.5,0-1,0.1-1.4,0.4s-0.7,0.6-1,1.1
			l-1.1-0.6c0.4-0.7,0.9-1.2,1.5-1.5s1.3-0.5,2.1-0.5c0.5,0,1,0.1,1.4,0.2c0.5,0.2,0.8,0.4,1.2,0.7c0.3,0.3,0.6,0.6,0.8,1.1
			c0.2,0.4,0.3,0.9,0.3,1.5c0,0.8-0.2,1.4-0.6,1.9s-0.9,0.8-1.6,1v0c0.7,0.2,1.3,0.5,1.8,1.1c0.5,0.5,0.7,1.3,0.7,2.1
			c0,0.6-0.1,1.2-0.3,1.6c-0.2,0.5-0.5,0.9-0.9,1.2c-0.4,0.3-0.8,0.6-1.3,0.8c-0.5,0.2-1,0.3-1.6,0.3c-0.9,0-1.8-0.2-2.4-0.7
			c-0.7-0.5-1.2-1.1-1.6-1.9l1.2-0.5c0.2,0.6,0.6,1.1,1.1,1.4c0.5,0.3,1.1,0.5,1.7,0.5c0.4,0,0.7-0.1,1.1-0.2s0.6-0.3,0.9-0.5
			c0.3-0.2,0.5-0.5,0.6-0.9c0.2-0.3,0.2-0.7,0.2-1.2c0-0.5-0.1-0.9-0.3-1.2c-0.2-0.3-0.4-0.6-0.7-0.8c-0.3-0.2-0.7-0.4-1.1-0.4
			c-0.4-0.1-0.8-0.1-1.2-0.1h-0.6V515.8z"/>
		<path d="M595.6,525.5h-1l1.2-4.2h1.3L595.6,525.5z"/>
		<path d="M605.4,516.2c0.7,0.2,1.3,0.6,1.7,1.2c0.5,0.6,0.7,1.3,0.7,2.2c0,0.6-0.1,1.1-0.3,1.5c-0.2,0.5-0.5,0.8-0.9,1.2
			s-0.8,0.6-1.3,0.7c-0.5,0.2-1,0.3-1.6,0.3c-0.5,0-1.1-0.1-1.6-0.3c-0.5-0.2-0.9-0.4-1.3-0.7s-0.7-0.7-0.9-1.2
			c-0.2-0.5-0.3-1-0.3-1.5c0-0.4,0.1-0.8,0.2-1.2c0.1-0.4,0.3-0.7,0.5-1s0.5-0.5,0.8-0.7s0.6-0.4,1-0.5v0c-0.3-0.1-0.5-0.2-0.8-0.4
			c-0.2-0.2-0.4-0.4-0.6-0.7s-0.3-0.5-0.4-0.8c-0.1-0.3-0.1-0.6-0.1-0.9c0-0.5,0.1-1,0.3-1.4c0.2-0.4,0.5-0.8,0.8-1.1
			s0.7-0.5,1.1-0.7c0.4-0.2,0.9-0.2,1.4-0.2c0.5,0,0.9,0.1,1.4,0.2c0.4,0.2,0.8,0.4,1.2,0.7s0.6,0.7,0.8,1.1
			c0.2,0.4,0.3,0.9,0.3,1.4c0,0.3,0,0.6-0.1,0.9c-0.1,0.3-0.2,0.6-0.4,0.8s-0.4,0.5-0.6,0.7C605.9,516,605.7,516.1,605.4,516.2
			L605.4,516.2z M600.9,519.5c0,0.4,0.1,0.7,0.2,1.1s0.3,0.6,0.6,0.9s0.5,0.4,0.9,0.6c0.3,0.1,0.7,0.2,1.1,0.2
			c0.4,0,0.8-0.1,1.1-0.2c0.3-0.1,0.6-0.3,0.9-0.6s0.4-0.5,0.6-0.9c0.1-0.3,0.2-0.7,0.2-1.1c0-0.4-0.1-0.7-0.2-1.1
			c-0.1-0.3-0.3-0.6-0.6-0.8c-0.2-0.2-0.5-0.4-0.9-0.6s-0.7-0.2-1.1-0.2c-0.4,0-0.8,0.1-1.1,0.2s-0.6,0.3-0.9,0.6
			c-0.2,0.2-0.4,0.5-0.6,0.8C601,518.8,600.9,519.1,600.9,519.5z M601.4,513.4c0,0.3,0.1,0.6,0.2,0.9c0.1,0.3,0.3,0.5,0.5,0.7
			s0.5,0.4,0.7,0.5c0.3,0.1,0.6,0.2,0.9,0.2c0.3,0,0.6-0.1,0.9-0.2c0.3-0.1,0.5-0.3,0.7-0.5s0.4-0.4,0.5-0.7s0.2-0.6,0.2-0.9
			s-0.1-0.7-0.2-0.9s-0.3-0.5-0.5-0.8s-0.5-0.4-0.7-0.5c-0.3-0.1-0.6-0.2-0.9-0.2c-0.3,0-0.6,0.1-0.9,0.2s-0.5,0.3-0.7,0.5
			c-0.2,0.2-0.4,0.5-0.5,0.8C601.4,512.7,601.4,513.1,601.4,513.4z"/>
		<path d="M615.8,517.4L615.8,517.4c-0.2,0.1-0.5,0.2-0.8,0.3c-0.3,0.1-0.7,0.1-1,0.1c-0.6,0-1.1-0.1-1.5-0.3
			c-0.5-0.2-0.9-0.5-1.2-0.8c-0.3-0.3-0.6-0.8-0.8-1.2c-0.2-0.5-0.3-1-0.3-1.6c0-0.6,0.1-1.1,0.3-1.6c0.2-0.5,0.5-0.9,0.9-1.3
			c0.4-0.3,0.8-0.6,1.3-0.8c0.5-0.2,1.1-0.3,1.7-0.3c0.6,0,1.2,0.1,1.7,0.3c0.5,0.2,0.9,0.5,1.3,0.8c0.4,0.3,0.7,0.8,0.9,1.3
			c0.2,0.5,0.3,1,0.3,1.6c0,0.7-0.1,1.3-0.3,1.8c-0.2,0.6-0.5,1.1-0.8,1.6l-3.5,5.6h-1.5L615.8,517.4z M617,513.9
			c0-0.4-0.1-0.8-0.2-1.2s-0.3-0.7-0.6-0.9c-0.3-0.3-0.6-0.5-0.9-0.6c-0.3-0.1-0.7-0.2-1.2-0.2s-0.8,0.1-1.2,0.2
			c-0.3,0.2-0.6,0.4-0.9,0.6c-0.3,0.3-0.4,0.6-0.6,0.9c-0.1,0.4-0.2,0.7-0.2,1.2s0.1,0.8,0.2,1.1c0.1,0.4,0.3,0.7,0.6,0.9
			c0.2,0.3,0.5,0.5,0.9,0.6c0.4,0.1,0.7,0.2,1.2,0.2s0.8-0.1,1.2-0.2c0.4-0.1,0.7-0.3,0.9-0.6c0.2-0.3,0.4-0.6,0.6-0.9
			C616.9,514.7,617,514.3,617,513.9z"/>
		<path d="M628.4,523h-8.1v-1.3l5.2-5.3c0.2-0.2,0.4-0.4,0.6-0.6c0.2-0.2,0.4-0.5,0.5-0.7c0.1-0.2,0.3-0.5,0.3-0.8
			c0.1-0.3,0.1-0.5,0.1-0.8c0-0.4-0.1-0.7-0.2-1s-0.3-0.6-0.5-0.8c-0.2-0.2-0.5-0.4-0.8-0.5c-0.3-0.1-0.6-0.2-1-0.2
			c-0.7,0-1.3,0.2-1.7,0.6c-0.5,0.4-0.8,1-0.9,1.6l-1.3-0.3c0.1-0.4,0.2-0.9,0.5-1.2c0.2-0.4,0.5-0.7,0.9-1c0.3-0.3,0.7-0.5,1.2-0.6
			c0.4-0.2,0.9-0.2,1.4-0.2c0.5,0,1,0.1,1.5,0.2c0.5,0.2,0.9,0.4,1.2,0.7s0.6,0.7,0.8,1.1c0.2,0.4,0.3,0.9,0.3,1.5
			c0,0.4-0.1,0.8-0.2,1.1c-0.1,0.3-0.3,0.7-0.5,1c-0.2,0.3-0.4,0.6-0.7,0.9s-0.5,0.6-0.8,0.8l-4.6,4.6h6.8V523z"/>
		<path d="M631.6,525.5h-1l1.2-4.2h1.3L631.6,525.5z"/>
		<path d="M638.3,515.8h0.6c0.4,0,0.8,0,1.2-0.1c0.4-0.1,0.7-0.2,0.9-0.4c0.3-0.2,0.5-0.4,0.6-0.7c0.2-0.3,0.2-0.7,0.2-1.1
			c0-0.4-0.1-0.7-0.2-1c-0.1-0.3-0.3-0.5-0.5-0.8c-0.2-0.2-0.5-0.4-0.8-0.5s-0.6-0.2-1-0.2c-0.5,0-1,0.1-1.4,0.4
			c-0.4,0.3-0.7,0.6-1,1.1l-1.1-0.6c0.4-0.7,0.9-1.2,1.5-1.5c0.6-0.3,1.3-0.5,2.1-0.5c0.5,0,1,0.1,1.4,0.2s0.8,0.4,1.2,0.7
			c0.3,0.3,0.6,0.6,0.8,1.1c0.2,0.4,0.3,0.9,0.3,1.5c0,0.8-0.2,1.4-0.6,1.9s-0.9,0.8-1.6,1v0c0.7,0.2,1.3,0.5,1.8,1.1
			c0.5,0.5,0.7,1.3,0.7,2.1c0,0.6-0.1,1.2-0.3,1.6c-0.2,0.5-0.5,0.9-0.9,1.2c-0.4,0.3-0.8,0.6-1.3,0.8c-0.5,0.2-1,0.3-1.6,0.3
			c-0.9,0-1.8-0.2-2.4-0.7c-0.7-0.5-1.2-1.1-1.6-1.9l1.2-0.5c0.2,0.6,0.6,1.1,1.1,1.4c0.5,0.3,1.1,0.5,1.7,0.5
			c0.4,0,0.7-0.1,1.1-0.2c0.3-0.1,0.6-0.3,0.9-0.5c0.3-0.2,0.5-0.5,0.6-0.9s0.2-0.7,0.2-1.2c0-0.5-0.1-0.9-0.3-1.2
			c-0.2-0.3-0.4-0.6-0.7-0.8c-0.3-0.2-0.7-0.4-1.1-0.4c-0.4-0.1-0.8-0.1-1.2-0.1h-0.6V515.8z"/>
		<path d="M651.8,516.2c0.7,0.2,1.3,0.6,1.7,1.2c0.5,0.6,0.7,1.3,0.7,2.2c0,0.6-0.1,1.1-0.3,1.5s-0.5,0.8-0.9,1.2
			c-0.4,0.3-0.8,0.6-1.3,0.7c-0.5,0.2-1,0.3-1.6,0.3s-1.1-0.1-1.6-0.3c-0.5-0.2-0.9-0.4-1.3-0.7s-0.7-0.7-0.9-1.2
			c-0.2-0.5-0.3-1-0.3-1.5c0-0.4,0.1-0.8,0.2-1.2s0.3-0.7,0.5-1c0.2-0.3,0.5-0.5,0.8-0.7c0.3-0.2,0.6-0.4,1-0.5v0
			c-0.3-0.1-0.5-0.2-0.8-0.4c-0.2-0.2-0.4-0.4-0.6-0.7c-0.2-0.3-0.3-0.5-0.4-0.8c-0.1-0.3-0.1-0.6-0.1-0.9c0-0.5,0.1-1,0.3-1.4
			c0.2-0.4,0.5-0.8,0.8-1.1s0.7-0.5,1.1-0.7c0.4-0.2,0.9-0.2,1.4-0.2c0.5,0,0.9,0.1,1.4,0.2c0.4,0.2,0.8,0.4,1.2,0.7
			s0.6,0.7,0.8,1.1c0.2,0.4,0.3,0.9,0.3,1.4c0,0.3,0,0.6-0.1,0.9c-0.1,0.3-0.2,0.6-0.4,0.8s-0.4,0.5-0.6,0.7
			C652.4,516,652.1,516.1,651.8,516.2L651.8,516.2z M647.3,519.5c0,0.4,0.1,0.7,0.2,1.1c0.1,0.3,0.3,0.6,0.6,0.9s0.5,0.4,0.9,0.6
			c0.3,0.1,0.7,0.2,1.1,0.2s0.8-0.1,1.1-0.2c0.3-0.1,0.6-0.3,0.9-0.6c0.2-0.2,0.4-0.5,0.6-0.9s0.2-0.7,0.2-1.1
			c0-0.4-0.1-0.7-0.2-1.1c-0.1-0.3-0.3-0.6-0.6-0.8c-0.2-0.2-0.5-0.4-0.9-0.6c-0.3-0.1-0.7-0.2-1.1-0.2s-0.8,0.1-1.1,0.2
			c-0.3,0.1-0.6,0.3-0.9,0.6c-0.2,0.2-0.4,0.5-0.6,0.8C647.4,518.8,647.3,519.1,647.3,519.5z M647.8,513.4c0,0.3,0.1,0.6,0.2,0.9
			s0.3,0.5,0.5,0.7s0.5,0.4,0.7,0.5c0.3,0.1,0.6,0.2,0.9,0.2s0.6-0.1,0.9-0.2c0.3-0.1,0.5-0.3,0.7-0.5s0.4-0.4,0.5-0.7
			s0.2-0.6,0.2-0.9s-0.1-0.7-0.2-0.9s-0.3-0.5-0.5-0.8s-0.5-0.4-0.7-0.5s-0.6-0.2-0.9-0.2s-0.6,0.1-0.9,0.2
			c-0.3,0.1-0.5,0.3-0.7,0.5s-0.4,0.5-0.5,0.8S647.8,513.1,647.8,513.4z"/>
		<path d="M659.2,515.8h0.6c0.4,0,0.8,0,1.2-0.1c0.4-0.1,0.7-0.2,0.9-0.4c0.3-0.2,0.5-0.4,0.6-0.7c0.2-0.3,0.2-0.7,0.2-1.1
			c0-0.4-0.1-0.7-0.2-1c-0.1-0.3-0.3-0.5-0.5-0.8c-0.2-0.2-0.5-0.4-0.8-0.5s-0.6-0.2-1-0.2c-0.5,0-1,0.1-1.4,0.4
			c-0.4,0.3-0.7,0.6-1,1.1l-1.1-0.6c0.4-0.7,0.9-1.2,1.5-1.5c0.6-0.3,1.3-0.5,2.1-0.5c0.5,0,1,0.1,1.4,0.2s0.8,0.4,1.2,0.7
			c0.3,0.3,0.6,0.6,0.8,1.1c0.2,0.4,0.3,0.9,0.3,1.5c0,0.8-0.2,1.4-0.6,1.9s-0.9,0.8-1.6,1v0c0.7,0.2,1.3,0.5,1.8,1.1
			c0.5,0.5,0.7,1.3,0.7,2.1c0,0.6-0.1,1.2-0.3,1.6c-0.2,0.5-0.5,0.9-0.9,1.2c-0.4,0.3-0.8,0.6-1.3,0.8c-0.5,0.2-1,0.3-1.6,0.3
			c-0.9,0-1.8-0.2-2.4-0.7c-0.7-0.5-1.2-1.1-1.6-1.9l1.2-0.5c0.2,0.6,0.6,1.1,1.1,1.4c0.5,0.3,1.1,0.5,1.7,0.5
			c0.4,0,0.7-0.1,1.1-0.2c0.3-0.1,0.6-0.3,0.9-0.5c0.3-0.2,0.5-0.5,0.6-0.9s0.2-0.7,0.2-1.2c0-0.5-0.1-0.9-0.3-1.2
			c-0.2-0.3-0.4-0.6-0.7-0.8c-0.3-0.2-0.7-0.4-1.1-0.4c-0.4-0.1-0.8-0.1-1.2-0.1h-0.6V515.8z"/>
		<path d="M667.6,525.5h-1l1.2-4.2h1.3L667.6,525.5z"/>
		<path d="M675.7,509.9c0.8,0,1.5,0.2,2,0.6c0.5,0.4,1,0.9,1.3,1.5c0.3,0.6,0.6,1.3,0.7,2.2s0.2,1.6,0.2,2.4c0,0.8-0.1,1.6-0.2,2.4
			s-0.4,1.5-0.7,2.1c-0.3,0.6-0.8,1.1-1.3,1.5s-1.2,0.6-2,0.6c-0.8,0-1.5-0.2-2-0.6c-0.5-0.4-1-0.9-1.3-1.5
			c-0.3-0.6-0.6-1.3-0.7-2.1s-0.2-1.6-0.2-2.4c0-0.8,0.1-1.6,0.2-2.4s0.4-1.5,0.7-2.2c0.3-0.6,0.8-1.1,1.3-1.5
			C674.2,510.1,674.9,509.9,675.7,509.9z M675.7,511c-0.6,0-1,0.2-1.4,0.5c-0.4,0.3-0.7,0.8-0.9,1.3c-0.2,0.5-0.4,1.1-0.5,1.8
			c-0.1,0.7-0.1,1.3-0.1,2c0,0.6,0,1.3,0.1,1.9c0.1,0.7,0.2,1.3,0.5,1.8c0.2,0.5,0.5,1,0.9,1.3c0.4,0.3,0.8,0.5,1.4,0.5
			c0.6,0,1-0.2,1.4-0.5c0.4-0.3,0.7-0.8,0.9-1.3c0.2-0.5,0.4-1.1,0.5-1.8c0.1-0.7,0.1-1.3,0.1-1.9c0-0.6,0-1.3-0.1-2
			c-0.1-0.7-0.2-1.3-0.5-1.8c-0.2-0.5-0.5-1-0.9-1.3C676.7,511.2,676.2,511,675.7,511z"/>
		<path d="M686.1,509.9c0.8,0,1.5,0.2,2,0.6c0.5,0.4,1,0.9,1.3,1.5c0.3,0.6,0.6,1.3,0.7,2.2s0.2,1.6,0.2,2.4c0,0.8-0.1,1.6-0.2,2.4
			s-0.4,1.5-0.7,2.1c-0.3,0.6-0.8,1.1-1.3,1.5s-1.2,0.6-2,0.6c-0.8,0-1.5-0.2-2-0.6c-0.5-0.4-1-0.9-1.3-1.5
			c-0.3-0.6-0.6-1.3-0.7-2.1s-0.2-1.6-0.2-2.4c0-0.8,0.1-1.6,0.2-2.4s0.4-1.5,0.7-2.2c0.3-0.6,0.8-1.1,1.3-1.5
			C684.7,510.1,685.3,509.9,686.1,509.9z M686.1,511c-0.6,0-1,0.2-1.4,0.5c-0.4,0.3-0.7,0.8-0.9,1.3c-0.2,0.5-0.4,1.1-0.5,1.8
			c-0.1,0.7-0.1,1.3-0.1,2c0,0.6,0,1.3,0.1,1.9c0.1,0.7,0.2,1.3,0.5,1.8c0.2,0.5,0.5,1,0.9,1.3c0.4,0.3,0.8,0.5,1.4,0.5
			c0.6,0,1-0.2,1.4-0.5c0.4-0.3,0.7-0.8,0.9-1.3c0.2-0.5,0.4-1.1,0.5-1.8c0.1-0.7,0.1-1.3,0.1-1.9c0-0.6,0-1.3-0.1-2
			c-0.1-0.7-0.2-1.3-0.5-1.8c-0.2-0.5-0.5-1-0.9-1.3C687.1,511.2,686.7,511,686.1,511z"/>
		<path d="M696.6,509.9c0.8,0,1.5,0.2,2,0.6c0.5,0.4,1,0.9,1.3,1.5c0.3,0.6,0.6,1.3,0.7,2.2s0.2,1.6,0.2,2.4c0,0.8-0.1,1.6-0.2,2.4
			s-0.4,1.5-0.7,2.1c-0.3,0.6-0.8,1.1-1.3,1.5c-0.5,0.4-1.2,0.6-2,0.6c-0.8,0-1.5-0.2-2-0.6c-0.5-0.4-1-0.9-1.3-1.5
			c-0.3-0.6-0.6-1.3-0.7-2.1c-0.1-0.8-0.2-1.6-0.2-2.4c0-0.8,0.1-1.6,0.2-2.4c0.1-0.8,0.4-1.5,0.7-2.2c0.3-0.6,0.8-1.1,1.3-1.5
			C695.1,510.1,695.8,509.9,696.6,509.9z M696.6,511c-0.6,0-1,0.2-1.4,0.5c-0.4,0.3-0.7,0.8-0.9,1.3s-0.4,1.1-0.5,1.8
			c-0.1,0.7-0.1,1.3-0.1,2c0,0.6,0,1.3,0.1,1.9c0.1,0.7,0.2,1.3,0.5,1.8c0.2,0.5,0.5,1,0.9,1.3c0.4,0.3,0.8,0.5,1.4,0.5
			c0.6,0,1-0.2,1.4-0.5c0.4-0.3,0.7-0.8,0.9-1.3c0.2-0.5,0.4-1.1,0.5-1.8c0.1-0.7,0.1-1.3,0.1-1.9c0-0.6,0-1.3-0.1-2
			c-0.1-0.7-0.2-1.3-0.5-1.8s-0.5-1-0.9-1.3C697.6,511.2,697.1,511,696.6,511z"/>
	</g>
</g>
<g>
	<defs>
		<rect id="SVGID_631_" x="93.8" y="547.5" width="256.3" height="60"/>
	</defs>
	<clipPath id="SVGID_12_">
		<use xlink:href="#SVGID_631_"  style="overflow:visible;"/>
	</clipPath>
	<g class="st6">
		<path d="M99.4,583.9H98l5.5-12.7h1.3l5.5,12.7h-1.4l-1.4-3.3h-6.6L99.4,583.9z M101.3,579.3h5.6l-2.8-6.8L101.3,579.3z"/>
		<path d="M112.1,571.1h4.2c0.8,0,1.6,0.1,2.4,0.4s1.5,0.7,2.2,1.2c0.6,0.5,1.2,1.2,1.6,2c0.4,0.8,0.6,1.7,0.6,2.8
			c0,1.1-0.2,2-0.6,2.8c-0.4,0.8-0.9,1.5-1.6,2c-0.6,0.5-1.4,0.9-2.2,1.2c-0.8,0.3-1.6,0.4-2.4,0.4h-4.2V571.1z M113.4,582.7h2.6
			c1,0,1.8-0.1,2.5-0.4c0.7-0.3,1.3-0.7,1.8-1.2c0.5-0.5,0.8-1,1.1-1.7c0.2-0.6,0.4-1.3,0.4-1.9s-0.1-1.3-0.4-1.9
			c-0.2-0.6-0.6-1.2-1.1-1.7s-1.1-0.9-1.8-1.2c-0.7-0.3-1.6-0.5-2.5-0.5h-2.6V582.7z"/>
		<path d="M131.9,573.2c-0.3-0.4-0.6-0.7-1.1-0.9c-0.4-0.2-1-0.4-1.6-0.4c-0.3,0-0.6,0-1,0.1c-0.3,0.1-0.6,0.2-0.9,0.4
			c-0.3,0.2-0.5,0.4-0.6,0.7c-0.2,0.3-0.2,0.7-0.2,1.1c0,0.4,0.1,0.7,0.2,1c0.2,0.3,0.4,0.5,0.6,0.7c0.3,0.2,0.6,0.3,0.9,0.5
			c0.3,0.1,0.7,0.2,1,0.4c0.4,0.1,0.9,0.3,1.3,0.5c0.4,0.2,0.9,0.4,1.2,0.7c0.4,0.3,0.7,0.6,0.9,1s0.3,0.9,0.3,1.6
			c0,0.6-0.1,1.2-0.4,1.6c-0.2,0.5-0.6,0.8-0.9,1.1s-0.8,0.5-1.3,0.7c-0.5,0.1-1,0.2-1.5,0.2c-0.4,0-0.8,0-1.2-0.1
			c-0.4-0.1-0.8-0.2-1.1-0.4c-0.3-0.2-0.7-0.4-1-0.6c-0.3-0.2-0.6-0.5-0.8-0.8l1.1-0.8c0.3,0.5,0.7,0.8,1.2,1.1s1.1,0.5,1.8,0.5
			c0.3,0,0.7-0.1,1-0.2c0.3-0.1,0.6-0.3,0.9-0.5c0.3-0.2,0.5-0.5,0.7-0.8c0.2-0.3,0.3-0.7,0.3-1.1c0-0.4-0.1-0.8-0.3-1.1
			s-0.4-0.5-0.7-0.7c-0.3-0.2-0.6-0.4-1-0.5s-0.8-0.3-1.2-0.4c-0.4-0.1-0.8-0.3-1.2-0.5c-0.4-0.2-0.8-0.4-1.1-0.7
			c-0.3-0.3-0.6-0.6-0.8-1c-0.2-0.4-0.3-0.9-0.3-1.5c0-0.6,0.1-1.1,0.4-1.6c0.2-0.4,0.6-0.8,1-1.1c0.4-0.3,0.8-0.5,1.3-0.6
			s1-0.2,1.4-0.2c0.9,0,1.6,0.2,2.2,0.5c0.6,0.3,1.1,0.7,1.4,1.1L131.9,573.2z"/>
		<path d="M151.1,581.8c-0.2,0.3-0.5,0.6-0.8,0.9c-0.3,0.3-0.7,0.5-1.1,0.8c-0.4,0.2-0.8,0.4-1.3,0.5c-0.5,0.1-1,0.2-1.6,0.2
			c-1,0-1.8-0.2-2.7-0.5c-0.8-0.3-1.5-0.8-2.1-1.4s-1-1.3-1.4-2.1c-0.3-0.8-0.5-1.7-0.5-2.7s0.2-1.9,0.5-2.7
			c0.3-0.8,0.8-1.5,1.4-2.1c0.6-0.6,1.3-1.1,2.1-1.4c0.8-0.3,1.7-0.5,2.6-0.5c0.5,0,0.9,0,1.4,0.1c0.5,0.1,0.9,0.2,1.3,0.4
			c0.4,0.2,0.8,0.4,1.1,0.6c0.3,0.2,0.6,0.5,0.8,0.8l-1.1,0.8c-0.1-0.2-0.3-0.4-0.5-0.6c-0.2-0.2-0.5-0.4-0.8-0.5
			c-0.3-0.2-0.6-0.3-1-0.4c-0.4-0.1-0.7-0.1-1.1-0.1c-0.8,0-1.6,0.1-2.2,0.4c-0.7,0.3-1.2,0.7-1.7,1.2c-0.5,0.5-0.8,1.1-1,1.8
			s-0.4,1.4-0.4,2.1c0,0.7,0.1,1.4,0.4,2.1c0.2,0.7,0.6,1.3,1.1,1.8c0.5,0.5,1,0.9,1.7,1.2c0.7,0.3,1.4,0.4,2.2,0.4
			c0.7,0,1.4-0.1,2.1-0.5c0.7-0.3,1.2-0.8,1.7-1.4L151.1,581.8z"/>
		<path d="M165.8,577.5c0,1-0.2,1.9-0.5,2.7c-0.3,0.8-0.8,1.5-1.4,2.1c-0.6,0.6-1.3,1.1-2.1,1.4c-0.8,0.3-1.7,0.5-2.6,0.5
			c-0.9,0-1.8-0.2-2.6-0.5c-0.8-0.3-1.5-0.8-2.1-1.4s-1.1-1.3-1.4-2.1c-0.3-0.8-0.5-1.7-0.5-2.7s0.2-1.9,0.5-2.7
			c0.3-0.8,0.8-1.5,1.4-2.1s1.3-1.1,2.1-1.4c0.8-0.3,1.7-0.5,2.6-0.5c0.9,0,1.8,0.2,2.6,0.5c0.8,0.3,1.5,0.8,2.1,1.4
			c0.6,0.6,1.1,1.3,1.4,2.1C165.6,575.6,165.8,576.5,165.8,577.5z M164.4,577.5c0-0.7-0.1-1.4-0.4-2.1c-0.2-0.7-0.6-1.3-1-1.8
			c-0.5-0.5-1-0.9-1.7-1.2c-0.7-0.3-1.4-0.4-2.2-0.4c-0.8,0-1.6,0.2-2.2,0.4c-0.7,0.3-1.2,0.7-1.7,1.2c-0.5,0.5-0.8,1.1-1,1.8
			s-0.4,1.4-0.4,2.1c0,0.7,0.1,1.5,0.4,2.1s0.6,1.3,1,1.8s1,0.9,1.7,1.2s1.4,0.4,2.2,0.4c0.8,0,1.6-0.1,2.2-0.4
			c0.7-0.3,1.2-0.7,1.7-1.2s0.8-1.1,1-1.8C164.3,579,164.4,578.3,164.4,577.5z"/>
		<path d="M174.8,581.7L174.8,581.7l4.3-10.5h2v12.7h-1.3v-11.1h0l-4.6,11.1h-0.7l-4.6-11.1h0v11.1h-1.3v-12.7h2L174.8,581.7z"/>
		<path d="M184.4,571.1h3.8c0.5,0,1,0.1,1.5,0.2c0.5,0.1,0.9,0.3,1.3,0.5c0.4,0.2,0.7,0.6,1,1c0.2,0.4,0.4,0.9,0.4,1.6
			c0,0.7-0.2,1.3-0.6,1.8c-0.4,0.5-1,0.8-1.6,1v0c0.8,0.1,1.5,0.4,2.1,1s0.8,1.3,0.8,2.2c0,0.5-0.1,1-0.3,1.4
			c-0.2,0.4-0.5,0.8-0.9,1.1s-0.9,0.5-1.5,0.7s-1.2,0.3-2,0.3h-3.8V571.1z M185.7,576.7h2.6c0.3,0,0.6,0,0.9-0.1
			c0.3-0.1,0.6-0.2,0.9-0.4c0.3-0.2,0.5-0.4,0.6-0.7s0.2-0.6,0.2-1.1c0-0.4-0.1-0.8-0.2-1s-0.4-0.5-0.7-0.7s-0.6-0.3-1-0.4
			s-0.8-0.1-1.2-0.1h-2.2V576.7z M185.7,582.8h2.4c0.5,0,0.9,0,1.3-0.1c0.4-0.1,0.8-0.2,1.1-0.4c0.3-0.2,0.6-0.5,0.8-0.8
			c0.2-0.3,0.3-0.7,0.3-1.1c0-0.8-0.3-1.5-0.9-1.9c-0.6-0.4-1.4-0.6-2.4-0.6h-2.6V582.8z"/>
		<path d="M197.2,583.9h-1.3v-12.7h1.3V583.9z"/>
		<path d="M209.6,582L209.6,582l0-10.9h1.3v12.7h-1.6l-7.4-11h0v11h-1.3v-12.7h1.6L209.6,582z"/>
		<path d="M215.6,582.7h6.8v1.2h-8.1v-12.7h7.9v1.2h-6.6v4.4h6.2v1.2h-6.2V582.7z"/>
		<path d="M224.9,571.1h4.2c0.8,0,1.6,0.1,2.4,0.4s1.5,0.7,2.2,1.2c0.6,0.5,1.2,1.2,1.6,2c0.4,0.8,0.6,1.7,0.6,2.8
			c0,1.1-0.2,2-0.6,2.8c-0.4,0.8-0.9,1.5-1.6,2c-0.6,0.5-1.4,0.9-2.2,1.2c-0.8,0.3-1.6,0.4-2.4,0.4h-4.2V571.1z M226.2,582.7h2.6
			c1,0,1.8-0.1,2.5-0.4c0.7-0.3,1.3-0.7,1.8-1.2c0.5-0.5,0.8-1,1.1-1.7c0.2-0.6,0.4-1.3,0.4-1.9s-0.1-1.3-0.4-1.9
			c-0.2-0.6-0.6-1.2-1.1-1.7s-1.1-0.9-1.8-1.2c-0.7-0.3-1.6-0.5-2.5-0.5h-2.6V582.7z"/>
	</g>
</g>
<g>
	<defs>
		<rect id="SVGID_633_" x="350.6" y="547.5" width="355.2" height="60"/>
	</defs>
	<clipPath id="SVGID_14_">
		<use xlink:href="#SVGID_633_"  style="overflow:visible;"/>
	</clipPath>
	<g class="st7">
		<path d="M589.8,583.9h-1.3v-11.1l-2.3,2l-0.8-0.9l3.2-2.7h1.2V583.9z"/>
		<path d="M595.6,586.4h-1l1.2-4.2h1.3L595.6,586.4z"/>
		<path d="M607.4,572.3l-5.1,11.6h-1.5l5.3-11.6h-6.2v-1.2h7.6V572.3z"/>
		<path d="M615.8,577.1c0.7,0.2,1.3,0.6,1.7,1.2c0.5,0.6,0.7,1.3,0.7,2.2c0,0.6-0.1,1.1-0.3,1.5s-0.5,0.8-0.9,1.2
			c-0.4,0.3-0.8,0.6-1.3,0.7c-0.5,0.2-1,0.3-1.6,0.3s-1.1-0.1-1.6-0.3c-0.5-0.2-0.9-0.4-1.3-0.7s-0.7-0.7-0.9-1.2
			c-0.2-0.5-0.3-1-0.3-1.5c0-0.4,0.1-0.8,0.2-1.2s0.3-0.7,0.5-1c0.2-0.3,0.5-0.5,0.8-0.7c0.3-0.2,0.6-0.4,1-0.5v0
			c-0.3-0.1-0.5-0.2-0.8-0.4c-0.2-0.2-0.4-0.4-0.6-0.7c-0.2-0.3-0.3-0.5-0.4-0.8c-0.1-0.3-0.1-0.6-0.1-0.9c0-0.5,0.1-1,0.3-1.4
			c0.2-0.4,0.5-0.8,0.8-1.1s0.7-0.5,1.1-0.7c0.4-0.2,0.9-0.2,1.4-0.2c0.5,0,0.9,0.1,1.4,0.2c0.4,0.2,0.8,0.4,1.2,0.7
			s0.6,0.7,0.8,1.1c0.2,0.4,0.3,0.9,0.3,1.4c0,0.3,0,0.6-0.1,0.9c-0.1,0.3-0.2,0.6-0.4,0.8s-0.4,0.5-0.6,0.7
			C616.4,576.9,616.1,577,615.8,577.1L615.8,577.1z M611.3,580.4c0,0.4,0.1,0.7,0.2,1.1c0.1,0.3,0.3,0.6,0.6,0.9s0.5,0.4,0.9,0.6
			c0.3,0.1,0.7,0.2,1.1,0.2s0.8-0.1,1.1-0.2c0.3-0.1,0.6-0.3,0.9-0.6c0.2-0.2,0.4-0.5,0.6-0.9s0.2-0.7,0.2-1.1
			c0-0.4-0.1-0.7-0.2-1.1c-0.1-0.3-0.3-0.6-0.6-0.8c-0.2-0.2-0.5-0.4-0.9-0.6c-0.3-0.1-0.7-0.2-1.1-0.2s-0.8,0.1-1.1,0.2
			c-0.3,0.1-0.6,0.3-0.9,0.6c-0.2,0.2-0.4,0.5-0.6,0.8C611.4,579.7,611.3,580,611.3,580.4z M611.8,574.3c0,0.3,0.1,0.6,0.2,0.9
			s0.3,0.5,0.5,0.7s0.5,0.4,0.7,0.5c0.3,0.1,0.6,0.2,0.9,0.2s0.6-0.1,0.9-0.2c0.3-0.1,0.5-0.3,0.7-0.5s0.4-0.4,0.5-0.7
			s0.2-0.6,0.2-0.9s-0.1-0.7-0.2-0.9s-0.3-0.5-0.5-0.8s-0.5-0.4-0.7-0.5s-0.6-0.2-0.9-0.2s-0.6,0.1-0.9,0.2
			c-0.3,0.1-0.5,0.3-0.7,0.5s-0.4,0.5-0.5,0.8S611.8,574,611.8,574.3z"/>
		<path d="M626.2,577.1c0.7,0.2,1.3,0.6,1.7,1.2c0.5,0.6,0.7,1.3,0.7,2.2c0,0.6-0.1,1.1-0.3,1.5s-0.5,0.8-0.9,1.2
			c-0.4,0.3-0.8,0.6-1.3,0.7c-0.5,0.2-1,0.3-1.6,0.3s-1.1-0.1-1.6-0.3c-0.5-0.2-0.9-0.4-1.3-0.7s-0.7-0.7-0.9-1.2
			c-0.2-0.5-0.3-1-0.3-1.5c0-0.4,0.1-0.8,0.2-1.2s0.3-0.7,0.5-1c0.2-0.3,0.5-0.5,0.8-0.7c0.3-0.2,0.6-0.4,1-0.5v0
			c-0.3-0.1-0.5-0.2-0.8-0.4c-0.2-0.2-0.4-0.4-0.6-0.7c-0.2-0.3-0.3-0.5-0.4-0.8c-0.1-0.3-0.1-0.6-0.1-0.9c0-0.5,0.1-1,0.3-1.4
			c0.2-0.4,0.5-0.8,0.8-1.1s0.7-0.5,1.1-0.7c0.4-0.2,0.9-0.2,1.4-0.2c0.5,0,0.9,0.1,1.4,0.2c0.4,0.2,0.8,0.4,1.2,0.7
			s0.6,0.7,0.8,1.1c0.2,0.4,0.3,0.9,0.3,1.4c0,0.3,0,0.6-0.1,0.9c-0.1,0.3-0.2,0.6-0.4,0.8s-0.4,0.5-0.6,0.7
			C626.8,576.9,626.5,577,626.2,577.1L626.2,577.1z M621.8,580.4c0,0.4,0.1,0.7,0.2,1.1c0.1,0.3,0.3,0.6,0.6,0.9s0.5,0.4,0.9,0.6
			c0.3,0.1,0.7,0.2,1.1,0.2s0.8-0.1,1.1-0.2c0.3-0.1,0.6-0.3,0.9-0.6c0.2-0.2,0.4-0.5,0.6-0.9s0.2-0.7,0.2-1.1
			c0-0.4-0.1-0.7-0.2-1.1c-0.1-0.3-0.3-0.6-0.6-0.8c-0.2-0.2-0.5-0.4-0.9-0.6c-0.3-0.1-0.7-0.2-1.1-0.2s-0.8,0.1-1.1,0.2
			c-0.3,0.1-0.6,0.3-0.9,0.6c-0.2,0.2-0.4,0.5-0.6,0.8C621.9,579.7,621.8,580,621.8,580.4z M622.2,574.3c0,0.3,0.1,0.6,0.2,0.9
			s0.3,0.5,0.5,0.7s0.5,0.4,0.7,0.5c0.3,0.1,0.6,0.2,0.9,0.2s0.6-0.1,0.9-0.2c0.3-0.1,0.5-0.3,0.7-0.5s0.4-0.4,0.5-0.7
			s0.2-0.6,0.2-0.9s-0.1-0.7-0.2-0.9s-0.3-0.5-0.5-0.8s-0.5-0.4-0.7-0.5s-0.6-0.2-0.9-0.2s-0.6,0.1-0.9,0.2
			c-0.3,0.1-0.5,0.3-0.7,0.5s-0.4,0.5-0.5,0.8S622.2,574,622.2,574.3z"/>
		<path d="M631.6,586.4h-1l1.2-4.2h1.3L631.6,586.4z"/>
		<path d="M638.3,576.6h0.6c0.4,0,0.8,0,1.2-0.1c0.4-0.1,0.7-0.2,0.9-0.4c0.3-0.2,0.5-0.4,0.6-0.7c0.2-0.3,0.2-0.7,0.2-1.1
			c0-0.4-0.1-0.7-0.2-1c-0.1-0.3-0.3-0.5-0.5-0.8c-0.2-0.2-0.5-0.4-0.8-0.5s-0.6-0.2-1-0.2c-0.5,0-1,0.1-1.4,0.4
			c-0.4,0.3-0.7,0.6-1,1.1l-1.1-0.6c0.4-0.7,0.9-1.2,1.5-1.5c0.6-0.3,1.3-0.5,2.1-0.5c0.5,0,1,0.1,1.4,0.2s0.8,0.4,1.2,0.7
			c0.3,0.3,0.6,0.6,0.8,1.1c0.2,0.4,0.3,0.9,0.3,1.5c0,0.8-0.2,1.4-0.6,1.9s-0.9,0.8-1.6,1v0c0.7,0.2,1.3,0.5,1.8,1.1
			c0.5,0.5,0.7,1.3,0.7,2.1c0,0.6-0.1,1.2-0.3,1.6c-0.2,0.5-0.5,0.9-0.9,1.2c-0.4,0.3-0.8,0.6-1.3,0.8c-0.5,0.2-1,0.3-1.6,0.3
			c-0.9,0-1.8-0.2-2.4-0.7c-0.7-0.5-1.2-1.1-1.6-1.9l1.2-0.5c0.2,0.6,0.6,1.1,1.1,1.4c0.5,0.3,1.1,0.5,1.7,0.5
			c0.4,0,0.7-0.1,1.1-0.2c0.3-0.1,0.6-0.3,0.9-0.5c0.3-0.2,0.5-0.5,0.6-0.9s0.2-0.7,0.2-1.2c0-0.5-0.1-0.9-0.3-1.2
			c-0.2-0.3-0.4-0.6-0.7-0.8c-0.3-0.2-0.7-0.4-1.1-0.4c-0.4-0.1-0.8-0.1-1.2-0.1h-0.6V576.6z"/>
		<path d="M648.5,576.7L648.5,576.7c0.2-0.1,0.5-0.2,0.8-0.3c0.3-0.1,0.7-0.1,1-0.1c0.6,0,1.1,0.1,1.5,0.3c0.5,0.2,0.9,0.5,1.2,0.8
			c0.3,0.3,0.6,0.8,0.8,1.2c0.2,0.5,0.3,1,0.3,1.6c0,0.6-0.1,1.1-0.3,1.6s-0.5,0.9-0.9,1.3c-0.4,0.3-0.8,0.6-1.3,0.8
			c-0.5,0.2-1.1,0.3-1.7,0.3c-0.6,0-1.2-0.1-1.7-0.3c-0.5-0.2-0.9-0.5-1.3-0.8c-0.4-0.3-0.7-0.8-0.9-1.3s-0.3-1-0.3-1.6
			c0-0.7,0.1-1.3,0.3-1.8c0.2-0.6,0.5-1.1,0.8-1.6l3.5-5.6h1.5L648.5,576.7z M647.3,580.2c0,0.4,0.1,0.8,0.2,1.2
			c0.1,0.4,0.3,0.7,0.6,0.9c0.3,0.3,0.6,0.5,0.9,0.6c0.3,0.2,0.7,0.2,1.2,0.2s0.8-0.1,1.2-0.2c0.3-0.1,0.6-0.4,0.9-0.6
			c0.3-0.3,0.4-0.6,0.6-0.9c0.1-0.4,0.2-0.7,0.2-1.2c0-0.4-0.1-0.8-0.2-1.1c-0.1-0.4-0.3-0.7-0.6-0.9s-0.5-0.5-0.9-0.6
			c-0.4-0.1-0.7-0.2-1.2-0.2s-0.8,0.1-1.2,0.2c-0.4,0.1-0.7,0.3-0.9,0.6s-0.4,0.6-0.6,0.9C647.4,579.4,647.3,579.8,647.3,580.2z"/>
		<path d="M662.2,577.1c0.7,0.2,1.3,0.6,1.7,1.2c0.5,0.6,0.7,1.3,0.7,2.2c0,0.6-0.1,1.1-0.3,1.5c-0.2,0.5-0.5,0.8-0.9,1.2
			s-0.8,0.6-1.3,0.7c-0.5,0.2-1,0.3-1.6,0.3c-0.5,0-1.1-0.1-1.6-0.3c-0.5-0.2-0.9-0.4-1.3-0.7s-0.7-0.7-0.9-1.2
			c-0.2-0.5-0.3-1-0.3-1.5c0-0.4,0.1-0.8,0.2-1.2c0.1-0.4,0.3-0.7,0.5-1s0.5-0.5,0.8-0.7s0.6-0.4,1-0.5v0c-0.3-0.1-0.5-0.2-0.8-0.4
			c-0.2-0.2-0.4-0.4-0.6-0.7s-0.3-0.5-0.4-0.8c-0.1-0.3-0.1-0.6-0.1-0.9c0-0.5,0.1-1,0.3-1.4c0.2-0.4,0.5-0.8,0.8-1.1
			s0.7-0.5,1.1-0.7c0.4-0.2,0.9-0.2,1.4-0.2c0.5,0,0.9,0.1,1.4,0.2c0.4,0.2,0.8,0.4,1.2,0.7s0.6,0.7,0.8,1.1
			c0.2,0.4,0.3,0.9,0.3,1.4c0,0.3,0,0.6-0.1,0.9c-0.1,0.3-0.2,0.6-0.4,0.8s-0.4,0.5-0.6,0.7C662.8,576.9,662.5,577,662.2,577.1
			L662.2,577.1z M657.8,580.4c0,0.4,0.1,0.7,0.2,1.1s0.3,0.6,0.6,0.9s0.5,0.4,0.9,0.6c0.3,0.1,0.7,0.2,1.1,0.2
			c0.4,0,0.8-0.1,1.1-0.2c0.3-0.1,0.6-0.3,0.9-0.6s0.4-0.5,0.6-0.9c0.1-0.3,0.2-0.7,0.2-1.1c0-0.4-0.1-0.7-0.2-1.1
			c-0.1-0.3-0.3-0.6-0.6-0.8c-0.2-0.2-0.5-0.4-0.9-0.6s-0.7-0.2-1.1-0.2c-0.4,0-0.8,0.1-1.1,0.2s-0.6,0.3-0.9,0.6
			c-0.2,0.2-0.4,0.5-0.6,0.8C657.9,579.7,657.8,580,657.8,580.4z M658.2,574.3c0,0.3,0.1,0.6,0.2,0.9c0.1,0.3,0.3,0.5,0.5,0.7
			s0.5,0.4,0.7,0.5c0.3,0.1,0.6,0.2,0.9,0.2c0.3,0,0.6-0.1,0.9-0.2c0.3-0.1,0.5-0.3,0.7-0.5s0.4-0.4,0.5-0.7s0.2-0.6,0.2-0.9
			s-0.1-0.7-0.2-0.9s-0.3-0.5-0.5-0.8s-0.5-0.4-0.7-0.5c-0.3-0.1-0.6-0.2-0.9-0.2c-0.3,0-0.6,0.1-0.9,0.2s-0.5,0.3-0.7,0.5
			c-0.2,0.2-0.4,0.5-0.5,0.8C658.3,573.6,658.2,574,658.2,574.3z"/>
		<path d="M667.6,586.4h-1l1.2-4.2h1.3L667.6,586.4z"/>
		<path d="M675.7,570.8c0.8,0,1.5,0.2,2,0.6c0.5,0.4,1,0.9,1.3,1.5s0.6,1.3,0.7,2.2s0.2,1.6,0.2,2.4c0,0.8-0.1,1.6-0.2,2.4
			s-0.4,1.5-0.7,2.1c-0.3,0.6-0.8,1.1-1.3,1.5s-1.2,0.6-2,0.6c-0.8,0-1.5-0.2-2-0.6c-0.5-0.4-1-0.9-1.3-1.5
			c-0.3-0.6-0.6-1.3-0.7-2.1s-0.2-1.6-0.2-2.4c0-0.8,0.1-1.6,0.2-2.4s0.4-1.5,0.7-2.2s0.8-1.1,1.3-1.5
			C674.2,571,674.9,570.8,675.7,570.8z M675.7,571.9c-0.6,0-1,0.2-1.4,0.5c-0.4,0.3-0.7,0.8-0.9,1.3c-0.2,0.5-0.4,1.1-0.5,1.8
			c-0.1,0.7-0.1,1.3-0.1,2c0,0.6,0,1.3,0.1,1.9c0.1,0.7,0.2,1.3,0.5,1.8c0.2,0.5,0.5,1,0.9,1.3c0.4,0.3,0.8,0.5,1.4,0.5
			c0.6,0,1-0.2,1.4-0.5c0.4-0.3,0.7-0.8,0.9-1.3c0.2-0.5,0.4-1.1,0.5-1.8c0.1-0.7,0.1-1.3,0.1-1.9c0-0.6,0-1.3-0.1-2
			c-0.1-0.7-0.2-1.3-0.5-1.8c-0.2-0.5-0.5-1-0.9-1.3C676.7,572.1,676.2,571.9,675.7,571.9z"/>
		<path d="M689.5,572.3h-5.3l-0.1,3.9c0.3-0.1,0.6-0.2,0.9-0.2c0.3,0,0.6-0.1,0.9-0.1c0.6,0,1.1,0.1,1.7,0.3
			c0.5,0.2,0.9,0.5,1.3,0.8c0.4,0.4,0.7,0.8,0.9,1.3s0.3,1,0.3,1.6c0,0.6-0.1,1.2-0.3,1.7c-0.2,0.5-0.5,1-0.9,1.4s-0.8,0.7-1.3,0.9
			c-0.5,0.2-1.1,0.3-1.7,0.3c-0.9,0-1.7-0.2-2.3-0.6c-0.6-0.4-1.1-1-1.5-1.7l1.2-0.5c0.2,0.5,0.6,0.9,1,1.3c0.5,0.3,1,0.5,1.5,0.5
			c0.4,0,0.8-0.1,1.2-0.2c0.4-0.2,0.7-0.4,0.9-0.6c0.3-0.3,0.5-0.6,0.6-1c0.2-0.4,0.2-0.8,0.2-1.2c0-0.5-0.1-0.9-0.2-1.3
			s-0.4-0.7-0.7-1c-0.3-0.3-0.6-0.5-1-0.6c-0.4-0.1-0.8-0.2-1.3-0.2s-0.9,0.1-1.4,0.2c-0.5,0.1-0.9,0.3-1.3,0.5l0.1-6.6h6.5V572.3z"
			/>
		<path d="M698.2,577.1c0.7,0.2,1.3,0.6,1.7,1.2c0.5,0.6,0.7,1.3,0.7,2.2c0,0.6-0.1,1.1-0.3,1.5c-0.2,0.5-0.5,0.8-0.9,1.2
			s-0.8,0.6-1.3,0.7c-0.5,0.2-1,0.3-1.6,0.3c-0.5,0-1.1-0.1-1.6-0.3c-0.5-0.2-0.9-0.4-1.3-0.7s-0.7-0.7-0.9-1.2
			c-0.2-0.5-0.3-1-0.3-1.5c0-0.4,0.1-0.8,0.2-1.2c0.1-0.4,0.3-0.7,0.5-1s0.5-0.5,0.8-0.7s0.6-0.4,1-0.5v0c-0.3-0.1-0.5-0.2-0.8-0.4
			c-0.2-0.2-0.4-0.4-0.6-0.7s-0.3-0.5-0.4-0.8c-0.1-0.3-0.1-0.6-0.1-0.9c0-0.5,0.1-1,0.3-1.4c0.2-0.4,0.5-0.8,0.8-1.1
			s0.7-0.5,1.1-0.7c0.4-0.2,0.9-0.2,1.4-0.2c0.5,0,0.9,0.1,1.4,0.2c0.4,0.2,0.8,0.4,1.2,0.7s0.6,0.7,0.8,1.1
			c0.2,0.4,0.3,0.9,0.3,1.4c0,0.3,0,0.6-0.1,0.9c-0.1,0.3-0.2,0.6-0.4,0.8s-0.4,0.5-0.6,0.7C698.8,576.9,698.5,577,698.2,577.1
			L698.2,577.1z M693.8,580.4c0,0.4,0.1,0.7,0.2,1.1s0.3,0.6,0.6,0.9s0.5,0.4,0.9,0.6c0.3,0.1,0.7,0.2,1.1,0.2
			c0.4,0,0.8-0.1,1.1-0.2c0.3-0.1,0.6-0.3,0.9-0.6s0.4-0.5,0.6-0.9c0.1-0.3,0.2-0.7,0.2-1.1c0-0.4-0.1-0.7-0.2-1.1
			c-0.1-0.3-0.3-0.6-0.6-0.8c-0.2-0.2-0.5-0.4-0.9-0.6s-0.7-0.2-1.1-0.2c-0.4,0-0.8,0.1-1.1,0.2s-0.6,0.3-0.9,0.6
			c-0.2,0.2-0.4,0.5-0.6,0.8C693.8,579.7,693.8,580,693.8,580.4z M694.2,574.3c0,0.3,0.1,0.6,0.2,0.9c0.1,0.3,0.3,0.5,0.5,0.7
			s0.5,0.4,0.7,0.5c0.3,0.1,0.6,0.2,0.9,0.2c0.3,0,0.6-0.1,0.9-0.2c0.3-0.1,0.5-0.3,0.7-0.5s0.4-0.4,0.5-0.7s0.2-0.6,0.2-0.9
			s-0.1-0.7-0.2-0.9s-0.3-0.5-0.5-0.8s-0.5-0.4-0.7-0.5c-0.3-0.1-0.6-0.2-0.9-0.2c-0.3,0-0.6,0.1-0.9,0.2s-0.5,0.3-0.7,0.5
			c-0.2,0.2-0.4,0.5-0.5,0.8C694.3,573.6,694.2,574,694.2,574.3z"/>
	</g>
</g>
<g>
	<defs>
		<rect id="SVGID_635_" x="93.8" y="607.9" width="256.3" height="60"/>
	</defs>
	<clipPath id="SVGID_16_">
		<use xlink:href="#SVGID_635_"  style="overflow:visible;"/>
	</clipPath>
	<g style="clip-path:url(#SVGID_16_);">
		<path d="M105.8,642.2L105.8,642.2l4.3-10.5h2v12.7h-1.3v-11.1h0l-4.6,11.1h-0.7l-4.6-11.1h0v11.1h-1.3v-12.7h2L105.8,642.2z"/>
		<path d="M116.8,643.2h6.8v1.2h-8.1v-12.7h7.9v1.2h-6.6v4.4h6.2v1.2h-6.2V643.2z"/>
		<path d="M127.4,644.3h-1.3v-12.7h3.7c0.6,0,1.2,0.1,1.7,0.2c0.5,0.1,1,0.3,1.4,0.6c0.4,0.3,0.7,0.6,0.9,1.1c0.2,0.4,0.3,1,0.3,1.6
			c0,0.5-0.1,0.9-0.3,1.3c-0.2,0.4-0.4,0.7-0.7,1c-0.3,0.3-0.6,0.5-1,0.7c-0.4,0.2-0.8,0.3-1.3,0.3l3.7,6.1h-1.6l-3.5-6h-2.2V644.3z
			 M127.4,637.3h2.2c1,0,1.8-0.2,2.4-0.6c0.6-0.4,0.8-0.9,0.8-1.7c0-0.4-0.1-0.8-0.2-1.1c-0.2-0.3-0.4-0.5-0.6-0.7
			c-0.3-0.2-0.6-0.3-1-0.4c-0.4-0.1-0.8-0.1-1.3-0.1h-2.3V637.3z"/>
		<path d="M147.6,642.3c-0.2,0.3-0.5,0.6-0.8,0.9c-0.3,0.3-0.7,0.5-1.1,0.8c-0.4,0.2-0.8,0.4-1.3,0.5s-1,0.2-1.6,0.2
			c-1,0-1.8-0.2-2.7-0.5c-0.8-0.3-1.5-0.8-2.1-1.4s-1-1.3-1.4-2.1c-0.3-0.8-0.5-1.7-0.5-2.7s0.2-1.9,0.5-2.7
			c0.3-0.8,0.8-1.5,1.4-2.1s1.3-1.1,2.1-1.4c0.8-0.3,1.7-0.5,2.6-0.5c0.5,0,0.9,0,1.4,0.1s0.9,0.2,1.3,0.4c0.4,0.2,0.8,0.4,1.1,0.6
			c0.3,0.2,0.6,0.5,0.8,0.8l-1.1,0.8c-0.1-0.2-0.3-0.4-0.5-0.6s-0.5-0.4-0.8-0.5c-0.3-0.2-0.6-0.3-1-0.4c-0.4-0.1-0.7-0.1-1.1-0.1
			c-0.8,0-1.6,0.1-2.2,0.4c-0.7,0.3-1.2,0.7-1.7,1.2c-0.5,0.5-0.8,1.1-1,1.8s-0.4,1.4-0.4,2.1c0,0.7,0.1,1.4,0.4,2.1
			s0.6,1.3,1.1,1.8c0.5,0.5,1,0.9,1.7,1.2s1.4,0.4,2.2,0.4c0.7,0,1.4-0.1,2.1-0.5c0.7-0.3,1.2-0.8,1.7-1.4L147.6,642.3z"/>
		<path d="M149.9,631.6h1.3v5.5h6.9v-5.5h1.3v12.7h-1.3v-6h-6.9v6h-1.3V631.6z"/>
		<path d="M162.7,644.3h-1.4l5.5-12.7h1.3l5.5,12.7h-1.4l-1.4-3.3h-6.6L162.7,644.3z M164.6,639.8h5.6l-2.8-6.8L164.6,639.8z"/>
		<path d="M184.4,642.5L184.4,642.5l0-10.9h1.3v12.7h-1.6l-7.4-11h0v11h-1.3v-12.7h1.6L184.4,642.5z"/>
		<path d="M189.1,631.6h4.2c0.8,0,1.6,0.1,2.4,0.4c0.8,0.3,1.5,0.7,2.2,1.2c0.6,0.5,1.2,1.2,1.6,2c0.4,0.8,0.6,1.7,0.6,2.8
			c0,1.1-0.2,2-0.6,2.8c-0.4,0.8-0.9,1.5-1.6,2c-0.6,0.5-1.4,0.9-2.2,1.2c-0.8,0.3-1.6,0.4-2.4,0.4h-4.2V631.6z M190.4,643.2h2.6
			c1,0,1.8-0.1,2.5-0.4s1.3-0.7,1.8-1.2c0.5-0.5,0.8-1,1.1-1.7c0.2-0.6,0.4-1.3,0.4-1.9s-0.1-1.3-0.4-1.9c-0.2-0.6-0.6-1.2-1.1-1.7
			c-0.5-0.5-1.1-0.9-1.8-1.2s-1.6-0.5-2.5-0.5h-2.6V643.2z"/>
		<path d="M204.1,644.3h-1.3v-12.7h1.3V644.3z"/>
		<path d="M213.6,633.7c-0.3-0.4-0.6-0.7-1.1-0.9c-0.4-0.2-1-0.4-1.6-0.4c-0.3,0-0.6,0-1,0.1c-0.3,0.1-0.6,0.2-0.9,0.4
			c-0.3,0.2-0.5,0.4-0.6,0.7c-0.2,0.3-0.2,0.7-0.2,1.1c0,0.4,0.1,0.7,0.2,1c0.2,0.3,0.4,0.5,0.6,0.7c0.3,0.2,0.6,0.3,0.9,0.5
			c0.3,0.1,0.7,0.2,1,0.4c0.4,0.1,0.9,0.3,1.3,0.5c0.4,0.2,0.9,0.4,1.2,0.7c0.4,0.3,0.7,0.6,0.9,1s0.3,0.9,0.3,1.6
			c0,0.6-0.1,1.2-0.4,1.6c-0.2,0.5-0.6,0.8-0.9,1.1s-0.8,0.5-1.3,0.7c-0.5,0.1-1,0.2-1.5,0.2c-0.4,0-0.8,0-1.2-0.1
			c-0.4-0.1-0.8-0.2-1.1-0.4c-0.3-0.2-0.7-0.4-1-0.6c-0.3-0.2-0.6-0.5-0.8-0.8l1.1-0.8c0.3,0.5,0.7,0.8,1.2,1.1s1.1,0.5,1.8,0.5
			c0.3,0,0.7-0.1,1-0.2c0.3-0.1,0.6-0.3,0.9-0.5c0.3-0.2,0.5-0.5,0.7-0.8c0.2-0.3,0.3-0.7,0.3-1.1c0-0.4-0.1-0.8-0.3-1.1
			s-0.4-0.5-0.7-0.7c-0.3-0.2-0.6-0.4-1-0.5s-0.8-0.3-1.2-0.4c-0.4-0.1-0.8-0.3-1.2-0.5c-0.4-0.2-0.8-0.4-1.1-0.7
			c-0.3-0.3-0.6-0.6-0.8-1c-0.2-0.4-0.3-0.9-0.3-1.5c0-0.6,0.1-1.1,0.4-1.6c0.2-0.4,0.6-0.8,1-1.1c0.4-0.3,0.8-0.5,1.3-0.6
			s1-0.2,1.4-0.2c0.9,0,1.6,0.2,2.2,0.5c0.6,0.3,1.1,0.7,1.4,1.1L213.6,633.7z"/>
		<path d="M218.9,643.2h6.8v1.2h-8.1v-12.7h7.9v1.2h-6.6v4.4h6.2v1.2h-6.2V643.2z"/>
	</g>
</g>
<g>
	<defs>
		<rect id="SVGID_637_" x="350.6" y="607.9" width="355.2" height="60"/>
	</defs>
	<clipPath id="SVGID_18_">
		<use xlink:href="#SVGID_637_"  style="overflow:visible;"/>
	</clipPath>
	<g class="st9">
		<path d="M602.1,637.2L602.1,637.2c0.2-0.1,0.5-0.2,0.8-0.3c0.3-0.1,0.7-0.1,1-0.1c0.6,0,1.1,0.1,1.5,0.3c0.5,0.2,0.9,0.5,1.2,0.8
			c0.3,0.3,0.6,0.8,0.8,1.2c0.2,0.5,0.3,1,0.3,1.6c0,0.6-0.1,1.1-0.3,1.6s-0.5,0.9-0.9,1.3c-0.4,0.3-0.8,0.6-1.3,0.8
			c-0.5,0.2-1.1,0.3-1.7,0.3c-0.6,0-1.2-0.1-1.7-0.3c-0.5-0.2-0.9-0.5-1.3-0.8c-0.4-0.3-0.7-0.8-0.9-1.3s-0.3-1-0.3-1.6
			c0-0.7,0.1-1.3,0.3-1.8c0.2-0.6,0.5-1.1,0.8-1.6l3.5-5.6h1.5L602.1,637.2z M600.9,640.7c0,0.4,0.1,0.8,0.2,1.2
			c0.1,0.4,0.3,0.7,0.6,0.9c0.3,0.3,0.6,0.5,0.9,0.6c0.3,0.2,0.7,0.2,1.2,0.2s0.8-0.1,1.2-0.2c0.3-0.1,0.6-0.4,0.9-0.6
			c0.3-0.3,0.4-0.6,0.6-0.9c0.1-0.4,0.2-0.7,0.2-1.2c0-0.4-0.1-0.8-0.2-1.1c-0.1-0.4-0.3-0.7-0.6-0.9s-0.5-0.5-0.9-0.6
			c-0.4-0.1-0.7-0.2-1.2-0.2s-0.8,0.1-1.2,0.2c-0.4,0.1-0.7,0.3-0.9,0.6s-0.4,0.6-0.6,0.9C600.9,639.9,600.9,640.3,600.9,640.7z"/>
		<path d="M615.8,637.6c0.7,0.2,1.3,0.6,1.7,1.2c0.5,0.6,0.7,1.3,0.7,2.2c0,0.6-0.1,1.1-0.3,1.5c-0.2,0.5-0.5,0.8-0.9,1.2
			s-0.8,0.6-1.3,0.7c-0.5,0.2-1,0.3-1.6,0.3c-0.5,0-1.1-0.1-1.6-0.3c-0.5-0.2-0.9-0.4-1.3-0.7s-0.7-0.7-0.9-1.2
			c-0.2-0.5-0.3-1-0.3-1.5c0-0.4,0.1-0.8,0.2-1.2c0.1-0.4,0.3-0.7,0.5-1s0.5-0.5,0.8-0.7s0.6-0.4,1-0.5v0c-0.3-0.1-0.5-0.2-0.8-0.4
			c-0.2-0.2-0.4-0.4-0.6-0.7s-0.3-0.5-0.4-0.8c-0.1-0.3-0.1-0.6-0.1-0.9c0-0.5,0.1-1,0.3-1.4c0.2-0.4,0.5-0.8,0.8-1.1
			s0.7-0.5,1.1-0.7c0.4-0.2,0.9-0.2,1.4-0.2c0.5,0,0.9,0.1,1.4,0.2c0.4,0.2,0.8,0.4,1.2,0.7s0.6,0.7,0.8,1.1
			c0.2,0.4,0.3,0.9,0.3,1.4c0,0.3,0,0.6-0.1,0.9c-0.1,0.3-0.2,0.6-0.4,0.8s-0.4,0.5-0.6,0.7C616.4,637.3,616.1,637.5,615.8,637.6
			L615.8,637.6z M611.3,640.9c0,0.4,0.1,0.7,0.2,1.1s0.3,0.6,0.6,0.9s0.5,0.4,0.9,0.6c0.3,0.1,0.7,0.2,1.1,0.2
			c0.4,0,0.8-0.1,1.1-0.2c0.3-0.1,0.6-0.3,0.9-0.6s0.4-0.5,0.6-0.9c0.1-0.3,0.2-0.7,0.2-1.1c0-0.4-0.1-0.7-0.2-1.1
			c-0.1-0.3-0.3-0.6-0.6-0.8c-0.2-0.2-0.5-0.4-0.9-0.6s-0.7-0.2-1.1-0.2c-0.4,0-0.8,0.1-1.1,0.2s-0.6,0.3-0.9,0.6
			c-0.2,0.2-0.4,0.5-0.6,0.8C611.4,640.1,611.3,640.5,611.3,640.9z M611.8,634.8c0,0.3,0.1,0.6,0.2,0.9c0.1,0.3,0.3,0.5,0.5,0.7
			s0.5,0.4,0.7,0.5c0.3,0.1,0.6,0.2,0.9,0.2c0.3,0,0.6-0.1,0.9-0.2c0.3-0.1,0.5-0.3,0.7-0.5s0.4-0.4,0.5-0.7s0.2-0.6,0.2-0.9
			s-0.1-0.7-0.2-0.9s-0.3-0.5-0.5-0.8s-0.5-0.4-0.7-0.5c-0.3-0.1-0.6-0.2-0.9-0.2c-0.3,0-0.6,0.1-0.9,0.2s-0.5,0.3-0.7,0.5
			c-0.2,0.2-0.4,0.5-0.5,0.8C611.9,634.1,611.8,634.4,611.8,634.8z"/>
		<path d="M623.2,637.1h0.6c0.4,0,0.8,0,1.2-0.1c0.4-0.1,0.7-0.2,0.9-0.4c0.3-0.2,0.5-0.4,0.6-0.7c0.2-0.3,0.2-0.7,0.2-1.1
			c0-0.4-0.1-0.7-0.2-1c-0.1-0.3-0.3-0.5-0.5-0.8c-0.2-0.2-0.5-0.4-0.8-0.5s-0.6-0.2-1-0.2c-0.5,0-1,0.1-1.4,0.4
			c-0.4,0.3-0.7,0.6-1,1.1l-1.1-0.6c0.4-0.7,0.9-1.2,1.5-1.5c0.6-0.3,1.3-0.5,2.1-0.5c0.5,0,1,0.1,1.4,0.2s0.8,0.4,1.2,0.7
			c0.3,0.3,0.6,0.6,0.8,1.1c0.2,0.4,0.3,0.9,0.3,1.5c0,0.8-0.2,1.4-0.6,1.9s-0.9,0.8-1.6,1v0c0.7,0.2,1.3,0.5,1.8,1.1
			c0.5,0.5,0.7,1.3,0.7,2.1c0,0.6-0.1,1.2-0.3,1.6c-0.2,0.5-0.5,0.9-0.9,1.2c-0.4,0.3-0.8,0.6-1.3,0.8c-0.5,0.2-1,0.3-1.6,0.3
			c-0.9,0-1.8-0.2-2.4-0.7c-0.7-0.5-1.2-1.1-1.6-1.9l1.2-0.5c0.2,0.6,0.6,1.1,1.1,1.4c0.5,0.3,1.1,0.5,1.7,0.5
			c0.4,0,0.7-0.1,1.1-0.2c0.3-0.1,0.6-0.3,0.9-0.5c0.3-0.2,0.5-0.5,0.6-0.9s0.2-0.7,0.2-1.2c0-0.5-0.1-0.9-0.3-1.2
			c-0.2-0.3-0.4-0.6-0.7-0.8c-0.3-0.2-0.7-0.4-1.1-0.4c-0.4-0.1-0.8-0.1-1.2-0.1h-0.6V637.1z"/>
		<path d="M631.6,646.9h-1l1.2-4.2h1.3L631.6,646.9z"/>
		<path d="M641.4,637.6c0.7,0.2,1.3,0.6,1.7,1.2c0.5,0.6,0.7,1.3,0.7,2.2c0,0.6-0.1,1.1-0.3,1.5s-0.5,0.8-0.9,1.2
			c-0.4,0.3-0.8,0.6-1.3,0.7c-0.5,0.2-1,0.3-1.6,0.3s-1.1-0.1-1.6-0.3c-0.5-0.2-0.9-0.4-1.3-0.7s-0.7-0.7-0.9-1.2
			c-0.2-0.5-0.3-1-0.3-1.5c0-0.4,0.1-0.8,0.2-1.2s0.3-0.7,0.5-1c0.2-0.3,0.5-0.5,0.8-0.7c0.3-0.2,0.6-0.4,1-0.5v0
			c-0.3-0.1-0.5-0.2-0.8-0.4c-0.2-0.2-0.4-0.4-0.6-0.7c-0.2-0.3-0.3-0.5-0.4-0.8c-0.1-0.3-0.1-0.6-0.1-0.9c0-0.5,0.1-1,0.3-1.4
			c0.2-0.4,0.5-0.8,0.8-1.1s0.7-0.5,1.1-0.7c0.4-0.2,0.9-0.2,1.4-0.2c0.5,0,0.9,0.1,1.4,0.2c0.4,0.2,0.8,0.4,1.2,0.7
			s0.6,0.7,0.8,1.1c0.2,0.4,0.3,0.9,0.3,1.4c0,0.3,0,0.6-0.1,0.9c-0.1,0.3-0.2,0.6-0.4,0.8s-0.4,0.5-0.6,0.7
			C641.9,637.3,641.7,637.5,641.4,637.6L641.4,637.6z M636.9,640.9c0,0.4,0.1,0.7,0.2,1.1c0.1,0.3,0.3,0.6,0.6,0.9s0.5,0.4,0.9,0.6
			c0.3,0.1,0.7,0.2,1.1,0.2s0.8-0.1,1.1-0.2c0.3-0.1,0.6-0.3,0.9-0.6c0.2-0.2,0.4-0.5,0.6-0.9s0.2-0.7,0.2-1.1
			c0-0.4-0.1-0.7-0.2-1.1c-0.1-0.3-0.3-0.6-0.6-0.8c-0.2-0.2-0.5-0.4-0.9-0.6c-0.3-0.1-0.7-0.2-1.1-0.2s-0.8,0.1-1.1,0.2
			c-0.3,0.1-0.6,0.3-0.9,0.6c-0.2,0.2-0.4,0.5-0.6,0.8C637,640.1,636.9,640.5,636.9,640.9z M637.4,634.8c0,0.3,0.1,0.6,0.2,0.9
			s0.3,0.5,0.5,0.7s0.5,0.4,0.7,0.5c0.3,0.1,0.6,0.2,0.9,0.2s0.6-0.1,0.9-0.2c0.3-0.1,0.5-0.3,0.7-0.5s0.4-0.4,0.5-0.7
			s0.2-0.6,0.2-0.9s-0.1-0.7-0.2-0.9s-0.3-0.5-0.5-0.8s-0.5-0.4-0.7-0.5s-0.6-0.2-0.9-0.2s-0.6,0.1-0.9,0.2
			c-0.3,0.1-0.5,0.3-0.7,0.5s-0.4,0.5-0.5,0.8S637.4,634.4,637.4,634.8z"/>
		<path d="M650.1,631.3c0.8,0,1.5,0.2,2,0.6c0.5,0.4,1,0.9,1.3,1.5s0.6,1.3,0.7,2.2s0.2,1.6,0.2,2.4c0,0.8-0.1,1.6-0.2,2.4
			s-0.4,1.5-0.7,2.1c-0.3,0.6-0.8,1.1-1.3,1.5c-0.5,0.4-1.2,0.6-2,0.6c-0.8,0-1.5-0.2-2-0.6c-0.5-0.4-1-0.9-1.3-1.5
			c-0.3-0.6-0.6-1.3-0.7-2.1c-0.1-0.8-0.2-1.6-0.2-2.4c0-0.8,0.1-1.6,0.2-2.4c0.1-0.8,0.4-1.5,0.7-2.2c0.3-0.6,0.8-1.1,1.3-1.5
			C648.7,631.5,649.3,631.3,650.1,631.3z M650.1,632.4c-0.6,0-1,0.2-1.4,0.5c-0.4,0.3-0.7,0.8-0.9,1.3s-0.4,1.1-0.5,1.8
			c-0.1,0.7-0.1,1.3-0.1,2c0,0.6,0,1.3,0.1,1.9c0.1,0.7,0.2,1.3,0.5,1.8c0.2,0.5,0.5,1,0.9,1.3c0.4,0.3,0.8,0.5,1.4,0.5
			c0.6,0,1-0.2,1.4-0.5c0.4-0.3,0.7-0.8,0.9-1.3c0.2-0.5,0.4-1.1,0.5-1.8c0.1-0.7,0.1-1.3,0.1-1.9c0-0.6,0-1.3-0.1-2
			c-0.1-0.7-0.2-1.3-0.5-1.8s-0.5-1-0.9-1.3C651.1,632.6,650.7,632.4,650.1,632.4z"/>
		<path d="M664.3,632.8l-5.1,11.6h-1.5l5.3-11.6h-6.2v-1.2h7.6V632.8z"/>
		<path d="M667.6,646.9h-1l1.2-4.2h1.3L667.6,646.9z"/>
		<path d="M677.3,638.8L677.3,638.8c-0.2,0.1-0.5,0.2-0.8,0.3c-0.3,0.1-0.7,0.1-1,0.1c-0.6,0-1.1-0.1-1.5-0.3
			c-0.5-0.2-0.9-0.5-1.2-0.8c-0.3-0.3-0.6-0.8-0.8-1.2s-0.3-1-0.3-1.6c0-0.6,0.1-1.1,0.3-1.6s0.5-0.9,0.9-1.3
			c0.4-0.3,0.8-0.6,1.3-0.8c0.5-0.2,1.1-0.3,1.7-0.3c0.6,0,1.2,0.1,1.7,0.3c0.5,0.2,0.9,0.5,1.3,0.8c0.4,0.3,0.7,0.8,0.9,1.3
			s0.3,1,0.3,1.6c0,0.7-0.1,1.3-0.3,1.8c-0.2,0.6-0.5,1.1-0.8,1.6l-3.5,5.6h-1.5L677.3,638.8z M678.6,635.3c0-0.4-0.1-0.8-0.2-1.2
			c-0.1-0.4-0.3-0.7-0.6-0.9s-0.6-0.5-0.9-0.6c-0.3-0.1-0.7-0.2-1.2-0.2s-0.8,0.1-1.2,0.2c-0.3,0.2-0.6,0.4-0.9,0.6
			s-0.4,0.6-0.6,0.9s-0.2,0.7-0.2,1.2s0.1,0.8,0.2,1.1c0.1,0.4,0.3,0.7,0.6,0.9c0.2,0.3,0.5,0.5,0.9,0.6c0.4,0.1,0.7,0.2,1.2,0.2
			c0.4,0,0.8-0.1,1.2-0.2c0.4-0.1,0.7-0.3,0.9-0.6c0.2-0.3,0.4-0.6,0.6-0.9C678.5,636.1,678.6,635.7,678.6,635.3z"/>
		<path d="M688.8,640.1h1.9v1.2h-1.9v3.1h-1.3v-3.1h-5.8V640l5.4-8.4h1.7V640.1z M687.5,633.1L687.5,633.1l-4.5,7.1h4.5V633.1z"/>
		<path d="M699.2,640.1h1.9v1.2h-1.9v3.1h-1.3v-3.1h-5.8V640l5.4-8.4h1.7V640.1z M697.9,633.1L697.9,633.1l-4.5,7.1h4.5V633.1z"/>
	</g>
</g>
<g>
	<defs>
		<rect id="SVGID_639_" x="93.8" y="668.4" width="256.3" height="59.8"/>
	</defs>
	<clipPath id="SVGID_20_">
		<use xlink:href="#SVGID_639_"  style="overflow:visible;"/>
	</clipPath>
	<g class="st10">
		<path d="M104.6,694.7v10.1h-3.1v-10.1h-3.6v-2.6h10.3v2.6H104.6z"/>
		<path d="M122.4,698.4c0,1-0.2,1.9-0.5,2.8c-0.3,0.8-0.8,1.5-1.4,2.1c-0.6,0.6-1.4,1.1-2.2,1.4c-0.9,0.3-1.8,0.5-2.8,0.5
			s-1.9-0.2-2.8-0.5c-0.8-0.3-1.6-0.8-2.2-1.4c-0.6-0.6-1.1-1.3-1.4-2.1c-0.3-0.8-0.5-1.8-0.5-2.8c0-1,0.2-1.9,0.5-2.8
			c0.3-0.8,0.8-1.5,1.4-2.1s1.4-1,2.2-1.3c0.8-0.3,1.8-0.5,2.8-0.5s1.9,0.2,2.8,0.5c0.9,0.3,1.6,0.8,2.2,1.3s1.1,1.3,1.4,2.1
			C122.2,696.5,122.4,697.4,122.4,698.4z M119.1,698.4c0-0.6-0.1-1.1-0.3-1.5c-0.2-0.5-0.4-0.9-0.7-1.2c-0.3-0.3-0.7-0.6-1.2-0.8
			c-0.5-0.2-0.9-0.3-1.5-0.3s-1,0.1-1.5,0.3c-0.4,0.2-0.8,0.5-1.2,0.8c-0.3,0.3-0.6,0.8-0.7,1.2c-0.2,0.5-0.3,1-0.3,1.5
			c0,0.6,0.1,1.1,0.3,1.6c0.2,0.5,0.4,0.9,0.7,1.3c0.3,0.3,0.7,0.6,1.1,0.8c0.4,0.2,0.9,0.3,1.5,0.3s1-0.1,1.5-0.3
			c0.4-0.2,0.8-0.5,1.2-0.8c0.3-0.3,0.6-0.8,0.8-1.3C119,699.5,119.1,699,119.1,698.4z"/>
		<path d="M129.3,694.7v10.1h-3.1v-10.1h-3.6v-2.6h10.3v2.6H129.3z"/>
		<path d="M141.9,704.8l-1-2.5H136l-0.9,2.5h-3.3l5.3-12.7h3l5.3,12.7H141.9z M138.5,695.5l-1.6,4.4h3.2L138.5,695.5z"/>
		<path d="M146.4,704.8v-12.7h3.1v10.1h4.9v2.7H146.4z"/>
	</g>
</g>
<g>
	<defs>
		<rect id="SVGID_641_" x="350.6" y="668.4" width="355.2" height="59.8"/>
	</defs>
	<clipPath id="SVGID_22_">
		<use xlink:href="#SVGID_641_"  style="overflow:visible;"/>
	</clipPath>
	<g class="st11">
		<path d="M580.1,700.5c0,0.7-0.1,1.4-0.4,1.9c-0.3,0.6-0.6,1.1-1.1,1.5c-0.5,0.4-1,0.7-1.6,0.9c-0.6,0.2-1.3,0.3-1.9,0.3
			c-0.7,0-1.3-0.1-2-0.3c-0.6-0.2-1.1-0.5-1.6-0.9c-0.5-0.4-0.8-0.9-1.1-1.4c-0.3-0.6-0.4-1.2-0.4-1.9c0-0.8,0.1-1.4,0.4-2.1
			c0.3-0.6,0.6-1.2,1-1.9l3.1-4.6h3.7l-3.1,4.4l-0.1,0.1c0.1,0,0.3-0.1,0.4-0.1c0.2,0,0.3,0,0.5,0c0.6,0,1.1,0.1,1.6,0.3
			c0.5,0.2,1,0.5,1.3,0.8s0.7,0.8,0.9,1.3C580,699.3,580.1,699.9,580.1,700.5z M577.1,700.6c0-0.6-0.2-1.1-0.5-1.4
			c-0.4-0.4-0.8-0.6-1.4-0.6c-0.6,0-1.1,0.2-1.5,0.6c-0.4,0.4-0.6,0.9-0.6,1.5c0,0.6,0.2,1,0.5,1.4c0.4,0.4,0.9,0.6,1.5,0.6
			c0.6,0,1.1-0.2,1.5-0.6C576.9,701.7,577.1,701.2,577.1,700.6z"/>
		<path d="M583.7,707.1h-2.4l1.4-5.1h2.8L583.7,707.1z"/>
		<path d="M596.8,701.1c0,0.7-0.1,1.3-0.4,1.8c-0.3,0.5-0.7,0.9-1.1,1.3c-0.5,0.3-1,0.6-1.5,0.7c-0.6,0.2-1.1,0.2-1.7,0.2
			c-0.6,0-1.1-0.1-1.7-0.2c-0.5-0.1-1-0.3-1.5-0.6s-0.8-0.6-1.2-1s-0.6-0.9-0.8-1.5l2.8-0.7c0.1,0.4,0.4,0.8,0.7,1.1
			c0.4,0.3,0.8,0.5,1.4,0.5c0.2,0,0.4,0,0.7-0.1c0.2-0.1,0.4-0.2,0.6-0.3s0.3-0.3,0.4-0.5c0.1-0.2,0.2-0.5,0.2-0.8
			c0-0.3-0.1-0.6-0.2-0.8c-0.1-0.2-0.3-0.4-0.6-0.5s-0.5-0.2-0.8-0.3c-0.3-0.1-0.6-0.1-0.9-0.1h-0.8v-2.2h0.9c0.3,0,0.6,0,0.8-0.1
			s0.5-0.1,0.7-0.2c0.2-0.1,0.4-0.3,0.5-0.5c0.1-0.2,0.2-0.4,0.2-0.8c0-0.5-0.2-0.8-0.5-1.1s-0.7-0.4-1.1-0.4
			c-0.4,0-0.8,0.1-1.1,0.4c-0.3,0.3-0.5,0.6-0.6,1l-2.8-0.6c0.2-0.5,0.4-1,0.7-1.4s0.7-0.7,1.1-1c0.4-0.3,0.9-0.5,1.4-0.6
			c0.5-0.1,1-0.2,1.5-0.2c0.6,0,1.1,0.1,1.6,0.2c0.5,0.1,1,0.4,1.4,0.7c0.4,0.3,0.8,0.7,1,1.1c0.3,0.5,0.4,1,0.4,1.6
			c0,0.7-0.2,1.3-0.6,1.8c-0.4,0.5-0.9,0.8-1.5,1v0.1c0.4,0.1,0.7,0.2,1,0.4c0.3,0.2,0.6,0.4,0.8,0.7s0.4,0.5,0.5,0.9
			S596.8,700.8,596.8,701.1z"/>
		<path d="M608.8,700.5c0,0.7-0.1,1.4-0.4,1.9c-0.3,0.6-0.6,1.1-1.1,1.5c-0.5,0.4-1,0.7-1.6,0.9c-0.6,0.2-1.3,0.3-1.9,0.3
			c-0.7,0-1.3-0.1-1.9-0.3c-0.6-0.2-1.1-0.5-1.6-0.9c-0.5-0.4-0.8-0.9-1.1-1.4c-0.3-0.6-0.4-1.2-0.4-1.9c0-0.8,0.1-1.4,0.4-2.1
			c0.3-0.6,0.6-1.2,1-1.9l3.1-4.6h3.7l-3.1,4.4l-0.1,0.1c0.1,0,0.3-0.1,0.4-0.1c0.2,0,0.3,0,0.5,0c0.6,0,1.1,0.1,1.6,0.3
			c0.5,0.2,1,0.5,1.3,0.8c0.4,0.4,0.7,0.8,0.9,1.3C608.7,699.3,608.8,699.9,608.8,700.5z M605.8,700.6c0-0.6-0.2-1.1-0.5-1.4
			c-0.4-0.4-0.8-0.6-1.4-0.6s-1.1,0.2-1.5,0.6c-0.4,0.4-0.6,0.9-0.6,1.5c0,0.6,0.2,1,0.5,1.4c0.4,0.4,0.9,0.6,1.5,0.6
			c0.6,0,1.1-0.2,1.5-0.6C605.6,701.7,605.8,701.2,605.8,700.6z"/>
		<path d="M618.9,702.3v2.5H616v-2.5h-6v-2.5l5.2-7.7h3.6v7.8h1.8v2.4H618.9z M616.1,695.2L616.1,695.2l-3.1,4.7h3.1V695.2z"/>
		<path d="M624,707.1h-2.4l1.4-5.1h2.8L624,707.1z"/>
		<path d="M637.1,700.6c0,0.8-0.1,1.5-0.4,2c-0.3,0.6-0.6,1-1.1,1.4c-0.5,0.4-1,0.7-1.6,0.8c-0.6,0.2-1.2,0.3-1.8,0.3
			c-0.6,0-1.1-0.1-1.6-0.2c-0.5-0.2-1-0.4-1.4-0.6c-0.4-0.3-0.8-0.6-1.1-1c-0.3-0.4-0.5-0.9-0.7-1.4l2.8-0.8
			c0.1,0.4,0.4,0.8,0.7,1.1c0.4,0.3,0.8,0.4,1.3,0.4c0.5,0,1-0.2,1.3-0.5c0.4-0.3,0.6-0.8,0.6-1.4c0-0.4-0.1-0.7-0.2-0.9
			c-0.2-0.3-0.4-0.5-0.6-0.6c-0.2-0.1-0.5-0.3-0.8-0.3c-0.3-0.1-0.6-0.1-0.9-0.1c-0.5,0-1,0.1-1.6,0.2c-0.6,0.1-1.1,0.2-1.6,0.4
			l0.3-7.3h7.8v2.6h-5.1l-0.1,2c0.2,0,0.4-0.1,0.6-0.1c0.2,0,0.4,0,0.6,0c0.6,0,1.2,0.1,1.8,0.3s1.1,0.4,1.5,0.8s0.7,0.8,1,1.3
			C637,699.3,637.1,699.9,637.1,700.6z"/>
		<path d="M648.7,700.6c0,0.8-0.1,1.5-0.4,2c-0.3,0.6-0.6,1-1.1,1.4c-0.5,0.4-1,0.7-1.6,0.8c-0.6,0.2-1.2,0.3-1.8,0.3
			c-0.6,0-1.1-0.1-1.6-0.2c-0.5-0.2-1-0.4-1.4-0.6c-0.4-0.3-0.8-0.6-1.1-1c-0.3-0.4-0.5-0.9-0.7-1.4l2.8-0.8
			c0.1,0.4,0.4,0.8,0.7,1.1c0.4,0.3,0.8,0.4,1.3,0.4c0.5,0,1-0.2,1.3-0.5c0.4-0.3,0.6-0.8,0.6-1.4c0-0.4-0.1-0.7-0.2-0.9
			s-0.4-0.5-0.6-0.6c-0.2-0.1-0.5-0.3-0.8-0.3c-0.3-0.1-0.6-0.1-0.9-0.1c-0.5,0-1,0.1-1.6,0.2c-0.6,0.1-1.1,0.2-1.6,0.4l0.3-7.3h7.8
			v2.6H643l-0.1,2c0.2,0,0.4-0.1,0.6-0.1c0.2,0,0.4,0,0.6,0c0.6,0,1.2,0.1,1.8,0.3s1.1,0.4,1.5,0.8c0.4,0.3,0.7,0.8,1,1.3
			C648.6,699.3,648.7,699.9,648.7,700.6z"/>
		<path d="M660.7,696.3c0,0.8-0.1,1.4-0.4,2.1s-0.6,1.2-1,1.9l-3.1,4.6h-3.7l3.2-4.4l0-0.1c-0.1,0-0.3,0.1-0.4,0.1s-0.3,0-0.5,0
			c-0.6,0-1.1-0.1-1.6-0.3c-0.5-0.2-0.9-0.5-1.3-0.8c-0.4-0.4-0.7-0.8-0.9-1.3c-0.2-0.5-0.3-1.1-0.3-1.7c0-0.7,0.1-1.4,0.4-1.9
			s0.6-1.1,1.1-1.5c0.5-0.4,1-0.7,1.6-0.9c0.6-0.2,1.3-0.3,1.9-0.3c0.7,0,1.3,0.1,2,0.3c0.6,0.2,1.1,0.5,1.6,0.9
			c0.4,0.4,0.8,0.9,1.1,1.4C660.6,695,660.7,695.6,660.7,696.3z M657.7,696.3c0-0.6-0.2-1-0.5-1.4s-0.8-0.6-1.5-0.6
			c-0.6,0-1.1,0.2-1.5,0.6c-0.4,0.4-0.6,0.9-0.6,1.5c0,0.6,0.2,1.1,0.5,1.4c0.4,0.4,0.8,0.6,1.4,0.6c0.6,0,1.1-0.2,1.5-0.6
			C657.5,697.3,657.7,696.9,657.7,696.3z"/>
		<path d="M664.3,707.1h-2.4l1.3-5.1h2.8L664.3,707.1z"/>
		<path d="M677.7,698.4c0,0.9-0.1,1.8-0.3,2.6c-0.2,0.8-0.5,1.5-0.9,2.2s-0.9,1.1-1.5,1.5s-1.4,0.5-2.3,0.5s-1.7-0.2-2.3-0.5
			c-0.6-0.4-1.2-0.9-1.6-1.5s-0.7-1.3-0.9-2.2s-0.3-1.7-0.3-2.6c0-0.9,0.1-1.8,0.3-2.6c0.2-0.8,0.5-1.5,0.9-2.1
			c0.4-0.6,0.9-1.1,1.6-1.4c0.6-0.4,1.4-0.5,2.3-0.5s1.7,0.2,2.3,0.5s1.1,0.8,1.5,1.4c0.4,0.6,0.7,1.3,0.9,2.1
			C677.6,696.7,677.7,697.5,677.7,698.4z M674.6,698.4c0-0.4,0-0.8-0.1-1.3c0-0.5-0.1-0.9-0.3-1.3c-0.1-0.4-0.3-0.8-0.6-1
			c-0.2-0.3-0.6-0.4-1-0.4s-0.7,0.1-1,0.4c-0.3,0.3-0.4,0.6-0.6,1c-0.1,0.4-0.2,0.9-0.3,1.3c0,0.5-0.1,0.9-0.1,1.3
			c0,0.4,0,0.9,0.1,1.3c0,0.5,0.1,0.9,0.3,1.4c0.1,0.4,0.3,0.8,0.6,1s0.6,0.4,1,0.4s0.7-0.1,1-0.4s0.4-0.6,0.6-1
			c0.1-0.4,0.2-0.9,0.3-1.4C674.6,699.3,674.6,698.8,674.6,698.4z"/>
		<path d="M689.3,698.4c0,0.9-0.1,1.8-0.3,2.6s-0.5,1.5-0.9,2.2s-0.9,1.1-1.5,1.5s-1.4,0.5-2.3,0.5s-1.7-0.2-2.3-0.5
			c-0.6-0.4-1.2-0.9-1.6-1.5c-0.4-0.6-0.7-1.3-0.9-2.2c-0.2-0.8-0.3-1.7-0.3-2.6c0-0.9,0.1-1.8,0.3-2.6c0.2-0.8,0.5-1.5,0.9-2.1
			c0.4-0.6,0.9-1.1,1.6-1.4c0.6-0.4,1.4-0.5,2.3-0.5s1.7,0.2,2.3,0.5s1.1,0.8,1.5,1.4c0.4,0.6,0.7,1.3,0.9,2.1
			C689.2,696.7,689.3,697.5,689.3,698.4z M686.2,698.4c0-0.4,0-0.8-0.1-1.3c0-0.5-0.1-0.9-0.3-1.3c-0.1-0.4-0.3-0.8-0.6-1
			c-0.2-0.3-0.6-0.4-1-0.4s-0.7,0.1-1,0.4c-0.3,0.3-0.4,0.6-0.6,1c-0.1,0.4-0.2,0.9-0.3,1.3c0,0.5-0.1,0.9-0.1,1.3
			c0,0.4,0,0.9,0.1,1.3c0,0.5,0.1,0.9,0.3,1.4c0.1,0.4,0.3,0.8,0.6,1s0.6,0.4,1,0.4s0.7-0.1,1-0.4s0.4-0.6,0.6-1
			c0.1-0.4,0.2-0.9,0.3-1.4C686.2,699.3,686.2,698.8,686.2,698.4z"/>
		<path d="M691.4,704.8v-2.5l5-4.5c0.3-0.3,0.6-0.6,0.8-0.9c0.2-0.3,0.3-0.7,0.3-1c0-0.5-0.1-0.8-0.4-1.1c-0.3-0.3-0.7-0.4-1.2-0.4
			c-0.5,0-0.9,0.2-1.2,0.5s-0.5,0.8-0.6,1.4l-2.9-0.4c0.1-0.6,0.2-1.2,0.5-1.7c0.3-0.5,0.6-0.9,1.1-1.3c0.4-0.4,0.9-0.6,1.5-0.8
			c0.6-0.2,1.1-0.3,1.8-0.3c0.6,0,1.2,0.1,1.7,0.2c0.6,0.2,1,0.4,1.5,0.7s0.8,0.7,1,1.2s0.4,1.1,0.4,1.7c0,0.5-0.1,0.9-0.2,1.2
			c-0.1,0.4-0.3,0.7-0.5,1c-0.2,0.3-0.5,0.6-0.7,0.9c-0.3,0.3-0.5,0.5-0.8,0.8l-3,2.6h5.2v2.6H691.4z"/>
	</g>
</g>
<g>
	<defs>
		<rect id="SVGID_643_" x="91.5" y="447.4" width="617" height="283"/>
	</defs>
	<clipPath id="SVGID_24_">
		<use xlink:href="#SVGID_643_"  style="overflow:visible;"/>
	</clipPath>
	
		<line style="clip-path:url(#SVGID_24_);fill:none;stroke:#CDCAC7;stroke-width:0.5;" x1="290.3" y1="485.6" x2="290.3" y2="729.1"/>
	<line style="clip-path:url(#SVGID_24_);fill:none;stroke:#CDCAC7;stroke-width:0.5;" x1="93" y1="547.2" x2="706.7" y2="547.2"/>
	<line style="clip-path:url(#SVGID_24_);fill:none;stroke:#CDCAC7;stroke-width:0.5;" x1="93" y1="607.7" x2="706.7" y2="607.7"/>
	<line style="clip-path:url(#SVGID_24_);fill:none;stroke:#CDCAC7;stroke-width:0.5;" x1="93" y1="668.2" x2="706.7" y2="668.2"/>
	<line style="clip-path:url(#SVGID_24_);fill:none;stroke:#9A958E;" x1="93" y1="486.1" x2="706.7" y2="486.1"/>
	<line style="clip-path:url(#SVGID_24_);fill:none;stroke:#B3AFAA;stroke-width:0.75;" x1="93.5" y1="448.9" x2="93.5" y2="486.1"/>
	<line style="clip-path:url(#SVGID_24_);fill:none;stroke:#B3AFAA;stroke-width:0.75;" x1="93.5" y1="486.1" x2="93.5" y2="729.1"/>
	
		<line style="clip-path:url(#SVGID_24_);fill:none;stroke:#B3AFAA;stroke-width:0.75;" x1="706.2" y1="448.9" x2="706.2" y2="486.1"/>
	
		<line style="clip-path:url(#SVGID_24_);fill:none;stroke:#B3AFAA;stroke-width:0.75;" x1="706.2" y1="486.1" x2="706.2" y2="729.1"/>
	<line style="clip-path:url(#SVGID_24_);fill:none;stroke:#B3AFAA;stroke-width:0.75;" x1="93" y1="449.4" x2="706.7" y2="449.4"/>
	<line style="clip-path:url(#SVGID_24_);fill:none;stroke:#B3AFAA;stroke-width:0.75;" x1="93" y1="728.6" x2="706.7" y2="728.6"/>
</g>
<g>
	<path class="st347" d="M329.2,371h-39.1v-54.2h39.1c15,0,27.1,12.1,27.1,27.1v0C356.3,358.9,344.1,371,329.2,371z"/>
	<path class="st348" d="M439.6,310H290.1v-54.2h149.5c15,0,27.1,12.1,27.1,27.1v0C466.7,297.9,454.6,310,439.6,310z"/>
	<path class="st349" d="M650.9,249H290.1v-54.2h360.8c15,0,27.1,12.1,27.1,27.1v0C678,236.9,665.8,249,650.9,249z"/>
	<g>
		<g>
			<path class="st350" d="M105.8,348.3L105.8,348.3l4.3-10.5h2v12.7h-1.3v-11.1h0l-4.6,11.1h-0.7l-4.6-11.1h0v11.1h-1.3v-12.7h2
				L105.8,348.3z"/>
			<path class="st350" d="M116.8,349.3h6.8v1.2h-8.1v-12.7h7.9v1.2h-6.6v4.4h6.2v1.2h-6.2V349.3z"/>
			<path class="st350" d="M127.4,350.5h-1.3v-12.7h3.7c0.6,0,1.2,0.1,1.7,0.2c0.5,0.1,1,0.3,1.4,0.6c0.4,0.3,0.7,0.6,0.9,1.1
				c0.2,0.4,0.3,1,0.3,1.6c0,0.5-0.1,0.9-0.3,1.3c-0.2,0.4-0.4,0.7-0.7,1s-0.6,0.5-1,0.7c-0.4,0.2-0.8,0.3-1.3,0.3l3.7,6.1h-1.6
				l-3.5-6h-2.2V350.5z M127.4,343.4h2.2c1,0,1.8-0.2,2.4-0.6c0.6-0.4,0.8-0.9,0.8-1.7c0-0.4-0.1-0.8-0.2-1.1
				c-0.2-0.3-0.4-0.5-0.6-0.7s-0.6-0.3-1-0.4c-0.4-0.1-0.8-0.1-1.3-0.1h-2.3V343.4z"/>
			<path class="st350" d="M147.6,348.4c-0.2,0.3-0.5,0.6-0.8,0.9c-0.3,0.3-0.7,0.5-1.1,0.8s-0.8,0.4-1.3,0.5c-0.5,0.1-1,0.2-1.6,0.2
				c-1,0-1.8-0.2-2.7-0.5c-0.8-0.3-1.5-0.8-2.1-1.4s-1-1.3-1.4-2.1s-0.5-1.7-0.5-2.7c0-1,0.2-1.9,0.5-2.7c0.3-0.8,0.8-1.5,1.4-2.1
				s1.3-1.1,2.1-1.4c0.8-0.3,1.7-0.5,2.6-0.5c0.5,0,0.9,0,1.4,0.1s0.9,0.2,1.3,0.4c0.4,0.2,0.8,0.4,1.1,0.6s0.6,0.5,0.8,0.8
				l-1.1,0.8c-0.1-0.2-0.3-0.4-0.5-0.6c-0.2-0.2-0.5-0.4-0.8-0.5c-0.3-0.2-0.6-0.3-1-0.4c-0.4-0.1-0.7-0.1-1.1-0.1
				c-0.8,0-1.6,0.2-2.2,0.4s-1.2,0.7-1.7,1.2s-0.8,1.1-1,1.8s-0.4,1.4-0.4,2.1s0.1,1.4,0.4,2.1s0.6,1.3,1.1,1.8
				c0.5,0.5,1,0.9,1.7,1.2s1.4,0.4,2.2,0.4c0.7,0,1.4-0.1,2.1-0.4s1.2-0.8,1.7-1.4L147.6,348.4z"/>
			<path class="st350" d="M149.9,337.7h1.3v5.5h6.9v-5.5h1.3v12.7h-1.3v-6h-6.9v6h-1.3V337.7z"/>
			<path class="st350" d="M162.7,350.5h-1.4l5.5-12.7h1.3l5.5,12.7h-1.4l-1.4-3.3h-6.6L162.7,350.5z M164.6,345.9h5.6l-2.8-6.8
				L164.6,345.9z"/>
			<path class="st350" d="M184.4,348.6L184.4,348.6l0-10.9h1.3v12.7h-1.6l-7.4-11h0v11h-1.3v-12.7h1.6L184.4,348.6z"/>
			<path class="st350" d="M189.1,337.7h4.2c0.8,0,1.6,0.1,2.4,0.4c0.8,0.3,1.5,0.7,2.2,1.2c0.6,0.5,1.2,1.2,1.6,2
				c0.4,0.8,0.6,1.7,0.6,2.8c0,1.1-0.2,2-0.6,2.8c-0.4,0.8-0.9,1.5-1.6,2c-0.6,0.5-1.4,0.9-2.2,1.2c-0.8,0.3-1.6,0.4-2.4,0.4h-4.2
				V337.7z M190.4,349.3h2.6c1,0,1.8-0.1,2.5-0.4c0.7-0.3,1.3-0.7,1.8-1.2c0.5-0.5,0.8-1,1.1-1.7c0.2-0.6,0.4-1.3,0.4-1.9
				s-0.1-1.3-0.4-1.9c-0.2-0.6-0.6-1.2-1.1-1.7c-0.5-0.5-1.1-0.9-1.8-1.2c-0.7-0.3-1.6-0.5-2.5-0.5h-2.6V349.3z"/>
			<path class="st350" d="M204.1,350.5h-1.3v-12.7h1.3V350.5z"/>
			<path class="st350" d="M213.6,339.8c-0.3-0.4-0.6-0.7-1.1-0.9c-0.4-0.2-1-0.3-1.6-0.3c-0.3,0-0.6,0-1,0.1
				c-0.3,0.1-0.6,0.2-0.9,0.4c-0.3,0.2-0.5,0.4-0.6,0.7c-0.2,0.3-0.2,0.7-0.2,1.1c0,0.4,0.1,0.7,0.2,1c0.2,0.3,0.4,0.5,0.6,0.7
				c0.3,0.2,0.6,0.3,0.9,0.5c0.3,0.1,0.7,0.2,1,0.4c0.4,0.1,0.9,0.3,1.3,0.5c0.4,0.2,0.9,0.4,1.2,0.7c0.4,0.3,0.7,0.6,0.9,1
				s0.3,0.9,0.3,1.6s-0.1,1.2-0.4,1.6c-0.2,0.5-0.6,0.8-0.9,1.1c-0.4,0.3-0.8,0.5-1.3,0.7c-0.5,0.1-1,0.2-1.5,0.2
				c-0.4,0-0.8,0-1.2-0.1c-0.4-0.1-0.8-0.2-1.1-0.3c-0.3-0.2-0.7-0.4-1-0.6c-0.3-0.2-0.6-0.5-0.8-0.8l1.1-0.8
				c0.3,0.5,0.7,0.8,1.2,1.1c0.5,0.3,1.1,0.5,1.8,0.5c0.3,0,0.7-0.1,1-0.2c0.3-0.1,0.6-0.3,0.9-0.5c0.3-0.2,0.5-0.5,0.7-0.8
				c0.2-0.3,0.3-0.7,0.3-1.1c0-0.4-0.1-0.8-0.3-1.1c-0.2-0.3-0.4-0.5-0.7-0.7c-0.3-0.2-0.6-0.4-1-0.5c-0.4-0.1-0.8-0.3-1.2-0.4
				c-0.4-0.1-0.8-0.3-1.2-0.4c-0.4-0.2-0.8-0.4-1.1-0.7c-0.3-0.3-0.6-0.6-0.8-1s-0.3-0.9-0.3-1.5c0-0.6,0.1-1.1,0.4-1.6
				c0.2-0.4,0.6-0.8,1-1.1c0.4-0.3,0.8-0.5,1.3-0.6c0.5-0.1,1-0.2,1.4-0.2c0.9,0,1.6,0.2,2.2,0.5c0.6,0.3,1.1,0.7,1.4,1.1
				L213.6,339.8z"/>
			<path class="st350" d="M218.9,349.3h6.8v1.2h-8.1v-12.7h7.9v1.2h-6.6v4.4h6.2v1.2h-6.2V349.3z"/>
		</g>
	</g>
	<g>
		<defs>
			<rect id="SVGID_645_" x="93.8" y="192.7" width="256.3" height="60.4"/>
		</defs>
		<clipPath id="SVGID_26_">
			<use xlink:href="#SVGID_645_"  style="overflow:visible;"/>
		</clipPath>
		<g class="st13">
			<path d="M100.8,229.1h-1.3v-12.7h1.3V229.1z"/>
			<path d="M113.2,227.2L113.2,227.2l0-10.9h1.3v12.7H113l-7.4-11h0v11h-1.3v-12.7h1.6L113.2,227.2z"/>
			<path d="M122.1,229.1h-1.4l5.5-12.7h1.3l5.5,12.7h-1.4l-1.4-3.3h-6.6L122.1,229.1z M123.9,224.6h5.6l-2.8-6.8L123.9,224.6z"/>
			<path d="M134.8,216.4h3.6c0.6,0,1.2,0.1,1.8,0.2c0.5,0.1,1,0.3,1.4,0.6c0.4,0.3,0.7,0.6,0.9,1.1s0.3,0.9,0.3,1.5
				s-0.1,1.1-0.3,1.5s-0.5,0.8-0.9,1.1c-0.4,0.3-0.8,0.5-1.4,0.6c-0.5,0.1-1.1,0.2-1.8,0.2H136v5.9h-1.3V216.4z M136,222.1h2.2
				c1,0,1.8-0.2,2.3-0.6c0.5-0.4,0.8-1,0.8-1.7c0-0.8-0.3-1.4-0.8-1.7c-0.5-0.4-1.3-0.5-2.3-0.5H136V222.1z"/>
			<path d="M145.2,216.4h3.6c0.6,0,1.2,0.1,1.8,0.2c0.5,0.1,1,0.3,1.4,0.6c0.4,0.3,0.7,0.6,0.9,1.1c0.2,0.4,0.3,0.9,0.3,1.5
				s-0.1,1.1-0.3,1.5s-0.5,0.8-0.9,1.1c-0.4,0.3-0.8,0.5-1.4,0.6c-0.5,0.1-1.1,0.2-1.8,0.2h-2.3v5.9h-1.3V216.4z M146.5,222.1h2.2
				c1,0,1.8-0.2,2.3-0.6c0.5-0.4,0.8-1,0.8-1.7c0-0.8-0.3-1.4-0.8-1.7s-1.3-0.5-2.3-0.5h-2.2V222.1z"/>
			<path d="M160.1,216.4h3.6c0.6,0,1.2,0.1,1.8,0.2c0.5,0.1,1,0.3,1.4,0.6c0.4,0.3,0.7,0.6,0.9,1.1s0.3,0.9,0.3,1.5
				s-0.1,1.1-0.3,1.5s-0.5,0.8-0.9,1.1c-0.4,0.3-0.8,0.5-1.4,0.6c-0.5,0.1-1.1,0.2-1.8,0.2h-2.3v5.9h-1.3V216.4z M161.4,222.1h2.2
				c1,0,1.8-0.2,2.3-0.6c0.5-0.4,0.8-1,0.8-1.7c0-0.8-0.3-1.4-0.8-1.7c-0.5-0.4-1.3-0.5-2.3-0.5h-2.2V222.1z"/>
			<path d="M175.3,229.4c-1,0-1.7-0.2-2.4-0.5s-1.1-0.7-1.5-1.3s-0.6-1.1-0.7-1.6c-0.1-0.6-0.2-1.2-0.2-1.7v-8h1.3v7.8
				c0,0.5,0.1,1,0.2,1.5c0.1,0.5,0.3,0.9,0.6,1.3c0.3,0.4,0.6,0.7,1.1,0.9c0.4,0.2,1,0.4,1.6,0.4c0.6,0,1.2-0.1,1.6-0.4
				c0.4-0.2,0.8-0.5,1.1-0.9c0.3-0.4,0.5-0.8,0.6-1.3c0.1-0.5,0.2-1,0.2-1.5v-7.8h1.3v8c0,0.5-0.1,1.1-0.2,1.7
				c-0.1,0.6-0.4,1.1-0.7,1.6c-0.4,0.5-0.8,0.9-1.5,1.3S176.2,229.4,175.3,229.4z"/>
			<path d="M184.6,229.1h-1.3v-12.7h3.7c0.6,0,1.2,0.1,1.7,0.2c0.5,0.1,1,0.3,1.4,0.6c0.4,0.3,0.7,0.6,0.9,1.1
				c0.2,0.4,0.3,1,0.3,1.6c0,0.5-0.1,0.9-0.3,1.3c-0.2,0.4-0.4,0.7-0.7,1c-0.3,0.3-0.6,0.5-1,0.7c-0.4,0.2-0.8,0.3-1.3,0.3l3.7,6.1
				h-1.6l-3.5-6h-2.2V229.1z M184.6,222h2.2c1,0,1.8-0.2,2.4-0.6c0.6-0.4,0.8-0.9,0.8-1.7c0-0.4-0.1-0.8-0.2-1.1s-0.4-0.5-0.6-0.7
				c-0.3-0.2-0.6-0.3-1-0.4c-0.4-0.1-0.8-0.1-1.3-0.1h-2.3V222z"/>
			<path d="M204.9,227c-0.2,0.3-0.5,0.6-0.8,0.9c-0.3,0.3-0.7,0.5-1.1,0.8c-0.4,0.2-0.8,0.4-1.3,0.5c-0.5,0.1-1,0.2-1.6,0.2
				c-1,0-1.8-0.2-2.7-0.5c-0.8-0.3-1.5-0.8-2.1-1.4s-1-1.3-1.4-2.1c-0.3-0.8-0.5-1.7-0.5-2.7s0.2-1.9,0.5-2.7
				c0.3-0.8,0.8-1.5,1.4-2.1c0.6-0.6,1.3-1.1,2.1-1.4c0.8-0.3,1.7-0.5,2.6-0.5c0.5,0,0.9,0,1.4,0.1c0.5,0.1,0.9,0.2,1.3,0.4
				c0.4,0.2,0.8,0.4,1.1,0.6c0.3,0.2,0.6,0.5,0.8,0.8l-1.1,0.8c-0.1-0.2-0.3-0.4-0.5-0.6c-0.2-0.2-0.5-0.4-0.8-0.5
				c-0.3-0.2-0.6-0.3-1-0.4c-0.4-0.1-0.7-0.1-1.1-0.1c-0.8,0-1.6,0.1-2.2,0.4c-0.7,0.3-1.2,0.7-1.7,1.2c-0.5,0.5-0.8,1.1-1,1.8
				s-0.4,1.4-0.4,2.1c0,0.7,0.1,1.4,0.4,2.1c0.2,0.7,0.6,1.3,1.1,1.8c0.5,0.5,1,0.9,1.7,1.2c0.7,0.3,1.4,0.4,2.2,0.4
				c0.7,0,1.4-0.1,2.1-0.5c0.7-0.3,1.2-0.8,1.7-1.4L204.9,227z"/>
			<path d="M207.1,216.4h1.3v5.5h6.9v-5.5h1.3v12.7h-1.3v-6h-6.9v6h-1.3V216.4z"/>
			<path d="M219.9,229.1h-1.4l5.5-12.7h1.3l5.5,12.7h-1.4l-1.4-3.3h-6.6L219.9,229.1z M221.8,224.6h5.6l-2.8-6.8L221.8,224.6z"/>
			<path d="M238.8,218.4c-0.3-0.4-0.6-0.7-1.1-0.9c-0.4-0.2-1-0.4-1.6-0.4c-0.3,0-0.6,0-1,0.1c-0.3,0.1-0.6,0.2-0.9,0.4
				c-0.3,0.2-0.5,0.4-0.6,0.7s-0.2,0.7-0.2,1.1c0,0.4,0.1,0.7,0.2,1c0.2,0.3,0.4,0.5,0.6,0.7c0.3,0.2,0.6,0.3,0.9,0.5s0.7,0.2,1,0.4
				c0.4,0.1,0.9,0.3,1.3,0.5c0.4,0.2,0.9,0.4,1.2,0.7c0.4,0.3,0.7,0.6,0.9,1c0.2,0.4,0.3,0.9,0.3,1.6c0,0.6-0.1,1.2-0.4,1.6
				c-0.2,0.5-0.6,0.8-0.9,1.1c-0.4,0.3-0.8,0.5-1.3,0.7c-0.5,0.1-1,0.2-1.5,0.2c-0.4,0-0.8,0-1.2-0.1s-0.8-0.2-1.1-0.4
				c-0.3-0.2-0.7-0.4-1-0.6c-0.3-0.2-0.6-0.5-0.8-0.8l1.1-0.8c0.3,0.5,0.7,0.8,1.2,1.1s1.1,0.5,1.8,0.5c0.3,0,0.7-0.1,1-0.2
				c0.3-0.1,0.6-0.3,0.9-0.5c0.3-0.2,0.5-0.5,0.7-0.8c0.2-0.3,0.3-0.7,0.3-1.1c0-0.4-0.1-0.8-0.3-1.1c-0.2-0.3-0.4-0.5-0.7-0.7
				c-0.3-0.2-0.6-0.4-1-0.5s-0.8-0.3-1.2-0.4c-0.4-0.1-0.8-0.3-1.2-0.5c-0.4-0.2-0.8-0.4-1.1-0.7c-0.3-0.3-0.6-0.6-0.8-1
				c-0.2-0.4-0.3-0.9-0.3-1.5c0-0.6,0.1-1.1,0.4-1.6c0.2-0.4,0.6-0.8,1-1.1c0.4-0.3,0.8-0.5,1.3-0.6c0.5-0.1,1-0.2,1.4-0.2
				c0.9,0,1.6,0.2,2.2,0.5c0.6,0.3,1.1,0.7,1.4,1.1L238.8,218.4z"/>
			<path d="M244.1,228h6.8v1.2h-8.1v-12.7h7.9v1.2h-6.6v4.4h6.2v1.2h-6.2V228z"/>
		</g>
	</g>
	<g>
		<defs>
			<rect id="SVGID_647_" x="93.8" y="253.6" width="256.3" height="60"/>
		</defs>
		<clipPath id="SVGID_28_">
			<use xlink:href="#SVGID_647_"  style="overflow:visible;"/>
		</clipPath>
		<g class="st14">
			<path d="M99.4,290H98l5.5-12.7h1.3l5.5,12.7h-1.4l-1.4-3.3h-6.6L99.4,290z M101.3,285.5h5.6l-2.8-6.8L101.3,285.5z"/>
			<path d="M112.1,277.3h4.2c0.8,0,1.6,0.1,2.4,0.4s1.5,0.7,2.2,1.2c0.6,0.5,1.2,1.2,1.6,2c0.4,0.8,0.6,1.7,0.6,2.8
				c0,1.1-0.2,2-0.6,2.8c-0.4,0.8-0.9,1.5-1.6,2c-0.6,0.5-1.4,0.9-2.2,1.2c-0.8,0.3-1.6,0.4-2.4,0.4h-4.2V277.3z M113.4,288.9h2.6
				c1,0,1.8-0.1,2.5-0.4c0.7-0.3,1.3-0.7,1.8-1.2c0.5-0.5,0.8-1,1.1-1.7c0.2-0.6,0.4-1.3,0.4-1.9s-0.1-1.3-0.4-1.9
				c-0.2-0.6-0.6-1.2-1.1-1.7s-1.1-0.9-1.8-1.2c-0.7-0.3-1.6-0.5-2.5-0.5h-2.6V288.9z"/>
			<path d="M131.9,279.3c-0.3-0.4-0.6-0.7-1.1-0.9c-0.4-0.2-1-0.4-1.6-0.4c-0.3,0-0.6,0-1,0.1c-0.3,0.1-0.6,0.2-0.9,0.4
				c-0.3,0.2-0.5,0.4-0.6,0.7c-0.2,0.3-0.2,0.7-0.2,1.1c0,0.4,0.1,0.7,0.2,1c0.2,0.3,0.4,0.5,0.6,0.7c0.3,0.2,0.6,0.3,0.9,0.5
				c0.3,0.1,0.7,0.2,1,0.4c0.4,0.1,0.9,0.3,1.3,0.5c0.4,0.2,0.9,0.4,1.2,0.7c0.4,0.3,0.7,0.6,0.9,1s0.3,0.9,0.3,1.6
				c0,0.6-0.1,1.2-0.4,1.6c-0.2,0.5-0.6,0.8-0.9,1.1s-0.8,0.5-1.3,0.7c-0.5,0.1-1,0.2-1.5,0.2c-0.4,0-0.8,0-1.2-0.1
				c-0.4-0.1-0.8-0.2-1.1-0.4c-0.3-0.2-0.7-0.4-1-0.6c-0.3-0.2-0.6-0.5-0.8-0.8l1.1-0.8c0.3,0.5,0.7,0.8,1.2,1.1s1.1,0.5,1.8,0.5
				c0.3,0,0.7-0.1,1-0.2c0.3-0.1,0.6-0.3,0.9-0.5c0.3-0.2,0.5-0.5,0.7-0.8c0.2-0.3,0.3-0.7,0.3-1.1c0-0.4-0.1-0.8-0.3-1.1
				s-0.4-0.5-0.7-0.7c-0.3-0.2-0.6-0.4-1-0.5s-0.8-0.3-1.2-0.4c-0.4-0.1-0.8-0.3-1.2-0.5c-0.4-0.2-0.8-0.4-1.1-0.7
				c-0.3-0.3-0.6-0.6-0.8-1c-0.2-0.4-0.3-0.9-0.3-1.5c0-0.6,0.1-1.1,0.4-1.6c0.2-0.4,0.6-0.8,1-1.1c0.4-0.3,0.8-0.5,1.3-0.6
				s1-0.2,1.4-0.2c0.9,0,1.6,0.2,2.2,0.5c0.6,0.3,1.1,0.7,1.4,1.1L131.9,279.3z"/>
			<path d="M151.1,287.9c-0.2,0.3-0.5,0.6-0.8,0.9c-0.3,0.3-0.7,0.5-1.1,0.8c-0.4,0.2-0.8,0.4-1.3,0.5c-0.5,0.1-1,0.2-1.6,0.2
				c-1,0-1.8-0.2-2.7-0.5c-0.8-0.3-1.5-0.8-2.1-1.4s-1-1.3-1.4-2.1c-0.3-0.8-0.5-1.7-0.5-2.7s0.2-1.9,0.5-2.7
				c0.3-0.8,0.8-1.5,1.4-2.1c0.6-0.6,1.3-1.1,2.1-1.4c0.8-0.3,1.7-0.5,2.6-0.5c0.5,0,0.9,0,1.4,0.1c0.5,0.1,0.9,0.2,1.3,0.4
				c0.4,0.2,0.8,0.4,1.1,0.6c0.3,0.2,0.6,0.5,0.8,0.8l-1.1,0.8c-0.1-0.2-0.3-0.4-0.5-0.6c-0.2-0.2-0.5-0.4-0.8-0.5
				c-0.3-0.2-0.6-0.3-1-0.4c-0.4-0.1-0.7-0.1-1.1-0.1c-0.8,0-1.6,0.1-2.2,0.4c-0.7,0.3-1.2,0.7-1.7,1.2c-0.5,0.5-0.8,1.1-1,1.8
				s-0.4,1.4-0.4,2.1c0,0.7,0.1,1.4,0.4,2.1c0.2,0.7,0.6,1.3,1.1,1.8c0.5,0.5,1,0.9,1.7,1.2c0.7,0.3,1.4,0.4,2.2,0.4
				c0.7,0,1.4-0.1,2.1-0.5c0.7-0.3,1.2-0.8,1.7-1.4L151.1,287.9z"/>
			<path d="M165.8,283.6c0,1-0.2,1.9-0.5,2.7c-0.3,0.8-0.8,1.5-1.4,2.1c-0.6,0.6-1.3,1.1-2.1,1.4c-0.8,0.3-1.7,0.5-2.6,0.5
				c-0.9,0-1.8-0.2-2.6-0.5c-0.8-0.3-1.5-0.8-2.1-1.4s-1.1-1.3-1.4-2.1c-0.3-0.8-0.5-1.7-0.5-2.7s0.2-1.9,0.5-2.7
				c0.3-0.8,0.8-1.5,1.4-2.1s1.3-1.1,2.1-1.4c0.8-0.3,1.7-0.5,2.6-0.5c0.9,0,1.8,0.2,2.6,0.5c0.8,0.3,1.5,0.8,2.1,1.4
				c0.6,0.6,1.1,1.3,1.4,2.1C165.6,281.8,165.8,282.7,165.8,283.6z M164.4,283.6c0-0.7-0.1-1.4-0.4-2.1c-0.2-0.7-0.6-1.3-1-1.8
				c-0.5-0.5-1-0.9-1.7-1.2c-0.7-0.3-1.4-0.4-2.2-0.4c-0.8,0-1.6,0.2-2.2,0.4c-0.7,0.3-1.2,0.7-1.7,1.2c-0.5,0.5-0.8,1.1-1,1.8
				s-0.4,1.4-0.4,2.1c0,0.7,0.1,1.5,0.4,2.1s0.6,1.3,1,1.8s1,0.9,1.7,1.2s1.4,0.4,2.2,0.4c0.8,0,1.6-0.1,2.2-0.4
				c0.7-0.3,1.2-0.7,1.7-1.2s0.8-1.1,1-1.8C164.3,285.1,164.4,284.4,164.4,283.6z"/>
			<path d="M174.8,287.8L174.8,287.8l4.3-10.5h2V290h-1.3v-11.1h0l-4.6,11.1h-0.7l-4.6-11.1h0V290h-1.3v-12.7h2L174.8,287.8z"/>
			<path d="M184.4,277.3h3.8c0.5,0,1,0.1,1.5,0.2c0.5,0.1,0.9,0.3,1.3,0.5c0.4,0.2,0.7,0.6,1,1c0.2,0.4,0.4,0.9,0.4,1.6
				c0,0.7-0.2,1.3-0.6,1.8c-0.4,0.5-1,0.8-1.6,1v0c0.8,0.1,1.5,0.4,2.1,1s0.8,1.3,0.8,2.2c0,0.5-0.1,1-0.3,1.4
				c-0.2,0.4-0.5,0.8-0.9,1.1s-0.9,0.5-1.5,0.7s-1.2,0.3-2,0.3h-3.8V277.3z M185.7,282.8h2.6c0.3,0,0.6,0,0.9-0.1
				c0.3-0.1,0.6-0.2,0.9-0.4c0.3-0.2,0.5-0.4,0.6-0.7s0.2-0.6,0.2-1.1c0-0.4-0.1-0.8-0.2-1s-0.4-0.5-0.7-0.7s-0.6-0.3-1-0.4
				s-0.8-0.1-1.2-0.1h-2.2V282.8z M185.7,288.9h2.4c0.5,0,0.9,0,1.3-0.1c0.4-0.1,0.8-0.2,1.1-0.4c0.3-0.2,0.6-0.5,0.8-0.8
				c0.2-0.3,0.3-0.7,0.3-1.1c0-0.8-0.3-1.5-0.9-1.9c-0.6-0.4-1.4-0.6-2.4-0.6h-2.6V288.9z"/>
			<path d="M197.2,290h-1.3v-12.7h1.3V290z"/>
			<path d="M209.6,288.1L209.6,288.1l0-10.9h1.3V290h-1.6l-7.4-11h0v11h-1.3v-12.7h1.6L209.6,288.1z"/>
			<path d="M215.6,288.9h6.8v1.2h-8.1v-12.7h7.9v1.2h-6.6v4.4h6.2v1.2h-6.2V288.9z"/>
			<path d="M224.9,277.3h4.2c0.8,0,1.6,0.1,2.4,0.4s1.5,0.7,2.2,1.2c0.6,0.5,1.2,1.2,1.6,2c0.4,0.8,0.6,1.7,0.6,2.8
				c0,1.1-0.2,2-0.6,2.8c-0.4,0.8-0.9,1.5-1.6,2c-0.6,0.5-1.4,0.9-2.2,1.2c-0.8,0.3-1.6,0.4-2.4,0.4h-4.2V277.3z M226.2,288.9h2.6
				c1,0,1.8-0.1,2.5-0.4c0.7-0.3,1.3-0.7,1.8-1.2c0.5-0.5,0.8-1,1.1-1.7c0.2-0.6,0.4-1.3,0.4-1.9s-0.1-1.3-0.4-1.9
				c-0.2-0.6-0.6-1.2-1.1-1.7s-1.1-0.9-1.8-1.2c-0.7-0.3-1.6-0.5-2.5-0.5h-2.6V288.9z"/>
		</g>
	</g>
	<g>
		<g>
			<path d="M105.8,348.3L105.8,348.3l4.3-10.5h2v12.7h-1.3v-11.1h0l-4.6,11.1h-0.7l-4.6-11.1h0v11.1h-1.3v-12.7h2L105.8,348.3z"/>
			<path d="M116.8,349.3h6.8v1.2h-8.1v-12.7h7.9v1.2h-6.6v4.4h6.2v1.2h-6.2V349.3z"/>
			<path d="M127.4,350.5h-1.3v-12.7h3.7c0.6,0,1.2,0.1,1.7,0.2c0.5,0.1,1,0.3,1.4,0.6c0.4,0.3,0.7,0.6,0.9,1.1
				c0.2,0.4,0.3,1,0.3,1.6c0,0.5-0.1,0.9-0.3,1.3c-0.2,0.4-0.4,0.7-0.7,1s-0.6,0.5-1,0.7c-0.4,0.2-0.8,0.3-1.3,0.3l3.7,6.1h-1.6
				l-3.5-6h-2.2V350.5z M127.4,343.4h2.2c1,0,1.8-0.2,2.4-0.6c0.6-0.4,0.8-0.9,0.8-1.7c0-0.4-0.1-0.8-0.2-1.1
				c-0.2-0.3-0.4-0.5-0.6-0.7s-0.6-0.3-1-0.4c-0.4-0.1-0.8-0.1-1.3-0.1h-2.3V343.4z"/>
			<path d="M147.6,348.4c-0.2,0.3-0.5,0.6-0.8,0.9c-0.3,0.3-0.7,0.5-1.1,0.8s-0.8,0.4-1.3,0.5c-0.5,0.1-1,0.2-1.6,0.2
				c-1,0-1.8-0.2-2.7-0.5c-0.8-0.3-1.5-0.8-2.1-1.4s-1-1.3-1.4-2.1s-0.5-1.7-0.5-2.7c0-1,0.2-1.9,0.5-2.7c0.3-0.8,0.8-1.5,1.4-2.1
				s1.3-1.1,2.1-1.4c0.8-0.3,1.7-0.5,2.6-0.5c0.5,0,0.9,0,1.4,0.1s0.9,0.2,1.3,0.4c0.4,0.2,0.8,0.4,1.1,0.6s0.6,0.5,0.8,0.8
				l-1.1,0.8c-0.1-0.2-0.3-0.4-0.5-0.6c-0.2-0.2-0.5-0.4-0.8-0.5c-0.3-0.2-0.6-0.3-1-0.4c-0.4-0.1-0.7-0.1-1.1-0.1
				c-0.8,0-1.6,0.2-2.2,0.4s-1.2,0.7-1.7,1.2s-0.8,1.1-1,1.8s-0.4,1.4-0.4,2.1s0.1,1.4,0.4,2.1s0.6,1.3,1.1,1.8
				c0.5,0.5,1,0.9,1.7,1.2s1.4,0.4,2.2,0.4c0.7,0,1.4-0.1,2.1-0.4s1.2-0.8,1.7-1.4L147.6,348.4z"/>
			<path d="M149.9,337.7h1.3v5.5h6.9v-5.5h1.3v12.7h-1.3v-6h-6.9v6h-1.3V337.7z"/>
			<path d="M162.7,350.5h-1.4l5.5-12.7h1.3l5.5,12.7h-1.4l-1.4-3.3h-6.6L162.7,350.5z M164.6,345.9h5.6l-2.8-6.8L164.6,345.9z"/>
			<path d="M184.4,348.6L184.4,348.6l0-10.9h1.3v12.7h-1.6l-7.4-11h0v11h-1.3v-12.7h1.6L184.4,348.6z"/>
			<path d="M189.1,337.7h4.2c0.8,0,1.6,0.1,2.4,0.4c0.8,0.3,1.5,0.7,2.2,1.2c0.6,0.5,1.2,1.2,1.6,2c0.4,0.8,0.6,1.7,0.6,2.8
				c0,1.1-0.2,2-0.6,2.8c-0.4,0.8-0.9,1.5-1.6,2c-0.6,0.5-1.4,0.9-2.2,1.2c-0.8,0.3-1.6,0.4-2.4,0.4h-4.2V337.7z M190.4,349.3h2.6
				c1,0,1.8-0.1,2.5-0.4c0.7-0.3,1.3-0.7,1.8-1.2c0.5-0.5,0.8-1,1.1-1.7c0.2-0.6,0.4-1.3,0.4-1.9s-0.1-1.3-0.4-1.9
				c-0.2-0.6-0.6-1.2-1.1-1.7c-0.5-0.5-1.1-0.9-1.8-1.2c-0.7-0.3-1.6-0.5-2.5-0.5h-2.6V349.3z"/>
			<path d="M204.1,350.5h-1.3v-12.7h1.3V350.5z"/>
			<path d="M213.6,339.8c-0.3-0.4-0.6-0.7-1.1-0.9c-0.4-0.2-1-0.3-1.6-0.3c-0.3,0-0.6,0-1,0.1c-0.3,0.1-0.6,0.2-0.9,0.4
				c-0.3,0.2-0.5,0.4-0.6,0.7c-0.2,0.3-0.2,0.7-0.2,1.1c0,0.4,0.1,0.7,0.2,1c0.2,0.3,0.4,0.5,0.6,0.7c0.3,0.2,0.6,0.3,0.9,0.5
				c0.3,0.1,0.7,0.2,1,0.4c0.4,0.1,0.9,0.3,1.3,0.5c0.4,0.2,0.9,0.4,1.2,0.7c0.4,0.3,0.7,0.6,0.9,1s0.3,0.9,0.3,1.6
				s-0.1,1.2-0.4,1.6c-0.2,0.5-0.6,0.8-0.9,1.1c-0.4,0.3-0.8,0.5-1.3,0.7c-0.5,0.1-1,0.2-1.5,0.2c-0.4,0-0.8,0-1.2-0.1
				c-0.4-0.1-0.8-0.2-1.1-0.3c-0.3-0.2-0.7-0.4-1-0.6c-0.3-0.2-0.6-0.5-0.8-0.8l1.1-0.8c0.3,0.5,0.7,0.8,1.2,1.1
				c0.5,0.3,1.1,0.5,1.8,0.5c0.3,0,0.7-0.1,1-0.2c0.3-0.1,0.6-0.3,0.9-0.5c0.3-0.2,0.5-0.5,0.7-0.8c0.2-0.3,0.3-0.7,0.3-1.1
				c0-0.4-0.1-0.8-0.3-1.1c-0.2-0.3-0.4-0.5-0.7-0.7c-0.3-0.2-0.6-0.4-1-0.5c-0.4-0.1-0.8-0.3-1.2-0.4c-0.4-0.1-0.8-0.3-1.2-0.4
				c-0.4-0.2-0.8-0.4-1.1-0.7c-0.3-0.3-0.6-0.6-0.8-1s-0.3-0.9-0.3-1.5c0-0.6,0.1-1.1,0.4-1.6c0.2-0.4,0.6-0.8,1-1.1
				c0.4-0.3,0.8-0.5,1.3-0.6c0.5-0.1,1-0.2,1.4-0.2c0.9,0,1.6,0.2,2.2,0.5c0.6,0.3,1.1,0.7,1.4,1.1L213.6,339.8z"/>
			<path d="M218.9,349.3h6.8v1.2h-8.1v-12.7h7.9v1.2h-6.6v4.4h6.2v1.2h-6.2V349.3z"/>
		</g>
	</g>
	<g>
		<line class="st353" x1="93" y1="253.3" x2="290.1" y2="253.3"/>
		<line class="st353" x1="93" y1="313.8" x2="290.1" y2="313.8"/>
		<line class="st353" x1="93" y1="374.3" x2="706.7" y2="374.3"/>
		<line class="st353" x1="93" y1="191.7" x2="706.7" y2="191.7"/>
	</g>
	<line class="st354" x1="290.1" y1="164.5" x2="290.1" y2="374.3"/>
	<g>
		<g>
			<line class="st354" x1="394.2" y1="164.5" x2="394.2" y2="167.5"/>
			<line class="st355" x1="394.2" y1="173.7" x2="394.2" y2="368.2"/>
			<line class="st354" x1="394.2" y1="371.3" x2="394.2" y2="374.3"/>
		</g>
	</g>
	<g>
		<g>
			<line class="st354" x1="498.4" y1="164.5" x2="498.4" y2="167.5"/>
			<line class="st355" x1="498.4" y1="173.7" x2="498.4" y2="368.2"/>
			<line class="st354" x1="498.4" y1="371.3" x2="498.4" y2="374.3"/>
		</g>
	</g>
	<g>
		<g>
			<line class="st354" x1="602.5" y1="164.5" x2="602.5" y2="167.5"/>
			<line class="st355" x1="602.5" y1="173.7" x2="602.5" y2="368.2"/>
			<line class="st354" x1="602.5" y1="371.3" x2="602.5" y2="374.3"/>
		</g>
	</g>
	<g>
		<g>
			<line class="st354" x1="706.7" y1="164.5" x2="706.7" y2="167.5"/>
			<line class="st355" x1="706.7" y1="173.7" x2="706.7" y2="368.2"/>
			<line class="st354" x1="706.7" y1="371.3" x2="706.7" y2="374.3"/>
		</g>
	</g>
	<g>
		<path class="st356" d="M276.6,181.9c-0.7-0.5-1.3-1.2-1.7-2.1c-0.4-0.9-0.6-2-0.6-3.3s0.2-2.3,0.6-3.3c0.4-0.9,1-1.6,1.7-2.1
			c0.7-0.5,1.6-0.7,2.5-0.7c0.9,0,1.8,0.2,2.5,0.7c0.7,0.5,1.3,1.2,1.7,2.1c0.4,0.9,0.6,2,0.6,3.3s-0.2,2.3-0.6,3.3
			c-0.4,0.9-1,1.6-1.7,2.1c-0.7,0.5-1.6,0.7-2.5,0.7C278.2,182.6,277.4,182.4,276.6,181.9z M281.4,179.9c0.6-0.8,0.9-1.9,0.9-3.4
			c0-1.5-0.3-2.6-0.9-3.4c-0.6-0.8-1.3-1.2-2.3-1.2c-1,0-1.7,0.4-2.3,1.2c-0.6,0.8-0.9,1.9-0.9,3.4c0,1.5,0.3,2.6,0.9,3.4
			s1.3,1.2,2.3,1.2C280.1,181.1,280.8,180.7,281.4,179.9z"/>
	</g>
	<g>
		<path class="st356" d="M371.8,170.6v11.9h-1.7v-10.4h-2.7v-1.5H371.8z"/>
		<path class="st356" d="M386.4,182.5l0-8.7l-4.3,7.2h-0.8l-4.3-7.2v8.6h-1.6v-11.9h1.4l5,8.4l4.9-8.4h1.4l0,11.9H386.4z"/>
	</g>
	<g>
		<path class="st356" d="M478.1,181v1.5h-8.6v-1.2l4.8-4.7c0.6-0.6,1-1.1,1.2-1.5c0.2-0.4,0.3-0.8,0.3-1.2c0-0.6-0.2-1.1-0.7-1.5
			c-0.4-0.3-1.1-0.5-1.9-0.5c-1.3,0-2.3,0.4-3,1.3l-1.2-1c0.5-0.6,1.1-1,1.8-1.3s1.6-0.5,2.5-0.5c1.2,0,2.2,0.3,3,0.9
			c0.7,0.6,1.1,1.4,1.1,2.4c0,0.6-0.1,1.2-0.4,1.8c-0.3,0.6-0.8,1.2-1.5,1.9L472,181H478.1z"/>
		<path class="st356" d="M491.5,182.5l0-8.7l-4.3,7.2h-0.8l-4.3-7.2v8.6h-1.6v-11.9h1.4l5,8.4l4.9-8.4h1.4l0,11.9H491.5z"/>
	</g>
	<g>
		<path class="st356" d="M582,176.7c0.6,0.6,0.9,1.4,0.9,2.3c0,0.7-0.2,1.3-0.5,1.8s-0.8,1-1.5,1.3c-0.7,0.3-1.5,0.5-2.5,0.5
			c-0.9,0-1.7-0.1-2.4-0.4c-0.8-0.3-1.4-0.6-1.9-1.1l0.8-1.3c0.4,0.4,0.9,0.7,1.6,0.9s1.3,0.3,2,0.3c0.9,0,1.6-0.2,2.1-0.6
			c0.5-0.4,0.7-0.9,0.7-1.5c0-0.7-0.2-1.2-0.7-1.5c-0.5-0.4-1.2-0.5-2.2-0.5h-1v-1.2l3-3.7h-5.7v-1.5h7.9v1.2l-3.1,3.8
			C580.5,175.7,581.4,176.1,582,176.7z"/>
		<path class="st356" d="M596.5,182.5l0-8.7l-4.3,7.2h-0.8l-4.3-7.2v8.6h-1.6v-11.9h1.4l5,8.4l4.9-8.4h1.4l0,11.9H596.5z"/>
	</g>
	<g>
		<path class="st356" d="M688.5,179.6h-2.3v2.9h-1.6v-2.9H678v-1.2l6.1-7.8h1.8l-5.8,7.5h4.6v-2.6h1.6v2.6h2.3V179.6z"/>
		<path class="st356" d="M701.5,182.5l0-8.7l-4.3,7.2h-0.8l-4.3-7.2v8.6h-1.6v-11.9h1.4l5,8.4l4.9-8.4h1.4l0,11.9H701.5z"/>
	</g>
</g>
</svg>
