<?xml version="1.0" encoding="utf-8"?>
<!-- Generator: Adobe Illustrator 24.3.0, SVG Export Plug-In . SVG Version: 6.00 Build 0)  -->
<svg version="1.1" id="Layer_1" xmlns="http://www.w3.org/2000/svg" xmlns:xlink="http://www.w3.org/1999/xlink" x="0px" y="0px"
	 viewBox="0 0 1280 1280" enable-background="new 0 0 1280 1280" xml:space="preserve">
<rect fill="#FFFFFF" width="1280" height="1280"/>
<g>
	<g>
		<g>
			<defs>
				<rect id="SVGID_1107_" x="217.82" y="516.08" width="840" height="504"/>
			</defs>
			<clipPath id="SVGID_2_">
				<use xlink:href="#SVGID_1107_"  overflow="visible"/>
			</clipPath>
			<rect x="221.82" y="520.08" clip-path="url(#SVGID_2_)" fill="#64615D" width="112" height="45.25"/>
			<rect x="333.82" y="520.08" clip-path="url(#SVGID_2_)" fill="#64615D" width="112" height="45.25"/>
			<rect x="445.82" y="520.08" clip-path="url(#SVGID_2_)" fill="#64615D" width="112" height="45.25"/>
			<rect x="557.82" y="520.08" clip-path="url(#SVGID_2_)" fill="#64615D" width="206" height="45.25"/>
			<rect x="763.82" y="520.08" clip-path="url(#SVGID_2_)" fill="#64615D" width="289.36" height="45.25"/>
			<rect x="221.82" y="610.33" clip-path="url(#SVGID_2_)" fill="#F0EBE3" width="112" height="45"/>
			<rect x="333.82" y="610.33" clip-path="url(#SVGID_2_)" fill="#F0EBE3" width="112" height="45"/>
			<rect x="445.82" y="610.33" clip-path="url(#SVGID_2_)" fill="#F0EBE3" width="112" height="45"/>
			<rect x="557.82" y="610.33" clip-path="url(#SVGID_2_)" fill="#F0EBE3" width="206" height="45"/>
			<rect x="763.82" y="610.33" clip-path="url(#SVGID_2_)" fill="#F0EBE3" width="289.36" height="45"/>
			<rect x="221.82" y="700.33" clip-path="url(#SVGID_2_)" fill="#F0EBE3" width="112" height="45"/>
			<rect x="333.82" y="700.33" clip-path="url(#SVGID_2_)" fill="#F0EBE3" width="112" height="45"/>
			<rect x="445.82" y="700.33" clip-path="url(#SVGID_2_)" fill="#F0EBE3" width="112" height="45"/>
			<rect x="557.82" y="700.33" clip-path="url(#SVGID_2_)" fill="#F0EBE3" width="206" height="45"/>
			<rect x="763.82" y="700.33" clip-path="url(#SVGID_2_)" fill="#F0EBE3" width="289.36" height="45"/>
			<rect x="221.82" y="790.33" clip-path="url(#SVGID_2_)" fill="#F0EBE3" width="112" height="45"/>
			<rect x="333.82" y="790.33" clip-path="url(#SVGID_2_)" fill="#F0EBE3" width="112" height="45"/>
			<rect x="445.82" y="790.33" clip-path="url(#SVGID_2_)" fill="#F0EBE3" width="112" height="45"/>
			<rect x="557.82" y="790.33" clip-path="url(#SVGID_2_)" fill="#F0EBE3" width="206" height="45"/>
			<rect x="763.82" y="790.33" clip-path="url(#SVGID_2_)" fill="#F0EBE3" width="289.36" height="45"/>
			<rect x="221.82" y="880.33" clip-path="url(#SVGID_2_)" fill="#F0EBE3" width="112" height="45"/>
			<rect x="333.82" y="880.33" clip-path="url(#SVGID_2_)" fill="#F0EBE3" width="112" height="45"/>
			<rect x="445.82" y="880.33" clip-path="url(#SVGID_2_)" fill="#F0EBE3" width="112" height="45"/>
			<rect x="557.82" y="880.33" clip-path="url(#SVGID_2_)" fill="#F0EBE3" width="206" height="45"/>
			<rect x="763.82" y="880.33" clip-path="url(#SVGID_2_)" fill="#F0EBE3" width="289.36" height="45"/>
			<rect x="221.82" y="970.33" clip-path="url(#SVGID_2_)" fill="#F0EBE3" width="112" height="45.25"/>
			<rect x="333.82" y="970.33" clip-path="url(#SVGID_2_)" fill="#F0EBE3" width="112" height="45.25"/>
			<rect x="445.82" y="970.33" clip-path="url(#SVGID_2_)" fill="#F0EBE3" width="112" height="45.25"/>
			<rect x="557.82" y="970.33" clip-path="url(#SVGID_2_)" fill="#F0EBE3" width="206" height="45.25"/>
			<rect x="763.82" y="970.33" clip-path="url(#SVGID_2_)" fill="#F0EBE3" width="289.36" height="45.25"/>
		</g>
		<g>
			<defs>
				<rect id="SVGID_1109_" x="222.57" y="520.83" width="111.25" height="44"/>
			</defs>
			<clipPath id="SVGID_4_">
				<use xlink:href="#SVGID_1109_"  overflow="visible"/>
			</clipPath>
			<g clip-path="url(#SVGID_4_)">
				<text transform="matrix(1 0 0 1 230.5723 549.5098)"><tspan x="0" y="0" fill="#FFFFFF" font-family="'AvenirNext-DemiBold'" font-size="20px" letter-spacing="-1">P</tspan><tspan x="10.92" y="0" fill="#FFFFFF" font-family="'AvenirNext-DemiBold'" font-size="20px">eriod</tspan></text>
			</g>
		</g>
		<g>
			<defs>
				<rect id="SVGID_1111_" x="333.82" y="520.83" width="112" height="44"/>
			</defs>
			<clipPath id="SVGID_6_">
				<use xlink:href="#SVGID_1111_"  overflow="visible"/>
			</clipPath>
			<g clip-path="url(#SVGID_6_)">
				<text transform="matrix(1 0 0 1 341.8223 549.5098)" fill="#FFFFFF" font-family="'AvenirNext-DemiBold'" font-size="20px">Month</text>
			</g>
		</g>
		<g>
			<defs>
				<rect id="SVGID_1113_" x="445.82" y="520.83" width="112" height="44"/>
			</defs>
			<clipPath id="SVGID_8_">
				<use xlink:href="#SVGID_1113_"  overflow="visible"/>
			</clipPath>
			<g clip-path="url(#SVGID_8_)">
				<text transform="matrix(1 0 0 1 453.8223 549.5098)"><tspan x="0" y="0" fill="#FFFFFF" font-family="'AvenirNext-DemiBold'" font-size="20px" letter-spacing="-1">P</tspan><tspan x="10.92" y="0" fill="#FFFFFF" font-family="'AvenirNext-DemiBold'" font-size="20px">erson</tspan></text>
			</g>
		</g>
		<g>
			<defs>
				<rect id="SVGID_1115_" x="557.82" y="520.83" width="206" height="44"/>
			</defs>
			<clipPath id="SVGID_10_">
				<use xlink:href="#SVGID_1115_"  overflow="visible"/>
			</clipPath>
			<g clip-path="url(#SVGID_10_)">
				<text transform="matrix(1 0 0 1 565.8223 549.5098)" fill="#FFFFFF" font-family="'AvenirNext-DemiBold'" font-size="20px">Salary</text>
			</g>
		</g>
		<g>
			<defs>
				<rect id="SVGID_1117_" x="763.82" y="520.83" width="288.61" height="44"/>
			</defs>
			<clipPath id="SVGID_12_">
				<use xlink:href="#SVGID_1117_"  overflow="visible"/>
			</clipPath>
			<g clip-path="url(#SVGID_12_)">
				<text transform="matrix(1 0 0 1 771.8223 549.5098)"><tspan x="0" y="0" fill="#FFFFFF" font-family="'AvenirNext-DemiBold'" font-size="20px" letter-spacing="-1">T</tspan><tspan x="9.44" y="0" fill="#FFFFFF" font-family="'AvenirNext-DemiBold'" font-size="20px">otal </tspan><tspan x="49.8" y="0" fill="#FFFFFF" font-family="'AvenirNext-DemiBold'" font-size="20px">C</tspan><tspan x="63.48" y="0" fill="#FFFFFF" font-family="'AvenirNext-DemiBold'" font-size="20px">ost</tspan></text>
			</g>
		</g>
		<g>
			<defs>
				<rect id="SVGID_1119_" x="222.57" y="565.83" width="110.75" height="44"/>
			</defs>
			<clipPath id="SVGID_14_">
				<use xlink:href="#SVGID_1119_"  overflow="visible"/>
			</clipPath>
			<g clip-path="url(#SVGID_14_)">
				<text transform="matrix(1 0 0 1 230.5723 594.5098)" font-family="'AvenirNext-Regular'" font-size="20px">1</text>
			</g>
		</g>
		<g>
			<defs>
				<rect id="SVGID_1121_" x="334.32" y="565.83" width="111" height="44"/>
			</defs>
			<clipPath id="SVGID_16_">
				<use xlink:href="#SVGID_1121_"  overflow="visible"/>
			</clipPath>
			<g clip-path="url(#SVGID_16_)">
				<text transform="matrix(1 0 0 1 366.043 594.5098)"><tspan x="0" y="0" font-family="'AvenirNext-Regular'" font-size="20px">J</tspan><tspan x="9.74" y="0" font-family="'AvenirNext-Regular'" font-size="20px">anuary</tspan></text>
			</g>
		</g>
		<g>
			<defs>
				<rect id="SVGID_1123_" x="446.32" y="565.83" width="111" height="44"/>
			</defs>
			<clipPath id="SVGID_18_">
				<use xlink:href="#SVGID_1123_"  overflow="visible"/>
			</clipPath>
			<g clip-path="url(#SVGID_18_)">
				<text transform="matrix(1 0 0 1 454.3223 594.5098)" font-family="'AvenirNext-Regular'" font-size="20px">1</text>
			</g>
		</g>
		<g>
			<defs>
				<rect id="SVGID_1125_" x="558.32" y="565.83" width="205" height="44"/>
			</defs>
			<clipPath id="SVGID_20_">
				<use xlink:href="#SVGID_1125_"  overflow="visible"/>
			</clipPath>
			<g clip-path="url(#SVGID_20_)">
				<text transform="matrix(1 0 0 1 566.3223 594.5098)"><tspan x="0" y="0" font-family="'AvenirNext-Regular'" font-size="20px">IDR</tspan><tspan x="32.32" y="0" font-family="'AvenirNext-Regular'" font-size="20px" letter-spacing="60"> </tspan><tspan x="97.38" y="0" font-family="'AvenirNext-Regular'" font-size="20px">6,000,000</tspan></text>
			</g>
		</g>
		<g>
			<defs>
				<rect id="SVGID_1127_" x="764.32" y="565.83" width="288.11" height="44"/>
			</defs>
			<clipPath id="SVGID_22_">
				<use xlink:href="#SVGID_1127_"  overflow="visible"/>
			</clipPath>
			<g clip-path="url(#SVGID_22_)">
				<text transform="matrix(1 0 0 1 772.3223 594.5098)"><tspan x="0" y="0" font-family="'AvenirNext-Regular'" font-size="20px">IDR</tspan><tspan x="32.32" y="0" font-family="'AvenirNext-Regular'" font-size="20px" letter-spacing="143"> </tspan><tspan x="180.5" y="0" font-family="'AvenirNext-Regular'" font-size="20px">6,000,000</tspan></text>
			</g>
		</g>
		<g>
			<defs>
				<rect id="SVGID_1129_" x="222.57" y="610.83" width="110.75" height="44"/>
			</defs>
			<clipPath id="SVGID_24_">
				<use xlink:href="#SVGID_1129_"  overflow="visible"/>
			</clipPath>
			<g clip-path="url(#SVGID_24_)">
				<text transform="matrix(1 0 0 1 230.5723 639.5098)" font-family="'AvenirNext-Regular'" font-size="20px">2</text>
			</g>
		</g>
		<g>
			<defs>
				<rect id="SVGID_1131_" x="334.32" y="610.83" width="111" height="44"/>
			</defs>
			<clipPath id="SVGID_26_">
				<use xlink:href="#SVGID_1131_"  overflow="visible"/>
			</clipPath>
			<g clip-path="url(#SVGID_26_)">
				<text transform="matrix(1 0 0 1 356.4023 639.5098)"><tspan x="0" y="0" font-family="'AvenirNext-Regular'" font-size="20px">F</tspan><tspan x="10.3" y="0" font-family="'AvenirNext-Regular'" font-size="20px">ebruary</tspan></text>
			</g>
		</g>
		<g>
			<defs>
				<rect id="SVGID_1133_" x="446.32" y="610.83" width="111" height="44"/>
			</defs>
			<clipPath id="SVGID_28_">
				<use xlink:href="#SVGID_1133_"  overflow="visible"/>
			</clipPath>
			<g clip-path="url(#SVGID_28_)">
				<text transform="matrix(1 0 0 1 454.3223 639.5098)" font-family="'AvenirNext-Regular'" font-size="20px">1</text>
			</g>
		</g>
		<g>
			<defs>
				<rect id="SVGID_1135_" x="558.32" y="610.83" width="205" height="44"/>
			</defs>
			<clipPath id="SVGID_30_">
				<use xlink:href="#SVGID_1135_"  overflow="visible"/>
			</clipPath>
			<g clip-path="url(#SVGID_30_)">
				<text transform="matrix(1 0 0 1 566.3223 639.5098)"><tspan x="0" y="0" font-family="'AvenirNext-Regular'" font-size="20px">IDR</tspan><tspan x="32.32" y="0" font-family="'AvenirNext-Regular'" font-size="20px" letter-spacing="60"> </tspan><tspan x="97.38" y="0" font-family="'AvenirNext-Regular'" font-size="20px">6,000,000</tspan></text>
			</g>
		</g>
		<g>
			<defs>
				<rect id="SVGID_1137_" x="764.32" y="610.83" width="288.11" height="44"/>
			</defs>
			<clipPath id="SVGID_32_">
				<use xlink:href="#SVGID_1137_"  overflow="visible"/>
			</clipPath>
			<g clip-path="url(#SVGID_32_)">
				<text transform="matrix(1 0 0 1 772.3223 639.5098)"><tspan x="0" y="0" font-family="'AvenirNext-Regular'" font-size="20px">IDR</tspan><tspan x="32.32" y="0" font-family="'AvenirNext-Regular'" font-size="20px" letter-spacing="143"> </tspan><tspan x="180.5" y="0" font-family="'AvenirNext-Regular'" font-size="20px">6,000,000</tspan></text>
			</g>
		</g>
		<g>
			<defs>
				<rect id="SVGID_1139_" x="222.57" y="655.83" width="110.75" height="44"/>
			</defs>
			<clipPath id="SVGID_34_">
				<use xlink:href="#SVGID_1139_"  overflow="visible"/>
			</clipPath>
			<g clip-path="url(#SVGID_34_)">
				<text transform="matrix(1 0 0 1 230.5723 684.5098)" font-family="'AvenirNext-Regular'" font-size="20px">3</text>
			</g>
		</g>
		<g>
			<defs>
				<rect id="SVGID_1141_" x="334.32" y="655.83" width="111" height="44"/>
			</defs>
			<clipPath id="SVGID_36_">
				<use xlink:href="#SVGID_1141_"  overflow="visible"/>
			</clipPath>
			<g clip-path="url(#SVGID_36_)">
				<text transform="matrix(1 0 0 1 380.4229 684.5098)"><tspan x="0" y="0" font-family="'AvenirNext-Regular'" font-size="20px">Ma</tspan><tspan x="28.4" y="0" font-family="'AvenirNext-Regular'" font-size="20px">r</tspan><tspan x="35.26" y="0" font-family="'AvenirNext-Regular'" font-size="20px">ch</tspan></text>
			</g>
		</g>
		<g>
			<defs>
				<rect id="SVGID_1143_" x="446.32" y="655.83" width="111" height="44"/>
			</defs>
			<clipPath id="SVGID_38_">
				<use xlink:href="#SVGID_1143_"  overflow="visible"/>
			</clipPath>
			<g clip-path="url(#SVGID_38_)">
				<text transform="matrix(1 0 0 1 454.3223 684.5098)" font-family="'AvenirNext-Regular'" font-size="20px">1</text>
			</g>
		</g>
		<g>
			<defs>
				<rect id="SVGID_1145_" x="558.32" y="655.83" width="205" height="44"/>
			</defs>
			<clipPath id="SVGID_40_">
				<use xlink:href="#SVGID_1145_"  overflow="visible"/>
			</clipPath>
			<g clip-path="url(#SVGID_40_)">
				<text transform="matrix(1 0 0 1 566.3223 684.5098)"><tspan x="0" y="0" font-family="'AvenirNext-Regular'" font-size="20px">IDR</tspan><tspan x="32.32" y="0" font-family="'AvenirNext-Regular'" font-size="20px" letter-spacing="60"> </tspan><tspan x="97.38" y="0" font-family="'AvenirNext-Regular'" font-size="20px">6,000,000</tspan></text>
			</g>
		</g>
		<g>
			<defs>
				<rect id="SVGID_1147_" x="764.32" y="655.83" width="288.11" height="44"/>
			</defs>
			<clipPath id="SVGID_42_">
				<use xlink:href="#SVGID_1147_"  overflow="visible"/>
			</clipPath>
			<g clip-path="url(#SVGID_42_)">
				<text transform="matrix(1 0 0 1 772.3223 684.5098)"><tspan x="0" y="0" font-family="'AvenirNext-Regular'" font-size="20px">IDR</tspan><tspan x="32.32" y="0" font-family="'AvenirNext-Regular'" font-size="20px" letter-spacing="143"> </tspan><tspan x="180.5" y="0" font-family="'AvenirNext-Regular'" font-size="20px">6,000,000</tspan></text>
			</g>
		</g>
		<g>
			<defs>
				<rect id="SVGID_1149_" x="222.57" y="700.83" width="110.75" height="44"/>
			</defs>
			<clipPath id="SVGID_44_">
				<use xlink:href="#SVGID_1149_"  overflow="visible"/>
			</clipPath>
			<g clip-path="url(#SVGID_44_)">
				<text transform="matrix(1 0 0 1 230.5723 729.5098)" font-family="'AvenirNext-Regular'" font-size="20px">4</text>
			</g>
		</g>
		<g>
			<defs>
				<rect id="SVGID_1151_" x="334.32" y="700.83" width="111" height="44"/>
			</defs>
			<clipPath id="SVGID_46_">
				<use xlink:href="#SVGID_1151_"  overflow="visible"/>
			</clipPath>
			<g clip-path="url(#SVGID_46_)">
				<text transform="matrix(1 0 0 1 393.3828 729.5098)" font-family="'AvenirNext-Regular'" font-size="20px">April</text>
			</g>
		</g>
		<g>
			<defs>
				<rect id="SVGID_1153_" x="446.32" y="700.83" width="111" height="44"/>
			</defs>
			<clipPath id="SVGID_48_">
				<use xlink:href="#SVGID_1153_"  overflow="visible"/>
			</clipPath>
			<g clip-path="url(#SVGID_48_)">
				<text transform="matrix(1 0 0 1 454.3223 729.5098)" font-family="'AvenirNext-Regular'" font-size="20px">3</text>
			</g>
		</g>
		<g>
			<defs>
				<rect id="SVGID_1155_" x="558.32" y="700.83" width="205" height="44"/>
			</defs>
			<clipPath id="SVGID_50_">
				<use xlink:href="#SVGID_1155_"  overflow="visible"/>
			</clipPath>
			<g clip-path="url(#SVGID_50_)">
				<text transform="matrix(1 0 0 1 566.3223 729.5098)"><tspan x="0" y="0" font-family="'AvenirNext-Regular'" font-size="20px">IDR</tspan><tspan x="32.32" y="0" font-family="'AvenirNext-Regular'" font-size="20px" letter-spacing="60"> </tspan><tspan x="97.38" y="0" font-family="'AvenirNext-Regular'" font-size="20px">7,000,000</tspan></text>
			</g>
		</g>
		<g>
			<defs>
				<rect id="SVGID_1157_" x="764.32" y="700.83" width="288.11" height="44"/>
			</defs>
			<clipPath id="SVGID_52_">
				<use xlink:href="#SVGID_1157_"  overflow="visible"/>
			</clipPath>
			<g clip-path="url(#SVGID_52_)">
				<text transform="matrix(1 0 0 1 772.3223 729.5098)"><tspan x="0" y="0" font-family="'AvenirNext-Regular'" font-size="20px">IDR</tspan><tspan x="32.32" y="0" font-family="'AvenirNext-Regular'" font-size="20px" letter-spacing="131"> </tspan><tspan x="168.9" y="0" font-family="'AvenirNext-Regular'" font-size="20px">21,000,000</tspan></text>
			</g>
		</g>
		<g>
			<defs>
				<rect id="SVGID_1159_" x="222.57" y="745.83" width="110.75" height="44"/>
			</defs>
			<clipPath id="SVGID_54_">
				<use xlink:href="#SVGID_1159_"  overflow="visible"/>
			</clipPath>
			<g clip-path="url(#SVGID_54_)">
				<text transform="matrix(1 0 0 1 230.5723 774.5098)" font-family="'AvenirNext-Regular'" font-size="20px">5</text>
			</g>
		</g>
		<g>
			<defs>
				<rect id="SVGID_1161_" x="334.32" y="745.83" width="111" height="44"/>
			</defs>
			<clipPath id="SVGID_56_">
				<use xlink:href="#SVGID_1161_"  overflow="visible"/>
			</clipPath>
			<g clip-path="url(#SVGID_56_)">
				<text transform="matrix(1 0 0 1 399.1631 774.5098)" font-family="'AvenirNext-Regular'" font-size="20px">May</text>
			</g>
		</g>
		<g>
			<defs>
				<rect id="SVGID_1163_" x="446.32" y="745.83" width="111" height="44"/>
			</defs>
			<clipPath id="SVGID_58_">
				<use xlink:href="#SVGID_1163_"  overflow="visible"/>
			</clipPath>
			<g clip-path="url(#SVGID_58_)">
				<text transform="matrix(1 0 0 1 454.3223 774.5098)" font-family="'AvenirNext-Regular'" font-size="20px">3</text>
			</g>
		</g>
		<g>
			<defs>
				<rect id="SVGID_1165_" x="558.32" y="745.83" width="205" height="44"/>
			</defs>
			<clipPath id="SVGID_60_">
				<use xlink:href="#SVGID_1165_"  overflow="visible"/>
			</clipPath>
			<g clip-path="url(#SVGID_60_)">
				<text transform="matrix(1 0 0 1 566.3223 774.5098)"><tspan x="0" y="0" font-family="'AvenirNext-Regular'" font-size="20px">IDR</tspan><tspan x="32.32" y="0" font-family="'AvenirNext-Regular'" font-size="20px" letter-spacing="60"> </tspan><tspan x="97.38" y="0" font-family="'AvenirNext-Regular'" font-size="20px">7,000,000</tspan></text>
			</g>
		</g>
		<g>
			<defs>
				<rect id="SVGID_1167_" x="764.32" y="745.83" width="288.11" height="44"/>
			</defs>
			<clipPath id="SVGID_62_">
				<use xlink:href="#SVGID_1167_"  overflow="visible"/>
			</clipPath>
			<g clip-path="url(#SVGID_62_)">
				<text transform="matrix(1 0 0 1 772.3223 774.5098)"><tspan x="0" y="0" font-family="'AvenirNext-Regular'" font-size="20px">IDR</tspan><tspan x="32.32" y="0" font-family="'AvenirNext-Regular'" font-size="20px" letter-spacing="131"> </tspan><tspan x="168.9" y="0" font-family="'AvenirNext-Regular'" font-size="20px">21,000,000</tspan></text>
			</g>
		</g>
		<g>
			<defs>
				<rect id="SVGID_1169_" x="222.57" y="790.83" width="110.75" height="44"/>
			</defs>
			<clipPath id="SVGID_64_">
				<use xlink:href="#SVGID_1169_"  overflow="visible"/>
			</clipPath>
			<g clip-path="url(#SVGID_64_)">
				<text transform="matrix(1 0 0 1 230.5723 819.5098)" font-family="'AvenirNext-Regular'" font-size="20px">6</text>
			</g>
		</g>
		<g>
			<defs>
				<rect id="SVGID_1171_" x="334.32" y="790.83" width="111" height="44"/>
			</defs>
			<clipPath id="SVGID_66_">
				<use xlink:href="#SVGID_1171_"  overflow="visible"/>
			</clipPath>
			<g clip-path="url(#SVGID_66_)">
				<text transform="matrix(1 0 0 1 392.8027 819.5098)" font-family="'AvenirNext-Regular'" font-size="20px">June</text>
			</g>
		</g>
		<g>
			<defs>
				<rect id="SVGID_1173_" x="446.32" y="790.83" width="111" height="44"/>
			</defs>
			<clipPath id="SVGID_68_">
				<use xlink:href="#SVGID_1173_"  overflow="visible"/>
			</clipPath>
			<g clip-path="url(#SVGID_68_)">
				<text transform="matrix(1 0 0 1 454.3223 819.5098)" font-family="'AvenirNext-Regular'" font-size="20px">3</text>
			</g>
		</g>
		<g>
			<defs>
				<rect id="SVGID_1175_" x="558.32" y="790.83" width="205" height="44"/>
			</defs>
			<clipPath id="SVGID_70_">
				<use xlink:href="#SVGID_1175_"  overflow="visible"/>
			</clipPath>
			<g clip-path="url(#SVGID_70_)">
				<text transform="matrix(1 0 0 1 566.3223 819.5098)"><tspan x="0" y="0" font-family="'AvenirNext-Regular'" font-size="20px">IDR</tspan><tspan x="32.32" y="0" font-family="'AvenirNext-Regular'" font-size="20px" letter-spacing="60"> </tspan><tspan x="97.38" y="0" font-family="'AvenirNext-Regular'" font-size="20px">7,000,000</tspan></text>
			</g>
		</g>
		<g>
			<defs>
				<rect id="SVGID_1177_" x="764.32" y="790.83" width="288.11" height="44"/>
			</defs>
			<clipPath id="SVGID_72_">
				<use xlink:href="#SVGID_1177_"  overflow="visible"/>
			</clipPath>
			<g clip-path="url(#SVGID_72_)">
				<text transform="matrix(1 0 0 1 772.3223 819.5098)"><tspan x="0" y="0" font-family="'AvenirNext-Regular'" font-size="20px">IDR</tspan><tspan x="32.32" y="0" font-family="'AvenirNext-Regular'" font-size="20px" letter-spacing="131"> </tspan><tspan x="168.9" y="0" font-family="'AvenirNext-Regular'" font-size="20px">21,000,000</tspan></text>
			</g>
		</g>
		<g>
			<defs>
				<rect id="SVGID_1179_" x="222.57" y="835.83" width="110.75" height="44"/>
			</defs>
			<clipPath id="SVGID_98_">
				<use xlink:href="#SVGID_1179_"  overflow="visible"/>
			</clipPath>
			<g clip-path="url(#SVGID_98_)">
				<text transform="matrix(1 0 0 1 230.5723 864.5098)" font-family="'AvenirNext-Regular'" font-size="20px">7</text>
			</g>
		</g>
		<g>
			<defs>
				<rect id="SVGID_1181_" x="334.32" y="835.83" width="111" height="44"/>
			</defs>
			<clipPath id="SVGID_100_">
				<use xlink:href="#SVGID_1181_"  overflow="visible"/>
			</clipPath>
			<g clip-path="url(#SVGID_100_)">
				<text transform="matrix(1 0 0 1 401.0625 864.5098)" font-family="'AvenirNext-Regular'" font-size="20px">July</text>
			</g>
		</g>
		<g>
			<defs>
				<rect id="SVGID_1183_" x="446.32" y="835.83" width="111" height="44"/>
			</defs>
			<clipPath id="SVGID_102_">
				<use xlink:href="#SVGID_1183_"  overflow="visible"/>
			</clipPath>
			<g clip-path="url(#SVGID_102_)">
				<text transform="matrix(1 0 0 1 454.3223 864.5098)" font-family="'AvenirNext-Regular'" font-size="20px">3</text>
			</g>
		</g>
		<g>
			<defs>
				<rect id="SVGID_1185_" x="558.32" y="835.83" width="205" height="44"/>
			</defs>
			<clipPath id="SVGID_104_">
				<use xlink:href="#SVGID_1185_"  overflow="visible"/>
			</clipPath>
			<g clip-path="url(#SVGID_104_)">
				<text transform="matrix(1 0 0 1 566.3223 864.5098)"><tspan x="0" y="0" font-family="'AvenirNext-Regular'" font-size="20px">IDR</tspan><tspan x="32.32" y="0" font-family="'AvenirNext-Regular'" font-size="20px" letter-spacing="60"> </tspan><tspan x="97.38" y="0" font-family="'AvenirNext-Regular'" font-size="20px">7,000,000</tspan></text>
			</g>
		</g>
		<g>
			<defs>
				<rect id="SVGID_1187_" x="764.32" y="835.83" width="288.11" height="44"/>
			</defs>
			<clipPath id="SVGID_106_">
				<use xlink:href="#SVGID_1187_"  overflow="visible"/>
			</clipPath>
			<g clip-path="url(#SVGID_106_)">
				<text transform="matrix(1 0 0 1 772.3223 864.5098)"><tspan x="0" y="0" font-family="'AvenirNext-Regular'" font-size="20px">IDR</tspan><tspan x="32.32" y="0" font-family="'AvenirNext-Regular'" font-size="20px" letter-spacing="131"> </tspan><tspan x="168.9" y="0" font-family="'AvenirNext-Regular'" font-size="20px">21,000,000</tspan></text>
			</g>
		</g>
		<g>
			<defs>
				<rect id="SVGID_1189_" x="222.57" y="880.83" width="110.75" height="44"/>
			</defs>
			<clipPath id="SVGID_108_">
				<use xlink:href="#SVGID_1189_"  overflow="visible"/>
			</clipPath>
			<g clip-path="url(#SVGID_108_)">
				<text transform="matrix(1 0 0 1 230.5723 909.5098)" font-family="'AvenirNext-Regular'" font-size="20px">8</text>
			</g>
		</g>
		<g>
			<defs>
				<rect id="SVGID_1191_" x="334.32" y="880.83" width="111" height="44"/>
			</defs>
			<clipPath id="SVGID_110_">
				<use xlink:href="#SVGID_1191_"  overflow="visible"/>
			</clipPath>
			<g clip-path="url(#SVGID_110_)">
				<text transform="matrix(1 0 0 1 372.2227 909.5098)" font-family="'AvenirNext-Regular'" font-size="20px">August</text>
			</g>
		</g>
		<g>
			<defs>
				<rect id="SVGID_1193_" x="446.32" y="880.83" width="111" height="44"/>
			</defs>
			<clipPath id="SVGID_112_">
				<use xlink:href="#SVGID_1193_"  overflow="visible"/>
			</clipPath>
			<g clip-path="url(#SVGID_112_)">
				<text transform="matrix(1 0 0 1 454.3223 909.5098)" font-family="'AvenirNext-Regular'" font-size="20px">3</text>
			</g>
		</g>
		<g>
			<defs>
				<rect id="SVGID_1195_" x="558.32" y="880.83" width="205" height="44"/>
			</defs>
			<clipPath id="SVGID_114_">
				<use xlink:href="#SVGID_1195_"  overflow="visible"/>
			</clipPath>
			<g clip-path="url(#SVGID_114_)">
				<text transform="matrix(1 0 0 1 566.3223 909.5098)"><tspan x="0" y="0" font-family="'AvenirNext-Regular'" font-size="20px">IDR</tspan><tspan x="32.32" y="0" font-family="'AvenirNext-Regular'" font-size="20px" letter-spacing="60"> </tspan><tspan x="97.38" y="0" font-family="'AvenirNext-Regular'" font-size="20px">7,000,000</tspan></text>
			</g>
		</g>
		<g>
			<defs>
				<rect id="SVGID_1197_" x="764.32" y="880.83" width="288.11" height="44"/>
			</defs>
			<clipPath id="SVGID_116_">
				<use xlink:href="#SVGID_1197_"  overflow="visible"/>
			</clipPath>
			<g clip-path="url(#SVGID_116_)">
				<text transform="matrix(1 0 0 1 772.3223 909.5098)"><tspan x="0" y="0" font-family="'AvenirNext-Regular'" font-size="20px">IDR</tspan><tspan x="32.32" y="0" font-family="'AvenirNext-Regular'" font-size="20px" letter-spacing="131"> </tspan><tspan x="168.9" y="0" font-family="'AvenirNext-Regular'" font-size="20px">21,000,000</tspan></text>
			</g>
		</g>
		<g>
			<defs>
				<rect id="SVGID_1199_" x="217.82" y="516.08" width="840" height="504"/>
			</defs>
			<clipPath id="SVGID_118_">
				<use xlink:href="#SVGID_1199_"  overflow="visible"/>
			</clipPath>
			<rect x="221.82" y="925.33" opacity="0" clip-path="url(#SVGID_118_)" fill="#396478" width="112" height="45"/>
			<rect x="333.82" y="925.33" opacity="0" clip-path="url(#SVGID_118_)" fill="#69A926" width="112" height="45"/>
			<rect x="445.82" y="925.33" opacity="0" clip-path="url(#SVGID_118_)" fill="#5CDF9F" width="112" height="45"/>
			<rect x="557.82" y="925.33" opacity="0" clip-path="url(#SVGID_118_)" fill="#27CFC1" width="206" height="45"/>
			<rect x="763.82" y="925.33" opacity="0" clip-path="url(#SVGID_118_)" fill="#6E666D" width="289.36" height="45"/>
			<rect x="221.82" y="970.33" opacity="0" clip-path="url(#SVGID_118_)" fill="#4F9D1D" width="112" height="45.25"/>
			<rect x="333.82" y="970.33" opacity="0" clip-path="url(#SVGID_118_)" fill="#E676E2" width="112" height="45.25"/>
			<rect x="445.82" y="970.33" opacity="0" clip-path="url(#SVGID_118_)" fill="#AF7C7F" width="112" height="45.25"/>
		</g>
		<g>
			<defs>
				<rect id="SVGID_1201_" x="558.32" y="970.83" width="205" height="44"/>
			</defs>
			<clipPath id="SVGID_120_">
				<use xlink:href="#SVGID_1201_"  overflow="visible"/>
			</clipPath>
			<g clip-path="url(#SVGID_120_)">
				<text transform="matrix(1 0 0 1 566.3223 999.5098)"><tspan x="0" y="0" font-family="'AvenirNext-Bold'" font-size="20px">SUB</tspan><tspan x="39.88" y="0" font-family="'AvenirNext-Bold'" font-size="20px" letter-spacing="-1">-</tspan><tspan x="44.62" y="0" font-family="'AvenirNext-Bold'" font-size="20px">T</tspan><tspan x="55.66" y="0" font-family="'AvenirNext-Bold'" font-size="20px">O</tspan><tspan x="72.08" y="0" font-family="'AvenirNext-Bold'" font-size="20px" letter-spacing="-1">T</tspan><tspan x="82.52" y="0" font-family="'AvenirNext-Bold'" font-size="20px">AL</tspan></text>
			</g>
		</g>
		<g>
			<defs>
				<rect id="SVGID_1203_" x="764.32" y="970.83" width="288.11" height="44"/>
			</defs>
			<clipPath id="SVGID_122_">
				<use xlink:href="#SVGID_1203_"  overflow="visible"/>
			</clipPath>
			<g clip-path="url(#SVGID_122_)">
				<text transform="matrix(1 0 0 1 772.3223 999.5098)"><tspan x="0" y="0" font-family="'AvenirNext-Bold'" font-size="20px">IDR</tspan><tspan x="35.1" y="0" font-family="'AvenirNext-Bold'" font-size="20px" letter-spacing="103"> </tspan><tspan x="143.82" y="0" font-family="'AvenirNext-Bold'" font-size="20px">123,000,000</tspan></text>
			</g>
		</g>
		<g>
			<defs>
				<rect id="SVGID_1205_" x="217.82" y="516.08" width="840" height="504"/>
			</defs>
			<clipPath id="SVGID_124_">
				<use xlink:href="#SVGID_1205_"  overflow="visible"/>
			</clipPath>
			
				<line clip-path="url(#SVGID_124_)" fill="none" stroke="#CFCCC9" stroke-width="0.5" x1="333.82" y1="564.33" x2="333.82" y2="1016.58"/>
			
				<line clip-path="url(#SVGID_124_)" fill="none" stroke="#CFCCC9" stroke-width="0.5" x1="445.82" y1="564.33" x2="445.82" y2="1016.58"/>
			
				<line clip-path="url(#SVGID_124_)" fill="none" stroke="#CFCCC9" stroke-width="0.5" x1="557.82" y1="564.33" x2="557.82" y2="1016.58"/>
			
				<line clip-path="url(#SVGID_124_)" fill="none" stroke="#CFCCC9" stroke-width="0.5" x1="763.82" y1="564.33" x2="763.82" y2="1016.58"/>
			
				<line clip-path="url(#SVGID_124_)" fill="none" stroke="#CFCCC9" stroke-width="0.5" x1="220.82" y1="610.33" x2="1054.19" y2="610.33"/>
			
				<line clip-path="url(#SVGID_124_)" fill="none" stroke="#CFCCC9" stroke-width="0.5" x1="220.82" y1="655.33" x2="1054.19" y2="655.33"/>
			
				<line clip-path="url(#SVGID_124_)" fill="none" stroke="#CFCCC9" stroke-width="0.5" x1="220.82" y1="700.33" x2="1054.19" y2="700.33"/>
			
				<line clip-path="url(#SVGID_124_)" fill="none" stroke="#CFCCC9" stroke-width="0.5" x1="220.82" y1="745.33" x2="1054.19" y2="745.33"/>
			
				<line clip-path="url(#SVGID_124_)" fill="none" stroke="#CFCCC9" stroke-width="0.5" x1="220.82" y1="790.33" x2="1054.19" y2="790.33"/>
			
				<line clip-path="url(#SVGID_124_)" fill="none" stroke="#CFCCC9" stroke-width="0.5" x1="220.82" y1="835.33" x2="1054.19" y2="835.33"/>
			
				<line clip-path="url(#SVGID_124_)" fill="none" stroke="#CFCCC9" stroke-width="0.5" x1="220.82" y1="880.33" x2="1054.19" y2="880.33"/>
			
				<line clip-path="url(#SVGID_124_)" fill="none" stroke="#CFCCC9" stroke-width="0.5" x1="220.82" y1="925.33" x2="1054.19" y2="925.33"/>
			
				<line clip-path="url(#SVGID_124_)" fill="none" stroke="#CFCCC9" stroke-width="0.5" x1="220.82" y1="970.33" x2="1054.19" y2="970.33"/>
			
				<line clip-path="url(#SVGID_124_)" fill="none" stroke="#CFCCC9" stroke-width="0.5" x1="220.82" y1="565.33" x2="1054.19" y2="565.33"/>
			
				<line clip-path="url(#SVGID_124_)" fill="none" stroke="#B6B2AD" stroke-width="0.75" x1="221.82" y1="519.08" x2="221.82" y2="565.33"/>
			
				<line clip-path="url(#SVGID_124_)" fill="none" stroke="#B6B2AD" stroke-width="0.75" x1="221.82" y1="565.33" x2="221.82" y2="1016.58"/>
			
				<line clip-path="url(#SVGID_124_)" fill="none" stroke="#B6B2AD" stroke-width="0.75" x1="1053.19" y1="519.08" x2="1053.19" y2="565.33"/>
			
				<line clip-path="url(#SVGID_124_)" fill="none" stroke="#B6B2AD" stroke-width="0.75" x1="1053.19" y1="565.33" x2="1053.19" y2="1016.58"/>
			
				<line clip-path="url(#SVGID_124_)" fill="none" stroke="#B6B2AD" stroke-width="0.75" x1="220.82" y1="520.08" x2="1054.19" y2="520.08"/>
			
				<line clip-path="url(#SVGID_124_)" fill="none" stroke="#B6B2AD" stroke-width="0.75" x1="220.82" y1="1015.58" x2="1054.19" y2="1015.58"/>
		</g>
		<g>
			<defs>
				<rect id="SVGID_1207_" x="217.82" y="297.38" width="840" height="144"/>
			</defs>
			<clipPath id="SVGID_126_">
				<use xlink:href="#SVGID_1207_"  overflow="visible"/>
			</clipPath>
			<rect x="221.82" y="301.38" clip-path="url(#SVGID_126_)" fill="#E5E3E0" width="542" height="45.25"/>
			<rect x="221.82" y="346.63" clip-path="url(#SVGID_126_)" fill="#E5E3E0" width="542" height="45"/>
			<rect x="763.82" y="346.63" clip-path="url(#SVGID_126_)" fill="#F0EBE3" width="290.11" height="45"/>
			<rect x="221.82" y="391.63" clip-path="url(#SVGID_126_)" fill="#E5E3E0" width="542" height="45.25"/>
		</g>
		<g>
			<defs>
				<rect id="SVGID_1209_" x="222.57" y="302.13" width="540.75" height="44"/>
			</defs>
			<clipPath id="SVGID_128_">
				<use xlink:href="#SVGID_1209_"  overflow="visible"/>
			</clipPath>
			<g clip-path="url(#SVGID_128_)">
				<text transform="matrix(1 0 0 1 230.5723 330.8096)"><tspan x="0" y="0" font-family="'AvenirNext-DemiBold'" font-size="20px">W</tspan><tspan x="19.36" y="0" font-family="'AvenirNext-DemiBold'" font-size="20px">orking hour</tspan></text>
			</g>
		</g>
		<g>
			<defs>
				<rect id="SVGID_1211_" x="764.32" y="302.13" width="288.86" height="44"/>
			</defs>
			<clipPath id="SVGID_130_">
				<use xlink:href="#SVGID_1211_"  overflow="visible"/>
			</clipPath>
			<g clip-path="url(#SVGID_130_)">
				<text transform="matrix(1 0 0 1 772.3223 330.8096)"><tspan x="0" y="0" font-family="'AvenirNext-Regular'" font-size="20px">8</tspan><tspan x="11.6" y="0" font-family="'AvenirNext-Regular'" font-size="20px"> </tspan><tspan x="16.38" y="0" font-family="'AvenirNext-Regular'" font-size="20px">J</tspan><tspan x="26.12" y="0" font-family="'AvenirNext-Regular'" font-size="20px">am / Hari</tspan></text>
			</g>
		</g>
		<g>
			<defs>
				<rect id="SVGID_1213_" x="222.57" y="347.13" width="540.75" height="44"/>
			</defs>
			<clipPath id="SVGID_132_">
				<use xlink:href="#SVGID_1213_"  overflow="visible"/>
			</clipPath>
			<g clip-path="url(#SVGID_132_)">
				<text transform="matrix(1 0 0 1 230.5723 375.8096)" font-family="'AvenirNext-DemiBold'" font-size="20px">Budget</text>
			</g>
		</g>
		<g>
			<defs>
				<rect id="SVGID_1215_" x="764.32" y="347.13" width="288.86" height="44"/>
			</defs>
			<clipPath id="SVGID_134_">
				<use xlink:href="#SVGID_1215_"  overflow="visible"/>
			</clipPath>
			<g clip-path="url(#SVGID_134_)">
				<text transform="matrix(1 0 0 1 772.3223 375.8096)"><tspan x="0" y="0" font-family="'AvenirNext-Regular'" font-size="20px">IDR</tspan><tspan x="32.32" y="0" font-family="'AvenirNext-Regular'" font-size="20px" letter-spacing="120"> </tspan><tspan x="158.06" y="0" font-family="'AvenirNext-Regular'" font-size="20px">140,000,000</tspan></text>
			</g>
		</g>
		<g>
			<defs>
				<rect id="SVGID_1217_" x="222.57" y="392.13" width="540.75" height="44"/>
			</defs>
			<clipPath id="SVGID_136_">
				<use xlink:href="#SVGID_1217_"  overflow="visible"/>
			</clipPath>
			<g clip-path="url(#SVGID_136_)">
				<text transform="matrix(1 0 0 1 230.5723 420.8096)"><tspan x="0" y="0" font-family="'AvenirNext-DemiBold'" font-size="20px">Alloc</tspan><tspan x="46.8" y="0" font-family="'AvenirNext-DemiBold'" font-size="20px">a</tspan><tspan x="57.62" y="0" font-family="'AvenirNext-DemiBold'" font-size="20px">ted to </tspan></text>
			</g>
			<g clip-path="url(#SVGID_136_)">
				<text transform="matrix(1 0 0 1 348.1328 420.8096)"><tspan x="0" y="0" font-family="'AvenirNext-DemiBoldItalic'" font-size="20px">PET</tspan><tspan x="34.52" y="0" font-family="'AvenirNext-DemiBoldItalic'" font-size="20px">T</tspan><tspan x="44.96" y="0" font-family="'AvenirNext-DemiBoldItalic'" font-size="20px">Y</tspan><tspan x="56" y="0" font-family="'AvenirNext-DemiBoldItalic'" font-size="20px"> </tspan><tspan x="61" y="0" font-family="'AvenirNext-DemiBoldItalic'" font-size="20px">C</tspan><tspan x="74.4" y="0" font-family="'AvenirNext-DemiBoldItalic'" font-size="20px">ASH</tspan></text>
			</g>
		</g>
		<g>
			<defs>
				<rect id="SVGID_1219_" x="764.32" y="392.13" width="288.86" height="44"/>
			</defs>
			<clipPath id="SVGID_138_">
				<use xlink:href="#SVGID_1219_"  overflow="visible"/>
			</clipPath>
			<g clip-path="url(#SVGID_138_)">
				<text transform="matrix(1 0 0 1 772.3223 420.8096)"><tspan x="0" y="0" font-family="'AvenirNext-Regular'" font-size="20px">IDR</tspan><tspan x="32.32" y="0" font-family="'AvenirNext-Regular'" font-size="20px" letter-spacing="132"> </tspan><tspan x="169.66" y="0" font-family="'AvenirNext-Regular'" font-size="20px">17,000,000</tspan></text>
			</g>
		</g>
		<g>
			<defs>
				<rect id="SVGID_1221_" x="217.82" y="297.38" width="840" height="144"/>
			</defs>
			<clipPath id="SVGID_140_">
				<use xlink:href="#SVGID_1221_"  overflow="visible"/>
			</clipPath>
			
				<line clip-path="url(#SVGID_140_)" fill="none" stroke="#CFCCC9" stroke-width="0.5" x1="220.82" y1="346.63" x2="763.82" y2="346.63"/>
			
				<line clip-path="url(#SVGID_140_)" fill="none" stroke="#CFCCC9" stroke-width="0.5" x1="763.82" y1="346.63" x2="1054.94" y2="346.63"/>
			
				<line clip-path="url(#SVGID_140_)" fill="none" stroke="#CFCCC9" stroke-width="0.5" x1="220.82" y1="391.63" x2="763.82" y2="391.63"/>
			
				<line clip-path="url(#SVGID_140_)" fill="none" stroke="#CFCCC9" stroke-width="0.5" x1="763.82" y1="391.63" x2="1054.94" y2="391.63"/>
			
				<line clip-path="url(#SVGID_140_)" fill="none" stroke="#CFCCC9" stroke-width="0.5" x1="763.82" y1="300.38" x2="763.82" y2="437.88"/>
			
				<line clip-path="url(#SVGID_140_)" fill="none" stroke="#B6B2AD" stroke-width="0.75" x1="221.82" y1="300.38" x2="221.82" y2="437.88"/>
			
				<line clip-path="url(#SVGID_140_)" fill="none" stroke="#B6B2AD" stroke-width="0.75" x1="1053.94" y1="300.38" x2="1053.94" y2="437.88"/>
			
				<line clip-path="url(#SVGID_140_)" fill="none" stroke="#B6B2AD" stroke-width="0.75" x1="220.82" y1="301.38" x2="763.82" y2="301.38"/>
			
				<line clip-path="url(#SVGID_140_)" fill="none" stroke="#B6B2AD" stroke-width="0.75" x1="763.82" y1="301.38" x2="1054.94" y2="301.38"/>
			
				<line clip-path="url(#SVGID_140_)" fill="none" stroke="#B6B2AD" stroke-width="0.75" x1="220.82" y1="436.88" x2="763.82" y2="436.88"/>
			
				<line clip-path="url(#SVGID_140_)" fill="none" stroke="#B6B2AD" stroke-width="0.75" x1="763.82" y1="436.88" x2="1054.94" y2="436.88"/>
		</g>
		<g>
			<defs>
				<rect id="SVGID_1223_" x="220.26" y="210.73" width="116.1" height="84.72"/>
			</defs>
			<clipPath id="SVGID_142_">
				<use xlink:href="#SVGID_1223_"  overflow="visible"/>
			</clipPath>
			<g clip-path="url(#SVGID_142_)">
				<text transform="matrix(1 0 0 1 229.8223 248.042)"><tspan x="0" y="0" font-family="'AvenirNext-Bold'" font-size="28px">A</tspan><tspan x="19.94" y="0" font-family="'AvenirNext-Bold'" font-size="28px">UDIO</tspan></text>
			</g>
		</g>
	</g>
</g>
</svg>
