<?xml version="1.0" encoding="utf-8"?>
<!-- Generator: Adobe Illustrator 24.3.0, SVG Export Plug-In . SVG Version: 6.00 Build 0)  -->
<svg version="1.1" id="Layer_1" xmlns="http://www.w3.org/2000/svg" xmlns:xlink="http://www.w3.org/1999/xlink" x="0px" y="0px"
	 viewBox="0 0 1000 1000" style="enable-background:new 0 0 1000 1000;" xml:space="preserve">
<style type="text/css">
	.st0{fill:#2A2A2A;}
	.st1{fill:#07003C;}
	.st2{fill:#F2CFB1;}
	.st3{opacity:0.58;}
	.st4{fill:#EAEAEA;}
	.st5{fill:#C6C6C6;}
	.st6{fill:#D8D8D8;}
	.st7{fill:#87D1E8;}
	.st8{fill:#EF9E9D;}
	.st9{opacity:0.39;fill:#EF9E9D;enable-background:new    ;}
	.st10{fill:#DD8A8A;}
	.st11{fill:#BBEAF2;}
	.st12{opacity:0.52;fill:#92D7E7;enable-background:new    ;}
	.st13{opacity:0.48;fill:#92D7E7;enable-background:new    ;}
	.st14{fill:#D3B379;}
	.st15{fill:#D0EDF5;}
	.st16{fill:#FFFFFF;}
	.st17{opacity:0.84;fill:#D8D8D8;enable-background:new    ;}
</style>
<g>
	<path class="st0" d="M682.5,453.3h-13.7h-27.9v-24.9h18.4h9.5c1.7,0,3-1.3,3-3s-1.3-3-3-3h-9.5h-21.4h-27.9v-27.9c0-1.7-1.3-3-3-3
		s-3,1.3-3,3v27.9H576H545H524c-1.7,0-3,1.3-3,3s1.3,3,3,3H545H573v24.9H545c-1.7,0-3,1.3-3,3s1.3,3,3,3H576h27.9v24.9h-47.2
		c-1.7,0-3,1.3-3,3s1.3,3,3,3h50.2h17.6h0c1.7,0,3-1.3,3-3s-1.3-3-3-3h-14.6v-24.9h27.9h30.9h13.7c1.7,0,3-1.3,3-3
		S684.1,453.3,682.5,453.3z M579,453.3v-24.9h27.9h27.9v24.9h-27.9H579z"/>
	<path class="st0" d="M935.7,626.4H922H894v-24.9h18.4h9.5c1.7,0,3-1.3,3-3s-1.3-3-3-3h-9.5H891h-27.9v-27.9c0-1.7-1.3-3-3-3
		s-3,1.3-3,3v27.9h-27.9h-30.9h-21.1c-1.7,0-3,1.3-3,3s1.3,3,3,3h21.1h27.9v24.9h-27.9c-1.7,0-3,1.3-3,3s1.3,3,3,3h30.9h27.9v24.9
		H810c-1.7,0-3,1.3-3,3s1.3,3,3,3h50.2h17.6c1.7,0,3-1.3,3-3s-1.3-3-3-3h-14.6v-24.9H891H922h13.7h0c1.7,0,3-1.3,3-3
		S937.3,626.4,935.7,626.4z M832.2,601.5h27.9H888v24.9h-27.9h-27.9V601.5z"/>
	<path class="st0" d="M194.7,581.5H153v-24.9h18.4h9.5v0c1.7,0,3-1.3,3-3s-1.3-3-3-3h-58.9v-27.9c0-1.7-1.3-3-3-3c-1.7,0-3,1.3-3,3
		v27.9H88.2H57.3H36.2c-1.7,0-3,1.3-3,3s1.3,3,3,3h21.1h27.9v24.9H57.3c-1.7,0-3,1.3-3,3c0,0,0,0,0,0s0,0,0,0c0,1.7,1.3,3,3,3h58.9
		v24.9H69c-1.7,0-3,1.3-3,3s1.3,3,3,3h50.2h17.6c1.7,0,3-1.3,3-3s-1.3-3-3-3h-14.6v-24.9H181c0,0,0,0,0,0h13.7c1.7,0,3-1.3,3-3
		S196.3,581.5,194.7,581.5z M119.1,556.5C119.1,556.5,119.1,556.5,119.1,556.5H147v24.9H91.2v-24.9H119.1z"/>
</g>
<g>
	<g id="Layer_1_1_">
		<path class="st1" d="M531.3,779.6h-79.2c-2.8,0-5-2.2-5-5s2.2-5,5-5h79.2c2.8,0,5,2.2,5,5S534.1,779.6,531.3,779.6z"/>
		<path class="st1" d="M430,779.6h-12.7c-2.8,0-5-2.2-5-5s2.2-5,5-5H430c2.8,0,5,2.2,5,5S432.8,779.6,430,779.6z"/>
		<path class="st1" d="M902.9,731H618c-2.8,0-5-2.2-5-5s2.2-5,5-5h284.9c2.8,0,5,2.2,5,5S905.7,731,902.9,731z"/>
		<path class="st1" d="M548,731H148.3c-2.8,0-5-2.2-5-5s2.2-5,5-5H548c2.8,0,5,2.2,5,5S550.8,731,548,731z"/>
		<path class="st1" d="M125.5,731H119c-2.8,0-5-2.2-5-5s2.2-5,5-5h6.5c2.8,0,5,2.2,5,5S128.3,731,125.5,731z"/>
		<path class="st1" d="M100,731H75.8c-2.8,0-5-2.2-5-5s2.2-5,5-5H100c2.8,0,5,2.2,5,5S102.8,731,100,731z"/>
		<path class="st2" d="M475.2,560.5c-10,0-19,5.8-23.2,14.8l-5.5-1.2c9.1-16,3.5-36.4-12.5-45.5c-15.4-8.8-35-3.9-44.6,11
			c-9.9-15.5-30.6-20-46.1-10.1c-0.8,0.5-1.5,1-2.2,1.6c-5.8-21.2-27.8-33.7-49-27.8c-12.7,3.5-22.9,13-27.1,25.5
			c-16-9.4-36.5-4-45.8,11.9c-3,5.1-4.6,11-4.6,17c0,0,0,0.1,0,0.1c-0.8-0.1-1.5-0.1-2.3-0.1c-15.7,0-28.5,12.8-28.5,28.5
			c0,0,0,0,0,0v50.1h317.2v-50.1C500.8,572,489.4,560.5,475.2,560.5z"/>
		<g class="st3">
			<path class="st2" d="M475.2,560.5c-10,0-19,5.8-23.2,14.8l-1.2-0.3c-0.4,4.9-1.8,9.7-4.3,14.1l5.5,1.2
				c6-12.8,21.2-18.4,34.1-12.4c9,4.2,14.8,13.3,14.8,23.2v-15C500.8,572,489.4,560.5,475.2,560.5z"/>
			<path class="st2" d="M212.2,572.6c0.8,0,1.5,0,2.3,0.1c0,0,0-0.1,0-0.1c0-18.5,15-33.5,33.5-33.5c6,0,11.8,1.6,17,4.6
				c7.1-20.8,29.8-31.9,50.6-24.8c12.5,4.3,22,14.4,25.5,27.1c14.7-11.2,35.6-8.3,46.7,6.3c0.5,0.7,1.1,1.5,1.6,2.2
				c9.9-15.5,30.6-20,46.1-10.1c7.3,4.7,12.5,12.1,14.5,20.6c4.1-18-7.1-35.9-25-40c-13.7-3.2-28,2.6-35.6,14.5
				c-9.9-15.5-30.6-20-46.1-10.1c-0.8,0.5-1.5,1-2.2,1.6c-5.8-21.2-27.8-33.7-49-27.8c-12.7,3.5-22.9,13-27.1,25.5
				c-16-9.4-36.5-4-45.8,11.9c-3,5.1-4.6,11-4.6,17c0,0,0,0.1,0,0.1c-0.8-0.1-1.5-0.1-2.3-0.1c-15.7,0-28.5,12.8-28.5,28.5
				c0,0,0,0,0,0v15C183.7,585.4,196.4,572.6,212.2,572.6C212.2,572.6,212.2,572.6,212.2,572.6z"/>
		</g>
		<path class="st1" d="M500.8,641.2H183.7c-2.8,0-5-2.2-5-5v-50.1c0-17.6,13.6-32.2,31.1-33.4c2.7-21.1,22-36,43.1-33.3
			c3.3,0.4,6.4,1.2,9.5,2.5c10.9-22.3,37.8-31.4,60-20.5c9.5,4.6,17,12.5,21.3,22.2c15.3-7.9,34-4.6,45.7,8
			c14.4-15.5,38.7-16.4,54.2-2c9.1,8.5,13.6,20.9,11.9,33.2c12.9-10.9,32.2-9.3,43.1,3.6c4.7,5.5,7.2,12.5,7.2,19.8v50.1
			C505.8,639,503.6,641.2,500.8,641.2C500.8,641.2,500.8,641.2,500.8,641.2z M188.7,631.2h307.2v-45.1c0-11.4-9.2-20.6-20.6-20.6
			c-8,0-15.3,4.7-18.7,11.9c-1,2.1-3.3,3.3-5.6,2.8l-5.5-1.2c-2.7-0.6-4.4-3.3-3.8-6c0.1-0.5,0.3-1,0.5-1.4
			c7.7-13.6,3-30.9-10.7-38.7c-13.1-7.4-29.7-3.3-37.9,9.4c-1.5,2.3-4.6,3-6.9,1.5c-0.6-0.4-1.1-0.9-1.5-1.5
			c-8.4-13.2-26-17-39.2-8.6c-0.6,0.4-1.3,0.9-1.9,1.3c-2.2,1.7-5.3,1.2-7-0.9c-0.4-0.5-0.7-1.1-0.8-1.7
			c-5.1-18.6-24.3-29.5-42.9-24.4c-11.1,3.1-20,11.4-23.7,22.3c-0.9,2.6-3.7,4-6.4,3.1c-0.3-0.1-0.6-0.2-0.9-0.4
			c-13.6-8-31-3.4-39,10.2c-2.6,4.4-3.9,9.3-3.9,14.4v0.1c0,2.8-2.2,5-5,5c-0.1,0-0.3,0-0.4,0c-0.7-0.1-1.3-0.1-1.9-0.1
			c-13,0-23.5,10.5-23.5,23.5L188.7,631.2z"/>
		<path class="st4" d="M515,572H143v24l0,0c5.5,0,10,4.5,10,10v50c-0.2,28.6,22.9,51.8,51.4,52c0.1,0,0.2,0,0.2,0h248
			c28.6,0,52.3-23.4,52.3-52v-50c0-5.5,4.5-10,10-10l0,0V572z"/>
		<path class="st5" d="M153,606v3.5h352V606c0-5.5,4.5-10,10-10v-24H143v24C148.5,596,153,600.5,153,606z"/>
		<path class="st1" d="M452.7,713h-248c-31.4-0.1-56.7-25.6-56.7-57v-50c0-2.8-2.2-5-5-5c-2.8,0-5-2.2-5-5v-24c0-2.8,2.2-5,5-5h372
			c2.8,0,5,2.2,5,5v24c0,2.8-2.2,5-5,5c-2.8,0-5,2.2-5,5v50C509.9,687.6,484.2,713.1,452.7,713z M148,591.9c6,2.1,10,7.8,10,14.1v50
			c-0.1,25.9,20.8,46.9,46.7,47h248c26,0.1,47.2-21,47.3-47v-50c0-6.4,4-12,10-14.1V577H148V591.9z"/>
		<rect x="143" y="572" class="st6" width="372" height="24"/>
		<path class="st1" d="M449,601h-18.5c-2.8,0-5-2.2-5-5s2.2-5,5-5H449c2.8,0,5,2.2,5,5S451.8,601,449,601z"/>
		<path class="st1" d="M515,601h-52c-2.8,0-5-2.2-5-5s2.2-5,5-5h47v-14H148v14h265.1c2.8,0,5,2.2,5,5s-2.2,5-5,5H143
			c-2.8,0-5-2.2-5-5v-24c0-2.8,2.2-5,5-5h372c2.8,0,5,2.2,5,5v24C520,598.8,517.8,601,515,601z"/>
		<path class="st5" d="M200,708h257c5,0,9,4,9,9l0,0c0,5-4,9-9,9H200c-5,0-9-4-9-9l0,0C191,712,195,708,200,708z"/>
		<path class="st1" d="M457,731H200c-7.7,0-14-6.3-14-14s6.3-14,14-14h257c7.7,0,14,6.3,14,14S464.7,731,457,731z M200,713
			c-2.2,0-4,1.8-4,4s1.8,4,4,4h257c2.2,0,4-1.8,4-4s-1.8-4-4-4H200z"/>
		<path class="st1" d="M173,575c-3.3,0-6-2.7-6-6V303c0-31.9,25.9-57.8,57.8-57.8c20.6,0,39.7,11,50,28.9c1.6,2.9,0.6,6.5-2.3,8.2
			c-2.9,1.6-6.5,0.7-8.1-2.2c-12.6-21.9-40.6-29.4-62.5-16.8c-14.2,8.2-22.9,23.3-22.9,39.6v266C179,572.3,176.3,575,173,575z"/>
		<path class="st7" d="M318,304.4c-0.8-10.4-6.6-20.9-18.6-28c-2.7-1.6-5.8-2.6-9-2.9c-30.8-2.6-47,26.3-35.8,48.6
			c1.9,3.8,4.5,7.3,7.8,10.1L318,304.4z"/>
		<path class="st1" d="M262.4,337.2c-1.2,0-2.4-0.4-3.3-1.3c-14.5-12.8-17.2-34.5-6.3-50.5c8.2-12.1,22.1-18.3,38.1-17
			c3.9,0.3,7.7,1.6,11.1,3.6c12.5,7.5,19.9,18.8,21,31.9c0.2,2-0.9,4-2.7,4.9l-55.6,27.8C263.9,337,263.2,337.2,262.4,337.2z
			 M286.6,278.3c-10.8,0-20,4.5-25.6,12.8c-7.4,10.8-6.4,25.3,2.3,35l49.2-24.6c-1.7-8.4-7.2-15.8-15.7-20.9c-2.1-1.2-4.4-2-6.8-2.2
			C288.9,278.4,287.7,278.3,286.6,278.3z"/>
		<circle class="st2" cx="327.8" cy="452.1" r="11.2"/>
		<path class="st1" d="M327.8,468.3c-9,0-16.3-7.3-16.3-16.2s7.3-16.3,16.2-16.3s16.3,7.3,16.3,16.2c0,0,0,0,0,0
			C344.1,461.1,336.8,468.3,327.8,468.3z M327.8,445.8c-3.5,0-6.3,2.8-6.3,6.2s2.8,6.3,6.2,6.3s6.3-2.8,6.3-6.2c0,0,0,0,0,0
			C334.1,448.6,331.3,445.8,327.8,445.8L327.8,445.8z"/>
		<circle class="st2" cx="392.8" cy="464" r="20.2"/>
		<path class="st1" d="M392.8,489.2c-13.9,0-25.2-11.3-25.2-25.2s11.3-25.2,25.2-25.2s25.2,11.3,25.2,25.2
			C418.1,477.9,406.8,489.2,392.8,489.2z M392.8,448.8c-8.4,0-15.2,6.8-15.2,15.2s6.8,15.2,15.2,15.2s15.2-6.8,15.2-15.2
			c0,0,0,0,0,0C408.1,455.6,401.2,448.8,392.8,448.8z"/>
		<path class="st1" d="M195,506.5h-19.9c-3.6,0-6.5-2.9-6.5-6.5s2.9-6.5,6.5-6.5H195c3.6,0,6.5,2.9,6.5,6.5S198.6,506.5,195,506.5z"
			/>
		<path class="st1" d="M206.7,513h-15.4c-2.8,0-5-2.2-5-5v-16c0-2.8,2.2-5,5-5h15.4c7.2,0,13,5.8,13,13S213.8,513,206.7,513
			L206.7,513z M196.2,503h10.4c1.7,0,3-1.3,3-3s-1.3-3-3-3h-10.4V503z"/>
		<path class="st1" d="M191.2,492h15.4c4.4,0,8,3.6,8,8l0,0c0,4.4-3.6,8-8,8h-15.4l0,0V492L191.2,492z"/>
		<path class="st1" d="M298.9,383.2c-0.9,0-1.7-0.6-1.9-1.5l-13-46.2c-0.3-1.1,0.3-2.2,1.4-2.5s2.2,0.3,2.5,1.4c0,0,0,0,0,0l13,46.2
			c0.3,1.1-0.3,2.2-1.4,2.5C299.2,383.2,299.1,383.2,298.9,383.2L298.9,383.2z"/>
		<path class="st1" d="M342.3,356.8c-0.6,0-1.2-0.3-1.5-0.7l-28.8-34.3c-0.7-0.8-0.6-2.1,0.2-2.8s2.1-0.6,2.8,0.2l28.8,34.3
			c0.7,0.8,0.6,2.1-0.2,2.8C343.2,356.6,342.7,356.7,342.3,356.8L342.3,356.8z"/>
		<path class="st1" d="M332.9,386.9c-0.7,0-1.4-0.4-1.7-1l-11.3-20.2c-0.5-1-0.2-2.2,0.8-2.7c1-0.5,2.2-0.2,2.7,0.8l11.3,20.2
			c0.5,1,0.2,2.2-0.8,2.7C333.6,386.8,333.3,386.9,332.9,386.9L332.9,386.9z"/>
		<path class="st1" d="M314.4,353.9c-0.7,0-1.4-0.4-1.7-1L299.3,329c-0.5-1-0.2-2.2,0.8-2.7c1-0.5,2.1-0.2,2.7,0.8l13.4,23.9
			c0.5,1,0.2,2.2-0.8,2.7C315.1,353.8,314.8,353.9,314.4,353.9z"/>
		<rect x="692.7" y="523" class="st8" width="140" height="55"/>
		<rect x="692.7" y="523" class="st9" width="140" height="12.5"/>
		<rect x="692.7" y="578" class="st8" width="140" height="55"/>
		<rect x="692.7" y="577.8" class="st9" width="140" height="12.5"/>
		<rect x="692.7" y="633" class="st8" width="140" height="55"/>
		<rect x="692.7" y="633.8" class="st9" width="140" height="12.5"/>
		<path class="st1" d="M832.7,693h-140c-2.8,0-5-2.2-5-5V523c0-2.8,2.2-5,5-5h140c2.8,0,5,2.2,5,5v165
			C837.7,690.8,835.4,693,832.7,693z M697.7,683h130V528h-130V683z"/>
		<path class="st1" d="M832.7,583h-140c-2.8,0-5-2.2-5-5v-55c0-2.8,2.2-5,5-5h140c2.8,0,5,2.2,5,5v55
			C837.7,580.8,835.4,583,832.7,583z M697.7,573h130v-45h-130V573z"/>
		<path class="st1" d="M832.7,638h-140c-2.8,0-5-2.2-5-5v-55c0-2.8,2.2-5,5-5h140c2.8,0,5,2.2,5,5v55
			C837.7,635.8,835.4,638,832.7,638z M697.7,628h130v-45h-130V628z"/>
		<path class="st1" d="M832.7,693h-140c-2.8,0-5-2.2-5-5v-55c0-2.8,2.2-5,5-5h140c2.8,0,5,2.2,5,5v55
			C837.7,690.8,835.4,693,832.7,693z M697.7,683h130v-45h-130V683z"/>
		<path class="st1" d="M780.7,546h-36c-2.8,0-5-2.2-5-5s2.2-5,5-5h36c2.8,0,5,2.2,5,5S783.4,546,780.7,546z"/>
		<path class="st1" d="M780.7,601h-36c-2.8,0-5-2.2-5-5s2.2-5,5-5h36c2.8,0,5,2.2,5,5S783.4,601,780.7,601z"/>
		<path class="st1" d="M780.7,656h-36c-2.8,0-5-2.2-5-5s2.2-5,5-5h36c2.8,0,5,2.2,5,5S783.4,656,780.7,656z"/>
		<polygon class="st1" points="714.8,726 701.7,726 716.8,688 742.8,688 		"/>
		<path class="st1" d="M714.8,731h-13.2c-2.8,0-5-2.2-5-5c0-0.6,0.1-1.3,0.4-1.9l15.2-38c0.8-1.9,2.6-3.1,4.6-3.1h26
			c2.8,0,5,2.2,5,5c0,1.1-0.3,2.1-1,3l-28,38C717.9,730.2,716.4,731,714.8,731z M709.1,721h3.3l20.6-28h-12.7L709.1,721z"/>
		<path class="st1" d="M827.1,731h-13.2c-1.6,0-3.1-0.8-4-2l-28-38c-1.6-2.2-1.2-5.4,1.1-7c0.9-0.6,1.9-1,3-1h26
			c2,0,3.9,1.2,4.6,3.1l15.2,38c1,2.6-0.2,5.5-2.8,6.5C828.3,730.9,827.7,731,827.1,731z M816.4,721h3.3l-11.2-28h-12.7L816.4,721z"
			/>
		<polygon class="st1" points="813.9,726 827.1,726 811.9,688 785.9,688 		"/>
		<rect x="755.7" y="448" class="st7" width="14" height="42.7"/>
		<path class="st1" d="M769.7,495.7h-14c-2.8,0-5-2.2-5-5V448c0-2.8,2.2-5,5-5h14c2.8,0,5,2.2,5,5v42.7
			C774.7,493.4,772.4,495.7,769.7,495.7z M760.7,485.7h4V453h-4V485.7z"/>
		<circle class="st7" cx="762.7" cy="503" r="18"/>
		<path class="st1" d="M762.7,526c-12.7,0-23-10.3-23-23c0-12.7,10.3-23,23-23s23,10.3,23,23l0,0C785.7,515.7,775.4,526,762.7,526z
			 M762.7,490c-7.2,0-13,5.8-13,13s5.8,13,13,13s13-5.8,13-13C775.7,495.8,769.8,490,762.7,490z"/>
		<path class="st1" d="M777.2,497.3c-2.8,0-5-2.2-5-5c0-1.3,0.5-2.6,1.5-3.5l12.4-12.4c2-1.9,5.1-1.9,7.1,0.1c1.9,1.9,1.9,5,0,7
			l-12.4,12.4C779.8,496.8,778.5,497.3,777.2,497.3z"/>
		<path class="st1" d="M796.9,488.5c-1.3,0-2.6-0.5-3.5-1.5l-11-11c-2-2-2-5.1,0-7.1c2-2,5.1-2,7.1,0l11,11c2,2,2,5.1,0,7.1
			C799.5,488,798.3,488.5,796.9,488.5L796.9,488.5z"/>
		<path class="st7" d="M778.3,458.5H747c-2.9,0-5.3-2.4-5.3-5.3c0-0.6,0.1-1.3,0.3-1.9l4.5-12.1c2.3-6.1,8.8-10.3,16.1-10.3l0,0
			c7.3,0,13.7,4.1,16.1,10.3l4.5,12.1c1,2.7-0.4,5.8-3.1,6.8C779.6,458.4,779,458.5,778.3,458.5z"/>
		<path class="st1" d="M778.3,463.5H747c-5.7,0-10.3-4.6-10.3-10.3c0-1.2,0.2-2.5,0.7-3.6l4.5-12.1c3-8.1,11.4-13.5,20.7-13.5
			s17.7,5.4,20.7,13.5l4.5,12.1c2,5.3-0.7,11.2-6,13.2C780.8,463.3,779.6,463.5,778.3,463.5L778.3,463.5z M762.7,434
			c-5.2,0-9.8,2.8-11.4,7l-4.5,12.1c-0.1,0.1,0,0.3,0.2,0.3c0,0,0.1,0,0.1,0h31.3c0.1,0,0.3-0.1,0.3-0.3c0,0,0-0.1,0-0.1L774,441
			C772.5,436.8,767.9,434,762.7,434z"/>
		<rect x="679.7" y="503" class="st10" width="166" height="20"/>
		<path class="st1" d="M845.7,528h-166c-2.8,0-5-2.2-5-5v-20c0-2.8,2.2-5,5-5h166c2.8,0,5,2.2,5,5v20
			C850.7,525.8,848.4,528,845.7,528z M684.7,518h156v-10h-156V518z"/>
		<rect x="682.7" y="224" class="st11" width="160" height="192"/>
		<rect x="682.7" y="402" class="st12" width="160" height="14"/>
		<rect x="682.7" y="224" class="st13" width="160" height="14.1"/>
		<path class="st1" d="M842.7,421h-160c-2.8,0-5-2.2-5-5V224c0-2.8,2.2-5,5-5h160c2.8,0,5,2.2,5,5v192
			C847.7,418.8,845.4,421,842.7,421z M687.7,411h150V229h-150V411z"/>
		<path class="st1" d="M866.3,421H659c-2.8,0-5-2.2-5-5s2.2-5,5-5h207.3c2.8,0,5,2.2,5,5S869.1,421,866.3,421z"/>
		<rect x="800.1" y="357.7" class="st14" width="24.8" height="58.3"/>
		<path class="st1" d="M824.9,421h-24.8c-2.8,0-5-2.2-5-5v-58.3c0-2.8,2.2-5,5-5h24.8c2.8,0,5,2.2,5,5V416
			C829.9,418.8,827.7,421,824.9,421z M805.1,411h14.8v-48.3h-14.8V411z"/>
		<path class="st15" d="M811.5,333h2c3.5,0,6.4,2.9,6.4,6.4v18.2l0,0h-14.8l0,0v-18.2C805.1,335.9,808,333,811.5,333z"/>
		<path class="st1" d="M819.9,362.7h-14.8c-2.8,0-5-2.2-5-5v-18.2c0-6.3,5.1-11.4,11.4-11.4h2c6.3,0,11.4,5.1,11.4,11.4v18.2
			C824.9,360.4,822.7,362.7,819.9,362.7z M810.1,352.7h4.8v-13.2c0-0.8-0.6-1.4-1.4-1.4h-2c-0.8,0-1.4,0.6-1.4,1.4V352.7z"/>
		<path class="st1" d="M710.7,313.3c-1.7,0-3-1.3-3-3c0-0.8,0.3-1.6,0.9-2.1l43-43c1.2-1.2,3.1-1.1,4.2,0.1c1.1,1.2,1.1,3,0,4.2
			l-43,43C712.3,313,711.5,313.3,710.7,313.3z"/>
		<path class="st1" d="M764.3,300.8c-1.7,0-3-1.3-3-3c0-0.8,0.3-1.6,0.9-2.1l38.8-38.8c1.2-1.2,3.1-1.2,4.2,0c1.2,1.2,1.2,3.1,0,4.2
			l0,0L766.4,300C765.9,300.5,765.1,300.8,764.3,300.8z"/>
		<path class="st1" d="M723,342.2c-1.7,0-3-1.3-3-3c0-0.8,0.3-1.6,0.9-2.1l27-27c1.2-1.2,3.1-1.1,4.2,0c1.1,1.2,1.1,3,0,4.2l-27,27
			C724.5,341.8,723.8,342.2,723,342.2z"/>
		<path class="st1" d="M589.7,244.1H440.1c-3.3,0-6-2.7-6-6s2.7-6,6-6h149.6c3.3,0,6,2.7,6,6S593,244.1,589.7,244.1z"/>
		<rect x="413.1" y="224" class="st7" width="27" height="28.2"/>
		<path class="st1" d="M440.1,257.2h-27c-2.8,0-5-2.2-5-5V224c0-2.8,2.2-5,5-5h27c2.8,0,5,2.2,5,5v28.2
			C445.1,255,442.9,257.2,440.1,257.2C440.1,257.2,440.1,257.2,440.1,257.2z M418.1,247.2h17V229h-17L418.1,247.2z"/>
		<rect x="589.7" y="224" class="st7" width="27" height="28.2"/>
		<path class="st1" d="M616.8,257.2h-27c-2.8,0-5-2.2-5-5V224c0-2.8,2.2-5,5-5h27c2.8,0,5,2.2,5,5v28.2
			C621.8,255,619.5,257.2,616.8,257.2L616.8,257.2z M594.7,247.2h17V229h-17V247.2z"/>
		<rect x="457" y="224" class="st16" width="118" height="171"/>
		<rect x="457" y="224" class="st17" width="118" height="18.5"/>
		<path class="st1" d="M575,400H457c-2.8,0-5-2.2-5-5V224c0-2.8,2.2-5,5-5h118c2.8,0,5,2.2,5,5v171C580,397.7,577.8,400,575,400z
			 M462,390h108V229H462V390z"/>
		<path class="st1" d="M566.5,413c-2.2,0-4-1.8-4-4v-14c0-2.2,1.8-4,4-4s4,1.8,4,4v14C570.5,411.2,568.7,413,566.5,413z"/>
		<path class="st1" d="M552.5,413c-2.2,0-4-1.8-4-4v-14c0-2.2,1.8-4,4-4s4,1.8,4,4v14C556.5,411.2,554.7,413,552.5,413z"/>
		<path class="st1" d="M538.5,413c-2.2,0-4-1.8-4-4v-14c0-2.2,1.8-4,4-4s4,1.8,4,4v14C542.5,411.2,540.7,413,538.5,413z"/>
		<path class="st1" d="M524.5,413c-2.2,0-4-1.8-4-4v-14c0-2.2,1.8-4,4-4s4,1.8,4,4v14C528.5,411.2,526.7,413,524.5,413z"/>
		<path class="st1" d="M510.5,413c-2.2,0-4-1.8-4-4v-14c0-2.2,1.8-4,4-4c2.2,0,4,1.8,4,4v14C514.5,411.2,512.7,413,510.5,413z"/>
		<path class="st1" d="M496.5,413c-2.2,0-4-1.8-4-4v-14c0-2.2,1.8-4,4-4s4,1.8,4,4v14C500.5,411.2,498.7,413,496.5,413z"/>
		<path class="st1" d="M482.5,413c-2.2,0-4-1.8-4-4v-14c0-2.2,1.8-4,4-4s4,1.8,4,4v14C486.5,411.2,484.7,413,482.5,413z"/>
		<path class="st1" d="M468.5,413c-2.2,0-4-1.8-4-4v-14c0-2.2,1.8-4,4-4s4,1.8,4,4v14C472.5,411.2,470.7,413,468.5,413z"/>
		<path class="st1" d="M575,368.7H457c-2.8,0-5-2.2-5-5s2.2-5,5-5h118c2.8,0,5,2.2,5,5S577.8,368.7,575,368.7z"/>
		<path class="st1" d="M500,331c-1.7,0-3-1.3-3-3V227.2c0-1.7,1.3-3,3-3s3,1.3,3,3V328C503,329.7,501.7,331,500,331z"/>
		<path class="st1" d="M539.7,295c-1.7,0-3-1.3-3-3v-64.8c0-1.7,1.3-3,3-3s3,1.3,3,3V292C542.7,293.7,541.3,295,539.7,295z"/>
	</g>
</g>
</svg>
