<?xml version="1.0" encoding="utf-8"?>
<!-- Generator: Adobe Illustrator 24.3.0, SVG Export Plug-In . SVG Version: 6.00 Build 0)  -->
<svg version="1.1" id="Layer_1" xmlns="http://www.w3.org/2000/svg" xmlns:xlink="http://www.w3.org/1999/xlink" x="0px" y="0px"
	 viewBox="0 0 600 600" style="enable-background:new 0 0 600 600;" xml:space="preserve">
<style type="text/css">
	.st0{opacity:0.35;fill:#FFFFFF;enable-background:new    ;}
	.st1{fill:url(#SVGID_1_);}
	.st2{fill:#FFFFFF;fill-opacity:0.5;}
	.st3{fill:#FFFFFF;fill-opacity:0.7;}
	.st4{fill:url(#SVGID_2_);}
	.st5{fill:#E04D2B;}
	.st6{fill:#EF3F32;}
	.st7{opacity:0.66;fill:#FA923D;enable-background:new    ;}
	.st8{opacity:0.3;}
	.st9{fill:#B22F22;}
	.st10{fill:#5D1900;}
	.st11{fill:#3A3736;}
	.st12{fill:none;stroke:#3A3736;stroke-linecap:round;stroke-linejoin:round;}
	.st13{fill:#FC3A4D;}
	.st14{fill:#F0FAFC;}
	.st15{fill:#28AFAF;}
	.st16{opacity:0.46;}
	.st17{fill:#1C918E;}
	.st18{opacity:0.6;fill:#1C918E;enable-background:new    ;}
	.st19{opacity:0.17;fill:#188C89;enable-background:new    ;}
	.st20{opacity:0.54;fill:#2D5B72;enable-background:new    ;}
	.st21{opacity:0.48;}
	.st22{fill:#298589;}
	.st23{opacity:0.62;}
	.st24{opacity:0.59;}
	.st25{opacity:0.33;}
</style>
<g>
	<g id="Layer_1_2_">
		<path class="st0" d="M299.7,92.9c269.1,4.6,269,404.8,0,409.4C30.7,497.7,30.7,97.5,299.7,92.9z"/>
		<linearGradient id="SVGID_1_" gradientUnits="userSpaceOnUse" x1="299.7382" y1="28.8901" x2="299.7382" y2="394.5442">
			<stop  offset="0" style="stop-color:#FFFA3F;stop-opacity:0"/>
			<stop  offset="1" style="stop-color:#FFCA3F"/>
		</linearGradient>
		<path class="st1" d="M525.9,425.6C622.8,260.9,492.7,36,299.7,41.3C106.8,36-23.3,261,73.5,425.6H525.9z"/>
		<path class="st2" d="M299.7,92.9c269.1,4.6,269,404.8,0,409.4C30.7,497.7,30.7,97.5,299.7,92.9z"/>
		<path class="st3" d="M299.7,149.2c195,3.3,195,293.5,0,296.8C104.7,442.6,104.7,152.5,299.7,149.2z"/>
		
			<linearGradient id="SVGID_2_" gradientUnits="userSpaceOnUse" x1="292.2368" y1="-22.1186" x2="292.2368" y2="177.0477" gradientTransform="matrix(1 0 0 -1 0 602)">
			<stop  offset="0" style="stop-color:#7FD8E0;stop-opacity:0"/>
			<stop  offset="1" style="stop-color:#7FD8E0"/>
		</linearGradient>
		<path class="st4" d="M533.4,428.5L533.4,428.5c0-7.8-6.3-14.1-14.1-14.1c0,0-454.1,0-454.1,0c-7.8,0-14.1,6.3-14.1,14.1l0,0
			c0,7.8,6.3,14.1,14.1,14.1h71.1c7.8,0,14.1,6.3,14.1,14.1l0,0c-1.6,28.2-44,0-45.5,28.2l0,0c0,7.8,6.3,14.1,14.1,14.1
			c0,0,71.1,0,71.1,0c7.8,0,14.1,6.3,14.1,14.1l0,0c-1.9,27.8-40.9,0.4-42.8,28.2l0,0c0,7.8,6.3,14.1,14.1,14.1c0,0,233.4,0,233.4,0
			c7.8,0,14.1-6.3,14.1-14.1l0,0c-1.9-27.8-40.9-0.4-42.8-28.2l0,0c0-7.8,6.3-14.1,14.1-14.1c0,0,71.1,0,71.1,0
			c7.8,0,14.1-6.3,14.1-14.1l0,0c-1.6-28.2-44,0-45.5-28.2l0,0c0-7.8,6.3-14.1,14.1-14.1h71.1C527.1,442.6,533.4,436.3,533.4,428.5z
			"/>
		<path class="st5" d="M401.2,336.1c20.4,1.8,40.9,0,60.7-5.4c-3.1-4.9-3.7-19.6-1.2-24.1c-5.7-0.4-6-15.1-4.4-22.4
			c-8.1-3.2-13.8-7.4-14.9-13.2c-6-1-9.8-4.8-11.8-10.5c-6.2,10.5-16.5,20.9-27.6,31.3L401.2,336.1z"/>
		<path class="st6" d="M282.9,155.2V185c26.6-33.5,22.1,26.8,52.8-25.5C298.6,186.5,317,131.5,282.9,155.2z"/>
		<path class="st5" d="M387.9,340.3c0,0-82.2,1.7-164.4-14.9c11.4-41.6,10.4-102,10.4-102c79.9-8.4,116.6-30.2,116.6-30.2
			s5.3,22.9,24.3,34.8c-3.2,17.1,2.3,29,13.2,42.4c-9.6,9.6,0.5,28.3,5.4,33.2C383.3,313.5,381,333.4,387.9,340.3z"/>
		<path class="st7" d="M283.7,334.7c63.2-13.7,60.2-84.9,36.7-129c-19.2,6.4-47.7,13.6-86.5,17.6c0,0,1,60.4-10.4,102
			C244,329.5,264.5,332.5,283.7,334.7z"/>
		<g class="st8">
			<path class="st9" d="M239,329c15.7-55.1,11.7-107.2,12.4-107.8C253.3,221.6,257.4,273.4,239,329z"/>
			<path class="st9" d="M253.3,331.3c15.1-54,14.6-112.7,15.4-113.5C270.3,218.5,271,277,253.3,331.3z"/>
			<path class="st9" d="M267.7,333.4c4.4-23.6,11.8-55.7,13.4-77.2c3.3-24.1,2.8-41,4.5-41.7C286,236.2,278.2,302.9,267.7,333.4z"/>
			<path class="st9" d="M281.8,335.1c7.9-27.3,20.9-103.8,21.5-124.5C306.7,207.8,296.6,293.8,281.8,335.1z"/>
			<path class="st9" d="M296.7,336.7c12-36.9,24.4-133.9,26.7-130.9l0,0C322.9,206.5,311.4,299.9,296.7,336.7z"/>
			<path class="st9" d="M311.2,338.7c10.5-33.2,30.9-140.8,32.1-142C344.6,198.3,324.3,305.4,311.2,338.7z"/>
			<path class="st9" d="M326.4,338.7c9.3-28.5,30.8-127.3,32.1-128.2C359.6,212.1,338.4,309.9,326.4,338.7z"/>
			<path class="st9" d="M341,340.9c8.5-23.3,32.4-116.2,34.3-112.8l0,0C374.7,229,352.3,317.6,341,340.9z"/>
			<path class="st9" d="M356.7,341c6.9-19.3,24.3-78.9,25.4-79.3C383.4,263,366.5,321.2,356.7,341z"/>
			<path class="st9" d="M372.6,341c-0.5,0-0.8-0.5-0.6-1c8.9-14.7,14.4-48.5,16.5-44.3l0,0C388.2,295.8,381.5,327,372.6,341z"/>
		</g>
		<path class="st10" d="M381.5,342.3c-18.7-1.6-97.7,1.8-160-17.3c11.3-40.8,10.4-101,10.4-101.6c0-1,0.8-1.9,1.8-2
			c52-5.8,88.6-15.9,115.7-29.9c12.8,3.2-36.8,24.9-113.5,33.7c0.1,10.2-0.2,61.4-9.9,98.7C299.5,340.7,422.9,336.2,381.5,342.3z"/>
		<path class="st11" d="M381.5,342.3c-18.8-1.6-97.7,1.8-160-17.3c11.3-40.8,10.4-101,10.4-101.6c0-1,0.8-1.9,1.8-2
			c51.9-5.8,88.6-15.9,115.7-29.9c5.5-2.1,4.9,22.2,26.3,34.8c0.4,19.6,0.1,26.5,13.7,42.9c0.6,0.8,0.6,1.9-0.1,2.7
			c-8.1,8.5,0,24.4,5.4,30.3c0.8,0.8,0.8,2,0,2.8c-9.5,9.5-11.3,28-5.4,33.9C391.3,343.3,387.3,342.1,381.5,342.3z M225.9,323.8
			c70.5,14,141.3,14.6,158.2,14.5c-4.6-9-1.8-25.3,6.5-34.8c-6.9-8.5-12.4-24.8-5.3-33.2c-9.8-12.4-15.6-24.4-12.8-41.4
			c-15.1-10-21.4-26.5-23.3-32.8c-9.1,4.8-45.1,21.7-113.3,29C235.9,235.4,235.7,286.6,225.9,323.8z"/>
		<path class="st11" d="M233.3,254.1c-3.7-5,80.2-2.8,141.1-27c1.2-0.5,1.9,1.4,0.7,1.9C314.5,251.2,234.1,254,233.3,254.1z"/>
		<line class="st12" x1="281.8" y1="197.4" x2="373.7" y2="360"/>
		<line class="st12" x1="277.9" y1="284.1" x2="206.6" y2="384.9"/>
		<line class="st12" x1="279.6" y1="253.9" x2="158.8" y2="372.8"/>
		<line class="st12" x1="282.9" y1="185" x2="406.8" y2="356.5"/>
		<path class="st11" d="M248.5,392.6c-1.5,0-2.5-1.7-1.7-3c16.5-29.9,27.4-80.8,31.6-147.2c4.5-52.8-1.6-92.8,3.2-94.5
			C292.5,179.9,275.8,368.5,248.5,392.6z"/>
		<polygon class="st13" points="366.4,370.9 221,372.8 241.6,363.2 345.5,361.8 		"/>
		<path class="st11" d="M221,374.8c-2.1,0.1-2.8-3-0.8-3.8c0,0,20.6-9.6,20.6-9.6c0.9-0.5,103.8-1.3,104.7-1.5
			c0.3,0,0.6,0.1,0.8,0.2c0,0,20.9,9.1,20.9,9.1c1,0.4,1.5,1.6,1,2.6C367.5,375.1,222.8,373.6,221,374.8z M242.1,365.2l-11.9,5.5
			l126.9-1.6l-12-5.2L242.1,365.2z"/>
		
			<rect x="232.1" y="371.9" transform="matrix(0.9999 -1.268820e-02 1.268820e-02 0.9999 -4.8186 3.7589)" class="st14" width="123.4" height="19.6"/>
		<path class="st11" d="M232.2,394.2c-1.1,0-2-0.9-2-2l-0.2-19.6c0-1.1,0.9-2,2-2c1.8,0.6,123.4-2.7,124.9-1
			c1.3-0.6,0.5,20.6,0.9,21c0,1.1-0.9,2-2,2C355.7,392.6,232.2,394.2,232.2,394.2z M234,374.6l0.2,15.6l119.5-1.5l-0.2-15.6
			L234,374.6z"/>
		<path class="st11" d="M283.8,393.3c-1.1,0-2-0.9-2-2l-0.1-11.6c0-1.1,0.9-2,2-2c0.8,0.4,21.7-1.1,21.5,0.3
			c1.2,0.3,0.5,12.1,0.7,13c0,1.1-0.9,2-2,2C304,393.1,283.9,393.3,283.8,393.3z M285.7,381.7l0.1,7.6l16.1-0.2l-0.1-7.6
			L285.7,381.7z"/>
		<path class="st11" d="M283.8,393.3c-1.1,0-2-0.9-2-2l-0.1-11.6c0-1.1,0.9-2,2-2c0,0,20.1-0.3,20.1-0.3c1.1,0,2,0.9,2,2
			c0,0,0.1,11.6,0.1,11.6c0.1,2.6-4,2.6-4,0.1c0,0-0.1-9.6-0.1-9.6l-16.1,0.2C285.2,383.5,287.5,393.6,283.8,393.3z"/>
		
			<rect x="283.8" y="379.6" transform="matrix(0.9999 -1.268820e-02 1.268820e-02 0.9999 -4.8663 3.7592)" class="st11" width="20.1" height="11.6"/>
		<polyline class="st11" points="283.8,391.3 283.7,379.7 303.8,379.5 304,391.1 		"/>
		<path class="st11" d="M249.5,393.7c-1.1,0-2-0.9-2-2l-0.1-11.6c0-1.1,0.9-2,2-2c0,0,20.1-0.3,20.1-0.3c1.1,0,2,0.9,2,2
			c0,0,0.1,11.6,0.1,11.6c0,1.1-0.9,2-2,2C269.7,393.5,249.6,393.7,249.5,393.7z M251.4,382.1l0.1,7.6l16.1-0.2l-0.1-7.6
			L251.4,382.1z"/>
		<path class="st11" d="M249.5,393.7c-1.1,0-2-0.9-2-2l-0.1-11.6c0-1.1,0.9-2,2-2c0,0,20.1-0.3,20.1-0.3c1.1,0,2,0.9,2,2
			c0,0,0.1,11.6,0.1,11.6c0.1,2.6-4,2.6-4,0.1c0,0-0.1-9.6-0.1-9.6l-16.1,0.2C250.9,383.9,253.2,393.9,249.5,393.7z"/>
		
			<rect x="249.5" y="380" transform="matrix(0.9999 -1.268820e-02 1.268820e-02 0.9999 -4.874 3.3241)" class="st11" width="20.1" height="11.6"/>
		<polyline class="st11" points="249.5,391.7 249.4,380.1 269.5,379.9 269.7,391.5 		"/>
		<path class="st11" d="M318.2,392.8c-1.1,0-2-0.9-2-2l-0.1-11.6c0-1.1,0.9-2,2-2c0,0,20.1-0.3,20.1-0.3c1.1,0,2,0.9,2,2
			c0,0,0.1,11.6,0.1,11.6c0,1.1-0.9,2-2,2C338.4,392.6,318.3,392.8,318.2,392.8z M320.1,381.2l0.1,7.6l16.1-0.2l-0.1-7.6
			L320.1,381.2z"/>
		<path class="st11" d="M318.2,392.8c-1.1,0-2-0.9-2-2l-0.1-11.6c0-1.1,0.9-2,2-2c0,0,20.1-0.3,20.1-0.3c1.1,0,2,0.9,2,2
			c0,0,0.1,11.6,0.1,11.6c0.1,2.6-4,2.6-4,0.1c0,0-0.1-9.6-0.1-9.6l-16.1,0.2C319.6,383,321.9,393.1,318.2,392.8z"/>
		
			<rect x="318.2" y="379.1" transform="matrix(0.9999 -1.268820e-02 1.268820e-02 0.9999 -4.8574 4.1956)" class="st11" width="20.1" height="11.6"/>
		<polyline class="st11" points="318.2,390.8 318.1,379.2 338.2,379 338.4,390.6 		"/>
		<path class="st11" d="M257.5,278.8c-14.6-0.4-29,1.2-24.2-2.2c1,1.1,105.9,0,155.6-6.4C354.6,279.6,291.1,277.9,257.5,278.8z"/>
		<path class="st11" d="M353.6,307.1c-30.3-0.3-107.7-2.4-125.1-8.8c-3.4-3.2,35.7,5.3,76.5,5.6c36.3,2.5,76.8,0.5,89.3-0.6
			C389.3,307.9,371.9,306.3,353.6,307.1z"/>
		<path class="st15" d="M441,380.6c3.2-13.8,5.6-27.4,10.2-40.4c-28.6,16.7-48.7,17.4-77.5,19.8c-31.8,44.4-159.4,37.2-225,9.3
			c13.2,33.4,38.9,55.1,65.5,60.9h160.5C374.8,406,409.8,385.8,441,380.6z"/>
		<g class="st16">
			<path class="st17" d="M168.9,377.2c-6.9-2.2-13.6-4.9-20.2-7.9c0.1,0.4,0.3,0.7,0.4,1.1C155.6,373,162.2,375.3,168.9,377.2z"/>
			<path class="st18" d="M441.8,345.4c-3.2,10.7-4.5,18.5-7.1,29.7c-31.2,5.2-67,28.7-67.1,52.9c-3.3-0.6-159.8,1.1-162.9-0.6
				c3.1,1.1,6.3,2.1,9.5,2.8h160.5c0.1-24.2,35.1-44.4,66.3-49.6c3.2-13.8,5.6-27.4,10.2-40.4C447.9,342.2,444.7,343.9,441.8,345.4z
				"/>
		</g>
		<path class="st19" d="M443.1,371.1c-64.5,14.7-108.2,17.6-139.2,20c-2.4,0.4,10.6-3.4,7.9-3.1c-38.1,5.4-109.9,5.8-163.2-18.7
			c13.2,33.4,38.9,55.1,65.5,60.9h160.5c0.1-24.2,35.1-44.4,66.3-49.6C441.7,377.4,442.4,374.2,443.1,371.1z"/>
		<path class="st11" d="M374.7,431.5c-0.3,0-160.5,0.1-160.8,0c-13.6-3-26.9-10-38.4-20.4c-9.4-8.9-26.9-29.5-27.4-43
			c11.2,9.3,34.9,20.1,69.6,24.7c1.7,0.2,1.4,2.9-0.4,2.6c-29.6-4.4-53.3-12.2-65.2-21.1c11.2,25.5,35,48.9,62.1,54.6
			c0,0,159,0,159,0c1.3-23.8,35-43.9,66.5-49.4c0.5-2.2,1-4.4,1.5-6.6c-96.5,18.8-142.8,35-219.2,21.9c77.8,5.4,123.5-3.5,220.7-25
			c0.9-0.2,1.8,0.7,1.6,1.6c-1.2,3.3-0.6,8.3-3.2,10.6C412.7,386.9,379.9,402.7,374.7,431.5z"/>
		<path class="st20" d="M319.3,412.9c-57.8,3.7-112.4,2.5-152-12.3c13.3,15.7,29.9,25.9,46.9,29.7h160.5c0-9.5,5.4-18.4,13.9-26
			C365.7,408.5,342.5,411.4,319.3,412.9z"/>
		<path class="st11" d="M268.7,415.7c-11.3,0-22.2-0.2-31.7-0.6c-0.7,0-1.3-0.7-1.3-1.4c21.4-2.8,54.9,0.8,78.9-1.8
			C324.5,417.1,273.4,415,268.7,415.7z"/>
		<path class="st11" d="M320.4,414.1c-0.7,0-1.3-0.6-1.4-1.3c0.2-2.1,2.9-1.2,4.5-1.6c2.1,0.1,14.5-2.1,9.3,2
			C329.1,413.6,324.3,413.9,320.4,414.1z"/>
		<path class="st11" d="M374.7,431.5c-0.3,0-160.5,0.1-160.8,0c-17.6-3.8-34.5-14.5-47.7-30.1c-0.9-1,0.2-2.6,1.5-2.1
			c17.6,6.6,38.6,10.7,64.4,12.7c8.7,8.6-61.7-7.4-60.4-8.5c12.2,13,27.2,21.9,42.7,25.3h159.1c0.4-7.7,4.2-15.4,11.1-22.5
			c-2.7,0-55,10.6-46.2,3.7c81.2-8.1,43.6-16.1,37.8,20.2C376,430.9,375.4,431.5,374.7,431.5z"/>
		<path class="st11" d="M374.7,432.2c-0.5-0.1-160.5,0.2-160.9,0c-13.7-3-27.1-10.1-38.7-20.6c-7-5.6-31.2-35.7-27.2-44.1
			c67.9,27.3,193.1,34.9,224.1-8.5c8.4-2.6,18.6-1.4,27.7-3.4c58.2-5,60.5-48.4,43.2,25.6c-0.2,0.8-0.8,1.4-1.6,1.5
			c-25.2,4.1-63.5,21.4-64.6,47.6C376.7,431.3,375.8,432.2,374.7,432.2z M214.4,428.2h158.4c2.8-27,40.1-44.7,66.6-49.3
			c2.7-11.6,4.8-23.3,8.3-34.4c-27.3,14.7-45.9,15.1-72.8,17.4c-32.1,43.2-153,37.7-222.4,11.2C164,399.5,187,422.2,214.4,428.2
			L214.4,428.2z M441,380.6L441,380.6z"/>
		<path class="st5" d="M172.3,360.3H221c-6-6-6.9-14.6-3.1-20c-7.7-4.2-9.3-16.6-5.5-20.4c-12.6-3.4-14.5-22.8-12-28.2
			c-19.4,0.8-24.2-11.3-24.2-11.3l-29,22.4C147.2,302.8,172.3,325.6,172.3,360.3z"/>
		<path class="st7" d="M195.5,360.3c4.7-29.9-11.7-66.8-34.2-68.5l-14.2,11c0,0,25.1,22.7,25.1,57.5L195.5,360.3z"/>
		<g class="st8">
			<path class="st9" d="M186.3,361c-1.9-33.9-32.5-61.8-32.8-63.9C154.9,295.9,187.6,328,186.3,361z"/>
			<path class="st9" d="M200.4,360.7c-7.4-46.7-42.2-68.7-38.7-69.4l0,0C161,291,196.6,315.8,200.4,360.7z"/>
			<path class="st9" d="M212.4,361c-7.5-51.1-46.4-74.6-43.1-75.5C186.5,295.2,214,336.9,212.4,361z"/>
		</g>
		<path class="st11" d="M221,362.3c-91.5,0.7-20.4,5-75.2-58c-0.9-0.8-0.9-2.3,0.1-3c52.9-41.1,12.9-14.1,54.3-11.6
			c1.3-0.1,2.4,1.3,2,2.5c-1.9,3.2-1.4,22.4,10.7,25.7c1.4,0.4,1.9,2.3,0.9,3.3c-3.3,4.5-0.7,14.1,5,17.3c1,0.5,1.3,1.7,0.8,2.7
			C211.9,352,228,361,221,362.3L221,362.3z M174.3,360.3L174.3,360.3z M174.3,358.4h42.6c-3.5-5.4-4.2-12.2-1.6-17.4
			c-5.4-4.1-8.5-13.3-5.8-20.1c-10-3.9-13.6-20.7-11.5-27.1c-13.7-0.2-19.9-6.7-22.3-10.3L150.2,303
			C155.9,308.8,173.5,329.1,174.3,358.4L174.3,358.4z"/>
		<path class="st7" d="M431,336.1c12.4-19.1,5.5-50.3-13.6-59.8c-4.7,5.1-9.9,10.2-15.4,15.4l-0.8,44.4
			C411.1,337,421.1,337,431,336.1z"/>
		<g class="st8">
			<path class="st9" d="M408.8,337.2c-0.4,0-0.8-0.4-0.6-0.9c4.6-14.2-3.2-48.8-1.5-49.9C408.2,287.2,414.1,324.4,408.8,337.2z"/>
			<path class="st9" d="M451.2,333.4c-5.3-38.4-28-63.7-28.6-63.2c-0.3-0.3-0.3-0.7,0-0.9c2.2-0.5,23.8,22.1,29.3,63.4
				C451.9,333,451.6,333.4,451.2,333.4z"/>
			<path class="st9" d="M423,337.4c-0.4,0-0.7-0.3-0.7-0.7c0.3-33-12.2-53-11.1-55c0.3-0.2,0.7,0,0.9,0.3
				C411.5,281.4,425.5,307.7,423,337.4z"/>
			<path class="st9" d="M438.3,336c-4.8-29.7-20.8-59.7-21.4-59.3c-0.5-0.7,0.7-1.5,1.1-0.7l0,0C417.3,275.8,437.4,306,438.3,336z"
				/>
		</g>
		<path class="st11" d="M416.3,337.7c-4.5-0.6-13,1-16.1-1.7c0,0,0.8-44.4,0.8-44.4c9.9-10.4,21.6-20.8,27.7-31.8
			c0.3-0.5,0.9-0.6,1.4-0.3c2.5,5.6,5.7,9.6,11.5,10.4c2.5,5,5.1,9.7,15.1,13.3c0.5,0.2,0.7,0.7,0.6,1.1c-1.3,5.8-1.3,16.2,1.5,20
			c0.5,1.4,3.5,0.8,2.8,2.7c-2.3,4.4-1.6,18.6,1.2,23.1c0.4,0.6,0.1,1.3-0.6,1.5C447.2,335.7,431.8,337.7,416.3,337.7z M402.2,335.2
			c19.6,1.6,39.2-0.1,58.2-5.2c-2.5-5.5-3.1-17.4-1.2-22.8c-6.1-3.7-5.1-15.2-4.1-22.5c-8.5-3.5-13.3-7.8-14.6-13
			c-5.1-1-8.8-4.1-11.2-9.2c-6.4,10.1-16.4,20.2-26.4,29.5L402.2,335.2z"/>
		<path class="st11" d="M401.7,299.6c-1,0-1.4-1.4-0.5-1.9c18.1-10.2,29.9-18.4,39.5-27.5C448.3,271.1,411.9,294.6,401.7,299.6z"/>
		<path class="st11" d="M439.1,432.2c-1.5,0.1-3.8,0.1-3.8-2c0-2.1,2.3-2.1,3.8-2C441.7,428.2,441.7,432.2,439.1,432.2z"/>
		<path class="st11" d="M426.6,432.2h-15c-1.1,0-2-0.9-2-2c0-1.1,0.9-2,2-2h15C429.2,428.2,429.2,432.2,426.6,432.2z"/>
		<path class="st11" d="M400,432.2c-2.1-1.9-252.9,3.7-252.5-2c-0.5-5.7,250.5-0.1,252.5-2C402.5,428.2,402.7,432.2,400,432.2z"/>
		<path class="st11" d="M135.3,432.2h-8c-2.6,0-2.6-4,0-4c0,0,8,0,8,0C137.9,428.2,137.9,432.2,135.3,432.2L135.3,432.2z"/>
		<g class="st21">
			<path class="st22" d="M375.6,442.5h-14.3c-1.1,0-2-0.9-2-2c0-1.1,0.9-2,2-2h14.3C378.1,438.4,378.2,442.5,375.6,442.5z"/>
			<path class="st22" d="M351.6,442.5h-24.4c-2.6,0-2.6-4,0-4c0,0,24.4,0,24.4,0C354.1,438.4,354.1,442.5,351.6,442.5z"/>
		</g>
		<g>
			<path class="st11" d="M297,461h-5.1c-2.6,0-2.6-4,0-4c0,0,5.1,0,5.1,0C299.6,457,299.6,461.1,297,461L297,461z"/>
			<path class="st11" d="M283.6,461h-15.9c-2.6,0-2.6-4,0-4h15.9C286.2,457,286.2,461.1,283.6,461z"/>
		</g>
		<path class="st11" d="M179.8,382.5c-1.2,0-2.2-1.1-2-2.3c8.6-48.4-24.7-94.4-25-94.8c-0.7-0.9-0.5-2.1,0.4-2.8
			c3.9-2,10.2,11.6,19.1,30.3C177.8,328.1,189.7,360.1,179.8,382.5z"/>
		<path class="st11" d="M157.3,315.8c-1,0-1.4-1.4-0.5-1.9c0,0,43.1-23.1,43.1-23.1c0.5-0.3,1.1-0.1,1.3,0.4
			c0.3,0.5,0.1,1.1-0.4,1.3C200.3,292.7,157.9,315.9,157.3,315.8z"/>
		<path class="st11" d="M166.1,331.6c-1.1,0-1.4-1.7-0.2-2c0,0,46.3-10.7,46.3-10.7c0.5-0.1,1.1,0.2,1.2,0.8c0.1,0.5-0.2,1-0.7,1.2
			C212.3,320.9,166.3,331.7,166.1,331.6z"/>
		<path class="st11" d="M171.7,347.6c-1.2,0-1.3-1.9-0.1-2c0,0,45.6-5.3,45.6-5.3c0.5-0.1,1,0.3,1.1,0.9c0.1,0.5-0.3,1-0.9,1.1
			C217.3,342.2,171.8,347.6,171.7,347.6z"/>
		<g class="st23">
			<path class="st11" d="M289.7,442.5c-1.5,0.1-4.3,0.3-4.2-2c0-2.3,2.7-2,4.2-2C292.2,438.4,292.2,442.5,289.7,442.5L289.7,442.5z"
				/>
			<path class="st11" d="M279.2,442.5c-1.8-0.5-11.8,1.6-11.5-2c-0.3-3.6,9.7-1.5,11.5-2C281.8,438.4,281.8,442.5,279.2,442.5z"/>
			<path class="st11" d="M259.5,442.5c-1-1-57,2.4-54.9-2c-2.3-4.4,54.2-1,54.9-2C262.1,438.4,262.1,442.5,259.5,442.5L259.5,442.5z
				"/>
			<path class="st11" d="M198.3,442.5c-1.5,0.1-4.1,0.2-4.1-2c0-2.2,2.5-2.1,4.1-2C200.8,438.4,200.8,442.5,198.3,442.5L198.3,442.5
				z"/>
		</g>
		<g>
			<path class="st11" d="M399.9,468.5c-1.1-1-51.5,2.4-49.6-2c-2.1-4.4,48.8-1,49.6-2C402.4,464.5,402.5,468.6,399.9,468.5z"/>
		</g>
		<g>
			<path class="st11" d="M344,468.5c-1.8-0.5-10.4,1.6-10.2-2c-0.2-3.5,8.4-1.5,10.2-2C346.6,464.5,346.6,468.6,344,468.5L344,468.5
				z"/>
		</g>
		<g>
			<path class="st11" d="M326,468.5h-3.4c-2.6,0-2.6-4,0-4c0,0,3.4,0,3.4,0C328.6,464.5,328.6,468.6,326,468.5z"/>
		</g>
		<g class="st24">
			<g>
				<path class="st11" d="M286.5,478.5c-1.8-0.5-10.4,1.6-10.2-2c-0.2-3.6,8.5-1.5,10.2-2C289.1,474.5,289.1,478.6,286.5,478.5z"/>
			</g>
			<g>
				<path class="st11" d="M270,478.5c-1.2-1-44.4,2.3-42.6-2c-2-4.3,41.6-1,42.6-2C272.6,474.5,272.6,478.6,270,478.5L270,478.5z"/>
			</g>
		</g>
		<g class="st24">
			<g>
				<path class="st11" d="M349,504.1h-8.2c-2.6,0-2.6-4,0-4c0,0,8.2,0,8.2,0C351.6,500,351.6,504.1,349,504.1L349,504.1z"/>
			</g>
			<g>
				<path class="st11" d="M332.5,504.1H313c-1.1,0-2-0.9-2-2s0.9-2,2-2h19.5C335.1,500,335.1,504.1,332.5,504.1z"/>
			</g>
		</g>
		<g class="st24">
			<g>
				<path class="st11" d="M269.5,504.1H265c-2.6,0-2.6-4,0-4h4.5C272.1,500,272.1,504.1,269.5,504.1z"/>
			</g>
			<g>
				<path class="st11" d="M257.9,504.1h-10.6c-2.6,0-2.6-4,0-4c0,0,10.6,0,10.6,0C260.5,500,260.5,504.1,257.9,504.1z"/>
			</g>
		</g>
		<g class="st25">
			<g>
				<path class="st11" d="M304,529.6h-16c-1.1,0-2-0.9-2-2s0.9-2,2-2h16C306.5,525.6,306.5,529.7,304,529.6z"/>
			</g>
			<g>
				<path class="st11" d="M272.1,529.6c-1.3-1-41.4,2.3-39.7-2c-1.7-4.3,38.6-1,39.7-2C274.6,525.6,274.6,529.7,272.1,529.6z"/>
			</g>
		</g>
		<path class="st11" d="M423,365.6c-1.2,0-1.3-1.8-0.1-2c5.2-0.8,10.2-2.3,14.9-4.5c0.5-0.2,1.1,0,1.3,0.5
			C437.5,363.5,427.3,364.5,423,365.6z"/>
		<path class="st11" d="M380.2,372.1c-1.3,0.1-1.4-2-0.1-2c0.2,0,19.9-1.5,35.9-4.9c0.5-0.1,1.1,0.2,1.2,0.8s-0.2,1.1-0.8,1.2
			C400.2,370.6,380.6,372,380.2,372.1z"/>
		<path class="st11" d="M401.7,326.3c-1.3,0-1.3-2,0-2c23.7,0.8,46-9.5,59.7-18.4C451.7,319.3,424.2,325.7,401.7,326.3z"/>
		<path class="st11" d="M401.2,315.1c-1.1,0-1.4-1.7-0.2-2c19.9-4,38.2-17.7,56.1-29.6C442.8,299.9,420,309.7,401.2,315.1z"/>
		<path class="st11" d="M412.1,357.5c-1.1,0-1.9-0.8-2-1.9c-1.1-33.7,0.8-96.4,7.4-82.8c-0.1,0.5-5.6,47.6-3.4,82.6
			C414.2,356.6,413.3,357.5,412.1,357.5z"/>
	</g>
</g>
</svg>
