<?xml version="1.0" encoding="utf-8"?>
<!-- Generator: Adobe Illustrator 24.3.0, SVG Export Plug-In . SVG Version: 6.00 Build 0)  -->
<svg version="1.1" id="Layer_1" xmlns="http://www.w3.org/2000/svg" xmlns:xlink="http://www.w3.org/1999/xlink" x="0px" y="0px"
	 viewBox="0 0 1000 1000" style="enable-background:new 0 0 1000 1000;" xml:space="preserve">
<style type="text/css">
	.st0{fill:#26283C;}
	.st1{fill:#FFFFFF;}
	.st2{fill:#D8D8D8;}
	.st3{fill:#30292C;}
	.st4{fill:#FF415B;}
	.st5{fill:#EC1CE4;}
	.st6{fill:#133B4F;}
	.st7{fill:#67CC70;}
	.st8{fill:#CE7867;}
	.st9{fill:#5CECFF;}
	.st10{fill:#CCCCCC;}
	.st11{fill:#8E5645;}
	.st12{fill:#AE6553;}
	.st13{fill:#FFC25D;}
	.st14{fill:#00C899;}
	.st15{fill:#959595;}
	.st16{fill:#00B2C8;}
</style>
<g>
	<g>
		<path class="st0" d="M755.9,330.2L922,285.7c19.5-5.2,31-25.2,25.8-44.7l0,0c-5.2-19.5-25.2-31-44.7-25.8l-261.7,70.1
			c-19.5,5.2-39.5-6.3-44.7-25.8l0,0l0,0c-5.2-19.5,6.3-39.5,25.8-44.7L741.7,183c19.5-5.2,31-25.2,25.8-44.7l0,0
			c-5.2-19.5-25.2-31-44.7-25.8L117.6,274.4c-19.5,5.2-31,25.2-25.8,44.7l0,0c26.9,79.3,156.7-53,183.6,26.4l0,0
			c5.2,19.5-6.3,39.5-25.8,44.7L88.4,433.4c-19.5,5.2-31,25.2-25.8,44.7l0,0c26.4,80,163.6-55.3,190.1,24.7l0,0
			c5.2,19.5-6.3,39.5-25.8,44.7c-22.4,3.2-39.2,23.9-32.9,46.6l0,0c5.2,19.5,25.2,31,44.7,25.8c21-8.4,45.6,1.5,51.4,24l0,0
			c17,82.4-168.9,33.8-151.9,116.2l0,0c5.2,19.5,25.2,31,44.7,25.8l183.2-49c19.5-5.2,39.5,6.3,44.7,25.8l0,0l0,0
			c11.9,71.3-92.9,26-80.9,97.2l0,0c5.2,19.5,25.2,31,44.7,25.8l466.4-125c19.5-5.2,31-25.2,25.8-44.7l0,0
			c-21.6-61.4-81.7,13.5-103-47.9l0,0c-16.1-81.9,158-31.6,141.9-113.5l0,0l0,0c-5.2-19.5-25.2-31-44.7-25.8l-128,34.3
			c-19.5,5.2-39.5-6.3-44.7-25.8l0,0l0,0c-16.1-81.9,158.3-31.8,142.2-113.7l0,0c-5.2-19.5-25.2-31.1-44.7-25.8
			c-21.9,9.4-49.2,2.1-55.6-22.9l0,0C724.7,355.4,736.4,335.4,755.9,330.2z"/>
		<path class="st0" d="M898.9,367.3c50.3-21.6,80.5,50.1,28.5,67.9C877.1,456.9,847.1,385.2,898.9,367.3z"/>
	</g>
	<g>
		<g id="Layer_1_2_">
			<path class="st1" d="M842.5,509.6h43.7V681c0,12.1-9.8,21.9-21.9,21.9l0,0c-12.1,0-21.9-9.8-21.9-21.9l0,0V509.6H842.5z"/>
			<path class="st2" d="M839.1,491.2h50.6c5.1,0,9.2,4.1,9.2,9.2l0,0c0,5.1-4.1,9.2-9.2,9.2h-50.6c-5.1,0-9.2-4.1-9.2-9.2l0,0
				C829.9,495.3,834,491.2,839.1,491.2z"/>
			<path class="st3" d="M864.4,705.2c-13.3,0-24.1-10.8-24.2-24.2V509.6c-2.2-5,44.9-1.1,46-2.3c6.5-0.5,0.1,171.4,2.3,173.7
				C888.6,694.4,877.7,705.2,864.4,705.2z M844.8,511.9V681c0,10.8,8.8,19.6,19.6,19.6S884,691.8,884,681V511.9H844.8z"/>
			<path class="st3" d="M889.7,511.9h-50.6c-15-0.1-15.1-22.9,0-23h50.6C904.8,489,904.8,511.9,889.7,511.9z M839.1,493.5
				c-8.9-0.1-9,13.9,0,13.8h50.6c8.9,0.1,9-13.9,0-13.8C889.7,493.5,839.1,493.5,839.1,493.5z"/>
			<path class="st4" d="M852.9,618.9V681c0,6.4,5.2,11.5,11.5,11.5c6.4,0,11.5-5.2,11.5-11.5v-62.1H852.9z"/>
			<path class="st3" d="M864.4,694.9c-7.6,0-13.8-6.2-13.8-13.8V619c0-1.3,1-2.3,2.3-2.3h23c5.1-2.9,1.1,63.7,2.3,64.4
				C878.2,688.7,872,694.9,864.4,694.9z M855.2,621.2V681c0,5.1,4.1,9.2,9.2,9.2s9.2-4.1,9.2-9.2v-59.8H855.2z"/>
			<path class="st5" d="M858.6,461.9c4.8-0.1,4.8,7.4,0,7.3C853.8,469.4,853.8,461.9,858.6,461.9z"/>
			<path class="st4" d="M844.3,416.5c10.8-0.2,10.8,16.8,0,16.6C833.5,433.3,833.5,416.4,844.3,416.5z"/>
			<path class="st4" d="M883.2,449.5c9.2-0.1,9.2,14.4,0,14.2C874,463.9,874,449.4,883.2,449.5z"/>
			<path class="st6" d="M858.6,471.6c-7.8,0.1-7.8-12.1,0-12C866.4,459.5,866.3,471.7,858.6,471.6z M858.6,464.2
				c-3.5,0.7,0.7,4.9,1.4,1.4l0,0C860,464.9,859.4,464.2,858.6,464.2z"/>
			<path class="st6" d="M866.7,445.8c-2.6,0-4.7-2.1-4.7-4.7c-0.1-6.1,9.4-6.1,9.3,0l0,0C871.4,443.7,869.3,445.8,866.7,445.8z
				 M866.7,441.1v0.1V441.1C866.8,441.1,866.8,441.1,866.7,441.1z"/>
			<path class="st6" d="M844.3,435.5c-13.8,0.2-13.8-21.4,0-21.2c5.9,0,10.6,4.7,10.6,10.6l0,0C854.9,430.7,850.1,435.5,844.3,435.5
				z M844.3,418.8c-7.8-0.1-7.8,12.1,0,12C852.1,431,852.1,418.7,844.3,418.8z"/>
			<path class="st6" d="M883.2,466c-12.2,0.2-12.2-19,0-18.8C895.5,447,895.5,466.2,883.2,466z M883.2,451.8c-2.7,0-4.8,2.2-4.8,4.8
				c-0.1,6.3,9.7,6.3,9.6,0l0,0C888.1,453.9,885.9,451.8,883.2,451.8z"/>
			<path class="st4" d="M860.4,565c10.8-0.2,10.8,16.8,0,16.7C849.6,581.9,849.6,564.9,860.4,565z"/>
			<path class="st3" d="M860.4,584c-13.8,0.2-13.8-21.5,0-21.3c5.9,0,10.6,4.8,10.6,10.6l0,0C871,579.3,866.3,584,860.4,584z
				 M860.4,567.3c-7.8-0.1-7.8,12.2,0,12.1C868.2,579.5,868.2,567.2,860.4,567.3z"/>
			<path class="st4" d="M867.6,598.2c4.6-0.1,4.6,7.2,0,7.1C863,605.4,863,598.1,867.6,598.2z"/>
			<path class="st3" d="M867.6,607.6c-7.6,0.1-7.6-11.8,0-11.7C875.2,595.8,875.2,607.7,867.6,607.6z M867.6,600.5
				c-1.6,0-1.6,2.5,0,2.5C869.2,603,869.2,600.5,867.6,600.5L867.6,600.5z"/>
			<path class="st4" d="M872.3,520.8c6.4-0.1,6.4,10,0,9.9C865.9,530.8,865.9,520.7,872.3,520.8z"/>
			<path class="st3" d="M872.3,533c-9.4,0.1-9.4-14.6,0-14.5C881.7,518.4,881.7,533.1,872.3,533z M872.3,523.1c-3.4,0-3.4,5.3,0,5.3
				C875.7,528.4,875.7,523.1,872.3,523.1z"/>
			<path class="st7" d="M854.9,516.1c2.4,0,2.4,3.8,0,3.7C852.5,519.9,852.5,516.1,854.9,516.1z"/>
			<path class="st3" d="M854.9,522.2c-5.4,0.1-5.4-8.4,0-8.3C860.3,513.7,860.3,522.2,854.9,522.2z M854.9,517.6
				c-0.6,0-0.6,0.9,0,0.9C855.5,518.4,855.5,517.5,854.9,517.6z"/>
			<path class="st3" d="M865.8,635c2.3,0,2.3,3.6,0,3.6C863.5,638.7,863.5,635,865.8,635z"/>
			<path class="st3" d="M855.9,653.2c3.9-0.1,3.9,6.1,0,6C852,659.3,852,653.1,855.9,653.2z"/>
			<path class="st3" d="M869.4,666.8c5.6-0.1,5.6,8.7,0,8.7C863.8,675.5,863.8,666.7,869.4,666.8z"/>
			<path class="st3" d="M863,630.9c0.8,0,0.8,1.3,0,1.3C862.1,632.2,862.1,630.8,863,630.9z"/>
			<path class="st1" d="M764.4,509.6h43.7V681c0,12.1-9.8,21.9-21.9,21.9l0,0c-12.1,0-21.9-9.8-21.9-21.9l0,0V509.6H764.4z"/>
			<path class="st3" d="M786.3,705.2c-13.3,0-24.1-10.8-24.2-24.2V509.6c-2.2-5,44.9-1.1,46-2.3c6.5-0.5,0.1,171.4,2.3,173.7
				C810.5,694.4,799.6,705.2,786.3,705.2z M766.8,511.9V681c0,10.8,8.8,19.6,19.6,19.6S806,691.8,806,681V511.9H766.8z"/>
			<rect x="768.2" y="468.6" class="st8" width="36.2" height="41"/>
			<path class="st3" d="M804.4,511.9h-36.2c-1.3,0-2.3-1-2.3-2.3v-41c0-1.3,1-2.3,2.3-2.3h36.2c1.3,0,2.3,1,2.3,2.3
				C805.7,469.8,809.3,514.3,804.4,511.9z M770.5,507.3h31.6v-36.4h-31.6V507.3z"/>
			<path class="st2" d="M761,491.2h50.6c5.1,0,9.2,4.1,9.2,9.2l0,0c0,5.1-4.1,9.2-9.2,9.2H761c-5.1,0-9.2-4.1-9.2-9.2l0,0
				C751.8,495.3,755.9,491.2,761,491.2z"/>
			<path class="st3" d="M811.6,511.9H761c-15-0.1-15.1-22.9,0-23h50.6C826.7,489,826.7,511.9,811.6,511.9z M761,493.5
				c-8.9-0.1-9,13.9,0,13.8h50.6c8.9,0.1,9-13.9,0-13.8H761z"/>
			<path class="st9" d="M774.8,557.9V681c0,6.4,5.2,11.5,11.5,11.5c6.4,0,11.5-5.2,11.5-11.5V557.9H774.8z"/>
			<path class="st3" d="M786.3,694.9c-7.6,0-13.8-6.2-13.8-13.8V557.9c0-1.3,1-2.3,2.3-2.3h23c1.3,0,2.3,1,2.3,2.3V681
				C800.1,688.7,793.9,694.9,786.3,694.9z M777.1,560.2V681c0,5.1,4.1,9.2,9.2,9.2c5.1,0,9.2-4.1,9.2-9.2V560.2H777.1z"/>
			<path class="st3" d="M779,589c4.5-0.1,4.5,7,0,6.9C774.5,596,774.5,588.9,779,589z"/>
			<path class="st9" d="M779,525.4c7.5-0.1,7.5,11.6,0,11.5C771.5,537.1,771.5,525.3,779,525.4z"/>
			<path class="st3" d="M779,539.2c-10.5,0.2-10.5-16.3,0-16.1C789.4,523,789.4,539.4,779,539.2z M779,527.7c-4.5-0.1-4.5,7,0,6.9
				C783.5,534.7,783.5,527.7,779,527.7z"/>
			<path class="st3" d="M793.5,608.6c3,0,3,4.6,0,4.6C790.6,613.2,790.6,608.5,793.5,608.6z"/>
			<path class="st3" d="M784.5,669.1c2.7,0,2.7,4.2,0,4.1C781.8,673.2,781.8,669,784.5,669.1z"/>
			<path class="st3" d="M785.6,656.1c4.3-0.1,4.3,6.7,0,6.6C781.4,662.8,781.4,656.1,785.6,656.1z"/>
			<path class="st1" d="M309.3,607.4c-2,0.1-3.6-1.9-3.5-3.5c0-0.3,0-12.6,0-12.6h-27.6c-0.7,3.2,2.4,16.4-3.5,16.1
				c-8.3-0.6-15.5,5.9-15.4,14.3l0,0v72.8c0,6.9,5.6,12.4,12.4,12.4h39.6c6.9,0,12.4-5.6,12.4-12.4l0,0v-72.8
				C323.6,613.8,317.2,607.4,309.3,607.4z"/>
			<path class="st3" d="M311.2,709.2c-74.2,2.1-50.4,0.3-54.3-87.5c0-9.6,8.2-17.2,17.7-16.6c0.7,0,1.2-0.6,1.2-1.2v-12.6
				c0-1.3,1-2.3,2.3-2.3h27.6c1.3,0,2.3,1,2.3,2.3v12.6c0,0.7,0.6,1.2,1.2,1.2c9.2,0,16.6,7.4,16.6,16.6v72.8
				C325.9,702.7,319.3,709.2,311.2,709.2z M273.5,609.7c-6.6,0-12,5.4-12,12v72.8c0,5.6,4.5,10.1,10.1,10.1h39.6
				c5.6,0,10.1-4.5,10.1-10.1v-72.8c-0.8-16.4-17.1-7.5-17.8-17.8v-10.3h-23C280.2,599.1,282.6,610.8,273.5,609.7z"/>
			<path class="st10" d="M268.4,591.3c0.7-4.2-2.6-16.3,4.8-16.1h38.7c7.3-0.2,4.2,12,4.8,16.1"/>
			<path class="st3" d="M316.7,593.6c-1.3-1.1-52.8,2.7-50.6-2.3c0.3-5.8-2.3-18.6,7.1-18.4h38.7c3.9,0,7.1,3.2,7.1,7.1v11.3
				C319,592.6,318,593.6,316.7,593.6z M270.7,589h43.7c-0.7-2.3,1.9-11.7-2.5-11.5h-38.7C268.9,577.3,271.3,586.8,270.7,589z"/>
			<path class="st9" d="M314.4,627c-0.3-3.8-4.9-5.9-8-3.7c-0.9-11.3-17.6-9.1-16.1,2c0.1-8.2-12.8-8.2-12.7,0
				c0,0.6-1.2,1.3-1.2,1.2c0.1-5.6-8.9-5-8,0.6h-0.1v67.6c0,1.8,1.4,3.2,3.2,3.2h39.6C318.1,701.2,312.8,628.4,314.4,627L314.4,627z
				"/>
			<path class="st3" d="M279.6,637.5c4.3-0.1,4.3,6.8,0,6.7C275.2,644.3,275.2,637.5,279.6,637.5z"/>
			<path class="st3" d="M292.4,656c1.6,0,1.6,2.6,0,2.5C290.8,658.5,290.8,655.9,292.4,656z"/>
			<path class="st3" d="M291.3,605.3c1.6,0,1.6,2.6,0,2.5C289.6,607.9,289.6,605.3,291.3,605.3z"/>
			<path class="st3" d="M283.8,609.9c0.9,0,0.9,1.4,0,1.4C282.9,611.3,282.9,609.9,283.8,609.9z"/>
			<path class="st3" d="M303.4,680.1c2.4,0,2.4,3.7,0,3.7S301,680.1,303.4,680.1z"/>
			<path class="st3" d="M300.5,638.7c1.6,0,1.6,2.6,0,2.5C298.9,641.2,298.9,638.7,300.5,638.7z"/>
			<path class="st3" d="M311.2,700h-39.6c-3,0-5.5-2.5-5.5-5.5V627c-0.6-5.3,5.9-9,10.1-5.6c2.4-4.8,8.9-6.3,13-2.9
				c4-7.8,16.2-6.6,18.8,1.7c4.3-0.7,8.2,2.5,8.6,6.8v67.6C316.7,697.6,314.3,700,311.2,700z M270.7,627.4c0.9,0.9-1.7,68.1,0.9,68
				h39.6c0.5,0,0.9-0.4,0.9-0.9v-67.1c-0.1-2.2-2.6-3.6-4.5-2.3c-5.3,2.4-2.1-7.9-9.7-7.2c-8.4,1-2.8,9.3-7.7,9.8
				c-3.9-0.4-0.9-6.5-6.3-6.5c-5.2-0.3-2.7,7.2-7.4,7.5c-2.9,0.2-1.5-4-4.1-4.1C270.8,624.7,270.6,626.2,270.7,627.4z"/>
			<path class="st10" d="M646.1,659.2H384.9c-18.3,0.7-16.4,19-16.1,32.2c0.6,16.1,15.4,16.9,28,16.1c2.7-8.9,10.9-15,20.2-15h197
				c9.3,0,17.5,6.1,20.2,15c12.6,0.8,27.4,0,28-16.1C662.4,678.2,664.4,659.9,646.1,659.2z"/>
			<path class="st3" d="M646.1,709.8h-11.9c-1,0-1.9-0.7-2.2-1.6c-2.4-7.9-9.7-13.4-18-13.3H417c-8.3,0-15.6,5.4-18,13.3
				c-0.3,1-1.2,1.6-2.2,1.6h-11.9c-10.2,0-18.4-8.2-18.4-18.4c-0.5-14.9-1.6-33.6,18.4-34.5h261.2c10.2,0,18.4,8.2,18.4,18.4
				C665,690.3,666.1,708.9,646.1,709.8z M635.9,705.2c10.5,0.8,23.7-0.1,24-13.8c-0.1-11.4,2.8-29.4-13.8-29.9H384.9
				c-16.5,0.4-13.8,18.5-13.8,29.9c0.5,13.7,13.3,14.6,24,13.8c3.5-9,12.2-15,21.9-15h197C623.7,690.2,632.4,696.2,635.9,705.2z"/>
			<path class="st1" d="M208.7,528c-21.5-1.1-20-20.8-19.6-36.8h-46c0.5,16,1.9,35.7-19.6,36.8c-15.6-0.7-28.5,15-27.6,27.7
				c0.1,3-0.1,124.2,0,124.7c-0.3,15.3,14.3,27.8,27.6,27.2c2.1,0,85.1,0,85.6,0c15.4,0.5,28-15.1,27.2-27.6
				c-0.1-3,0.1-124.2,0-124.7C236.1,540.1,223.8,528,208.7,528z"/>
			<path class="st4" d="M179.8,556.8c5.2-0.1,5.2,8.1,0,8C174.6,564.9,174.6,556.7,179.8,556.8z"/>
			<path class="st3" d="M179.8,567.1c-8.2,0.1-8.2-12.8,0-12.7c3.5,0,6.3,2.8,6.3,6.3l0,0C186.1,564.3,183.3,567.1,179.8,567.1z
				 M179.8,559.1c-2.2,0-2.2,3.5,0,3.5S182,559.1,179.8,559.1z"/>
			<path class="st4" d="M105.2,563.7c7,151-36.5,134.8,103.6,134.6c10.2,0,18.4-8.2,18.4-18.4V563.7H105.2z"/>
			<path class="st3" d="M208.7,709.8c-153.2,3.5-107.9,2.4-115.1-154.2c4-44.2,45.3-16.7,47.2-47.2v-17.3
				c-2.2-5.1,47.2-1.1,48.3-2.3c1.3,0,2.3,1,2.3,2.3v17.3c1.8,30.5,43.2,3,47.2,47.2v124.3C238.6,696.4,225.3,709.8,208.7,709.8z
				 M145.5,493.5c1.1,17.3-0.3,35.7-21.9,36.8c-14,0-25.3,11.3-25.3,25.3c7.3,157.7-38.1,151.9,110.5,149.6
				c14,0,25.3-11.3,25.3-25.3V555.6c0-14-11.3-25.3-25.3-25.3c-21.6-1.1-23-19.7-21.9-36.8H145.5z"/>
			<rect x="132.8" y="472.8" class="st11" width="66.7" height="32.2"/>
			<rect x="138.4" y="472.8" class="st12" width="6.9" height="32.2"/>
			<rect x="154.9" y="472.8" class="st12" width="6.9" height="32.2"/>
			<rect x="171.4" y="472.8" class="st12" width="6.9" height="32.2"/>
			<rect x="187.8" y="472.8" class="st12" width="6.9" height="32.2"/>
			<path class="st11" d="M144.1,462.4h44.1c5.6-0.1,8.4,5.3,7.7,10.4h-59.4l0,0C135.7,467.8,138.6,462.4,144.1,462.4z"/>
			<path class="st3" d="M199.5,507.3c-1.4-1.3-71,3-69-2.3v-32.2c-2.3-5.2,67.9-1,69-2.3c1.3,0,2.3,1,2.3,2.3V505
				C201.8,506.3,200.8,507.3,199.5,507.3z M135.1,502.7h62.1v-27.6h-62.1V502.7z"/>
			<path class="st3" d="M195.9,475.1h-59.4c-2.6,0-2.4-3.2-2.3-5c0-5.5,4.5-10,10-10h44.1c5.5,0,10,4.5,10,10
				C198.2,471.9,198.6,475.1,195.9,475.1z M138.8,470.5h54.8c0.2-3.1-2.3-5.8-5.4-5.8h-44.1C141,464.7,138.6,467.4,138.8,470.5z"/>
			<path class="st3" d="M208.7,700.6h-85.1c-11.4,0-20.7-9.3-20.7-20.7V563.7c0-1.3,1-2.3,2.3-2.3h122c1.3,0,2.3,1,2.3,2.3v116.2
				C229.4,691.3,220.2,700.6,208.7,700.6z M107.5,566c7,148.4-36.3,129.6,101.3,130c8.9,0,16.1-7.2,16.1-16.1V566H107.5z"/>
			<rect x="122.5" y="579.8" class="st13" width="87.4" height="64.4"/>
			<path class="st3" d="M209.9,646.5h-87.4c-1.3,0-2.3-1-2.3-2.3c1.1-1-2.7-69.4,2.3-66.7h87.4c1.3,0,2.3,1,2.3,2.3
				C211.1,580.8,214.9,649.2,209.9,646.5z M124.8,641.9h82.8v-59.8h-82.8V641.9z"/>
			<path class="st3" d="M114.8,648.7c2.3,0,2.3,3.6,0,3.6C112.4,652.4,112.4,648.7,114.8,648.7z"/>
			<path class="st3" d="M148.6,658.8c3.9-0.1,3.9,6.1,0,6C144.7,664.9,144.7,658.7,148.6,658.8z"/>
			<path class="st3" d="M162,672.5c5.6-0.1,5.6,8.7,0,8.7S156.4,672.4,162,672.5z"/>
			<path class="st3" d="M203.5,657.5c5.6-0.1,5.6,8.7,0,8.7C197.8,666.2,197.8,657.4,203.5,657.5z"/>
			<path class="st3" d="M195.9,599.4c-1.1-1.2-63.6,2.8-61-2.3c-2.9-5.1,60.2-1.1,61-2.3C198.9,594.7,198.9,599.4,195.9,599.4z"/>
			<path class="st3" d="M195.9,614.3h-32.2c-1.3,0-2.3-1-2.3-2.3s1-2.3,2.3-2.3h32.2C198.9,609.7,198.9,614.4,195.9,614.3z"/>
			<path class="st3" d="M195.9,627h-32.2c-1.3,0-2.3-1-2.3-2.3s1-2.3,2.3-2.3h32.2C198.9,622.3,198.9,627,195.9,627z"/>
			<path class="st3" d="M145.3,629.3c-13.4,0.2-13.4-20.9,0-20.7C158.7,608.4,158.7,629.5,145.3,629.3z M145.3,613.2
				c-7.5-0.1-7.5,11.6,0,11.5C152.7,624.8,152.7,613.1,145.3,613.2z"/>
			<path class="st4" d="M157.9,536.3c7.3-0.1,7.3,11.3,0,11.2C150.6,547.7,150.6,536.2,157.9,536.3z"/>
			<path class="st3" d="M157.9,549.9c-10.3,0.2-10.3-16,0-15.8C168.2,533.9,168.2,550,157.9,549.9z M157.9,538.6
				c-4.3-0.1-4.3,6.7,0,6.6C162.2,545.3,162.2,538.6,157.9,538.6L157.9,538.6z"/>
			<path class="st3" d="M179.4,538.6c-6,0.1-6-9.3,0-9.2C185.4,529.4,185.4,538.7,179.4,538.6z M179.4,534L179.4,534z"/>
			<path class="st3" d="M209.5,545.9c4.3-0.1,4.3,6.7,0,6.6C205.2,552.6,205.2,545.9,209.5,545.9z"/>
			<path class="st3" d="M122,550.5c4.3-0.1,4.3,6.7,0,6.6C117.7,557.2,117.7,550.5,122,550.5z"/>
			<path class="st10" d="M621.3,473.6c-37.3,66.9-121.8,90.8-188.7,53.5c-116.7-60.4-78.5-247.9,51.8-258.8l-4.7-27.6
				C385.9,257.5,323.4,347.1,340.1,441c23.4,160.4,256.5,193.2,324.3,47L621.3,473.6z"/>
			<path class="st3" d="M510,585.6c-213.2,0.5-248.5-309.1-28-345.2l4.7,27.6c0.2,1.3-0.6,2.5-1.9,2.7
				C314.5,292.5,337.3,559,515.7,541.6c46.2-3.7,81.5-34.9,106.2-70.1l43.1,14.3C646.1,545.9,573.7,585.6,510,585.6z M477.9,243.4
				c-80.2,15.4-138.1,85.6-138.1,167.3c-2.7,175,243.2,234.8,321.4,78.6l-38.7-12.8c-38.9,67.5-125,90.6-192.5,51.8
				c-115.9-62-78.2-248.7,51.9-261.9L477.9,243.4z"/>
			<path class="st1" d="M474.5,500.4L474.5,500.4c28,0,50.6,22.7,50.6,50.6v108.2H423.9l0,0V551
				C423.9,523.1,446.6,500.4,474.5,500.4z"/>
			<path class="st14" d="M474.5,519.4c40.8,0.7,40.8,61.4,0,62.1C433.7,580.8,433.7,520.1,474.5,519.4z"/>
			<path class="st14" d="M474.5,536.7c18.1,0.1,18.1,27.5,0,27.6C456.5,564.2,456.5,536.7,474.5,536.7z"/>
			<path class="st3" d="M525.2,661.5H423.9c-1.3,0-2.3-1-2.3-2.3V551c1.2-69.5,104.7-69.6,105.9,0v108.2
				C527.5,660.5,526.4,661.5,525.2,661.5z M426.2,656.9h96.7V551c0-26.7-21.6-48.3-48.3-48.3c-26.7,0-48.3,21.6-48.3,48.3v105.9
				H426.2z"/>
			<path class="st3" d="M474.5,583.8c-43.9-0.7-43.9-66,0-66.7C518.4,517.9,518.4,583,474.5,583.8z M474.5,521.7
				c-15.9,0-28.8,12.9-28.8,28.8c0.6,37.8,56.9,37.8,57.5,0l0,0C503.3,534.6,490.4,521.7,474.5,521.7z"/>
			<path class="st15" d="M474.5,536.7c18.1,0.1,18.1,27.5,0,27.6C456.5,564.2,456.5,536.7,474.5,536.7z"/>
			<path class="st3" d="M474.5,566.6c-21.1-0.1-21.1-32.1,0-32.2C495.6,534.5,495.6,566.5,474.5,566.6z M474.5,539
				c-15,0.1-15,22.9,0,23C489.6,561.9,489.6,539,474.5,539z"/>
			<path class="st1" d="M646.9,446.3c40.8,0.7,40.8,61.4,0,62.1C606.1,507.8,606.1,447,646.9,446.3z"/>
			<path class="st3" d="M646.9,510.8c-43.9-0.7-43.9-66,0-66.7C690.8,444.8,690.8,510,646.9,510.8z M646.9,448.6
				c-15.9,0-28.8,12.9-28.8,28.8c0.6,37.8,56.9,37.8,57.5,0l0,0C675.7,461.5,662.8,448.7,646.9,448.6z"/>
			<path class="st15" d="M646.9,463.6c18.1,0.1,18.1,27.5,0,27.6C628.9,491.1,628.9,463.7,646.9,463.6z"/>
			<path class="st3" d="M646.9,493.5c-21.1-0.1-21.1-32.1,0-32.2C668,461.4,668,493.4,646.9,493.5z M646.9,465.9
				c-15,0.1-15,22.9,0,23C662,488.8,662,466,646.9,465.9z"/>
			
				<rect x="468.7" y="141.6" transform="matrix(0.9703 -0.2419 0.2419 0.9703 -24.4526 123.7395)" class="st16" width="46" height="39.7"/>
			<path class="st1" d="M514.9,135.2l-56,14c-2.3,0.6-4.6-0.7-5.4-2.8l-6.8-17.9l69.2-17.3l2.4,18.9
				C518.6,132.4,517.1,134.6,514.9,135.2z"/>
			
				<rect x="493.2" y="177.2" transform="matrix(0.9703 -0.2419 0.2419 0.9703 -55.1334 135.4927)" class="st1" width="62.1" height="230.1"/>
			<path class="st3" d="M522,413.8c-5,1-55.7-223.4-57.9-225c-0.3-1.2,0.4-2.5,1.7-2.8l60.3-15c6.2-2.1,55.8,223.3,58.5,225
				c0.3,1.2-0.4,2.5-1.7,2.8C582.3,398.7,522.5,413.8,522,413.8z M469.1,189.9l54.6,218.8l55.8-13.9L524.9,176L469.1,189.9z"/>
			
				<rect x="517.8" y="377.3" transform="matrix(0.9703 -0.2419 0.2419 0.9703 -78.24 144.3707)" class="st15" width="62.1" height="27"/>
			<path class="st3" d="M522,413.8c-3.3,1.6-7.7-26.8-8.8-28c-0.3-1.2,0.4-2.5,1.7-2.8c1.3,0.9,64.4-18.9,63.1-13.4l6.5,26.2
				C588.1,400.3,522.6,412.5,522,413.8z M518.3,386.9l5.4,21.8l55.8-13.9l-5.4-21.8L518.3,386.9z"/>
			<path class="st3" d="M474.1,188.5c-3.3,2.2-10.8-39.4-11.8-40.3c-3.3-4.3,45.5-12.5,46.3-13.9c4.1-3.5,11.1,39.4,12.4,40.2
				c0.3,1.2-0.4,2.5-1.7,2.8C518.6,177.4,474.9,188.6,474.1,188.5z M467.3,149.4l8.5,34.1l40.2-10l-8.5-34.1L467.3,149.4z"/>
			<path class="st3" d="M457.8,151.6c-7.8,0.9-10.4-17.7-13.2-22.3c-4.2-5,70.1-18.7,70.8-20.3c1.3-0.3,2.7,0.6,2.8,1.9l2.4,18.9
				c0.4,3.5-1.8,6.7-5.2,7.6C513.6,137.6,459.6,151.7,457.8,151.6z M449.8,130.1l5.9,15.4c-1.1,4.8,57.7-13.3,58.7-12.6
				c1.1-0.3,1.9-1.4,1.7-2.5L514,114L449.8,130.1z"/>
			<path class="st3" d="M555.1,351.6c-3.3,1.6-7.7-26.7-8.7-27.9c-0.8-2.9,3.8-4.1,4.5-1.1l6.5,26.1
				C557.7,350.1,556.6,351.6,555.1,351.6z"/>
			<path class="st3" d="M539,286.8c-1.1,0-2-0.7-2.2-1.7L512.6,188c-0.3-1.2,0.5-2.5,1.7-2.8s2.5,0.4,2.8,1.7l24.2,97.1
				C541.6,285.4,540.4,286.8,539,286.8L539,286.8z"/>
			<path class="st3" d="M504.3,171.6c-3.3,1.2-6.2-20.5-7.2-21.8c-0.8-2.9,3.8-4.1,4.5-1.1l5,20.1
				C506.9,170.2,505.8,171.6,504.3,171.6L504.3,171.6z"/>
			<path class="st1" d="M479,223.1c40.8,0.7,40.8,61.4,0,62.1C438.1,284.5,438.1,223.8,479,223.1z"/>
			<path class="st3" d="M479,287.5c-18.4,0-33.4-14.9-33.4-33.4c0.7-43.9,66-43.9,66.7,0l0,0C512.3,272.6,497.4,287.5,479,287.5z
				 M479,225.4c-37.8,0.6-37.8,56.9,0,57.5C516.8,282.3,516.7,226.1,479,225.4z"/>
			<path class="st15" d="M479,240.4c18.1,0.1,18.1,27.5,0,27.6C460.9,267.9,460.9,240.4,479,240.4z"/>
			<path class="st3" d="M479,270.3c-21.1-0.1-21.1-32.1,0-32.2c8.9,0,16.1,7.2,16.1,16.1l0,0C495.1,263.1,487.8,270.3,479,270.3z
				 M479,242.7c-15,0.1-15,22.9,0,23C494,265.6,494,242.8,479,242.7z"/>
			<path class="st1" d="M518.8,470.6L706,420c4.3-1.2,8.7,1.4,9.9,5.7l0,0c1.2,4.3-1.4,8.7-5.7,9.9L523,486.1
				c-4.3,1.2-8.7-1.4-9.9-5.7l0,0C512,476.2,514.5,471.7,518.8,470.6z"/>
			<path class="st3" d="M520.9,488.7c-11.8,0.3-14.2-17.6-2.7-20.4l187.2-50.6c12.9-3.7,18.5,16.7,5.4,20
				C707.3,438.4,524.5,488.8,520.9,488.7z M708.1,422c-1.7-0.1-187,50.5-188.7,50.8c-3.1,0.8-4.9,4-4,7.1c0.8,3.1,4,4.9,7.1,4.1
				l187.2-50.6C715.9,431.8,714.6,421.9,708.1,422L708.1,422z M710.2,435.6L710.2,435.6z"/>
			<polygon class="st15" points="613.8,444.9 528.2,468 529.4,458.2 607.8,437 			"/>
			<path class="st3" d="M528.2,470.3c-4.5,0.2-0.8-10.3-1.1-12.4c0.1-0.9,0.8-1.7,1.7-2l78.4-21.2c2.6-1.2,6.9,7.7,8.4,8.8
				c0.8,1,0.6,2.5-0.5,3.2C613.9,447.5,529.7,470,528.2,470.3z M531.5,460l-0.6,4.9l79-21.3l-3-4L531.5,460z"/>
			<path class="st3" d="M955.3,716.1c-4.6-4.5-930.7,8.7-929.7-4.6c-1-13.4,925.1,0,929.7-4.6C961,706.8,961.5,716.2,955.3,716.1z"
				/>
			<path class="st3" d="M786.3,705.2c-13.3,0-24.1-10.8-24.2-24.2V509.6c-2.2-5,44.9-1.1,46-2.3c6.5-0.5,0.1,171.4,2.3,173.7
				C810.5,694.4,799.6,705.2,786.3,705.2z M766.8,511.9V681c0,10.8,8.8,19.6,19.6,19.6S806,691.8,806,681V511.9H766.8z"/>
			<path class="st10" d="M921.9,674.2H729.8v16.1h33.5c6.3,20.4,37.2,20.3,43.5,0h34.5c5.9,21.2,38,21,43.9,0h36.7V674.2z"/>
			<path class="st3" d="M863.3,708.7c-10.4,0-19.8-6.4-23.6-16.1h-31.3c-7.8,20.5-38.8,20.3-46.7,0h-31.9c-1.3,0-2.3-1-2.3-2.3
				v-16.1c0-1.3,1-2.3,2.3-2.3c2.3,2.2,194.9-4.3,194.4,2.3v16.1c0,1.3-1,2.3-2.3,2.3h-35.1C883.1,702.3,873.7,708.7,863.3,708.7z
				 M806.8,688h34.5c1,0,1.9,0.7,2.2,1.6c3.4,10.9,15,17,26,13.6c29.9-16.2-9.8-15.8,50.2-15.2v-11.5H732.1V688h31.2
				c1,0,1.9,0.6,2.2,1.6c3.7,10.8,15.5,16.6,26.3,12.9c6-2.1,10.8-6.8,12.9-12.9C804.9,688.6,805.8,688,806.8,688z"/>
		</g>
	</g>
</g>
</svg>
