<?xml version="1.0" encoding="utf-8"?>
<!-- Generator: Adobe Illustrator 24.3.0, SVG Export Plug-In . SVG Version: 6.00 Build 0)  -->
<svg version="1.1" id="Layer_1" xmlns="http://www.w3.org/2000/svg" xmlns:xlink="http://www.w3.org/1999/xlink" x="0px" y="0px"
	 viewBox="0 0 1920 1080" style="enable-background:new 0 0 1920 1080;" xml:space="preserve">
<style type="text/css">
	.st0{fill:url(#SVGID_1_);}
	.st1{fill:url(#SVGID_2_);}
	.st2{fill:url(#SVGID_3_);}
	.st3{fill:url(#SVGID_4_);}
	.st4{fill:url(#SVGID_5_);}
	.st5{fill:url(#SVGID_6_);}
	.st6{fill:url(#SVGID_7_);}
	.st7{fill:url(#SVGID_8_);}
	.st8{fill:url(#SVGID_9_);}
	.st9{fill:url(#SVGID_10_);}
	.st10{fill:url(#SVGID_11_);}
	.st11{fill:url(#SVGID_12_);}
	.st12{fill:url(#SVGID_13_);}
	.st13{fill:url(#SVGID_14_);}
	.st14{fill:url(#SVGID_15_);}
	.st15{fill:url(#SVGID_16_);}
	.st16{fill:url(#SVGID_17_);}
	.st17{fill:url(#SVGID_18_);}
	.st18{fill:url(#SVGID_19_);}
</style>
<g>
	<linearGradient id="SVGID_1_" gradientUnits="userSpaceOnUse" x1="718.7278" y1="486.7122" x2="718.7278" y2="144.5844">
		<stop  offset="0" style="stop-color:#BA3942"/>
		<stop  offset="1" style="stop-color:#29132A"/>
	</linearGradient>
	<path class="st0" d="M682.7,334.1c0.7,2,2.7,2.4,2.7,2.4s0.6,4,0.9,4.4c0.6,0.6,1.7-0.4,2.1,0c0.9,0.7,0.9,2.3,1.6,2
		c3.8-6.1,7.3-12.2,10.5-18.5c9.7-1.3,25.1-3.4,31.5-2.7c1.1-0.3,2.1-0.7,3.1-1.1c5.8,12.4,11.4,20.9,14.4,20.9c0,0,1,0.1,2.3-0.3
		c0.4-0.3,1-0.4,1.4-0.9c0.4-0.3,0-0.6,0.4-1.1c0.3-0.3,1.6-0.9,1.9-1.6c0.4-1.1,0.9-2.6,1-4.6c0-0.9-2.1-6.3-2.1-7.3
		c-0.1-1.1,1.7,2,1.4,0.4c-16.8-38.3-19.1-64.1-20.4-74.4c-0.7-6.3-6-8-11.4-7.8c-3.4-2.1-10.1-2.6-21.5-1.1
		c-2.7,36.9-18.6,73.2-21.4,81.1c-0.3,1.6-0.1,3.4,0.1,5.3c0.3,1,1.9-0.9,1.9-0.9S682.4,333.5,682.7,334.1z M718.7,280.3
		c2.8,8.4,6.1,17.1,9.5,25.2c-6-0.6-12.5-0.9-18.6-0.7C712.8,297.2,715.7,289.1,718.7,280.3z"/>
	<linearGradient id="SVGID_2_" gradientUnits="userSpaceOnUse" x1="789.1537" y1="486.7122" x2="789.1537" y2="144.5844">
		<stop  offset="0" style="stop-color:#BA3942"/>
		<stop  offset="1" style="stop-color:#29132A"/>
	</linearGradient>
	<path class="st1" d="M771.3,343.8c11.8-3.8,28-8,43.1-5.8l1.3,0.6c0,0,1.3-4.7,1.7-5.8c0.3-0.9-2.1-4-2.1-4l1.3-0.3l-1.9-2.4
		c0,0,0.9,0.4,0.7,0.1c-3-5.3-19.2-8.3-33.9-7c1-10.1,3.6-33,4.8-56.1c1.6-26-15.2-24.5-21.6-22.9c-1.4,0.4-2.1,1.7-2,2.3
		c2.1,12.1,1.7,54.8,1.6,80.9c-0.6,0.3-1.1,0.6-1.7,0.9C758.6,333.2,761.3,346.9,771.3,343.8z"/>
	<linearGradient id="SVGID_3_" gradientUnits="userSpaceOnUse" x1="848.9706" y1="486.7122" x2="848.9706" y2="144.5844">
		<stop  offset="0" style="stop-color:#BA3942"/>
		<stop  offset="1" style="stop-color:#29132A"/>
	</linearGradient>
	<path class="st2" d="M877.2,332.7c0.3-0.9-2.1-4-2.1-4l1.3-0.3l-1.9-2.4c0,0,0.9,0.4,0.7,0.1c-3-5.3-19.2-8.3-33.9-7
		c1-10.1,3.6-33,4.8-56.1c1.6-26-15.2-24.5-21.6-22.9c-1.4,0.4-2.1,1.7-2,2.3c2.1,12.1,1.7,54.8,1.6,80.9c-0.6,0.3-1.1,0.6-1.7,0.9
		c-4,9.1-1.3,22.8,8.7,19.6c11.8-3.8,28-8,43.1-5.8l1.3,0.6C875.5,338.5,876.8,333.8,877.2,332.7z"/>
	<linearGradient id="SVGID_4_" gradientUnits="userSpaceOnUse" x1="961.6274" y1="486.7122" x2="961.6274" y2="144.5844">
		<stop  offset="0" style="stop-color:#BA3942"/>
		<stop  offset="1" style="stop-color:#29132A"/>
	</linearGradient>
	<path class="st3" d="M952.5,312c0.3,0,0.6,0,0.9,0c3,0,7.5-0.1,12.7-0.9c6.3,8,12.8,17.9,15.7,29l1.3,1.4c0,0,2.8-0.7,3.7-0.9
		c0.9-0.1,2.6-3,2.6-3s0.4,0.6,0.7,0.9c1.9-6-3.6-24.2-3.6-24.2s5.8,9.3,5,22.5c2-8.7-0.4-20.8-5.8-30.6
		c10.4-4.6,18.9-12.5,19.1-26.8c0.4-54.9-78.9-36.7-83.8-32c-5,4.6-0.6,16.7,4,18.4c3-0.7,5.8-1.3,8.7-1.7
		c0.4,7.7,0.9,16.9,1.3,26.3c-5-2-8.3-4.6-9-6.7c-0.7,3.1,0.1,8.4,2.8,13.8c-1.4-1.3-3.6-6.5-4.3-10.4c-0.4,1.9,0.4,5.3,0.6,5.8
		c2,6.7,5.8,11.1,10.2,13.8c0.6,19.1,1,35.6,1.4,38c0.6,0,1-1.6,1.7-1.9c0.3-0.1,1.3,0.6,1.3,0.6l1.7-2.7l1.1,0.1
		c0,0,0.9-2.4,1.1-2.8c1-1.3,2.7-1.9,2.7-1.9s2-4.4,2.8-5.7c1.4-2.3,2.4-4,2.4-4S952,320.8,952.5,312z M954.5,261.8
		c25.3-1,39.6,5.8,39,13.8c-0.7,9.4-22.8,18.4-40,18.5c0.6-8.8,1-18.4,1.1-27.3C954.7,264.9,954.7,263.2,954.5,261.8z"/>
	<linearGradient id="SVGID_5_" gradientUnits="userSpaceOnUse" x1="1038.8236" y1="488.7122" x2="1038.8236" y2="146.5844">
		<stop  offset="0" style="stop-color:#BA3942"/>
		<stop  offset="1" style="stop-color:#29132A"/>
	</linearGradient>
	<path class="st4" d="M1015.2,347.9c11.8-3.8,39.6-7.1,54.8-5l1.3,0.7c0,0,1.3-4.8,1.6-5.8c0.3-1-2-4.1-2-4.1l1.3-0.3l-2-2.4
		c0,0,1,0.4,0.7,0.1c-4.4-7.7-49.4-11.5-64.3-2.8C1002.4,337.5,1005.3,351.2,1015.2,347.9z"/>
	<linearGradient id="SVGID_6_" gradientUnits="userSpaceOnUse" x1="1039.4409" y1="486.7122" x2="1039.4409" y2="144.5844">
		<stop  offset="0" style="stop-color:#BA3942"/>
		<stop  offset="1" style="stop-color:#29132A"/>
	</linearGradient>
	<path class="st5" d="M1007.7,307.8c-0.1,6.1,2.6,11.2,9.1,10.1c12.2-2.3,28.9-4.1,43.6,0l1.3,0.9c0,0,1.9-4.4,2.3-5.6
		c0.7,1.3,1.3,2.6,1.3,2.6l1.6-1.3l1.3,0.7l1.6,1l1-1.6c0,0,2.1,2.3,2.3,2.3c-11.2-29.9-15.5-55.5-16.8-64.6
		c-1-6.5-6.3-8.4-11.8-8.3c-3.3-2.3-9.8-2.7-21.5-1c-3.1,25.9-10.1,46.3-16.8,62.8C1006.8,305.8,1007.3,306.8,1007.7,307.8z
		 M1039,276.3c2.6,6.8,5.4,14.1,8.5,21.4c-5.1-1.4-11.1-2.6-16.9-2.8C1033.6,289,1036.5,282.8,1039,276.3z"/>
	<linearGradient id="SVGID_7_" gradientUnits="userSpaceOnUse" x1="1089.9407" y1="486.7122" x2="1089.9407" y2="144.5844">
		<stop  offset="0" style="stop-color:#BA3942"/>
		<stop  offset="1" style="stop-color:#29132A"/>
	</linearGradient>
	<path class="st6" d="M1094.3,331.2l1.7-0.4l0.7-3.6l1,1.3c0,0,3-34.6,4.1-64.1c0.9-26.3-15.7-24.6-21.9-23.1
		c-1.4,0.3-2.1,1.6-2,2.1c3.3,16.9,2.8,97.1,3.8,103.1c0.6,0,1.9-1.6,1.9-1.6l1.1-3.8l1.1,1l2.4-3.3l4.1-2.4L1094.3,331.2z"/>
	<linearGradient id="SVGID_8_" gradientUnits="userSpaceOnUse" x1="1138.9844" y1="486.7122" x2="1138.9844" y2="144.5844">
		<stop  offset="0" style="stop-color:#BA3942"/>
		<stop  offset="1" style="stop-color:#29132A"/>
	</linearGradient>
	<path class="st7" d="M1121.1,343.8c11.8-3.8,28-8,43.1-5.8l1.3,0.6c0,0,1.3-4.7,1.7-5.8c0.3-0.9-2.1-4-2.1-4l1.3-0.3l-1.9-2.4
		c0,0,0.9,0.4,0.7,0.1c-3-5.3-19.2-8.3-33.9-7c1-10.1,3.6-33,4.8-56.1c1.6-26-15.2-24.5-21.6-22.9c-1.4,0.4-2.1,1.7-2,2.3
		c2.1,12.1,1.7,54.8,1.6,80.9c-0.6,0.3-1.1,0.6-1.7,0.9C1108.5,333.2,1111.2,346.9,1121.1,343.8z"/>
	<linearGradient id="SVGID_9_" gradientUnits="userSpaceOnUse" x1="1202.1604" y1="486.7122" x2="1202.1604" y2="144.5844">
		<stop  offset="0" style="stop-color:#BA3942"/>
		<stop  offset="1" style="stop-color:#29132A"/>
	</linearGradient>
	<path class="st8" d="M1187.1,268.6c0-1,22.5-8.1,39.3-8.1c7.7-13.2-4.8-20.2-4.8-20.2c-4.7,0-52.1,3.6-53,19.1
		c0,0-1.6-0.6-2.3,11.8c-1.4,24.6,60.4,28.6,59.6,41c-0.4,6.8-53.9,23.5-51.4-20.5l-0.7-1.7l-2.3,2.6c0,0-1.6,8.5-1.7,15.5
		c-0.1-8.3,0.4-14,0.4-14s-2.4,7.1-3,18.2c-0.7,11.1,12.1,31.5,31.7,31.5c19.6,0,37.3-5.7,38.9-32
		C1239.9,279.8,1186.7,272.2,1187.1,268.6z"/>
	<linearGradient id="SVGID_10_" gradientUnits="userSpaceOnUse" x1="728.7334" y1="486.7122" x2="728.7334" y2="144.5844">
		<stop  offset="0" style="stop-color:#BA3942"/>
		<stop  offset="1" style="stop-color:#29132A"/>
	</linearGradient>
	<path class="st9" d="M730.2,365.8c-5.1-3.6-11.7-2.6-15.2-1.6c-0.7,0.3-1.1,0.7-1.6,1.1c-9.7,0-18.4,0.3-25.5,1.3
		c-7.7,1.1-7.4,24.5,4.6,24.2c2.4-0.1,9.7-0.6,22.5-1.3c1.3,29.9,1.1,75.3,1.9,79.7c0.6-0.1,1.9-5,1.9-5l1.3,3.6l1.9-2.8h1.1
		c0,0,0.9-2.6,1.3-3c1-1.3,1.7-0.1,1.7-0.1l2.3-5.1l1.1,0.1l3.1-7c0,0,4-32.7,4.8-61.5c6-0.3,12.7-0.7,19.9-1
		c12.4-4,16.9-13.5,17.5-18.8C759.5,367.5,744.3,366.3,730.2,365.8z"/>
	<linearGradient id="SVGID_11_" gradientUnits="userSpaceOnUse" x1="800.2114" y1="486.7122" x2="800.2115" y2="144.5844">
		<stop  offset="0" style="stop-color:#BA3942"/>
		<stop  offset="1" style="stop-color:#29132A"/>
	</linearGradient>
	<path class="st10" d="M801.2,439.1c16.5,0.3,27.3-17.5,27.3-38.6c0-26-21.5-32.2-28.8-28.9c-1.3,0.6-1.6,1.6-1.7,2
		c0,0.3,0.9,0.9,1,1c0.2,0.4-0.3,0.6-0.7,0.8c0,0,0-0.1,0-0.1c-0.6-2.8-8.4-9.5-14.4-6.8c-1.6,0.7-12.1,13.7-12.1,33.6
		C771.9,414.5,782.6,438.8,801.2,439.1z M796.9,378.7c1.4-0.3,1.7-1.9,1.5-3l0.1,0c0,0,13-0.9,13,20.1c0,16.5-7.8,23.9-10.5,23.6
		c-1.6-0.1-9.8-5.4-9.8-21.5C791.1,388,794.9,382.3,796.9,378.7z"/>
	<linearGradient id="SVGID_12_" gradientUnits="userSpaceOnUse" x1="801.6581" y1="488.7122" x2="801.6581" y2="146.5844">
		<stop  offset="0" style="stop-color:#BA3942"/>
		<stop  offset="1" style="stop-color:#29132A"/>
	</linearGradient>
	<path class="st11" d="M829.1,453.8l-1.9-2.3c0,0,0.9,0.3,0.7,0c-4.4-7.7-37.9-10.7-52.8-2c-4.1,9.3-1.3,22.9,8.7,19.6
		c11.8-3.8,28-8,43.3-5.8l1.3,0.7c0,0,1.3-4.8,1.6-5.8c0.3-1-2-4.1-2-4.1L829.1,453.8z"/>
	<linearGradient id="SVGID_13_" gradientUnits="userSpaceOnUse" x1="910.2169" y1="486.7122" x2="910.2169" y2="144.5844">
		<stop  offset="0" style="stop-color:#BA3942"/>
		<stop  offset="1" style="stop-color:#29132A"/>
	</linearGradient>
	<path class="st12" d="M916.9,362.4c-0.3,0,8.4,5.1,11.2,14.1c-3.1-7.3-13.4-13.7-13.7-13.7c-0.9,0-1.6-0.1-2.4-0.1l-1,1.4
		c14.7,8.5,23.5,78.3-6.7,87.4c-7.5-8.8-12.5-22.5-8.1-35.6c-1.3-6.3-14.5-5.3-18.9,6.8c-5.7,15.4,0.9,41.8,34.3,41.8
		C954.4,464.6,955.8,368.5,916.9,362.4z"/>
	<linearGradient id="SVGID_14_" gradientUnits="userSpaceOnUse" x1="979.6477" y1="488.7122" x2="979.6477" y2="146.5844">
		<stop  offset="0" style="stop-color:#BA3942"/>
		<stop  offset="1" style="stop-color:#29132A"/>
	</linearGradient>
	<path class="st13" d="M1007.1,453.8l-1.9-2.3c0,0,0.9,0.3,0.7,0c-4.4-7.7-37.9-10.7-52.8-2c-4.1,9.3-1.3,22.9,8.7,19.6
		c11.8-3.8,28-8,43.3-5.8l1.3,0.7c0,0,1.3-4.8,1.6-5.8c0.3-1-2-4.1-2-4.1L1007.1,453.8z"/>
	<linearGradient id="SVGID_15_" gradientUnits="userSpaceOnUse" x1="978.201" y1="486.7122" x2="978.201" y2="144.5844">
		<stop  offset="0" style="stop-color:#BA3942"/>
		<stop  offset="1" style="stop-color:#29132A"/>
	</linearGradient>
	<path class="st14" d="M979.2,439.1c16.5,0.3,27.3-17.5,27.3-38.6c0-26-21.5-32.2-28.8-28.9c-1.3,0.6-1.6,1.6-1.7,2
		c0,0.3,0.9,0.9,1,1c0.2,0.4-0.3,0.6-0.7,0.8c0,0,0-0.1,0-0.1c-0.6-2.8-8.4-9.5-14.4-6.8c-1.6,0.7-12.1,13.7-12.1,33.6
		C949.9,414.5,960.6,438.8,979.2,439.1z M974.9,378.7c1.4-0.3,1.7-1.9,1.5-3l0.1,0c0,0,13-0.9,13,20.1c0,16.5-7.8,23.9-10.5,23.6
		c-1.6-0.1-9.8-5.4-9.8-21.5C969.1,388,972.9,382.3,974.9,378.7z"/>
	<linearGradient id="SVGID_16_" gradientUnits="userSpaceOnUse" x1="1048.4303" y1="486.7122" x2="1048.4303" y2="144.5844">
		<stop  offset="0" style="stop-color:#BA3942"/>
		<stop  offset="1" style="stop-color:#29132A"/>
	</linearGradient>
	<path class="st15" d="M1078,405.2c-12.4-1.7-39.3,2.8-48.8,4c0.1,0.6,0.7,0.9,1.7,1.1c0.4,0,12.5-1.9,20.9-1.4
		c-12.8,1.9-19.4,3.1-18.9,3.6c3.6,4.6,8.7,10.2,14.5,12c1,0,18.5,1.9,28.9,2.6c-5.6,7.4-15.7,15.2-27.6,15.2
		c-15.4,0-26.3-12.7-25.9-21.6c0.6-17.7,19.4-38.6,42-27c4.6-1.9,7.8-11.7,8-17.9c0.4-18.2-59.5-11.7-61.4,42.8
		c-1,31.2,19.1,45.4,38.3,45.4c22.5,0,37.9-17.7,35.6-39.7C1086.3,418.3,1083.9,405.9,1078,405.2z"/>
	<linearGradient id="SVGID_17_" gradientUnits="userSpaceOnUse" x1="1124.5985" y1="486.7122" x2="1124.5985" y2="144.5844">
		<stop  offset="0" style="stop-color:#BA3942"/>
		<stop  offset="1" style="stop-color:#29132A"/>
	</linearGradient>
	<path class="st16" d="M1131.3,362.4c-0.3,0,8.4,5.1,11.2,14.1c-3.1-7.3-13.4-13.7-13.7-13.7c-0.9,0-1.6-0.1-2.4-0.1l-1,1.4
		c14.7,8.5,23.5,78.3-6.7,87.4c-7.5-8.8-12.5-22.5-8.1-35.6c-1.3-6.3-14.5-5.3-18.9,6.8c-5.7,15.4,0.9,41.8,34.3,41.8
		C1168.7,464.6,1170.2,368.5,1131.3,362.4z"/>
	<linearGradient id="SVGID_18_" gradientUnits="userSpaceOnUse" x1="1197.1646" y1="486.7122" x2="1197.1646" y2="144.5844">
		<stop  offset="0" style="stop-color:#BA3942"/>
		<stop  offset="1" style="stop-color:#29132A"/>
	</linearGradient>
	<path class="st17" d="M1165.4,432c-0.1,6.1,2.6,11.2,9.1,10.1c12.2-2.3,28.9-4.1,43.6,0l1.3,0.9c0,0,1.9-4.4,2.3-5.6
		c0.7,1.3,1.3,2.6,1.3,2.6l1.6-1.3l1.3,0.7l1.6,1l1-1.6c0,0,2.1,2.3,2.3,2.3c-11.2-29.9-15.5-55.5-16.8-64.6
		c-1-6.5-6.3-8.4-11.8-8.3c-3.3-2.3-9.8-2.7-21.5-1c-3.1,25.9-10.1,46.3-16.8,62.8C1164.6,430,1165,431,1165.4,432z M1196.7,400.5
		c2.6,6.8,5.4,14.1,8.5,21.4c-5.1-1.4-11.1-2.6-16.9-2.8C1191.3,413.2,1194.2,407.1,1196.7,400.5z"/>
	<linearGradient id="SVGID_19_" gradientUnits="userSpaceOnUse" x1="1196.5472" y1="488.7122" x2="1196.5472" y2="146.5844">
		<stop  offset="0" style="stop-color:#BA3942"/>
		<stop  offset="1" style="stop-color:#29132A"/>
	</linearGradient>
	<path class="st18" d="M1229.9,457.6l-2-2.4c0,0,1,0.4,0.7,0.1c-4.4-7.7-49.4-11.5-64.3-2.8c-4.1,9.3-1.3,22.9,8.7,19.6
		c11.8-3.8,39.6-7.1,54.8-5l1.3,0.7c0,0,1.3-4.8,1.6-5.8c0.3-1-2-4.1-2-4.1L1229.9,457.6z"/>
</g>
</svg>
