<?xml version="1.0" encoding="utf-8"?>
<!-- Generator: Adobe Illustrator 24.3.0, SVG Export Plug-In . SVG Version: 6.00 Build 0)  -->
<svg version="1.1" id="Layer_1" xmlns="http://www.w3.org/2000/svg" xmlns:xlink="http://www.w3.org/1999/xlink" x="0px" y="0px"
	 viewBox="0 0 207.6 57.9" style="enable-background:new 0 0 207.6 57.9;" xml:space="preserve">
<style type="text/css">
	.st0{fill:none;stroke:#FFFFFF;stroke-width:4;stroke-miterlimit:10;}
	.st1{fill:#FFFFFF;}
</style>
<path class="st0" d="M178.7,2.5H28.9C14.4,2.5,2.5,14.4,2.5,28.9l0,0c0,14.6,11.9,26.4,26.4,26.4h149.7c14.6,0,26.4-11.9,26.4-26.4
	l0,0C205.1,14.4,193.2,2.5,178.7,2.5z"/>
<g>
	<g>
		<path class="st1" d="M48.8,33.4c-0.8,1.5-1.2,2.5-2,3.8c-1.3,2-3.2,4.6-5.6,4.6c-2,0-2.5-1.3-5.5-1.3c-3,0-3.5,1.3-5.5,1.3
			c-2.3,0-4.2-2.3-5.5-4.3c-3.7-5.6-4.2-12.4-1.9-15.9c1.5-2.5,4.2-4,6.6-4s4,1.3,6,1.3s3.2-1.3,6-1.3c2.2,0,4.5,1.2,6,3.2
			C42.6,23.7,43.4,31.3,48.8,33.4z"/>
		<g>
			<path class="st1" d="M39.7,15.2c1-1.3,1.9-3.2,1.5-5.2c-1.7,0.2-3.7,1.2-4.8,2.6c-1.2,1.4-2,3.3-1.5,5
				C36.7,17.7,38.6,16.6,39.7,15.2z"/>
		</g>
	</g>
	<g>
		<g>
			<path class="st1" d="M69.6,18.5l-6.3,18.4h2.9l1.8-5.7h6.1l1.8,5.7H79l-6.1-18.4C72.9,18.5,69.6,18.5,69.6,18.5z M71.1,21.6
				c0.2,0.9,0.5,1.7,0.6,2.6l1.7,5h-4.7l1.7-5C70.7,23.4,71,22.6,71.1,21.6z"/>
			<path class="st1" d="M87.2,23.4c-1.8,0-3.3,0.6-4.4,2.2l-0.2-2h-2.4v0.2c0,1.2,0.2,2.4,0.2,4.2v14.2h2.9v-6.6
				c0.9,1,2.2,1.7,3.9,1.7c1.7,0,3.2-0.6,4.2-1.8c1.2-1.4,1.8-3.2,1.8-5.4c0-2-0.5-3.8-1.7-5C90.3,24,88.9,23.4,87.2,23.4z
				 M86.5,25.6c2.6,0,3.6,2.4,3.6,4.5c0,2.9-1.4,4.7-3.8,4.7c-1.5,0-2.9-1-3.2-2.6c0-0.2-0.2-0.5-0.2-0.9v-2.2c0-0.2,0-0.5,0.2-0.6
				v-0.2C83.5,26.8,85,25.6,86.5,25.6z"/>
			<path class="st1" d="M101.6,23.4c-1.8,0-3.3,0.6-4.4,2.2L97,23.8h-2.6V24c0,1.2,0.2,2.4,0.2,4.2v14.2h2.9v-6.6
				c0.9,1,2.2,1.7,3.9,1.7s3.2-0.6,4.2-1.8c1.2-1.4,1.8-3.2,1.8-5.4c0-2-0.5-3.8-1.7-5C104.6,24,103.3,23.4,101.6,23.4z M101,25.6
				c2.6,0,3.6,2.4,3.6,4.5c0,2.9-1.4,4.7-3.8,4.7c-1.5,0-2.9-1-3.2-2.6c0-0.2-0.2-0.5-0.2-0.9v-2.2c0-0.2,0-0.5,0.2-0.6v-0.2
				C98.1,26.8,99.5,25.6,101,25.6z"/>
			<path class="st1" d="M119.7,26.3c-2.6-1-3.3-1.8-3.3-3.2c0-1.2,1-2.6,3.2-2.6c1.8,0,3,0.6,3.2,0.9l0.2,0.2l0.9-2.4l-0.2-0.2
				c-0.5-0.3-1.8-0.9-4.1-0.9c-3.6,0-6.1,2-6.1,5.1c0,2.4,1.5,4.1,5,5.4c2.4,0.9,3.2,1.8,3.2,3.3c0,1.7-1.4,2.9-3.6,2.9
				c-1.4,0-2.9-0.3-4.1-1.2l-0.2-0.2l-0.6,2.4l0.2,0.2c1,0.6,3,1.2,4.7,1.2c4.7,0,6.6-2.9,6.6-5.4C124.5,29.4,123.1,27.6,119.7,26.3
				z"/>
			<path class="st1" d="M129.6,20.4l-2.9,1v2.4h-2V26h2v6.8c0,1.7,0.3,2.9,1,3.6c0.6,0.6,1.5,1,2.7,1c1,0,1.8-0.2,2.2-0.3h0.2
				l-0.2-2.2h-0.3c-0.3,0.2-0.6,0.2-1.4,0.2c-1,0-1.5-0.6-1.5-2.4v-6.8h3.3v-2.2h-3.3v-3.2L129.6,20.4L129.6,20.4z"/>
			<path class="st1" d="M139.7,23.4c-3.9,0-6.6,2.9-6.6,7.1c0,4.1,2.7,6.9,6.5,6.9l0,0c3.2,0,6.6-2.2,6.6-7.1c0-2-0.6-3.8-1.8-5
				C143.3,24,141.8,23.4,139.7,23.4z M139.7,25.6c2.6,0,3.8,2.6,3.8,4.7c0,2.9-1.5,5-3.8,5l0,0c-2.2,0-3.8-2-3.8-4.7
				C136,28,137.2,25.6,139.7,25.6z"/>
			<path class="st1" d="M154.8,23.4L154.8,23.4c-0.3-0.2-0.6-0.2-0.9-0.2c-1.5,0-2.7,0.9-3.6,2.2v-2h-2.6v0.2c0,1.2,0.2,2.4,0.2,4.1
				v9.2h2.9v-7.1c0-0.3,0-0.6,0-1c0.3-1.7,1.5-2.9,2.9-2.9c0.3,0,0.5,0,0.6,0h0.3C154.8,25.8,154.8,23.4,154.8,23.4z"/>
			<path class="st1" d="M161.1,23.2c-3.8,0-6.3,3-6.3,7.3c0,4.1,2.6,6.8,6.6,6.8c2,0,3.6-0.5,4.4-0.9h0.2l-0.5-2l-0.2,0.2
				c-0.9,0.3-1.7,0.6-3.6,0.6c-1.2,0-4.1-0.3-4.2-4.1h9V31c0-0.3,0-0.6,0-1.2C166.7,26.7,165.4,23.2,161.1,23.2z M161,25.5
				c0.9,0,1.5,0.3,2,0.9c0.9,0.9,1,2,1,2.6h-6.5C157.8,27.1,158.9,25.5,161,25.5z"/>
		</g>
	</g>
</g>
</svg>
