<?xml version="1.0" encoding="utf-8"?>
<!-- Generator: Adobe Illustrator 24.3.0, SVG Export Plug-In . SVG Version: 6.00 Build 0)  -->
<svg version="1.1" id="Layer_1" xmlns="http://www.w3.org/2000/svg" xmlns:xlink="http://www.w3.org/1999/xlink" x="0px" y="0px"
	 viewBox="0 0 64 64" style="enable-background:new 0 0 64 64;" xml:space="preserve">
<style type="text/css">
	.st0{fill:#BA6525;}
</style>
<path class="st0" d="M58.9,36c-0.1,1-0.3,2-0.7,3c-1,2.1-2,4.2-4.6,4.5c-0.8,0.1-1.4-4.7-1.6-5.5c-0.7-2.6-0.8-1.3-0.9-3.9
	c0-1.9,0-4.1-0.8-5.9C50,27.3,49.8,27,49,27.2c-1.4,0.2-2.8,0.4-4.1-0.4c-1-0.6-1.6-1.7-1.3-2.9c-0.7,0.1-1.3,0.2-1.9,0.2
	c-1.9,0.3-3.8,0.4-5.8,0.5c-4.1,0.2-8.2,0.3-12.2,0.8C19.9,25.8,18.2,25,16,28c-3,4-3.1,10.3-4.1,14.3c-0.4,1.7-2.7,1.9-3.6,0.5
	c-1.2-1.8-1.4-4.1-1.5-6.2c-0.5-0.1-1.6-0.2-2.3,0c-1,0.2-2.5,4,0.7,9.6c2,3.5,4.2,4.1,5.6,4c0.4,0,1-2.1,1.3-2.2
	c0.2-0.1,0.1,1.9,0.1,1.9c0.9,4.1,6.1,8.7,11.6,10.8S32,65.3,42,60.5s10.7-10.9,10.7-10.9c0.3-5.6,0.6,0,0.8,0
	c5.2-0.3,4.6-3.3,6.8-7.3C62.3,38.6,59.6,36.5,58.9,36z"/>
<path class="st0" d="M58,15.8"/>
<path class="st0" d="M60.8,20.5c-0.2-1.4-0.3-2.8-1.5-3.5c-0.4-0.6-1.1-0.9-1.7-0.7c-0.1-0.5-0.3-1-0.6-1.7
	c-0.3-0.7-0.5-1.2-0.7-1.6c0.8-1,3.9-5.2,0.4-10.5c0,0-1.6-0.6-1.4,2c0.3,2.7,0.8,6.7-0.5,6.4c0,0-3.6-6.1-8.3-7.1
	c-4.7-0.9-4.3-3.3-9.9-3.2C30.9,0.8,24.9-1,12.2,7.6c0,0-1.4,2-1.1,2.5c0,0-6.7,6.2-7,8.9s-3.1,4.7,0.3,7.9c0,0-1.1,6.2,4.3,8.2
	c0,0,0.4,6.9,1.2,7.1c0.8,0.3,1.1-5,1.1-5S11,27,16.7,24.6c5.7-2.4,15.7-2.8,15.7-2.8s8.7,0.2,11-1c2.2-1.2,3.9,0.1,4.1,0.6
	c0,0,0.5,3-1.6,3.5c0,0-1,0.6,0.7,0.8c0.9,0.1,3.3-0.4,5.4-1.2c0,0.1,0,0.2,0.1,0.2c0.2,0.4,0.4,0.8,0.7,1.1c-0.1,0-0.2,0-0.2,0
	l1.1,7.6c0,0,1.4,1.3,0.9,2.6c-0.5,1.3,0.1,4.4,0.1,4.4c2.9-0.9,3.1-5.6,3.1-5.6c1.2-1.5,1.9-3.1,2.4-4.7c0.2-0.3,0.4-0.6,0.5-1
	C61.1,28,61,26.4,61,25C61,23.5,61,22,60.8,20.5z"/>
</svg>
