<?xml version="1.0" encoding="utf-8"?>
<!-- Generator: Adobe Illustrator 24.3.0, SVG Export Plug-In . SVG Version: 6.00 Build 0)  -->
<svg version="1.1" id="Layer_1" xmlns="http://www.w3.org/2000/svg" xmlns:xlink="http://www.w3.org/1999/xlink" x="0px" y="0px"
	 viewBox="0 0 235 252.4" style="enable-background:new 0 0 235 252.4;" xml:space="preserve">
<style type="text/css">
	.st0{fill:#FFFFFF;}
	.st1{fill:#F8F189;}
	.st2{fill:#422505;}
	.st3{fill:#F8F8F8;}
	.st4{fill:#EDF0F6;}
	.st5{fill:#EB4235;}
	.st6{fill:#F8F3B4;}
	.st7{fill:#5A3000;}
</style>
<g>
	<path class="st0" d="M223.9,68.1c-0.6-0.4-1.2-0.9-1.8-1.3c-4.7-3.5-9.9-7.4-19-7.4c-3.8,0-8.1,0.7-13.1,2.1
		c1.6-6.2,2.7-13.6,2.1-21.1c-1-13-7-23.9-17.2-31.4c-7.9-5.8-18.8-9-30.6-9c-6,0-12.2,0.9-17.7,2.5c-11,3.3-18.6,7.7-26,15.4
		C91.4,10.6,80.9,6.6,70.5,6.6c-7.3,0-14.5,2-20.6,5.8c-6.5,4-15.6,10.5-20,20.4c-5.3,12.1-5.3,25,0,39.7c0.7,2,1.6,3.9,2.5,5.7
		c-1,0.2-1.9,0.4-2.9,0.6c-10.4,2.3-18.3,7-23.6,13.9c-7.8,10.2-7.9,22.6-0.2,32.5c4,5.2,10.3,9.4,18.6,12.6c0,0.4,0,1,0.1,1.8
		c0.3,1.6,0.5,3.1,0.8,4.7c0.6,3.8,1.3,7.8,2,11.7c3.7,19.8,8.2,40.5,13.4,61.6c0.1,0.4,0.2,0.8,0.3,1.2c-0.4,0-0.9-0.1-1.4-0.1
		c-1.3,0-2.4,0.2-3.4,0.4c-3.7,0.7-5.5,2.8-6.5,4.5c-0.2,0.4-0.4,0.7-0.5,1c-0.8,0.6-2,1.6-2.9,3.3c-1.2,2.3-1.1,4.5-1,5.9v0.1
		c0.2,4,1.3,7.1,3.4,9.6c1.6,1.8,4.6,4,9.8,4.1h0.1h0.4l0,0c1.3,0.8,2.5,1.3,4,1.7c0.7,0.2,1.7,0.4,2.8,0.4c1.5,0,3-0.4,4.3-1.1
		c2.1-1.2,3.3-3,3.8-3.9c0.1,0,0.1-0.1,0.2-0.1c1.8-1.1,3.3-2.6,4.4-4.3c0.1-0.2,0.3-0.5,0.4-0.7c1.9,0.4,3.8,0.7,5.6,1.1l5.2,1
		c18.1,3.4,36.3,6.9,54.4,10.4c0.9,0.2,1.8,0.3,2.7,0.3c2,0,3.9-0.5,5.8-1.5c10.4-5.5,21-11.1,31.2-16.5c0.4-0.2,0.9-0.5,1.3-0.7
		c-0.1,1.4,0.1,3.3,1,5.1c0.7,1.4,2.1,3.3,5,4.6c1.1,0.5,2.1,0.8,3,1.1l0.5,0.2c0.2,0.1,0.4,0.1,0.6,0.2c1,0.3,2.3,0.8,3.7,0.9
		c0.4,0,0.8,0.1,1.2,0.1c1.4,0,2.6-0.3,3.5-0.5c0.2,0,0.4-0.1,0.6-0.1s0.5-0.1,0.7-0.1c0.9-0.1,2.2-0.3,3.6-0.9
		c0.5-0.2,1-0.4,1.4-0.7c0.5,0.2,1.1,0.4,1.6,0.6c0.7,0.2,1.5,0.3,2.3,0.4c0.1,0,0.1,0,0.2,0c1.1,0.4,2.2,0.7,3.3,0.7
		c2.7,0,5.2-1.4,6.7-3.7l0.1-0.1c0.4-0.4,1-0.9,1.6-1.6c2.4-3.1,2.3-7.3-0.2-10.2c-0.1-0.1-0.2-0.3-0.4-0.4
		c-0.2-0.4-0.5-0.9-0.8-1.4c-1.3-1.7-3.1-2.9-5.1-3.3c-0.4-0.1-0.9-0.1-1.4-0.1c-0.3,0-0.5,0-0.8,0c-0.1,0-0.2,0-0.3-0.1
		c-0.5-0.1-1.1-0.2-1.6-0.2h-0.1c-1.2-1.9-3.1-3-4.4-3.7h0.1c0.3-0.1,0.5-0.3,0.8-0.4c0.7-0.3,1.6-0.7,2.5-1.3
		c0.6,0.4,1.3,0.9,2.2,1.3c1.4,0.6,2.9,0.9,4.3,0.9c3.4,0,6.5-1.6,8.4-4.3c0.5-0.7,0.9-1.5,1.1-2.1c0.4-0.2,0.9-0.4,1.3-0.7
		c0.9-0.5,3.7-1.9,5-5.2c0.5-1.3,0.7-2.6,0.8-3.4c0-0.2,0-0.4,0.1-0.5c0.3-1,1-3.1,0-5.6c-0.9-2.5-2.8-3.7-3.4-4.1
		c-0.3-0.2-0.6-0.4-0.9-0.5c-0.1-0.4-0.1-0.8-0.2-1.1c-0.8-3-2.8-5.6-5.6-6.9c-1.1-0.5-2.3-0.9-3.5-1c0.1-0.8,0.3-1.5,0.4-2.3
		l4.4-22l6.7-32.9c0-0.1,0-0.2,0.1-0.3c0.1-0.5,0.3-1.2,0.4-2.1c8.7-5.3,16.4-14.1,18.7-25.3C236.9,88,232.4,74.3,223.9,68.1z"/>
	<g>
		<path class="st1" d="M53.1,232.3c-0.9-0.4-2.3-0.3-2.3-1.7c0-1.6-0.6-2.9-1.5-4c-0.4-0.3-0.8-0.6-1.3-0.6c-1,0-1.8,0.7-2.8,0.9
			c-1,0.2-1.9-0.1-2.7-0.6c-0.5-0.2-1-0.5-1.5-0.6c-0.6-0.1-1.1,0-1.7,0l0,0c-0.8,0.2-1.6,0.4-2.4,0.6c-0.1,0-0.2,0.1-0.2,0.2
			c-0.1,0.1-0.2,0.2-0.3,0.2c0,0,0,0-0.1,0.1c0.1-0.1,0,0,0,0s-0.1,0-0.1,0.1l0,0l0,0c-0.1,0.2-0.2,0.3-0.3,0.5c0,0.1,0,0.1,0,0.2
			c-0.1,0.3-0.1,0.5-0.3,0.8c-0.3,0.5-0.8,0.7-1.2,1c-0.1,0.1-0.2,0.1-0.3,0.2c-0.2,0.1-0.3,0.2-0.4,0.4c-0.3,0.3-0.5,0.7-0.6,1.1
			c-0.2,0.8-0.2,1.6-0.2,2.4c0.1,0.1,0.1,0.2,0.1,0.4c0,0.1,0,0.2-0.1,0.3c0,0.1,0,0.3,0,0.4c0.1,2.7,2.1,5,4.7,5.5
			c0.3-1.6,2.4-2.5,3.7-1.6c1,0.7,0,1.3-0.2,1.9c1-0.2,1.8-0.1,2.4,0.8c0.6,0.9,1.8,0.8,2.6,1.4c0.3-0.2,0.8,0.1,1.1-0.3
			c-0.2-0.6-0.6-1.1-0.8-1.8c-0.2-1.2-0.2-2.3,1-2.6c1.2-0.3,1.1,1.1,1.6,1.8c0.3-0.8,1-0.8,1.6-1C53,237.7,54.3,234.8,53.1,232.3z"
			/>
		<path class="st1" d="M204.8,208.9c-0.7,0.5-0.7,1.4-1.1,2c-0.4-1.1,0-2.2-0.5-3.3c-0.3-0.7-0.7-1-1.4-0.5
			c-1.1,0.8-1.5,1.9-1.3,3.2c0.2,1.2,0.6,2.3,2.1,2.3c-2.2,1-4.4,0.8-5.9-1c-1-1.1-1.9-1.4-3.2-1c1.3-2.4,1.3-2.4-0.6-2.9
			c1-4.8,1.9-9.7,2.9-14.5c0.1-0.5,0.1-1.6,1-0.9c1.4,1.1,2.4,0.5,3.6-0.1c0.4-0.2,0.9-0.4,1.4-0.6c0-0.1,0.1-0.2,0.2-0.2v-0.1
			c0.5-0.2,1-0.2,1.4,0c2.1,1.6,3.5,3.5,2.9,6.3c-0.1,0.4-0.1,0.8,0.3,0.8c1.3,0.2,2.3,1.3,3.7,1.1l0,0c0.8,1.9,0.8,3.8,0.1,5.7
			c-0.3,0.4-0.3,1.2-1.1,1.3l0.1,0.1l-0.1,0.1l0,0C207.7,207.6,206.2,208.3,204.8,208.9L204.8,208.9z"/>
		<path class="st1" d="M188.1,226c0.7,0.2,1.1,0.6,1.5,1.2c0.4,1.3,0.4,2.7,0.3,4.1l0,0c-0.6,0.4-0.9,1-0.6,1.5c0.4,1,0,1.8-0.4,2.6
			l0,0c-0.2,0.1-0.4,0.3-0.6,0.4c-0.1-0.8,0.3-1.4,0.5-2.1c0.1-0.4,0-0.8-0.3-1s-0.6,0.1-0.9,0.3c-1.3,1-1.3,2.3,0.2,3.4
			c-0.3,0.3-0.8,0.4-0.9,0.8l0,0c-0.4,0-0.3,0.4-0.6,0.5c-0.1,0.1-0.3,0.2-0.4,0.3h0.1c-1.9-0.1-3.7,0.2-5.4,1
			c-0.2,0.1-0.5,0.3-0.6,0.2c-2.3-1.2-5.3-1.2-7.2-3.3c-1.3-1.4-1-3.3,0.3-4.5c1-0.9,1.5-1.9,1.2-3.2c-0.7-3.1-0.3-3.7,2.9-4.4
			c0.5-0.1,1.1-0.2,1.6-0.3c1.7-0.6,3.5-0.7,5.1,0.4l0,0c0.1,0.1,0.3,0.3,0.4,0.4l0,0c0.1,0.1,0.3,0.3,0.4,0.4l0,0
			c0.1,0.1,0.3,0.3,0.4,0.4l0,0c0.1,0.4,0.4,0.4,0.7,0.4l-0.1-0.1c0.6,0.6,1.3,0.7,2.1,0.7l0,0C187.4,226,188.1,225.6,188.1,226z
			 M183,227c0.1-0.1,1.1,0.6,1.4-0.2c0.3-0.9-0.5-1.6-1.2-2c-1.2-0.8-2.6-0.8-4-0.5c-0.7,0.2-1.1,0.8-0.3,1.3
			C180,226.4,181,227.5,183,227z"/>
		<path class="st1" d="M196.9,238c-1-0.7-2.5-0.5-3.9-0.9c-1.3-0.4-1.8-1.6-1.9-2.9c-0.1-1,0.3-1.8,1.2-2.6c1.3-1.2,2.5-1.6,4-0.8
			c0.4,0.2,0.8,0,1.1-0.1c1-0.5,1.8,0.3,1.9,0.9c0.2,1,0.5,1.6,1.4,2c0.6,0.3,0.2,0.8,0,1.2c-0.5,1.2-1.9,1.7-2.4,2.9
			C198.1,238.1,197.5,237.9,196.9,238z"/>
		<path class="st2" d="M210.2,199.8c-1.4,0.1-2.4-1-3.7-1.1c-0.4-0.1-0.4-0.5-0.3-0.8c0.6-2.8-0.8-4.7-2.9-6.3
			c2.4,1.1,3.3,3.1,3.2,5.5c0,1,0.1,1.4,1.2,1.5C208.7,198.6,209.6,199,210.2,199.8z"/>
		<path class="st2" d="M210.2,205.5c0.7-1.9,0.7-3.8-0.1-5.7c1.5,1.1,1.2,2.6,0.7,4C210.7,204.4,210.5,204.9,210.2,205.5z"/>
		<path class="st2" d="M204.8,209c1.5-0.7,2.9-1.4,4.4-2.1C208.2,208.5,206.6,209.1,204.8,209z"/>
		<path class="st2" d="M183.9,223.5c-1.6-1-3.4-1-5.1-0.4C180.5,222,182.5,222.1,183.9,223.5z"/>
		<path class="st2" d="M189.9,231.2c0.1-1.4,0.1-2.8-0.3-4.1C190.5,228.4,190.4,229.8,189.9,231.2z"/>
		<path class="st2" d="M188.9,235.3c0.4-0.8,0.8-1.6,0.4-2.6c-0.2-0.6,0.1-1.2,0.6-1.5C189.4,232.5,189.6,234,188.9,235.3z"/>
		<path class="st2" d="M186.9,237c0.1-0.5,0.6-0.5,0.9-0.8l0,0c0.3-0.1,0.5-0.2,0.5-0.5l0,0c0.2-0.1,0.4-0.3,0.6-0.4
			C188.6,236.2,187.9,236.9,186.9,237z"/>
		<path class="st2" d="M187.6,225.5c-0.8,0-1.5-0.1-2.1-0.7C186.2,225,187,225,187.6,225.5z"/>
		<path class="st2" d="M188.1,226c0-0.4-0.7,0-0.6-0.5C187.8,225.5,188.2,225.5,188.1,226z"/>
		<path class="st2" d="M186.3,237.4c0.2-0.1,0.2-0.5,0.6-0.5C187.1,237.5,186.4,237.2,186.3,237.4z"/>
		<path class="st2" d="M185.5,224.8c-0.3,0-0.6,0-0.7-0.4C185.2,224.3,185.4,224.6,185.5,224.8z"/>
		<path class="st2" d="M185.9,237.7L185.9,237.7L185.9,237.7z"/>
		<path class="st2" d="M184.2,223.8c-0.1-0.1-0.3-0.3-0.4-0.4C184.1,223.4,184.2,223.5,184.2,223.8z"/>
		<path class="st2" d="M184.5,224.1c-0.1-0.1-0.3-0.3-0.4-0.4C184.4,223.7,184.5,223.9,184.5,224.1z"/>
		<path class="st2" d="M184.9,224.5c-0.1-0.1-0.3-0.3-0.4-0.4C184.8,224.1,184.9,224.2,184.9,224.5z"/>
		<polygon class="st2" points="209.1,206.9 209.3,206.9 209.2,206.8 		"/>
		<path class="st2" d="M201.9,191.6L201.9,191.6L201.9,191.6z"/>
		<path class="st3" d="M88.8,227.3c0-6.6,0-13.3,0-19.9c-0.1-9.3-0.2-18.6-0.3-28c-0.1-9.6-0.2-19.2-0.4-28.8
			c-0.1-3.1-0.1-6.3-0.1-9.4c0-0.8,0.1-1.5,0.8-2.1c3.6-3.3,7.1-6.6,10.6-9.9c0.7-0.6,1.1-0.9,1.9,0.1c6.4,7.5,12.9,14.9,19.4,22.3
			c1,1.1,1.3,2.3,1.3,3.6c0.3,5.4,0.4,10.9,0.7,16.3c0.4,7.8,0.8,15.6,1.2,23.5c0.3,5.3,0.4,10.5,0.7,15.8c0.4,8,0.8,16,1.2,24
			c0.1,2,0.1,4,0.2,6c0.1,0.9-0.1,1.1-1.1,0.9c-9.6-1.8-19.2-3.6-28.7-5.4c-1.8-0.3-3.6-0.8-5.5-1c-1.3-0.2-1.8-0.7-1.7-2.1
			c0.1-2,0-4,0-6.1C88.9,227.3,88.8,227.3,88.8,227.3z"/>
		<path class="st4" d="M128.8,241.5c-0.4-9.5-0.8-18.7-1.2-28c-0.5-10.9-1-21.8-1.5-32.7c-0.4-8.9-0.9-17.8-1.4-26.7
			c-0.1-1,0.3-1.8,0.9-2.6c6.8-8.3,13.7-16.6,20.5-24.9c0.5-0.6,0.8-1,1.6-0.1c2.4,2.9,5,5.8,7.5,8.6c0.4,0.5,0.6,0.9,0.6,1.5
			c0.1,5.9,0.2,11.8,0.3,17.7c0.2,10,0.4,20,0.7,29.9c0.1,6.2,0.3,12.4,0.5,18.7c0.2,7.6,0.3,15.1,0.5,22.7c0,0.6,0.1,1-0.5,1.3
			C147.9,231.8,138.5,236.6,128.8,241.5z"/>
		<path class="st3" d="M35.3,144.7c6.9,4.1,13.6,8.1,20.2,12.1c2,1.2,4,2.5,6.1,3.6c0.8,0.5,1.2,1.1,1.3,2c3,19.6,6.1,39.2,9.1,58.7
			c0.6,3.7,1.1,7.4,1.7,11.2c-6.6-1.3-13-2.5-19.4-3.7c-0.9-0.2-1-0.8-1.2-1.4c-3.9-15.1-7.6-30.3-10.9-45.6c-2.6-12-4.9-24-7-36.1
			C35.2,145.3,35.3,145.1,35.3,144.7z"/>
		<path class="st4" d="M204.5,131.8c-1.2,6.3-2.4,12.6-3.6,19c-3.8,19.3-7.6,38.7-11.3,58c-0.3,1.5-0.9,2.3-2.2,2.9
			c-4.5,2.2-9,4.6-13.5,6.9c-0.5,0.2-0.9,0.7-1.7,0.5c0-0.5,0-1.1,0-1.6c0-21.5,0-43,0-64.6c0-1.3,0.4-2,1.5-2.6
			c9.9-6.1,19.8-12.3,29.7-18.5c0.3-0.2,0.6-0.3,0.9-0.4C204.3,131.5,204.4,131.6,204.5,131.8z"/>
		<path class="st5" d="M85.2,143.2c0.1,2.1,0.3,4.1,0.3,6.1c0.1,8.5-0.1,17.1,0.1,25.6c0.3,9.9,0.1,19.8,0.4,29.7
			c0.2,9.3,0.2,18.6,0.3,28c0,1.3-0.2,1.7-1.6,1.3c-2.4-0.6-4.8-1-7.3-1.4c-0.7-0.1-1-0.4-1.1-1.2c-1.9-12.6-3.9-25.1-5.8-37.7
			c-1.6-10.3-3.2-20.7-4.8-31c-0.1-0.9-0.1-1.6,0.7-2.2c6.1-5.6,12.2-11.3,18.3-16.9C84.8,143.4,84.9,143.3,85.2,143.2z"/>
		<g>
			<path class="st5" d="M165.9,222.4L165.9,222.4C165.9,222.5,165.9,222.4,165.9,222.4z"/>
			<path class="st5" d="M165.3,222.8L165.3,222.8L165.3,222.8z"/>
		</g>
		<path class="st1" d="M40,133.4c-0.4-0.8-0.7-1.4-1.8-1.5c-2-0.2-4-0.7-6-0.9c-2.5-0.2-4.7-1.2-7.2-1.4c0.4,0.2,0.9,0.5,1.3,0.7
			c3.6,2,7.6,2.3,11.5,3.3c0.2,0,0.4,0,0.6,0.1c0.2,0,0.4,0,0.6,0.3c0.2,0.1,0.4,0.3,0.5,0.4c0.4,0.5,0.6,1.2,0.6,1.8
			s-0.1,1.3-0.3,1.8s-0.5,1.1-1,1.4c-0.8,1.9-0.3,2.7,1.5,3.9C41.7,140.1,41.6,136.7,40,133.4z"/>
		<path class="st6" d="M202.5,212.7c-1.6,0-1.9-1.1-2.1-2.3c-0.2-1.3,0.2-2.4,1.3-3.2c0.7-0.5,1.1-0.2,1.4,0.5
			c0.5,1,0.2,2.2,0.5,3.3l0,0c-0.9,0.2-0.9,0.8-0.8,1.6C202.7,212.6,202.6,212.7,202.5,212.7z"/>
		<path class="st6" d="M192.7,207.9c1.9,0.5,1.9,0.5,0.6,2.9c-0.7,0.3-1.4,0.6-1.1-0.7C192.4,209.4,192.6,208.6,192.7,207.9z"/>
		<path class="st1" d="M44,82.7c0.7,0.4,1.4,1.1,1.1,1.6c-0.4,0.9-1.4,0.3-2.2,0.4C43.3,84.1,43.7,83.4,44,82.7z"/>
		<path class="st1" d="M202.9,212.5c-0.2-0.7-0.1-1.3,0.8-1.6C203.5,211.5,203.5,212.2,202.9,212.5z"/>
		<path class="st4" d="M204.2,131.3c0.1-0.2,0.3-0.4,0.4-0.2c0.2,0.2,0.1,0.5-0.1,0.6C204.4,131.6,204.3,131.5,204.2,131.3z"/>
		<path class="st1" d="M99.5,27c-0.1-0.1-0.3-0.2-0.4-0.4C99.2,26.8,99.3,26.9,99.5,27z"/>
		<path class="st1" d="M99.9,27.2c-0.2,0.1-0.4,0-0.4-0.2C99.6,27.1,99.7,27.1,99.9,27.2z"/>
		<path class="st1" d="M100.2,27.6c-0.3,0.1-0.4,0-0.3-0.3C100,27.4,100.1,27.5,100.2,27.6z"/>
		<path class="st3" d="M179.9,71.7c-0.1,0-0.2,0.1-0.4,0.1c0-0.1,0-0.3,0-0.4C179.7,71.5,179.8,71.6,179.9,71.7z"/>
		<path class="st6" d="M48.8,240.1c-0.7,0.7-0.6,2.1-2,2c-0.2-0.6-0.6-1.1-0.8-1.8c-0.2-1.2-0.2-2.3,1-2.6c1.2-0.3,1.1,1.1,1.6,1.8
			C48.7,239.7,48.7,239.9,48.8,240.1z"/>
		<path class="st6" d="M40.7,240.3c-0.9,0.4-1.8,0.5-2.8,0.1c-0.1-0.4-0.4-0.4-0.7-0.4l0,0c0.3-1.6,2.4-2.5,3.7-1.6
			C41.9,239.2,40.9,239.7,40.7,240.3z"/>
		<path class="st6" d="M183,227c-2,0.5-3-0.6-4.2-1.4c-0.8-0.5-0.4-1.1,0.3-1.3c1.4-0.4,2.8-0.3,4,0.5c0.7,0.4,1.4,1.1,1.2,2
			C184.1,227.6,183.2,226.9,183,227z"/>
		<path class="st6" d="M187.7,236.1c-1.4-1-1.5-2.4-0.2-3.4c0.3-0.2,0.6-0.5,0.9-0.3s0.4,0.6,0.3,1c-0.2,0.7-0.6,1.3-0.5,2.1l0,0
			C187.9,235.6,187.6,235.6,187.7,236.1L187.7,236.1z"/>
		<path class="st1" d="M37.2,240.1c0.3-0.1,0.6,0,0.7,0.4C37.6,240.5,37.3,240.4,37.2,240.1z"/>
		<path class="st1" d="M187.7,236.1c-0.1-0.5,0.2-0.5,0.5-0.5C188.2,235.9,188,236,187.7,236.1z"/>
		<path class="st2" d="M89.2,74.9c5.7,1.5,11.3,2.4,17,2.4c6.7,0,13.2-1.6,19.6-3.5c2.1-0.6,4.2-1.3,6.2-2c0.6-0.2,1.1-0.4,1.1,0.6
			c0.1,9.9-2.9,18.3-11.6,23.6c-8.9,5.5-20.6,2.7-26.8-6.1C91.7,85.7,89.7,80.2,89.2,74.9z M129.8,76c-0.9-0.2-1.6,0.3-2.4,0.5
			c-9.6,2.8-19.2,4.8-29.3,3.2c-1.6-0.3-3.3-0.5-5-0.7c0.7,3,1.8,5.6,3.4,8c4,6.1,9.4,9.4,17,8.6C123.6,94.4,129.8,84.6,129.8,76
			c0,0,0.1,0,0.1-0.1v-0.1C129.9,75.9,129.8,76,129.8,76z"/>
		<path class="st2" d="M67.1,63.7c-0.2-1.5-0.2-3,0.2-4.5c1.1-3.5,4.4-4.7,7.4-2.6c3.1,2.2,4.9,7.1,3.9,10.8s-4.4,5-7.6,2.8
			c-1.1-0.7-2-1.7-2.5-2.9c0.3,0,0.6,0,0.8,0c1.2,0.1,2.1-0.4,2.5-1.6c0.3-1.1,0.1-2.2-0.9-2.8c-1.1-0.7-2.2-0.6-3.2,0.4
			C67.6,63.4,67.4,63.5,67.1,63.7z"/>
		<path class="st2" d="M141.3,58.4c0-0.6-0.1-1.3,0-1.8c0.5-2.3,1.4-4.4,4.1-5c2.1-0.5,4.4,0.8,5.7,3.3c1.8,3.3,2.1,6.7,0.3,10.1
			c-1.6,2.9-4.8,3.3-7.2,1.1c-1.2-1.1-2-2.5-2.6-4.1c2.2,0.7,3.6,0.3,4-1.2c0.3-1,0.1-2-0.7-2.7C143.6,57,142.4,57.5,141.3,58.4z"/>
		<path class="st0" d="M141.3,58.4c1.1-0.9,2.3-1.4,3.6-0.3c0.9,0.7,1,1.7,0.7,2.7c-0.4,1.5-1.9,1.9-4,1.2
			C140.9,60.8,140.6,59.7,141.3,58.4z"/>
		<path class="st0" d="M67.1,63.7c0.2-0.2,0.5-0.3,0.7-0.5c1-1,2.1-1,3.2-0.4c1.1,0.7,1.3,1.7,0.9,2.8c-0.3,1.2-1.2,1.7-2.5,1.6
			c-0.3,0-0.6,0-0.8,0C67.4,66.4,66.8,65.2,67.1,63.7z"/>
		<path class="st5" d="M129.8,76c0,8.6-6.2,18.4-16.4,19.6c-7.5,0.9-13-2.5-17-8.6c-1.6-2.4-2.7-5-3.4-8c1.7,0.3,3.4,0.5,5,0.7
			c10.1,1.6,19.7-0.4,29.3-3.2C128.2,76.3,128.9,75.8,129.8,76L129.8,76z"/>
		<path class="st5" d="M129.8,76c0,0,0.1-0.1,0.1-0.2v0.1C129.9,76,129.8,76,129.8,76L129.8,76z"/>
		<path class="st5" d="M170,219.1c0-0.3,0-0.5,0-0.8c0-21.5,0-42.9,0-64.4c0-1.3-0.4-2.3-1.3-3.3c-2.3-2.6-4.5-5.3-6.9-7.8
			c-1.2-1.3-2.2-2.8-3.8-4c0.2,3.7,0.1,7.1,0.3,10.5c0.2,4.7,0.2,9.4,0.3,14.1c0.2,10.2,0.4,20.3,0.7,30.5
			c0.2,6.5,0.2,12.9,0.4,19.4c0.1,3.6,0.3,7.2,0.3,10.8c0,1.2,0.4,1.4,1.4,0.9c0.9-0.4,1.7-0.9,2.5-1.3c0.3-0.1,0.6-0.2,1-0.3
			c0.4-0.2,0.8-0.4,1.2-0.6c0.8-0.4,1.5-0.7,2.3-1.1c0.7-0.3,1.7-0.7,1.6-1.6C170,219.7,170,219.4,170,219.1z"/>
		<path class="st6" d="M100.9,27.8c-0.4-0.1-0.7-0.4-0.9-0.7c-0.3-0.3-0.7-0.6-1-0.9c-0.7-0.6-1.4-1.1-2.1-1.7c-0.7-0.5-1.3-1-2-1.6
			c-0.3-0.2-0.6-0.4-0.9-0.6l-0.1-0.1c-2.4-1.7-5.2-3-7.8-4.3c-6.5-3-13.2-4.3-20.4-3c-9.8,1.8-17.4,7.2-23.8,14.5
			c-3.3,3.7-5.4,7.9-6.6,12.7c-1.6,6.5-1.4,13-0.4,19.5c0.3,2.2,0.8,4.4,1.5,6.3c2.1,5.1,4.8,10,7.7,14.7c0.7,0.4,1.4,1.1,1.1,1.6
			c-0.4,0.9-1.4,0.3-2.2,0.4c-6.3,0.3-12.3,1.5-18.1,3.9c-6.6,2.7-12,7-15.1,13.6c-3,6.6-1.9,12.7,2.2,18.5
			c2.7,3.8,6.5,5.9,10.4,7.8c0.8,0.4,1.7,0.8,2.6,1.2c2.4,1,4.7,2.2,7.2,3c1.2,0.4,2.5,0.6,3.7,0.9c1,0.2,2.2,0.3,3.1,0.8
			c2.2,1.3,0.4,4.8-0.6,6.3c-0.1,0.2-0.2,0.4-0.1,0.7c-0.2,0.2-0.3,0.5-0.2,0.7c0.1,0.2,0.2,0.3,0.4,0.4c0.1,0.1,0.2,0.1,0.3,0.1
			c0.2,0.1,0.4,0.2,0.6,0.2c0.1,0,0.1,0,0.2,0c0.3,0.2,0.6,0.3,0.9,0.3c0,0.1,0,0.1-0.1,0.2c3.9,2.3,7.9,4.6,11.8,6.9
			c0.3-1.3,0.8-2.7,1-4.1c0.8-5.5,1.6-11,2.4-16.6c0.1-0.5,0.1-1-0.6-1.1c-0.9-0.2-1.8-0.5-2.7-0.7c-5.8-1.4-11.6-3-16.5-6.5
			c-7-5.1-8.4-12.4-6-19.7c1.6-4.7,5.4-7.6,10-9.2c2.9-1,5.9-1.7,9-1.9c3.8-0.3,7.6-0.7,11.4-0.2c2.3,0.3,4.7,0.1,7.4,0.1
			c-2.6-4.4-5.1-8.5-7.3-12.7c-2.5-4.8-5.1-9.6-7.2-14.6c-1.9-4.4-3-9-4.3-13.6c-1.5-5.2-1.8-10.5,0.4-15.6c2.2-5.2,5.4-9.3,11-11.4
			c2.2-0.8,4.4-1.4,6.6-2c4.3-1.3,8.7-1.8,13.2-1.1c6.1,1,11.5,3.5,16.6,6.8c1.1,0.7,2.2,1.6,3.4,2c0.3,0.3,0.7,0.5,1,0.6
			C101.3,29,101.5,28,100.9,27.8z"/>
		<path class="st7" d="M220.3,73.1c-8.8-6.3-13.9-12.6-40.4-1.3c-0.1,0-0.2,0.1-0.4,0.1c0-0.1,0-0.3,0-0.4c2-2,18.1-38.1-8.2-57.4
			c-11.5-8.4-29.3-9.7-43-5.6c-11.1,3.3-18.4,7.9-25.9,16.6c-0.6,0.7-0.6,2.2-1.8,1.1c-15.7-15-34.2-16.6-47.5-8.4
			c-6.5,4-14.1,9.7-17.6,17.7c-5.1,11.6-4.1,23.5,0.2,35.2c1.4,3.9,3.6,7.7,5.7,11.3c1,1.7,1.7,1.3-0.1,1.5c-3.4,0.3-7,0.9-10.3,1.6
			c-7.7,1.7-15.1,5.2-20.1,11.7c-5.2,6.8-7,16.4-0.2,25c8.5,10.9,27.6,14,27.8,14.2c-0.7,1.7-1.6,3.4-2.6,5c0,0-0.1,0-0.1-0.1
			c-1.7-1-3.4-2-5.2-3c0,0.4,0,0.7,0,1c0.9,5.4,1.8,10.8,2.8,16.2c3.8,20.5,8.3,40.9,13.3,61.2c0.8,3.1,1.7,6.1,2.2,9.3
			c-0.5-0.2-1.1-0.3-1.7-0.2c-1.1,0.2-2.1,0.7-3.2,0.7c-1.2-0.1-2.2-0.9-3.4-1.1c-1.1-0.2-2.2,0-3.2,0.2s-1.8,0.6-2.2,1.4
			s-0.6,1.7-1.3,2.3c-0.7,0.6-1.5,1-1.9,1.8c-0.4,0.9-0.4,1.9-0.4,2.9c0.1,2.1,0.5,4.2,1.9,5.8c1.3,1.5,3.3,2,5.3,2
			c1.1,0,2.2-0.1,3.2,0.6c0.9,0.6,1.7,1,2.7,1.2c0.9,0.2,1.9,0.4,2.8-0.1c0.7-0.4,1.2-1.1,1.6-1.8c0.2-0.4,0.5-0.8,0.8-1.2
			c0.4-0.4,1-0.7,1.5-1c0.9-0.5,1.7-1.2,2.2-2.2c0.9-1.5,1-3.2,0.4-4.8c4,0.7,8,1.5,11.9,2.2c19.9,3.8,39.7,7.6,59.6,11.4
			c1.6,0.3,2.9,0.2,4.4-0.6c19.3-10.2,38.7-20.4,58-30.6c1.4-0.7,3-1.2,4.1-2.6c0,0,0.1,0,0.2,0c1.2-0.5,2.5-0.8,3.7,0
			c0,0,0.1,0.1,0.2,0.1c0.3,0.3,0.7,0.6,1,0.8c0.5,0.4,1,0.8,1.6,1c1.9,0.8,4.2,0.4,5.4-1.3c0.6-0.9,0.5-2.2,1.2-2.9
			c0.4-0.4,1-0.6,1.4-0.9c0.6-0.3,1.2-0.6,1.8-0.9c0.9-0.5,1.8-1.1,2.2-2.1c0.4-1.1,0.3-2.2,0.7-3.3c0.2-0.6,0.4-1.2,0.1-1.7
			c-0.2-0.5-0.6-0.9-1.1-1.2c-0.5-0.4-1.1-0.6-1.7-0.8c-0.3-0.1-0.9-0.2-1.3-0.4c-0.2-0.2-0.5-0.5-0.5-0.8c0-0.4,0.1-0.7,0.1-1.1
			c0-0.7,0-1.4-0.2-2.1c-0.3-1.3-1.2-2.4-2.4-3c-1.2-0.6-2.7-0.6-4,0c-0.7,0.3-1.3,0.8-2.1,0.7c-0.6,0-1.7-0.3-1.9-1
			c0-0.1-0.1-0.2-0.2-0.3c0-0.1,0-0.2,0-0.4c0.7-3,1.2-6,1.9-9c3.7-18.3,7.4-36.6,11.1-54.8c0.2-0.9,0.6-1.7,0.3-2.8
			c-2.5,1.5-4.8,3-7.3,4.5c0-0.9-0.1-1.7-0.1-2.6c0-0.7,0-0.7-0.1-1.3c11-2.2,23.6-12,26.4-25.5C230.4,89.4,227.1,77.9,220.3,73.1z
			 M52.6,236.2c-0.4,0.8-1.1,1.4-1.9,1.9c-0.7,0.4-1.4,0.8-1.9,1.4c-0.4,0.5-0.8,1.2-1.2,1.8c-0.6,0.8-1.3,1.1-2.2,0.9
			c-0.9-0.1-1.9-0.4-2.7-1c-0.7-0.5-1.3-0.8-2.2-0.9c-1.8-0.2-3.6,0.2-5.3-0.8s-2.4-2.9-2.6-4.7c-0.1-0.9-0.2-1.9-0.1-2.9
			c0.1-1,0.7-1.5,1.4-2c0.6-0.5,1.2-0.9,1.5-1.7c0.3-0.7,0.5-1.6,1.3-2c0.5-0.2,1.1-0.3,1.6-0.4c0.6-0.1,1.2-0.2,1.8-0.1
			c1.1,0.1,2.1,0.8,3.2,1c1.1,0.2,2.1,0,3.1-0.3c0.5-0.2,1-0.4,1.6-0.3c0.5,0,1,0.3,1.5,0.6c0.8,1.1,1.3,2.3,1.3,3.8
			c0,1.3,1.2,1.3,2,1.6C53.3,233.5,53.3,235,52.6,236.2z M54.3,228.5c-0.9-0.2-1-0.8-1.2-1.4c-3.9-15.1-7.6-30.3-10.9-45.6
			c-2.6-12-4.9-24-7-36.1c0-0.2,0-0.3,0-0.7c6.9,4.1,13.6,8.1,20.2,12.1c2,1.2,4,2.5,6.1,3.6c0.8,0.5,1.2,1.1,1.3,2
			c3,19.6,6.1,39.2,9.1,58.7c0.6,3.7,1.1,7.4,1.7,11.2C67.2,231,60.8,229.7,54.3,228.5z M84.8,234c-2.4-0.6-4.8-1-7.3-1.4
			c-0.7-0.1-1-0.4-1.1-1.2c-1.9-12.6-3.9-25.1-5.8-37.7c-1.6-10.3-3.2-20.7-4.8-31c-0.1-0.9-0.1-1.6,0.7-2.2
			c6.1-5.6,12.2-11.3,18.3-16.9c0.1-0.1,0.2-0.1,0.5-0.2c0.1,2.1,0.3,4.1,0.3,6.1c0.1,8.5-0.1,17.1,0.1,25.6
			c0.3,9.9,0.1,19.8,0.4,29.7c0.2,9.3,0.2,18.6,0.3,28C86.4,233.9,86.1,234.3,84.8,234z M124.8,241.9c-9.6-1.8-19.2-3.6-28.7-5.4
			c-1.8-0.3-3.6-0.8-5.5-1c-1.3-0.2-1.8-0.7-1.7-2.1c0.1-2,0-4,0-6.1c-0.1,0-0.1,0-0.2,0c0-6.6,0-13.3,0-19.9
			c-0.1-9.3-0.2-18.6-0.3-28c-0.1-9.6-0.2-19.2-0.4-28.8c-0.1-3.1-0.1-6.3-0.1-9.4c0-0.8,0.1-1.5,0.8-2.1c3.6-3.3,7.1-6.6,10.6-9.9
			c0.7-0.6,1.1-0.9,1.9,0.1c6.4,7.5,12.9,14.9,19.4,22.3c1,1.1,1.3,2.3,1.3,3.6c0.3,5.4,0.4,10.9,0.7,16.3
			c0.4,7.8,0.8,15.6,1.2,23.5c0.3,5.3,0.4,10.5,0.7,15.8c0.4,8,0.8,16,1.2,24c0.1,2,0.1,4,0.2,6C126,241.9,125.8,242.1,124.8,241.9z
			 M157.3,227c-9.4,4.8-18.8,9.6-28.4,14.5c-0.4-9.5-0.8-18.7-1.2-28c-0.5-10.9-1-21.8-1.5-32.7c-0.4-8.9-0.9-17.8-1.4-26.7
			c-0.1-1,0.3-1.8,0.9-2.6c6.8-8.3,13.7-16.6,20.5-24.9c0.5-0.6,0.8-1,1.6-0.1c2.4,2.9,5,5.8,7.5,8.6c0.4,0.5,0.6,0.9,0.6,1.5
			c0.1,5.9,0.2,11.8,0.3,17.7c0.2,10,0.4,20,0.7,29.9c0.1,6.2,0.3,12.4,0.5,18.7c0.2,7.6,0.3,15.1,0.5,22.7
			C157.9,226.3,158,226.7,157.3,227z M170,218.2c0,0.6,0,1.2-0.1,1.8c-0.4,1-5.4,3.2-5.5,3.2c-1,0.5-2,1-3,1.5s-1.4,0.2-1.4-0.9
			c0-3.6-0.2-7.2-0.3-10.8c-0.1-6.5-0.2-12.9-0.4-19.4c-0.3-10.2-0.5-20.3-0.7-30.5c-0.1-4.7-0.1-9.4-0.3-14.1
			c-0.2-3.4-0.1-6.8-0.3-10.5c1.6,1.2,2.6,2.7,3.8,4c2.3,2.6,4.6,5.2,6.9,7.8c0.9,1,1.3,2,1.3,3.3C170,175.3,170,196.8,170,218.2z
			 M197.2,192.8c0.5,0.3,1,0.3,1.5,0.2h0.1c0.8-0.1,1.4-0.4,2-0.8c0.7-0.4,1.6-0.5,2.4-0.3c1.5,0.4,2.5,1.6,2.7,3.1
			c0.1,0.8,0,1.5,0,2.3c0,0.1,0,0.2,0,0.3v0.1c0.1,0.6,0.4,1,0.8,1.3l0.1,0.1c0.1,0.1,0.2,0.1,0.3,0.1c0.2,0.1,0.3,0.1,0.5,0.2
			c0.6,0.2,1.1,0.3,1.6,0.6c0.5,0.2,1.2,0.6,1.3,1.2c0.1,0.5-0.3,1.2-0.4,1.7c-0.1,0.6-0.1,1.1-0.2,1.7c-0.2,1.2-1,1.8-2,2.4
			c-1,0.5-2.2,1-3.1,1.7s-1,1.5-1.3,2.5c-0.7,2.3-3.6,2.4-5.4,1.2c-1-0.7-1.7-1.6-2.9-2c-1-0.3-2-0.1-3,0.3c0-0.1,0-0.3,0-0.6
			c0.2-0.8,0.3-1.5,0.5-2.3c1-4.8,1.9-9.7,2.9-14.5c0.1-0.4,0.1-1,0.4-1.1C196.4,192.5,196.8,192.7,197.2,192.8z M203.3,131.7
			c0.3-0.2,0.6-0.3,0.9-0.4c0.1-0.2,0.3-0.4,0.4-0.2c0.2,0.2,0.1,0.5-0.1,0.6c-1.2,6.3-2.4,12.6-3.6,19c-3.8,19.3-7.6,38.7-11.3,58
			c-0.3,1.5-0.9,2.3-2.2,2.9c-4.5,2.2-9,4.6-13.5,6.9c-0.5,0.2-0.9,0.7-1.7,0.5v-1.6c0-21.5,0-43,0-64.6c0-1.3,0.4-2,1.5-2.6
			C183.6,144.1,193.4,137.9,203.3,131.7z M225.9,97.7c-1.2,5.7-3.9,10.9-8.2,15c-3.7,3.5-7.9,6.6-12.8,8.4c-1.4,0.5-2.9,0.6-4.3,1.1
			c-0.9,0.3-1.5,0.7-1.2,1.7c0.2,1,0,2.1,0.3,3.1c0.3,1.1,0.3,2.8,0.3,2.8s-1.3,0.8-2.2,1.3c-8.5,5.3-17,10.7-25.5,16.1
			c-0.9,0.6-1.3,0.7-2.1-0.3c-7.4-8.5-14.9-16.9-22.3-25.4c-0.8-0.9-1.1-0.9-1.8,0c-7.3,8.8-14.6,17.6-21.8,26.5c-0.8,1-1.1,1-2,0.1
			c-6.9-8-13.8-15.9-20.7-23.9c-0.7-0.8-1.1-0.8-1.9-0.1c-6.5,6.1-13,12.2-19.6,18.2c-5.1,4.8-10.3,9.5-15.5,14.3
			c-0.7,0.6-1.1,0.7-1.8,0.2c-3.5-2.2-7.1-4.3-10.7-6.4c-3.9-2.3-7.9-4.6-11.8-6.9c-0.4-0.2-0.6-0.4-0.9-0.7c0,0-0.1-0.1-0.2-0.1
			l0,0l0,0c-0.2-0.1-0.4-0.1-0.6-0.3c-0.2-0.1-0.4-0.4-0.4-0.6s0.1-0.4,0.2-0.6c0.2-0.5,0.5-1,0.7-1.6c0.3-0.7,0.7-1.4,0.9-2.2
			c0.3-0.6,0.5-1.2,0.8-1.8c0.1-0.2,0.1-0.5-0.1-0.6c-0.6-0.5-1.2-0.8-1.8-1c-0.2-0.2-0.6-0.2-0.9-0.2c-3.9-1.1-7.6-1.8-11.7-3.4
			c-0.5-0.2-0.9-0.5-1.3-0.7c-5-2.1-9.9-4.4-13.1-8.9c-4.1-5.7-5.2-11.9-2.2-18.5c3.1-6.7,8.4-10.9,15.1-13.6
			c5.6-2.3,11.6-3.5,17.7-3.9c0.1,0,0.3,0,0.4,0.1c0.2,0,0.4,0,0.6,0s0.4,0,0.6,0c0.2,0,0.4,0,0.7-0.1c0.3-0.2,0.4-0.5,0.4-0.8
			c0-0.2-0.2-0.4-0.4-0.6c-0.3-0.3-0.5-0.6-0.8-0.9c-0.1-0.1-0.1-0.1-0.2-0.1c-11.8-18-10.2-33.6-8.6-40c1.2-4.8,3.3-9,6.6-12.7
			c6.5-7.3,14-12.7,23.8-14.5c7.1-1.3,13.9,0,20.4,3c2.5,1.2,9.7,5.2,14.8,10.1c0.4,0.4,1,0.1,1.4,0.1c0.9-0.2,1.4-0.9,1.9-1.7
			c3.1-3.4,6.3-6.7,10.2-9.3c7-4.8,14.6-7.5,23.1-8.6c10.3-1.3,19.8,1,28.9,5.1c9,4.1,14,11.4,16,21.1c1.9,9.2,1.7,18.3-1.1,27.2
			c-1,3.2-1.9,6.5-3.3,9.7c-0.3,0.6-0.5,1.3-1,1.7c-0.1,0.5-0.1,1-0.1,1.5c0,0.1,0,0.2,0,0.4l0.1,0.1c0.4,0,0.9,0,1.3-0.1
			c0.3-0.6,0.8-0.9,1.4-1.1c5.7-2.7,11.5-4.8,17.7-6.1c10.3-2.2,18.2,1.8,24.1,9.6C225.4,83.4,227.3,90.4,225.9,97.7z"/>
		<path class="st7" d="M190.3,227.8c-0.4-2.4-3.5-2.6-5.1-3.8c-0.8-0.6-1.5-1.4-2.5-1.8c-1.1-0.5-2.2-0.4-3.4,0
			c-0.1,0-0.1,0.1-0.2,0.1c-0.4,0.1-0.8,0.2-1.2,0.3c-0.5,0.1-1.1,0.3-1.6,0.4c-0.5,0-0.9,0-1.4,0.2c-2.1,0.6-1.7,3.3-1.3,5
			c0.2,1-0.4,1.6-1,2.3c-0.6,0.7-1.1,1.3-1.3,2.2c-0.2,0.9-0.1,2.1,0.3,3c0.4,0.8,1.2,1.4,2,1.7c0.9,0.4,1.9,0.7,2.9,1
			s2.1,0.8,3.2,0.9s2.2-0.3,3.3-0.5c1.1-0.2,2.2-0.2,3.2-0.6c1.7-0.7,3.2-2.2,3.6-4.1c0.1-0.5-0.1-1,0-1.5c0-0.6,0.4-1.2,0.5-1.8
			C190.4,229.9,190.4,228.7,190.3,227.8z M189.3,229.5c0,0.5,0,1-0.1,1.4c-0.1,0.5-0.4,0.9-0.4,1.4c-0.1,0.5,0.1,0.9,0.1,1.4
			s-0.2,0.9-0.5,1.3c-0.4,0.8-1.1,1.4-1.9,1.8c-0.7,0.4-1.6,0.6-2.4,0.7c-1,0.1-1.9,0.4-2.9,0.6s-1.9,0-2.9-0.3s-2-0.6-3-1
			c-0.7-0.2-1.4-0.5-2-0.9c-0.9-0.6-1-1.6-1-2.7c0.1-1.7,1.6-2.4,2.2-3.8c0.3-0.8,0.1-1.6,0-2.4c-0.2-0.9-0.3-2.5,0.6-3
			c0.4-0.2,1-0.2,1.5-0.2c0.5-0.1,1-0.2,1.5-0.3c1-0.3,2.1-0.6,3.2-0.7c0.1,0,0.2,0,0.3-0.1c0.3,0,0.6,0.1,0.8,0.2
			c0.8,0.4,1.4,1,2,1.5s1.3,0.9,2,1.2c0.8,0.4,1.8,0.6,2.5,1.3C189.4,227.7,189.3,228.7,189.3,229.5z"/>
		<path class="st7" d="M201,233c-0.3-0.3-0.7-0.6-0.9-0.9c-0.2-0.4-0.3-0.9-0.6-1.3c-0.3-0.4-0.8-0.8-1.3-0.9
			c-0.6-0.1-1.2,0.3-1.7,0.1c-0.3-0.1-0.5-0.3-0.8-0.3s-0.6,0-0.9,0c-0.7,0.1-1.3,0.4-1.9,0.7c-0.3,0.1-0.3,0.4-0.2,0.6
			c-0.2,0.2-0.4,0.4-0.7,0.5c-0.4,0.3-0.7,0.7-0.9,1.1c-0.5,1-0.5,2.2-0.1,3.2c0.4,1.1,1.1,1.7,2.3,2c0.5,0.1,1,0.2,1.5,0.2
			c0.3,0,0.6,0,0.9,0.1c0.4,0,0.7,0.2,1,0.4c1,0.4,1.9,0.3,2.5-0.7c0.3-0.4,0.5-0.8,0.9-1.2c0.4-0.3,0.8-0.6,1.1-1
			C201.5,234.8,201.6,233.8,201,233z M200.1,234.9c-0.5,0.7-1.2,1.1-1.7,1.7c-0.2,0.3-0.3,0.7-0.6,0.9c-0.4,0.3-0.9,0.1-1.3-0.1
			c-1.4-0.7-4.1,0-4.7-1.9c-0.3-0.9-0.3-2.1,0.4-2.9c0.5-0.5,1.2-0.8,1.5-1.5c0.3-0.1,0.6-0.3,1-0.4c0.2-0.1,0.5-0.1,0.8-0.1
			c0.2,0,0.4,0.2,0.6,0.3c0.4,0.1,0.8,0.1,1.2,0c0.4-0.1,0.8-0.2,1.2,0.1c0.6,0.5,0.6,1.3,1.1,1.9c0.2,0.3,0.6,0.4,0.8,0.7
			C200.5,234.1,200.3,234.5,200.1,234.9z"/>
		<path class="st1" d="M221.2,77.8c-5.9-7.7-13.8-11.8-24.1-9.6c-6.2,1.3-12,3.4-17.7,6.1c-0.3,0.1-0.6,0.3-0.9,0.5
			c-0.2,0.1-0.4,0.2-0.5,0.2c-0.2,0.1-0.4,0.2-0.6,0.2c0,0-0.1,0-0.1-0.1l-0.1-0.1l0,0c0,0,0,0-0.1-0.1c0-0.1-0.1-0.1-0.1-0.2
			c0,0,0-0.1,0-0.2c0-0.2,0-0.4,0-0.6c0.1-0.2,0.2-0.5,0.3-0.7c0.2-0.6,0.4-1.1,0.7-1.7v-0.1c1.3-3,2.2-6.2,3.2-9.3
			c2.8-9,3-18,1.1-27.2c-2-9.7-7-17-16-21.1c-9.1-4.2-18.7-6.4-28.9-5.1c-8.4,1.1-16.1,3.8-23.1,8.6c-4.1,2.8-8.1,6.7-10.8,10
			c-1,1.2-2.4,1.2-4.1,0.6c-2.6-1.6-6.9-4.4-9.4-5.4c-3.2-1.5-6.8-2.5-10.3-3.1c-0.1,0-0.2,0-0.3,0c-2.7-0.6-5.4-0.9-7.9-1
			c-9-0.4-21.9,7.9-24.5,16.8c-3,10.5,0,23.7,3.9,33.6c3.1,8,7.5,15.2,12.8,21.8c-1.2,0-2.4,0-3.6-0.1c-3.8-0.5-7.6-0.1-11.4,0.2
			c-3.1,0.2-6.1,0.9-9,1.9c-4.6,1.7-8.4,4.5-10,9.2c-2.4,7.3-1,14.6,6,19.7c5,3.6,10.7,5.2,16.5,6.5c0.9,0.2,1.8,0.5,2.7,0.7
			c0.7,0.1,0.7,0.6,0.6,1.1c-0.8,5.5-1.5,11-2.4,16.6c-0.2,1.4-0.7,2.7-1,4.1c3.6,2.1,7.1,4.2,10.7,6.4c0.8,0.5,1.2,0.4,1.8-0.2
			c5.1-4.8,10.3-9.5,15.5-14.3c6.5-6.1,13.1-12.1,19.6-18.2c0.8-0.7,1.2-0.7,1.9,0.1c6.9,8,13.8,15.9,20.7,23.9c0.8,1,1.2,0.9,2-0.1
			c7.3-8.8,14.6-17.6,21.8-26.5c0.8-0.9,1.1-0.9,1.8,0c7.4,8.5,14.9,16.9,22.3,25.4c0.8,1,1.3,0.8,2.1,0.3c8-5.1,15.9-10.2,24-15.1
			c0.1,0,0.2,0,0.3-0.1c0.9-0.5,1.7-1,2.5-1.6c0.3-0.2,0.9-0.6,0.9-0.6s-0.2-1.4-0.2-1.9c-0.1-1.8,0-3.5-0.2-5.3
			c0.2-0.2,0.5-0.4,0.9-0.5c1.4-0.4,2.9-0.5,4.3-1.1c4.9-1.8,9.1-4.9,12.8-8.4c4.3-4,7-9.2,8.2-15C227.3,90.4,225.4,83.4,221.2,77.8
			z M78.7,67.4c-1,3.7-4.4,5-7.6,2.8c-1.1-0.7-2-1.7-2.5-2.9c-1.3-0.9-1.8-2-1.5-3.6c-0.2-1.5-0.2-3,0.2-4.5
			c1.1-3.5,4.4-4.7,7.4-2.6C77.8,58.8,79.6,63.7,78.7,67.4z M121.4,96c-8.9,5.5-20.6,2.7-26.8-6.1c-2.9-4.2-5-9.7-5.5-15
			c5.7,1.5,11.3,2.4,17,2.4c6.7,0,13.2-1.6,19.6-3.5c2.1-0.6,4.2-1.3,6.2-2c0.6-0.2,1.1-0.4,1.1,0.6C133.2,82.2,130.2,90.7,121.4,96
			z M151.4,64.9c-1.6,2.9-4.8,3.3-7.2,1.1c-1.2-1.1-2-2.5-2.6-4.1c-0.8-1.1-1-2.3-0.3-3.6c0-0.6-0.1-1.3,0-1.8
			c0.5-2.3,1.4-4.4,4.1-5c2.1-0.5,4.4,0.8,5.7,3.3C152.9,58.1,153.2,61.6,151.4,64.9z"/>
	</g>
</g>
</svg>
