<?xml version="1.0" encoding="utf-8"?>
<!-- Generator: Adobe Illustrator 24.3.0, SVG Export Plug-In . SVG Version: 6.00 Build 0)  -->
<svg version="1.1" id="Layer_1" xmlns="http://www.w3.org/2000/svg" xmlns:xlink="http://www.w3.org/1999/xlink" x="0px" y="0px"
	 viewBox="0 0 800 800" style="enable-background:new 0 0 800 800;" xml:space="preserve">
<style type="text/css">
	.st0{fill:#2D112B;}
	.st1{fill:#FFE885;}
</style>
<rect x="-2" y="-3" class="st0" width="805" height="806"/>
<g id="Layer_1_1_">
</g>
<g id="Layer_2_1_">
	<g>
		<g>
			<path class="st1" d="M220.6,534.5c-0.4-0.1-16.3-5-35.3-15.9c3.4-4.2,9.8-15.2-1.8-29.6c0,0-8.8,14.8-3.5,26.4
				c-6.8-4.2-13.7-9.1-20.5-14.8c2-2,13.3-14.3-0.3-31.2c0,0-10.5,17.5-1.7,29.4c-8.7-7.7-16.9-16.8-23.3-27.3c3.3-1.5,17-9,10.8-29
				c0,0-15.6,12.1-12.5,26.1c-3.7-6.5-6.8-13.6-9-21.2c-0.8-2.8-1.5-5.6-2.1-8.4c4.4-0.9,18.1-5.3,17.2-25.2c0,0-15.8,6.7-18.4,19.2
				c-1.9-11-2.5-21.6-2-31.6c5,0.7,16.2,0.4,22-15c0,0-14.6,0-21.5,8.7c0.9-10,2.8-19.3,5.3-28c4,1.6,16.2,4.8,25.3-10.3
				c0,0-15.9-3-24,5.7c3.5-10.9,7.7-20.5,11.9-28.4c4.3,2.5,15,6.5,26-5.8c0,0-13.2-5.3-22.8-0.1c5.9-10.3,11.2-17,12.7-18.9
				c1.7-2.1,3.5-4,5.3-5.9c2.7,1.9,14.8,9.1,27.5-4.8c0,0-12.3-4.9-21.8-0.6c6-5.4,12.4-10,18.3-13.8c3.9,2.4,15,7.3,26.5-5.4
				c0,0-5.9-2.4-12.6-2.4c6.4-3.2,10.7-4.8,10.8-4.9l-1.7-4.6c-1.1,0.4-22.6,8.5-42.3,25.4c3.4-5.7,7.4-17.9-6.2-31.6
				c0,0-12.1,25.7,2.9,34.5c-3.7,3.4-7.2,7-10.5,11c-3,3.7-6,7.7-8.9,12.2c1.9-7.6,1-18.2-10.5-29.7c0,0-14.5,30.8,3.8,41.1
				c-3.2,5.8-6.1,12.1-8.8,18.7c-0.5-7.4-4.1-16.2-15.9-24.2c0,0-8.1,32.1,10.8,39.3c-2,6.7-3.6,13.7-4.7,20.9
				c-1.4-7.5-6.3-16.5-20.5-22.6c0,0-2.1,34.3,18.9,36.8c-0.6,9-0.4,18.3,0.7,27.7c-3.9-8.1-12.8-17.7-32.9-17.6
				c0,0,12.6,35.1,34.7,29.3c0.7,3.6,1.6,7.1,2.6,10.7c0.9,3.2,2,6.2,3.2,9.2c-6.3-5.8-16.8-10.3-33.6-5.9c0,0,20.6,30,40.3,19.9
				c4.4,7.5,9.6,14.3,15.2,20.4c-8-3.2-19.6-3.9-33.9,6.5c0,0,30,20.3,44.7,4c4.7,4.1,9.6,7.9,14.5,11.2
				c-8.4-1.4-19.7,0.4-31.5,13.2c0,0,33.3,13.9,44.6-4.9c19.9,11.5,36.5,16.6,36.9,16.7L220.6,534.5z"/>
			<path class="st1" d="M579.4,534.5c0.4-0.1,16.3-5,35.3-15.9c-3.4-4.2-9.8-15.2,1.8-29.6c0,0,8.8,14.8,3.5,26.4
				c6.8-4.2,13.7-9.1,20.5-14.8c-2-2-13.3-14.3,0.3-31.2c0,0,10.5,17.5,1.7,29.4c8.7-7.7,16.9-16.8,23.3-27.3c-3.3-1.5-17-9-10.8-29
				c0,0,15.6,12.1,12.5,26.1c3.7-6.5,6.8-13.6,9-21.2c0.8-2.8,1.5-5.6,2.1-8.4c-4.4-0.9-18.1-5.3-17.2-25.2c0,0,15.8,6.7,18.4,19.2
				c1.9-11,2.5-21.6,2-31.6c-5,0.7-16.2,0.4-22-15c0,0,14.6,0,21.5,8.7c-0.9-10-2.8-19.3-5.3-28c-4,1.6-16.2,4.8-25.3-10.3
				c0,0,15.9-3,24,5.7c-3.5-10.9-7.7-20.5-11.9-28.4c-4.3,2.5-15,6.5-26-5.8c0,0,13.2-5.3,22.8-0.1c-5.9-10.3-11.2-17-12.7-18.9
				c-1.7-2.1-3.5-4-5.3-5.9c-2.7,1.9-14.8,9.1-27.5-4.8c0,0,12.3-4.9,21.8-0.6c-6-5.4-12.4-10-18.3-13.8c-3.9,2.4-15,7.3-26.5-5.4
				c0,0,5.9-2.4,12.6-2.4c-6.4-3.2-10.7-4.8-10.8-4.9l1.7-4.6c1.1,0.4,22.6,8.5,42.3,25.4c-3.3-5.7-7.4-17.9,6.2-31.6
				c0,0,12.1,25.7-2.9,34.5c3.7,3.4,7.2,7,10.5,11c3,3.7,6,7.7,8.9,12.2c-1.9-7.6-1-18.2,10.5-29.7c0,0,14.5,30.8-3.8,41.1
				c3.2,5.8,6.1,12.1,8.8,18.7c0.5-7.4,4.1-16.2,15.9-24.2c0,0,8.1,32.1-10.8,39.3c2,6.7,3.6,13.7,4.7,20.9
				c1.4-7.5,6.3-16.5,20.5-22.6c0,0,2.1,34.3-18.9,36.8c0.6,9,0.4,18.3-0.7,27.7c3.9-8.1,12.8-17.7,32.9-17.6
				c0,0-12.6,35.1-34.7,29.3c-0.7,3.6-1.6,7.1-2.6,10.7c-0.9,3.2-2,6.2-3.2,9.2c6.3-5.8,16.8-10.3,33.6-5.9c0,0-20.6,30-40.3,19.9
				c-4.4,7.5-9.6,14.3-15.2,20.4c8-3.2,19.6-3.9,33.9,6.5c0,0-30,20.3-44.7,4c-4.7,4.1-9.6,7.9-14.5,11.2
				c8.4-1.4,19.7,0.4,31.5,13.2c0,0-33.3,13.9-44.6-4.9C598,533.9,581.4,539,581,539.1L579.4,534.5z"/>
		</g>
		<g>
			<path class="st1" d="M302.3,351.2c0.2,0.2,0.4,0.5,0.4,0.9c0,0.8-0.4,1.2-1.3,1.2h-2.7v4.1c0,0.5-0.1,0.8-0.4,1.1
				c-0.3,0.3-0.6,0.4-1,0.4s-0.8-0.1-1-0.4c-0.3-0.3-0.4-0.6-0.4-1.1v-4.1h-10.5c-0.4,0-0.8-0.1-1-0.4c-0.2-0.2-0.4-0.5-0.4-0.9
				c0-0.3,0.1-0.7,0.4-1.1l11.6-16.8c0.3-0.4,0.8-0.6,1.3-0.6c0.4,0,0.7,0.1,1,0.4s0.4,0.6,0.4,1.1v15.8h2.7
				C301.7,350.8,302.1,350.9,302.3,351.2z M287.2,350.8h8.5v-12.3L287.2,350.8z"/>
			<path class="st1" d="M311.2,357.4c-1.7-1-3.1-2.5-4-4.4s-1.4-4.2-1.4-6.8c0-2.6,0.5-4.9,1.4-6.8s2.3-3.4,4-4.4s3.8-1.5,6.1-1.5
				c1.6,0,3.1,0.3,4.5,0.8s2.6,1.2,3.7,2.2c0.4,0.4,0.6,0.8,0.6,1.2c0,0.3-0.1,0.6-0.3,0.9c-0.2,0.2-0.4,0.4-0.7,0.4
				c-0.3,0-0.6-0.1-1-0.4c-1.2-0.9-2.3-1.6-3.3-2s-2.1-0.6-3.4-0.6c-2.7,0-4.8,0.9-6.3,2.7c-1.5,1.8-2.2,4.3-2.2,7.6
				c0,3.3,0.7,5.8,2.2,7.6c1.5,1.8,3.6,2.7,6.3,2.7c1.3,0,2.4-0.2,3.4-0.6s2.1-1,3.3-2c0.4-0.3,0.7-0.4,1-0.4s0.5,0.1,0.7,0.4
				c0.2,0.2,0.3,0.5,0.3,0.9c0,0.5-0.2,0.9-0.6,1.2c-1,0.9-2.3,1.7-3.7,2.2c-1.4,0.5-2.9,0.8-4.5,0.8
				C315,358.9,312.9,358.4,311.2,357.4z"/>
			<path class="st1" d="M340.3,342.2c0,0.4-0.1,0.7-0.3,0.9c-0.2,0.2-0.6,0.4-1.1,0.4l-1.1,0.1c-1.6,0.1-2.8,0.7-3.5,1.7
				c-0.8,1-1.2,2.1-1.2,3.5v8.6c0,0.5-0.1,0.8-0.4,1.1c-0.3,0.2-0.6,0.4-1,0.4s-0.8-0.1-1-0.4c-0.3-0.2-0.4-0.6-0.4-1v-14.9
				c0-0.4,0.1-0.8,0.4-1s0.6-0.4,1-0.4s0.7,0.1,1,0.4c0.3,0.2,0.4,0.6,0.4,1v2c0.5-1,1.2-1.8,2.1-2.4c0.9-0.5,2-0.9,3.1-1h0.5
				C339.8,341,340.3,341.4,340.3,342.2z"/>
			<path class="st1" d="M345.3,357.8c-1.2-0.7-2.2-1.8-2.9-3.1c-0.7-1.4-1-2.9-1-4.7c0-1.8,0.3-3.4,1-4.7c0.7-1.4,1.6-2.4,2.9-3.1
				c1.2-0.7,2.7-1.1,4.3-1.1c1.6,0,3.1,0.4,4.3,1.1c1.3,0.7,2.2,1.8,2.9,3.1c0.7,1.4,1,2.9,1,4.7c0,1.8-0.3,3.4-1,4.7
				c-0.7,1.4-1.6,2.4-2.9,3.1s-2.7,1.1-4.3,1.1S346.6,358.5,345.3,357.8z M353.5,354.8c0.9-1.1,1.4-2.8,1.4-4.9s-0.5-3.7-1.4-4.9
				c-0.9-1.1-2.2-1.7-3.9-1.7c-1.7,0-3,0.6-3.9,1.7s-1.4,2.8-1.4,4.9s0.5,3.8,1.4,4.9s2.2,1.7,3.9,1.7S352.6,356,353.5,354.8z"/>
			<path class="st1" d="M386.7,341.1c0.4,0,0.7,0.1,1,0.4c0.3,0.2,0.4,0.5,0.4,0.9c0,0.2,0,0.3-0.1,0.5l-5.9,14.9
				c-0.1,0.3-0.3,0.5-0.6,0.7c-0.3,0.2-0.6,0.3-0.9,0.3s-0.6-0.1-0.9-0.3c-0.3-0.2-0.5-0.4-0.6-0.7l-4.9-12.4l-4.9,12.4
				c-0.1,0.3-0.3,0.5-0.6,0.7c-0.3,0.2-0.6,0.3-0.9,0.3s-0.6-0.1-0.9-0.3c-0.3-0.2-0.5-0.4-0.6-0.7l-5.9-14.8
				c-0.1-0.2-0.1-0.4-0.1-0.5c0-0.4,0.2-0.7,0.5-1s0.7-0.4,1-0.4c0.6,0,1,0.3,1.2,0.8l4.9,13.1l5-13c0.1-0.3,0.3-0.5,0.6-0.7
				s0.5-0.2,0.8-0.2s0.6,0.1,0.8,0.2s0.4,0.4,0.5,0.7l5,12.9l4.9-13C385.7,341.4,386.1,341.1,386.7,341.1z"/>
			<path class="st1" d="M394.1,358.5c-1-0.3-1.8-0.6-2.6-1.1c-0.4-0.3-0.7-0.5-0.9-0.8c-0.2-0.2-0.3-0.5-0.3-0.9
				c0-0.3,0.1-0.6,0.3-0.8c0.2-0.2,0.4-0.3,0.7-0.3c0.3,0,0.7,0.2,1.2,0.5c0.7,0.4,1.4,0.8,2.1,1s1.6,0.4,2.6,0.4
				c1.3,0,2.3-0.2,3-0.7c0.7-0.4,1.1-1.1,1.1-1.9c0-0.5-0.1-0.9-0.4-1.3c-0.3-0.3-0.7-0.6-1.3-0.8c-0.6-0.2-1.6-0.5-2.8-0.8
				c-2.1-0.4-3.6-1-4.5-1.8s-1.3-1.8-1.3-3.1c0-1,0.3-1.9,0.8-2.7c0.6-0.8,1.4-1.4,2.4-1.8s2.1-0.7,3.4-0.7c0.9,0,1.8,0.1,2.7,0.4
				c0.9,0.2,1.6,0.6,2.3,1c0.8,0.6,1.2,1.2,1.2,1.8c0,0.3-0.1,0.6-0.3,0.8c-0.2,0.2-0.4,0.3-0.7,0.3c-0.3,0-0.7-0.2-1.3-0.6
				c-0.7-0.4-1.3-0.8-1.9-1s-1.3-0.4-2.2-0.4c-1.1,0-2,0.2-2.7,0.7s-1,1.2-1,2c0,0.5,0.1,0.9,0.4,1.3c0.2,0.3,0.7,0.6,1.2,0.9
				c0.6,0.2,1.4,0.5,2.5,0.7c1.6,0.4,2.9,0.7,3.7,1.2c0.9,0.4,1.5,0.9,1.9,1.6c0.4,0.6,0.6,1.4,0.6,2.3c0,1.5-0.6,2.7-1.9,3.6
				s-2.9,1.4-5,1.4C396.1,358.9,395.1,358.8,394.1,358.5z"/>
			<path class="st1" d="M418.4,358.3c-0.3-0.3-0.4-0.6-0.4-1v-22.1c0-0.4,0.1-0.8,0.4-1c0.3-0.3,0.6-0.4,1.1-0.4h6.9
				c4,0,7.1,1.1,9.3,3.2c2.2,2.2,3.3,5.2,3.3,9.2s-1.1,7.1-3.3,9.2c-2.2,2.2-5.3,3.3-9.2,3.3h-6.9
				C419,358.6,418.7,358.5,418.4,358.3z M435.9,346.1c0-6.7-3.2-10-9.7-10h-5.3v20h5.3C432.7,356.2,435.9,352.8,435.9,346.1z"/>
			<path class="st1" d="M443.8,336.8c-0.4-0.3-0.5-0.8-0.5-1.3s0.2-0.9,0.5-1.3s0.8-0.5,1.4-0.5s1,0.2,1.4,0.5s0.5,0.8,0.5,1.3
				s-0.2,1-0.5,1.3c-0.4,0.3-0.8,0.5-1.4,0.5C444.6,337.3,444.2,337.2,443.8,336.8z M444.1,358.4c-0.3-0.2-0.4-0.6-0.4-1v-14.9
				c0-0.4,0.1-0.8,0.4-1s0.6-0.4,1-0.4s0.8,0.1,1,0.4c0.3,0.2,0.4,0.6,0.4,1v14.9c0,0.5-0.1,0.8-0.4,1.1c-0.3,0.2-0.6,0.4-1,0.4
				C444.8,358.8,444.4,358.7,444.1,358.4z"/>
			<path class="st1" d="M467,341.4c0.3,0.3,0.4,0.6,0.4,1v15c0,2.6-0.7,4.5-2,5.8s-3.3,2-5.9,2c-2.5,0-4.6-0.5-6.3-1.5
				c-0.8-0.5-1.3-1-1.3-1.6c0-0.3,0.1-0.6,0.3-0.8c0.2-0.2,0.4-0.3,0.7-0.3c0.2,0,0.7,0.2,1.3,0.5c0.8,0.4,1.6,0.8,2.4,1
				c0.8,0.3,1.8,0.4,2.9,0.4c1.7,0,2.9-0.4,3.8-1.3c0.8-0.9,1.3-2.2,1.3-3.9v-3c-0.5,1.1-1.3,2-2.3,2.5c-1,0.6-2.2,0.9-3.6,0.9
				c-1.5,0-2.9-0.4-4-1.1c-1.2-0.7-2.1-1.7-2.7-3s-1-2.8-1-4.5s0.3-3.2,1-4.5c0.6-1.3,1.6-2.3,2.7-3c1.2-0.7,2.5-1.1,4-1.1
				c1.4,0,2.6,0.3,3.6,0.9s1.8,1.4,2.3,2.5v-1.9c0-0.4,0.1-0.8,0.4-1s0.6-0.4,1-0.4C466.4,341,466.7,341.2,467,341.4z M463.1,354.1
				c0.9-1.1,1.4-2.6,1.4-4.6c0-1.9-0.5-3.4-1.4-4.5s-2.2-1.6-3.9-1.6c-1.7,0-3,0.5-3.9,1.6c-1,1.1-1.4,2.6-1.4,4.5s0.5,3.5,1.4,4.6
				c1,1.1,2.3,1.6,3.9,1.6C460.9,355.7,462.2,355.2,463.1,354.1z"/>
			<path class="st1" d="M472.8,336.8c-0.4-0.3-0.5-0.8-0.5-1.3s0.2-0.9,0.5-1.3s0.8-0.5,1.4-0.5s1,0.2,1.4,0.5s0.5,0.8,0.5,1.3
				s-0.2,1-0.5,1.3c-0.4,0.3-0.8,0.5-1.4,0.5C473.6,337.3,473.1,337.2,472.8,336.8z M473.1,358.4c-0.3-0.2-0.4-0.6-0.4-1v-14.9
				c0-0.4,0.1-0.8,0.4-1s0.6-0.4,1-0.4s0.8,0.1,1,0.4c0.3,0.2,0.4,0.6,0.4,1v14.9c0,0.5-0.1,0.8-0.4,1.1c-0.3,0.2-0.6,0.4-1,0.4
				C473.7,358.8,473.4,358.7,473.1,358.4z"/>
			<path class="st1" d="M490.4,357.7c0,0.4-0.1,0.7-0.4,0.9c-0.3,0.2-0.7,0.3-1.3,0.2l-1-0.1c-1.9-0.1-3.3-0.7-4.2-1.7
				c-0.9-1-1.3-2.5-1.3-4.5v-8.9h-2.4c-0.4,0-0.7-0.1-0.9-0.3c-0.2-0.2-0.3-0.5-0.3-0.8c0-0.4,0.1-0.6,0.3-0.8
				c0.2-0.2,0.5-0.3,0.9-0.3h2.4v-4c0-0.4,0.1-0.8,0.4-1s0.6-0.4,1.1-0.4c0.4,0,0.8,0.1,1,0.4s0.4,0.6,0.4,1v4h3.9
				c0.4,0,0.7,0.1,0.9,0.3c0.2,0.2,0.3,0.5,0.3,0.8s-0.1,0.6-0.3,0.8c-0.2,0.2-0.5,0.3-0.9,0.3h-4v9c0,1.3,0.3,2.2,0.8,2.8
				c0.5,0.6,1.3,0.9,2.4,1l1,0.1C490,356.6,490.4,357,490.4,357.7z"/>
			<path class="st1" d="M506.8,347.8v9.6c0,0.4-0.1,0.8-0.4,1c-0.2,0.3-0.6,0.4-1,0.4s-0.8-0.1-1-0.4c-0.3-0.3-0.4-0.6-0.4-1v-1.7
				c-0.4,1-1.1,1.8-2.1,2.4c-0.9,0.6-2,0.8-3.2,0.8c-1.1,0-2.1-0.2-3.1-0.7c-0.9-0.4-1.7-1.1-2.2-1.9s-0.8-1.7-0.8-2.7
				c0-1.3,0.3-2.3,1-3s1.7-1.2,3.3-1.6c1.5-0.3,3.6-0.5,6.3-0.5h0.8v-1.2c0-1.4-0.3-2.5-0.9-3.1c-0.6-0.7-1.5-1-2.8-1
				c-1.6,0-3.2,0.4-4.9,1.3c-0.6,0.4-1.1,0.6-1.3,0.6c-0.3,0-0.5-0.1-0.7-0.3c-0.2-0.2-0.3-0.5-0.3-0.8s0.1-0.6,0.3-0.9
				c0.2-0.2,0.5-0.5,1-0.8c0.8-0.5,1.8-0.8,2.8-1.1c1.1-0.3,2.1-0.4,3.1-0.4C504.6,341,506.8,343.2,506.8,347.8z M502.6,355.2
				c0.9-1,1.4-2.2,1.4-3.7v-1h-0.6c-2.1,0-3.7,0.1-4.7,0.3c-1.1,0.2-1.9,0.5-2.3,0.9c-0.5,0.4-0.7,1-0.7,1.8c0,0.9,0.3,1.7,1,2.3
				c0.7,0.6,1.5,0.9,2.5,0.9C500.5,356.6,501.7,356.1,502.6,355.2z"/>
			<path class="st1" d="M512.4,358.4c-0.3-0.2-0.4-0.6-0.4-1v-22.5c0-0.4,0.1-0.8,0.4-1s0.6-0.4,1-0.4s0.7,0.1,1,0.4s0.4,0.6,0.4,1
				v22.5c0,0.4-0.1,0.8-0.4,1c-0.3,0.2-0.6,0.4-1,0.4S512.7,358.7,512.4,358.4z"/>
		</g>
		<g>
			<path class="st1" d="M325.2,391.6c0.5,0.5,0.7,1.2,0.7,2v25.8c0,0.8-0.2,1.5-0.7,1.9c-0.5,0.5-1.1,0.7-1.8,0.7
				c-0.8,0-1.3-0.2-1.8-0.7s-0.7-1.1-0.7-1.9v-17.9l-7.4,14c-0.3,0.6-0.7,1.1-1.1,1.4s-0.9,0.5-1.4,0.5c-0.6,0-1-0.1-1.4-0.4
				s-0.8-0.8-1.1-1.4l-7.4-13.8v17.7c0,0.8-0.2,1.4-0.7,1.9s-1.1,0.7-1.8,0.7c-0.8,0-1.3-0.2-1.8-0.7c-0.4-0.5-0.7-1.1-0.7-1.9
				v-25.8c0-0.8,0.2-1.5,0.7-2s1.1-0.8,1.9-0.8c1.1,0,2,0.6,2.7,1.9l9.7,18.4l9.6-18.4c0.6-1.2,1.5-1.9,2.6-1.9
				C324.1,390.8,324.7,391.1,325.2,391.6z"/>
			<path class="st1" d="M348,402.1c1.4,1.5,2.2,3.7,2.2,6.7v10.6c0,0.8-0.2,1.4-0.7,1.8c-0.5,0.5-1.1,0.7-1.9,0.7s-1.4-0.2-1.8-0.7
				s-0.7-1.1-0.7-1.8v-1c-0.5,1.1-1.3,2-2.3,2.7c-1.1,0.6-2.3,1-3.7,1c-1.4,0-2.7-0.3-3.9-0.9c-1.2-0.6-2.1-1.4-2.7-2.4
				c-0.7-1-1-2.1-1-3.4c0-1.6,0.4-2.8,1.2-3.7c0.8-0.9,2.1-1.6,3.9-2s4.3-0.6,7.4-0.6h1.1v-1c0-1.4-0.3-2.5-0.9-3.1
				c-0.6-0.7-1.6-1-3-1c-0.8,0-1.7,0.1-2.6,0.4c-0.9,0.2-1.9,0.6-3.1,1.1c-0.8,0.4-1.3,0.6-1.7,0.6c-0.5,0-1-0.2-1.3-0.6
				s-0.5-0.9-0.5-1.5c0-0.5,0.1-0.9,0.4-1.3c0.2-0.4,0.7-0.7,1.2-1c1-0.6,2.2-1,3.6-1.3s2.8-0.5,4.2-0.5
				C344.3,399.9,346.5,400.6,348,402.1z M343.6,416.7c0.9-1,1.4-2.2,1.4-3.8V412h-0.8c-1.9,0-3.5,0.1-4.5,0.3
				c-1.1,0.2-1.8,0.5-2.3,0.9s-0.7,1-0.7,1.8c0,0.9,0.3,1.7,1,2.3c0.7,0.6,1.5,0.9,2.4,0.9C341.5,418.1,342.7,417.6,343.6,416.7z"/>
			<path class="st1" d="M375.4,391.5c0.5,0.5,0.8,1.1,0.8,1.8v26c0,0.8-0.2,1.4-0.7,1.9s-1.1,0.7-2,0.7s-1.5-0.2-2-0.7
				s-0.7-1.1-0.7-1.9v-1.1c-0.6,1.2-1.6,2.1-2.8,2.8c-1.2,0.7-2.6,1-4.1,1c-1.8,0-3.5-0.5-4.9-1.4s-2.6-2.2-3.4-3.9
				s-1.2-3.6-1.2-5.9c0-2.2,0.4-4.1,1.2-5.8c0.8-1.7,1.9-2.9,3.3-3.8s3.1-1.3,4.9-1.3c1.5,0,2.9,0.3,4.1,1c1.2,0.6,2.1,1.5,2.7,2.7
				v-10.3c0-0.7,0.2-1.3,0.7-1.8c0.5-0.4,1.1-0.7,1.9-0.7S374.9,391,375.4,391.5z M369.4,416c0.9-1.2,1.4-2.9,1.4-5.1
				s-0.5-3.9-1.4-5.1s-2.3-1.8-4-1.8s-3.1,0.6-4,1.7c-1,1.2-1.4,2.8-1.4,5s0.5,3.9,1.4,5.1c1,1.2,2.3,1.8,4,1.8
				C367.1,417.8,368.4,417.2,369.4,416z"/>
			<path class="st1" d="M419.1,405.7c0.4,0.4,0.6,0.9,0.6,1.5v9.4c0,1.3-0.2,2.3-0.5,2.8c-0.3,0.6-1.1,1-2.1,1.3
				c-1.2,0.4-2.5,0.7-4,1c-1.5,0.2-3,0.3-4.4,0.3c-3.2,0-5.9-0.6-8.2-1.9c-2.3-1.2-4.1-3.1-5.3-5.4c-1.2-2.4-1.8-5.2-1.8-8.5
				c0-3.2,0.6-6,1.8-8.4c1.2-2.4,3-4.2,5.2-5.4c2.3-1.3,4.9-1.9,8-1.9c4.1,0,7.4,1.1,10.1,3.3c0.3,0.3,0.6,0.6,0.8,1
				c0.2,0.3,0.2,0.7,0.2,1.1c0,0.6-0.2,1.2-0.5,1.6s-0.8,0.7-1.3,0.7c-0.3,0-0.6-0.1-0.9-0.2s-0.6-0.3-0.9-0.5
				c-1.3-0.9-2.5-1.5-3.6-1.9s-2.4-0.5-3.7-0.5c-3.2,0-5.5,0.9-7.2,2.8c-1.6,1.9-2.4,4.7-2.4,8.3c0,7.5,3.3,11.3,9.9,11.3
				c2,0,3.9-0.3,5.9-0.8V409h-4.9c-0.7,0-1.2-0.2-1.6-0.5s-0.6-0.8-0.6-1.5c0-0.6,0.2-1.1,0.6-1.5c0.4-0.3,0.9-0.5,1.6-0.5h7.7
				C418.1,405.1,418.7,405.3,419.1,405.7z"/>
			<path class="st1" d="M441.3,402.1c1.4,1.5,2.2,3.7,2.2,6.7v10.6c0,0.8-0.2,1.4-0.7,1.8c-0.5,0.5-1.1,0.7-1.9,0.7
				s-1.4-0.2-1.8-0.7s-0.7-1.1-0.7-1.8v-1c-0.5,1.1-1.3,2-2.3,2.7c-1.1,0.6-2.3,1-3.7,1c-1.4,0-2.7-0.3-3.9-0.9
				c-1.2-0.6-2.1-1.4-2.7-2.4c-0.7-1-1-2.1-1-3.4c0-1.6,0.4-2.8,1.2-3.7c0.8-0.9,2.1-1.6,3.9-2s4.3-0.6,7.4-0.6h1.1v-1
				c0-1.4-0.3-2.5-0.9-3.1c-0.6-0.7-1.6-1-3-1c-0.8,0-1.7,0.1-2.6,0.4c-0.9,0.2-1.9,0.6-3.1,1.1c-0.8,0.4-1.3,0.6-1.7,0.6
				c-0.5,0-1-0.2-1.3-0.6s-0.5-0.9-0.5-1.5c0-0.5,0.1-0.9,0.4-1.3c0.2-0.4,0.7-0.7,1.2-1c1-0.6,2.2-1,3.6-1.3s2.8-0.5,4.2-0.5
				C437.7,399.9,439.9,400.6,441.3,402.1z M436.9,416.7c0.9-1,1.4-2.2,1.4-3.8V412h-0.8c-1.9,0-3.5,0.1-4.5,0.3
				c-1.1,0.2-1.8,0.5-2.3,0.9s-0.7,1-0.7,1.8c0,0.9,0.3,1.7,1,2.3c0.7,0.6,1.5,0.9,2.4,0.9C434.8,418.1,436,417.6,436.9,416.7z"/>
			<path class="st1" d="M479.6,402c1.2,1.4,1.8,3.6,1.8,6.7v10.7c0,0.8-0.3,1.5-0.8,1.9s-1.2,0.7-2,0.7s-1.4-0.2-1.9-0.7
				s-0.8-1.1-0.8-1.9v-10.7c0-1.6-0.3-2.7-0.8-3.4c-0.6-0.7-1.4-1-2.6-1c-1.4,0-2.6,0.5-3.4,1.5s-1.3,2.3-1.3,4v9.7
				c0,0.8-0.3,1.5-0.8,1.9s-1.2,0.7-1.9,0.7c-0.8,0-1.4-0.2-2-0.7c-0.5-0.5-0.8-1.1-0.8-1.9v-10.7c0-1.6-0.3-2.7-0.8-3.4
				s-1.4-1-2.6-1c-1.4,0-2.5,0.5-3.4,1.5c-0.8,1-1.2,2.3-1.2,4v9.7c0,0.8-0.3,1.5-0.8,1.9s-1.2,0.7-2,0.7s-1.4-0.2-1.9-0.7
				s-0.8-1.1-0.8-1.9v-16.8c0-0.8,0.3-1.4,0.8-1.9c0.5-0.4,1.2-0.7,2-0.7s1.4,0.2,1.8,0.6c0.5,0.4,0.7,1,0.7,1.8v1
				c0.7-1.2,1.6-2,2.7-2.7s2.4-0.9,3.9-0.9c3.2,0,5.3,1.3,6.4,4c0.6-1.2,1.6-2.2,2.8-2.9c1.2-0.7,2.7-1.1,4.2-1.1
				C476.6,399.9,478.4,400.6,479.6,402z"/>
			<path class="st1" d="M505,416.4c0.3,0.4,0.5,0.9,0.5,1.5c0,0.9-0.5,1.7-1.6,2.3c-1,0.6-2.1,1-3.4,1.3c-1.2,0.3-2.4,0.5-3.6,0.5
				c-3.4,0-6.1-1-8.1-3s-3-4.7-3-8.1c0-2.2,0.4-4.1,1.3-5.8c0.9-1.7,2.1-3,3.7-3.9s3.4-1.4,5.4-1.4c1.9,0,3.6,0.4,5,1.3
				c1.4,0.8,2.5,2,3.3,3.6s1.2,3.4,1.2,5.4c0,1.2-0.6,1.9-1.7,1.9h-12.8c0.2,2,0.7,3.5,1.7,4.4s2.4,1.4,4.2,1.4
				c0.9,0,1.7-0.1,2.5-0.3s1.5-0.6,2.4-1c0.9-0.5,1.5-0.7,1.9-0.7C504.3,415.9,504.7,416.1,505,416.4z M492.8,405.1
				c-0.9,0.9-1.4,2.3-1.6,4h9.8c-0.1-1.8-0.5-3.1-1.3-4s-1.9-1.4-3.4-1.4S493.6,404.2,492.8,405.1z"/>
			<path class="st1" d="M292.5,472.9c-1.6-0.9-2.9-2.2-3.8-3.9s-1.3-3.6-1.3-5.9c0-2.2,0.5-4.2,1.3-5.9c0.9-1.7,2.2-3,3.8-3.9
				c1.6-0.9,3.5-1.3,5.7-1.3s4.1,0.5,5.7,1.3c1.6,0.9,2.9,2.2,3.8,3.9c0.9,1.7,1.3,3.6,1.3,5.9c0,2.2-0.4,4.2-1.3,5.9
				s-2.1,3-3.8,3.9c-1.6,0.9-3.5,1.3-5.7,1.3S294.1,473.8,292.5,472.9z M302.2,468.3c0.9-1.2,1.4-2.9,1.4-5.1s-0.5-3.9-1.4-5.1
				s-2.3-1.8-4-1.8s-3.1,0.6-4,1.8c-0.9,1.2-1.4,2.9-1.4,5.1c0,2.3,0.5,4,1.4,5.1c0.9,1.2,2.3,1.7,4,1.7
				C300,470.1,301.3,469.5,302.2,468.3z"/>
			<path class="st1" d="M321.3,448.5c-0.6,0.7-0.9,1.8-0.9,3.1v1h3.7c1.6,0,2.4,0.7,2.4,2c0,1.4-0.8,2-2.4,2h-3.7v14.8
				c0,0.8-0.3,1.5-0.8,1.9s-1.2,0.7-1.9,0.7c-0.8,0-1.4-0.2-2-0.7c-0.5-0.4-0.8-1.1-0.8-1.9v-14.8h-2.2c-1.6,0-2.4-0.7-2.4-2
				c0-1.4,0.8-2,2.4-2h2.2v-0.3c0-2.7,0.7-4.9,2.2-6.4c1.4-1.6,3.5-2.4,6.1-2.6l1.1-0.1c1.2-0.1,2,0,2.5,0.4
				c0.5,0.3,0.7,0.8,0.7,1.5c0,1.2-0.7,1.9-2.1,2.1l-1.1,0.1C322.8,447.4,321.9,447.8,321.3,448.5z"/>
			<path class="st1" d="M349.3,473.4c-0.5-0.5-0.8-1.2-0.8-2v-23.5h-7.9c-1.7,0-2.6-0.8-2.6-2.3s0.9-2.3,2.6-2.3H362
				c1.7,0,2.6,0.8,2.6,2.3s-0.9,2.3-2.6,2.3h-7.9v23.5c0,0.8-0.3,1.5-0.8,2s-1.2,0.8-2,0.8C350.5,474.1,349.8,473.9,349.3,473.4z"/>
			<path class="st1" d="M389.7,460.9v10.7c0,0.8-0.2,1.5-0.7,1.9c-0.5,0.5-1.1,0.7-2,0.7c-0.8,0-1.5-0.2-2-0.7s-0.7-1.1-0.7-1.9
				v-10.7c0-1.5-0.3-2.7-0.9-3.4c-0.6-0.7-1.6-1.1-2.9-1.1c-1.6,0-2.8,0.5-3.8,1.5c-0.9,1-1.4,2.3-1.4,4v9.7c0,0.8-0.2,1.5-0.7,1.9
				c-0.5,0.5-1.2,0.7-2,0.7s-1.5-0.2-2-0.7s-0.7-1.1-0.7-1.9v-26c0-0.8,0.3-1.4,0.8-1.8c0.5-0.5,1.2-0.7,2-0.7s1.5,0.2,2,0.7
				c0.5,0.4,0.7,1,0.7,1.8v10.1c0.7-1.1,1.7-2,2.9-2.6c1.2-0.6,2.6-0.9,4.1-0.9C387.2,452.1,389.7,455,389.7,460.9z"/>
			<path class="st1" d="M413.3,468.7c0.3,0.4,0.5,0.9,0.5,1.5c0,0.9-0.5,1.7-1.6,2.3c-1,0.6-2.1,1-3.4,1.3c-1.2,0.3-2.4,0.5-3.6,0.5
				c-3.4,0-6.1-1-8.1-3s-3-4.7-3-8.1c0-2.2,0.4-4.1,1.3-5.8c0.9-1.7,2.1-3,3.7-3.9s3.4-1.4,5.4-1.4c1.9,0,3.6,0.4,5,1.3
				c1.4,0.8,2.5,2,3.3,3.6s1.2,3.4,1.2,5.4c0,1.2-0.6,1.9-1.7,1.9h-12.8c0.2,2,0.7,3.5,1.7,4.4s2.4,1.4,4.2,1.4
				c0.9,0,1.7-0.1,2.5-0.3s1.5-0.6,2.4-1c0.9-0.5,1.5-0.7,1.9-0.7C412.6,468.1,413,468.3,413.3,468.7z M401,457.3
				c-0.9,0.9-1.4,2.3-1.6,4h9.8c-0.1-1.8-0.5-3.1-1.3-4s-1.9-1.4-3.4-1.4C403.1,456,401.9,456.4,401,457.3z"/>
			<path class="st1" d="M451.6,443c0.7,0,1.3,0.3,1.8,0.8s0.8,1.1,0.8,1.8c0,0.6-0.2,1.1-0.7,1.7l-9.9,12.1v12.1
				c0,0.9-0.3,1.6-0.8,2.1s-1.2,0.7-2,0.7s-1.5-0.2-2-0.7s-0.8-1.2-0.8-2.1v-12.1l-9.9-12.1c-0.4-0.5-0.7-1.1-0.7-1.7
				c0-0.7,0.3-1.3,0.8-1.8s1.1-0.8,1.8-0.8c0.7,0,1.3,0.3,1.9,1l8.9,11.1l8.9-11.1C450.3,443.3,450.9,443,451.6,443z"/>
			<path class="st1" d="M471.9,468.7c0.3,0.4,0.5,0.9,0.5,1.5c0,0.9-0.5,1.7-1.6,2.3c-1,0.6-2.1,1-3.4,1.3c-1.2,0.3-2.4,0.5-3.6,0.5
				c-3.4,0-6.1-1-8.1-3s-3-4.7-3-8.1c0-2.2,0.4-4.1,1.3-5.8c0.9-1.7,2.1-3,3.7-3.9s3.4-1.4,5.4-1.4c1.9,0,3.6,0.4,5,1.3
				c1.4,0.8,2.5,2,3.3,3.6s1.2,3.4,1.2,5.4c0,1.2-0.6,1.9-1.7,1.9H458c0.2,2,0.7,3.5,1.7,4.4s2.4,1.4,4.2,1.4c0.9,0,1.7-0.1,2.5-0.3
				s1.5-0.6,2.4-1c0.9-0.5,1.5-0.7,1.9-0.7C471.2,468.1,471.6,468.3,471.9,468.7z M459.6,457.3c-0.9,0.9-1.4,2.3-1.6,4h9.8
				c-0.1-1.8-0.5-3.1-1.3-4s-1.9-1.4-3.4-1.4C461.7,456,460.5,456.4,459.6,457.3z"/>
			<path class="st1" d="M492.8,454.3c1.4,1.5,2.2,3.7,2.2,6.7v10.6c0,0.8-0.2,1.4-0.7,1.8c-0.5,0.5-1.1,0.7-1.9,0.7
				s-1.4-0.2-1.8-0.7s-0.7-1.1-0.7-1.8v-1c-0.5,1.1-1.3,2-2.3,2.7c-1.1,0.6-2.3,1-3.7,1c-1.4,0-2.7-0.3-3.9-0.9
				c-1.2-0.6-2.1-1.4-2.7-2.4c-0.7-1-1-2.1-1-3.4c0-1.6,0.4-2.8,1.2-3.7c0.8-0.9,2.1-1.6,3.9-2s4.3-0.6,7.4-0.6h1.1v-1
				c0-1.4-0.3-2.5-0.9-3.1c-0.6-0.7-1.6-1-3-1c-0.8,0-1.7,0.1-2.6,0.4c-0.9,0.2-1.9,0.6-3.1,1.1c-0.8,0.4-1.3,0.6-1.7,0.6
				c-0.5,0-1-0.2-1.3-0.6s-0.5-0.9-0.5-1.5c0-0.5,0.1-0.9,0.4-1.3c0.2-0.4,0.7-0.7,1.2-1c1-0.6,2.2-1,3.6-1.3s2.8-0.5,4.2-0.5
				C489.2,452.1,491.3,452.9,492.8,454.3z M488.4,468.9c0.9-1,1.4-2.2,1.4-3.8v-0.9H489c-1.9,0-3.5,0.1-4.5,0.3
				c-1.1,0.2-1.8,0.5-2.3,0.9s-0.7,1-0.7,1.8c0,0.9,0.3,1.7,1,2.3c0.7,0.6,1.5,0.9,2.4,0.9C486.3,470.4,487.5,469.9,488.4,468.9z"/>
			<path class="st1" d="M514.1,452.7c0.4,0.4,0.7,0.9,0.7,1.7c0,0.8-0.2,1.4-0.6,1.7s-1.1,0.6-2,0.7l-1.3,0.1
				c-1.7,0.2-3,0.8-3.8,1.7c-0.8,1-1.2,2.2-1.2,3.7v9.1c0,0.8-0.3,1.5-0.8,1.9s-1.2,0.7-2,0.7s-1.4-0.2-1.9-0.7s-0.8-1.1-0.8-1.9
				v-16.8c0-0.8,0.3-1.4,0.8-1.9c0.5-0.4,1.1-0.7,1.9-0.7s1.4,0.2,1.8,0.6c0.5,0.4,0.7,1,0.7,1.8v1.7c0.6-1.3,1.4-2.3,2.5-3
				s2.3-1.1,3.6-1.2h0.6C513.1,452.2,513.7,452.3,514.1,452.7z"/>
		</g>
	</g>
</g>
</svg>
