<?xml version="1.0" encoding="utf-8"?>
<!-- Generator: Adobe Illustrator 24.3.0, SVG Export Plug-In . SVG Version: 6.00 Build 0)  -->
<svg version="1.1" xmlns="http://www.w3.org/2000/svg" xmlns:xlink="http://www.w3.org/1999/xlink" x="0px" y="0px"
	 viewBox="0 0 800 800" style="enable-background:new 0 0 800 800;" xml:space="preserve">
<style type="text/css">
	.st0{fill:#EDB74C;}
	.st1{fill:#BE8B2B;}
</style>
<g id="Layer_1">
</g>
<g id="Layer_2">
	<g>
		<g>
			<path class="st1" d="M220.6,534.5c-0.4-0.1-16.3-5-35.3-15.9c3.4-4.2,9.8-15.2-1.8-29.6c0,0-8.8,14.8-3.5,26.4
				c-6.8-4.2-13.7-9.1-20.5-14.8c2-2,13.3-14.3-0.3-31.2c0,0-10.5,17.5-1.7,29.4c-8.7-7.7-16.9-16.8-23.3-27.3c3.3-1.5,17-9,10.8-29
				c0,0-15.6,12.1-12.5,26.1c-3.7-6.5-6.8-13.6-9-21.2c-0.8-2.8-1.5-5.6-2.1-8.4c4.4-0.9,18.1-5.3,17.2-25.2c0,0-15.8,6.7-18.4,19.2
				c-1.9-11-2.5-21.6-2-31.6c5,0.7,16.2,0.4,22-15c0,0-14.6,0-21.5,8.7c0.9-10,2.8-19.3,5.3-28c4,1.6,16.2,4.8,25.3-10.3
				c0,0-15.9-3-24,5.7c3.5-10.9,7.7-20.5,11.9-28.4c4.3,2.5,15,6.5,26-5.8c0,0-13.2-5.3-22.8-0.1c5.9-10.3,11.2-17,12.7-18.9
				c1.7-2.1,3.5-4,5.3-5.9c2.7,1.9,14.8,9.1,27.5-4.8c0,0-12.3-4.9-21.8-0.6c6-5.4,12.4-10,18.3-13.8c3.9,2.4,15,7.3,26.5-5.4
				c0,0-5.9-2.4-12.6-2.4c6.4-3.2,10.7-4.8,10.8-4.9l-1.7-4.6c-1.1,0.4-22.6,8.5-42.3,25.4c3.4-5.7,7.4-17.9-6.2-31.6
				c0,0-12.1,25.7,2.9,34.5c-3.7,3.4-7.2,7-10.5,11c-3,3.7-6,7.7-8.9,12.2c1.9-7.6,1-18.2-10.5-29.7c0,0-14.5,30.8,3.8,41.1
				c-3.2,5.8-6.1,12.1-8.8,18.7c-0.5-7.4-4.1-16.2-15.9-24.2c0,0-8.1,32.1,10.8,39.3c-2,6.7-3.6,13.7-4.7,20.9
				c-1.4-7.5-6.3-16.5-20.5-22.6c0,0-2.1,34.3,18.9,36.8c-0.6,9-0.4,18.3,0.7,27.7c-3.9-8.1-12.8-17.7-32.9-17.6
				c0,0,12.6,35.1,34.7,29.3c0.7,3.6,1.6,7.1,2.6,10.7c0.9,3.2,2,6.2,3.2,9.2c-6.3-5.8-16.8-10.3-33.6-5.9c0,0,20.6,30,40.3,19.9
				c4.4,7.5,9.6,14.3,15.2,20.4c-8-3.2-19.6-3.9-33.9,6.5c0,0,30,20.3,44.7,4c4.7,4.1,9.6,7.9,14.5,11.2
				c-8.4-1.4-19.7,0.4-31.5,13.2c0,0,33.3,13.9,44.6-4.9c19.9,11.5,36.5,16.6,36.9,16.7L220.6,534.5z"/>
			<path class="st1" d="M579.4,534.5c0.4-0.1,16.3-5,35.3-15.9c-3.4-4.2-9.8-15.2,1.8-29.6c0,0,8.8,14.8,3.5,26.4
				c6.8-4.2,13.7-9.1,20.5-14.8c-2-2-13.3-14.3,0.3-31.2c0,0,10.5,17.5,1.7,29.4c8.7-7.7,16.9-16.8,23.3-27.3c-3.3-1.5-17-9-10.8-29
				c0,0,15.6,12.1,12.5,26.1c3.7-6.5,6.8-13.6,9-21.2c0.8-2.8,1.5-5.6,2.1-8.4c-4.4-0.9-18.1-5.3-17.2-25.2c0,0,15.8,6.7,18.4,19.2
				c1.9-11,2.5-21.6,2-31.6c-5,0.7-16.2,0.4-22-15c0,0,14.6,0,21.5,8.7c-0.9-10-2.8-19.3-5.3-28c-4,1.6-16.2,4.8-25.3-10.3
				c0,0,15.9-3,24,5.7c-3.5-10.9-7.7-20.5-11.9-28.4c-4.3,2.5-15,6.5-26-5.8c0,0,13.2-5.3,22.8-0.1c-5.9-10.3-11.2-17-12.7-18.9
				c-1.7-2.1-3.5-4-5.3-5.9c-2.7,1.9-14.8,9.1-27.5-4.8c0,0,12.3-4.9,21.8-0.6c-6-5.4-12.4-10-18.3-13.8c-3.9,2.4-15,7.3-26.5-5.4
				c0,0,5.9-2.4,12.6-2.4c-6.4-3.2-10.7-4.8-10.8-4.9l1.7-4.6c1.1,0.4,22.6,8.5,42.3,25.4c-3.3-5.7-7.4-17.9,6.2-31.6
				c0,0,12.1,25.7-2.9,34.5c3.7,3.4,7.2,7,10.5,11c3,3.7,6,7.7,8.9,12.2c-1.9-7.6-1-18.2,10.5-29.7c0,0,14.5,30.8-3.8,41.1
				c3.2,5.8,6.1,12.1,8.8,18.7c0.5-7.4,4.1-16.2,15.9-24.2c0,0,8.1,32.1-10.8,39.3c2,6.7,3.6,13.7,4.7,20.9
				c1.4-7.5,6.3-16.5,20.5-22.6c0,0,2.1,34.3-18.9,36.8c0.6,9,0.4,18.3-0.7,27.7c3.9-8.1,12.8-17.7,32.9-17.6
				c0,0-12.6,35.1-34.7,29.3c-0.7,3.6-1.6,7.1-2.6,10.7c-0.9,3.2-2,6.2-3.2,9.2c6.3-5.8,16.8-10.3,33.6-5.9c0,0-20.6,30-40.3,19.9
				c-4.4,7.5-9.6,14.3-15.2,20.4c8-3.2,19.6-3.9,33.9,6.5c0,0-30,20.3-44.7,4c-4.7,4.1-9.6,7.9-14.5,11.2
				c8.4-1.4,19.7,0.4,31.5,13.2c0,0-33.3,13.9-44.6-4.9c-19.9,11.5-36.5,16.6-36.9,16.7L579.4,534.5z"/>
		</g>
		<g>
			<path class="st1" d="M214.5,359.4c0.2,0.2,0.3,0.5,0.3,0.9v8.8c0,0.6-0.1,1-0.3,1.3c-0.2,0.3-0.5,0.5-1,0.7
				c-0.9,0.4-2.1,0.7-3.4,1c-1.3,0.2-2.7,0.4-4,0.4c-2.5,0-4.6-0.5-6.4-1.5c-1.8-1-3.2-2.5-4.1-4.4c-1-1.9-1.4-4.2-1.4-6.9
				c0-2.6,0.5-4.9,1.4-6.8c0.9-1.9,2.3-3.4,4.1-4.4s3.8-1.5,6.2-1.5c1.7,0,3.2,0.3,4.6,0.8c1.4,0.5,2.6,1.2,3.6,2.2
				c0.4,0.4,0.6,0.8,0.6,1.2c0,0.3-0.1,0.6-0.3,0.9c-0.2,0.2-0.4,0.4-0.7,0.4s-0.6-0.1-1-0.4c-1.2-0.9-2.3-1.6-3.3-2
				c-1-0.4-2.1-0.5-3.4-0.5c-2.8,0-5,0.9-6.5,2.7c-1.5,1.8-2.2,4.3-2.2,7.6c0,3.4,0.8,5.9,2.3,7.7c1.5,1.8,3.8,2.6,6.7,2.6
				c2.2,0,4.2-0.3,6-1v-7.6H207c-0.4,0-0.7-0.1-1-0.3c-0.2-0.2-0.4-0.5-0.4-0.8c0-0.4,0.1-0.6,0.4-0.8c0.2-0.2,0.6-0.3,1-0.3h6.6
				C214,359.1,214.3,359.2,214.5,359.4z"/>
			<path class="st1" d="M223.1,371.2c-1.2-0.7-2.2-1.8-2.9-3.1c-0.7-1.4-1-2.9-1-4.7c0-1.8,0.3-3.4,1-4.7c0.7-1.4,1.6-2.4,2.9-3.1
				c1.2-0.7,2.7-1.1,4.3-1.1s3.1,0.4,4.3,1.1c1.3,0.7,2.2,1.8,2.9,3.1c0.7,1.4,1,2.9,1,4.7c0,1.8-0.3,3.4-1,4.7
				c-0.7,1.4-1.6,2.4-2.9,3.1c-1.3,0.7-2.7,1.1-4.3,1.1S224.4,371.9,223.1,371.2z M231.3,368.3c0.9-1.1,1.4-2.8,1.4-4.9
				c0-2.1-0.5-3.7-1.4-4.9c-0.9-1.1-2.2-1.7-3.9-1.7c-1.7,0-3,0.6-3.9,1.7c-0.9,1.1-1.4,2.8-1.4,4.9c0,2.1,0.5,3.8,1.4,4.9
				c0.9,1.1,2.2,1.7,3.9,1.7S230.4,369.4,231.3,368.3z"/>
			<path class="st1" d="M242.8,371.2c-1.2-0.7-2.2-1.8-2.9-3.1c-0.7-1.4-1-2.9-1-4.7c0-1.8,0.3-3.4,1-4.7c0.7-1.4,1.6-2.4,2.9-3.1
				c1.2-0.7,2.7-1.1,4.3-1.1s3.1,0.4,4.3,1.1c1.3,0.7,2.2,1.8,2.9,3.1c0.7,1.4,1,2.9,1,4.7c0,1.8-0.3,3.4-1,4.7
				c-0.7,1.4-1.6,2.4-2.9,3.1c-1.3,0.7-2.7,1.1-4.3,1.1S244,371.9,242.8,371.2z M251,368.3c0.9-1.1,1.4-2.8,1.4-4.9
				c0-2.1-0.5-3.7-1.4-4.9c-0.9-1.1-2.2-1.7-3.9-1.7c-1.7,0-3,0.6-3.9,1.7c-0.9,1.1-1.4,2.8-1.4,4.9c0,2.1,0.5,3.8,1.4,4.9
				c0.9,1.1,2.2,1.7,3.9,1.7S250.1,369.4,251,368.3z"/>
			<path class="st1" d="M274.6,354.8c0.3,0.3,0.4,0.6,0.4,1v15c0,2.6-0.7,4.5-2,5.8c-1.3,1.3-3.3,2-5.9,2c-2.5,0-4.6-0.5-6.3-1.5
				c-0.9-0.5-1.3-1-1.3-1.6c0-0.3,0.1-0.6,0.3-0.8c0.2-0.2,0.4-0.3,0.7-0.3c0.2,0,0.7,0.2,1.3,0.5c0.8,0.4,1.6,0.8,2.4,1
				c0.8,0.3,1.8,0.4,2.9,0.4c1.7,0,2.9-0.4,3.8-1.3c0.9-0.9,1.3-2.2,1.3-3.9v-3c-0.5,1.1-1.3,2-2.3,2.5c-1,0.6-2.2,0.9-3.6,0.9
				c-1.5,0-2.9-0.4-4-1.1c-1.2-0.7-2.1-1.7-2.7-3c-0.6-1.3-1-2.8-1-4.5c0-1.7,0.3-3.2,1-4.5c0.6-1.3,1.6-2.3,2.7-3
				c1.2-0.7,2.5-1.1,4-1.1c1.4,0,2.6,0.3,3.6,0.9c1,0.6,1.8,1.4,2.3,2.5v-1.9c0-0.4,0.1-0.8,0.4-1s0.6-0.4,1-0.4
				C274,354.5,274.4,354.6,274.6,354.8z M270.8,367.5c0.9-1.1,1.4-2.6,1.4-4.6c0-1.9-0.5-3.4-1.4-4.5c-0.9-1.1-2.2-1.6-3.9-1.6
				s-3,0.5-3.9,1.6c-1,1.1-1.4,2.6-1.4,4.5c0,1.9,0.5,3.5,1.4,4.6c1,1.1,2.3,1.6,3.9,1.6C268.5,369.2,269.8,368.6,270.8,367.5z"/>
			<path class="st1" d="M280.8,371.9c-0.3-0.2-0.4-0.6-0.4-1v-22.5c0-0.4,0.1-0.8,0.4-1c0.3-0.2,0.6-0.4,1-0.4c0.4,0,0.7,0.1,1,0.4
				s0.4,0.6,0.4,1v22.5c0,0.4-0.1,0.8-0.4,1c-0.3,0.2-0.6,0.4-1,0.4C281.4,372.2,281,372.1,280.8,371.9z"/>
			<path class="st1" d="M302.6,368.4c0.2,0.2,0.3,0.5,0.3,0.8c0,0.6-0.4,1.1-1.2,1.6c-0.8,0.5-1.7,0.9-2.7,1.1
				c-0.9,0.2-1.9,0.4-2.8,0.4c-2.7,0-4.8-0.8-6.3-2.4s-2.3-3.8-2.3-6.6c0-1.8,0.3-3.3,1-4.7c0.7-1.4,1.6-2.4,2.9-3.2
				s2.7-1.1,4.2-1.1c2.2,0,4,0.7,5.3,2.2s2,3.4,2,6c0,0.5-0.1,0.8-0.3,1s-0.5,0.3-0.9,0.3h-11.4c0.2,4.1,2.1,6.1,5.8,6.1
				c0.9,0,1.7-0.1,2.4-0.4c0.7-0.2,1.4-0.6,2.1-1c0.6-0.4,1-0.5,1.2-0.5C302.2,368.1,302.4,368.2,302.6,368.4z M292.1,358
				c-0.9,0.9-1.4,2.3-1.6,4h10c0-1.7-0.5-3.1-1.3-4s-2-1.4-3.5-1.4C294.2,356.6,293,357.1,292.1,358z"/>
			<path class="st1" d="M317.2,371.8c-0.3-0.3-0.4-0.6-0.4-1.1v-22.2c0-0.4,0.1-0.8,0.4-1c0.3-0.3,0.6-0.4,1.1-0.4h8.4
				c2.6,0,4.7,0.6,6.1,1.9c1.5,1.3,2.2,3.1,2.2,5.4c0,2.3-0.7,4.2-2.2,5.5s-3.5,1.9-6.1,1.9h-7v8.9c0,0.4-0.1,0.8-0.4,1.1
				c-0.3,0.3-0.6,0.4-1.1,0.4C317.8,372.2,317.4,372.1,317.2,371.8z M332.1,354.4c0-3.3-1.9-4.9-5.7-4.9h-6.7v9.9h6.7
				C330.2,359.4,332.1,357.8,332.1,354.4z"/>
			<path class="st1" d="M339.6,371.9c-0.3-0.2-0.4-0.6-0.4-1v-22.5c0-0.4,0.1-0.8,0.4-1s0.6-0.4,1-0.4c0.4,0,0.7,0.1,1,0.4
				s0.4,0.6,0.4,1v22.5c0,0.4-0.1,0.8-0.4,1c-0.3,0.2-0.6,0.4-1,0.4C340.2,372.2,339.9,372.1,339.6,371.9z"/>
			<path class="st1" d="M361,361.2v9.6c0,0.4-0.1,0.8-0.4,1c-0.2,0.3-0.6,0.4-1,0.4s-0.8-0.1-1-0.4c-0.3-0.3-0.4-0.6-0.4-1v-1.7
				c-0.4,1-1.1,1.8-2.1,2.4c-0.9,0.6-2,0.8-3.2,0.8c-1.1,0-2.1-0.2-3.1-0.7c-0.9-0.4-1.7-1.1-2.2-1.9c-0.5-0.8-0.8-1.7-0.8-2.7
				c0-1.3,0.3-2.3,1-3c0.7-0.7,1.7-1.2,3.3-1.6c1.5-0.3,3.6-0.5,6.3-0.5h0.8v-1.2c0-1.4-0.3-2.5-0.9-3.1c-0.6-0.7-1.5-1-2.8-1
				c-1.6,0-3.2,0.4-4.9,1.3c-0.6,0.4-1.1,0.6-1.3,0.6c-0.3,0-0.5-0.1-0.7-0.3c-0.2-0.2-0.3-0.5-0.3-0.8c0-0.3,0.1-0.6,0.3-0.9
				c0.2-0.2,0.5-0.5,1-0.8c0.8-0.5,1.8-0.8,2.8-1.1c1.1-0.3,2.1-0.4,3.1-0.4C358.8,354.4,361,356.7,361,361.2z M356.8,368.6
				c0.9-1,1.4-2.2,1.4-3.7v-1h-0.6c-2.1,0-3.7,0.1-4.7,0.3c-1.1,0.2-1.9,0.5-2.3,0.9c-0.5,0.4-0.7,1-0.7,1.8c0,0.9,0.3,1.7,1,2.3
				c0.7,0.6,1.5,0.9,2.5,0.9C354.7,370,355.9,369.6,356.8,368.6z"/>
			<path class="st1" d="M379.9,354.5c0.4,0,0.7,0.1,1,0.4s0.4,0.5,0.4,0.9c0,0.2,0,0.4-0.1,0.6l-10,21.5c-0.1,0.3-0.3,0.5-0.5,0.6
				s-0.5,0.2-0.7,0.2c-0.4,0-0.7-0.1-0.9-0.3c-0.3-0.2-0.4-0.5-0.4-0.9c0-0.2,0-0.4,0.1-0.6l2.5-5.3l-7-15.2
				c-0.1-0.2-0.1-0.3-0.1-0.5c0-0.4,0.2-0.7,0.5-0.9c0.3-0.3,0.7-0.4,1-0.4c0.2,0,0.5,0.1,0.7,0.2c0.2,0.1,0.4,0.3,0.5,0.6l5.9,13.3
				l5.9-13.2C378.9,354.8,379.3,354.5,379.9,354.5z"/>
			<path class="st1" d="M415.6,371c0,0.4-0.1,0.6-0.4,0.9c-0.3,0.2-0.6,0.4-1,0.4c-0.6,0-1-0.3-1.2-0.8l-2.5-5.7h-13.4l-2.6,5.7
				c-0.2,0.6-0.6,0.8-1.2,0.8c-0.4,0-0.7-0.1-1-0.4c-0.3-0.2-0.4-0.5-0.4-0.9c0-0.2,0-0.4,0.1-0.6l10.1-22.5
				c0.1-0.3,0.4-0.6,0.6-0.7s0.6-0.2,0.9-0.2c0.4,0,0.7,0.1,1,0.3c0.3,0.2,0.5,0.4,0.6,0.7l10.1,22.5
				C415.6,370.6,415.6,370.8,415.6,371z M398.2,363.2h11.2l-5.6-12.7L398.2,363.2z"/>
			<path class="st1" d="M443.2,354.5c0.4,0,0.7,0.1,1,0.4c0.3,0.2,0.4,0.5,0.4,0.9c0,0.2,0,0.3-0.1,0.5l-5.9,14.9
				c-0.1,0.3-0.3,0.5-0.6,0.7c-0.3,0.2-0.6,0.3-0.9,0.3c-0.3,0-0.6-0.1-0.9-0.3c-0.3-0.2-0.5-0.4-0.6-0.7l-4.9-12.4l-4.9,12.4
				c-0.1,0.3-0.3,0.5-0.6,0.7c-0.3,0.2-0.6,0.3-0.9,0.3c-0.3,0-0.6-0.1-0.9-0.3c-0.3-0.2-0.5-0.4-0.6-0.7l-5.9-14.8
				c-0.1-0.2-0.1-0.4-0.1-0.5c0-0.4,0.2-0.7,0.5-1c0.3-0.3,0.7-0.4,1-0.4c0.6,0,1,0.3,1.2,0.8l4.9,13.1l5-13
				c0.1-0.3,0.3-0.5,0.6-0.7s0.5-0.2,0.8-0.2c0.3,0,0.6,0.1,0.8,0.2s0.4,0.4,0.5,0.7l5,12.9l4.9-13
				C442.3,354.8,442.7,354.5,443.2,354.5z"/>
			<path class="st1" d="M461.5,361.2v9.6c0,0.4-0.1,0.8-0.4,1c-0.2,0.3-0.6,0.4-1,0.4s-0.8-0.1-1-0.4c-0.3-0.3-0.4-0.6-0.4-1v-1.7
				c-0.4,1-1.1,1.8-2.1,2.4c-0.9,0.6-2,0.8-3.2,0.8c-1.1,0-2.1-0.2-3.1-0.7c-0.9-0.4-1.7-1.1-2.2-1.9c-0.5-0.8-0.8-1.7-0.8-2.7
				c0-1.3,0.3-2.3,1-3c0.7-0.7,1.7-1.2,3.3-1.6c1.5-0.3,3.6-0.5,6.3-0.5h0.8v-1.2c0-1.4-0.3-2.5-0.9-3.1c-0.6-0.7-1.5-1-2.8-1
				c-1.6,0-3.2,0.4-4.9,1.3c-0.6,0.4-1.1,0.6-1.3,0.6c-0.3,0-0.5-0.1-0.7-0.3c-0.2-0.2-0.3-0.5-0.3-0.8c0-0.3,0.1-0.6,0.3-0.9
				c0.2-0.2,0.5-0.5,1-0.8c0.8-0.5,1.8-0.8,2.8-1.1c1.1-0.3,2.1-0.4,3.1-0.4C459.4,354.4,461.5,356.7,461.5,361.2z M457.4,368.6
				c0.9-1,1.4-2.2,1.4-3.7v-1h-0.6c-2.1,0-3.7,0.1-4.7,0.3c-1.1,0.2-1.9,0.5-2.3,0.9c-0.5,0.4-0.7,1-0.7,1.8c0,0.9,0.3,1.7,1,2.3
				c0.7,0.6,1.5,0.9,2.5,0.9C455.3,370,456.5,369.6,457.4,368.6z"/>
			<path class="st1" d="M476.8,355.7c0,0.4-0.1,0.7-0.3,0.9c-0.2,0.2-0.6,0.4-1.1,0.4l-1.1,0.1c-1.6,0.1-2.8,0.7-3.5,1.7
				c-0.8,1-1.2,2.1-1.2,3.5v8.6c0,0.5-0.1,0.8-0.4,1.1c-0.3,0.2-0.6,0.4-1,0.4c-0.4,0-0.8-0.1-1-0.4c-0.3-0.2-0.4-0.6-0.4-1v-14.9
				c0-0.4,0.1-0.8,0.4-1c0.3-0.2,0.6-0.4,1-0.4c0.4,0,0.7,0.1,1,0.4c0.3,0.2,0.4,0.6,0.4,1v2c0.5-1,1.2-1.8,2.1-2.4
				c0.9-0.5,2-0.9,3.1-1l0.5,0C476.3,354.4,476.8,354.8,476.8,355.7z"/>
			<path class="st1" d="M493.8,347.3c0.3,0.3,0.4,0.6,0.4,1v22.5c0,0.4-0.1,0.8-0.4,1c-0.3,0.3-0.6,0.4-1.1,0.4
				c-0.4,0-0.8-0.1-1-0.4c-0.2-0.3-0.4-0.6-0.4-1v-1.9c-0.5,1.1-1.3,1.9-2.3,2.5c-1,0.6-2.2,0.9-3.5,0.9c-1.5,0-2.8-0.4-4-1.1
				c-1.2-0.8-2.1-1.8-2.7-3.2c-0.6-1.4-1-2.9-1-4.7c0-1.8,0.3-3.3,1-4.7c0.6-1.3,1.5-2.4,2.7-3.1c1.2-0.7,2.5-1.1,4-1.1
				c1.3,0,2.5,0.3,3.5,0.9c1,0.6,1.8,1.4,2.3,2.5v-9.5c0-0.4,0.1-0.8,0.4-1s0.6-0.4,1-0.4C493.2,346.9,493.6,347,493.8,347.3z
				 M490,368.2c0.9-1.1,1.4-2.8,1.4-4.9c0-2.1-0.5-3.7-1.4-4.9c-0.9-1.1-2.2-1.7-3.9-1.7s-3,0.6-3.9,1.7c-0.9,1.1-1.4,2.7-1.4,4.8
				c0,2.1,0.5,3.7,1.4,4.9s2.2,1.8,3.9,1.8S489.1,369.4,490,368.2z"/>
			<path class="st1" d="M502.2,371.9c-1-0.3-1.8-0.6-2.6-1.1c-0.4-0.3-0.7-0.5-0.9-0.8c-0.2-0.2-0.3-0.5-0.3-0.9
				c0-0.3,0.1-0.6,0.3-0.8c0.2-0.2,0.4-0.3,0.7-0.3c0.3,0,0.7,0.2,1.2,0.5c0.7,0.4,1.4,0.8,2.1,1s1.6,0.4,2.6,0.4
				c1.3,0,2.3-0.2,3-0.7c0.7-0.4,1.1-1.1,1.1-1.9c0-0.5-0.1-0.9-0.4-1.3c-0.3-0.3-0.7-0.6-1.3-0.8c-0.6-0.2-1.6-0.5-2.8-0.8
				c-2.1-0.4-3.6-1-4.5-1.8c-0.9-0.8-1.3-1.8-1.3-3.1c0-1,0.3-1.9,0.8-2.7c0.6-0.8,1.4-1.4,2.4-1.8c1-0.4,2.1-0.7,3.4-0.7
				c0.9,0,1.8,0.1,2.7,0.4c0.9,0.2,1.6,0.6,2.3,1c0.8,0.6,1.2,1.2,1.2,1.8c0,0.3-0.1,0.6-0.3,0.8c-0.2,0.2-0.4,0.3-0.7,0.3
				c-0.3,0-0.7-0.2-1.3-0.6c-0.7-0.4-1.3-0.8-1.9-1c-0.6-0.2-1.3-0.4-2.2-0.4c-1.1,0-2,0.2-2.7,0.7c-0.7,0.5-1,1.2-1,2
				c0,0.5,0.1,0.9,0.4,1.3c0.2,0.3,0.7,0.6,1.2,0.9c0.6,0.2,1.4,0.5,2.5,0.7c1.6,0.4,2.9,0.7,3.7,1.2c0.9,0.4,1.5,0.9,1.9,1.6
				c0.4,0.6,0.6,1.4,0.6,2.3c0,1.5-0.6,2.7-1.9,3.6c-1.3,0.9-2.9,1.4-5,1.4C504.3,372.3,503.2,372.2,502.2,371.9z"/>
			<path class="st1" d="M542,369.9c0.2,0.2,0.4,0.5,0.4,0.9c0,0.8-0.4,1.2-1.3,1.2h-13.9c-0.4,0-0.7-0.1-1-0.4
				c-0.3-0.2-0.4-0.5-0.4-0.9c0-0.4,0.2-0.8,0.5-1.2l8.5-9.4c1.2-1.3,2-2.5,2.6-3.6s0.8-2.1,0.8-3.2c0-1.4-0.4-2.4-1.2-3.2
				c-0.8-0.7-1.9-1.1-3.3-1.1c-1.1,0-2.2,0.2-3.3,0.6s-2.1,1-3.1,1.9c-0.4,0.3-0.7,0.4-1,0.4c-0.3,0-0.5-0.1-0.7-0.4
				c-0.2-0.2-0.3-0.5-0.3-0.9c0-0.5,0.2-0.9,0.6-1.2c1-0.9,2.1-1.6,3.5-2.1c1.4-0.5,2.8-0.8,4.3-0.8c2.2,0,4,0.6,5.4,1.8
				s2,2.8,2,4.8c0,1.4-0.3,2.8-1,4.1s-1.7,2.8-3.2,4.4l-7.1,7.7H541C541.4,369.6,541.8,369.7,542,369.9z"/>
			<path class="st1" d="M548.4,369.1c-1.5-2.2-2.2-5.3-2.2-9.5c0-4.2,0.7-7.4,2.2-9.5c1.5-2.2,3.7-3.3,6.5-3.3s5,1.1,6.5,3.2
				c1.5,2.2,2.2,5.3,2.2,9.5c0,4.2-0.7,7.4-2.2,9.5c-1.5,2.2-3.7,3.3-6.5,3.3S549.9,371.3,548.4,369.1z M559.3,367.4
				c0.9-1.7,1.4-4.3,1.4-7.8c0-3.6-0.5-6.2-1.4-7.8c-0.9-1.7-2.4-2.5-4.4-2.5c-2,0-3.4,0.8-4.4,2.5c-0.9,1.7-1.4,4.3-1.4,7.8
				s0.5,6.2,1.4,7.8c0.9,1.7,2.4,2.5,4.4,2.5S558.3,369.1,559.3,367.4z"/>
			<path class="st1" d="M584.5,369.9c0.2,0.2,0.4,0.5,0.4,0.9c0,0.8-0.4,1.2-1.3,1.2h-13.9c-0.4,0-0.7-0.1-1-0.4
				c-0.3-0.2-0.4-0.5-0.4-0.9c0-0.4,0.2-0.8,0.5-1.2l8.5-9.4c1.2-1.3,2-2.5,2.6-3.6s0.8-2.1,0.8-3.2c0-1.4-0.4-2.4-1.2-3.2
				c-0.8-0.7-1.9-1.1-3.3-1.1c-1.1,0-2.2,0.2-3.3,0.6s-2.1,1-3.1,1.9c-0.4,0.3-0.7,0.4-1,0.4c-0.3,0-0.5-0.1-0.7-0.4
				c-0.2-0.2-0.3-0.5-0.3-0.9c0-0.5,0.2-0.9,0.6-1.2c1-0.9,2.1-1.6,3.5-2.1c1.4-0.5,2.8-0.8,4.3-0.8c2.2,0,4,0.6,5.4,1.8
				s2,2.8,2,4.8c0,1.4-0.3,2.8-1,4.1s-1.7,2.8-3.2,4.4l-7.1,7.7h11.2C583.9,369.6,584.3,369.7,584.5,369.9z"/>
			<path class="st1" d="M605.2,369.9c0.2,0.2,0.4,0.5,0.4,0.9c0,0.4-0.1,0.7-0.3,0.9c-0.2,0.2-0.6,0.3-1,0.3h-11.7
				c-0.4,0-0.8-0.1-1-0.3c-0.2-0.2-0.3-0.5-0.3-0.9c0-0.4,0.1-0.7,0.4-0.9c0.2-0.2,0.6-0.3,1-0.3h4.4v-19l-3.9,2.5
				c-0.2,0.1-0.4,0.2-0.6,0.2c-0.3,0-0.6-0.2-0.9-0.5c-0.2-0.3-0.4-0.6-0.4-1c0-0.5,0.2-0.9,0.6-1.1l5.4-3.5
				c0.4-0.3,0.8-0.4,1.2-0.4c0.4,0,0.7,0.1,1,0.4s0.4,0.6,0.4,1.1v21.2h4.4C604.6,369.6,605,369.7,605.2,369.9z"/>
			<path class="st1" d="M351.9,389.8c0.2,0.3,0.4,0.6,0.4,1.1v22.4c0,0.4-0.1,0.8-0.4,1.1c-0.2,0.3-0.6,0.4-1,0.4s-0.8-0.2-1.2-0.6
				L335,394.5v18.8c0,0.4-0.1,0.8-0.4,1.1c-0.2,0.3-0.6,0.4-1,0.4s-0.8-0.1-1-0.4c-0.2-0.3-0.4-0.6-0.4-1.1v-22.4
				c0-0.4,0.1-0.8,0.4-1.1s0.6-0.4,1-0.4c0.5,0,0.9,0.2,1.2,0.6l14.7,19.7v-18.8c0-0.4,0.1-0.8,0.4-1.1s0.6-0.4,1-0.4
				S351.7,389.6,351.9,389.8z"/>
			<path class="st1" d="M360.8,413.7c-1.2-0.7-2.2-1.8-2.9-3.1c-0.7-1.4-1-2.9-1-4.7c0-1.8,0.3-3.4,1-4.7c0.7-1.4,1.6-2.4,2.9-3.1
				c1.2-0.7,2.7-1.1,4.3-1.1c1.6,0,3.1,0.4,4.3,1.1c1.3,0.7,2.2,1.8,2.9,3.1c0.7,1.4,1,2.9,1,4.7c0,1.8-0.3,3.4-1,4.7
				c-0.7,1.4-1.6,2.4-2.9,3.1c-1.3,0.7-2.7,1.1-4.3,1.1C363.5,414.8,362.1,414.4,360.8,413.7z M369.1,410.8c0.9-1.1,1.4-2.8,1.4-4.9
				c0-2.1-0.5-3.7-1.4-4.9c-0.9-1.1-2.2-1.7-3.9-1.7c-1.7,0-3,0.6-3.9,1.7c-0.9,1.1-1.4,2.8-1.4,4.9c0,2.1,0.5,3.8,1.4,4.9
				c0.9,1.1,2.2,1.7,3.9,1.7S368.2,411.9,369.1,410.8z"/>
			<path class="st1" d="M402.6,403.7v9.6c0,0.4-0.1,0.8-0.4,1c-0.3,0.2-0.6,0.4-1,0.4s-0.8-0.1-1-0.4c-0.3-0.2-0.4-0.6-0.4-1v-9.5
				c0-1.6-0.3-2.7-0.9-3.4c-0.6-0.7-1.5-1.1-2.7-1.1c-1.4,0-2.6,0.5-3.4,1.5c-0.8,1-1.2,2.3-1.2,3.9v8.6c0,0.4-0.1,0.8-0.4,1
				c-0.3,0.2-0.6,0.4-1,0.4c-0.4,0-0.8-0.1-1-0.4c-0.3-0.2-0.4-0.6-0.4-1v-9.5c0-1.6-0.3-2.7-0.9-3.4c-0.6-0.7-1.5-1.1-2.7-1.1
				c-1.4,0-2.5,0.5-3.4,1.5c-0.8,1-1.3,2.3-1.3,3.9v8.6c0,0.4-0.1,0.8-0.4,1c-0.3,0.2-0.6,0.4-1,0.4c-0.4,0-0.8-0.1-1-0.4
				c-0.3-0.2-0.4-0.6-0.4-1v-14.9c0-0.4,0.1-0.8,0.4-1s0.6-0.4,1-0.4c0.4,0,0.7,0.1,1,0.4c0.3,0.2,0.4,0.6,0.4,1v1.7
				c0.5-1,1.2-1.8,2.2-2.3c0.9-0.5,2-0.8,3.2-0.8c2.7,0,4.5,1.1,5.3,3.4c0.5-1,1.3-1.9,2.3-2.5c1-0.6,2.2-0.9,3.5-0.9
				C400.7,396.9,402.6,399.2,402.6,403.7z"/>
			<path class="st1" d="M407.9,392.7c-0.4-0.3-0.5-0.8-0.5-1.3c0-0.5,0.2-0.9,0.5-1.3s0.8-0.5,1.4-0.5c0.6,0,1,0.2,1.4,0.5
				s0.5,0.8,0.5,1.3c0,0.5-0.2,1-0.5,1.3c-0.4,0.3-0.8,0.5-1.4,0.5C408.7,393.2,408.3,393.1,407.9,392.7z M408.2,414.4
				c-0.3-0.2-0.4-0.6-0.4-1v-14.9c0-0.4,0.1-0.8,0.4-1c0.3-0.2,0.6-0.4,1-0.4c0.4,0,0.8,0.1,1,0.4c0.3,0.2,0.4,0.6,0.4,1v14.9
				c0,0.5-0.1,0.8-0.4,1.1c-0.3,0.2-0.6,0.4-1,0.4C408.9,414.7,408.5,414.6,408.2,414.4z"/>
			<path class="st1" d="M430.9,403.7v9.6c0,0.4-0.1,0.8-0.4,1c-0.2,0.2-0.6,0.4-1,0.4c-0.4,0-0.8-0.1-1.1-0.4
				c-0.3-0.2-0.4-0.6-0.4-1v-9.4c0-1.6-0.3-2.8-0.9-3.5c-0.6-0.7-1.6-1.1-3-1.1c-1.6,0-2.8,0.5-3.8,1.5c-0.9,1-1.4,2.3-1.4,3.9v8.6
				c0,0.4-0.1,0.8-0.4,1c-0.2,0.2-0.6,0.4-1,0.4s-0.8-0.1-1.1-0.4c-0.3-0.2-0.4-0.6-0.4-1v-14.9c0-0.4,0.1-0.8,0.4-1
				s0.6-0.4,1.1-0.4c0.4,0,0.8,0.1,1,0.4s0.4,0.6,0.4,1v1.8c0.6-1.1,1.4-1.9,2.4-2.4c1-0.6,2.2-0.8,3.5-0.8
				C428.9,396.9,430.9,399.2,430.9,403.7z"/>
			<path class="st1" d="M450.2,410.9c0.2,0.2,0.3,0.5,0.3,0.8c0,0.6-0.4,1.1-1.2,1.6c-0.8,0.5-1.7,0.9-2.7,1.1s-1.9,0.4-2.8,0.4
				c-2.7,0-4.8-0.8-6.3-2.4s-2.3-3.8-2.3-6.6c0-1.8,0.3-3.3,1-4.7c0.7-1.4,1.6-2.4,2.9-3.2c1.2-0.8,2.7-1.1,4.2-1.1
				c2.2,0,4,0.7,5.3,2.2s2,3.4,2,6c0,0.5-0.1,0.8-0.3,1c-0.2,0.2-0.5,0.3-0.9,0.3H438c0.2,4.1,2.1,6.1,5.8,6.1
				c0.9,0,1.7-0.1,2.4-0.4c0.7-0.2,1.4-0.6,2.1-1c0.6-0.4,1-0.5,1.2-0.5C449.8,410.6,450,410.7,450.2,410.9z M439.7,400.5
				c-0.9,0.9-1.4,2.3-1.6,4h10c0-1.7-0.5-3.1-1.3-4s-2-1.4-3.5-1.4C441.8,399.1,440.6,399.6,439.7,400.5z"/>
			<path class="st1" d="M468.9,410.9c0.2,0.2,0.3,0.5,0.3,0.8c0,0.6-0.4,1.1-1.2,1.6c-0.8,0.5-1.7,0.9-2.7,1.1s-1.9,0.4-2.8,0.4
				c-2.7,0-4.8-0.8-6.3-2.4s-2.3-3.8-2.3-6.6c0-1.8,0.3-3.3,1-4.7c0.7-1.4,1.6-2.4,2.9-3.2c1.2-0.8,2.7-1.1,4.2-1.1
				c2.2,0,4,0.7,5.3,2.2s2,3.4,2,6c0,0.5-0.1,0.8-0.3,1c-0.2,0.2-0.5,0.3-0.9,0.3h-11.4c0.2,4.1,2.1,6.1,5.8,6.1
				c0.9,0,1.7-0.1,2.4-0.4c0.7-0.2,1.4-0.6,2.1-1c0.6-0.4,1-0.5,1.2-0.5C468.4,410.6,468.7,410.7,468.9,410.9z M458.4,400.5
				c-0.9,0.9-1.4,2.3-1.6,4h10c0-1.7-0.5-3.1-1.3-4s-2-1.4-3.5-1.4C460.5,399.1,459.3,399.6,458.4,400.5z"/>
		</g>
		<g>
			<path class="st1" d="M260.2,482.3c-2-0.6-3.6-1.4-4.9-2.4c-0.7-0.5-1-1.2-1-2.1c0-0.6,0.2-1.1,0.5-1.6c0.4-0.4,0.8-0.7,1.3-0.7
				c0.5,0,1.1,0.2,1.8,0.6c1.2,0.9,2.6,1.6,3.9,2c1.4,0.4,2.9,0.6,4.5,0.6c2.1,0,3.7-0.4,4.9-1.1c1.1-0.7,1.7-1.8,1.7-3.2
				c0-1.1-0.5-2-1.6-2.5c-1.1-0.6-2.8-1.2-5.3-1.7c-2.6-0.6-4.6-1.2-6.2-1.9c-1.6-0.7-2.8-1.7-3.6-2.8c-0.8-1.1-1.2-2.6-1.2-4.3
				c0-1.8,0.5-3.4,1.5-4.8c1-1.4,2.4-2.5,4.2-3.3c1.8-0.8,3.9-1.2,6.1-1.2c4.1,0,7.5,1.1,10.1,3.3c0.4,0.3,0.6,0.6,0.8,0.9
				c0.2,0.3,0.2,0.7,0.2,1.2c0,0.6-0.2,1.1-0.5,1.6c-0.4,0.5-0.8,0.7-1.3,0.7c-0.3,0-0.6,0-0.8-0.1c-0.2-0.1-0.6-0.2-1-0.5
				c-1.2-0.9-2.3-1.5-3.5-1.9c-1.1-0.4-2.5-0.6-4.1-0.6c-2,0-3.5,0.4-4.7,1.2c-1.1,0.8-1.7,1.9-1.7,3.3c0,1.2,0.5,2.1,1.5,2.7
				c1,0.6,2.7,1.2,5.2,1.8c2.6,0.6,4.7,1.2,6.3,1.9c1.6,0.7,2.8,1.6,3.7,2.7c0.9,1.1,1.3,2.5,1.3,4.1c0,1.8-0.5,3.4-1.5,4.8
				c-1,1.4-2.4,2.5-4.2,3.2c-1.8,0.8-3.9,1.2-6.2,1.2C264.3,483.2,262.2,482.9,260.2,482.3z"/>
			<path class="st1" d="M296.2,481c0,0.7-0.3,1.2-0.8,1.6s-1.4,0.5-2.4,0.5l-1.2-0.1c-4.9-0.3-7.3-3-7.3-7.8v-9.5h-2.2
				c-0.8,0-1.4-0.2-1.8-0.5c-0.4-0.3-0.6-0.9-0.6-1.5c0-0.7,0.2-1.2,0.6-1.5c0.4-0.3,1-0.5,1.8-0.5h2.2v-4c0-0.8,0.2-1.4,0.7-1.9
				c0.5-0.5,1.2-0.7,2-0.7c0.8,0,1.5,0.2,2,0.7c0.5,0.5,0.7,1.1,0.7,1.9v4h3.7c0.8,0,1.4,0.2,1.8,0.5c0.4,0.3,0.6,0.9,0.6,1.5
				c0,0.7-0.2,1.2-0.6,1.5c-0.4,0.3-1,0.5-1.8,0.5h-3.7v9.9c0,2.1,1,3.3,3,3.4l1.2,0.1C295.4,479.1,296.2,479.7,296.2,481z"/>
			<path class="st1" d="M314.8,463.2c1.4,1.5,2.2,3.7,2.2,6.7v10.6c0,0.8-0.2,1.4-0.7,1.8c-0.5,0.5-1.1,0.7-1.9,0.7
				c-0.8,0-1.4-0.2-1.8-0.7s-0.7-1.1-0.7-1.8v-1c-0.5,1.1-1.3,2-2.3,2.7c-1.1,0.6-2.3,1-3.7,1c-1.4,0-2.7-0.3-3.9-0.9
				c-1.2-0.6-2.1-1.4-2.7-2.4c-0.7-1-1-2.1-1-3.4c0-1.6,0.4-2.8,1.2-3.7c0.8-0.9,2.1-1.6,3.9-2s4.3-0.6,7.4-0.6h1.1v-1
				c0-1.4-0.3-2.5-0.9-3.1c-0.6-0.7-1.6-1-3-1c-0.8,0-1.7,0.1-2.6,0.4c-0.9,0.2-1.9,0.6-3.1,1.1c-0.8,0.4-1.3,0.6-1.7,0.6
				c-0.5,0-1-0.2-1.3-0.6c-0.3-0.4-0.5-0.9-0.5-1.5c0-0.5,0.1-0.9,0.4-1.3c0.2-0.4,0.7-0.7,1.2-1c1-0.6,2.2-1,3.6-1.3
				c1.4-0.3,2.8-0.5,4.2-0.5C311.2,461,313.4,461.7,314.8,463.2z M310.4,477.8c0.9-1,1.4-2.2,1.4-3.8v-0.9H311
				c-1.9,0-3.5,0.1-4.5,0.3c-1.1,0.2-1.8,0.5-2.3,0.9c-0.5,0.4-0.7,1-0.7,1.8c0,0.9,0.3,1.7,1,2.3c0.7,0.6,1.5,0.9,2.4,0.9
				C308.3,479.2,309.5,478.7,310.4,477.8z"/>
			<path class="st1" d="M340.6,463.2c1.2,1.5,1.9,3.6,1.9,6.6v10.7c0,0.8-0.2,1.5-0.7,1.9c-0.5,0.5-1.1,0.7-2,0.7
				c-0.8,0-1.5-0.2-2-0.7c-0.5-0.5-0.7-1.1-0.7-1.9V470c0-1.7-0.3-2.9-0.9-3.6c-0.6-0.8-1.6-1.1-2.9-1.1c-1.6,0-2.8,0.5-3.8,1.5
				c-0.9,1-1.4,2.3-1.4,4v9.7c0,0.8-0.2,1.5-0.7,1.9c-0.5,0.5-1.2,0.7-2,0.7c-0.8,0-1.5-0.2-2-0.7s-0.7-1.1-0.7-1.9v-16.8
				c0-0.8,0.2-1.4,0.7-1.8c0.5-0.5,1.2-0.7,2-0.7c0.8,0,1.4,0.2,1.8,0.7c0.5,0.5,0.7,1,0.7,1.8v1.2c0.7-1.2,1.7-2.1,2.9-2.7
				c1.2-0.6,2.6-1,4.1-1C337.4,461,339.3,461.7,340.6,463.2z"/>
			<path class="st1" d="M367.7,452.6c0.5,0.5,0.8,1.1,0.8,1.8v26c0,0.8-0.2,1.4-0.7,1.9c-0.5,0.5-1.1,0.7-2,0.7s-1.5-0.2-2-0.7
				s-0.7-1.1-0.7-1.9v-1.1c-0.6,1.2-1.6,2.1-2.8,2.8c-1.2,0.7-2.6,1-4.1,1c-1.8,0-3.5-0.5-4.9-1.4c-1.4-0.9-2.6-2.2-3.4-3.9
				s-1.2-3.6-1.2-5.9c0-2.2,0.4-4.1,1.2-5.8c0.8-1.7,1.9-2.9,3.3-3.8c1.4-0.9,3.1-1.3,4.9-1.3c1.5,0,2.9,0.3,4.1,1
				c1.2,0.6,2.1,1.5,2.7,2.7v-10.3c0-0.7,0.2-1.3,0.7-1.8c0.5-0.4,1.1-0.7,1.9-0.7S367.2,452.1,367.7,452.6z M361.7,477.1
				c0.9-1.2,1.4-2.9,1.4-5.1c0-2.2-0.5-3.9-1.4-5.1c-0.9-1.2-2.3-1.8-4-1.8c-1.7,0-3.1,0.6-4,1.7c-1,1.2-1.4,2.8-1.4,5
				c0,2.2,0.5,3.9,1.4,5.1c1,1.2,2.3,1.8,4,1.8C359.4,478.9,360.7,478.3,361.7,477.1z"/>
			<path class="st1" d="M378.1,481.8c-1.6-0.9-2.9-2.2-3.8-3.9s-1.3-3.6-1.3-5.9c0-2.2,0.5-4.2,1.3-5.9c0.9-1.7,2.2-3,3.8-3.9
				c1.6-0.9,3.5-1.3,5.7-1.3s4.1,0.5,5.7,1.3c1.6,0.9,2.9,2.2,3.8,3.9c0.9,1.7,1.3,3.6,1.3,5.9c0,2.2-0.4,4.2-1.3,5.9
				s-2.1,3-3.8,3.9c-1.6,0.9-3.5,1.3-5.7,1.3S379.7,482.7,378.1,481.8z M387.8,477.2c0.9-1.2,1.4-2.9,1.4-5.1c0-2.2-0.5-3.9-1.4-5.1
				c-0.9-1.2-2.3-1.8-4-1.8c-1.7,0-3.1,0.6-4,1.8c-0.9,1.2-1.4,2.9-1.4,5.1c0,2.3,0.5,4,1.4,5.1c0.9,1.2,2.3,1.7,4,1.7
				C385.5,478.9,386.9,478.3,387.8,477.2z"/>
			<path class="st1" d="M417.9,461.8c0.5,0.5,0.7,1.1,0.7,1.9v16.9c0,0.8-0.3,1.4-0.8,1.8c-0.5,0.5-1.2,0.7-2,0.7
				c-0.8,0-1.4-0.2-1.9-0.7c-0.5-0.4-0.7-1-0.7-1.8v-1.1c-0.7,1.2-1.6,2.1-2.7,2.7c-1.1,0.6-2.4,0.9-3.8,0.9c-5.2,0-7.8-2.9-7.8-8.8
				v-10.7c0-0.8,0.2-1.4,0.7-1.9c0.5-0.5,1.1-0.7,2-0.7c0.8,0,1.5,0.2,2,0.7c0.5,0.5,0.7,1.1,0.7,1.9v10.8c0,1.5,0.3,2.6,0.9,3.4
				c0.6,0.7,1.6,1.1,2.9,1.1c1.5,0,2.7-0.5,3.6-1.5s1.4-2.3,1.4-4v-9.7c0-0.8,0.2-1.4,0.7-1.9c0.5-0.5,1.1-0.7,2-0.7
				C416.8,461.1,417.4,461.3,417.9,461.8z"/>
			<path class="st1" d="M437.6,481c0,0.7-0.3,1.2-0.8,1.6c-0.6,0.4-1.4,0.5-2.4,0.5l-1.2-0.1c-4.9-0.3-7.3-3-7.3-7.8v-9.5h-2.2
				c-0.8,0-1.4-0.2-1.8-0.5c-0.4-0.3-0.6-0.9-0.6-1.5c0-0.7,0.2-1.2,0.6-1.5c0.4-0.3,1-0.5,1.8-0.5h2.2v-4c0-0.8,0.2-1.4,0.7-1.9
				c0.5-0.5,1.2-0.7,2-0.7c0.8,0,1.5,0.2,2,0.7c0.5,0.5,0.7,1.1,0.7,1.9v4h3.7c0.8,0,1.4,0.2,1.8,0.5c0.4,0.3,0.6,0.9,0.6,1.5
				c0,0.7-0.2,1.2-0.6,1.5c-0.4,0.3-1,0.5-1.8,0.5h-3.7v9.9c0,2.1,1,3.3,3,3.4l1.2,0.1C436.8,479.1,437.6,479.7,437.6,481z"/>
			<path class="st1" d="M453.4,482.3c-0.5-0.5-0.8-1.2-0.8-2v-25.5c0-0.8,0.3-1.5,0.8-2c0.5-0.5,1.2-0.8,2-0.8
				c0.9,0,1.6,0.3,2.1,0.8c0.5,0.5,0.8,1.2,0.8,2v25.5c0,0.8-0.3,1.5-0.8,2c-0.5,0.5-1.2,0.8-2.1,0.8
				C454.6,483.1,453.9,482.8,453.4,482.3z"/>
			<path class="st1" d="M482.5,463.2c1.2,1.5,1.9,3.6,1.9,6.6v10.7c0,0.8-0.2,1.5-0.7,1.9c-0.5,0.5-1.1,0.7-2,0.7
				c-0.8,0-1.5-0.2-2-0.7c-0.5-0.5-0.7-1.1-0.7-1.9V470c0-1.7-0.3-2.9-0.9-3.6c-0.6-0.8-1.6-1.1-2.9-1.1c-1.6,0-2.8,0.5-3.8,1.5
				c-0.9,1-1.4,2.3-1.4,4v9.7c0,0.8-0.2,1.5-0.7,1.9c-0.5,0.5-1.2,0.7-2,0.7c-0.8,0-1.5-0.2-2-0.7s-0.7-1.1-0.7-1.9v-16.8
				c0-0.8,0.2-1.4,0.7-1.8c0.5-0.5,1.2-0.7,2-0.7c0.8,0,1.4,0.2,1.8,0.7c0.5,0.5,0.7,1,0.7,1.8v1.2c0.7-1.2,1.7-2.1,2.9-2.7
				c1.2-0.6,2.6-1,4.1-1C479.3,461,481.2,461.7,482.5,463.2z"/>
			<path class="st1" d="M509.6,452.6c0.5,0.5,0.8,1.1,0.8,1.8v26c0,0.8-0.2,1.4-0.7,1.9c-0.5,0.5-1.1,0.7-2,0.7s-1.5-0.2-2-0.7
				s-0.7-1.1-0.7-1.9v-1.1c-0.6,1.2-1.6,2.1-2.8,2.8c-1.2,0.7-2.6,1-4.1,1c-1.8,0-3.5-0.5-4.9-1.4c-1.4-0.9-2.6-2.2-3.4-3.9
				s-1.2-3.6-1.2-5.9c0-2.2,0.4-4.1,1.2-5.8c0.8-1.7,1.9-2.9,3.3-3.8c1.4-0.9,3.1-1.3,4.9-1.3c1.5,0,2.9,0.3,4.1,1
				c1.2,0.6,2.1,1.5,2.7,2.7v-10.3c0-0.7,0.2-1.3,0.7-1.8c0.5-0.4,1.1-0.7,1.9-0.7S509.1,452.1,509.6,452.6z M503.6,477.1
				c0.9-1.2,1.4-2.9,1.4-5.1c0-2.2-0.5-3.9-1.4-5.1c-0.9-1.2-2.3-1.8-4-1.8c-1.7,0-3.1,0.6-4,1.7c-1,1.2-1.4,2.8-1.4,5
				c0,2.2,0.5,3.9,1.4,5.1c1,1.2,2.3,1.8,4,1.8C501.3,478.9,502.7,478.3,503.6,477.1z"/>
			<path class="st1" d="M516.4,456.4c-0.6-0.5-0.9-1.2-0.9-2.1c0-0.9,0.3-1.6,0.9-2.1c0.6-0.5,1.4-0.8,2.4-0.8c1,0,1.7,0.3,2.3,0.8
				c0.6,0.5,0.9,1.2,0.9,2.1c0,0.9-0.3,1.6-0.9,2.1c-0.6,0.5-1.4,0.8-2.3,0.8C517.7,457.2,517,456.9,516.4,456.4z M516.8,482.4
				c-0.5-0.5-0.8-1.1-0.8-1.9v-16.8c0-0.8,0.3-1.5,0.8-1.9c0.5-0.4,1.2-0.7,1.9-0.7s1.4,0.2,2,0.7c0.5,0.4,0.8,1.1,0.8,1.9v16.8
				c0,0.8-0.3,1.5-0.8,1.9c-0.5,0.4-1.2,0.7-2,0.7S517.3,482.8,516.8,482.4z"/>
			<path class="st1" d="M545.1,477.5c0.3,0.4,0.5,0.9,0.5,1.5c0,0.9-0.5,1.7-1.6,2.3c-1,0.6-2.1,1-3.4,1.3c-1.2,0.3-2.4,0.5-3.6,0.5
				c-3.4,0-6.1-1-8.1-3c-2-2-3-4.7-3-8.1c0-2.2,0.4-4.1,1.3-5.8c0.9-1.7,2.1-3,3.7-3.9s3.4-1.4,5.4-1.4c1.9,0,3.6,0.4,5,1.3
				c1.4,0.8,2.5,2,3.3,3.6s1.2,3.4,1.2,5.4c0,1.2-0.6,1.9-1.7,1.9h-12.8c0.2,2,0.7,3.5,1.7,4.4c1,0.9,2.4,1.4,4.2,1.4
				c0.9,0,1.7-0.1,2.5-0.3s1.5-0.6,2.4-1c0.9-0.5,1.5-0.7,1.9-0.7C544.4,477,544.8,477.1,545.1,477.5z M532.8,466.2
				c-0.9,0.9-1.4,2.3-1.6,4h9.8c-0.1-1.8-0.5-3.1-1.3-4c-0.8-0.9-1.9-1.4-3.4-1.4C534.9,464.8,533.7,465.3,532.8,466.2z"/>
		</g>
	</g>
</g>
</svg>
