<?xml version="1.0" encoding="utf-8"?>
<!-- Generator: Adobe Illustrator 24.3.0, SVG Export Plug-In . SVG Version: 6.00 Build 0)  -->
<svg version="1.1" id="Layer_1" xmlns="http://www.w3.org/2000/svg" xmlns:xlink="http://www.w3.org/1999/xlink" x="0px" y="0px"
	 viewBox="0 0 480 480" style="enable-background:new 0 0 480 480;" xml:space="preserve">
<style type="text/css">
	.st0{fill:#FFFFFF;}
	.st1{fill:#F8F189;}
	.st2{fill:#422505;}
	.st3{fill:#F8F8F8;}
	.st4{fill:#EDF0F6;}
	.st5{fill:#EB4235;}
	.st6{fill:#F8F3B4;}
	.st7{fill:#5A3000;}
</style>
<g>
	<path class="st0" d="M346.3,182.1c-0.6-0.4-1.2-0.9-1.8-1.3c-4.7-3.5-9.9-7.4-19-7.4c-3.8,0-8.1,0.7-13.1,2.1
		c1.6-6.2,2.7-13.6,2.1-21.1c-1-13-7-23.9-17.2-31.4c-7.9-5.8-18.8-9-30.6-9c-6,0-12.2,0.9-17.7,2.5c-11,3.3-18.6,7.7-26,15.4
		c-9.2-7.3-19.7-11.3-30.1-11.3c-7.3,0-14.5,2-20.6,5.8c-6.5,4-15.6,10.5-20,20.4c-5.3,12.1-5.3,25,0,39.7c0.7,2,1.6,3.9,2.5,5.7
		c-1,0.2-1.9,0.4-2.9,0.6c-10.4,2.3-18.3,7-23.6,13.9c-7.8,10.2-7.9,22.6-0.2,32.5c4,5.2,10.3,9.4,18.6,12.6c0,0.4,0,1,0.1,1.8
		c0.3,1.6,0.5,3.1,0.8,4.7c0.6,3.8,1.3,7.8,2,11.7c3.7,19.8,8.2,40.5,13.4,61.6c0.1,0.4,0.2,0.8,0.3,1.2c-0.4,0-0.9-0.1-1.4-0.1
		c-1.3,0-2.4,0.2-3.4,0.4c-3.7,0.7-5.5,2.8-6.5,4.5c-0.2,0.4-0.4,0.7-0.5,1c-0.8,0.6-2,1.6-2.9,3.3c-1.2,2.3-1.1,4.5-1,5.9v0.1
		c0.2,4,1.3,7.1,3.4,9.6c1.6,1.8,4.6,4,9.8,4.1h0.1h0.4h0c1.3,0.8,2.5,1.3,4,1.7c0.7,0.2,1.7,0.4,2.8,0.4c1.5,0,3-0.4,4.3-1.1
		c2.1-1.2,3.3-3,3.8-3.9c0.1,0,0.1-0.1,0.2-0.1c1.8-1.1,3.3-2.6,4.4-4.3c0.1-0.2,0.3-0.5,0.4-0.7c1.9,0.4,3.8,0.7,5.6,1.1l5.2,1
		c18.1,3.4,36.3,6.9,54.4,10.4c0.9,0.2,1.8,0.3,2.7,0.3c2,0,3.9-0.5,5.8-1.5c10.4-5.5,21-11.1,31.2-16.5c0.4-0.2,0.9-0.5,1.3-0.7
		c-0.1,1.4,0.1,3.3,1,5.1c0.7,1.4,2.1,3.3,5,4.6c1.1,0.5,2.1,0.8,3,1.1l0.5,0.2c0.2,0.1,0.4,0.1,0.6,0.2c1,0.3,2.3,0.8,3.7,0.9
		c0.4,0,0.8,0.1,1.2,0.1c1.4,0,2.6-0.3,3.5-0.5c0.2,0,0.4-0.1,0.6-0.1c0.2,0,0.5-0.1,0.7-0.1c0.9-0.1,2.2-0.3,3.6-0.9
		c0.5-0.2,1-0.4,1.4-0.7c0.5,0.2,1.1,0.4,1.6,0.6c0.7,0.2,1.5,0.3,2.3,0.4c0.1,0,0.1,0,0.2,0c1.1,0.4,2.2,0.7,3.3,0.7
		c2.7,0,5.2-1.4,6.7-3.7l0.1-0.1c0.4-0.4,1-0.9,1.6-1.6c2.4-3.1,2.3-7.3-0.2-10.2c-0.1-0.1-0.2-0.3-0.4-0.4
		c-0.2-0.4-0.5-0.9-0.8-1.4c-1.3-1.7-3.1-2.9-5.1-3.3c-0.4-0.1-0.9-0.1-1.4-0.1c-0.3,0-0.5,0-0.8,0c-0.1,0-0.2,0-0.3-0.1
		c-0.5-0.1-1.1-0.2-1.6-0.2c0,0-0.1,0-0.1,0c-1.2-1.9-3.1-3-4.4-3.7c0,0,0.1,0,0.1,0c0.3-0.1,0.5-0.3,0.8-0.4
		c0.7-0.3,1.6-0.7,2.5-1.3c0.6,0.4,1.3,0.9,2.2,1.3c1.4,0.6,2.9,0.9,4.3,0.9c3.4,0,6.5-1.6,8.4-4.3c0.5-0.7,0.9-1.5,1.1-2.1
		c0.4-0.2,0.9-0.4,1.3-0.7c0.9-0.5,3.7-1.9,5-5.2c0.5-1.3,0.7-2.6,0.8-3.4c0-0.2,0-0.4,0.1-0.5c0.3-1,1-3.1,0-5.6
		c-0.9-2.5-2.8-3.7-3.4-4.1c-0.3-0.2-0.6-0.4-0.9-0.5c-0.1-0.4-0.1-0.8-0.2-1.1c-0.8-3-2.8-5.6-5.6-6.9c-1.1-0.5-2.3-0.9-3.5-1
		c0.1-0.8,0.3-1.5,0.4-2.3l4.4-22l6.7-32.9c0-0.1,0-0.2,0.1-0.3c0.1-0.5,0.3-1.2,0.4-2.1c8.7-5.3,16.4-14.1,18.7-25.3
		C359.3,202,354.8,188.3,346.3,182.1z"/>
	<g>
		<path class="st1" d="M175.5,346.3c-0.9-0.4-2.3-0.3-2.3-1.7c0-1.6-0.6-2.9-1.5-4c-0.4-0.3-0.8-0.6-1.3-0.6c-1,0-1.8,0.7-2.8,0.9
			c-1,0.2-1.9-0.1-2.7-0.6c-0.5-0.2-1-0.5-1.5-0.6c-0.6-0.1-1.1,0-1.7,0c0,0,0,0,0,0c-0.8,0.2-1.6,0.4-2.4,0.6
			c-0.1,0-0.2,0.1-0.2,0.2c-0.1,0.1-0.2,0.2-0.3,0.2c0,0,0,0-0.1,0.1c0.1-0.1,0,0,0,0c0,0-0.1,0-0.1,0.1c0,0,0,0,0,0c0,0,0,0,0,0
			c-0.1,0.2-0.2,0.3-0.3,0.5c0,0.1,0,0.1,0,0.2c-0.1,0.3-0.1,0.5-0.3,0.8c-0.3,0.5-0.8,0.7-1.2,1c-0.1,0.1-0.2,0.1-0.3,0.2
			c-0.2,0.1-0.3,0.2-0.4,0.4c-0.3,0.3-0.5,0.7-0.6,1.1c-0.2,0.8-0.2,1.6-0.2,2.4c0.1,0.1,0.1,0.2,0.1,0.4c0,0.1,0,0.2-0.1,0.3
			c0,0.1,0,0.3,0,0.4c0.1,2.7,2.1,5,4.7,5.5c0.3-1.6,2.4-2.5,3.7-1.6c1,0.7,0,1.3-0.2,1.9c1-0.2,1.8-0.1,2.4,0.8
			c0.6,0.9,1.8,0.8,2.6,1.4c0.3-0.2,0.8,0.1,1.1-0.3c-0.2-0.6-0.6-1.1-0.8-1.8c-0.2-1.2-0.2-2.3,1-2.6c1.2-0.3,1.1,1.1,1.6,1.8
			c0.3-0.8,1-0.8,1.6-1C175.4,351.7,176.7,348.8,175.5,346.3z"/>
		<path class="st1" d="M327.2,322.9c-0.7,0.5-0.7,1.4-1.1,2c-0.4-1.1,0-2.2-0.5-3.3c-0.3-0.7-0.7-1-1.4-0.5
			c-1.1,0.8-1.5,1.9-1.3,3.2c0.2,1.2,0.6,2.3,2.1,2.3c-2.2,1-4.4,0.8-5.9-1c-1-1.1-1.9-1.4-3.2-1c1.3-2.4,1.3-2.4-0.6-2.9
			c1-4.8,1.9-9.7,2.9-14.5c0.1-0.5,0.1-1.6,1-0.9c1.4,1.1,2.4,0.5,3.6-0.1c0.4-0.2,0.9-0.4,1.4-0.6c0-0.1,0.1-0.2,0.2-0.2l0-0.1
			c0.5-0.2,1-0.2,1.4,0c2.1,1.6,3.5,3.5,2.9,6.3c-0.1,0.4-0.1,0.8,0.3,0.8c1.3,0.2,2.3,1.3,3.7,1.1l0,0c0.8,1.9,0.8,3.8,0.1,5.7
			c-0.3,0.4-0.3,1.2-1.1,1.3l0.1,0.1l-0.1,0.1l0,0C330.1,321.6,328.6,322.3,327.2,322.9L327.2,322.9z"/>
		<path class="st1" d="M310.5,340c0.7,0.2,1.1,0.6,1.5,1.2c0.4,1.3,0.4,2.7,0.3,4.1l0,0c-0.6,0.4-0.9,1-0.6,1.5c0.4,1,0,1.8-0.4,2.6
			l0,0c-0.2,0.1-0.4,0.3-0.6,0.4c-0.1-0.8,0.3-1.4,0.5-2.1c0.1-0.4,0-0.8-0.3-1c-0.3-0.2-0.6,0.1-0.9,0.3c-1.3,1-1.3,2.3,0.2,3.4
			c-0.3,0.3-0.8,0.4-0.9,0.8l0,0c-0.4,0-0.3,0.4-0.6,0.5c-0.1,0.1-0.3,0.2-0.4,0.3l0.1,0c-1.9-0.1-3.7,0.2-5.4,1
			c-0.2,0.1-0.5,0.3-0.6,0.2c-2.3-1.2-5.3-1.2-7.2-3.3c-1.3-1.4-1-3.3,0.3-4.5c1-0.9,1.5-1.9,1.2-3.2c-0.7-3.1-0.3-3.7,2.9-4.4
			c0.5-0.1,1.1-0.2,1.6-0.3c1.7-0.6,3.5-0.7,5.1,0.4l0,0c0.1,0.1,0.3,0.3,0.4,0.4l0,0c0.1,0.1,0.3,0.3,0.4,0.4l0,0
			c0.1,0.1,0.3,0.3,0.4,0.4l0,0c0.1,0.4,0.4,0.4,0.7,0.4l-0.1-0.1c0.6,0.6,1.3,0.7,2.1,0.7l0,0C309.8,340,310.5,339.6,310.5,340z
			 M305.4,341c0.1-0.1,1.1,0.6,1.4-0.2c0.3-0.9-0.5-1.6-1.2-2c-1.2-0.8-2.6-0.8-4-0.5c-0.7,0.2-1.1,0.8-0.3,1.3
			C302.4,340.4,303.4,341.5,305.4,341z"/>
		<path class="st1" d="M319.3,352c-1-0.7-2.5-0.5-3.9-0.9c-1.3-0.4-1.8-1.6-1.9-2.9c-0.1-1,0.3-1.8,1.2-2.6c1.3-1.2,2.5-1.6,4-0.8
			c0.4,0.2,0.8,0,1.1-0.1c1-0.5,1.8,0.3,1.9,0.9c0.2,1,0.5,1.6,1.4,2c0.6,0.3,0.2,0.8,0,1.2c-0.5,1.2-1.9,1.7-2.4,2.9
			C320.5,352.1,319.9,351.9,319.3,352z"/>
		<path class="st2" d="M332.6,313.8c-1.4,0.1-2.4-1-3.7-1.1c-0.4-0.1-0.4-0.5-0.3-0.8c0.6-2.8-0.8-4.7-2.9-6.3
			c2.4,1.1,3.3,3.1,3.2,5.5c0,1,0.1,1.4,1.2,1.5C331.1,312.6,332,313,332.6,313.8z"/>
		<path class="st2" d="M332.6,319.5c0.7-1.9,0.7-3.8-0.1-5.7c1.5,1.1,1.2,2.6,0.7,4C333.1,318.4,332.9,318.9,332.6,319.5z"/>
		<path class="st2" d="M327.2,323c1.5-0.7,2.9-1.4,4.4-2.1C330.6,322.5,329,323.1,327.2,323z"/>
		<path class="st2" d="M306.3,337.5c-1.6-1-3.4-1-5.1-0.4C302.9,336,304.9,336.1,306.3,337.5z"/>
		<path class="st2" d="M312.3,345.2c0.1-1.4,0.1-2.8-0.3-4.1C312.9,342.4,312.8,343.8,312.3,345.2z"/>
		<path class="st2" d="M311.3,349.3c0.4-0.8,0.8-1.6,0.4-2.6c-0.2-0.6,0.1-1.2,0.6-1.5C311.8,346.5,312,348,311.3,349.3z"/>
		<path class="st2" d="M309.3,351c0.1-0.5,0.6-0.5,0.9-0.8l0,0c0.3-0.1,0.5-0.2,0.5-0.5v0c0.2-0.1,0.4-0.3,0.6-0.4
			C311,350.2,310.3,350.9,309.3,351z"/>
		<path class="st2" d="M310,339.5c-0.8,0-1.5-0.1-2.1-0.7C308.6,339,309.4,339,310,339.5z"/>
		<path class="st2" d="M310.5,340c0-0.4-0.7,0-0.6-0.5C310.2,339.5,310.6,339.5,310.5,340z"/>
		<path class="st2" d="M308.7,351.4c0.2-0.1,0.2-0.5,0.6-0.5C309.5,351.5,308.8,351.2,308.7,351.4z"/>
		<path class="st2" d="M307.9,338.8c-0.3,0-0.6,0-0.7-0.4C307.6,338.3,307.8,338.6,307.9,338.8z"/>
		<polygon class="st2" points="308.3,351.7 308.3,351.7 308.3,351.7 		"/>
		<path class="st2" d="M306.6,337.8c-0.1-0.1-0.3-0.3-0.4-0.4C306.5,337.4,306.6,337.5,306.6,337.8z"/>
		<path class="st2" d="M306.9,338.1c-0.1-0.1-0.3-0.3-0.4-0.4C306.8,337.7,306.9,337.9,306.9,338.1z"/>
		<path class="st2" d="M307.3,338.5c-0.1-0.1-0.3-0.3-0.4-0.4C307.2,338.1,307.3,338.2,307.3,338.5z"/>
		<polygon class="st2" points="331.5,320.9 331.7,320.9 331.6,320.8 		"/>
		<path class="st2" d="M324.3,305.6L324.3,305.6C324.3,305.6,324.3,305.6,324.3,305.6z"/>
		<path class="st3" d="M211.2,341.3c0-6.6,0-13.3,0-19.9c-0.1-9.3-0.2-18.6-0.3-28c-0.1-9.6-0.2-19.2-0.4-28.8
			c-0.1-3.1-0.1-6.3-0.1-9.4c0-0.8,0.1-1.5,0.8-2.1c3.6-3.3,7.1-6.6,10.6-9.9c0.7-0.6,1.1-0.9,1.9,0.1c6.4,7.5,12.9,14.9,19.4,22.3
			c1,1.1,1.3,2.3,1.3,3.6c0.3,5.4,0.4,10.9,0.7,16.3c0.4,7.8,0.8,15.6,1.2,23.5c0.3,5.3,0.4,10.5,0.7,15.8c0.4,8,0.8,16,1.2,24
			c0.1,2,0.1,4,0.2,6c0.1,0.9-0.1,1.1-1.1,0.9c-9.6-1.8-19.2-3.6-28.7-5.4c-1.8-0.3-3.6-0.8-5.5-1c-1.3-0.2-1.8-0.7-1.7-2.1
			c0.1-2,0-4,0-6.1C211.3,341.3,211.2,341.3,211.2,341.3z"/>
		<path class="st4" d="M251.2,355.5c-0.4-9.5-0.8-18.7-1.2-28c-0.5-10.9-1-21.8-1.5-32.7c-0.4-8.9-0.9-17.8-1.4-26.7
			c-0.1-1,0.3-1.8,0.9-2.6c6.8-8.3,13.7-16.6,20.5-24.9c0.5-0.6,0.8-1,1.6-0.1c2.4,2.9,5,5.8,7.5,8.6c0.4,0.5,0.6,0.9,0.6,1.5
			c0.1,5.9,0.2,11.8,0.3,17.7c0.2,10,0.4,20,0.7,29.9c0.1,6.2,0.3,12.4,0.5,18.7c0.2,7.6,0.3,15.1,0.5,22.7c0,0.6,0.1,1-0.5,1.3
			C270.3,345.8,260.9,350.6,251.2,355.5z"/>
		<path class="st3" d="M157.7,258.7c6.9,4.1,13.6,8.1,20.2,12.1c2,1.2,4,2.5,6.1,3.6c0.8,0.5,1.2,1.1,1.3,2
			c3,19.6,6.1,39.2,9.1,58.7c0.6,3.7,1.1,7.4,1.7,11.2c-6.6-1.3-13-2.5-19.4-3.7c-0.9-0.2-1-0.8-1.2-1.4
			c-3.9-15.1-7.6-30.3-10.9-45.6c-2.6-12-4.9-24-7-36.1C157.6,259.3,157.7,259.1,157.7,258.7z"/>
		<path class="st4" d="M326.9,245.8c-1.2,6.3-2.4,12.6-3.6,19c-3.8,19.3-7.6,38.7-11.3,58c-0.3,1.5-0.9,2.3-2.2,2.9
			c-4.5,2.2-9,4.6-13.5,6.9c-0.5,0.2-0.9,0.7-1.7,0.5c0-0.5,0-1.1,0-1.6c0-21.5,0-43,0-64.6c0-1.3,0.4-2,1.5-2.6
			c9.9-6.1,19.8-12.3,29.7-18.5c0.3-0.2,0.6-0.3,0.9-0.4C326.7,245.5,326.8,245.6,326.9,245.8z"/>
		<path class="st5" d="M207.6,257.2c0.1,2.1,0.3,4.1,0.3,6.1c0.1,8.5-0.1,17.1,0.1,25.6c0.3,9.9,0.1,19.8,0.4,29.7
			c0.2,9.3,0.2,18.6,0.3,28c0,1.3-0.2,1.7-1.6,1.3c-2.4-0.6-4.8-1-7.3-1.4c-0.7-0.1-1-0.4-1.1-1.2c-1.9-12.6-3.9-25.1-5.8-37.7
			c-1.6-10.3-3.2-20.7-4.8-31c-0.1-0.9-0.1-1.6,0.7-2.2c6.1-5.6,12.2-11.3,18.3-16.9C207.2,257.4,207.3,257.3,207.6,257.2z"/>
		<g>
			<path class="st5" d="M288.3,336.4C288.3,336.4,288.3,336.4,288.3,336.4C288.3,336.5,288.3,336.4,288.3,336.4z"/>
			<path class="st5" d="M287.7,336.8C287.7,336.8,287.7,336.8,287.7,336.8C287.7,336.8,287.7,336.8,287.7,336.8z"/>
		</g>
		<path class="st1" d="M162.4,247.4c-0.4-0.8-0.7-1.4-1.8-1.5c-2-0.2-4-0.7-6-0.9c-2.5-0.2-4.7-1.2-7.2-1.4c0.4,0.2,0.9,0.5,1.3,0.7
			c3.6,2,7.6,2.3,11.5,3.3c0.2,0,0.4,0,0.6,0.1c0.2,0,0.4,0,0.6,0.3c0.2,0.1,0.4,0.3,0.5,0.4c0.4,0.5,0.6,1.2,0.6,1.8
			c0,0.6-0.1,1.3-0.3,1.8c-0.2,0.5-0.5,1.1-1,1.4c-0.8,1.9-0.3,2.7,1.5,3.9C164.1,254.1,164,250.7,162.4,247.4z"/>
		<path class="st6" d="M324.9,326.7c-1.6,0-1.9-1.1-2.1-2.3c-0.2-1.3,0.2-2.4,1.3-3.2c0.7-0.5,1.1-0.2,1.4,0.5
			c0.5,1,0.2,2.2,0.5,3.3v0c-0.9,0.2-0.9,0.8-0.8,1.6C325.1,326.6,325,326.7,324.9,326.7z"/>
		<path class="st6" d="M315.1,321.9c1.9,0.5,1.9,0.5,0.6,2.9c-0.7,0.3-1.4,0.6-1.1-0.7C314.8,323.4,315,322.6,315.1,321.9z"/>
		<path class="st1" d="M166.4,196.7c0.7,0.4,1.4,1.1,1.1,1.6c-0.4,0.9-1.4,0.3-2.2,0.4C165.7,198.1,166.1,197.4,166.4,196.7z"/>
		<path class="st1" d="M325.3,326.5c-0.2-0.7-0.1-1.3,0.8-1.6C325.9,325.5,325.9,326.2,325.3,326.5z"/>
		<path class="st4" d="M326.6,245.3c0.1-0.2,0.3-0.4,0.4-0.2c0.2,0.2,0.1,0.5-0.1,0.6C326.8,245.6,326.7,245.5,326.6,245.3z"/>
		<path class="st1" d="M221.9,141c-0.1-0.1-0.3-0.2-0.4-0.4C221.6,140.8,221.7,140.9,221.9,141z"/>
		<path class="st1" d="M222.3,141.2c-0.2,0.1-0.4,0-0.4-0.2C222,141.1,222.1,141.1,222.3,141.2z"/>
		<path class="st1" d="M222.6,141.6c-0.3,0.1-0.4,0-0.3-0.3C222.4,141.4,222.5,141.5,222.6,141.6z"/>
		<path class="st3" d="M302.3,185.7c-0.1,0-0.2,0.1-0.4,0.1c0-0.1,0-0.3,0-0.4C302.1,185.5,302.2,185.6,302.3,185.7z"/>
		<path class="st6" d="M171.2,354.1c-0.7,0.7-0.6,2.1-2,2c-0.2-0.6-0.6-1.1-0.8-1.8c-0.2-1.2-0.2-2.3,1-2.6c1.2-0.3,1.1,1.1,1.6,1.8
			C171.1,353.7,171.1,353.9,171.2,354.1z"/>
		<path class="st6" d="M163.1,354.3c-0.9,0.4-1.8,0.5-2.8,0.1c-0.1-0.4-0.4-0.4-0.7-0.4h0c0.3-1.6,2.4-2.5,3.7-1.6
			C164.3,353.2,163.3,353.7,163.1,354.3z"/>
		<path class="st6" d="M305.4,341c-2,0.5-3-0.6-4.2-1.4c-0.8-0.5-0.4-1.1,0.3-1.3c1.4-0.4,2.8-0.3,4,0.5c0.7,0.4,1.4,1.1,1.2,2
			C306.5,341.6,305.6,340.9,305.4,341z"/>
		<path class="st6" d="M310.1,350.1c-1.4-1-1.5-2.4-0.2-3.4c0.3-0.2,0.6-0.5,0.9-0.3c0.3,0.2,0.4,0.6,0.3,1
			c-0.2,0.7-0.6,1.3-0.5,2.1v0C310.3,349.6,310,349.6,310.1,350.1L310.1,350.1z"/>
		<path class="st1" d="M159.6,354.1c0.3-0.1,0.6,0,0.7,0.4C160,354.5,159.7,354.4,159.6,354.1z"/>
		<path class="st1" d="M310.1,350.1c-0.1-0.5,0.2-0.5,0.5-0.5C310.6,349.9,310.4,350,310.1,350.1z"/>
		<path class="st2" d="M211.6,188.9c5.7,1.5,11.3,2.4,17,2.4c6.7,0,13.2-1.6,19.6-3.5c2.1-0.6,4.2-1.3,6.2-2
			c0.6-0.2,1.1-0.4,1.1,0.6c0.1,9.9-2.9,18.3-11.6,23.6c-8.9,5.5-20.6,2.7-26.8-6.1C214.1,199.7,212.1,194.2,211.6,188.9z
			 M252.2,190c-0.9-0.2-1.6,0.3-2.4,0.5c-9.6,2.8-19.2,4.8-29.3,3.2c-1.6-0.3-3.3-0.5-5-0.7c0.7,3,1.8,5.6,3.4,8
			c4,6.1,9.4,9.4,17,8.6C246,208.4,252.2,198.6,252.2,190c0,0,0.1,0,0.1-0.1c0,0,0-0.1,0-0.1C252.3,189.9,252.2,190,252.2,190z"/>
		<path class="st2" d="M189.5,177.7c-0.2-1.5-0.2-3,0.2-4.5c1.1-3.5,4.4-4.7,7.4-2.6c3.1,2.2,4.9,7.1,3.9,10.8c-1,3.7-4.4,5-7.6,2.8
			c-1.1-0.7-2-1.7-2.5-2.9c0.3,0,0.6,0,0.8,0c1.2,0.1,2.1-0.4,2.5-1.6c0.3-1.1,0.1-2.2-0.9-2.8c-1.1-0.7-2.2-0.6-3.2,0.4
			C190,177.4,189.8,177.5,189.5,177.7z"/>
		<path class="st2" d="M263.7,172.4c0-0.6-0.1-1.3,0-1.8c0.5-2.3,1.4-4.4,4.1-5c2.1-0.5,4.4,0.8,5.7,3.3c1.8,3.3,2.1,6.7,0.3,10.1
			c-1.6,2.9-4.8,3.3-7.2,1.1c-1.2-1.1-2-2.5-2.6-4.1c2.2,0.7,3.6,0.3,4-1.2c0.3-1,0.1-2-0.7-2.7C266,171,264.8,171.5,263.7,172.4z"
			/>
		<path class="st0" d="M263.7,172.4c1.1-0.9,2.3-1.4,3.6-0.3c0.9,0.7,1,1.7,0.7,2.7c-0.4,1.5-1.9,1.9-4,1.2
			C263.3,174.8,263,173.7,263.7,172.4z"/>
		<path class="st0" d="M189.5,177.7c0.2-0.2,0.5-0.3,0.7-0.5c1-1,2.1-1,3.2-0.4c1.1,0.7,1.3,1.7,0.9,2.8c-0.3,1.2-1.2,1.7-2.5,1.6
			c-0.3,0-0.6,0-0.8,0C189.8,180.4,189.2,179.2,189.5,177.7z"/>
		<path class="st5" d="M252.2,190c0,8.6-6.2,18.4-16.4,19.6c-7.5,0.9-13-2.5-17-8.6c-1.6-2.4-2.7-5-3.4-8c1.7,0.3,3.4,0.5,5,0.7
			c10.1,1.6,19.7-0.4,29.3-3.2C250.6,190.3,251.3,189.8,252.2,190L252.2,190z"/>
		<path class="st5" d="M252.2,190c0,0,0.1-0.1,0.1-0.2c0,0,0,0.1,0,0.1C252.3,190,252.2,190,252.2,190
			C252.2,190,252.2,190,252.2,190z"/>
		<path class="st5" d="M292.4,333.1c0-0.3,0-0.5,0-0.8c0-21.5,0-42.9,0-64.4c0-1.3-0.4-2.3-1.3-3.3c-2.3-2.6-4.5-5.3-6.9-7.8
			c-1.2-1.3-2.2-2.8-3.8-4c0.2,3.7,0.1,7.1,0.3,10.5c0.2,4.7,0.2,9.4,0.3,14.1c0.2,10.2,0.4,20.3,0.7,30.5
			c0.2,6.5,0.2,12.9,0.4,19.4c0.1,3.6,0.3,7.2,0.3,10.8c0,1.2,0.4,1.4,1.4,0.9c0.9-0.4,1.7-0.9,2.5-1.3c0.3-0.1,0.6-0.2,1-0.3
			c0.4-0.2,0.8-0.4,1.2-0.6c0.8-0.4,1.5-0.7,2.3-1.1c0.7-0.3,1.7-0.7,1.6-1.6C292.4,333.7,292.4,333.4,292.4,333.1z"/>
		<path class="st6" d="M223.3,141.8c-0.4-0.1-0.7-0.4-0.9-0.7c-0.3-0.3-0.7-0.6-1-0.9c-0.7-0.6-1.4-1.1-2.1-1.7
			c-0.7-0.5-1.3-1-2-1.6c-0.3-0.2-0.6-0.4-0.9-0.6c0,0-0.1-0.1-0.1-0.1c-2.4-1.7-5.2-3-7.8-4.3c-6.5-3-13.2-4.3-20.4-3
			c-9.8,1.8-17.4,7.2-23.8,14.5c-3.3,3.7-5.4,7.9-6.6,12.7c-1.6,6.5-1.4,13-0.4,19.5c0.3,2.2,0.8,4.4,1.5,6.3
			c2.1,5.1,4.8,10,7.7,14.7c0.7,0.4,1.4,1.1,1.1,1.6c-0.4,0.9-1.4,0.3-2.2,0.4c-6.3,0.3-12.3,1.5-18.1,3.9c-6.6,2.7-12,7-15.1,13.6
			c-3,6.6-1.9,12.7,2.2,18.5c2.7,3.8,6.5,5.9,10.4,7.8c0.8,0.4,1.7,0.8,2.6,1.2c2.4,1,4.7,2.2,7.2,3c1.2,0.4,2.5,0.6,3.7,0.9
			c1,0.2,2.2,0.3,3.1,0.8c2.2,1.3,0.4,4.8-0.6,6.3c-0.1,0.2-0.2,0.4-0.1,0.7c-0.2,0.2-0.3,0.5-0.2,0.7c0.1,0.2,0.2,0.3,0.4,0.4
			c0.1,0.1,0.2,0.1,0.3,0.1c0.2,0.1,0.4,0.2,0.6,0.2c0.1,0,0.1,0,0.2,0c0.3,0.2,0.6,0.3,0.9,0.3c0,0.1,0,0.1-0.1,0.2
			c3.9,2.3,7.9,4.6,11.8,6.9c0.3-1.3,0.8-2.7,1-4.1c0.8-5.5,1.6-11,2.4-16.6c0.1-0.5,0.1-1-0.6-1.1c-0.9-0.2-1.8-0.5-2.7-0.7
			c-5.8-1.4-11.6-3-16.5-6.5c-7-5.1-8.4-12.4-6-19.7c1.6-4.7,5.4-7.6,10-9.2c2.9-1,5.9-1.7,9-1.9c3.8-0.3,7.6-0.7,11.4-0.2
			c2.3,0.3,4.7,0.1,7.4,0.1c-2.6-4.4-5.1-8.5-7.3-12.7c-2.5-4.8-5.1-9.6-7.2-14.6c-1.9-4.4-3-9-4.3-13.6c-1.5-5.2-1.8-10.5,0.4-15.6
			c2.2-5.2,5.4-9.3,11-11.4c2.2-0.8,4.4-1.4,6.6-2c4.3-1.3,8.7-1.8,13.2-1.1c6.1,1,11.5,3.5,16.6,6.8c1.1,0.7,2.2,1.6,3.4,2
			c0.3,0.3,0.7,0.5,1,0.6C223.7,143,223.9,142,223.3,141.8z"/>
		<path class="st7" d="M342.7,187.1c-8.8-6.3-13.9-12.6-40.4-1.3c-0.1,0-0.2,0.1-0.4,0.1c0-0.1,0-0.3,0-0.4c2-2,18.1-38.1-8.2-57.4
			c-11.5-8.4-29.3-9.7-43-5.6c-11.1,3.3-18.4,7.9-25.9,16.6c-0.6,0.7-0.6,2.2-1.8,1.1c-15.7-15-34.2-16.6-47.5-8.4
			c-6.5,4-14.1,9.7-17.6,17.7c-5.1,11.6-4.1,23.5,0.2,35.2c1.4,3.9,3.6,7.7,5.7,11.3c1,1.7,1.7,1.3-0.1,1.5c-3.4,0.3-7,0.9-10.3,1.6
			c-7.7,1.7-15.1,5.2-20.1,11.7c-5.2,6.8-7,16.4-0.2,25c8.5,10.9,27.6,14,27.8,14.2c-0.7,1.7-1.6,3.4-2.6,5c0,0-0.1,0-0.1-0.1
			c-1.7-1-3.4-2-5.2-3c0,0.4,0,0.7,0,1c0.9,5.4,1.8,10.8,2.8,16.2c3.8,20.5,8.3,40.9,13.3,61.2c0.8,3.1,1.7,6.1,2.2,9.3
			c-0.5-0.2-1.1-0.3-1.7-0.2c-1.1,0.2-2.1,0.7-3.2,0.7c-1.2-0.1-2.2-0.9-3.4-1.1c-1.1-0.2-2.2,0-3.2,0.2c-1,0.2-1.8,0.6-2.2,1.4
			c-0.4,0.8-0.6,1.7-1.3,2.3c-0.7,0.6-1.5,1-1.9,1.8c-0.4,0.9-0.4,1.9-0.4,2.9c0.1,2.1,0.5,4.2,1.9,5.8c1.3,1.5,3.3,2,5.3,2
			c1.1,0,2.2-0.1,3.2,0.6c0.9,0.6,1.7,1,2.7,1.2c0.9,0.2,1.9,0.4,2.8-0.1c0.7-0.4,1.2-1.1,1.6-1.8c0.2-0.4,0.5-0.8,0.8-1.2
			c0.4-0.4,1-0.7,1.5-1c0.9-0.5,1.7-1.2,2.2-2.2c0.9-1.5,1-3.2,0.4-4.8c4,0.7,8,1.5,11.9,2.2c19.9,3.8,39.7,7.6,59.6,11.4
			c1.6,0.3,2.9,0.2,4.4-0.6c19.3-10.2,38.7-20.4,58-30.6c1.4-0.7,3-1.2,4.1-2.6c0,0,0.1,0,0.2,0c1.2-0.5,2.5-0.8,3.7,0
			c0,0,0.1,0.1,0.2,0.1c0.3,0.3,0.7,0.6,1,0.8c0.5,0.4,1,0.8,1.6,1c1.9,0.8,4.2,0.4,5.4-1.3c0.6-0.9,0.5-2.2,1.2-2.9
			c0.4-0.4,1-0.6,1.4-0.9c0.6-0.3,1.2-0.6,1.8-0.9c0.9-0.5,1.8-1.1,2.2-2.1c0.4-1.1,0.3-2.2,0.7-3.3c0.2-0.6,0.4-1.2,0.1-1.7
			c-0.2-0.5-0.6-0.9-1.1-1.2c-0.5-0.4-1.1-0.6-1.7-0.8c-0.3-0.1-0.9-0.2-1.3-0.4c-0.2-0.2-0.5-0.5-0.5-0.8c0-0.4,0.1-0.7,0.1-1.1
			c0-0.7,0-1.4-0.2-2.1c-0.3-1.3-1.2-2.4-2.4-3c-1.2-0.6-2.7-0.6-4,0c-0.7,0.3-1.3,0.8-2.1,0.7c-0.6,0-1.7-0.3-1.9-1
			c0-0.1-0.1-0.2-0.2-0.3c0-0.1,0-0.2,0-0.4c0.7-3,1.2-6,1.9-9c3.7-18.3,7.4-36.6,11.1-54.8c0.2-0.9,0.6-1.7,0.3-2.8
			c-2.5,1.5-4.8,3-7.3,4.5c0-0.9-0.1-1.7-0.1-2.6c0-0.7,0-0.7-0.1-1.3c11-2.2,23.6-12,26.4-25.5
			C352.8,203.4,349.5,191.9,342.7,187.1z M175,350.2c-0.4,0.8-1.1,1.4-1.9,1.9c-0.7,0.4-1.4,0.8-1.9,1.4c-0.4,0.5-0.8,1.2-1.2,1.8
			c-0.6,0.8-1.3,1.1-2.2,0.9c-0.9-0.1-1.9-0.4-2.7-1c-0.7-0.5-1.3-0.8-2.2-0.9c-1.8-0.2-3.6,0.2-5.3-0.8c-1.7-1-2.4-2.9-2.6-4.7
			c-0.1-0.9-0.2-1.9-0.1-2.9c0.1-1,0.7-1.5,1.4-2c0.6-0.5,1.2-0.9,1.5-1.7c0.3-0.7,0.5-1.6,1.3-2c0.5-0.2,1.1-0.3,1.6-0.4
			c0.6-0.1,1.2-0.2,1.8-0.1c1.1,0.1,2.1,0.8,3.2,1c1.1,0.2,2.1,0,3.1-0.3c0.5-0.2,1-0.4,1.6-0.3c0.5,0,1,0.3,1.5,0.6
			c0.8,1.1,1.3,2.3,1.3,3.8c0,1.3,1.2,1.3,2,1.6C175.7,347.5,175.7,349,175,350.2z M176.7,342.5c-0.9-0.2-1-0.8-1.2-1.4
			c-3.9-15.1-7.6-30.3-10.9-45.6c-2.6-12-4.9-24-7-36.1c0-0.2,0-0.3,0-0.7c6.9,4.1,13.6,8.1,20.2,12.1c2,1.2,4,2.5,6.1,3.6
			c0.8,0.5,1.2,1.1,1.3,2c3,19.6,6.1,39.2,9.1,58.7c0.6,3.7,1.1,7.4,1.7,11.2C189.6,345,183.2,343.7,176.7,342.5z M207.2,348
			c-2.4-0.6-4.8-1-7.3-1.4c-0.7-0.1-1-0.4-1.1-1.2c-1.9-12.6-3.9-25.1-5.8-37.7c-1.6-10.3-3.2-20.7-4.8-31c-0.1-0.9-0.1-1.6,0.7-2.2
			c6.1-5.6,12.2-11.3,18.3-16.9c0.1-0.1,0.2-0.1,0.5-0.2c0.1,2.1,0.3,4.1,0.3,6.1c0.1,8.5-0.1,17.1,0.1,25.6
			c0.3,9.9,0.1,19.8,0.4,29.7c0.2,9.3,0.2,18.6,0.3,28C208.8,347.9,208.5,348.3,207.2,348z M247.2,355.9c-9.6-1.8-19.2-3.6-28.7-5.4
			c-1.8-0.3-3.6-0.8-5.5-1c-1.3-0.2-1.8-0.7-1.7-2.1c0.1-2,0-4,0-6.1c-0.1,0-0.1,0-0.2,0c0-6.6,0-13.3,0-19.9
			c-0.1-9.3-0.2-18.6-0.3-28c-0.1-9.6-0.2-19.2-0.4-28.8c-0.1-3.1-0.1-6.3-0.1-9.4c0-0.8,0.1-1.5,0.8-2.1c3.6-3.3,7.1-6.6,10.6-9.9
			c0.7-0.6,1.1-0.9,1.9,0.1c6.4,7.5,12.9,14.9,19.4,22.3c1,1.1,1.3,2.3,1.3,3.6c0.3,5.4,0.4,10.9,0.7,16.3
			c0.4,7.8,0.8,15.6,1.2,23.5c0.3,5.3,0.4,10.5,0.7,15.8c0.4,8,0.8,16,1.2,24c0.1,2,0.1,4,0.2,6
			C248.4,355.9,248.2,356.1,247.2,355.9z M279.7,341c-9.4,4.8-18.8,9.6-28.4,14.5c-0.4-9.5-0.8-18.7-1.2-28
			c-0.5-10.9-1-21.8-1.5-32.7c-0.4-8.9-0.9-17.8-1.4-26.7c-0.1-1,0.3-1.8,0.9-2.6c6.8-8.3,13.7-16.6,20.5-24.9
			c0.5-0.6,0.8-1,1.6-0.1c2.4,2.9,5,5.8,7.5,8.6c0.4,0.5,0.6,0.9,0.6,1.5c0.1,5.9,0.2,11.8,0.3,17.7c0.2,10,0.4,20,0.7,29.9
			c0.1,6.2,0.3,12.4,0.5,18.7c0.2,7.6,0.3,15.1,0.5,22.7C280.3,340.3,280.4,340.7,279.7,341z M292.4,332.2c0,0.6,0,1.2-0.1,1.8
			c-0.4,1-5.4,3.2-5.5,3.2c-1,0.5-2,1-3,1.5c-1,0.5-1.4,0.2-1.4-0.9c0-3.6-0.2-7.2-0.3-10.8c-0.1-6.5-0.2-12.9-0.4-19.4
			c-0.3-10.2-0.5-20.3-0.7-30.5c-0.1-4.7-0.1-9.4-0.3-14.1c-0.2-3.4-0.1-6.8-0.3-10.5c1.6,1.2,2.6,2.7,3.8,4
			c2.3,2.6,4.6,5.2,6.9,7.8c0.9,1,1.3,2,1.3,3.3C292.4,289.3,292.4,310.8,292.4,332.2z M319.6,306.8c0.5,0.3,1,0.3,1.5,0.2
			c0,0,0.1,0,0.1,0c0.8-0.1,1.4-0.4,2-0.8c0.7-0.4,1.6-0.5,2.4-0.3c1.5,0.4,2.5,1.6,2.7,3.1c0.1,0.8,0,1.5,0,2.3c0,0.1,0,0.2,0,0.3
			c0,0,0,0.1,0,0.1c0.1,0.6,0.4,1,0.8,1.3c0,0,0.1,0.1,0.1,0.1c0.1,0.1,0.2,0.1,0.3,0.1c0.2,0.1,0.3,0.1,0.5,0.2
			c0.6,0.2,1.1,0.3,1.6,0.6c0.5,0.2,1.2,0.6,1.3,1.2c0.1,0.5-0.3,1.2-0.4,1.7c-0.1,0.6-0.1,1.1-0.2,1.7c-0.2,1.2-1,1.8-2,2.4
			c-1,0.5-2.2,1-3.1,1.7c-0.9,0.7-1,1.5-1.3,2.5c-0.7,2.3-3.6,2.4-5.4,1.2c-1-0.7-1.7-1.6-2.9-2c-1-0.3-2-0.1-3,0.3
			c0-0.1,0-0.3,0-0.6c0.2-0.8,0.3-1.5,0.5-2.3c1-4.8,1.9-9.7,2.9-14.5c0.1-0.4,0.1-1,0.4-1.1C318.8,306.5,319.2,306.7,319.6,306.8z
			 M325.7,245.7c0.3-0.2,0.6-0.3,0.9-0.4c0.1-0.2,0.3-0.4,0.4-0.2c0.2,0.2,0.1,0.5-0.1,0.6c-1.2,6.3-2.4,12.6-3.6,19
			c-3.8,19.3-7.6,38.7-11.3,58c-0.3,1.5-0.9,2.3-2.2,2.9c-4.5,2.2-9,4.6-13.5,6.9c-0.5,0.2-0.9,0.7-1.7,0.5v-1.6c0-21.5,0-43,0-64.6
			c0-1.3,0.4-2,1.5-2.6C306,258.1,315.8,251.9,325.7,245.7z M348.3,211.7c-1.2,5.7-3.9,10.9-8.2,15c-3.7,3.5-7.9,6.6-12.8,8.4
			c-1.4,0.5-2.9,0.6-4.3,1.1c-0.9,0.3-1.5,0.7-1.2,1.7c0.2,1,0,2.1,0.3,3.1c0.3,1.1,0.3,2.8,0.3,2.8s-1.3,0.8-2.2,1.3
			c-8.5,5.3-17,10.7-25.5,16.1c-0.9,0.6-1.3,0.7-2.1-0.3c-7.4-8.5-14.9-16.9-22.3-25.4c-0.8-0.9-1.1-0.9-1.8,0
			c-7.3,8.8-14.6,17.6-21.8,26.5c-0.8,1-1.1,1-2,0.1c-6.9-8-13.8-15.9-20.7-23.9c-0.7-0.8-1.1-0.8-1.9-0.1
			c-6.5,6.1-13,12.2-19.6,18.2c-5.1,4.8-10.3,9.5-15.5,14.3c-0.7,0.6-1.1,0.7-1.8,0.2c-3.5-2.2-7.1-4.3-10.7-6.4
			c-3.9-2.3-7.9-4.6-11.8-6.9c-0.4-0.2-0.6-0.4-0.9-0.7c0,0-0.1-0.1-0.2-0.1c0,0,0,0,0,0c0,0,0,0,0,0c-0.2-0.1-0.4-0.1-0.6-0.3
			c-0.2-0.1-0.4-0.4-0.4-0.6c0-0.2,0.1-0.4,0.2-0.6c0.2-0.5,0.5-1,0.7-1.6c0.3-0.7,0.7-1.4,0.9-2.2c0.3-0.6,0.5-1.2,0.8-1.8
			c0.1-0.2,0.1-0.5-0.1-0.6c-0.6-0.5-1.2-0.8-1.8-1c-0.2-0.2-0.6-0.2-0.9-0.2c-3.9-1.1-7.6-1.8-11.7-3.4c-0.5-0.2-0.9-0.5-1.3-0.7
			c-5-2.1-9.9-4.4-13.1-8.9c-4.1-5.7-5.2-11.9-2.2-18.5c3.1-6.7,8.4-10.9,15.1-13.6c5.6-2.3,11.6-3.5,17.7-3.9c0.1,0,0.3,0,0.4,0.1
			c0.2,0,0.4,0,0.6,0s0.4,0,0.6,0c0.2,0,0.4,0,0.7-0.1c0.3-0.2,0.4-0.5,0.4-0.8c0-0.2-0.2-0.4-0.4-0.6c-0.3-0.3-0.5-0.6-0.8-0.9
			c-0.1-0.1-0.1-0.1-0.2-0.1c-11.8-18-10.2-33.6-8.6-40c1.2-4.8,3.3-9,6.6-12.7c6.5-7.3,14-12.7,23.8-14.5c7.1-1.3,13.9,0,20.4,3
			c2.5,1.2,9.7,5.2,14.8,10.1c0.4,0.4,1,0.1,1.4,0.1c0.9-0.2,1.4-0.9,1.9-1.7c3.1-3.4,6.3-6.7,10.2-9.3c7-4.8,14.6-7.5,23.1-8.6
			c10.3-1.3,19.8,1,28.9,5.1c9,4.1,14,11.4,16,21.1c1.9,9.2,1.7,18.3-1.1,27.2c-1,3.2-1.9,6.5-3.3,9.7c-0.3,0.6-0.5,1.3-1,1.7
			c-0.1,0.5-0.1,1-0.1,1.5c0,0.1,0,0.2,0,0.4c0,0,0.1,0.1,0.1,0.1c0.4,0,0.9,0,1.3-0.1c0.3-0.6,0.8-0.9,1.4-1.1
			c5.7-2.7,11.5-4.8,17.7-6.1c10.3-2.2,18.2,1.8,24.1,9.6C347.8,197.4,349.7,204.4,348.3,211.7z"/>
		<path class="st7" d="M312.7,341.8c-0.4-2.4-3.5-2.6-5.1-3.8c-0.8-0.6-1.5-1.4-2.5-1.8c-1.1-0.5-2.2-0.4-3.4,0
			c-0.1,0-0.1,0.1-0.2,0.1c-0.4,0.1-0.8,0.2-1.2,0.3c-0.5,0.1-1.1,0.3-1.6,0.4c-0.5,0-0.9,0-1.4,0.2c-2.1,0.6-1.7,3.3-1.3,5
			c0.2,1-0.4,1.6-1,2.3c-0.6,0.7-1.1,1.3-1.3,2.2c-0.2,0.9-0.1,2.1,0.3,3c0.4,0.8,1.2,1.4,2,1.7c0.9,0.4,1.9,0.7,2.9,1
			c1,0.3,2.1,0.8,3.2,0.9c1.1,0.1,2.2-0.3,3.3-0.5c1.1-0.2,2.2-0.2,3.2-0.6c1.7-0.7,3.2-2.2,3.6-4.1c0.1-0.5-0.1-1,0-1.5
			c0-0.6,0.4-1.2,0.5-1.8C312.8,343.9,312.8,342.7,312.7,341.8z M311.7,343.5c0,0.5,0,1-0.1,1.4c-0.1,0.5-0.4,0.9-0.4,1.4
			c-0.1,0.5,0.1,0.9,0.1,1.4c0,0.5-0.2,0.9-0.5,1.3c-0.4,0.8-1.1,1.4-1.9,1.8c-0.7,0.4-1.6,0.6-2.4,0.7c-1,0.1-1.9,0.4-2.9,0.6
			c-1,0.2-1.9,0-2.9-0.3c-1-0.3-2-0.6-3-1c-0.7-0.2-1.4-0.5-2-0.9c-0.9-0.6-1-1.6-1-2.7c0.1-1.7,1.6-2.4,2.2-3.8
			c0.3-0.8,0.1-1.6,0-2.4c-0.2-0.9-0.3-2.5,0.6-3c0.4-0.2,1-0.2,1.5-0.2c0.5-0.1,1-0.2,1.5-0.3c1-0.3,2.1-0.6,3.2-0.7
			c0.1,0,0.2,0,0.3-0.1c0.3,0,0.6,0.1,0.8,0.2c0.8,0.4,1.4,1,2,1.5c0.6,0.5,1.3,0.9,2,1.2c0.8,0.4,1.8,0.6,2.5,1.3
			C311.8,341.7,311.7,342.7,311.7,343.5z"/>
		<path class="st7" d="M323.4,347c-0.3-0.3-0.7-0.6-0.9-0.9c-0.2-0.4-0.3-0.9-0.6-1.3c-0.3-0.4-0.8-0.8-1.3-0.9
			c-0.6-0.1-1.2,0.3-1.7,0.1c-0.3-0.1-0.5-0.3-0.8-0.3s-0.6,0-0.9,0c-0.7,0.1-1.3,0.4-1.9,0.7c-0.3,0.1-0.3,0.4-0.2,0.6
			c-0.2,0.2-0.4,0.4-0.7,0.5c-0.4,0.3-0.7,0.7-0.9,1.1c-0.5,1-0.5,2.2-0.1,3.2c0.4,1.1,1.1,1.7,2.3,2c0.5,0.1,1,0.2,1.5,0.2
			c0.3,0,0.6,0,0.9,0.1c0.4,0,0.7,0.2,1,0.4c1,0.4,1.9,0.3,2.5-0.7c0.3-0.4,0.5-0.8,0.9-1.2c0.4-0.3,0.8-0.6,1.1-1
			C323.9,348.8,324,347.8,323.4,347z M322.5,348.9c-0.5,0.7-1.2,1.1-1.7,1.7c-0.2,0.3-0.3,0.7-0.6,0.9c-0.4,0.3-0.9,0.1-1.3-0.1
			c-1.4-0.7-4.1,0-4.7-1.9c-0.3-0.9-0.3-2.1,0.4-2.9c0.5-0.5,1.2-0.8,1.5-1.5c0.3-0.1,0.6-0.3,1-0.4c0.2-0.1,0.5-0.1,0.8-0.1
			c0.2,0,0.4,0.2,0.6,0.3c0.4,0.1,0.8,0.1,1.2,0c0.4-0.1,0.8-0.2,1.2,0.1c0.6,0.5,0.6,1.3,1.1,1.9c0.2,0.3,0.6,0.4,0.8,0.7
			C322.9,348.1,322.7,348.5,322.5,348.9z"/>
		<path class="st1" d="M343.6,191.8c-5.9-7.7-13.8-11.8-24.1-9.6c-6.2,1.3-12,3.4-17.7,6.1c-0.3,0.1-0.6,0.3-0.9,0.5
			c-0.2,0.1-0.4,0.2-0.5,0.2c-0.2,0.1-0.4,0.2-0.6,0.2c0,0-0.1,0-0.1-0.1c0,0-0.1-0.1-0.1-0.1c0,0,0,0,0,0c0,0,0,0-0.1-0.1
			c0-0.1-0.1-0.1-0.1-0.2c0,0,0-0.1,0-0.2c0-0.2,0-0.4,0-0.6c0.1-0.2,0.2-0.5,0.3-0.7c0.2-0.6,0.4-1.1,0.7-1.7c0,0,0-0.1,0-0.1
			c1.3-3,2.2-6.2,3.2-9.3c2.8-9,3-18,1.1-27.2c-2-9.7-7-17-16-21.1c-9.1-4.2-18.7-6.4-28.9-5.1c-8.4,1.1-16.1,3.8-23.1,8.6
			c-4.1,2.8-8.1,6.7-10.8,10c-1,1.2-2.4,1.2-4.1,0.6c-2.6-1.6-6.9-4.4-9.4-5.4c-3.2-1.5-6.8-2.5-10.3-3.1c-0.1,0-0.2,0-0.3,0
			c-2.7-0.6-5.4-0.9-7.9-1c-9-0.4-21.9,7.9-24.5,16.8c-3,10.5,0,23.7,3.9,33.6c3.1,8,7.5,15.2,12.8,21.8c-1.2,0-2.4,0-3.6-0.1
			c-3.8-0.5-7.6-0.1-11.4,0.2c-3.1,0.2-6.1,0.9-9,1.9c-4.6,1.7-8.4,4.5-10,9.2c-2.4,7.3-1,14.6,6,19.7c5,3.6,10.7,5.2,16.5,6.5
			c0.9,0.2,1.8,0.5,2.7,0.7c0.7,0.1,0.7,0.6,0.6,1.1c-0.8,5.5-1.5,11-2.4,16.6c-0.2,1.4-0.7,2.7-1,4.1c3.6,2.1,7.1,4.2,10.7,6.4
			c0.8,0.5,1.2,0.4,1.8-0.2c5.1-4.8,10.3-9.5,15.5-14.3c6.5-6.1,13.1-12.1,19.6-18.2c0.8-0.7,1.2-0.7,1.9,0.1
			c6.9,8,13.8,15.9,20.7,23.9c0.8,1,1.2,0.9,2-0.1c7.3-8.8,14.6-17.6,21.8-26.5c0.8-0.9,1.1-0.9,1.8,0c7.4,8.5,14.9,16.9,22.3,25.4
			c0.8,1,1.3,0.8,2.1,0.3c8-5.1,15.9-10.2,24-15.1c0.1,0,0.2,0,0.3-0.1c0.9-0.5,1.7-1,2.5-1.6c0.3-0.2,0.9-0.6,0.9-0.6
			s-0.2-1.4-0.2-1.9c-0.1-1.8,0-3.5-0.2-5.3c0.2-0.2,0.5-0.4,0.9-0.5c1.4-0.4,2.9-0.5,4.3-1.1c4.9-1.8,9.1-4.9,12.8-8.4
			c4.3-4,7-9.2,8.2-15C349.7,204.4,347.8,197.4,343.6,191.8z M201.1,181.4c-1,3.7-4.4,5-7.6,2.8c-1.1-0.7-2-1.7-2.5-2.9
			c-1.3-0.9-1.8-2-1.5-3.6c-0.2-1.5-0.2-3,0.2-4.5c1.1-3.5,4.4-4.7,7.4-2.6C200.2,172.8,202,177.7,201.1,181.4z M243.8,210
			c-8.9,5.5-20.6,2.7-26.8-6.1c-2.9-4.2-5-9.7-5.5-15c5.7,1.5,11.3,2.4,17,2.4c6.7,0,13.2-1.6,19.6-3.5c2.1-0.6,4.2-1.3,6.2-2
			c0.6-0.2,1.1-0.4,1.1,0.6C255.6,196.2,252.6,204.7,243.8,210z M273.8,178.9c-1.6,2.9-4.8,3.3-7.2,1.1c-1.2-1.1-2-2.5-2.6-4.1
			c-0.8-1.1-1-2.3-0.3-3.6c0-0.6-0.1-1.3,0-1.8c0.5-2.3,1.4-4.4,4.1-5c2.1-0.5,4.4,0.8,5.7,3.3C275.3,172.1,275.6,175.6,273.8,178.9
			z"/>
	</g>
</g>
</svg>
