<?xml version="1.0" encoding="utf-8"?>
<!-- Generator: Adobe Illustrator 24.3.0, SVG Export Plug-In . SVG Version: 6.00 Build 0)  -->
<svg version="1.1" id="Layer_1" xmlns="http://www.w3.org/2000/svg" xmlns:xlink="http://www.w3.org/1999/xlink" x="0px" y="0px"
	 viewBox="0 0 1280 1280" enable-background="new 0 0 1280 1280" xml:space="preserve">
<g>
	<path fill-rule="evenodd" clip-rule="evenodd" fill="#93BCFA" d="M68.28,373.95h165.74c3.23,0,6.06,2.83,6.06,6.06v42.44
		c0,3.23-2.83,6.06-6.06,6.06H68.28c-3.23,0-6.06-2.83-6.06-6.06v-42.44C62.22,376.38,64.65,373.95,68.28,373.95z"/>
	<path fill-rule="evenodd" clip-rule="evenodd" fill="#B6E9FF" d="M75.96,381.63h151.99c2.83,0,5.26,2.43,5.26,5.26v29.1
		c0,2.83-2.43,5.26-5.26,5.26H75.96c-2.83,0-5.26-2.43-5.26-5.26v-29.1C70.71,384.06,72.73,381.63,75.96,381.63z"/>
	<path fill="#FFFFFF" d="M95.37,407.1c-2.43,0-4.85-0.81-6.87-2.83c-3.64-3.64-3.64-9.7,0-13.74c3.64-3.64,9.7-3.64,13.74,0
		s3.64,9.7,0,13.74C100.62,405.89,98.2,407.1,95.37,407.1z M95.37,391.34c-1.62,0-3.23,0.4-4.04,1.62c-2.43,2.43-2.43,6.06,0,8.49
		c2.43,2.43,6.06,2.43,8.49,0c2.43-2.43,2.43-6.06,0-8.49C98.6,391.74,96.98,391.34,95.37,391.34z"/>
	<path fill="#FFFFFF" d="M79.6,414.78c-0.4,0-0.81,0-1.21-0.4c-0.81-0.81-0.81-2.02,0-2.43l10.51-10.51c0.81-0.81,2.02-0.81,2.43,0
		c0.81,0.81,0.81,2.02,0,2.43l-10.51,10.51C80.41,414.78,80.01,414.78,79.6,414.78z"/>
</g>
<path fill-rule="evenodd" clip-rule="evenodd" fill="#93BCFA" d="M78.39,584.56h34.76c2.43,0,4.04,2.02,4.04,4.04v34.76
	c0,2.43-2.02,4.04-4.04,4.04H78.39c-2.43,0-4.04-2.02-4.04-4.04V588.6C74.35,586.58,75.96,584.56,78.39,584.56z"/>
<path fill-rule="evenodd" clip-rule="evenodd" fill="#B6E9FF" d="M50.5,588.6H22.2c-1.21,0-2.43-1.21-2.43-2.43v-28.3
	c0-1.21,1.21-2.43,2.43-2.43h28.3c1.21,0,2.43,1.21,2.43,2.43v28.3C52.92,587.39,51.71,588.6,50.5,588.6z"/>
<path fill-rule="evenodd" clip-rule="evenodd" fill="#93BCFA" d="M1187.61,512.2h41.64c4.45,0,8.08,3.64,8.08,8.08v41.64
	c0,4.45-3.64,8.08-8.08,8.08h-41.64c-4.45,0-8.08-3.64-8.08-8.08v-41.64C1179.93,515.84,1183.57,512.2,1187.61,512.2z"/>
<path fill-rule="evenodd" clip-rule="evenodd" fill="#B6E9FF" d="M1016.62,362.23h26.68c3.23,0,5.66,2.43,5.66,5.66v26.68
	c0,3.23-2.43,5.66-5.66,5.66h-26.68c-3.23,0-5.66-2.43-5.66-5.66v-26.68C1010.96,364.66,1013.38,362.23,1016.62,362.23z"/>
<g>
	<path fill-rule="evenodd" clip-rule="evenodd" fill="#B6E9FF" d="M1040.06,610.84h215.46c2.83,0,5.26,2.43,5.26,5.26v56.59
		c0,2.83-2.43,5.26-5.26,5.26h-215.46c-2.83,0-5.26-2.43-5.26-5.26v-56.59C1034.81,612.86,1037.23,610.84,1040.06,610.84z"/>
	<path fill-rule="evenodd" clip-rule="evenodd" fill="#6D9ADE" d="M1040.06,610.84h215.46c2.83,0,5.26,2.43,5.26,5.26v13.34h-225.97
		v-13.34C1034.81,612.86,1037.23,610.84,1040.06,610.84z"/>
	<path fill-rule="evenodd" clip-rule="evenodd" fill="#FFFFFF" d="M1250.27,624.18c2.02,0,4.04-1.62,4.04-4.04
		c0-2.02-1.62-4.04-4.04-4.04c-2.02,0-4.04,1.62-4.04,4.04C1246.22,622.15,1247.84,624.18,1250.27,624.18z"/>
	<path fill-rule="evenodd" clip-rule="evenodd" fill="#FFFFFF" d="M1237.33,624.18c2.02,0,4.04-1.62,4.04-4.04
		c0-2.02-1.62-4.04-4.04-4.04s-4.04,1.62-4.04,4.04C1233.29,622.15,1234.9,624.18,1237.33,624.18z"/>
	<path fill-rule="evenodd" clip-rule="evenodd" fill="#FFFFFF" d="M1224.39,624.18c2.02,0,4.04-1.62,4.04-4.04
		c0-2.02-1.62-4.04-4.04-4.04s-4.04,1.62-4.04,4.04C1220.35,622.15,1222.37,624.18,1224.39,624.18z"/>
</g>
<g>
	<path fill-rule="evenodd" clip-rule="evenodd" fill="#B6E9FF" d="M49.28,660.15h185.95c2.83,0,5.26,2.43,5.26,5.26v52.95
		c0,2.83-2.43,5.26-5.26,5.26H49.28c-2.83,0-5.26-2.43-5.26-5.26v-52.95C44.03,662.58,46.45,660.15,49.28,660.15z"/>
	<path fill-rule="evenodd" clip-rule="evenodd" fill="#93BCFA" d="M49.28,660.15h185.95c2.83,0,5.26,2.43,5.26,5.26v14.96H44.03
		v-14.96C44.03,662.58,46.45,660.15,49.28,660.15z"/>
	<circle fill-rule="evenodd" clip-rule="evenodd" fill="#FFFFFF" cx="175" cy="702.19" r="8.89"/>
	<circle fill-rule="evenodd" clip-rule="evenodd" fill="#8BB3D8" cx="142.26" cy="702.19" r="8.89"/>
	<path fill-rule="evenodd" clip-rule="evenodd" fill="#6D9ADE" d="M109.11,711.09c4.85,0,8.89-4.04,8.89-8.89s-4.04-8.89-8.89-8.89
		c-4.85,0-8.89,4.04-8.89,8.89C100.62,707.04,104.26,711.09,109.11,711.09z"/>
</g>
<g>
	<path fill-rule="evenodd" clip-rule="evenodd" fill="#B6E9FF" d="M967.3,424.08h184.33c2.43,0,4.45,2.02,4.45,4.45v151.59
		c0,2.43-2.02,4.45-4.45,4.45H967.3c-2.43,0-4.45-2.02-4.45-4.45V428.53C962.85,426.1,964.88,424.08,967.3,424.08z"/>
	<path fill-rule="evenodd" clip-rule="evenodd" fill="#6D9ADE" d="M967.3,424.08h184.33c2.43,0,4.45,2.02,4.45,4.45v28.7H963.26
		v-29.1C962.85,426.1,964.88,424.08,967.3,424.08z"/>
	<path fill="#FFFFFF" d="M1104.34,437.82h-89.74c-0.81,0-1.21-0.4-1.21-1.21c0-0.81,0.4-1.21,1.21-1.21h89.74
		c0.81,0,1.21,0.4,1.21,1.21C1105.55,437.42,1105.15,437.82,1104.34,437.82z"/>
	<path fill="#FFFFFF" d="M1139.51,446.72H979.43c-0.81,0-1.21-0.4-1.21-1.21c0-0.81,0.4-1.21,1.21-1.21h160.08
		c0.81,0,1.21,0.4,1.21,1.21C1140.72,446.31,1140.31,446.72,1139.51,446.72z"/>
	<rect x="962.85" y="457.23" fill-rule="evenodd" clip-rule="evenodd" fill="#93BCFA" width="192.82" height="23.04"/>
	<rect x="982.66" y="497.65" fill-rule="evenodd" clip-rule="evenodd" fill="#6D9ADE" width="35.17" height="35.17"/>
	<rect x="1042.49" y="497.65" fill-rule="evenodd" clip-rule="evenodd" fill="#6D9ADE" width="35.17" height="35.17"/>
	<rect x="1101.1" y="497.65" fill-rule="evenodd" clip-rule="evenodd" fill="#6D9ADE" width="35.17" height="35.17"/>
	<path fill="#FFFFFF" d="M1017.83,546.16h-35.17c-0.81,0-1.21-0.4-1.21-1.21s0.4-1.21,1.21-1.21h35.17c0.81,0,1.21,0.4,1.21,1.21
		C1019.04,545.35,1018.64,546.16,1017.83,546.16z"/>
	<path fill="#FFFFFF" d="M1017.83,556.26h-35.17c-0.81,0-1.21-0.4-1.21-1.21c0-0.81,0.4-1.21,1.21-1.21h35.17
		c0.81,0,1.21,0.4,1.21,1.21C1019.04,555.46,1018.64,556.26,1017.83,556.26z"/>
	<path fill="#FFFFFF" d="M1017.83,566.37h-35.17c-0.81,0-1.21-0.4-1.21-1.21s0.4-1.21,1.21-1.21h35.17c0.81,0,1.21,0.4,1.21,1.21
		C1019.04,565.56,1018.64,566.37,1017.83,566.37z"/>
	<path fill="#FFFFFF" d="M1077.25,546.16h-34.76c-0.81,0-1.21-0.4-1.21-1.21s0.4-1.21,1.21-1.21h35.17c0.81,0,1.21,0.4,1.21,1.21
		C1078.47,545.35,1078.06,546.16,1077.25,546.16z"/>
	<path fill="#FFFFFF" d="M1077.25,556.26h-34.76c-0.81,0-1.21-0.4-1.21-1.21c0-0.81,0.4-1.21,1.21-1.21h35.17
		c0.81,0,1.21,0.4,1.21,1.21C1078.47,555.46,1078.06,556.26,1077.25,556.26z"/>
	<path fill="#FFFFFF" d="M1077.25,566.37h-34.76c-0.81,0-1.21-0.4-1.21-1.21s0.4-1.21,1.21-1.21h35.17c0.81,0,1.21,0.4,1.21,1.21
		C1078.47,565.56,1078.06,566.37,1077.25,566.37z"/>
	<path fill="#FFFFFF" d="M1136.27,546.16h-35.17c-0.81,0-1.21-0.4-1.21-1.21s0.4-1.21,1.21-1.21h35.17c0.81,0,1.21,0.4,1.21,1.21
		C1137.48,545.35,1137.08,546.16,1136.27,546.16z"/>
	<path fill="#FFFFFF" d="M1136.27,556.26h-35.17c-0.81,0-1.21-0.4-1.21-1.21c0-0.81,0.4-1.21,1.21-1.21h35.17
		c0.81,0,1.21,0.4,1.21,1.21C1137.48,555.46,1137.08,556.26,1136.27,556.26z"/>
	<path fill="#FFFFFF" d="M1136.27,566.37h-35.17c-0.81,0-1.21-0.4-1.21-1.21s0.4-1.21,1.21-1.21h35.17c0.81,0,1.21,0.4,1.21,1.21
		C1137.48,565.56,1137.08,566.37,1136.27,566.37z"/>
	<path fill-rule="evenodd" clip-rule="evenodd" fill="#FFFFFF" d="M1000.45,522.31c4.04,0,7.28-3.23,7.28-7.28
		c0-4.04-3.23-7.28-7.28-7.28c-4.04,0-7.28,3.23-7.28,7.28C993.17,519.07,996.41,522.31,1000.45,522.31z"/>
	<rect x="1053" y="508.16" fill-rule="evenodd" clip-rule="evenodd" fill="#FFFFFF" width="13.34" height="13.34"/>
	<polygon fill-rule="evenodd" clip-rule="evenodd" fill="#FFFFFF" points="1118.89,508.56 1122.53,515.03 1126.17,521.1 
		1118.89,521.1 1111.61,521.1 1115.25,515.03 	"/>
</g>
<g>
	<g>
		<path fill-rule="evenodd" clip-rule="evenodd" fill="#B6E9FF" d="M147.11,451.16h214.65c2.83,0,5.26,2.43,5.26,5.26v176.25
			c0,2.83-2.43,5.26-5.26,5.26H147.11c-2.83,0-5.26-2.43-5.26-5.26V456.01C142.26,453.18,144.28,451.16,147.11,451.16z"/>
		<path fill-rule="evenodd" clip-rule="evenodd" fill="#6D9ADE" d="M147.11,451.16h214.65c2.83,0,5.26,2.43,5.26,5.26v33.55H142.26
			v-33.55C142.26,453.18,144.28,451.16,147.11,451.16z"/>
		<rect x="188.34" y="527.16" fill-rule="evenodd" clip-rule="evenodd" fill="#6D9ADE" width="18.59" height="82.87"/>
		<rect x="217.85" y="554.65" fill-rule="evenodd" clip-rule="evenodd" fill="#6D9ADE" width="18.59" height="55.38"/>
		<rect x="249.78" y="584.96" fill-rule="evenodd" clip-rule="evenodd" fill="#93BCFA" width="18.59" height="25.06"/>
		<rect x="280.51" y="539.29" fill-rule="evenodd" clip-rule="evenodd" fill="#6D9ADE" width="18.59" height="70.34"/>
		<rect x="310.82" y="580.92" fill-rule="evenodd" clip-rule="evenodd" fill="#93BCFA" width="18.59" height="28.7"/>
		<path fill-rule="evenodd" clip-rule="evenodd" fill="#FFFFFF" d="M204.51,509.37c2.43,0,4.45-2.02,4.45-4.45
			c0-2.43-2.02-4.45-4.45-4.45s-4.45,2.02-4.45,4.45C200.06,507.35,202.09,509.37,204.51,509.37z"/>
		<path fill-rule="evenodd" clip-rule="evenodd" fill="#FFFFFF" d="M240.49,509.37c2.43,0,4.45-2.02,4.45-4.45
			c0-2.43-2.02-4.45-4.45-4.45s-4.45,2.02-4.45,4.45C236.04,507.35,238.06,509.37,240.49,509.37z"/>
		<path fill-rule="evenodd" clip-rule="evenodd" fill="#FFFFFF" d="M276.87,509.37c2.43,0,4.45-2.02,4.45-4.45
			c0-2.43-2.02-4.45-4.45-4.45c-2.43,0-4.45,2.02-4.45,4.45C272.42,507.35,274.44,509.37,276.87,509.37z"/>
		<path fill-rule="evenodd" clip-rule="evenodd" fill="#FFFFFF" d="M312.85,509.37c2.43,0,4.45-2.02,4.45-4.45
			c0-2.43-2.02-4.45-4.45-4.45c-2.43,0-4.45,2.02-4.45,4.45C308.4,507.35,310.42,509.37,312.85,509.37z"/>
		<path fill="#6D9ADE" d="M232,506.14h-19c-0.81,0-1.21-0.4-1.21-1.21s0.4-1.21,1.21-1.21h19c0.81,0,1.21,0.4,1.21,1.21
			C233.21,505.73,232.81,506.14,232,506.14z"/>
		<path fill="#6D9ADE" d="M267.98,506.14h-19c-0.81,0-1.21-0.4-1.21-1.21s0.4-1.21,1.21-1.21h19c0.81,0,1.21,0.4,1.21,1.21
			C269.19,505.73,268.78,506.14,267.98,506.14z"/>
		<path fill="#6D9ADE" d="M303.95,506.14h-19c-0.81,0-1.21-0.4-1.21-1.21s0.4-1.21,1.21-1.21h19c0.81,0,1.21,0.4,1.21,1.21
			C305.16,505.73,304.36,506.14,303.95,506.14z"/>
		<path fill="#6D9ADE" d="M340.33,506.14h-19c-0.81,0-1.21-0.4-1.21-1.21s0.4-1.21,1.21-1.21h19c0.81,0,1.21,0.4,1.21,1.21
			C341.55,505.73,341.14,506.14,340.33,506.14z"/>
		<path fill="#6D9ADE" d="M196.83,506.14h-19c-0.81,0-1.21-0.4-1.21-1.21s0.4-1.21,1.21-1.21h19c0.81,0,1.21,0.4,1.21,1.21
			C198.04,505.73,197.23,506.14,196.83,506.14z"/>
		<path fill="#6D9ADE" d="M166.51,529.18h-7.28c-0.81,0-1.21-0.4-1.21-1.21s0.4-1.21,1.21-1.21h7.28c0.81,0,1.21,0.4,1.21,1.21
			C167.73,528.37,166.92,529.18,166.51,529.18z"/>
		<path fill="#6D9ADE" d="M166.51,546.97h-7.28c-0.81,0-1.21-0.4-1.21-1.21c0-0.81,0.4-1.21,1.21-1.21h7.28
			c0.81,0,1.21,0.4,1.21,1.21C167.73,546.16,166.92,546.97,166.51,546.97z"/>
		<path fill="#6D9ADE" d="M166.51,563.94h-7.28c-0.81,0-1.21-0.4-1.21-1.21s0.4-1.21,1.21-1.21h7.28c0.81,0,1.21,0.4,1.21,1.21
			S166.92,563.94,166.51,563.94z"/>
		<path fill="#6D9ADE" d="M166.51,580.92h-7.28c-0.81,0-1.21-0.4-1.21-1.21s0.4-1.21,1.21-1.21h7.28c0.81,0,1.21,0.4,1.21,1.21
			C167.73,580.11,166.92,580.92,166.51,580.92z"/>
		<path fill="#6D9ADE" d="M166.51,598.3h-7.28c-0.81,0-1.21-0.4-1.21-1.21c0-0.81,0.4-1.21,1.21-1.21h7.28
			c0.81,0,1.21,0.4,1.21,1.21C167.73,597.9,166.92,598.3,166.51,598.3z"/>
		<rect x="188.34" y="527.16" fill-rule="evenodd" clip-rule="evenodd" fill="#6D9ADE" width="18.59" height="19.4"/>
		<rect x="188.34" y="546.56" fill-rule="evenodd" clip-rule="evenodd" fill="#66C2FF" width="18.59" height="9.7"/>
		<rect x="188.34" y="587.79" fill-rule="evenodd" clip-rule="evenodd" fill="#93BCFA" width="18.59" height="21.83"/>
		<rect x="217.85" y="554.65" fill-rule="evenodd" clip-rule="evenodd" fill="#93BCFA" width="18.59" height="18.19"/>
		<rect x="280.51" y="539.29" fill-rule="evenodd" clip-rule="evenodd" fill="#66C2FF" width="18.59" height="15.77"/>
		<rect x="249.78" y="584.96" fill-rule="evenodd" clip-rule="evenodd" fill="#6D9ADE" width="18.59" height="7.68"/>
		<rect x="249.78" y="592.65" fill-rule="evenodd" clip-rule="evenodd" fill="#66C2FF" width="18.59" height="6.06"/>
		<path fill="#6D9ADE" d="M340.33,611.24h-162.5c-0.81,0-1.21-0.4-1.21-1.21s0.4-1.21,1.21-1.21h162.5c0.81,0,1.21,0.4,1.21,1.21
			C341.55,610.43,341.14,611.24,340.33,611.24z"/>
		<path fill="#6D9ADE" d="M204.11,620.13h-13.34c-0.81,0-1.21-0.4-1.21-1.21c0-0.81,0.4-1.21,1.21-1.21h13.34
			c0.81,0,1.21,0.4,1.21,1.21C205.32,619.73,204.91,620.13,204.11,620.13z"/>
		<path fill="#6D9ADE" d="M234.02,620.13h-13.34c-0.81,0-1.21-0.4-1.21-1.21c0-0.81,0.4-1.21,1.21-1.21h13.34
			c0.81,0,1.21,0.4,1.21,1.21C235.23,619.73,234.83,620.13,234.02,620.13z"/>
		<path fill="#6D9ADE" d="M265.55,620.13h-13.34c-0.81,0-1.21-0.4-1.21-1.21c0-0.81,0.4-1.21,1.21-1.21h13.34
			c0.81,0,1.21,0.4,1.21,1.21C266.76,619.73,266.36,620.13,265.55,620.13z"/>
		<path fill="#6D9ADE" d="M296.68,620.13h-13.34c-0.81,0-1.21-0.4-1.21-1.21c0-0.81,0.4-1.21,1.21-1.21h13.34
			c0.81,0,1.21,0.4,1.21,1.21C297.89,619.73,297.48,620.13,296.68,620.13z"/>
		<path fill="#6D9ADE" d="M326.99,620.13h-13.34c-0.81,0-1.21-0.4-1.21-1.21c0-0.81,0.4-1.21,1.21-1.21h13.34
			c0.81,0,1.21,0.4,1.21,1.21C328.21,619.73,327.4,620.13,326.99,620.13z"/>
	</g>
	<path fill-rule="evenodd" clip-rule="evenodd" fill="#93BCFA" d="M352.46,479.86H337.1c-0.81,0-1.21-0.81-1.21-1.21v-15.77
		c0-0.81,0.81-1.21,1.21-1.21h15.36c0.81,0,1.21,0.81,1.21,1.21v15.36C353.67,479.06,353.27,479.86,352.46,479.86z"/>
</g>
<g>
	<path fill="#6D9ADE" d="M974.58,343.64c-1.21,0-2.02-0.81-2.02-2.02v-10.51c0-1.21,0.81-2.02,2.02-2.02s2.02,0.81,2.02,2.02v10.51
		C976.6,342.83,975.79,343.64,974.58,343.64z"/>
	<path fill="#6D9ADE" d="M974.58,362.23c-1.21,0-2.02-0.81-2.02-2.02V350.1c0-1.21,0.81-2.02,2.02-2.02s2.02,0.81,2.02,2.02v10.11
		C976.6,361.42,975.79,362.23,974.58,362.23z"/>
	<path fill="#6D9ADE" d="M987.11,347.27h-8.89c-1.21,0-2.02-0.81-2.02-2.02c0-1.21,0.81-2.02,2.02-2.02h8.89
		c1.21,0,2.02,0.81,2.02,2.02C989.13,346.47,988.32,347.27,987.11,347.27z"/>
	<path fill="#6D9ADE" d="M970.54,347.27h-7.28c-1.21,0-2.02-0.81-2.02-2.02c0-1.21,0.81-2.02,2.02-2.02h7.28
		c1.21,0,2.02,0.81,2.02,2.02C972.56,346.47,971.34,347.27,970.54,347.27z"/>
</g>
<path fill-rule="evenodd" clip-rule="evenodd" fill="#FE6941" d="M523.05,477.44l11.32,6.47c6.47-10.91,22.64-32.74,30.72-43.25
	c13.74-16.98,35.17-50.53,49.72-63.46c4.45,1.62,18.59,15.77,21.83,15.36c0.4,0,0,0,80.85-88.93c4.85,5.26,6.47,8.49,9.7,10.51
	c2.43,1.62,2.43-0.81,3.23-2.83c2.43-6.87,10.51-33.15,9.3-40.83c-0.4-2.02-1.62-2.43-3.23-2.43c-3.64,0-38.4,10.91-40.42,12.13
	c-2.83,1.62-0.81,3.64,3.64,8.49c3.23,3.23,4.85,4.85,5.26,6.06c0,0.4-70.74,80.44-70.74,80.44c-4.85-2.43-14.96-15.36-20.21-15.36
	c-2.02,0-3.64,1.62-6.47,4.85C578.83,400.63,550.13,439.04,523.05,477.44z"/>
<path fill="#151D6B" d="M750.23,544.95h-28.3c-0.81,0-1.21-0.81-1.21-1.21V329.89c0-0.81,0.81-1.21,1.21-1.21h28.3
	c0.81,0,1.21,0.81,1.21,1.21v213.84C751.44,544.14,751.04,544.95,750.23,544.95z M723.14,542.12h25.47V331.51h-25.47V542.12z"/>
<path fill="#151D6B" d="M503.64,567.99c-0.81,0-1.21-0.4-1.21-1.21v-286.6c0-0.81,0.4-1.21,1.21-1.21c0.81,0,1.21,0.4,1.21,1.21
	v286.6C504.86,567.18,504.45,567.99,503.64,567.99z"/>
<path fill="#151D6B" d="M721.93,544.95h-28.3c-0.81,0-1.21-0.81-1.21-1.21V357.78c0-0.81,0.81-1.21,1.21-1.21h28.3
	c0.81,0,1.21,0.81,1.21,1.21v185.95C723.14,544.14,722.34,544.95,721.93,544.95z M694.85,542.12h25.47V359.4h-25.47V542.12z"/>
<path fill="#151D6B" d="M693.63,544.95h-28.3c-0.81,0-1.21-0.81-1.21-1.21V392.14c0-0.81,0.81-1.21,1.21-1.21h28.3
	c0.81,0,1.21,0.81,1.21,1.21v151.59C694.85,544.14,694.04,544.95,693.63,544.95z M666.55,542.12h25.47V393.36h-25.47V542.12z"/>
<path fill="#151D6B" d="M665.34,544.95h-28.3c-0.81,0-1.21-0.81-1.21-1.21V429.74c0-0.81,0.81-1.21,1.21-1.21h28.3
	c0.81,0,1.21,0.81,1.21,1.21v113.59C666.55,544.14,665.74,544.95,665.34,544.95z M638.25,542.12h25.47V430.95h-25.47V542.12z"/>
<path fill="#151D6B" d="M636.64,544.95h-28.3c-0.81,0-1.21-0.81-1.21-1.21V415.19c0-0.81,0.81-1.21,1.21-1.21h28.3
	c0.81,0,1.21,0.81,1.21,1.21v128.14C638.25,544.14,637.45,544.95,636.64,544.95z M609.96,542.12h25.47V416.8h-25.47V542.12z"/>
<path fill="#151D6B" d="M608.34,544.95h-28.3c-0.81,0-1.21-0.81-1.21-1.21v-90.95c0-0.81,0.81-1.21,1.21-1.21h28.3
	c0.81,0,1.21,0.81,1.21,1.21v90.95C609.96,544.14,609.15,544.95,608.34,544.95z M581.66,542.12h25.47V454.4h-25.47V542.12z"/>
<path fill="#151D6B" d="M580.04,544.95h-28.3c-0.81,0-1.21-0.81-1.21-1.21v-54.98c0-0.81,0.81-1.21,1.21-1.21h28.3
	c0.81,0,1.21,0.81,1.21,1.21v54.98C581.66,544.14,580.85,544.95,580.04,544.95z M553.36,542.12h25.47v-52.15h-25.47V542.12z"/>
<path fill="#151D6B" d="M551.75,544.95h-28.3c-0.81,0-1.21-0.81-1.21-1.21v-36.38c0-0.81,0.81-1.21,1.21-1.21h28.3
	c0.81,0,1.21,0.81,1.21,1.21v36.38C553.36,544.14,552.56,544.95,551.75,544.95z M525.07,542.12h25.47v-33.55h-25.47V542.12z"/>
<path fill="#31277E" d="M513.35,300.38c-0.4,0-0.81-0.4-1.21-0.81l-9.7-19c-0.4-0.4,0-1.21,0.4-1.62c0.4-0.4,1.21,0,1.62,0.4l9.7,19
	c0.4,0.4,0,1.21-0.4,1.62C513.75,299.98,513.75,300.38,513.35,300.38z"/>
<path fill="#31277E" d="M493.94,300.38h-0.4c-0.4-0.4-0.81-0.81-0.4-1.62l9.7-19c0.4-0.4,0.81-0.81,1.62-0.4
	c0.4,0.4,0.81,0.81,0.4,1.62l-9.7,19C494.75,299.98,494.35,300.38,493.94,300.38z"/>
<path fill-rule="evenodd" clip-rule="evenodd" fill="#2C488E" d="M352.46,1009.41c-2.02,1.21-6.87,15.77-6.47,18.19
	c0.4,1.62,59.83,32.74,65.08,34.36c4.85,0.81,4.85-2.83,0.81-6.47c-9.3-7.28-21.83-22.64-31.53-39.21h-0.4l1.62-3.64
	c-9.7-3.64-18.59-5.66-27.49-8.89C353.67,1006.18,352.86,1007.79,352.46,1009.41z"/>
<path fill-rule="evenodd" clip-rule="evenodd" fill="#4D8FEF" d="M317.29,577.69c10.11,6.87,27.08,18.59,33.96,19.81l-0.4,1.21
	c1.62-0.81,3.64-4.45,4.85-6.06c1.21-2.02,3.64-5.26,4.04-7.28l0.81-0.4c1.62-2.02,6.06-2.43,7.68-4.45
	c1.62-4.04-2.43-3.64-3.23-8.49c-0.4-2.83-0.81-5.26-1.62-8.08c-33.96-110.76,19.81-30.72-18.59-94.59
	c-24.25,3.64-3.23-4.45-24.25,2.43c-6.87,18.59-31.13,64.68-26.68,81.66C297.08,563.94,308.4,571.62,317.29,577.69z"/>
<linearGradient id="SVGID_1_" gradientUnits="userSpaceOnUse" x1="390.7854" y1="3342.4226" x2="390.7854" y2="3430.9751" gradientTransform="matrix(1 0 0 1 0 -3040)">
	<stop  offset="0" style="stop-color:#E5918E"/>
	<stop  offset="0.0399" style="stop-color:#E69490"/>
	<stop  offset="0.3791" style="stop-color:#EBA7A2"/>
	<stop  offset="0.7048" style="stop-color:#EEB1AC"/>
	<stop  offset="1" style="stop-color:#EFB5B0"/>
</linearGradient>
<path fill-rule="evenodd" clip-rule="evenodd" fill="url(#SVGID_1_)" d="M395.31,329.49c-4.04-0.4-8.89,0.4-11.32,2.43
	c-2.43,2.02-6.06,1.62-8.08,3.64c-2.83,0-18.59-2.43-21.83,4.04c-0.4,1.21,33.96,65.49,33.96,72.36c4.45-0.4,6.06-0.4,10.91,0.4
	c-2.83-6.47-3.23-3.23-3.23-10.11c0-4.45,0-9.3,0-13.74c10.11,0.4,18.59-5.66,22.23-22.23c0.81-3.64,0.4-4.04,3.23-5.66l3.64-2.43
	c2.02-1.62,3.23-3.23,2.43-4.85c-1.21-4.45-5.66-14.96-7.28-21.02c-0.4-2.02-0.81-6.87-0.81-8.89l-5.26,2.83l-9.7,2.02
	L395.31,329.49z"/>
<rect x="449.11" y="430.19" transform="matrix(0.94 -0.3413 0.3413 0.94 -155.0475 186.4346)" fill-rule="evenodd" clip-rule="evenodd" fill="#00010B" width="6.47" height="207.38"/>
<path fill-rule="evenodd" clip-rule="evenodd" fill="#EFB5B0" d="M590.15,561.52c6.87,2.43,19.4,6.47,25.47,9.7
	c2.83,1.62,17.38,10.11,21.83,10.91c4.85,1.21,6.47-3.64,5.66-4.45c3.64,1.62,9.7-2.02,8.08-6.47c6.06,0.81,7.68-5.66,6.47-7.28
	c0.4,0.4,9.3-2.02,3.23-9.3c-4.85-6.06-17.79-12.13-20.62-13.74c-6.06-3.23-10.91-10.51-17.38-9.3c-2.43,0.4-13.34,2.83-16.57,3.23
	c-2.83,0.4-18.59-2.02-19-0.81C586.11,540.9,589.75,561.52,590.15,561.52z"/>
<linearGradient id="SVGID_2_" gradientUnits="userSpaceOnUse" x1="244.9851" y1="3463.8484" x2="550.1911" y2="3611.6377" gradientTransform="matrix(1 0 0 1 0 -3040)">
	<stop  offset="0" style="stop-color:#7FAFFD"/>
	<stop  offset="0.3251" style="stop-color:#7CADFC"/>
	<stop  offset="0.5987" style="stop-color:#72A7F9"/>
	<stop  offset="0.8067" style="stop-color:#629CF5"/>
	<stop  offset="1" style="stop-color:#4D8FEF"/>
</linearGradient>
<path fill-rule="evenodd" clip-rule="evenodd" fill="url(#SVGID_2_)" d="M548.92,567.18c19.4,1.21,17.79-3.64,25.06-3.23
	c5.26,0.4,10.91,0.81,16.17,0.4c2.83-8.08,4.45-17.38,3.64-26.68l-0.81-4.85c-1.21-1.62-0.4-1.21-2.43-1.62
	c-10.11-3.23-10.91-1.21-21.02-8.49c-6.06-4.04-11.72-13.34-18.59-19.4c-10.51-9.3-26.28-11.32-40.02-11.32
	c-6.87,0-14.96-0.4-21.42-2.43c-24.25-7.28-43.66-33.55-59.42-51.34c-10.91-11.72-16.57-18.59-21.02-22.64
	c-4.85-4.04-12.94-6.47-22.64-6.06c0,3.64,6.47,23.45-9.7,40.02c-9.7,9.7-30.72,18.19-31.93,19.4c0.81,35.57,9.7,62.66,19.81,98.63
	c5.26,12.13,52.55,15.36,63.46,9.3c0.81-0.81,0.4-1.62,1.21-3.23c0.81-1.21,1.21-2.43,2.02-3.23c4.85-8.89,9.7-18.19,10.11-28.3
	c5.66-1.21,21.02,4.85,25.47,7.68c9.3,5.66,16.17,14.55,25.47,20.62c8.08,5.26,14.55,6.06,21.42,5.66
	C530.32,576.07,538,566.77,548.92,567.18z"/>
<rect x="203.4" y="509.86" transform="matrix(0.3413 -0.94 0.94 0.3413 -266.8224 645.4417)" fill-rule="evenodd" clip-rule="evenodd" fill="#00010B" width="247.4" height="6.47"/>
<linearGradient id="SVGID_3_" gradientUnits="userSpaceOnUse" x1="353.6033" y1="3511.4541" x2="353.6033" y2="3307.4248" gradientTransform="matrix(1 0 0 1 0 -3040)">
	<stop  offset="0" style="stop-color:#664B3E"/>
	<stop  offset="0.367" style="stop-color:#5F4539"/>
	<stop  offset="0.9986" style="stop-color:#4C362C"/>
	<stop  offset="1" style="stop-color:#4C352C"/>
</linearGradient>
<path fill-rule="evenodd" clip-rule="evenodd" fill="url(#SVGID_3_)" d="M278.08,437.01c6.06,21.02,18.59,30.32,34.76,33.55
	c20.62,4.04,52.95-2.83,67.51-17.79c4.85-5.26,7.68-10.11,8.89-14.96c2.83-9.7-5.26-62.25-14.55-76.4
	c-5.66-8.49-12.53-12.94-8.49-20.62c3.23-6.87,9.3,0.4,12.53,0.81c2.02-2.02,2.43-6.87,5.26-8.89c2.43-2.02,6.87-2.83,11.32-2.43
	l9.3-0.81l9.7-2.02l5.26-2.83c4.04-2.83,7.28-5.66,9.3-10.11c2.02-4.85,3.23-10.91,0.4-16.17c-2.83-5.26-7.28-4.45-11.72-7.68
	c-3.23-2.43-5.26-7.28-8.89-11.32c-2.83-3.23-7.28-6.47-10.91-8.49c-4.45-2.02-10.51-4.04-16.17-2.83
	c-7.68,1.21-12.94,7.28-16.57,13.34c-1.21,2.43-2.43,4.04-3.64,6.06c-2.02-0.4-2.83-1.21-5.26-1.62c-2.43,0-4.85,0-6.47,0.4
	c-16.17,4.04-28.7,25.06-26.28,42.44c1.62,11.32,10.51,24.66-1.62,38C302.74,388.51,267.98,400.23,278.08,437.01z"/>
<rect x="803.59" y="1010.62" fill-rule="evenodd" clip-rule="evenodd" fill="#82B1F4" width="35.57" height="31.13"/>
<linearGradient id="SVGID_4_" gradientUnits="userSpaceOnUse" x1="802.9405" y1="3938.4861" x2="825.5469" y2="3786.8606" gradientTransform="matrix(1 0 0 1 0 -3040)">
	<stop  offset="0" style="stop-color:#664B3E"/>
	<stop  offset="0.367" style="stop-color:#5F4539"/>
	<stop  offset="0.9986" style="stop-color:#4C362C"/>
	<stop  offset="1" style="stop-color:#4C352C"/>
</linearGradient>
<path fill-rule="evenodd" clip-rule="evenodd" fill="url(#SVGID_4_)" d="M803.59,1023.96h35.17c1.62,0.4,2.02-2.02,2.02-5.26
	c1.62-44.47-1.62-93.38-1.62-138.65c0-5.66-3.23-57-0.81-62.25c12.53-26.28,26.28-64.27,38.4-90.55
	c-1.21-13.74,35.57-109.55-16.98-103.48c-0.4,0-20.62-2.02-21.83-0.4c-2.83,3.23-8.49,12.94-12.53,14.55
	c-10.11,4.45-4.85,11.72-10.51,30.32c-10.51,18.59-49.72,107.93-51.74,121.27c-1.21,8.89-0.81,17.38,0.4,25.87
	c3.23,22.64,20.21,164.93,33.55,201.31C799.14,1021.54,801.57,1024.37,803.59,1023.96z"/>
<path fill-rule="evenodd" clip-rule="evenodd" fill="#664B3E" d="M886.45,766.06c11.72,0.81,33.15,0.4,45.27-0.4
	c0.81-5.26,8.08-14.96,10.51-19c3.23-4.85,4.45-10.11,11.32-12.13c0-8.89,2.83-19.81,2.43-26.68c-4.45-1.21-2.83-4.04-3.23-8.89
	c-0.4-4.85-1.62-8.08,3.23-8.49v-1.21c-2.43-1.62-2.02-7.28-2.02-10.51c-0.4-4.04,0-8.49-0.4-11.72c-6.87-0.4-11.32-1.21-17.38-3.23
	c-4.85-1.62-8.49-5.66-11.72-8.49c-3.23-2.83-5.66-8.08-6.87-13.34c-1.21-5.26-1.21-12.94-2.83-16.98v2.43
	c-8.08-1.62-37.59-4.04-43.66-2.02l0.4-2.43c-1.21,4.45-3.23,22.64-3.64,27.49c-1.21,9.7,2.43,49.32,10.11,79.63
	C882.01,749.89,886.45,766.06,886.45,766.06z"/>
<path fill-rule="evenodd" clip-rule="evenodd" fill="#FFFFFF" d="M909.5,370.32c-22.64,23.45-24.25,5.26-33.96,0
	c-13.74,8.08-18.19,10.11-31.53,14.15c4.85,35.17,20.62,202.12,12.94,252.24c10.51-0.4,10.51,0.81,55.38,2.02l-0.4-4.85
	c-7.28-40.83,8.08-205.76,27.08-251.84C929.3,379.61,918.39,374.36,909.5,370.32z"/>
<g>
	<g>
		<g>
			<g>
				<g>
					<defs>
						<path id="SVGID_5_" d="M909.5,370.32c-22.64,23.45-24.25,5.26-33.96,0c-13.74,8.08-18.19,10.11-31.53,14.15
							c4.85,35.17,20.62,202.12,12.94,252.24c10.51-0.4,10.51,0.81,55.38,2.02l-0.4-4.85c-7.28-40.83,8.08-205.76,27.08-251.84
							C929.3,379.61,918.39,374.36,909.5,370.32z"/>
					</defs>
					<clipPath id="SVGID_6_">
						<use xlink:href="#SVGID_5_"  overflow="visible"/>
					</clipPath>
					<g clip-path="url(#SVGID_6_)">
						<path fill="#31277F" d="M901.82,424.48c-0.4,0-1.21,0-3.64-3.64c-0.4-0.4,0-1.21,0.4-1.62c0.4-0.4,1.21,0,1.62,0.4
							c0.4,0.81,1.21,1.62,1.62,2.02c6.47-9.7,21.42-33.15,27.08-43.25c0.4-0.4,0.81-0.81,1.62-0.4c0.4,0.4,0.81,0.81,0.4,1.62
							c-6.06,10.51-21.83,35.57-27.89,44.06C902.62,424.08,902.22,424.48,901.82,424.48L901.82,424.48z M901.01,422.87
							L901.01,422.87L901.01,422.87z"/>
						<path fill="#31277F" d="M877.97,424.08C877.97,424.08,877.56,424.08,877.97,424.08c-0.4,0-0.81-0.4-1.21-0.81
							c-4.45-8.49-16.17-32.74-19-44.06c0-0.4,0-1.21,0.81-1.21c0.4,0,1.21,0,1.21,0.81c2.83,10.51,14.15,33.55,18.59,42.85
							c0.81-0.4,1.62-1.21,2.43-2.02c0.4-0.4,1.21-0.4,1.62,0s0.4,1.21,0,1.62C879.18,423.67,878.37,424.08,877.97,424.08z"/>
					</g>
				</g>
			</g>
		</g>
	</g>
</g>
<rect x="911.11" y="1019.11" fill-rule="evenodd" clip-rule="evenodd" fill="#82B1F4" width="35.57" height="31.13"/>
<path fill-rule="evenodd" clip-rule="evenodd" fill="#664B3E" d="M911.11,1030.03c10.91,2.02,23.85,0.81,35.17,2.02
	c1.21,0,2.43-0.4,3.23-0.81c6.06-4.85,4.85-105.91,5.66-120.46l-41.23-0.4c-2.02,0.81-5.26,0.4-7.68,0.4
	c-5.26-0.4-6.47-0.4-8.08,0.4C898.58,918.86,904.24,1025.58,911.11,1030.03z"/>
<linearGradient id="SVGID_7_" gradientUnits="userSpaceOnUse" x1="385.874" y1="3883.7217" x2="477.0547" y2="3943.9761" gradientTransform="matrix(1 0 0 1 0 -3040)">
	<stop  offset="0" style="stop-color:#E5918E"/>
	<stop  offset="0.3659" style="stop-color:#E89C98"/>
	<stop  offset="1" style="stop-color:#EFB5B0"/>
</linearGradient>
<path fill-rule="evenodd" clip-rule="evenodd" fill="url(#SVGID_7_)" d="M359.33,787.49c0,44.47,3.64,89.34,4.85,133.8
	c1.21,40.02,5.66,83.68,5.66,123.29c8.49,0.4,11.72-31.53,11.72-31.53l80.85-191.2c2.02-6.47-15.36-140.27-12.94-147.55
	C443.41,672.68,379.54,789.1,359.33,787.49z"/>
<path fill-rule="evenodd" clip-rule="evenodd" fill="#EFB5B0" d="M344.78,787.49c0,44.47,3.64,89.34,4.85,133.8
	c1.21,40.02,5.66,83.68,5.66,123.29c8.49,0.4,20.21-0.81,28.7-1.62c0,0,11.72-106.31,43.66-368.66
	C421.58,672.68,364.99,789.1,344.78,787.49z"/>
<path fill-rule="evenodd" clip-rule="evenodd" d="M895.75,423.67c0-5.66,0.4-2.83,2.43-6.06c0-2.83-3.23-10.91-4.85-12.94
	c-3.64-5.66-9.7,8.08-10.91,11.32c-1.62,4.45,1.62,2.43,1.62,6.06l-5.26,82.06c-0.81,12.94-4.45,69.93-4.45,71.55
	c-0.4,2.02,4.45,13.34,9.3,14.15c3.23,0.4,8.89-9.3,9.3-12.94c0.4-10.91,0.81-84.49,1.62-116.82
	C895.35,447.93,895.35,435.8,895.75,423.67z"/>
<path fill-rule="evenodd" clip-rule="evenodd" d="M911.52,1038.11c-2.02,0.81-52.95,15.36-64.27,20.62
	c-2.02,0.81-2.43,0.81-2.83,2.83c0,4.04,10.91,3.23,14.15,3.23c85.7,0-2.43,0,83.68,0c8.08-1.62,6.87-12.13,6.06-19.4
	c-0.4-1.62-0.4-2.83-0.81-3.23C947.09,1042.15,913.54,1038.11,911.52,1038.11z"/>
<path fill-rule="evenodd" clip-rule="evenodd" fill="#8BB3D8" d="M995.19,734.13c-2.02,1.62-0.81,2.83-1.21,6.06
	c-0.4,2.43-1.21,3.64-0.81,6.06c4.04,2.43,6.87,6.47,8.89,10.91c0.4,1.21,2.43,6.06,2.43,7.68c0,2.43-1.62,0-6.06,1.21
	c12.94,0.4,42.04-4.85,19.4,0.4C1016.62,760,1011.36,736.55,995.19,734.13z"/>
<path fill-rule="evenodd" clip-rule="evenodd" fill="#EFB5B0" d="M953.15,734.13c3.64,0.81,6.06,6.47,4.85,10.91l0.4,0.81
	c4.85,7.28,7.68,4.85,11.32,2.02c2.83,4.45,8.08,3.64,10.91-0.4c1.21,0.81,6.06,6.87,10.51,2.02c6.06-6.47,3.64-26.68,4.04-36.79
	c-13.74-1.62-25.47-4.45-40.02-5.66C955.98,714.32,952.75,725.23,953.15,734.13z"/>
<path fill-rule="evenodd" clip-rule="evenodd" fill="#2C488E" d="M355.29,1042.56c-1.62,2.02-2.43,15.77-1.21,17.79
	c0.81,1.62,2.83,2.43,6.47,2.43c25.06,0,49.72-0.4,74.78,0c4.85-0.81,2.83-5.66-2.02-7.68c-11.32-4.04-38.4-11.72-49.32-14.15
	C375.91,1041.75,363.78,1042.56,355.29,1042.56z"/>
<path fill-rule="evenodd" clip-rule="evenodd" fill="#EFB5B0" d="M664.53,557.07c0.4,0,0.4-2.02,0.4-3.23
	c0.81-5.26,5.26-31.53-0.4-33.15c-0.4,0-6.87,6.06-10.91,6.87c-5.66,0.81-12.94-0.81-18.59-0.81c-3.64,0-4.04,0-6.47,2.43
	c-2.02,2.02-17.38,14.55-9.7,18.19c0.81,0.4,2.43,0.4,4.45-0.81c2.02-1.21,11.32-9.3,12.53-8.89
	C636.64,538.48,664.53,556.67,664.53,557.07z"/>
<linearGradient id="SVGID_8_" gradientUnits="userSpaceOnUse" x1="763.2056" y1="3434.0347" x2="763.2056" y2="3559.9297" gradientTransform="matrix(1 0 0 1 0 -3040)">
	<stop  offset="0" style="stop-color:#466AA2"/>
	<stop  offset="0.1056" style="stop-color:#42639C"/>
	<stop  offset="0.4678" style="stop-color:#36528E"/>
	<stop  offset="0.7786" style="stop-color:#2E498A"/>
	<stop  offset="1" style="stop-color:#2B4589"/>
</linearGradient>
<path fill-rule="evenodd" clip-rule="evenodd" fill="url(#SVGID_8_)" d="M797.93,407.51c-9.7,12.94-25.47,38.4-29.91,45.27
	c-5.66,8.89-17.79,27.08-25.06,34.76c-32.34,32.74-74.38,21.02-81.25,27.08c-2.83,1.62,0.4,38,1.21,45.68
	c0.4,6.87,0.4,8.08,6.87,9.7c18.59,7.68,20.21,8.89,40.02,0.81c3.23-1.21,8.08-1.21,12.13-1.62c13.74-0.4,20.21-0.4,27.08-2.43
	c17.38-5.26,52.95-30.32,57-47.7c1.21,1.62,0.4,7.68,0.4,10.11c-0.81,35.57-1.21,71.15-1.62,106.72c0,13.34-1.21,29.91,11.72,32.74
	c28.7,6.06,38.81-5.26,42.04-33.55c4.04-34.36,4.85-67.1,6.06-101.06c0.81-18.59,2.83-37.59-1.21-55.78
	c-6.06-25.06-10.11-52.55-14.96-78.02c-0.81-4.04-1.21-7.28-2.02-11.32c-1.21-5.66-4.04-6.87-10.11-4.85
	C822.18,388.91,807.22,395.38,797.93,407.51z"/>
<g>
	<g>
		<g>
			<g>
				<g>
					<defs>
						<path id="SVGID_9_" d="M797.93,407.51c-9.7,12.94-25.47,38.4-29.91,45.27c-5.66,8.89-17.79,27.08-25.06,34.76
							c-32.34,32.74-74.38,21.02-81.25,27.08c-2.83,1.62,0.4,38,1.21,45.68c0.4,6.87,0.4,8.08,6.87,9.7
							c18.59,7.68,20.21,8.89,40.02,0.81c3.23-1.21,8.08-1.21,12.13-1.62c13.74-0.4,20.21-0.4,27.08-2.43
							c17.38-5.26,52.95-30.32,57-47.7c1.21,1.62,0.4,7.68,0.4,10.11c-0.81,35.57-1.21,71.15-1.62,106.72
							c0,13.34-1.21,29.91,11.72,32.74c28.7,6.06,38.81-5.26,42.04-33.55c4.04-34.36,4.85-67.1,6.06-101.06
							c0.81-18.59,2.83-37.59-1.21-55.78c-6.06-25.06-10.11-52.55-14.96-78.02c-0.81-4.04-1.21-7.28-2.02-11.32
							c-1.21-5.66-4.04-6.87-10.11-4.85C822.18,388.91,807.22,395.38,797.93,407.51z"/>
					</defs>
					<clipPath id="SVGID_10_">
						<use xlink:href="#SVGID_9_"  overflow="visible"/>
					</clipPath>
					<g clip-path="url(#SVGID_10_)">
						<path fill="#151D6B" d="M865.84,510.99c-0.4,0-0.81-0.4-1.21-0.81c-4.04-7.68-8.89-19-14.15-30.72
							c-3.64-7.68-7.28-16.17-10.91-23.85c-1.62-3.64-3.64-7.28-5.26-10.91c-4.85-9.7-8.89-17.79-8.89-23.85
							c0-10.51,14.96-18.59,23.04-20.62c0.4,0,1.21,0.4,1.21,0.81c0,0.4-0.4,1.21-0.81,1.21c-7.68,2.02-21.02,9.7-21.02,18.59
							c0,5.66,4.45,14.15,8.89,23.04c1.62,3.64,3.64,7.28,5.26,10.91c3.64,7.68,7.28,16.17,10.91,23.85
							c5.26,11.72,10.11,22.64,14.15,30.72c0.4,0.4,0,1.21-0.4,1.62C866.24,510.99,866.24,510.99,865.84,510.99z"/>
						<path fill="#151D6B" d="M835.12,408.72c-0.4,0-0.81,0-0.81-0.4c-2.02-2.43-10.51-17.38-10.51-19.4c0-0.81,0.4-1.21,1.21-1.21
							s1.21,0.4,1.21,1.21c0.4,1.62,7.68,14.96,10.11,18.19c0.4,0.4,0.4,1.21-0.4,1.62C835.52,408.72,835.52,408.72,835.12,408.72z"
							/>
					</g>
				</g>
			</g>
		</g>
	</g>
</g>
<path fill-rule="evenodd" clip-rule="evenodd" fill="#8BB3D8" d="M931.73,765.66l13.34-0.4c4.04-9.7,4.45-15.36,12.94-19.81
	c1.62-2.83-0.81-10.11-4.85-10.91C940.62,738.17,933.35,753.53,931.73,765.66z"/>
<linearGradient id="SVGID_11_" gradientUnits="userSpaceOnUse" x1="955.9099" y1="3455.8594" x2="956.0129" y2="3559.4463" gradientTransform="matrix(1 0 0 1 0 -3040)">
	<stop  offset="0" style="stop-color:#354588"/>
	<stop  offset="0.4767" style="stop-color:#2B3E83"/>
	<stop  offset="1" style="stop-color:#1B327A"/>
</linearGradient>
<path fill-rule="evenodd" clip-rule="evenodd" fill="url(#SVGID_11_)" d="M922.43,666.22c7.28,6.47,21.02,4.04,30.32,4.85
	c0,0-0.4,12.94,0.81,19c0,0.4,34.76,4.85,42.85,4.45c2.83-2.02,2.43-2.83,2.83-6.87c0.4-10.11,1.21-19,2.83-29.1
	c7.28-44.06-4.04-42.04-2.83-69.53c2.02-45.27,12.53-89.34,7.28-135.42c-1.62-16.17-6.87-31.13-19-42.85
	c-10.91-10.51-27.89-23.85-42.85-28.3c-6.47-2.02-8.49-3.64-10.91,2.83c-9.7,26.68-25.87,101.06-27.49,113.19
	c-2.43,23.04-4.85,99.85,4.45,145.52C912.73,653.28,915.15,659.75,922.43,666.22z"/>
<g>
	<g>
		<g>
			<g>
				<g>
					<defs>
						<path id="SVGID_12_" d="M922.43,666.22c7.28,6.47,21.02,4.04,30.32,4.85c0,0-0.4,12.94,0.81,19c0,0.4,34.76,4.85,42.85,4.45
							c2.83-2.02,2.43-2.83,2.83-6.87c0.4-10.11,1.21-19,2.83-29.1c7.28-44.06-4.04-42.04-2.83-69.53
							c2.02-45.27,12.53-89.34,7.28-135.42c-1.62-16.17-6.87-31.13-19-42.85c-10.91-10.51-27.89-23.85-42.85-28.3
							c-6.47-2.02-8.49-3.64-10.91,2.83c-9.7,26.68-25.87,101.06-27.49,113.19c-2.43,23.04-4.85,99.85,4.45,145.52
							C912.73,653.28,915.15,659.75,922.43,666.22z"/>
					</defs>
					<clipPath id="SVGID_13_">
						<use xlink:href="#SVGID_12_"  overflow="visible"/>
					</clipPath>
					<g clip-path="url(#SVGID_13_)">
						<path fill="#151D6B" d="M905.45,513.01h-0.4c-0.4-0.4-0.81-0.81-0.4-1.62c6.47-12.94,19-36.79,29.51-56.59
							c1.62-3.23,3.23-6.06,4.85-8.89c5.66-10.11,10.51-19,10.51-25.47c0-8.49-13.74-16.57-21.42-18.59c-0.81,0-0.81-0.81-0.81-1.21
							c0-0.81,0.81-0.81,1.21-0.81c8.08,2.02,23.04,10.11,23.04,20.62c0,6.87-5.26,16.17-10.91,26.68
							c-1.62,2.83-3.23,5.66-4.85,8.89c-10.51,19.81-23.04,43.25-29.51,56.19C906.26,513.01,905.86,513.01,905.45,513.01z"/>
						<path fill="#151D6B" d="M942.24,408.72c-0.4,0-0.4,0-0.81-0.4c-0.4-0.4-0.81-1.21-0.4-1.62c2.43-3.23,11.32-19,11.72-20.62
							c0-0.81,0.4-1.21,1.21-1.21s1.21,0.81,1.21,1.21c0,2.02-10.11,19-12.13,21.83C943.05,408.72,942.64,408.72,942.24,408.72z"/>
					</g>
				</g>
			</g>
		</g>
	</g>
</g>
<linearGradient id="SVGID_14_" gradientUnits="userSpaceOnUse" x1="877.2632" y1="3301.9187" x2="877.2632" y2="3410.2068" gradientTransform="matrix(1 0 0 1 0 -3040)">
	<stop  offset="0" style="stop-color:#E5918E"/>
	<stop  offset="0.0399" style="stop-color:#E69490"/>
	<stop  offset="0.3791" style="stop-color:#EBA7A2"/>
	<stop  offset="0.7048" style="stop-color:#EEB1AC"/>
	<stop  offset="1" style="stop-color:#EFB5B0"/>
</linearGradient>
<path fill-rule="evenodd" clip-rule="evenodd" fill="url(#SVGID_14_)" d="M889.69,317.36c2.02-0.81,1.62-1.62,2.02-4.04
	c0.81-4.45,0.4-13.34,4.04-15.77c0.81,0,0.4,0.4,0.4-0.4l1.21-0.4c1.21,0.4,3.23,0.4,4.45,0.81c2.02,0.4,2.02,0.81,3.64,1.21
	l0.4,0.81c3.23,2.43,4.45,19.81,2.83,22.23c-6.47,9.7-12.13,2.02-13.74,4.85c-2.43,5.26-0.81,14.15,2.02,16.98
	c4.04,4.45,9.3,3.23,12.53,1.21c0,0,0.81,18.59,0.81,25.47c-2.02,4.45-14.96,23.04-18.59,27.08c-2.43-1.62-14.15-21.83-15.77-26.68
	c0-0.4-0.4-5.66-0.4-6.47c-0.4-2.02,0-1.62-4.04-3.23c-10.11-3.23-15.36-15.77-17.79-25.47c-2.43,0-7.28-1.21-8.49-2.43
	c-3.64-3.64,3.64-11.72,6.06-31.13l8.08-3.64c1.21-1.21,8.89-4.85,10.91-6.06c13.34-6.47,14.96-2.02,12.94,9.7
	C882.41,306.04,878.37,323.02,889.69,317.36z"/>
<path fill-rule="evenodd" clip-rule="evenodd" fill="#654C41" d="M945.07,764.85h10.51c0-3.23,1.21-6.47,1.62-9.3
	c0.4-3.64,1.21-6.47,1.21-9.7l-0.4-0.81C949.51,749.49,949.11,755.15,945.07,764.85z"/>
<path fill-rule="evenodd" clip-rule="evenodd" fill="#2B4589" d="M426.03,584.16c0.4-1.62,4.45-11.32,4.45-11.32
	c-65.49-4.85,0,0-65.49-4.85c-0.4,8.08,0,10.11,0,10.11c0,0.4-19,27.89-21.02,30.72c-3.64,5.26-10.11,16.57-13.34,19.81
	c4.04,0.81,90.14-2.43,115.21-0.4c-0.81-2.02-1.62-2.83-2.43-4.85C440.18,618.11,426.03,584.96,426.03,584.16z"/>
<g>
	<g>
		<g>
			<g>
				<g>
					<defs>
						<path id="SVGID_15_" d="M426.03,584.16c0.4-1.62,4.45-11.32,4.45-11.32c-65.49-4.85,0,0-65.49-4.85c-0.4,8.08,0,10.11,0,10.11
							c0,0.4-19,27.89-21.02,30.72c-3.64,5.26-10.11,16.57-13.34,19.81c4.04,0.81,90.14-2.43,115.21-0.4
							c-0.81-2.02-1.62-2.83-2.43-4.85C440.18,618.11,426.03,584.96,426.03,584.16z"/>
					</defs>
					<clipPath id="SVGID_16_">
						<use xlink:href="#SVGID_15_"  overflow="visible"/>
					</clipPath>
					<g clip-path="url(#SVGID_16_)">
						<path fill="#151D6B" d="M364.59,578.09c11.32,2.02,40.02,4.04,61.44,6.06"/>
						<path fill="#151D6B" d="M426.03,585.37L426.03,585.37c-4.85-0.4-9.7-0.81-14.96-1.21c-18.59-1.62-38-3.23-46.89-4.85
							c-0.81,0-1.21-0.81-0.81-1.21c0-0.81,0.81-1.21,1.21-0.81c8.49,1.62,27.89,3.23,46.49,4.85c5.26,0.4,10.11,0.81,14.55,1.21
							c0.81,0,1.21,0.81,1.21,1.21C427.24,584.56,426.84,585.37,426.03,585.37z"/>
					</g>
				</g>
			</g>
		</g>
		<g>
			<g>
				<g>
					<defs>
						<path id="SVGID_17_" d="M426.03,584.16c0.4-1.62,4.45-11.32,4.45-11.32c-65.49-4.85,0,0-65.49-4.85c-0.4,8.08,0,10.11,0,10.11
							c0,0.4-19,27.89-21.02,30.72c-3.64,5.26-10.11,16.57-13.34,19.81c4.04,0.81,90.14-2.43,115.21-0.4
							c-0.81-2.02-1.62-2.83-2.43-4.85C440.18,618.11,426.03,584.96,426.03,584.16z"/>
					</defs>
					<clipPath id="SVGID_18_">
						<use xlink:href="#SVGID_17_"  overflow="visible"/>
					</clipPath>
					<g clip-path="url(#SVGID_18_)">
						<path fill="#151D6B" d="M373.08,579.31c-13.74,19-19.81,38.4-31.13,58.61"/>
						<path fill="#151D6B" d="M341.95,639.13h-0.4c-0.4-0.4-0.81-0.81-0.4-1.62c4.45-7.68,7.68-15.36,11.32-22.64
							c6.06-12.53,11.32-24.25,20.21-35.98c0.4-0.4,1.21-0.81,1.62-0.4c0.4,0.4,0.81,1.21,0.4,1.62
							c-8.49,11.72-14.15,23.45-19.81,35.98c-3.64,7.28-6.87,14.96-11.32,22.64C342.76,638.73,342.35,639.13,341.95,639.13z"/>
					</g>
				</g>
			</g>
		</g>
		<g>
			<g>
				<g>
					<defs>
						<path id="SVGID_19_" d="M426.03,584.16c0.4-1.62,4.45-11.32,4.45-11.32c-65.49-4.85,0,0-65.49-4.85c-0.4,8.08,0,10.11,0,10.11
							c0,0.4-19,27.89-21.02,30.72c-3.64,5.26-10.11,16.57-13.34,19.81c4.04,0.81,90.14-2.43,115.21-0.4
							c-0.81-2.02-1.62-2.83-2.43-4.85C440.18,618.11,426.03,584.96,426.03,584.16z"/>
					</defs>
					<clipPath id="SVGID_20_">
						<use xlink:href="#SVGID_19_"  overflow="visible"/>
					</clipPath>
					<g clip-path="url(#SVGID_20_)">
						<path fill="#151D6B" d="M382.78,580.11c-16.17,51.34-16.17,56.19-18.19,64.27"/>
						<path fill="#151D6B" d="M364.59,645.6L364.59,645.6c-0.81,0-1.21-0.81-1.21-1.62c0.4-1.21,0.81-2.83,0.81-4.04
							c1.62-6.87,4.04-17.79,17.38-60.23c0-0.4,0.81-0.81,1.62-0.81c0.4,0,0.81,0.81,0.81,1.62
							c-13.34,42.44-15.77,52.95-17.38,60.23c-0.4,1.62-0.81,2.83-0.81,4.04C365.8,645.2,365.4,645.6,364.59,645.6z"/>
					</g>
				</g>
			</g>
		</g>
		<g>
			<g>
				<g>
					<defs>
						<path id="SVGID_21_" d="M426.03,584.16c0.4-1.62,4.45-11.32,4.45-11.32c-65.49-4.85,0,0-65.49-4.85c-0.4,8.08,0,10.11,0,10.11
							c0,0.4-19,27.89-21.02,30.72c-3.64,5.26-10.11,16.57-13.34,19.81c4.04,0.81,90.14-2.43,115.21-0.4
							c-0.81-2.02-1.62-2.83-2.43-4.85C440.18,618.11,426.03,584.96,426.03,584.16z"/>
					</defs>
					<clipPath id="SVGID_22_">
						<use xlink:href="#SVGID_21_"  overflow="visible"/>
					</clipPath>
					<g clip-path="url(#SVGID_22_)">
						<path fill="#151D6B" d="M394.5,581.33c-1.21,10.11-4.04,51.34-4.04,59.02"/>
						<path fill="#151D6B" d="M390.46,641.15c-0.81,0-1.21-0.4-1.21-1.21c0-7.68,2.83-49.32,4.04-59.02c0-0.81,0.81-1.21,1.21-0.81
							c0.81,0,1.21,0.81,0.81,1.21c-1.21,9.7-4.04,50.93-4.04,58.61C391.67,640.75,391.27,641.15,390.46,641.15L390.46,641.15z"/>
					</g>
				</g>
			</g>
		</g>
		<g>
			<g>
				<g>
					<defs>
						<path id="SVGID_23_" d="M426.03,584.16c0.4-1.62,4.45-11.32,4.45-11.32c-65.49-4.85,0,0-65.49-4.85c-0.4,8.08,0,10.11,0,10.11
							c0,0.4-19,27.89-21.02,30.72c-3.64,5.26-10.11,16.57-13.34,19.81c4.04,0.81,90.14-2.43,115.21-0.4
							c-0.81-2.02-1.62-2.83-2.43-4.85C440.18,618.11,426.03,584.96,426.03,584.16z"/>
					</defs>
					<clipPath id="SVGID_24_">
						<use xlink:href="#SVGID_23_"  overflow="visible"/>
					</clipPath>
					<g clip-path="url(#SVGID_24_)">
						<path fill="#151D6B" d="M405.82,582.13c0,2.02,5.66,56.59,7.28,62.66"/>
						<path fill="#151D6B" d="M413.5,646c-0.4,0-0.81-0.4-1.21-0.81c-1.62-6.47-7.28-61.04-7.28-63.06c0-0.81,0.81-1.21,1.21-1.21
							c0.81,0,1.21,0.4,1.21,1.21c0,2.02,5.66,56.19,7.28,62.25C414.71,645.2,414.31,646,413.5,646L413.5,646z"/>
					</g>
				</g>
			</g>
		</g>
		<g>
			<g>
				<g>
					<defs>
						<path id="SVGID_25_" d="M426.03,584.16c0.4-1.62,4.45-11.32,4.45-11.32c-65.49-4.85,0,0-65.49-4.85c-0.4,8.08,0,10.11,0,10.11
							c0,0.4-19,27.89-21.02,30.72c-3.64,5.26-10.11,16.57-13.34,19.81c4.04,0.81,90.14-2.43,115.21-0.4
							c-0.81-2.02-1.62-2.83-2.43-4.85C440.18,618.11,426.03,584.96,426.03,584.16z"/>
					</defs>
					<clipPath id="SVGID_26_">
						<use xlink:href="#SVGID_25_"  overflow="visible"/>
					</clipPath>
					<g clip-path="url(#SVGID_26_)">
						<path fill="#151D6B" d="M417.14,583.35c0,1.62,16.98,61.44,19.4,66.29"/>
						<path fill="#151D6B" d="M436.54,650.85c-0.4,0-0.81-0.4-1.21-0.81c-2.02-4.45-19.4-64.27-19.4-66.7c0-0.81,0.4-1.21,1.21-1.21
							s1.21,0.4,1.21,1.21c0.4,2.43,16.98,61.04,19.4,65.89c0.4,0.4,0,1.21-0.4,1.62C436.54,650.85,436.54,650.85,436.54,650.85z
							 M417.95,583.35L417.95,583.35L417.95,583.35z"/>
					</g>
				</g>
			</g>
		</g>
	</g>
</g>
<path fill-rule="evenodd" clip-rule="evenodd" fill="#2C488E" d="M497.98,795.57c2.02-0.81,4.04-1.62,4.45-3.23
	c0-0.4-10.91-29.91-12.13-32.34l-1.21,2.02c-48.51-0.4-111.57,0.4-180.69-0.4c-2.83,0-4.04-0.4-5.66,0.81
	c0,4.04-2.43,24.25-2.02,27.08c1.21,7.68,9.3,5.66,14.96,4.85c11.72-2.02,25.06-5.26,32.74-4.45c6.06,0.81,14.55,3.23,33.96,8.89
	c19.81,5.66,44.47-3.23,66.7-6.06C470.5,789.91,483.43,800.02,497.98,795.57z"/>
<g>
	<g>
		<g>
			<g>
				<g>
					<defs>
						<path id="SVGID_27_" d="M497.98,795.57c2.02-0.81,4.04-1.62,4.45-3.23c0-0.4-10.91-29.91-12.13-32.34l-1.21,2.02
							c-48.51-0.4-111.57,0.4-180.69-0.4c-2.83,0-4.04-0.4-5.66,0.81c0,4.04-2.43,24.25-2.02,27.08c1.21,7.68,9.3,5.66,14.96,4.85
							c11.72-2.02,25.06-5.26,32.74-4.45c6.06,0.81,14.55,3.23,33.96,8.89c19.81,5.66,44.47-3.23,66.7-6.06
							C470.5,789.91,483.43,800.02,497.98,795.57z"/>
					</defs>
					<clipPath id="SVGID_28_">
						<use xlink:href="#SVGID_27_"  overflow="visible"/>
					</clipPath>
					<g clip-path="url(#SVGID_28_)">
						<path fill="#151D6B" d="M316.48,795.57c-0.4,0-0.81,0-0.81-0.4c-0.4-0.4-0.4-0.81,0-1.21c0.4-0.81,1.21-7.68,2.02-13.34
							c3.23-19.81,3.23-19.81,4.45-19.81c0.4,0,1.21,0.4,1.21,0.81s0,0.81,0,0.81c-0.4,1.62-2.02,11.32-3.23,18.19
							c-2.02,13.74-2.02,13.74-2.83,14.15C316.89,795.57,316.89,795.57,316.48,795.57z"/>
						<path fill="#151D6B" d="M338.31,791.93L338.31,791.93c-0.81,0-1.21-0.81-1.21-1.21c0.4-3.64,2.83-23.45,2.43-31.13
							c0-0.81,0.4-1.21,1.21-1.21c0.81,0,1.21,0.4,1.21,1.21c0.4,8.08-2.02,27.89-2.43,31.53
							C339.52,791.53,338.72,791.93,338.31,791.93z"/>
						<path fill="#151D6B" d="M359.33,793.95C358.93,793.95,358.93,793.95,359.33,793.95c-0.81,0-1.21-0.81-1.21-1.21
							c0.4-2.83,2.02-27.89,2.02-31.93c0-0.81,0.4-1.21,1.21-1.21c0.81,0,1.21,0.4,1.21,1.21c0,4.04-1.62,29.1-2.02,32.34
							C360.14,793.55,359.74,793.95,359.33,793.95z"/>
						<path fill="#151D6B" d="M382.78,800.42C382.37,800.42,382.37,800.42,382.78,800.42c-0.81-0.4-1.21-0.81-1.21-1.62
							c0.4-2.02,0.4-40.42,0-43.66c0-0.81,0.4-1.21,1.21-1.21s1.21,0.4,1.21,1.21c0,2.43,0.4,42.44-0.4,44.47
							C383.59,800.02,383.18,800.42,382.78,800.42z"/>
						<path fill="#151D6B" d="M407.84,801.63c-0.4,0-1.21-0.4-1.21-1.21c-0.81-8.89-1.21-17.38-1.62-26.28
							c-0.4-7.68-0.81-15.36-1.21-24.25c0-0.81,0.4-1.21,1.21-1.21c0.81,0,1.21,0.4,1.21,1.21c0.81,8.89,1.21,16.57,1.21,24.25
							c0.4,8.89,0.81,16.98,1.62,25.87C408.65,800.83,408.24,801.63,407.84,801.63L407.84,801.63z"/>
						<path fill="#151D6B" d="M430.48,797.19c-0.4,0-1.21-0.4-1.21-1.21c-0.4-4.45-2.83-38.81-2.83-45.27c0-0.81,0.4-1.21,1.21-1.21
							c0.81,0,1.21,0.4,1.21,1.21c0,6.06,2.43,40.42,2.83,44.87C431.69,796.78,431.29,797.19,430.48,797.19
							C430.88,797.19,430.88,797.19,430.48,797.19z"/>
						<path fill="#151D6B" d="M455.14,793.55c-0.4,0-0.81-0.4-1.21-0.81c-1.62-6.47-2.43-16.57-3.23-25.06
							c-0.4-7.28-0.81-14.55-2.02-17.79c0-0.4,0-1.21,0.81-1.62c0.4,0,1.21,0,1.62,0.81c1.21,3.64,1.62,10.51,2.02,18.19
							c0.4,8.49,1.21,18.19,2.83,24.66C456.35,792.74,455.94,793.55,455.14,793.55L455.14,793.55z"/>
						<path fill="#151D6B" d="M479.79,796.78c-0.4,0-0.81-0.4-1.21-0.81c-2.02-5.26-5.26-33.55-5.26-40.02
							c0-0.81,0.4-1.21,1.21-1.21c0.81,0,1.21,0.4,1.21,1.21c0,6.87,3.64,34.36,5.26,39.21
							C481.01,795.97,480.6,796.38,479.79,796.78C480.2,796.78,479.79,796.78,479.79,796.78z"/>
					</g>
				</g>
			</g>
		</g>
		<g display="none">
			<path display="inline" fill="#151D6B" d="M396.52,802.85c-5.26,0-10.51-0.4-15.36-2.02c-19-5.66-27.89-8.08-33.55-8.49
				c-5.66-0.81-14.55,1.21-23.45,2.83c-2.83,0.4-6.06,1.21-8.89,1.62l-1.21,0.4c-4.04,0.81-9.3,1.62-12.53-0.81
				c-1.62-1.21-2.83-3.23-3.23-5.66c-0.4-1.62,0.4-7.28,1.21-15.77c0.4-4.85,0.81-9.7,0.81-11.32v-1.62l0.81-0.4
				c2.02-1.62,3.23-1.21,5.26-1.21c0.4,0,0.81,0,1.62,0c37.19,0.4,73.17,0.4,105.1,0c27.08,0,52.15,0,74.38,0l2.02-4.45l1.62,3.23
				c0,0.4,12.53,31.93,12.13,33.55c-0.4,1.21-1.62,3.23-5.66,4.45c-7.68,2.43-14.96,0.81-22.64-0.81
				c-7.68-1.62-16.17-3.23-27.08-2.02c-6.06,0.81-12.53,2.02-19,3.64C418.75,800.42,407.44,802.85,396.52,802.85z M345.18,788.29
				c1.21,0,2.02,0,2.83,0c6.06,0.81,14.96,3.23,34.36,8.89c13.74,4.04,30.72,0.4,46.89-2.83c6.47-1.21,12.94-2.83,19.4-3.64
				c11.32-1.62,20.21,0.4,27.89,2.02c7.68,1.62,14.15,2.83,20.62,0.81l0,0c1.62-0.4,2.43-1.21,2.83-1.62
				c-1.21-3.23-7.68-20.62-10.51-28.3h-0.81c-22.64-0.4-48.1,0-75.59,0c-31.93,0-67.91,0.4-105.1,0c-0.81,0-1.21,0-1.62,0
				c-1.21,0-1.62,0-2.02,0c0,2.43-0.4,6.06-0.81,10.91c-0.4,5.66-1.21,13.74-1.21,14.96c0.4,1.62,0.81,2.43,1.62,3.23
				c2.02,1.62,6.47,0.81,9.7,0.4l1.21-0.4c2.83-0.4,5.66-1.21,8.89-1.62C331.44,789.91,339.12,788.29,345.18,788.29z"/>
		</g>
	</g>
</g>
<path fill-rule="evenodd" clip-rule="evenodd" fill="#00010B" d="M281.32,625.79h205.35c6.06,0,11.32,5.26,11.32,11.32v122.48
	c0,6.06-5.26,11.32-11.32,11.32H281.32c-6.06,0-11.32-5.26-11.32-11.32V637.11C270,631.05,275.25,625.79,281.32,625.79z"/>
<path fill-rule="evenodd" clip-rule="evenodd" fill="#8BB3D8" d="M879.99,764.44h190.8c6.47,0,11.32,5.26,11.32,11.32v124.5
	c0,6.47-5.26,11.32-11.32,11.32h-190.8c-6.47,0-11.32-5.26-11.32-11.32v-124.5C868.26,769.3,873.52,764.44,879.99,764.44z"/>
<path fill-rule="evenodd" clip-rule="evenodd" d="M850.48,301.6c8.49-2.43,10.91-4.45,19-8.08c13.34-6.47,13.74-3.23,11.72,8.49
	c-0.4,4.04-3.23,25.06,7.28,20.21c2.02-0.81,2.83-4.04,3.23-6.06c0.81-4.04,0-14.15,5.66-15.36c16.17-2.43,8.49,20.62,2.43,23.45
	c-2.83,1.21-4.85,0.4-6.06,2.02c-2.43,5.26,1.21,16.17,4.04,19.4c6.47,7.28,11.72,1.62,13.34,0.81c2.02,4.45,4.85,6.06,9.7,6.06
	c6.06-0.4,11.32-8.08,13.74-13.74c10.51-24.25,4.04-73.57-23.04-87.31c-14.55-7.28-59.02,0.4-57.4,11.72c0,0.81,0.81,1.62,1.62,2.43
	c-6.06,3.23-12.94,10.91-16.17,17.38C835.12,292.3,838.35,302.81,850.48,301.6z"/>
<path fill-rule="evenodd" clip-rule="evenodd" d="M803.18,1032.45c-2.02,0.81-52.95,15.36-64.27,20.62
	c-2.02,0.81-2.43,0.81-2.83,2.83c0,4.04,10.91,3.23,14.15,3.23c85.7,0-2.43,0,83.68,0c8.08-1.62,6.87-12.13,6.06-19.4
	c-0.4-1.62-0.4-2.83-0.81-3.23C838.75,1036.49,805.2,1032.45,803.18,1032.45z"/>
<path fill="#151D6B" d="M1070.79,913.2h-71.95c-0.81,0-1.21-0.4-1.21-1.21s0.4-1.21,1.21-1.21h71.95c5.66,0,10.51-4.85,10.51-10.51
	v-57.81c0-0.81,0.4-1.21,1.21-1.21c0.81,0,1.21,0.4,1.21,1.21v57.81C1083.32,907.14,1077.66,913.2,1070.79,913.2z M911.92,913.2
	h-31.93c-6.87,0-12.53-5.66-12.53-12.53v-88.53c0-0.81,0.4-1.21,1.21-1.21s1.21,0.4,1.21,1.21v88.53c0,5.66,4.85,10.51,10.51,10.51
	h31.93c0.81,0,1.21,0.4,1.21,1.21S912.73,913.2,911.92,913.2z M868.26,796.38c-0.81,0-1.21-0.4-1.21-1.21v-19.4
	c0-6.87,5.66-12.53,12.53-12.53h191.2c6.87,0,12.53,5.66,12.53,12.53v18.19c0,0.81-0.4,1.21-1.21,1.21s-1.21-0.4-1.21-1.21v-18.19
	c0-5.66-4.85-10.51-10.51-10.51h-190.8c-5.66,0-10.51,4.85-10.51,10.51v19.4C869.48,795.57,869.07,796.38,868.26,796.38z"/>
<path fill-rule="evenodd" clip-rule="evenodd" fill="#EFB5B0" d="M379.95,1016.69l0.81-2.02c-0.4-0.81-0.81-1.62-1.21-2.02
	c-2.43-5.66-3.23-12.53-2.02-18.19c0.4-1.62,0.81-2.43,1.21-3.64l2.02-5.26c0.4-2.02,0.81-3.23,1.62-5.26l0.4-1.21l-1.62-2.43
	l-1.62-2.83l-2.02-4.04l-1.62-2.43c-2.02-2.83-2.43-3.64-4.45-6.87l-2.02-3.64c-0.4-0.81-0.81-1.21-1.21-2.02
	c-4.85,18.59-9.7,37.19-15.36,54.98C360.55,1012.24,380.35,1016.69,379.95,1016.69z"/>
<path fill="#151D6B" d="M507.69,577.69L507.69,577.69c-5.66-0.4-10.51-2.43-15.77-5.66c-4.45-2.83-8.49-6.47-12.13-10.11
	c-4.04-3.64-8.49-7.68-13.34-10.51c-11.72-7.28-17.79-8.08-22.64-8.49c-8.08-0.81-12.94-1.21-33.15-28.7
	c-9.7-13.34-24.25-31.13-33.96-33.96c-2.83-0.81-4.85-0.4-5.66,0.4c-0.4,0.81-0.4,2.43,0.81,3.64c1.21,2.02,4.45,3.64,8.08,2.43
	c0.81,0,1.21,0,1.21,0.81c0,0.81,0,1.21-0.81,1.21c-4.85,1.62-8.89-0.81-10.91-3.64c-1.62-2.02-2.02-4.45-0.81-6.06
	c0.81-1.21,2.83-2.83,8.08-1.62c10.51,2.83,24.25,19.81,35.17,34.76c19.81,26.68,24.25,27.08,31.53,27.49
	c5.26,0.4,11.32,1.21,23.85,8.89c4.85,3.23,9.3,6.87,13.34,10.91c3.64,3.23,7.68,6.87,12.13,9.7c4.85,3.23,9.3,4.85,14.55,5.26
	c0.81,0,1.21,0.81,1.21,1.21C508.49,577.28,508.09,577.69,507.69,577.69z"/>
<path fill="#151D6B" d="M489.5,491.18L489.5,491.18c-21.42-6.47-38.81-27.08-52.95-43.66c-2.43-2.83-4.85-5.66-6.87-8.08
	c-3.64-4.04-6.87-7.68-9.7-10.51c-5.26-5.66-8.49-9.3-11.32-11.72c-4.85-4.04-9.7-6.06-19-5.66c-0.4,0-1.21-0.4-1.21-1.21
	s0.4-1.21,1.21-1.21c9.7-0.4,15.36,2.02,20.62,6.06c3.23,2.43,6.47,6.47,11.72,12.13c2.83,2.83,5.66,6.47,9.7,10.51
	c2.43,2.43,4.45,5.26,6.87,8.08c13.74,16.17,31.13,36.79,51.74,42.85c0.4,0,0.81,0.81,0.81,1.62
	C490.71,490.78,489.9,491.18,489.5,491.18z"/>
<path fill="#151D6B" d="M364.59,569.2c-0.4,0-0.81-0.4-1.21-0.81l-2.02-7.68c-9.3-32.34-16.98-58.21-17.79-91.36
	c0-0.81,0.4-1.21,1.21-1.21c0.81,0,1.21,0.4,1.21,1.21c0.81,32.74,8.08,58.61,17.38,90.95l2.02,7.68
	C365.8,568.39,365.8,568.8,364.59,569.2C364.99,569.2,364.99,569.2,364.59,569.2z"/>
<path fill="#151D6B" d="M516.18,577.69c-0.4,0-1.21-0.4-1.21-1.21s0.4-1.21,1.21-1.21c7.28-0.4,12.94-2.83,17.79-5.26
	c4.85-2.02,9.7-4.45,15.36-4.04c11.72,0.81,15.36-0.81,18.59-2.02c2.02-0.81,3.64-1.62,6.87-1.21c1.21,0,2.43,0,3.64,0
	c4.04,0.4,8.08,0.4,11.72,0.4c3.64-10.51,4.45-20.21,2.02-30.72c0-0.81,0.4-1.21,0.81-1.21c0.4,0,1.21,0.4,1.21,0.81
	c2.43,11.32,1.62,21.42-2.43,32.74c0,0.4-0.4,0.81-0.81,0.81c-4.04,0.4-8.49,0-12.53-0.4c-1.21,0-2.43,0-3.64,0
	c-2.83,0-4.04,0.4-5.66,1.21c-2.83,1.21-7.28,2.83-19.4,2.02c-4.85-0.4-9.3,1.62-14.15,3.64
	C529.52,574.45,523.86,576.88,516.18,577.69L516.18,577.69z"/>
<path fill="#151D6B" d="M732.44,570.82c-2.83,0-5.26,0-7.68-0.4c-3.64-0.4-7.28-0.4-9.3,0.4c-0.4,0-1.21,0-1.62-0.81
	c0-0.4,0-1.21,0.81-1.62c2.83-0.81,6.06-0.4,10.11-0.4c8.49,0.4,19.81,1.21,33.55-6.87l4.85-2.83c15.36-9.3,28.7-16.98,36.38-29.51
	c6.47-10.91,6.47-21.83,5.66-39.21c-0.4-6.06-0.4-12.94-0.4-20.62c0-0.81,0.4-1.21,1.21-1.21s1.21,0.4,1.21,1.21
	c0,7.68,0.4,14.55,0.4,20.62c0.81,18.19,1.21,29.1-6.06,40.42c-8.08,13.34-22.23,21.42-37.19,30.32l-4.85,2.83
	C749.42,569.6,740.12,570.82,732.44,570.82z"/>
<path fill="#151D6B" d="M953.56,690.07c-0.4,0-1.21-0.4-1.21-1.21c-0.81-12.94-5.66-191.2-4.04-212.22
	c0.4-7.68,0.81-10.91,2.02-20.21c0-0.81,0.81-1.21,1.21-0.81c0.81,0,1.21,0.81,0.81,1.21c-1.21,8.89-1.62,12.13-2.02,19.81
	c-1.62,21.02,3.23,198.88,4.04,211.82C954.77,689.66,954.37,690.07,953.56,690.07L953.56,690.07z"/>
<path fill="#151D6B" d="M949.51,479.86c-0.4,0-0.81-0.4-1.21-0.81c-1.62-2.83-4.04-17.79-4.04-20.62c0-0.81,0.4-1.21,1.21-1.21
	s1.21,0.4,1.21,1.21c0,2.43,2.43,16.98,3.64,19.4c0.4,0.4,0,1.21-0.4,1.62C949.92,479.86,949.92,479.86,949.51,479.86z"/>
<circle fill-rule="evenodd" clip-rule="evenodd" fill="#151D6B" cx="856.14" cy="518.27" r="3.23"/>
<path fill-rule="evenodd" clip-rule="evenodd" fill="#151D6B" d="M854.52,559.5c2.02,0,3.23-1.62,3.23-3.23
	c0-2.02-1.62-3.23-3.23-3.23c-1.62,0-3.23,1.62-3.23,3.23S852.5,559.5,854.52,559.5z"/>
<path fill-rule="evenodd" clip-rule="evenodd" fill="#151D6B" d="M852.9,597.09c2.02,0,3.23-1.62,3.23-3.23s-1.62-3.23-3.23-3.23
	s-3.23,1.62-3.23,3.23C849.67,595.47,850.88,597.09,852.9,597.09z"/>
<path fill-rule="evenodd" clip-rule="evenodd" fill="#151D6B" d="M850.48,634.28c2.02,0,3.23-1.62,3.23-3.23s-1.62-3.23-3.23-3.23
	c-1.62,0-3.23,1.62-3.23,3.23S848.46,634.28,850.48,634.28z"/>
<path fill="#151D6B" d="M877.56,363.04c-0.4,0-1.21-0.4-1.21-1.21s0.4-1.21,1.21-1.21c5.66-0.4,14.55-5.66,18.19-12.53
	c0.4-0.4,0.81-0.81,1.62-0.4c0.81,0.4,0.81,0.81,0.4,1.62C893.73,356.98,884.43,362.23,877.56,363.04
	C877.97,363.04,877.97,363.04,877.56,363.04z"/>
<path fill="#151D6B" d="M394.1,389.72L394.1,389.72c-5.26-1.21-5.66-1.21-9.7-4.04l-0.4-0.4c-0.4-0.4-0.81-1.21-0.4-1.62
	c0.4-0.4,1.21-0.81,1.62-0.4l0.4,0.4c3.64,2.43,3.64,2.43,8.49,3.64c0.81,0,1.21,0.81,0.81,1.21
	C395.31,389.32,394.91,389.72,394.1,389.72z"/>
<path fill-rule="evenodd" clip-rule="evenodd" fill="#EFB5B0" d="M615.21,557.88c1.62,1.21,1.62,3.23,1.21,3.64
	c0,0,2.02-3.23,6.06-1.62c3.64,1.62,2.02,6.06,2.02,5.66c0.4-0.81,3.23-2.02,5.66,0c2.83,2.43,1.21,5.66,1.21,5.66
	c4.85-4.04,8.08,2.02,4.45,7.28c-1.21,2.02-5.26,6.06-8.08,4.04c-2.02-1.21-2.02-3.64-2.02-3.64c-3.64,2.02-8.08,0.4-8.08-4.45
	c-3.23,3.23-8.49-0.4-7.28-4.04c0-0.4-2.02,1.21-4.04,0C601.06,566.77,611.17,554.65,615.21,557.88z"/>
<path fill="#151D6B" d="M658.87,554.24c-0.4,0-0.81,0-0.81-0.4c-1.21-1.21-19.81-13.34-22.64-14.55c-1.21,0.4-4.85,3.23-6.87,5.26
	c-2.43,2.02-4.04,3.23-4.85,3.64c-2.02,1.21-4.04,1.21-5.26,0.81c-2.02-0.81-2.43-2.43-2.43-3.23c-0.4-3.23,2.83-8.08,10.11-14.96
	c0.4-0.4,1.21-0.4,1.62,0s0.4,1.21,0,1.62c-8.08,7.28-9.7,10.91-9.3,12.94c0,0.4,0.4,1.21,1.21,1.62c0.81,0.4,2.02,0,3.23-0.81
	c0.81-0.4,2.43-2.02,4.45-3.23c6.47-5.26,8.08-6.06,8.89-5.66c0.4,0,23.04,14.55,23.85,15.77c0.4,0.4,0,1.21-0.4,1.62
	C659.27,554.24,658.87,554.24,658.87,554.24z"/>
<path fill="#151D6B" d="M634.21,581.33c-0.4,0-0.4,0-0.81-0.4c-0.4-0.4-0.4-1.21,0-1.62c0.81-0.81,1.21-1.21,1.62-1.62
	c2.02-2.83,1.62-5.66,0.81-6.47c-1.21-0.81-2.43,0-3.23,0.81c-0.4,0.4-0.81,0.4-1.21,0c-0.4-0.4-0.81-0.81-0.4-1.21
	c0.4-0.81,0.81-2.83-0.81-4.45c-2.02-1.62-4.04-0.4-4.04,0c-0.4,0.4-0.81,0.4-1.21,0.4c-0.4,0-0.81-0.81-0.81-1.62
	c0.4-2.02,0-3.64-1.62-4.04c-2.83-1.21-4.85,1.21-4.85,1.21c-0.4,0.4-1.21,0.81-1.62,0.4c-0.4-0.4-0.81-0.81-0.4-1.62
	c0,0,0-1.62-1.21-2.43c-0.4-0.4-1.21-0.4-2.43,0c-2.83,1.21-5.66,4.85-6.06,7.68c0,0.81-0.81,1.21-1.21,0.81
	c-0.81,0-1.21-0.81-0.81-1.21c0.4-3.64,4.04-8.08,7.68-9.7c1.62-0.81,3.23-0.4,4.45,0.4c0.81,0.81,1.21,1.62,1.62,2.43
	c1.21-0.81,3.23-1.21,5.66-0.4c1.21,0.4,2.83,2.02,2.83,4.45c0.4,0,0.81-0.4,1.21-0.4c1.62,0,2.83,0.4,4.04,1.21
	c1.62,1.21,2.02,2.83,2.02,4.45c1.62-0.4,3.23,0,4.04,0.81c2.02,1.62,2.43,5.66-0.4,9.3c-0.4,0.81-1.21,1.21-1.62,2.02
	C635.02,580.92,634.62,581.33,634.21,581.33z"/>
<g>
	<path fill="#6D9ADE" d="M232.81,778.59c-1.21,0-2.02-0.81-2.02-2.02v-10.51c0-1.21,0.81-2.02,2.02-2.02c1.21,0,2.02,0.81,2.02,2.02
		v10.51C234.83,777.78,234.02,778.59,232.81,778.59z"/>
	<path fill="#6D9ADE" d="M232.81,796.78c-1.21,0-2.02-0.81-2.02-2.02v-10.11c0-1.21,0.81-2.02,2.02-2.02c1.21,0,2.02,0.81,2.02,2.02
		v10.11C234.83,795.97,234.02,796.78,232.81,796.78z"/>
	<path fill="#6D9ADE" d="M245.34,782.23h-8.89c-1.21,0-2.02-0.81-2.02-2.02s0.81-2.02,2.02-2.02h8.89c1.21,0,2.02,0.81,2.02,2.02
		C246.96,781.42,246.15,782.23,245.34,782.23z"/>
	<path fill="#6D9ADE" d="M228.76,782.23h-7.28c-1.21,0-2.02-0.81-2.02-2.02s0.81-2.02,2.02-2.02h7.28c1.21,0,2.02,0.81,2.02,2.02
		C230.38,781.42,229.57,782.23,228.76,782.23z"/>
</g>
<g id="_x31_2_1_">
	<path fill-rule="evenodd" clip-rule="evenodd" fill="#B6E9FF" d="M1019.85,213.47h87.72c6.87,0,12.13,5.66,12.13,12.13v56.19
		c0,6.87-5.66,12.13-12.13,12.13h-61.44c-3.23,8.08-12.94,19-29.1,24.66c-0.81,0.4,7.28-12.13,8.49-24.66h-5.66
		c-6.87,0-12.13-5.66-12.13-12.13V225.6C1007.72,218.73,1013.38,213.47,1019.85,213.47z"/>
	<path fill-rule="evenodd" clip-rule="evenodd" fill="#FEFEFE" d="M1063.91,244.6c4.85,0,8.89,4.04,8.89,8.89s-4.04,8.89-8.89,8.89
		s-8.89-4.04-8.89-8.89C1054.62,248.64,1058.66,244.6,1063.91,244.6z"/>
	<path fill-rule="evenodd" clip-rule="evenodd" fill="#FEFEFE" d="M1094.23,244.6c4.85,0,8.89,4.04,8.89,8.89s-4.04,8.89-8.89,8.89
		c-4.85,0-8.89-4.04-8.89-8.89C1085.34,248.64,1089.38,244.6,1094.23,244.6z"/>
	<path fill-rule="evenodd" clip-rule="evenodd" fill="#FEFEFE" d="M1033.6,244.6c4.85,0,8.89,4.04,8.89,8.89s-4.04,8.89-8.89,8.89
		c-4.85,0-8.89-4.04-8.89-8.89C1024.3,248.64,1028.34,244.6,1033.6,244.6z"/>
</g>
</svg>
