<?xml version="1.0" encoding="utf-8"?>
<!-- Generator: Adobe Illustrator 24.3.0, SVG Export Plug-In . SVG Version: 6.00 Build 0)  -->
<svg version="1.1" id="Layer_1" xmlns="http://www.w3.org/2000/svg" xmlns:xlink="http://www.w3.org/1999/xlink" x="0px" y="0px"
	 viewBox="0 0 800 800" style="enable-background:new 0 0 800 800;" xml:space="preserve">
<style type="text/css">
	.st0{opacity:0.1808;}
	.st1{fill:#FF7776;}
	.st2{opacity:0.3042;}
	.st3{fill:#FFDE00;}
	.st4{fill:#FFFFFF;}
	.st5{fill:#FFFFFF;stroke:#FFD800;stroke-width:5;stroke-miterlimit:10;}
	.st6{fill:#FFFFFF;stroke:#FF7776;stroke-width:5;stroke-miterlimit:10;}
</style>
<g class="st0">
	<g>
		<path class="st1" d="M437.5,183h-16.2v16.2v204.6L301,569.3l-9.5,13.1l13.1,9.5c40.5,29.5,82.8,43.2,132.9,43.2
			c60.4,0,117.1-23.5,159.8-66.2c42.7-42.7,66.2-99.5,66.2-159.8S640,291.9,597.3,249.2C554.6,206.5,497.8,183,437.5,183L437.5,183z
			"/>
	</g>
</g>
<g class="st2">
	<g>
		<g>
			<path class="st3" d="M406,182.8h-15c-34.4,0-66.5,7.4-95.3,22.1c-28.8,14.7-53.7,36.2-73.9,64.1
				c-32.8,45.2-46.1,100.5-37.4,155.6c8.7,55.2,38.4,103.6,83.6,136.5l12.1,8.8l8.8-12.1l114.1-157l2.9-3.9V392V197.8V182.8
				L406,182.8z"/>
		</g>
	</g>
	<g>
		<g>
			<path class="st1" d="M440.5,199.9h-15v15v189.2L314.2,557.3l-8.8,12.1l12.1,8.8c37.5,27.2,76.6,39.9,122.9,39.9
				c55.9,0,108.4-21.8,147.9-61.2c39.5-39.5,61.2-92,61.2-147.9s-21.8-108.4-61.2-147.9C548.8,221.7,496.3,199.9,440.5,199.9
				L440.5,199.9z"/>
		</g>
	</g>
</g>
<g>
	<g>
	</g>
	<g>
	</g>
</g>
<g>
	<g>
		<g>
			<path class="st3" d="M391,392L276.9,549c-86.7-63-106-184.4-42.9-271.1c37.8-52,92.7-80,157-80V392z"/>
		</g>
	</g>
	<g>
		<g>
			<path class="st1" d="M440.5,409V214.9c107.2,0,194.1,86.9,194.1,194.1s-86.9,194.1-194.1,194.1c-42.9,0-79.4-11.9-114.1-37.1
				L440.5,409z"/>
		</g>
	</g>
</g>
<g>
	<g>
	</g>
	<g>
	</g>
</g>
<path class="st4" d="M500.9,394.8c2.3,1.1,4.1,2.7,5.5,4.8c1.3,2.1,2,4.5,2,7.2c0,2.9-0.7,5.5-2.2,7.7c-1.5,2.2-3.5,3.9-6,5.1
	c-2.5,1.2-5.4,1.8-8.5,1.8c-6.2,0-11-1.9-14.5-5.7c-3.5-3.8-5.2-9.2-5.2-16.2c0-5,0.9-9.3,2.8-12.9c1.9-3.6,4.5-6.3,7.9-8.1
	c3.4-1.8,7.3-2.8,11.7-2.8c2.4,0,4.6,0.3,6.8,0.8c2.2,0.5,4,1.3,5.5,2.2l-3.8,7.5c-2.2-1.5-4.9-2.2-8.3-2.2c-3.7,0-6.7,1.1-8.9,3.3
	c-2.2,2.2-3.4,5.4-3.5,9.5c2.6-2.6,6.2-3.9,10.9-3.9C496,393.1,498.6,393.7,500.9,394.8z M496.5,412.1c1.4-1.2,2-2.8,2-4.8
	c0-2-0.7-3.6-2-4.8c-1.4-1.2-3.2-1.8-5.4-1.8c-2.2,0-4.1,0.6-5.5,1.9c-1.4,1.2-2.1,2.8-2.1,4.8c0,1.9,0.7,3.5,2.1,4.7
	c1.4,1.2,3.3,1.8,5.7,1.8C493.3,413.9,495.1,413.3,496.5,412.1z"/>
<path class="st4" d="M521.3,418.8c-2.9-1.8-5.1-4.4-6.7-7.8c-1.6-3.4-2.4-7.5-2.4-12.3c0-4.7,0.8-8.8,2.4-12.3
	c1.6-3.4,3.9-6,6.7-7.8c2.9-1.8,6.1-2.7,9.8-2.7c3.7,0,6.9,0.9,9.8,2.7c2.9,1.8,5.1,4.4,6.7,7.8c1.6,3.4,2.4,7.5,2.4,12.3
	c0,4.7-0.8,8.8-2.4,12.3c-1.6,3.4-3.9,6-6.7,7.8c-2.9,1.8-6.1,2.7-9.8,2.7C527.4,421.5,524.1,420.6,521.3,418.8z M537.3,409.4
	c1.5-2.3,2.3-5.9,2.3-10.7c0-4.8-0.8-8.4-2.3-10.7c-1.5-2.3-3.6-3.5-6.3-3.5c-2.6,0-4.7,1.2-6.3,3.5c-1.5,2.3-2.3,5.9-2.3,10.7
	c0,4.8,0.8,8.4,2.3,10.7s3.6,3.5,6.3,3.5C533.7,412.9,535.8,411.7,537.3,409.4z"/>
<path class="st4" d="M557.2,397.2c-2-2.2-3.1-5.2-3.1-8.9s1-6.6,3.1-8.9c2-2.2,4.7-3.3,7.9-3.3c3.2,0,5.9,1.1,7.9,3.3
	c2,2.2,3,5.2,3,8.9s-1,6.6-3,8.9c-2,2.2-4.6,3.3-7.9,3.3C561.9,400.5,559.2,399.4,557.2,397.2z M568.5,393.5
	c0.8-1.2,1.2-2.9,1.2-5.2c0-2.3-0.4-4.1-1.2-5.2c-0.8-1.2-1.9-1.8-3.4-1.8c-1.4,0-2.5,0.6-3.3,1.8c-0.8,1.2-1.3,2.9-1.3,5.2
	c0,2.3,0.4,4,1.3,5.2c0.8,1.2,2,1.8,3.3,1.8C566.5,395.3,567.7,394.7,568.5,393.5z M591.4,376.7h7.5l-30.1,44.1h-7.5L591.4,376.7z
	 M589.4,419.8c-1.7-1-3-2.4-3.9-4.3c-0.9-1.8-1.4-4-1.4-6.4s0.5-4.6,1.4-6.4c0.9-1.8,2.2-3.3,3.9-4.3c1.7-1,3.5-1.5,5.6-1.5
	c3.2,0,5.9,1.1,7.9,3.3c2,2.2,3.1,5.2,3.1,8.9s-1,6.6-3.1,8.9c-2,2.2-4.7,3.3-7.9,3.3C592.9,421.3,591,420.8,589.4,419.8z
	 M598.4,414.3c0.8-1.2,1.2-2.9,1.2-5.2c0-2.3-0.4-4-1.2-5.2c-0.8-1.2-1.9-1.8-3.4-1.8c-1.4,0-2.5,0.6-3.3,1.8
	c-0.8,1.2-1.3,2.9-1.3,5.2s0.4,4.1,1.3,5.2c0.8,1.2,2,1.8,3.3,1.8C596.5,416.1,597.6,415.5,598.4,414.3z"/>
<path class="st4" d="M255.9,411.5h-7.2v9.3h-10v-9.3H215v-6.9l20.8-28h10.7l-19.3,26.5H239v-8.3h9.6v8.3h7.2V411.5z"/>
<path class="st4" d="M268,418.8c-2.9-1.8-5.1-4.4-6.7-7.8c-1.6-3.4-2.4-7.5-2.4-12.3c0-4.7,0.8-8.8,2.4-12.3c1.6-3.4,3.9-6,6.7-7.8
	c2.9-1.8,6.1-2.7,9.8-2.7s6.9,0.9,9.8,2.7c2.9,1.8,5.1,4.4,6.7,7.8c1.6,3.4,2.4,7.5,2.4,12.3c0,4.7-0.8,8.8-2.4,12.3
	c-1.6,3.4-3.9,6-6.7,7.8c-2.9,1.8-6.1,2.7-9.8,2.7S270.9,420.6,268,418.8z M284.1,409.4c1.5-2.3,2.3-5.9,2.3-10.7
	c0-4.8-0.8-8.4-2.3-10.7c-1.5-2.3-3.6-3.5-6.3-3.5c-2.6,0-4.7,1.2-6.3,3.5c-1.5,2.3-2.3,5.9-2.3,10.7c0,4.8,0.8,8.4,2.3,10.7
	c1.5,2.3,3.6,3.5,6.3,3.5C280.5,412.9,282.6,411.7,284.1,409.4z"/>
<path class="st4" d="M304,397.2c-2-2.2-3.1-5.2-3.1-8.9s1-6.6,3.1-8.9c2-2.2,4.7-3.3,7.9-3.3c3.2,0,5.9,1.1,7.9,3.3
	c2,2.2,3,5.2,3,8.9s-1,6.6-3,8.9c-2,2.2-4.6,3.3-7.9,3.3C308.6,400.5,306,399.4,304,397.2z M315.2,393.5c0.8-1.2,1.2-2.9,1.2-5.2
	c0-2.3-0.4-4.1-1.2-5.2c-0.8-1.2-1.9-1.8-3.4-1.8c-1.4,0-2.5,0.6-3.3,1.8c-0.8,1.2-1.3,2.9-1.3,5.2c0,2.3,0.4,4,1.3,5.2
	s2,1.8,3.3,1.8C313.3,395.3,314.4,394.7,315.2,393.5z M338.1,376.7h7.5l-30.1,44.1H308L338.1,376.7z M336.2,419.8
	c-1.7-1-3-2.4-3.9-4.3c-0.9-1.8-1.4-4-1.4-6.4s0.5-4.6,1.4-6.4c0.9-1.8,2.2-3.3,3.9-4.3c1.7-1,3.5-1.5,5.6-1.5
	c3.2,0,5.9,1.1,7.9,3.3c2,2.2,3.1,5.2,3.1,8.9s-1,6.6-3.1,8.9c-2,2.2-4.7,3.3-7.9,3.3C339.7,421.3,337.8,420.8,336.2,419.8z
	 M345.2,414.3c0.8-1.2,1.2-2.9,1.2-5.2c0-2.3-0.4-4-1.2-5.2c-0.8-1.2-1.9-1.8-3.4-1.8c-1.4,0-2.5,0.6-3.3,1.8
	c-0.8,1.2-1.3,2.9-1.3,5.2s0.4,4.1,1.3,5.2c0.8,1.2,2,1.8,3.3,1.8C343.2,416.1,344.4,415.5,345.2,414.3z"/>
<path class="st5" d="M301.1,342.7H107.6c-18.6,0-33.8-15.6-33.8-34.9c0-19.3,15.1-34.9,33.8-34.9h193.5c18.6,0,33.8,15.6,33.8,34.9
	C334.9,327.1,319.8,342.7,301.1,342.7z"/>
<path class="st3" d="M149.5,312.5c-0.2-4.4-0.3-9.7-0.3-15H149c-1.1,4.6-2.6,9.8-4,14.1l-4.4,14.2h-6.4l-3.9-14.1
	c-1.2-4.3-2.4-9.4-3.3-14.2h-0.1c-0.2,4.9-0.4,10.5-0.6,15.1l-0.6,13.8h-7.6l2.3-36.4h11l3.6,12.1c1.1,4.2,2.3,8.7,3.1,13h0.2
	c1-4.2,2.3-9,3.5-13.1l3.9-12.1h10.7l2,36.4h-8L149.5,312.5z"/>
<path class="st3" d="M197.6,307.8c0,11.9-7.2,19.2-17.9,19.2c-10.8,0-17.1-8.2-17.1-18.5c0-10.9,7-19.1,17.7-19.1
	C191.5,289.4,197.6,297.8,197.6,307.8z M171.3,308.3c0,7.1,3.3,12.1,8.9,12.1c5.6,0,8.7-5.3,8.7-12.4c0-6.5-3.1-12.1-8.8-12.1
	C174.5,296,171.3,301.2,171.3,308.3z"/>
<path class="st3" d="M229.6,325.4c-1.5,0.8-4.9,1.6-9.3,1.6c-12.6,0-19.1-7.8-19.1-18.2c0-12.4,8.9-19.3,19.9-19.3
	c4.3,0,7.5,0.9,9,1.6l-1.7,6.5c-1.7-0.7-4-1.3-6.9-1.3c-6.5,0-11.6,3.9-11.6,12c0,7.3,4.3,11.9,11.7,11.9c2.5,0,5.2-0.5,6.9-1.2
	L229.6,325.4z"/>
<path class="st3" d="M260,325.4c-1.5,0.8-4.9,1.6-9.3,1.6c-12.6,0-19.1-7.8-19.1-18.2c0-12.4,8.9-19.3,19.9-19.3
	c4.3,0,7.5,0.9,9,1.6l-1.7,6.5c-1.7-0.7-4-1.3-6.9-1.3c-6.5,0-11.6,3.9-11.6,12c0,7.3,4.3,11.9,11.7,11.9c2.5,0,5.2-0.5,6.9-1.2
	L260,325.4z"/>
<path class="st3" d="M274.3,317.1l-2.6,9.3h-8.5l11.1-36.4h10.8l11.3,36.4h-8.9l-2.8-9.3H274.3z M283.6,310.9l-2.3-7.7
	c-0.6-2.2-1.3-4.9-1.8-7h-0.1c-0.5,2.2-1.1,4.9-1.7,7l-2.2,7.7H283.6z"/>
<path class="st6" d="M645.4,552h-94.5c-18.6,0-33.8-16.1-33.8-36c0-19.9,15.1-36,33.8-36h94.5c18.6,0,33.8,16.1,33.8,36
	C679.1,535.9,664,552,645.4,552z"/>
<path class="st1" d="M553.1,499.7c2.5-0.4,6.1-0.8,11.1-0.8c5.1,0,8.7,1,11.1,2.9c2.3,1.8,3.9,4.9,3.9,8.4s-1.2,6.6-3.3,8.6
	c-2.8,2.6-7,3.8-11.8,3.8c-1.1,0-2.1-0.1-2.8-0.2v13h-8.2V499.7z M561.3,516.3c0.7,0.2,1.6,0.2,2.8,0.2c4.4,0,7.1-2.2,7.1-5.9
	c0-3.3-2.3-5.3-6.4-5.3c-1.7,0-2.8,0.2-3.4,0.3V516.3z"/>
<path class="st1" d="M584.4,499.3h22.2v6.7h-14v8.3h13.1v6.7h-13.1v14.6h-8.3V499.3z"/>
<path class="st1" d="M612.8,535.7v-36.4h9.6l7.6,13.3c2.2,3.8,4.3,8.4,5.9,12.5h0.2c-0.5-4.8-0.7-9.7-0.7-15.2v-10.6h7.6v36.4h-8.6
	l-7.8-14c-2.2-3.9-4.5-8.6-6.3-12.9l-0.2,0.1c0.2,4.8,0.3,9.9,0.3,15.9v11H612.8z"/>
</svg>
