<?xml version="1.0" encoding="utf-8"?>
<!-- Generator: Adobe Illustrator 24.3.0, SVG Export Plug-In . SVG Version: 6.00 Build 0)  -->
<svg version="1.1" id="Layer_1" xmlns="http://www.w3.org/2000/svg" xmlns:xlink="http://www.w3.org/1999/xlink" x="0px" y="0px"
	 viewBox="0 0 1280 1280" style="enable-background:new 0 0 1280 1280;" xml:space="preserve">
<style type="text/css">
	.st0{opacity:0.3;}
	.st1{fill:#E9A9AA;}
	.st2{fill:#89B991;}
	.st3{fill:#E2D847;}
	.st4{fill:#5FBBBC;}
	.st5{fill:#B3CD9E;}
	.st6{fill:#E4D355;}
	.st7{fill:#ED9745;}
	.st8{fill:#F9B7BA;}
	.st9{fill:#A6E0AE;}
	.st10{fill:#F4E784;}
	.st11{fill:#6ECAEA;}
	.st12{fill:#CDF4AB;}
	.st13{fill:#F9B2F7;}
	.st14{fill:#F9A662;}
	.st15{fill:#61E5DF;}
	.st16{fill:#B2F9BB;fill-opacity:0.3;}
	.st17{enable-background:new    ;}
	.st18{fill:#CCCCCC;}
	.st19{fill:none;stroke:#808080;stroke-miterlimit:10;}
</style>
<g class="st0">
	<path class="st1" d="M497,652.6c0-1.6,0-3.2,0.1-4.8l-183.3-6.4c-2,58.1,8.8,107,35.2,158.8l163.6-83.4
		C502.6,697.6,497,675.8,497,652.6z"/>
	<path class="st2" d="M512.6,716.8L349,800.2c30.8,60.4,72.6,103.8,131.9,136.6l89.4-161.3C545.7,762.2,525.5,741.7,512.6,716.8z"/>
	<path class="st3" d="M570.3,775.5l-89.4,161.3c42.4,23.5,86.5,36.6,134.8,39.9l12.9-184.8C607.7,790.8,587.9,785,570.3,775.5z"/>
	<path class="st4" d="M636.5,792.2c-2.6,0-5.2-0.1-7.8-0.2l-12.9,184.8c101.5,7.1,190.9-28.1,260.2-102.5L739.4,746.9
		C713.9,774.7,677.2,792.2,636.5,792.2z"/>
	<path class="st5" d="M952.2,568.6L771.5,617c3,11.3,4.6,23.3,4.6,35.6c0,36.3-13.9,69.4-36.7,94.3L876,874.2
		C955.2,789.2,982.2,680.9,952.2,568.6z"/>
	<path class="st6" d="M771.5,617.1l180.7-48.4C919.6,447,829.1,361.2,705.9,335l-38.6,181.5C718.1,528,758.3,567,771.5,617.1z"/>
	<path class="st7" d="M667.4,516.5L705.9,335c-23.7-5-43.3-7.1-67.5-7.1v185.2C648.3,513.2,658,514.4,667.4,516.5z"/>
</g>
<g>
	<path class="st8" d="M476.4,652.6c0-1.9,0-3.7,0.1-5.5l-135.4-4.7c-1.9,53.2,8.1,98,32.2,145.5L494,726.4
		C482.8,704.2,476.4,679.1,476.4,652.6z"/>
	<path class="st9" d="M494.1,726.3l-120.7,61.5c28.2,55.3,66.5,95,120.9,125.2l65.8-118.6C531.8,778.7,508.8,755,494.1,726.3z"/>
	<path class="st10" d="M560,794.3l-65.8,118.6c38.8,21.5,79.2,33.5,123.5,36.6l9.5-135.4C602.9,812.5,580.1,805.5,560,794.3z"/>
	<path class="st11" d="M638.3,814.5c-3.8,0-7.5-0.1-11.1-0.4l-9.5,135.4c92.9,6.5,174.8-25.8,238.4-93.9L756.7,763
		C727.2,794.7,685,814.5,638.3,814.5z"/>
	<path class="st12" d="M925.8,575.7l-131.1,35.1c3.5,13.3,5.5,27.3,5.5,41.8c0,42.7-16.5,81.5-43.5,110.4l99.3,92.6
		C928.7,777.8,953.4,678.6,925.8,575.7z"/>
	<path class="st13" d="M794.8,610.8l131.1-35.1c-29.9-111.4-112.7-190-225.5-214l-28.2,132.6C731.7,506.9,779.2,552.4,794.8,610.8z"
		/>
	<path class="st14" d="M672.1,494.3l28.2-132.6c-21.7-4.6-39.7-6.5-61.9-6.5v135.5C650,490.7,661.3,492,672.1,494.3z"/>
</g>
<path class="st15" d="M638.6,473.5c-0.1-7.5-0.2-14.6-0.2-14.6v-163c-192.1,0-350.9,153.3-357.6,345.3l178.9,5.5
	C462.9,550.6,541.8,473.6,638.6,473.5z"/>
<path class="st16" d="M495.9,652.6c0-77.4,62.8-140.2,140.2-140.2c5.5,0,10.9,0.3,16.3,1v-245c0-3.6-2.9-6.5-6.5-6.4c0,0,0,0-0.1,0
	C428,261.9,254.4,424.7,249.9,645.2c-0.1,3.7,2.6,6.8,6.2,7l240,9.8C496,658.9,495.9,655.8,495.9,652.6z"/>
<g class="st17">
	<path class="st18" d="M693.5,87.7c2.9,2.4,4.3,5.6,4.3,9.6c0,2.6-0.7,5-1.9,7.1c-1.3,2.1-3.3,3.8-5.9,5.1c-2.7,1.3-5.9,1.9-9.8,1.9
		c-3,0-6-0.4-8.9-1.2c-2.9-0.8-5.4-1.9-7.4-3.4l3.9-7.6c1.6,1.2,3.5,2.2,5.6,2.8s4.3,1,6.5,1c2.5,0,4.4-0.5,5.8-1.5
		c1.4-1,2.1-2.3,2.1-4.1c0-1.8-0.7-3.2-2.2-4.1c-1.5-0.9-4-1.4-7.7-1.4H667l2.2-24h26v7.9h-17.8l-0.7,8.1h3.5
		C686.2,84.2,690.7,85.3,693.5,87.7z"/>
	<path class="st18" d="M710.7,108.9c-2.8-1.7-4.9-4.3-6.5-7.6c-1.6-3.3-2.3-7.3-2.3-11.8c0-4.6,0.8-8.5,2.3-11.8
		c1.6-3.3,3.7-5.8,6.5-7.6c2.8-1.7,5.9-2.6,9.4-2.6s6.7,0.9,9.4,2.6c2.8,1.7,4.9,4.3,6.5,7.6c1.6,3.3,2.3,7.3,2.3,11.8
		c0,4.6-0.8,8.5-2.3,11.8c-1.6,3.3-3.7,5.8-6.5,7.6c-2.8,1.7-5.9,2.6-9.4,2.6S713.4,110.6,710.7,108.9z M726.2,99.8
		c1.5-2.2,2.2-5.7,2.2-10.4c0-4.7-0.7-8.1-2.2-10.4c-1.5-2.2-3.5-3.3-6.1-3.3c-2.6,0-4.6,1.1-6.1,3.3c-1.5,2.2-2.2,5.7-2.2,10.4
		c0,4.7,0.7,8.1,2.2,10.4c1.5,2.2,3.5,3.3,6.1,3.3C722.7,103.2,724.7,102,726.2,99.8z"/>
</g>
<line class="st19" x1="667.5" y1="169.4" x2="667.5" y2="342"/>
<g class="st17">
	<path class="st18" d="M675.6,140.1h3.2v6.1c-0.8,0.6-1.8,1.1-2.8,1.4c-1.1,0.3-2.2,0.5-3.2,0.5c-1.6,0-3-0.3-4.2-1
		s-2.2-1.6-2.9-2.8c-0.7-1.2-1.1-2.5-1.1-4c0-1.5,0.4-2.8,1.1-4c0.7-1.2,1.7-2.1,3-2.8c1.3-0.7,2.7-1,4.3-1c1.3,0,2.5,0.2,3.6,0.7
		c1.1,0.4,2,1.1,2.7,1.9l-2.2,2.1c-1.1-1.1-2.4-1.7-3.9-1.7c-1,0-1.8,0.2-2.6,0.6s-1.3,1-1.7,1.7s-0.6,1.6-0.6,2.5
		c0,0.9,0.2,1.8,0.6,2.5s1,1.3,1.7,1.7c0.7,0.4,1.6,0.6,2.5,0.6c1,0,1.9-0.2,2.7-0.6V140.1z"/>
	<path class="st18" d="M691.9,144.7h-7l-1.3,3.2H680l6.7-15.1h3.4l6.7,15.1h-3.7L691.9,144.7z M690.8,142l-2.4-5.8L686,142H690.8z"
		/>
	<path class="st18" d="M712.2,147.9l0-9l-4.4,7.4h-1.6l-4.4-7.2v8.8h-3.3v-15.1h2.9l5.6,9.4l5.5-9.4h2.9l0,15.1H712.2z"/>
	<path class="st18" d="M730.7,145.1v2.8H719v-15.1h11.4v2.8h-7.9v3.3h7v2.7h-7v3.5H730.7z"/>
	<path class="st18" d="M739.5,132.8h6.8c1.6,0,3.1,0.3,4.3,0.9c1.3,0.6,2.2,1.5,2.9,2.6s1,2.5,1,4c0,1.5-0.3,2.8-1,4s-1.7,2-2.9,2.6
		c-1.3,0.6-2.7,0.9-4.3,0.9h-6.8V132.8z M746.2,145c1.5,0,2.7-0.4,3.6-1.3c0.9-0.8,1.3-2,1.3-3.4c0-1.4-0.4-2.6-1.3-3.4
		c-0.9-0.8-2.1-1.3-3.6-1.3H743v9.3H746.2z"/>
	<path class="st18" d="M769,145.1v2.8h-11.7v-15.1h11.4v2.8h-7.9v3.3h7v2.7h-7v3.5H769z"/>
	<path class="st18" d="M773.2,147.7c-1.1-0.3-2-0.7-2.7-1.3l1.2-2.6c0.6,0.5,1.4,0.9,2.3,1.1s1.8,0.4,2.7,0.4c1,0,1.7-0.1,2.2-0.4
		s0.7-0.7,0.7-1.2c0-0.4-0.1-0.7-0.4-0.9c-0.3-0.2-0.6-0.4-1.1-0.6c-0.4-0.1-1-0.3-1.8-0.5c-1.1-0.3-2.1-0.5-2.8-0.8
		c-0.7-0.3-1.4-0.7-1.9-1.3c-0.5-0.6-0.8-1.4-0.8-2.4c0-0.9,0.2-1.7,0.7-2.4c0.5-0.7,1.2-1.3,2.1-1.7c1-0.4,2.1-0.6,3.5-0.6
		c1,0,1.9,0.1,2.8,0.3c0.9,0.2,1.7,0.6,2.4,1l-1.1,2.6c-1.4-0.8-2.8-1.2-4.2-1.2c-1,0-1.7,0.2-2.2,0.5c-0.5,0.3-0.7,0.7-0.7,1.2
		s0.3,0.9,0.8,1.2c0.5,0.3,1.4,0.5,2.5,0.7c1.1,0.3,2.1,0.5,2.8,0.8s1.4,0.7,1.9,1.3s0.8,1.4,0.8,2.4c0,0.9-0.2,1.6-0.7,2.4
		s-1.2,1.3-2.2,1.7c-1,0.4-2.1,0.6-3.5,0.6C775.5,148.2,774.4,148,773.2,147.7z"/>
	<path class="st18" d="M785.5,132.8h3.5v15.1h-3.5V132.8z"/>
	<path class="st18" d="M802.7,140.1h3.2v6.1c-0.8,0.6-1.8,1.1-2.8,1.4c-1.1,0.3-2.2,0.5-3.2,0.5c-1.6,0-3-0.3-4.2-1
		s-2.2-1.6-2.9-2.8s-1.1-2.5-1.1-4c0-1.5,0.4-2.8,1.1-4s1.7-2.1,3-2.8s2.7-1,4.3-1c1.3,0,2.5,0.2,3.6,0.7s2,1.1,2.7,1.9l-2.2,2.1
		c-1.1-1.1-2.4-1.7-3.9-1.7c-1,0-1.8,0.2-2.6,0.6c-0.7,0.4-1.3,1-1.7,1.7s-0.6,1.6-0.6,2.5c0,0.9,0.2,1.8,0.6,2.5s1,1.3,1.7,1.7
		c0.7,0.4,1.6,0.6,2.5,0.6c1,0,1.9-0.2,2.7-0.6V140.1z"/>
	<path class="st18" d="M822.9,132.8v15.1h-2.9l-7.5-9.1v9.1h-3.4v-15.1h2.9l7.5,9.1v-9.1H822.9z"/>
</g>
<g class="st17">
	<path class="st18" d="M920.9,305.6v8h-32.2v-6.4l16.4-15.5c1.7-1.7,2.9-3.1,3.5-4.3c0.6-1.2,0.9-2.4,0.9-3.6c0-1.7-0.6-3-1.7-3.9
		c-1.2-0.9-2.9-1.4-5.1-1.4c-1.9,0-3.6,0.4-5.1,1.1c-1.5,0.7-2.8,1.8-3.8,3.2l-7.2-4.6c1.7-2.5,4-4.4,6.9-5.8
		c2.9-1.4,6.3-2.1,10-2.1c3.2,0,5.9,0.5,8.3,1.6c2.4,1,4.2,2.5,5.5,4.4c1.3,1.9,2,4.1,2,6.7c0,2.3-0.5,4.5-1.5,6.5s-2.9,4.3-5.7,6.9
		l-9.8,9.3H920.9z"/>
	<path class="st18" d="M952.8,288.5c2.2,1.1,4,2.6,5.3,4.7c1.3,2,1.9,4.3,1.9,7c0,2.8-0.7,5.3-2.1,7.5c-1.4,2.2-3.4,3.8-5.8,5
		c-2.5,1.2-5.2,1.7-8.2,1.7c-6,0-10.6-1.8-14-5.5c-3.4-3.7-5.1-8.9-5.1-15.7c0-4.8,0.9-9,2.7-12.4c1.8-3.5,4.4-6.1,7.6-7.9
		c3.3-1.8,7.1-2.7,11.4-2.7c2.3,0,4.5,0.3,6.5,0.8c2.1,0.5,3.9,1.2,5.3,2.2l-3.7,7.2c-2.1-1.4-4.8-2.1-8-2.1c-3.6,0-6.5,1.1-8.6,3.2
		c-2.1,2.1-3.2,5.2-3.4,9.2c2.5-2.5,6-3.8,10.5-3.8C948.1,286.9,950.5,287.4,952.8,288.5z M948.5,305.3c1.3-1.1,2-2.7,2-4.6
		c0-1.9-0.7-3.5-2-4.7c-1.3-1.2-3.1-1.7-5.3-1.7c-2.2,0-3.9,0.6-5.3,1.8c-1.4,1.2-2.1,2.7-2.1,4.6c0,1.9,0.7,3.4,2,4.6
		c1.3,1.2,3.2,1.8,5.5,1.8C945.4,307,947.2,306.4,948.5,305.3z"/>
	<path class="st18" d="M972.4,311.7c-2.8-1.7-4.9-4.3-6.5-7.6c-1.6-3.3-2.3-7.3-2.3-11.8c0-4.6,0.8-8.5,2.3-11.8
		c1.6-3.3,3.7-5.8,6.5-7.6c2.8-1.7,5.9-2.6,9.4-2.6s6.7,0.9,9.4,2.6c2.8,1.7,4.9,4.3,6.5,7.6c1.6,3.3,2.3,7.3,2.3,11.8
		c0,4.6-0.8,8.5-2.3,11.8c-1.6,3.3-3.7,5.8-6.5,7.6c-2.8,1.7-5.9,2.6-9.4,2.6S975.2,313.5,972.4,311.7z M988,302.7
		c1.5-2.2,2.2-5.7,2.2-10.4c0-4.7-0.7-8.1-2.2-10.4c-1.5-2.2-3.5-3.3-6.1-3.3c-2.6,0-4.6,1.1-6.1,3.3c-1.5,2.2-2.2,5.7-2.2,10.4
		c0,4.7,0.7,8.1,2.2,10.4c1.5,2.2,3.5,3.3,6.1,3.3C984.5,306,986.5,304.9,988,302.7z"/>
</g>
<g class="st17">
	<path class="st18" d="M898.7,347.5h-7l-1.3,3.2h-3.6l6.7-15.1h3.4l6.7,15.1h-3.7L898.7,347.5z M897.6,344.9l-2.4-5.8l-2.4,5.8
		H897.6z"/>
	<path class="st18" d="M906.8,350.5c-1.1-0.3-2-0.7-2.7-1.3l1.2-2.6c0.6,0.5,1.4,0.9,2.3,1.1s1.8,0.4,2.7,0.4c1,0,1.7-0.1,2.2-0.4
		s0.7-0.7,0.7-1.2c0-0.4-0.1-0.7-0.4-0.9s-0.6-0.4-1.1-0.6c-0.4-0.1-1-0.3-1.8-0.5c-1.1-0.3-2.1-0.5-2.8-0.8
		c-0.7-0.3-1.4-0.7-1.9-1.3c-0.5-0.6-0.8-1.4-0.8-2.4c0-0.9,0.2-1.7,0.7-2.4c0.5-0.7,1.2-1.3,2.1-1.7c1-0.4,2.1-0.6,3.5-0.6
		c1,0,1.9,0.1,2.8,0.3s1.7,0.6,2.4,1l-1.1,2.6c-1.4-0.8-2.8-1.2-4.2-1.2c-1,0-1.7,0.2-2.2,0.5c-0.5,0.3-0.7,0.7-0.7,1.2
		s0.3,0.9,0.8,1.2c0.5,0.3,1.4,0.5,2.5,0.7c1.1,0.3,2.1,0.5,2.8,0.8s1.4,0.7,1.9,1.3s0.8,1.4,0.8,2.4c0,0.9-0.2,1.6-0.7,2.4
		c-0.5,0.7-1.2,1.3-2.2,1.7c-1,0.4-2.1,0.6-3.5,0.6C909.1,351,907.9,350.9,906.8,350.5z"/>
	<path class="st18" d="M920.5,350.5c-1.1-0.3-2-0.7-2.7-1.3l1.2-2.6c0.6,0.5,1.4,0.9,2.3,1.1s1.8,0.4,2.7,0.4c1,0,1.7-0.1,2.2-0.4
		s0.7-0.7,0.7-1.2c0-0.4-0.1-0.7-0.4-0.9c-0.3-0.2-0.6-0.4-1.1-0.6c-0.4-0.1-1-0.3-1.8-0.5c-1.1-0.3-2.1-0.5-2.8-0.8
		c-0.7-0.3-1.4-0.7-1.9-1.3c-0.5-0.6-0.8-1.4-0.8-2.4c0-0.9,0.2-1.7,0.7-2.4c0.5-0.7,1.2-1.3,2.1-1.7c1-0.4,2.1-0.6,3.5-0.6
		c1,0,1.9,0.1,2.8,0.3c0.9,0.2,1.7,0.6,2.4,1l-1.1,2.6c-1.4-0.8-2.8-1.2-4.2-1.2c-1,0-1.7,0.2-2.2,0.5c-0.5,0.3-0.7,0.7-0.7,1.2
		s0.3,0.9,0.8,1.2c0.5,0.3,1.4,0.5,2.5,0.7c1.1,0.3,2.1,0.5,2.8,0.8s1.4,0.7,1.9,1.3s0.8,1.4,0.8,2.4c0,0.9-0.2,1.6-0.7,2.4
		s-1.2,1.3-2.2,1.7c-1,0.4-2.1,0.6-3.5,0.6C922.8,351,921.6,350.9,920.5,350.5z"/>
	<path class="st18" d="M944.4,348v2.8h-11.7v-15.1h11.4v2.8h-7.9v3.3h7v2.7h-7v3.5H944.4z"/>
	<path class="st18" d="M950.3,338.5h-4.8v-2.8h13.1v2.8h-4.8v12.2h-3.5V338.5z"/>
	<path class="st18" d="M960.5,335.7h3.5v15.1h-3.5V335.7z"/>
	<path class="st18" d="M981.4,335.7v15.1h-2.9l-7.5-9.1v9.1h-3.4v-15.1h2.9l7.5,9.1v-9.1H981.4z"/>
	<path class="st18" d="M995.1,343h3.2v6.1c-0.8,0.6-1.8,1.1-2.8,1.4c-1.1,0.3-2.2,0.5-3.2,0.5c-1.6,0-3-0.3-4.2-1
		c-1.2-0.7-2.2-1.6-2.9-2.8c-0.7-1.2-1.1-2.5-1.1-4c0-1.5,0.4-2.8,1.1-4c0.7-1.2,1.7-2.1,3-2.8c1.3-0.7,2.7-1,4.3-1
		c1.3,0,2.5,0.2,3.6,0.7c1.1,0.4,2,1.1,2.7,1.9l-2.2,2.1c-1.1-1.1-2.4-1.7-3.9-1.7c-1,0-1.8,0.2-2.6,0.6c-0.7,0.4-1.3,1-1.7,1.7
		c-0.4,0.7-0.6,1.6-0.6,2.5c0,0.9,0.2,1.8,0.6,2.5c0.4,0.7,1,1.3,1.7,1.7c0.7,0.4,1.6,0.6,2.5,0.6c1,0,1.9-0.2,2.7-0.6V343z"/>
	<path class="st18" d="M1016.7,343.3c0.7,0.8,1.1,1.7,1.1,2.9c0,0.9-0.2,1.7-0.7,2.4c-0.5,0.7-1.2,1.3-2.1,1.8
		c-0.9,0.4-2.1,0.7-3.5,0.7c-1.1,0-2.1-0.1-3.1-0.4c-1-0.3-1.9-0.7-2.6-1.2l1.4-2.7c0.6,0.4,1.2,0.8,2,1c0.8,0.2,1.5,0.4,2.3,0.4
		c0.9,0,1.6-0.2,2.1-0.5s0.8-0.8,0.8-1.4c0-1.2-0.9-1.9-2.8-1.9h-1.6V342l3.1-3.5h-6.4v-2.8h10.5v2.3l-3.4,3.9
		C1015,342,1016,342.5,1016.7,343.3z"/>
	<path class="st18" d="M1020.3,335.7h6.8c1.6,0,3.1,0.3,4.3,0.9c1.3,0.6,2.2,1.5,2.9,2.6s1,2.5,1,4c0,1.5-0.3,2.8-1,4
		s-1.7,2-2.9,2.6c-1.3,0.6-2.7,0.9-4.3,0.9h-6.8V335.7z M1027,347.9c1.5,0,2.7-0.4,3.6-1.3c0.9-0.8,1.3-2,1.3-3.4
		c0-1.4-0.4-2.6-1.3-3.4c-0.9-0.8-2.1-1.3-3.6-1.3h-3.2v9.3H1027z"/>
</g>
<g class="st17">
	<path class="st18" d="M1038.4,635.7v8h-32.2v-6.4l16.4-15.5c1.7-1.7,2.9-3.1,3.5-4.3c0.6-1.2,0.9-2.4,0.9-3.6c0-1.7-0.6-3-1.7-3.9
		c-1.2-0.9-2.9-1.4-5.1-1.4c-1.9,0-3.6,0.4-5.1,1.1c-1.5,0.7-2.8,1.8-3.8,3.2l-7.2-4.6c1.7-2.5,4-4.4,6.9-5.8
		c2.9-1.4,6.3-2.1,10-2.1c3.2,0,5.9,0.5,8.3,1.6c2.4,1,4.2,2.5,5.5,4.4c1.3,1.9,2,4.1,2,6.7c0,2.3-0.5,4.5-1.5,6.5s-2.9,4.3-5.7,6.9
		l-9.8,9.3H1038.4z"/>
	<path class="st18" d="M1070.4,618.7c2.2,1.1,4,2.6,5.3,4.7c1.3,2,1.9,4.3,1.9,7c0,2.8-0.7,5.3-2.1,7.5c-1.4,2.2-3.4,3.8-5.8,5
		c-2.5,1.2-5.2,1.7-8.2,1.7c-6,0-10.6-1.8-14-5.5c-3.4-3.7-5.1-8.9-5.1-15.7c0-4.8,0.9-9,2.7-12.4c1.8-3.5,4.4-6.1,7.6-7.9
		c3.3-1.8,7.1-2.7,11.4-2.7c2.3,0,4.5,0.3,6.5,0.8c2.1,0.5,3.9,1.2,5.3,2.2l-3.7,7.2c-2.1-1.4-4.8-2.1-8-2.1c-3.6,0-6.5,1.1-8.6,3.2
		c-2.1,2.1-3.2,5.2-3.4,9.2c2.5-2.5,6-3.8,10.5-3.8C1065.7,617,1068.1,617.6,1070.4,618.7z M1066.1,635.4c1.3-1.1,2-2.7,2-4.6
		c0-1.9-0.7-3.5-2-4.7c-1.3-1.2-3.1-1.7-5.3-1.7c-2.2,0-3.9,0.6-5.3,1.8c-1.4,1.2-2.1,2.7-2.1,4.6c0,1.9,0.7,3.4,2,4.6
		c1.3,1.2,3.2,1.8,5.5,1.8C1063,637.1,1064.7,636.6,1066.1,635.4z"/>
	<path class="st18" d="M1090,641.9c-2.8-1.7-4.9-4.3-6.5-7.6c-1.6-3.3-2.3-7.3-2.3-11.8c0-4.6,0.8-8.5,2.3-11.8
		c1.6-3.3,3.7-5.8,6.5-7.6c2.8-1.7,5.9-2.6,9.4-2.6s6.7,0.9,9.4,2.6c2.8,1.7,4.9,4.3,6.5,7.6c1.6,3.3,2.3,7.3,2.3,11.8
		c0,4.6-0.8,8.5-2.3,11.8c-1.6,3.3-3.7,5.8-6.5,7.6c-2.8,1.7-5.9,2.6-9.4,2.6S1092.8,643.6,1090,641.9z M1105.6,632.8
		c1.5-2.2,2.2-5.7,2.2-10.4c0-4.7-0.7-8.1-2.2-10.4c-1.5-2.2-3.5-3.3-6.1-3.3c-2.6,0-4.6,1.1-6.1,3.3c-1.5,2.2-2.2,5.7-2.2,10.4
		c0,4.7,0.7,8.1,2.2,10.4c1.5,2.2,3.5,3.3,6.1,3.3C1102.1,636.2,1104.1,635.1,1105.6,632.8z"/>
</g>
<g class="st17">
	<path class="st18" d="M1016.4,666.5c1,0.4,1.7,1.1,2.3,1.9c0.5,0.8,0.8,1.8,0.8,2.9c0,1.1-0.3,2.1-0.8,2.9
		c-0.5,0.8-1.3,1.5-2.3,1.9c-1,0.4-2.1,0.7-3.5,0.7h-3v4.2h-3.5v-15.1h6.5C1014.3,665.9,1015.4,666.1,1016.4,666.5z M1015.1,673.2
		c0.5-0.5,0.8-1.1,0.8-1.9c0-0.8-0.3-1.5-0.8-1.9s-1.3-0.7-2.4-0.7h-2.8v5.2h2.8C1013.8,673.9,1014.6,673.7,1015.1,673.2z"/>
	<path class="st18" d="M1031.5,680.9l-2.9-4.2h-0.2h-3v4.2h-3.5v-15.1h6.5c1.3,0,2.5,0.2,3.5,0.7c1,0.4,1.7,1.1,2.3,1.9
		c0.5,0.8,0.8,1.8,0.8,2.9c0,1.1-0.3,2.1-0.8,2.9c-0.5,0.8-1.3,1.4-2.3,1.9l3.4,4.8H1031.5z M1030.7,669.4c-0.5-0.5-1.3-0.7-2.4-0.7
		h-2.8v5.2h2.8c1,0,1.8-0.2,2.4-0.7c0.5-0.5,0.8-1.1,0.8-1.9C1031.5,670.5,1031.2,669.8,1030.7,669.4z"/>
	<path class="st18" d="M1040.8,680.2c-1.3-0.7-2.2-1.6-2.9-2.8s-1.1-2.5-1.1-4c0-1.5,0.4-2.8,1.1-4s1.7-2.1,2.9-2.8
		c1.3-0.7,2.7-1,4.2-1c1.6,0,3,0.3,4.2,1c1.2,0.7,2.2,1.6,2.9,2.8s1.1,2.5,1.1,4c0,1.5-0.4,2.8-1.1,4s-1.7,2.1-2.9,2.8s-2.7,1-4.2,1
		C1043.5,681.2,1042.1,680.8,1040.8,680.2z M1047.5,677.6c0.7-0.4,1.3-1,1.7-1.7s0.6-1.6,0.6-2.5c0-0.9-0.2-1.8-0.6-2.5
		s-1-1.3-1.7-1.7c-0.7-0.4-1.5-0.6-2.4-0.6s-1.7,0.2-2.4,0.6c-0.7,0.4-1.3,1-1.7,1.7c-0.4,0.7-0.6,1.6-0.6,2.5
		c0,0.9,0.2,1.8,0.6,2.5c0.4,0.7,1,1.3,1.7,1.7c0.7,0.4,1.5,0.6,2.4,0.6S1046.7,678,1047.5,677.6z"/>
	<path class="st18" d="M1066.1,673.1h3.2v6.1c-0.8,0.6-1.8,1.1-2.8,1.4c-1.1,0.3-2.2,0.5-3.2,0.5c-1.6,0-3-0.3-4.2-1
		c-1.2-0.7-2.2-1.6-2.9-2.8s-1.1-2.5-1.1-4c0-1.5,0.4-2.8,1.1-4s1.7-2.1,3-2.8c1.3-0.7,2.7-1,4.3-1c1.3,0,2.5,0.2,3.6,0.7
		s2,1.1,2.7,1.9l-2.2,2.1c-1.1-1.1-2.4-1.7-3.9-1.7c-1,0-1.8,0.2-2.6,0.6s-1.3,1-1.7,1.7c-0.4,0.7-0.6,1.6-0.6,2.5
		c0,0.9,0.2,1.8,0.6,2.5c0.4,0.7,1,1.3,1.7,1.7c0.7,0.4,1.6,0.6,2.5,0.6c1,0,1.9-0.2,2.7-0.6V673.1z"/>
	<path class="st18" d="M1082.1,680.9l-2.9-4.2h-0.2h-3v4.2h-3.5v-15.1h6.5c1.3,0,2.5,0.2,3.5,0.7c1,0.4,1.7,1.1,2.3,1.9
		c0.5,0.8,0.8,1.8,0.8,2.9c0,1.1-0.3,2.1-0.8,2.9c-0.5,0.8-1.3,1.4-2.3,1.9l3.4,4.8H1082.1z M1081.2,669.4c-0.5-0.5-1.3-0.7-2.4-0.7
		h-2.8v5.2h2.8c1,0,1.8-0.2,2.4-0.7c0.5-0.5,0.8-1.1,0.8-1.9C1082,670.5,1081.8,669.8,1081.2,669.4z"/>
	<path class="st18" d="M1098.2,677.7h-7l-1.3,3.2h-3.6l6.7-15.1h3.4l6.7,15.1h-3.7L1098.2,677.7z M1097.1,675l-2.4-5.8l-2.4,5.8
		H1097.1z"/>
	<path class="st18" d="M1118.5,680.9l0-9l-4.4,7.4h-1.6l-4.4-7.2v8.8h-3.3v-15.1h2.9l5.6,9.4l5.6-9.4h2.9l0,15.1H1118.5z"/>
	<path class="st18" d="M1139,680.9l0-9l-4.4,7.4h-1.6l-4.4-7.2v8.8h-3.3v-15.1h2.9l5.6,9.4l5.6-9.4h2.9l0,15.1H1139z"/>
	<path class="st18" d="M1145.9,665.9h3.5v15.1h-3.5V665.9z"/>
	<path class="st18" d="M1166.8,665.9v15.1h-2.9l-7.5-9.1v9.1h-3.4v-15.1h2.9l7.5,9.1v-9.1H1166.8z"/>
	<path class="st18" d="M1180.5,673.1h3.2v6.1c-0.8,0.6-1.8,1.1-2.8,1.4c-1.1,0.3-2.2,0.5-3.2,0.5c-1.6,0-3-0.3-4.2-1
		c-1.2-0.7-2.2-1.6-2.9-2.8c-0.7-1.2-1.1-2.5-1.1-4c0-1.5,0.4-2.8,1.1-4c0.7-1.2,1.7-2.1,3-2.8c1.3-0.7,2.7-1,4.3-1
		c1.3,0,2.5,0.2,3.6,0.7c1.1,0.4,2,1.1,2.7,1.9l-2.2,2.1c-1.1-1.1-2.4-1.7-3.9-1.7c-1,0-1.8,0.2-2.6,0.6c-0.7,0.4-1.3,1-1.7,1.7
		c-0.4,0.7-0.6,1.6-0.6,2.5c0,0.9,0.2,1.8,0.6,2.5c0.4,0.7,1,1.3,1.7,1.7c0.7,0.4,1.6,0.6,2.5,0.6c1,0,1.9-0.2,2.7-0.6V673.1z"/>
</g>
<line class="st19" x1="865.4" y1="262.3" x2="865.4" y2="435.5"/>
<line class="st19" x1="1184.2" y1="705.5" x2="946.3" y2="705.5"/>
<g class="st17">
	<path class="st18" d="M797.8,1120.9v8h-32.2v-6.4l16.4-15.5c1.7-1.7,2.9-3.1,3.5-4.3c0.6-1.2,0.9-2.4,0.9-3.6c0-1.7-0.6-3-1.7-3.9
		c-1.2-0.9-2.9-1.4-5.1-1.4c-1.9,0-3.6,0.4-5.1,1.1c-1.5,0.7-2.8,1.8-3.8,3.2l-7.2-4.6c1.7-2.5,4-4.4,6.9-5.8
		c2.9-1.4,6.3-2.1,10-2.1c3.2,0,5.9,0.5,8.3,1.6s4.2,2.5,5.5,4.4s2,4.1,2,6.7c0,2.3-0.5,4.5-1.5,6.5c-1,2-2.9,4.3-5.7,6.9l-9.8,9.3
		H797.8z"/>
	<path class="st18" d="M818.4,1086.3v42.6h-9.9v-34.7H800v-7.9H818.4z"/>
	<path class="st18" d="M834.6,1127c-2.8-1.7-4.9-4.3-6.5-7.6c-1.6-3.3-2.3-7.3-2.3-11.8c0-4.6,0.8-8.5,2.3-11.8
		c1.6-3.3,3.7-5.8,6.5-7.6c2.8-1.7,5.9-2.6,9.4-2.6s6.7,0.9,9.4,2.6c2.8,1.7,4.9,4.3,6.5,7.6c1.6,3.3,2.3,7.3,2.3,11.8
		c0,4.6-0.8,8.5-2.3,11.8c-1.6,3.3-3.7,5.8-6.5,7.6c-2.8,1.7-5.9,2.6-9.4,2.6S837.4,1128.8,834.6,1127z M850.2,1117.9
		c1.5-2.2,2.2-5.7,2.2-10.4c0-4.7-0.7-8.1-2.2-10.4c-1.5-2.2-3.5-3.3-6.1-3.3c-2.6,0-4.6,1.1-6.1,3.3c-1.5,2.2-2.2,5.7-2.2,10.4
		c0,4.7,0.7,8.1,2.2,10.4c1.5,2.2,3.5,3.3,6.1,3.3C846.7,1121.3,848.7,1120.2,850.2,1117.9z"/>
</g>
<g class="st17">
	<path class="st18" d="M775.7,1162.8h-7l-1.3,3.2h-3.6l6.7-15.1h3.4l6.7,15.1h-3.7L775.7,1162.8z M774.6,1160.2l-2.4-5.8l-2.4,5.8
		H774.6z"/>
	<path class="st18" d="M796.1,1151v15.1h-2.9l-7.5-9.1v9.1h-3.4V1151h2.9l7.5,9.1v-9.1H796.1z"/>
	<path class="st18" d="M799.7,1151h3.5v15.1h-3.5V1151z"/>
	<path class="st18" d="M820.4,1166l0-9l-4.4,7.4h-1.6l-4.4-7.2v8.8h-3.3V1151h2.9l5.6,9.4l5.6-9.4h2.9l0,15.1H820.4z"/>
	<path class="st18" d="M837.2,1162.8h-7l-1.3,3.2h-3.6l6.7-15.1h3.4l6.7,15.1h-3.7L837.2,1162.8z M836.1,1160.2l-2.4-5.8l-2.4,5.8
		H836.1z"/>
	<path class="st18" d="M846.1,1153.8h-4.8v-2.8h13.1v2.8h-4.8v12.2h-3.5V1153.8z"/>
	<path class="st18" d="M856.3,1151h3.5v15.1h-3.5V1151z"/>
	<path class="st18" d="M866.4,1165.3c-1.3-0.7-2.2-1.6-2.9-2.8s-1.1-2.5-1.1-4c0-1.5,0.4-2.8,1.1-4s1.7-2.1,2.9-2.8
		c1.3-0.7,2.7-1,4.2-1c1.6,0,3,0.3,4.2,1c1.2,0.7,2.2,1.6,2.9,2.8s1.1,2.5,1.1,4c0,1.5-0.4,2.8-1.1,4s-1.7,2.1-2.9,2.8s-2.7,1-4.2,1
		C869.1,1166.3,867.7,1166,866.4,1165.3z M873.1,1162.7c0.7-0.4,1.3-1,1.7-1.7s0.6-1.6,0.6-2.5c0-0.9-0.2-1.8-0.6-2.5
		s-1-1.3-1.7-1.7c-0.7-0.4-1.5-0.6-2.4-0.6s-1.7,0.2-2.4,0.6c-0.7,0.4-1.3,1-1.7,1.7c-0.4,0.7-0.6,1.6-0.6,2.5
		c0,0.9,0.2,1.8,0.6,2.5c0.4,0.7,1,1.3,1.7,1.7c0.7,0.4,1.5,0.6,2.4,0.6S872.3,1163.1,873.1,1162.7z"/>
	<path class="st18" d="M895.3,1151v15.1h-2.9l-7.5-9.1v9.1h-3.4V1151h2.9l7.5,9.1v-9.1H895.3z"/>
</g>
<line class="st19" x1="746" y1="1166.7" x2="746" y2="945.7"/>
<g class="st17">
	<path class="st18" d="M499.7,1110.6c1.1,1.7,1.7,3.7,1.7,5.9c0,2.6-0.8,4.9-2.3,6.9c-1.5,2-3.6,3.5-6.3,4.6
		c-2.7,1.1-5.9,1.6-9.4,1.6c-3.6,0-6.7-0.5-9.4-1.6c-2.7-1.1-4.8-2.6-6.3-4.6c-1.5-2-2.2-4.3-2.2-6.9c0-2.2,0.6-4.2,1.7-5.9
		c1.1-1.7,2.7-3.1,4.8-4.1c-1.6-1-2.8-2.2-3.7-3.7s-1.3-3.2-1.3-5.1c0-2.5,0.7-4.6,2.1-6.5c1.4-1.8,3.3-3.2,5.8-4.2
		c2.5-1,5.3-1.5,8.5-1.5c3.2,0,6.1,0.5,8.6,1.5c2.5,1,4.4,2.4,5.8,4.2c1.4,1.8,2.1,4,2.1,6.5c0,1.9-0.4,3.6-1.3,5.1
		s-2.1,2.7-3.7,3.7C497,1107.5,498.6,1108.9,499.7,1110.6z M489.2,1120.7c1.4-1.1,2.2-2.6,2.2-4.5s-0.7-3.3-2.2-4.4
		c-1.4-1.1-3.4-1.6-5.9-1.6c-2.4,0-4.4,0.5-5.8,1.6c-1.4,1.1-2.1,2.6-2.1,4.4c0,1.9,0.7,3.4,2.1,4.5c1.4,1.1,3.3,1.6,5.8,1.6
		C485.8,1122.4,487.8,1121.8,489.2,1120.7z M478.6,1094.2c-1.2,1-1.8,2.3-1.8,3.9c0,1.6,0.6,2.9,1.8,3.8c1.2,0.9,2.8,1.4,4.8,1.4
		c2,0,3.7-0.5,4.9-1.4c1.2-0.9,1.8-2.2,1.8-3.8c0-1.7-0.6-3-1.8-3.9c-1.2-1-2.8-1.4-4.9-1.4C481.4,1092.8,479.8,1093.3,478.6,1094.2
		z"/>
	<path class="st18" d="M514.7,1127c-2.8-1.7-4.9-4.3-6.5-7.6c-1.6-3.3-2.3-7.3-2.3-11.8c0-4.6,0.8-8.5,2.3-11.8
		c1.6-3.3,3.7-5.8,6.5-7.6c2.8-1.7,5.9-2.6,9.4-2.6s6.7,0.9,9.4,2.6c2.8,1.7,4.9,4.3,6.5,7.6c1.6,3.3,2.3,7.3,2.3,11.8
		c0,4.6-0.8,8.5-2.3,11.8c-1.6,3.3-3.7,5.8-6.5,7.6c-2.8,1.7-5.9,2.6-9.4,2.6S517.5,1128.8,514.7,1127z M530.3,1117.9
		c1.5-2.2,2.2-5.7,2.2-10.4c0-4.7-0.7-8.1-2.2-10.4c-1.5-2.2-3.5-3.3-6.1-3.3c-2.6,0-4.6,1.1-6.1,3.3c-1.5,2.2-2.2,5.7-2.2,10.4
		c0,4.7,0.7,8.1,2.2,10.4c1.5,2.2,3.5,3.3,6.1,3.3C526.8,1121.3,528.8,1120.2,530.3,1117.9z"/>
</g>
<g class="st17">
	<path class="st18" d="M387.1,1165.3c-1.2-0.7-2.2-1.6-2.9-2.8s-1.1-2.5-1.1-4c0-1.5,0.4-2.8,1.1-4s1.7-2.1,2.9-2.8s2.6-1,4.2-1
		c1.3,0,2.5,0.2,3.5,0.7s1.9,1.1,2.7,2l-2.2,2.1c-1-1.2-2.3-1.8-3.8-1.8c-0.9,0-1.8,0.2-2.5,0.6c-0.7,0.4-1.3,1-1.7,1.7
		s-0.6,1.6-0.6,2.5c0,0.9,0.2,1.8,0.6,2.5s1,1.3,1.7,1.7c0.7,0.4,1.6,0.6,2.5,0.6c1.5,0,2.8-0.6,3.8-1.8l2.2,2.1
		c-0.7,0.9-1.6,1.5-2.7,2c-1.1,0.5-2.2,0.7-3.5,0.7C389.8,1166.3,388.4,1166,387.1,1165.3z"/>
	<path class="st18" d="M402.6,1165.3c-1.3-0.7-2.2-1.6-2.9-2.8s-1.1-2.5-1.1-4c0-1.5,0.4-2.8,1.1-4s1.7-2.1,2.9-2.8
		c1.3-0.7,2.7-1,4.2-1c1.6,0,3,0.3,4.2,1c1.2,0.7,2.2,1.6,2.9,2.8s1.1,2.5,1.1,4c0,1.5-0.4,2.8-1.1,4s-1.7,2.1-2.9,2.8s-2.7,1-4.2,1
		C405.3,1166.3,403.9,1166,402.6,1165.3z M409.2,1162.7c0.7-0.4,1.3-1,1.7-1.7s0.6-1.6,0.6-2.5c0-0.9-0.2-1.8-0.6-2.5
		s-1-1.3-1.7-1.7c-0.7-0.4-1.5-0.6-2.4-0.6s-1.7,0.2-2.4,0.6c-0.7,0.4-1.3,1-1.7,1.7s-0.6,1.6-0.6,2.5c0,0.9,0.2,1.8,0.6,2.5
		s1,1.3,1.7,1.7c0.7,0.4,1.5,0.6,2.4,0.6S408.5,1163.1,409.2,1162.7z"/>
	<path class="st18" d="M431.5,1151v15.1h-2.9l-7.5-9.1v9.1h-3.4V1151h2.9l7.5,9.1v-9.1H431.5z"/>
	<path class="st18" d="M438.1,1165.3c-1.2-0.7-2.2-1.6-2.9-2.8s-1.1-2.5-1.1-4c0-1.5,0.4-2.8,1.1-4s1.7-2.1,2.9-2.8s2.6-1,4.2-1
		c1.3,0,2.5,0.2,3.5,0.7s1.9,1.1,2.7,2l-2.2,2.1c-1-1.2-2.3-1.8-3.8-1.8c-0.9,0-1.8,0.2-2.5,0.6c-0.7,0.4-1.3,1-1.7,1.7
		s-0.6,1.6-0.6,2.5c0,0.9,0.2,1.8,0.6,2.5s1,1.3,1.7,1.7c0.7,0.4,1.6,0.6,2.5,0.6c1.5,0,2.8-0.6,3.8-1.8l2.2,2.1
		c-0.7,0.9-1.6,1.5-2.7,2c-1.1,0.5-2.2,0.7-3.5,0.7C440.8,1166.3,439.4,1166,438.1,1165.3z"/>
	<path class="st18" d="M462.5,1163.2v2.8h-11.7V1151h11.4v2.8h-7.9v3.3h7v2.7h-7v3.5H462.5z"/>
	<path class="st18" d="M475.3,1151.6c1,0.4,1.7,1.1,2.3,1.9c0.5,0.8,0.8,1.8,0.8,2.9c0,1.1-0.3,2.1-0.8,2.9
		c-0.5,0.8-1.3,1.5-2.3,1.9c-1,0.4-2.1,0.7-3.5,0.7h-3v4.2h-3.5V1151h6.5C473.1,1151,474.3,1151.2,475.3,1151.6z M474,1158.4
		c0.5-0.5,0.8-1.1,0.8-1.9c0-0.8-0.3-1.5-0.8-1.9s-1.3-0.7-2.4-0.7h-2.8v5.2h2.8C472.7,1159,473.5,1158.8,474,1158.4z"/>
	<path class="st18" d="M483.5,1153.8h-4.8v-2.8h13.1v2.8H487v12.2h-3.5V1153.8z"/>
	<path class="st18" d="M509.7,1162.8h-7l-1.3,3.2h-3.6l6.7-15.1h3.4l6.7,15.1h-3.7L509.7,1162.8z M508.6,1160.2l-2.4-5.8l-2.4,5.8
		H508.6z"/>
	<path class="st18" d="M525.9,1166l-2.9-4.2h-0.2h-3v4.2h-3.5V1151h6.5c1.3,0,2.5,0.2,3.5,0.7c1,0.4,1.7,1.1,2.3,1.9
		c0.5,0.8,0.8,1.8,0.8,2.9c0,1.1-0.3,2.1-0.8,2.9c-0.5,0.8-1.3,1.4-2.3,1.9l3.4,4.8H525.9z M525,1154.5c-0.5-0.5-1.3-0.7-2.4-0.7
		h-2.8v5.2h2.8c1,0,1.8-0.2,2.4-0.7c0.5-0.5,0.8-1.1,0.8-1.9C525.8,1155.6,525.5,1154.9,525,1154.5z"/>
	<path class="st18" d="M535,1153.8h-4.8v-2.8h13.1v2.8h-4.8v12.2H535V1153.8z"/>
</g>
<line class="st19" x1="559.7" y1="1166.7" x2="559.7" y2="952.9"/>
<g class="st17">
	<path class="st18" d="M306.7,959.5v42.6h-9.9v-34.7h-8.5v-7.9H306.7z"/>
	<path class="st18" d="M353.1,993.2h-6.9v9h-9.6v-9h-23v-6.6l20.1-27h10.4l-18.6,25.6h11.4v-8h9.3v8h6.9V993.2z"/>
	<path class="st18" d="M364.9,1000.2c-2.8-1.7-4.9-4.3-6.5-7.6c-1.6-3.3-2.3-7.3-2.3-11.8c0-4.6,0.8-8.5,2.3-11.8
		c1.6-3.3,3.7-5.8,6.5-7.6c2.8-1.7,5.9-2.6,9.4-2.6s6.7,0.9,9.4,2.6c2.8,1.7,4.9,4.3,6.5,7.6c1.6,3.3,2.3,7.3,2.3,11.8
		c0,4.6-0.8,8.5-2.3,11.8c-1.6,3.3-3.7,5.8-6.5,7.6c-2.8,1.7-5.9,2.6-9.4,2.6S367.6,1002,364.9,1000.2z M380.4,991.2
		c1.5-2.2,2.2-5.7,2.2-10.4c0-4.7-0.7-8.1-2.2-10.4c-1.5-2.2-3.5-3.3-6.1-3.3c-2.6,0-4.6,1.1-6.1,3.3c-1.5,2.2-2.2,5.7-2.2,10.4
		c0,4.7,0.7,8.1,2.2,10.4c1.5,2.2,3.5,3.3,6.1,3.3C376.9,994.5,379,993.4,380.4,991.2z"/>
</g>
<g class="st17">
	<path class="st18" d="M323.9,1036h-7l-1.3,3.2H312l6.7-15.1h3.4l6.7,15.1h-3.7L323.9,1036z M322.8,1033.4l-2.4-5.8l-2.4,5.8H322.8z
		"/>
	<path class="st18" d="M331.8,1037.7c-1.2-1.2-1.8-2.9-1.8-5.1v-8.4h3.5v8.3c0,2.7,1.1,4,3.4,4c1.1,0,1.9-0.3,2.5-1
		c0.6-0.7,0.9-1.7,0.9-3.1v-8.3h3.4v8.4c0,2.2-0.6,3.9-1.8,5.1c-1.2,1.2-2.9,1.8-5,1.8S333,1038.9,331.8,1037.7z"/>
	<path class="st18" d="M347.1,1024.2h6.8c1.6,0,3.1,0.3,4.3,0.9c1.3,0.6,2.2,1.5,2.9,2.6s1,2.5,1,4c0,1.5-0.3,2.8-1,4
		s-1.7,2-2.9,2.6c-1.3,0.6-2.7,0.9-4.3,0.9h-6.8V1024.2z M353.8,1036.4c1.5,0,2.7-0.4,3.6-1.3c0.9-0.8,1.3-2,1.3-3.4
		c0-1.4-0.4-2.6-1.3-3.4c-0.9-0.8-2.1-1.3-3.6-1.3h-3.2v9.3H353.8z"/>
	<path class="st18" d="M364.9,1024.2h3.5v15.1h-3.5V1024.2z"/>
	<path class="st18" d="M375,1038.5c-1.3-0.7-2.2-1.6-2.9-2.8s-1.1-2.5-1.1-4c0-1.5,0.4-2.8,1.1-4s1.7-2.1,2.9-2.8
		c1.3-0.7,2.7-1,4.2-1c1.6,0,3,0.3,4.2,1c1.2,0.7,2.2,1.6,2.9,2.8s1.1,2.5,1.1,4c0,1.5-0.4,2.8-1.1,4s-1.7,2.1-2.9,2.8s-2.7,1-4.2,1
		C377.7,1039.5,376.3,1039.2,375,1038.5z M381.7,1035.9c0.7-0.4,1.3-1,1.7-1.7s0.6-1.6,0.6-2.5c0-0.9-0.2-1.8-0.6-2.5
		s-1-1.3-1.7-1.7c-0.7-0.4-1.5-0.6-2.4-0.6s-1.7,0.2-2.4,0.6c-0.7,0.4-1.3,1-1.7,1.7s-0.6,1.6-0.6,2.5c0,0.9,0.2,1.8,0.6,2.5
		s1,1.3,1.7,1.7c0.7,0.4,1.5,0.6,2.4,0.6S380.9,1036.3,381.7,1035.9z"/>
</g>
<line class="st19" x1="408.6" y1="1039.9" x2="408.6" y2="862.5"/>
<g class="st17">
	<path class="st18" d="M181.8,708.8v42.6H172v-34.7h-8.5v-7.9H181.8z"/>
	<path class="st18" d="M221.1,743.4v8h-32.2V745l16.4-15.5c1.7-1.7,2.9-3.1,3.5-4.3c0.6-1.2,0.9-2.4,0.9-3.6c0-1.7-0.6-3-1.7-3.9
		c-1.2-0.9-2.9-1.4-5.1-1.4c-1.9,0-3.6,0.4-5.1,1.1c-1.5,0.7-2.8,1.8-3.8,3.2L187,716c1.7-2.5,4-4.4,6.9-5.8c2.9-1.4,6.3-2.1,10-2.1
		c3.2,0,5.9,0.5,8.3,1.6c2.4,1,4.2,2.5,5.5,4.4c1.3,1.9,2,4.1,2,6.7c0,2.3-0.5,4.5-1.5,6.5c-1,2-2.9,4.3-5.7,6.9l-9.8,9.3H221.1z"/>
	<path class="st18" d="M233.9,749.5c-2.8-1.7-4.9-4.3-6.5-7.6c-1.6-3.3-2.3-7.3-2.3-11.8c0-4.6,0.8-8.5,2.3-11.8
		c1.6-3.3,3.7-5.8,6.5-7.6c2.8-1.7,5.9-2.6,9.4-2.6s6.7,0.9,9.4,2.6c2.8,1.7,4.9,4.3,6.5,7.6c1.6,3.3,2.3,7.3,2.3,11.8
		c0,4.6-0.8,8.5-2.3,11.8c-1.6,3.3-3.7,5.8-6.5,7.6c-2.8,1.7-5.9,2.6-9.4,2.6S236.7,751.3,233.9,749.5z M249.5,740.5
		c1.5-2.2,2.2-5.7,2.2-10.4c0-4.7-0.7-8.1-2.2-10.4c-1.5-2.2-3.5-3.3-6.1-3.3c-2.6,0-4.6,1.1-6.1,3.3c-1.5,2.2-2.2,5.7-2.2,10.4
		c0,4.7,0.7,8.1,2.2,10.4c1.5,2.2,3.5,3.3,6.1,3.3C245.9,743.8,248,742.7,249.5,740.5z"/>
</g>
<g class="st17">
	<path class="st18" d="M106.3,788.5l0-9l-4.4,7.4h-1.6l-4.4-7.2v8.8h-3.3v-15.1h2.9l5.6,9.4l5.6-9.4h2.9l0,15.1H106.3z"/>
	<path class="st18" d="M123.1,785.3h-7l-1.3,3.2h-3.6l6.7-15.1h3.4l6.7,15.1h-3.7L123.1,785.3z M122,782.7l-2.4-5.8l-2.4,5.8H122z"
		/>
	<path class="st18" d="M143.4,773.5v15.1h-2.9l-7.5-9.1v9.1h-3.4v-15.1h2.9l7.5,9.1v-9.1H143.4z"/>
	<path class="st18" d="M156.9,785.3h-7l-1.3,3.2H145l6.7-15.1h3.4l6.7,15.1h-3.7L156.9,785.3z M155.8,782.7l-2.4-5.8l-2.4,5.8H155.8
		z"/>
	<path class="st18" d="M173.5,780.8h3.2v6.1c-0.8,0.6-1.8,1.1-2.8,1.4c-1.1,0.3-2.2,0.5-3.2,0.5c-1.6,0-3-0.3-4.2-1
		c-1.2-0.7-2.2-1.6-2.9-2.8s-1.1-2.5-1.1-4c0-1.5,0.4-2.8,1.1-4s1.7-2.1,3-2.8c1.3-0.7,2.7-1,4.3-1c1.3,0,2.5,0.2,3.6,0.7
		s2,1.1,2.7,1.9l-2.2,2.1c-1.1-1.1-2.4-1.7-3.9-1.7c-1,0-1.8,0.2-2.6,0.6c-0.7,0.4-1.3,1-1.7,1.7c-0.4,0.7-0.6,1.6-0.6,2.5
		c0,0.9,0.2,1.8,0.6,2.5c0.4,0.7,1,1.3,1.7,1.7c0.7,0.4,1.6,0.6,2.5,0.6c1,0,1.9-0.2,2.7-0.6V780.8z"/>
	<path class="st18" d="M191.5,785.8v2.8h-11.7v-15.1h11.4v2.8h-7.9v3.3h7v2.7h-7v3.5H191.5z"/>
	<path class="st18" d="M208,788.5l0-9l-4.4,7.4H202l-4.4-7.2v8.8h-3.3v-15.1h2.9l5.6,9.4l5.6-9.4h2.9l0,15.1H208z"/>
	<path class="st18" d="M226.5,785.8v2.8h-11.7v-15.1h11.4v2.8h-7.9v3.3h7v2.7h-7v3.5H226.5z"/>
	<path class="st18" d="M243.1,773.5v15.1h-2.9l-7.5-9.1v9.1h-3.4v-15.1h2.9l7.5,9.1v-9.1H243.1z"/>
	<path class="st18" d="M249.8,776.3H245v-2.8h13.1v2.8h-4.8v12.2h-3.5V776.3z"/>
</g>
<line class="st19" x1="334.4" y1="726.3" x2="276.5" y2="726.3"/>
<g class="st17">
	<path class="st18" d="M222.4,202.8c2,2.2,3,4.9,3,8.1c0,2.5-0.6,4.8-1.9,6.9c-1.3,2.1-3.3,3.8-5.9,5c-2.7,1.3-5.9,1.9-9.8,1.9
		c-3,0-6-0.4-8.9-1.2c-2.9-0.8-5.4-1.9-7.4-3.4l3.8-7.6c1.6,1.2,3.5,2.2,5.6,2.8c2.1,0.7,4.3,1,6.5,1c2.5,0,4.4-0.5,5.8-1.4
		c1.4-1,2.1-2.3,2.1-4c0-3.5-2.7-5.2-8-5.2H203v-6.5l8.8-9.9h-18.1v-7.9h29.8v6.4l-9.6,11C217.6,199.3,220.5,200.7,222.4,202.8z"/>
	<path class="st18" d="M257.9,198.8c2.2,1.1,4,2.6,5.3,4.7c1.3,2,1.9,4.3,1.9,7c0,2.8-0.7,5.3-2.1,7.5c-1.4,2.2-3.4,3.8-5.8,5
		c-2.5,1.2-5.2,1.7-8.2,1.7c-6,0-10.6-1.8-14-5.5c-3.4-3.7-5.1-8.9-5.1-15.7c0-4.8,0.9-9,2.7-12.4c1.8-3.5,4.4-6.1,7.6-7.9
		c3.3-1.8,7.1-2.7,11.4-2.7c2.3,0,4.5,0.3,6.5,0.8c2.1,0.5,3.9,1.2,5.3,2.2l-3.7,7.2c-2.1-1.4-4.8-2.1-8-2.1c-3.6,0-6.5,1.1-8.6,3.2
		c-2.1,2.1-3.2,5.2-3.4,9.2c2.5-2.5,6-3.8,10.5-3.8C253.2,197.2,255.7,197.7,257.9,198.8z M253.7,215.6c1.3-1.1,2-2.7,2-4.6
		c0-1.9-0.7-3.5-2-4.7c-1.3-1.2-3.1-1.7-5.3-1.7c-2.2,0-3.9,0.6-5.3,1.8c-1.4,1.2-2.1,2.7-2.1,4.6c0,1.9,0.7,3.4,2,4.6
		c1.3,1.2,3.2,1.8,5.5,1.8C250.6,217.3,252.3,216.7,253.7,215.6z"/>
	<path class="st18" d="M277.6,222c-2.8-1.7-4.9-4.3-6.5-7.6c-1.6-3.3-2.3-7.3-2.3-11.8c0-4.6,0.8-8.5,2.3-11.8
		c1.6-3.3,3.7-5.8,6.5-7.6c2.8-1.7,5.9-2.6,9.4-2.6s6.7,0.9,9.4,2.6c2.8,1.7,4.9,4.3,6.5,7.6c1.6,3.3,2.3,7.3,2.3,11.8
		c0,4.6-0.8,8.5-2.3,11.8c-1.6,3.3-3.7,5.8-6.5,7.6c-2.8,1.7-5.9,2.6-9.4,2.6S280.4,223.8,277.6,222z M293.2,213
		c1.5-2.2,2.2-5.7,2.2-10.4c0-4.7-0.7-8.1-2.2-10.4c-1.5-2.2-3.5-3.3-6.1-3.3c-2.6,0-4.6,1.1-6.1,3.3c-1.5,2.2-2.2,5.7-2.2,10.4
		c0,4.7,0.7,8.1,2.2,10.4c1.5,2.2,3.5,3.3,6.1,3.3C289.7,216.3,291.7,215.2,293.2,213z"/>
</g>
<g class="st17">
	<path class="st18" d="M181.9,261.1l0-9l-4.4,7.4h-1.6l-4.4-7.2v8.8h-3.3V246h2.9l5.6,9.4l5.6-9.4h2.9l0,15.1H181.9z"/>
	<path class="st18" d="M198.7,257.8h-7l-1.3,3.2h-3.6l6.7-15.1h3.4l6.7,15.1H200L198.7,257.8z M197.6,255.2l-2.4-5.8l-2.4,5.8H197.6
		z"/>
	<path class="st18" d="M214.8,261.1l-2.9-4.2h-0.2h-3v4.2h-3.5V246h6.5c1.3,0,2.5,0.2,3.5,0.7c1,0.4,1.7,1.1,2.3,1.9
		c0.5,0.8,0.8,1.8,0.8,2.9c0,1.1-0.3,2.1-0.8,2.9c-0.5,0.8-1.3,1.4-2.3,1.9l3.4,4.8H214.8z M213.9,249.5c-0.5-0.5-1.3-0.7-2.4-0.7
		h-2.8v5.2h2.8c1,0,1.8-0.2,2.4-0.7c0.5-0.5,0.8-1.1,0.8-1.9C214.7,250.6,214.5,250,213.9,249.5z"/>
	<path class="st18" d="M226.5,255.1l-2,2.1v3.8H221V246h3.5v7l6.7-7h3.9l-6.2,6.7l6.6,8.3h-4.1L226.5,255.1z"/>
	<path class="st18" d="M248.6,258.3v2.8H237V246h11.4v2.8h-7.9v3.3h7v2.7h-7v3.5H248.6z"/>
	<path class="st18" d="M254.5,248.8h-4.8V246h13.1v2.8H258v12.2h-3.5V248.8z"/>
	<path class="st18" d="M264.7,246h3.5v15.1h-3.5V246z"/>
	<path class="st18" d="M285.5,246v15.1h-2.9l-7.5-9.1v9.1h-3.4V246h2.9l7.5,9.1V246H285.5z"/>
	<path class="st18" d="M299.3,253.3h3.2v6.1c-0.8,0.6-1.8,1.1-2.8,1.4c-1.1,0.3-2.2,0.5-3.2,0.5c-1.6,0-3-0.3-4.2-1
		c-1.2-0.7-2.2-1.6-2.9-2.8s-1.1-2.5-1.1-4c0-1.5,0.4-2.8,1.1-4s1.7-2.1,3-2.8c1.3-0.7,2.7-1,4.3-1c1.3,0,2.5,0.2,3.6,0.7
		s2,1.1,2.7,1.9l-2.2,2.1c-1.1-1.1-2.4-1.7-3.9-1.7c-1,0-1.8,0.2-2.6,0.6c-0.7,0.4-1.3,1-1.7,1.7c-0.4,0.7-0.6,1.6-0.6,2.5
		c0,0.9,0.2,1.8,0.6,2.5c0.4,0.7,1,1.3,1.7,1.7c0.7,0.4,1.6,0.6,2.5,0.6c1,0,1.9-0.2,2.7-0.6V253.3z"/>
</g>
<line class="st19" x1="367" y1="395.5" x2="245.6" y2="274.1"/>
</svg>
