<?xml version="1.0" encoding="utf-8"?>
<!-- Generator: Adobe Illustrator 24.3.0, SVG Export Plug-In . SVG Version: 6.00 Build 0)  -->
<svg version="1.1" id="Layer_1" xmlns="http://www.w3.org/2000/svg" xmlns:xlink="http://www.w3.org/1999/xlink" x="0px" y="0px"
	 viewBox="0 0 600 600" style="enable-background:new 0 0 600 600;" xml:space="preserve">
<style type="text/css">
	.st0{opacity:0.47;}
	.st1{fill:#76D1FF;}
	.st2{opacity:0.33;}
	.st3{fill:#4E4E4E;stroke:#000000;stroke-linecap:round;stroke-linejoin:round;}
	.st4{fill:#4E4E4E;}
	.st5{opacity:0.17;fill:#4E4E4E;enable-background:new    ;}
	.st6{fill:#4E4E4E;stroke:#46505C;stroke-width:4;stroke-linecap:round;stroke-linejoin:round;}
	.st7{fill:#4E4E4E;stroke:#46505C;stroke-linecap:round;stroke-linejoin:round;}
	.st8{fill:#4E4E4E;stroke:#E6F3FF;stroke-width:2;stroke-miterlimit:10;}
	.st9{fill:#4E4E4E;stroke:#626C84;stroke-linecap:round;stroke-linejoin:round;}
	.st10{opacity:0.25;fill:#4E4E4E;enable-background:new    ;}
	.st11{fill:#4E4E4E;stroke:#46505C;stroke-width:2;stroke-linecap:round;stroke-linejoin:round;}
	
		.st12{opacity:0.33;fill:#4E4E4E;stroke:#46505C;stroke-width:4;stroke-linecap:round;stroke-linejoin:round;enable-background:new    ;}
	.st13{fill:#FFFFFF;stroke:#E6F3FF;stroke-width:2;stroke-miterlimit:10;}
	
		.st14{opacity:0.18;fill:#4E4E4E;stroke:#46505C;stroke-width:4;stroke-linecap:round;stroke-linejoin:round;enable-background:new    ;}
	.st15{fill:#46505C;}
	.st16{fill:#845B5B;}
	.st17{opacity:0.33;fill:#845B5B;enable-background:new    ;}
	.st18{fill:#626C84;}
	.st19{opacity:0.17;fill:#626C84;enable-background:new    ;}
	.st20{opacity:0.1;fill:#FFFFFF;enable-background:new    ;}
	.st21{opacity:0.1;}
	.st22{fill:#FFFFFF;}
	.st23{fill:#FD848E;}
	.st24{opacity:6.000000e-02;}
	.st25{fill:#E6F3FF;}
	.st26{opacity:0.12;fill:#FFFFFF;enable-background:new    ;}
	.st27{opacity:0.25;fill:#626C84;enable-background:new    ;}
	.st28{opacity:0.52;fill:#FFFFFF;enable-background:new    ;}
	.st29{opacity:0.72;}
</style>
<g>
	<g id="Layer_1_1_">
		<g class="st0">
			<path class="st1" d="M449.7,200.2l103-27.6c12.1-3.2,19.2-15.6,16-27.7l0,0c-3.2-12.1-15.6-19.2-27.7-16l-162.3,43.5
				c-12.1,3.2-24.5-3.9-27.7-16c0,0,0,0,0,0l0,0c-3.2-12.1,3.9-24.5,16-27.7l73.9-19.8c12.1-3.2,19.2-15.6,16-27.7l0,0
				c-3.2-12.1-15.6-19.2-27.7-16L53.8,165.6c-12.1,3.2-19.2,15.6-16,27.7l0,0c16.7,49.2,97.2-32.9,113.9,16.4l0,0
				c3.2,12.1-3.9,24.5-16,27.7c0,0-100,26.8-100,26.8c-12.1,3.2-19.2,15.6-16,27.7l0,0c16.4,49.6,101.5-34.3,117.9,15.3l0,0
				c3.2,12.1-3.9,24.5-16,27.7c-13.9,2-24.3,14.8-20.4,28.9l0,0c3.2,12.1,15.6,19.2,27.7,16c13-5.2,28.3,0.9,31.9,14.9l0,0
				c3.2,12.1-3.9,24.5-16,27.7l-62.2,16.7c-12.1,3.2-19.2,15.6-16,27.7l0,0c3.2,12.1,15.6,19.2,27.7,16l113.6-30.4
				c12.1-3.2,24.5,3.9,27.7,16c0,0,0,0,0,0l0,0c7.4,44.2-57.6,16.1-50.2,60.3l0,0c3.2,12.1,15.6,19.2,27.7,16
				c0,0,289.3-77.5,289.3-77.5c12.1-3.2,19.2-15.6,16-27.7l0,0c-3.2-12.1-15.6-19.2-27.7-16c-14.5,5.9-31.6,3.1-36.2-13.7l0,0
				c-3.2-12.1,3.9-24.5,16-27.7l56-15c12.1-3.2,19.2-15.6,16-27.7c0,0,0,0,0,0l0,0c-3.2-12.1-15.6-19.2-27.7-16
				c0,0-79.4,21.3-79.4,21.3c-12.1,3.2-24.5-3.9-27.7-16c0,0,0,0,0,0l0,0c-10-50.8,98.2-19.7,88.2-70.5l0,0
				c-3.2-12.1-15.6-19.3-27.7-16c-13.6,5.8-30.5,1.3-34.5-14.2l0,0C430.4,215.8,437.6,203.4,449.7,200.2z"/>
			<path class="st1" d="M538.4,223.2c31.2-13.4,49.9,31.1,17.7,42.1C524.9,278.8,506.3,234.3,538.4,223.2z"/>
		</g>
		<g class="st2">
			<path class="st3" d="M191.9,261.8c0,0,232,0,232,0c7.7,0,14,6.3,14,14c-0.1,11.5,3.1,31.2-14,31.5c0,0-232,0-232,0
				c-17.2-0.4-13.9-19.8-14-31.5C177.9,268.1,184.2,261.8,191.9,261.8z"/>
			<path class="st4" d="M191.9,261.8c0,0,232,0,232,0c7.7,0,14,6.3,14,14c-0.1,11.5,3.1,31.2-14,31.5c0,0-232,0-232,0
				c-17.2-0.4-13.9-19.8-14-31.5C177.9,268.1,184.2,261.8,191.9,261.8z"/>
			<path class="st5" d="M191.9,261.8h232c7.7,0,14,6.3,14,14c-1.1,7.5,4.5,29.2-8.5,29c-0.1,0-243,0-243.1,0
				c-4.6-0.1-8.3-3.9-8.3-8.5l0,0C178.4,284.5,173.8,262,191.9,261.8z"/>
			<path class="st6" d="M191.9,261.8c0,0,232,0,232,0c7.7,0,14,6.3,14,14c-0.1,11.5,3.1,31.2-14,31.5c0,0-232,0-232,0
				c-17.2-0.4-13.9-19.8-14-31.5C177.9,268.1,184.2,261.8,191.9,261.8z"/>
			<rect x="195.9" y="267" class="st4" width="224" height="34.9"/>
			<rect x="195.9" y="267" class="st7" width="224" height="34.9"/>
			<path class="st4" d="M192,307.3h232c7.7,0,14,6.3,14,14v144c0,7.7-6.3,14-14,14H192c-7.7,0-14-6.3-14-14v-144
				C178,313.6,184.2,307.3,192,307.3z"/>
			<path class="st8" d="M434,321.3v144c0,5.5-4.5,10-10,10H192c-5.5,0-10-4.5-10-10v-144c0-5.5,4.5-10,10-10h232
				C429.5,311.3,434,315.8,434,321.3z"/>
			<path class="st4" d="M291.9,471.5H324c4.2-0.1,4.2,4.8,4,7.8h-40.1l0,0C287.7,476.3,287.7,471.4,291.9,471.5z"/>
			<path class="st6" d="M192,307.3h232c7.7,0,14,6.3,14,14v144c0,7.7-6.3,14-14,14H192c-7.7,0-14-6.3-14-14v-144
				C178,313.6,184.2,307.3,192,307.3z"/>
			<path class="st4" d="M195.9,320.7h224c6.9-3.7,1.3,88,3,89c0,1.7-1.3,3-3,3H196c-1.7,0-3-1.3-3-3
				C194.6,408.3,189.1,317.4,195.9,320.7z"/>
			<path class="st9" d="M225,390.2c16.3,0.3,12.7-3.2,13,13c0.6,2-12.3,0.6-13,1c-0.6,0-1-0.4-1-1C224.5,402.5,223,389.7,225,390.2z
				"/>
			<path class="st9" d="M203.4,390.2c16.3,0.3,12.7-3.2,13,13c0.6,2-12.3,0.6-13,1c-0.6,0-1-0.4-1-1
				C202.8,402.5,201.3,389.7,203.4,390.2z"/>
			<path class="st9" d="M246.7,390.2c1,1,99.7-1.9,99.6,1c-0.4,0.8,1,13.5-1,13c-1-1-99.7,1.9-99.6-1
				C246,402.5,244.7,389.7,246.7,390.2z"/>
			<path class="st9" d="M354.9,390.2c16.3,0.3,12.7-3.2,13,13c0.6,2-12.3,0.6-13,1c-0.6,0-1-0.4-1-1
				C354.3,402.5,352.8,389.7,354.9,390.2z"/>
			<path class="st9" d="M390.5,398.1c0.9,0.4,9.3-1,9,1c-0.3,0.9,0.8,5.2-1,5.1c-0.9-0.4-9.3,1-9-1
				C389.8,402.3,388.7,398,390.5,398.1z"/>
			<path class="st9" d="M390.5,390.2c0.9,0.4,9.3-1,9,1c-0.3,0.9,0.8,5.2-1,5.1c-0.9-0.4-9.3,1-9-1
				C389.8,394.5,388.7,390.1,390.5,390.2z"/>
			<path class="st9" d="M404.5,398.1c0.9,0.4,9.3-1,9,1c-0.3,0.9,0.8,5.2-1,5.1c-0.9-0.4-9.3,1-9-1
				C403.8,402.3,402.7,398,404.5,398.1z"/>
			<path class="st9" d="M376.5,398.1c0.9,0.4,9.3-1,9,1c-0.3,0.9,0.8,5.2-1,5.1c-0.9-0.4-9.3,1-9-1
				C375.8,402.3,374.7,398,376.5,398.1z"/>
			<path class="st9" d="M203.4,370.3H235c0.6,0,1,0.4,1,1c-0.4,0.8,1.1,13.5-1,13c0,0-31.6,0-31.6,0c-2.1,0.6-0.6-12.3-1-13
				C202.4,370.8,202.8,370.3,203.4,370.3z"/>
			<path class="st9" d="M244.9,370.3c16.3,0.3,12.7-3.2,13,13c0.6,2-12.3,0.6-13,1c-0.6,0-1-0.4-1-1
				C244.3,382.6,242.8,369.8,244.9,370.3z"/>
			<path class="st9" d="M266.5,370.3c16.3,0.3,12.7-3.2,13,13c0.6,2-12.3,0.6-13,1c-0.6,0-1-0.4-1-1
				C265.9,382.6,264.4,369.8,266.5,370.3z"/>
			<path class="st9" d="M288.1,370.3c16.3,0.3,12.7-3.2,13,13c0.6,2-12.3,0.6-13,1c-0.6,0-1-0.4-1-1
				C287.5,382.6,286.1,369.8,288.1,370.3z"/>
			<path class="st9" d="M309.8,370.3c16.3,0.3,12.7-3.2,13,13c0.6,2-12.3,0.6-13,1c-0.6,0-1-0.4-1-1
				C309.2,382.6,307.7,369.8,309.8,370.3z"/>
			<path class="st9" d="M331.4,370.3c16.3,0.3,12.7-3.2,13,13c0.6,2-12.3,0.6-13,1c-0.6,0-1-0.4-1-1
				C330.8,382.6,329.4,369.8,331.4,370.3z"/>
			<path class="st9" d="M353,370.3c16.3,0.3,12.7-3.2,13,13c0.6,2-12.3,0.6-13,1c-0.6,0-1-0.4-1-1C352.5,382.6,351,369.8,353,370.3z
				"/>
			<path class="st9" d="M376.5,370.3h36c0.6,0,1,0.4,1,1c-0.4,0.8,1.1,13.5-1,13c0,0-36,0-36,0c-2.1,0.6-0.6-12.3-1-13
				C375.5,370.8,376,370.3,376.5,370.3z"/>
			<path class="st9" d="M237,349.8c16.3,0.3,12.7-3.2,13,13c0.6,2-12.3,0.6-13,1c-0.6,0-1-0.4-1-1C236.5,362.1,235,349.3,237,349.8z
				"/>
			<path class="st9" d="M203.4,349.8c0.6,0.5,25.9-1.2,25,1c-0.4,0.8,1.1,13.5-1,13c0,0-24,0-24,0c-2.1,0.6-0.6-12.3-1-13
				C202.4,350.3,202.8,349.8,203.4,349.8z"/>
			<path class="st9" d="M258.7,349.8c16.3,0.3,12.7-3.2,13,13c0.6,2-12.3,0.6-13,1c-0.6,0-1-0.4-1-1
				C258.1,362.1,256.6,349.3,258.7,349.8z"/>
			<path class="st9" d="M280.3,349.8c16.3,0.3,12.7-3.2,13,13c0.6,2-12.3,0.6-13,1c-0.6,0-1-0.4-1-1
				C279.7,362.1,278.3,349.3,280.3,349.8z"/>
			<path class="st9" d="M302,349.8c16.3,0.3,12.7-3.2,13,13c0.6,2-12.3,0.6-13,1c-0.6,0-1-0.4-1-1
				C301.4,362.1,299.9,349.3,302,349.8z"/>
			<path class="st9" d="M323.6,349.8c16.3,0.3,12.7-3.2,13,13c0.6,2-12.3,0.6-13,1c-0.6,0-1-0.4-1-1
				C323,362.1,321.5,349.3,323.6,349.8z"/>
			<path class="st9" d="M345.2,349.8c16.3,0.3,12.7-3.2,13,13c0.6,2-12.3,0.6-13,1c-0.6,0-1-0.4-1-1
				C344.6,362.1,343.2,349.3,345.2,349.8z"/>
			<path class="st9" d="M366.9,349.8c16.3,0.3,12.7-3.2,13,13c0.6,2-12.3,0.6-13,1c-0.6,0-1-0.4-1-1
				C366.3,362.1,364.8,349.3,366.9,349.8z"/>
			<path class="st9" d="M388.5,349.8c0.6,0.5,25.9-1.2,25,1c-0.4,0.8,1.1,13.5-1,13c0,0-24,0-24,0c-2.1,0.6-0.6-12.3-1-13
				C387.5,350.3,388,349.8,388.5,349.8z"/>
			<path class="st9" d="M225.3,330.2c16.3,0.3,12.7-3.2,13,13c0.6,2-12.3,0.6-13,1c-0.6,0-1-0.4-1-1
				C224.7,342.5,223.2,329.7,225.3,330.2z"/>
			<path class="st9" d="M203.4,330.2c16.3,0.3,12.7-3.2,13,13c0.6,2-12.3,0.6-13,1c-0.6,0-1-0.4-1-1
				C202.8,342.5,201.3,329.7,203.4,330.2z"/>
			<path class="st9" d="M247.2,330.2c16.3,0.3,12.7-3.2,13,13c0.6,2-12.3,0.6-13,1c-0.6,0-1-0.4-1-1
				C246.6,342.5,245.1,329.7,247.2,330.2z"/>
			<path class="st9" d="M269.1,330.2c16.3,0.3,12.7-3.2,13,13c0.6,2-12.3,0.6-13,1c-0.6,0-1-0.4-1-1
				C268.5,342.5,267,329.7,269.1,330.2z"/>
			<path class="st9" d="M291,330.2c16.3,0.3,12.7-3.2,13,13c0.6,2-12.3,0.6-13,1c-0.6,0-1-0.4-1-1C290.4,342.5,289,329.7,291,330.2z
				"/>
			<path class="st9" d="M312.9,330.2c16.3,0.3,12.7-3.2,13,13c0.6,2-12.3,0.6-13,1c-0.6,0-1-0.4-1-1
				C312.3,342.5,310.9,329.7,312.9,330.2z"/>
			<path class="st9" d="M334.8,330.2c16.3,0.3,12.7-3.2,13,13c0.6,2-12.3,0.6-13,1c-0.6,0-1-0.4-1-1
				C334.2,342.5,332.8,329.7,334.8,330.2z"/>
			<path class="st9" d="M356.7,330.2c16.3,0.3,12.7-3.2,13,13c0.6,2-12.3,0.6-13,1c-0.6,0-1-0.4-1-1
				C356.1,342.5,354.7,329.7,356.7,330.2z"/>
			<path class="st9" d="M378.6,330.2c16.3,0.3,12.7-3.2,13,13c0.6,2-12.3,0.6-13,1c-0.6,0-1-0.4-1-1
				C378,342.5,376.6,329.7,378.6,330.2z"/>
			<path class="st9" d="M400.5,330.2c16.3,0.3,12.7-3.2,13,13c0.6,2-12.3,0.6-13,1c-0.6,0-1-0.4-1-1
				C399.9,342.5,398.5,329.7,400.5,330.2z"/>
			<path class="st4" d="M225,390.2c16.3,0.3,12.7-3.2,13,13c0.6,2-12.3,0.6-13,1c-0.6,0-1-0.4-1-1C224.5,402.5,223,389.7,225,390.2z
				"/>
			<path class="st4" d="M203.4,390.2c16.3,0.3,12.7-3.2,13,13c0.6,2-12.3,0.6-13,1c-0.6,0-1-0.4-1-1
				C202.8,402.5,201.3,389.7,203.4,390.2z"/>
			<path class="st4" d="M246.7,390.2c1,1,99.7-1.9,99.6,1c-0.4,0.8,1,13.5-1,13c-1-1-99.7,1.9-99.6-1
				C246,402.5,244.7,389.7,246.7,390.2z"/>
			<path class="st4" d="M354.9,390.2c16.3,0.3,12.7-3.2,13,13c0.6,2-12.3,0.6-13,1c-0.6,0-1-0.4-1-1
				C354.3,402.5,352.8,389.7,354.9,390.2z"/>
			<path class="st4" d="M390.5,398.1c0.9,0.4,9.3-1,9,1c-0.3,0.9,0.8,5.2-1,5.1c-0.9-0.4-9.3,1-9-1
				C389.8,402.3,388.7,398,390.5,398.1z"/>
			<path class="st4" d="M390.5,390.2c0.9,0.4,9.3-1,9,1c-0.3,0.9,0.8,5.2-1,5.1c-0.9-0.4-9.3,1-9-1
				C389.8,394.5,388.7,390.1,390.5,390.2z"/>
			<path class="st4" d="M404.5,398.1c0.9,0.4,9.3-1,9,1c-0.3,0.9,0.8,5.2-1,5.1c-0.9-0.4-9.3,1-9-1
				C403.8,402.3,402.7,398,404.5,398.1z"/>
			<path class="st4" d="M376.5,398.1c0.9,0.4,9.3-1,9,1c-0.3,0.9,0.8,5.2-1,5.1c-0.9-0.4-9.3,1-9-1
				C375.8,402.3,374.7,398,376.5,398.1z"/>
			<path class="st4" d="M203.4,370.3H235c0.6,0,1,0.4,1,1c-0.4,0.8,1.1,13.5-1,13c0,0-31.6,0-31.6,0c-2.1,0.6-0.6-12.3-1-13
				C202.4,370.8,202.8,370.3,203.4,370.3z"/>
			<path class="st4" d="M244.9,370.3c16.3,0.3,12.7-3.2,13,13c0.6,2-12.3,0.6-13,1c-0.6,0-1-0.4-1-1
				C244.3,382.6,242.8,369.8,244.9,370.3z"/>
			<path class="st4" d="M266.5,370.3c16.3,0.3,12.7-3.2,13,13c0.6,2-12.3,0.6-13,1c-0.6,0-1-0.4-1-1
				C265.9,382.6,264.4,369.8,266.5,370.3z"/>
			<path class="st4" d="M288.1,370.3c16.3,0.3,12.7-3.2,13,13c0.6,2-12.3,0.6-13,1c-0.6,0-1-0.4-1-1
				C287.5,382.6,286.1,369.8,288.1,370.3z"/>
			<path class="st4" d="M309.8,370.3c16.3,0.3,12.7-3.2,13,13c0.6,2-12.3,0.6-13,1c-0.6,0-1-0.4-1-1
				C309.2,382.6,307.7,369.8,309.8,370.3z"/>
			<path class="st4" d="M331.4,370.3c16.3,0.3,12.7-3.2,13,13c0.6,2-12.3,0.6-13,1c-0.6,0-1-0.4-1-1
				C330.8,382.6,329.4,369.8,331.4,370.3z"/>
			<path class="st4" d="M353,370.3c16.3,0.3,12.7-3.2,13,13c0.6,2-12.3,0.6-13,1c-0.6,0-1-0.4-1-1C352.5,382.6,351,369.8,353,370.3z
				"/>
			<path class="st4" d="M376.5,370.3h36c0.6,0,1,0.4,1,1c-0.4,0.8,1.1,13.5-1,13c0,0-36,0-36,0c-2.1,0.6-0.6-12.3-1-13
				C375.5,370.8,376,370.3,376.5,370.3z"/>
			<path class="st4" d="M237,349.8c16.3,0.3,12.7-3.2,13,13c0.6,2-12.3,0.6-13,1c-0.6,0-1-0.4-1-1C236.5,362.1,235,349.3,237,349.8z
				"/>
			<path class="st4" d="M203.4,349.8c0.6,0.5,25.9-1.2,25,1c-0.4,0.8,1.1,13.5-1,13c0,0-24,0-24,0c-2.1,0.6-0.6-12.3-1-13
				C202.4,350.3,202.8,349.8,203.4,349.8z"/>
			<path class="st4" d="M258.7,349.8c16.3,0.3,12.7-3.2,13,13c0.6,2-12.3,0.6-13,1c-0.6,0-1-0.4-1-1
				C258.1,362.1,256.6,349.3,258.7,349.8z"/>
			<path class="st4" d="M280.3,349.8c16.3,0.3,12.7-3.2,13,13c0.6,2-12.3,0.6-13,1c-0.6,0-1-0.4-1-1
				C279.7,362.1,278.3,349.3,280.3,349.8z"/>
			<path class="st4" d="M302,349.8c16.3,0.3,12.7-3.2,13,13c0.6,2-12.3,0.6-13,1c-0.6,0-1-0.4-1-1
				C301.4,362.1,299.9,349.3,302,349.8z"/>
			<path class="st4" d="M323.6,349.8c16.3,0.3,12.7-3.2,13,13c0.6,2-12.3,0.6-13,1c-0.6,0-1-0.4-1-1
				C323,362.1,321.5,349.3,323.6,349.8z"/>
			<path class="st4" d="M345.2,349.8c16.3,0.3,12.7-3.2,13,13c0.6,2-12.3,0.6-13,1c-0.6,0-1-0.4-1-1
				C344.6,362.1,343.2,349.3,345.2,349.8z"/>
			<path class="st4" d="M366.9,349.8c16.3,0.3,12.7-3.2,13,13c0.6,2-12.3,0.6-13,1c-0.6,0-1-0.4-1-1
				C366.3,362.1,364.8,349.3,366.9,349.8z"/>
			<path class="st4" d="M388.5,349.8c0.6,0.5,25.9-1.2,25,1c-0.4,0.8,1.1,13.5-1,13c0,0-24,0-24,0c-2.1,0.6-0.6-12.3-1-13
				C387.5,350.3,388,349.8,388.5,349.8z"/>
			<path class="st4" d="M225.3,330.2c16.3,0.3,12.7-3.2,13,13c0.6,2-12.3,0.6-13,1c-0.6,0-1-0.4-1-1
				C224.7,342.5,223.2,329.7,225.3,330.2z"/>
			<path class="st4" d="M203.4,330.2c16.3,0.3,12.7-3.2,13,13c0.6,2-12.3,0.6-13,1c-0.6,0-1-0.4-1-1
				C202.8,342.5,201.3,329.7,203.4,330.2z"/>
			<path class="st4" d="M247.2,330.2c16.3,0.3,12.7-3.2,13,13c0.6,2-12.3,0.6-13,1c-0.6,0-1-0.4-1-1
				C246.6,342.5,245.1,329.7,247.2,330.2z"/>
			<path class="st4" d="M269.1,330.2c16.3,0.3,12.7-3.2,13,13c0.6,2-12.3,0.6-13,1c-0.6,0-1-0.4-1-1
				C268.5,342.5,267,329.7,269.1,330.2z"/>
			<path class="st4" d="M291,330.2c16.3,0.3,12.7-3.2,13,13c0.6,2-12.3,0.6-13,1c-0.6,0-1-0.4-1-1C290.4,342.5,289,329.7,291,330.2z
				"/>
			<path class="st4" d="M312.9,330.2c16.3,0.3,12.7-3.2,13,13c0.6,2-12.3,0.6-13,1c-0.6,0-1-0.4-1-1
				C312.3,342.5,310.9,329.7,312.9,330.2z"/>
			<path class="st4" d="M334.8,330.2c16.3,0.3,12.7-3.2,13,13c0.6,2-12.3,0.6-13,1c-0.6,0-1-0.4-1-1
				C334.2,342.5,332.8,329.7,334.8,330.2z"/>
			<path class="st4" d="M356.7,330.2c16.3,0.3,12.7-3.2,13,13c0.6,2-12.3,0.6-13,1c-0.6,0-1-0.4-1-1
				C356.1,342.5,354.7,329.7,356.7,330.2z"/>
			<path class="st4" d="M378.6,330.2c16.3,0.3,12.7-3.2,13,13c0.6,2-12.3,0.6-13,1c-0.6,0-1-0.4-1-1
				C378,342.5,376.6,329.7,378.6,330.2z"/>
			<path class="st4" d="M400.5,330.2c16.3,0.3,12.7-3.2,13,13c0.6,2-12.3,0.6-13,1c-0.6,0-1-0.4-1-1
				C399.9,342.5,398.5,329.7,400.5,330.2z"/>
			<path class="st4" d="M222.9,298.3c0,0,170,0,170,0v13.4c0,2.2-1.8,4-4,4H227c-2.2,0-4-1.8-4-4L222.9,298.3L222.9,298.3
				L222.9,298.3z"/>
			<path class="st10" d="M389,311.8H227c-2.2,0-4-1.8-4-4c-0.1,3.1-0.4,8.1,4,8c0,0,162,0,162,0c4.3,0.1,4.2-4.9,4-8
				C393,310,391.2,311.8,389,311.8z"/>
			<path class="st11" d="M222.9,298.3c0,0,170,0,170,0v13.4c0,2.2-1.8,4-4,4H227c-2.2,0-4-1.8-4-4L222.9,298.3L222.9,298.3
				L222.9,298.3z"/>
			<path class="st4" d="M273,417.7h70c1.1,0,2,0.9,2,2c-1.1,1.2,2.5,50.8-2,49c0,0-70,0-70,0c-1.1,0-2-0.9-2-2
				C272,465.6,268.5,416,273,417.7z"/>
			<path class="st9" d="M273,417.7h70c1.1,0,2,0.9,2,2c-1.1,1.2,2.5,50.8-2,49c0,0-70,0-70,0c-1.1,0-2-0.9-2-2
				C272,465.6,268.5,416,273,417.7z"/>
		</g>
		<g class="st2">
			<path class="st6" d="M87.6,407.5c10.3-13,4.5-14,16.6-5.7c1.6,0.4-7.6,11.5-7.6,12C92.9,419.3,83.7,412.9,87.6,407.5z"/>
			<path class="st6" d="M87.6,407.5c10.3-13,4.5-14,16.6-5.7c1.6,0.4-7.6,11.5-7.6,12C92.9,419.3,83.7,412.9,87.6,407.5z"/>
			<path class="st6" d="M117.1,342.3c42.8,0.7,42.8,64.4,0,65.2C74.3,406.8,74.3,343.1,117.1,342.3z"/>
			<path class="st6" d="M117.1,342.3c42.8,0.7,42.8,64.4,0,65.2C74.3,406.8,74.3,343.1,117.1,342.3z"/>
			<path class="st6" d="M117.1,349.6c33.3,0.6,33.3,50.1,0,50.7C83.8,399.7,83.8,350.1,117.1,349.6z"/>
			<path class="st6" d="M117.1,349.6c33.3,0.6,33.3,50.1,0,50.7C83.8,399.7,83.8,350.1,117.1,349.6z"/>
			<path class="st12" d="M100.5,369.7c2.7-6.9,9.3-15.7,17.7-12c3.9,2.7,6.7,6.9,11.5,8.4c7.4,2.8,1.2,10.6,4.4,15.6
				c3.8,9.1-14.3,1.6-17.8,5.9c-2.3,2.4-5.3,6.8-8.8,3.4C101.3,385.8,96,377.6,100.5,369.7z"/>
			<path class="st12" d="M122.2,391c2,0,2,3.2,0,3.1C120.2,394.1,120.2,390.9,122.2,391z"/>
			<path class="st12" d="M118.1,392c1.4,0,1.4,2.2,0,2.2C116.7,394.2,116.7,392,118.1,392z"/>
			<path class="st12" d="M125.9,390.1c1.3,0,1.3,2,0,2C124.6,392.1,124.6,390.1,125.9,390.1z"/>
			<path class="st12" d="M114.7,392.8c0.9,0,0.9,1.4,0,1.4C113.7,394.3,113.7,392.8,114.7,392.8z"/>
			<path class="st12" d="M129.1,389.6c0.6,0,0.6,0.9,0,0.9C128.5,390.5,128.5,389.6,129.1,389.6z"/>
			<path class="st12" d="M97.4,367.9c1.3,0,1.3,2,0,2C96.1,370,96.1,367.9,97.4,367.9z"/>
			<path class="st12" d="M125,356.2c1.2,0,1.2,1.9,0,1.9C123.8,358.1,123.8,356.2,125,356.2z"/>
			<path class="st12" d="M131.2,361c1.1,0,1.1,1.7,0,1.7C130.1,362.7,130.1,361,131.2,361z"/>
			<path class="st12" d="M131.9,363.9c0.5,0,0.5,0.8,0,0.8C131.4,364.7,131.4,363.9,131.9,363.9z"/>
		</g>
		<path class="st13" d="M80.4,399.3c10.3-13,4.5-14,16.6-5.7c1.6,0.4-7.6,11.5-7.6,12C85.7,411.1,76.5,404.7,80.4,399.3z"/>
		<path class="st14" d="M89.1,388.1c-1-1-3.9,4.8-4.4,5.1c2.7,2.5,5.7,4.7,9,6.3c0.1-0.7,4.6-5.3,3.3-5.9L89.1,388.1z"/>
		<g>
			<path class="st15" d="M85.3,409.7c-5.6,0-10.1-6.7-6.5-11.6l0,0c10-12.5,5.6-16.4,19.3-6.2c1.2,0.9,1.5,2.5,0.7,3.8
				C95.8,398.9,90.8,410.5,85.3,409.7z M82,400.4c-1.3,1.7-0.2,3.9,1.6,4.8c4,3.3,9-8.9,11.1-10.7l-5.7-4L82,400.4z M95.5,393.4
				C95.5,393.4,95.5,393.4,95.5,393.4L95.5,393.4z"/>
		</g>
		<path class="st13" d="M109.9,334.2c42.8,0.7,42.8,64.4,0,65.2C67,398.6,67,334.9,109.9,334.2z"/>
		<g>
			<path class="st15" d="M109.9,401.3c-45.4-0.8-45.4-68.3,0-69.2C155.3,333,155.3,400.5,109.9,401.3z M109.9,336.2
				c-40.2,0.7-40.2,60.4,0,61.2C150,396.6,150,336.9,109.9,336.2z"/>
		</g>
		<path class="st16" d="M109.9,341.4c33.3,0.6,33.3,50.1,0,50.7C76.5,391.5,76.5,342,109.9,341.4z"/>
		<g>
			<path class="st15" d="M109.9,393.1c-34.6-0.6-34.6-52.1,0-52.7C144.5,341,144.5,392.5,109.9,393.1z M109.9,342.4
				c-32,0.6-32,48.1,0,48.7C141.9,390.5,141.9,343,109.9,342.4z"/>
		</g>
		<path class="st17" d="M93.3,361.5c2.7-6.9,9.3-15.7,17.7-12c3.9,2.7,6.7,6.9,11.5,8.4c7.4,2.8,1.2,10.6,4.4,15.6
			c3.8,9.1-14.3,1.6-17.8,5.9c-2.3,2.4-5.3,6.8-8.8,3.4C94.1,377.6,88.8,369.4,93.3,361.5z"/>
		<path class="st17" d="M115,382.8c2,0,2,3.2,0,3.1C112.9,386,112.9,382.8,115,382.8z"/>
		<path class="st17" d="M110.9,383.9c1.4,0,1.4,2.2,0,2.2C109.5,386.1,109.5,383.8,110.9,383.9z"/>
		<path class="st17" d="M118.7,381.9c1.3,0,1.3,2,0,2C117.4,383.9,117.4,381.9,118.7,381.9z"/>
		<path class="st17" d="M107.4,384.6c0.9,0,0.9,1.4,0,1.4C106.5,386.1,106.5,384.6,107.4,384.6z"/>
		<path class="st17" d="M121.8,381.4c0.6,0,0.6,0.9,0,0.9C121.3,382.3,121.3,381.4,121.8,381.4z"/>
		<path class="st17" d="M90.2,359.7c1.3,0,1.3,2,0,2C88.9,361.8,88.9,359.7,90.2,359.7z"/>
		<path class="st17" d="M117.8,348c1.2,0,1.2,1.9,0,1.9C116.6,349.9,116.6,348,117.8,348z"/>
		<path class="st17" d="M124,352.8c1.1,0,1.1,1.7,0,1.7C122.9,354.5,122.9,352.8,124,352.8z"/>
		<path class="st17" d="M124.7,355.7c0.5,0,0.5,0.8,0,0.8C124.2,356.5,124.2,355.7,124.7,355.7z"/>
		<path class="st16" d="M112.1,366.8c2.6,0,2.6,4,0,4C109.5,370.9,109.5,366.8,112.1,366.8z"/>
		<path class="st16" d="M105.6,357.7c4.5-0.1,4.5,7.1,0,7C101,364.7,101,357.6,105.6,357.7z"/>
		<g>
			<path d="M416,298.4H184c-8,0-14.5-6.5-14.5-14.5v-136c0-8,6.5-14.5,14.5-14.5h232c8,0,14.5,6.5,14.5,14.5v136
				C430.5,291.9,424,298.4,416,298.4z M184,134.4c-7.4,0-13.5,6.1-13.5,13.5v136c0,7.4,6.1,13.5,13.5,13.5h232
				c7.4,0,13.5-6.1,13.5-13.5v-136c0-7.4-6.1-13.5-13.5-13.5L184,134.4L184,134.4z"/>
		</g>
		<path class="st18" d="M184,133.9h232c7.7,0,14,6.3,14,14v136c0,7.7-6.3,14-14,14H184c-7.7,0-14-6.3-14-14v-136
			C170,140.2,176.3,133.9,184,133.9z"/>
		<path class="st18" d="M184,133.9h232c7.7,0,14,6.3,14,14v136c0,7.7-6.3,14-14,14H184c-7.7,0-14-6.3-14-14v-136
			C170,140.2,176.3,133.9,184,133.9z"/>
		<path class="st19" d="M184,133.9h232c7.7,0,14,6.3,14,14v127c0,7.7-6.3,14-14,14H184c-7.7,0-14-6.3-14-14v-127
			C170,140.2,176.3,133.9,184,133.9z"/>
		<path class="st20" d="M184,137.9h232c7.7,0,14,6.3,14,14v132l0,0v-136c0-7.7-6.3-14-14-14H184c-9.6-0.1-15.3,9.1-14,18
			C170,144.2,176.3,137.9,184,137.9z"/>
		<g class="st21">
			<polygon class="st22" points="249.2,297.9 265.3,297.9 384.4,133.9 368.4,133.9 			"/>
			<polygon class="st22" points="274.6,297.9 279.5,297.9 398.7,133.9 393.7,133.9 			"/>
		</g>
		<g>
			<path class="st15" d="M416,299.9H184c-8.8,0-16-7.2-16-16v-136c0-8.8,7.2-16,16-16h232c8.8,0,16,7.2,16,16v136
				C432,292.7,424.8,299.9,416,299.9z M184,135.9c-6.6,0-12,5.4-12,12v136c0,6.6,5.4,12,12,12h232c6.6,0,12-5.4,12-12v-136
				c0-6.6-5.4-12-12-12L184,135.9L184,135.9z"/>
		</g>
		<rect x="188" y="152.4" class="st23" width="224" height="126"/>
		<g class="st24">
			<polygon class="st22" points="264.4,278.4 280.5,278.4 372,152.4 356,152.4 			"/>
			<polygon class="st22" points="289.7,278.4 294.7,278.4 386.2,152.4 381.3,152.4 			"/>
		</g>
		<g>
			<path class="st15" d="M412,278.9c-0.5-0.5-224.6,1-224.5-0.5c0.5-0.5-1-126.6,0.5-126.5c0.5,0.5,224.6-1,224.5,0.5
				C412,152.9,413.5,279,412,278.9z M188.5,277.9h223v-125h-223V277.9z"/>
		</g>
		<path class="st25" d="M184,297.9h232c7.7,0,14,6.3,14,14v144c0,7.7-6.3,14-14,14H184c-7.7,0-14-6.3-14-14v-144
			C170,304.2,176.3,297.9,184,297.9z"/>
		<path class="st13" d="M426,311.9v144c0,5.5-4.5,10-10,10H184c-5.5,0-10-4.5-10-10v-144c0-5.5,4.5-10,10-10h232
			C421.5,301.9,426,306.4,426,311.9z"/>
		<path class="st25" d="M283.9,462.1H316c4.2-0.1,4.2,4.8,4,7.8h-40.1l0,0C279.8,466.9,279.7,462,283.9,462.1z"/>
		<g>
			<path class="st15" d="M416,471.9H184c-8.8,0-16-7.2-16-16v-144c0-8.8,7.2-16,16-16h232c8.8,0,16,7.2,16,16v144
				C432,464.7,424.8,471.9,416,471.9z M184,299.9c-6.6,0-12,5.4-12,12v144c0,6.6,5.4,12,12,12h232c6.6,0,12-5.4,12-12v-144
				c0-6.6-5.4-12-12-12H184z"/>
		</g>
		<path class="st25" d="M188,311.3h224c6.9-3.7,1.3,88,3,89c0,1.7-1.3,3-3,3H188c-1.7,0-3-1.3-3-3C186.7,398.9,181.2,308,188,311.3z
			"/>
		<g>
			<path class="st18" d="M229.1,395.3h-12c-0.8,0-1.5-0.7-1.5-1.5v-12c0-0.8,0.7-1.5,1.5-1.5h12c0.8,0,1.5,0.7,1.5,1.5v12
				C230.6,394.6,229.9,395.3,229.1,395.3z M217.1,381.3c-1.1-0.5-0.2,12.3-0.5,12.5c0,0.3,0.2,0.5,0.5,0.5
				c0.3-0.3,12.9,0.6,12.5-0.5C229.1,377.7,233.2,381.8,217.1,381.3z"/>
		</g>
		<g>
			<path class="st18" d="M207.4,395.3h-12c-0.8,0-1.5-0.7-1.5-1.5v-12c0-0.8,0.7-1.5,1.5-1.5h12c0.8,0,1.5,0.7,1.5,1.5v12
				C208.9,394.6,208.3,395.3,207.4,395.3z M195.4,381.3c-1.1-0.5-0.2,12.3-0.5,12.5c0,0.3,0.2,0.5,0.5,0.5
				c0.3-0.3,12.9,0.6,12.5-0.5C207.4,377.7,211.5,381.8,195.4,381.3z"/>
		</g>
		<g>
			<path class="st18" d="M337.3,395.3h-98.6c-0.8,0-1.5-0.7-1.5-1.5v-12c0-0.8,0.7-1.5,1.5-1.5h98.6c0.8,0,1.5,0.7,1.5,1.5v12
				C338.8,394.6,338.1,395.3,337.3,395.3z M238.7,381.3c-1.2-0.5-0.2,12.3-0.5,12.5c0,0.3,0.2,0.5,0.5,0.5c0.6-0.5,99.1,1,99.1-0.5
				c0,0,0-12,0-12C337.9,380.3,239.2,381.8,238.7,381.3z"/>
		</g>
		<g>
			<path class="st18" d="M358.9,395.3h-12c-0.8,0-1.5-0.7-1.5-1.5v-12c0-0.8,0.7-1.5,1.5-1.5h12c0.8,0,1.5,0.7,1.5,1.5v12
				C360.4,394.6,359.7,395.3,358.9,395.3z M346.9,381.3c-1.1-0.5-0.2,12.3-0.5,12.5c0,0.3,0.2,0.5,0.5,0.5
				c0.3-0.3,12.9,0.6,12.5-0.5C358.9,377.7,363,381.8,346.9,381.3z"/>
		</g>
		<g>
			<path class="st18" d="M390.6,395.3c-1.4-0.4-9.7,1.3-9.5-1.5c0.3-1.3-0.9-5.7,1.5-5.6c1.4,0.4,9.7-1.3,9.5,1.5
				C391.8,391,393,395.4,390.6,395.3z M382.6,389.2c-1-0.1-0.3,4.2-0.5,4.6c0,0.3,0.2,0.5,0.5,0.5c0.3-0.2,8.9,0.5,8.5-0.5
				c-0.2-0.4,0.5-4.8-0.5-4.6C390.6,389.2,382.6,389.2,382.6,389.2z"/>
		</g>
		<g>
			<path class="st18" d="M390.6,387.4c-1.4-0.4-9.7,1.3-9.5-1.5c0.3-1.3-0.9-5.7,1.5-5.6c1.4,0.4,9.7-1.3,9.5,1.5
				C391.8,383.1,393,387.5,390.6,387.4z M382.6,381.3c-1-0.1-0.3,4.2-0.5,4.6c0,0.3,0.2,0.5,0.5,0.5c0.3-0.2,8.9,0.5,8.5-0.5
				c-0.2-0.4,0.5-4.8-0.5-4.6C390.6,381.3,382.6,381.3,382.6,381.3z"/>
		</g>
		<g>
			<path class="st18" d="M404.6,395.3c-1.4-0.4-9.7,1.3-9.5-1.5c0.3-1.3-0.9-5.7,1.5-5.6c1.4,0.4,9.7-1.3,9.5,1.5
				C405.8,391,407,395.4,404.6,395.3z M396.6,389.2c-1-0.1-0.3,4.2-0.5,4.6c0,0.3,0.2,0.5,0.5,0.5c0.3-0.2,8.9,0.5,8.5-0.5
				c-0.2-0.4,0.5-4.8-0.5-4.6C404.6,389.2,396.6,389.2,396.6,389.2z"/>
		</g>
		<g>
			<path class="st18" d="M376.6,395.3c-1.4-0.4-9.7,1.3-9.5-1.5c0.3-1.3-0.9-5.7,1.5-5.6c1.4,0.4,9.7-1.3,9.5,1.5
				C377.8,391,379,395.4,376.6,395.3z M368.6,389.2c-1-0.1-0.3,4.2-0.5,4.6c0,0.3,0.2,0.5,0.5,0.5c0.3-0.2,8.9,0.5,8.5-0.5
				c-0.2-0.4,0.5-4.8-0.5-4.6C376.6,389.2,368.6,389.2,368.6,389.2z"/>
		</g>
		<g>
			<path class="st18" d="M227.1,375.4c-0.8-0.7-34.6,1.8-33.1-1.5c0,0,0-12,0-12c0-0.8,0.7-1.5,1.5-1.5h31.6c0.8,0,1.5,0.7,1.5,1.5
				v12C228.6,374.7,227.9,375.4,227.1,375.4z M195.4,361.4c-1.1-0.5-0.2,12.3-0.5,12.5c0,0.3,0.2,0.5,0.5,0.5
				c0.6-0.5,32.2,0.9,32.1-0.5c-0.3-0.3,0.6-12.9-0.5-12.5C227.1,361.4,195.4,361.4,195.4,361.4z"/>
		</g>
		<g>
			<path class="st18" d="M248.9,375.4h-12c-0.8,0-1.5-0.7-1.5-1.5v-12c0-0.8,0.7-1.5,1.5-1.5h12c0.8,0,1.5,0.7,1.5,1.5v12
				C250.4,374.7,249.7,375.4,248.9,375.4z M236.9,361.4c-1.1-0.5-0.2,12.3-0.5,12.5c0,0.3,0.2,0.5,0.5,0.5
				c0.3-0.3,12.9,0.6,12.5-0.5C248.9,357.8,253,361.9,236.9,361.4z"/>
		</g>
		<g>
			<path class="st18" d="M270.5,375.4h-12c-0.8,0-1.5-0.7-1.5-1.5v-12c0-0.8,0.7-1.5,1.5-1.5h12c0.8,0,1.5,0.7,1.5,1.5v12
				C272,374.7,271.4,375.4,270.5,375.4z M258.5,361.4c-1.1-0.5-0.2,12.3-0.5,12.5c0,0.3,0.2,0.5,0.5,0.5c0.3-0.3,12.9,0.6,12.5-0.5
				C270.5,357.8,274.6,361.9,258.5,361.4z"/>
		</g>
		<g>
			<path class="st18" d="M292.2,375.4h-12c-0.8,0-1.5-0.7-1.5-1.5v-12c0-0.8,0.7-1.5,1.5-1.5h12c0.8,0,1.5,0.7,1.5,1.5v12
				C293.7,374.7,293,375.4,292.2,375.4z M280.2,361.4c-1.1-0.5-0.2,12.3-0.5,12.5c0,0.3,0.2,0.5,0.5,0.5c0.3-0.3,12.9,0.6,12.5-0.5
				C292.2,357.8,296.3,361.9,280.2,361.4z"/>
		</g>
		<g>
			<path class="st18" d="M313.8,375.4h-12c-0.8,0-1.5-0.7-1.5-1.5v-12c0-0.8,0.7-1.5,1.5-1.5h12c0.8,0,1.5,0.7,1.5,1.5v12
				C315.3,374.7,314.6,375.4,313.8,375.4z M301.8,361.4c-1.1-0.5-0.2,12.3-0.5,12.5c0,0.3,0.2,0.5,0.5,0.5
				c0.3-0.3,12.9,0.6,12.5-0.5C313.8,357.8,317.9,361.9,301.8,361.4z"/>
		</g>
		<g>
			<path class="st18" d="M335.5,375.4h-12c-0.8,0-1.5-0.7-1.5-1.5v-12c0-0.8,0.7-1.5,1.5-1.5h12c0.8,0,1.5,0.7,1.5,1.5v12
				C337,374.7,336.3,375.4,335.5,375.4z M323.5,361.4c-1.1-0.5-0.2,12.3-0.5,12.5c0,0.3,0.2,0.5,0.5,0.5c0.3-0.3,12.9,0.6,12.5-0.5
				C335.5,357.8,339.6,361.9,323.5,361.4z"/>
		</g>
		<g>
			<path class="st18" d="M357.1,375.4h-12c-0.8,0-1.5-0.7-1.5-1.5v-12c0-0.8,0.7-1.5,1.5-1.5h12c0.8,0,1.5,0.7,1.5,1.5v12
				C358.6,374.7,357.9,375.4,357.1,375.4z M345.1,361.4c-1.1-0.5-0.2,12.3-0.5,12.5c0,0.3,0.2,0.5,0.5,0.5
				c0.3-0.3,12.9,0.6,12.5-0.5C357.1,357.8,361.2,361.9,345.1,361.4z"/>
		</g>
		<g>
			<path class="st18" d="M404.6,375.4c-0.9-0.8-38.8,1.8-37.5-1.5c0,0,0-12,0-12c0-0.8,0.7-1.5,1.5-1.5h36c0.8,0,1.5,0.7,1.5,1.5v12
				C406.1,374.7,405.4,375.4,404.6,375.4z M368.6,361.4c-1.1-0.5-0.2,12.3-0.5,12.5c0,0.3,0.2,0.5,0.5,0.5
				c0.5-0.5,36.6,0.9,36.5-0.5c0,0,0-12,0-12C405.2,360.5,369.1,361.9,368.6,361.4z"/>
		</g>
		<g>
			<path class="st18" d="M241.1,354.9h-12c-0.8,0-1.5-0.7-1.5-1.5v-12c0-0.8,0.7-1.5,1.5-1.5h12c0.8,0,1.5,0.7,1.5,1.5v12
				C242.6,354.3,241.9,354.9,241.1,354.9z M229.1,340.9c-1.1-0.5-0.2,12.3-0.5,12.5c0,0.3,0.2,0.5,0.5,0.5
				c0.3-0.3,12.9,0.6,12.5-0.5C241.1,337.3,245.2,341.4,229.1,340.9z"/>
		</g>
		<g>
			<path class="st18" d="M219.4,354.9h-24c-0.8,0-1.5-0.7-1.5-1.5v-12c-1.4-3.1,24.7-0.8,25.5-1.5c0.8,0,1.5,0.7,1.5,1.5v12
				C220.9,354.3,220.3,354.9,219.4,354.9z M195.4,340.9c-1.1-0.5-0.2,12.3-0.5,12.5c0,0.3,0.2,0.5,0.5,0.5
				c0.9-0.4,24.2,0.8,24.5-0.5c-0.3-0.3,0.6-12.9-0.5-12.5C219.4,340.9,195.4,340.9,195.4,340.9z"/>
		</g>
		<g>
			<path class="st18" d="M262.7,354.9h-12c-0.8,0-1.5-0.7-1.5-1.5v-12c0-0.8,0.7-1.5,1.5-1.5h12c0.8,0,1.5,0.7,1.5,1.5v12
				C264.2,354.3,263.5,354.9,262.7,354.9z M250.7,340.9c-1.1-0.5-0.2,12.3-0.5,12.5c0,0.3,0.2,0.5,0.5,0.5
				c0.3-0.3,12.9,0.6,12.5-0.5C262.7,337.3,266.8,341.4,250.7,340.9z"/>
		</g>
		<g>
			<path class="st18" d="M284.4,354.9h-12c-0.8,0-1.5-0.7-1.5-1.5v-12c0-0.8,0.7-1.5,1.5-1.5h12c0.8,0,1.5,0.7,1.5,1.5v12
				C285.9,354.3,285.2,354.9,284.4,354.9z M272.4,340.9c-1.1-0.5-0.2,12.3-0.5,12.5c0,0.3,0.2,0.5,0.5,0.5
				c0.3-0.3,12.9,0.6,12.5-0.5C284.4,337.3,288.5,341.4,272.4,340.9z"/>
		</g>
		<g>
			<path class="st18" d="M306,354.9h-12c-0.8,0-1.5-0.7-1.5-1.5v-12c0-0.8,0.7-1.5,1.5-1.5h12c0.8,0,1.5,0.7,1.5,1.5v12
				C307.5,354.3,306.8,354.9,306,354.9z M294,340.9c-1.1-0.5-0.2,12.3-0.5,12.5c0,0.3,0.2,0.5,0.5,0.5c0.3-0.3,12.9,0.6,12.5-0.5
				C306,337.3,310.1,341.4,294,340.9z"/>
		</g>
		<g>
			<path class="st18" d="M327.6,354.9h-12c-0.8,0-1.5-0.7-1.5-1.5v-12c0-0.8,0.7-1.5,1.5-1.5h12c0.8,0,1.5,0.7,1.5,1.5v12
				C329.1,354.3,328.5,354.9,327.6,354.9z M315.6,340.9c-1.1-0.5-0.2,12.3-0.5,12.5c0,0.3,0.2,0.5,0.5,0.5
				c0.3-0.3,12.9,0.6,12.5-0.5C327.6,337.3,331.7,341.4,315.6,340.9z"/>
		</g>
		<g>
			<path class="st18" d="M349.3,354.9h-12c-0.8,0-1.5-0.7-1.5-1.5v-12c0-0.8,0.7-1.5,1.5-1.5h12c0.8,0,1.5,0.7,1.5,1.5v12
				C350.8,354.3,350.1,354.9,349.3,354.9z M337.3,340.9c-1.1-0.5-0.2,12.3-0.5,12.5c0,0.3,0.2,0.5,0.5,0.5
				c0.3-0.3,12.9,0.6,12.5-0.5C349.3,337.3,353.4,341.4,337.3,340.9z"/>
		</g>
		<g>
			<path class="st18" d="M370.9,354.9h-12c-0.8,0-1.5-0.7-1.5-1.5v-12c0-0.8,0.7-1.5,1.5-1.5h12c0.8,0,1.5,0.7,1.5,1.5v12
				C372.4,354.3,371.7,354.9,370.9,354.9z M358.9,340.9c-1.1-0.5-0.2,12.3-0.5,12.5c0,0.3,0.2,0.5,0.5,0.5
				c0.3-0.3,12.9,0.6,12.5-0.5C370.9,337.3,375,341.4,358.9,340.9z"/>
		</g>
		<g>
			<path class="st18" d="M404.6,354.9h-24c-0.8,0-1.5-0.7-1.5-1.5v-12c-1.4-3.1,24.7-0.8,25.5-1.5c0.8,0,1.5,0.7,1.5,1.5v12
				C406.1,354.3,405.4,354.9,404.6,354.9z M380.6,340.9c-1.1-0.5-0.2,12.3-0.5,12.5c0,0.3,0.2,0.5,0.5,0.5
				c0.8-0.4,24.2,0.8,24.5-0.5c-0.3-0.3,0.6-12.9-0.5-12.5C404.6,340.9,380.6,340.9,380.6,340.9z"/>
		</g>
		<g>
			<path class="st18" d="M229.3,335.3h-12c-0.8,0-1.5-0.7-1.5-1.5v-12c0-0.8,0.7-1.5,1.5-1.5h12c0.8,0,1.5,0.7,1.5,1.5v12
				C230.8,334.6,230.2,335.3,229.3,335.3z M217.3,321.3c-1.1-0.5-0.2,12.3-0.5,12.5c0,0.3,0.2,0.5,0.5,0.5
				c0.3-0.3,12.9,0.6,12.5-0.5C229.3,317.7,233.4,321.8,217.3,321.3z"/>
		</g>
		<g>
			<path class="st18" d="M207.4,335.3h-12c-0.8,0-1.5-0.7-1.5-1.5v-12c0-0.8,0.7-1.5,1.5-1.5h12c0.8,0,1.5,0.7,1.5,1.5v12
				C208.9,334.6,208.3,335.3,207.4,335.3z M195.4,321.3c-1.1-0.5-0.2,12.3-0.5,12.5c0,0.3,0.2,0.5,0.5,0.5
				c0.3-0.3,12.9,0.6,12.5-0.5C207.4,317.7,211.5,321.8,195.4,321.3z"/>
		</g>
		<g>
			<path class="st18" d="M251.2,335.3h-12c-0.8,0-1.5-0.7-1.5-1.5v-12c0-0.8,0.7-1.5,1.5-1.5h12c0.8,0,1.5,0.7,1.5,1.5v12
				C252.7,334.6,252.1,335.3,251.2,335.3z M239.2,321.3c-1.1-0.5-0.2,12.3-0.5,12.5c0,0.3,0.2,0.5,0.5,0.5
				c0.3-0.3,12.9,0.6,12.5-0.5C251.2,317.7,255.3,321.8,239.2,321.3z"/>
		</g>
		<g>
			<path class="st18" d="M273.1,335.3h-12c-0.8,0-1.5-0.7-1.5-1.5v-12c0-0.8,0.7-1.5,1.5-1.5h12c0.8,0,1.5,0.7,1.5,1.5v12
				C274.6,334.6,274,335.3,273.1,335.3z M261.1,321.3c-1.1-0.5-0.2,12.3-0.5,12.5c0,0.3,0.2,0.5,0.5,0.5c0.3-0.3,12.9,0.6,12.5-0.5
				C273.1,317.7,277.2,321.8,261.1,321.3z"/>
		</g>
		<g>
			<path class="st18" d="M295,335.3h-12c-0.8,0-1.5-0.7-1.5-1.5v-12c0-0.8,0.7-1.5,1.5-1.5h12c0.8,0,1.5,0.7,1.5,1.5v12
				C296.5,334.6,295.9,335.3,295,335.3z M283,321.3c-1.1-0.5-0.2,12.3-0.5,12.5c0,0.3,0.2,0.5,0.5,0.5c0.3-0.3,12.9,0.6,12.5-0.5
				C295,317.7,299.1,321.8,283,321.3z"/>
		</g>
		<g>
			<path class="st18" d="M317,335.3h-12c-0.8,0-1.5-0.7-1.5-1.5v-12c0-0.8,0.7-1.5,1.5-1.5h12c0.8,0,1.5,0.7,1.5,1.5v12
				C318.5,334.6,317.8,335.3,317,335.3z M305,321.3c-1.1-0.5-0.2,12.3-0.5,12.5c0,0.3,0.2,0.5,0.5,0.5c0.3-0.3,12.9,0.6,12.5-0.5
				C316.9,317.7,321,321.8,305,321.3z"/>
		</g>
		<g>
			<path class="st18" d="M338.9,335.3h-12c-0.8,0-1.5-0.7-1.5-1.5v-12c0-0.8,0.7-1.5,1.5-1.5h12c0.8,0,1.5,0.7,1.5,1.5v12
				C340.4,334.6,339.7,335.3,338.9,335.3z M326.9,321.3c-1.1-0.5-0.2,12.3-0.5,12.5c0,0.3,0.2,0.5,0.5,0.5
				c0.3-0.3,12.9,0.6,12.5-0.5C338.8,317.7,342.9,321.8,326.9,321.3z"/>
		</g>
		<g>
			<path class="st18" d="M360.8,335.3h-12c-0.8,0-1.5-0.7-1.5-1.5v-12c0-0.8,0.7-1.5,1.5-1.5h12c0.8,0,1.5,0.7,1.5,1.5v12
				C362.3,334.6,361.6,335.3,360.8,335.3z M348.8,321.3c-1.1-0.5-0.2,12.3-0.5,12.5c0,0.3,0.2,0.5,0.5,0.5
				c0.3-0.3,12.9,0.6,12.5-0.5C360.7,317.7,364.8,321.8,348.8,321.3z"/>
		</g>
		<g>
			<path class="st18" d="M382.7,335.3h-12c-0.8,0-1.5-0.7-1.5-1.5v-12c0-0.8,0.7-1.5,1.5-1.5h12c0.8,0,1.5,0.7,1.5,1.5v12
				C384.2,334.6,383.5,335.3,382.7,335.3z M370.7,321.3c-1.1-0.5-0.2,12.3-0.5,12.5c0,0.3,0.2,0.5,0.5,0.5
				c0.3-0.3,12.9,0.6,12.5-0.5C382.7,317.7,386.7,321.8,370.7,321.3z"/>
		</g>
		<g>
			<path class="st18" d="M404.6,335.3h-12c-0.8,0-1.5-0.7-1.5-1.5v-12c0-0.8,0.7-1.5,1.5-1.5h12c0.8,0,1.5,0.7,1.5,1.5v12
				C406.1,334.6,405.4,335.3,404.6,335.3z M392.6,321.3c-1.1-0.5-0.2,12.3-0.5,12.5c0,0.3,0.2,0.5,0.5,0.5
				c0.3-0.3,12.9,0.6,12.5-0.5C404.6,317.7,408.7,321.8,392.6,321.3z"/>
		</g>
		<path class="st18" d="M217.1,380.8c16.3,0.3,12.7-3.2,13,13c0.6,2-12.3,0.6-13,1c-0.6,0-1-0.4-1-1
			C216.5,393.1,215,380.3,217.1,380.8z"/>
		<path class="st18" d="M195.4,380.8c16.3,0.3,12.7-3.2,13,13c0.6,2-12.3,0.6-13,1c-0.6,0-1-0.4-1-1
			C194.9,393.1,193.4,380.3,195.4,380.8z"/>
		<path class="st18" d="M238.7,380.8c1,1,99.7-1.9,99.6,1c-0.4,0.8,1,13.5-1,13c-1-1-99.7,1.9-99.6-1
			C238.1,393,236.7,380.3,238.7,380.8z"/>
		<path class="st18" d="M346.9,380.8c16.3,0.3,12.7-3.2,13,13c0.6,2-12.3,0.6-13,1c-0.6,0-1-0.4-1-1
			C346.3,393.1,344.9,380.3,346.9,380.8z"/>
		<path class="st18" d="M382.6,388.7c0.9,0.4,9.3-1,9,1c-0.3,0.9,0.8,5.2-1,5.1c-0.9-0.4-9.3,1-9-1
			C381.8,392.9,380.8,388.6,382.6,388.7z"/>
		<path class="st18" d="M382.6,380.8c0.9,0.4,9.3-1,9,1c-0.3,0.9,0.8,5.2-1,5.1c-0.9-0.4-9.3,1-9-1
			C381.8,385,380.8,380.7,382.6,380.8z"/>
		<path class="st18" d="M396.6,388.7c0.9,0.4,9.3-1,9,1c-0.3,0.9,0.8,5.2-1,5.1c-0.9-0.4-9.3,1-9-1
			C395.8,392.9,394.8,388.6,396.6,388.7z"/>
		<path class="st18" d="M368.6,388.7c0.9,0.4,9.3-1,9,1c-0.3,0.9,0.8,5.2-1,5.1c-0.9-0.4-9.3,1-9-1
			C367.8,392.9,366.8,388.6,368.6,388.7z"/>
		<path class="st18" d="M195.4,360.9h31.6c0.6,0,1,0.4,1,1c-0.4,0.8,1.1,13.5-1,13c0,0-31.6,0-31.6,0c-2.1,0.6-0.6-12.3-1-13
			C194.4,361.4,194.9,360.9,195.4,360.9z"/>
		<path class="st18" d="M236.9,360.9c16.3,0.3,12.7-3.2,13,13c0.6,2-12.3,0.6-13,1c-0.6,0-1-0.4-1-1
			C236.3,373.1,234.9,360.4,236.9,360.9z"/>
		<path class="st18" d="M258.5,360.9c16.3,0.3,12.7-3.2,13,13c0.6,2-12.3,0.6-13,1c-0.6,0-1-0.4-1-1
			C258,373.1,256.5,360.4,258.5,360.9z"/>
		<path class="st18" d="M280.2,360.9c16.3,0.3,12.7-3.2,13,13c0.6,2-12.3,0.6-13,1c-0.6,0-1-0.4-1-1
			C279.6,373.1,278.1,360.4,280.2,360.9z"/>
		<path class="st18" d="M301.8,360.9c16.3,0.3,12.7-3.2,13,13c0.6,2-12.3,0.6-13,1c-0.6,0-1-0.4-1-1
			C301.2,373.1,299.8,360.4,301.8,360.9z"/>
		<path class="st18" d="M323.5,360.9c16.3,0.3,12.7-3.2,13,13c0.6,2-12.3,0.6-13,1c-0.6,0-1-0.4-1-1
			C322.9,373.1,321.4,360.4,323.5,360.9z"/>
		<path class="st18" d="M345.1,360.9c16.3,0.3,12.7-3.2,13,13c0.6,2-12.3,0.6-13,1c-0.6,0-1-0.4-1-1
			C344.5,373.1,343,360.4,345.1,360.9z"/>
		<path class="st18" d="M368.6,360.9h36c0.6,0,1,0.4,1,1c-0.4,0.8,1.1,13.5-1,13c0,0-36,0-36,0c-2.1,0.6-0.6-12.3-1-13
			C367.6,361.4,368,360.9,368.6,360.9z"/>
		<path class="st18" d="M229.1,340.4c16.3,0.3,12.7-3.2,13,13c0.6,2-12.3,0.6-13,1c-0.6,0-1-0.4-1-1
			C228.5,352.7,227,339.9,229.1,340.4z"/>
		<path class="st18" d="M195.4,340.4c0.6,0.5,25.9-1.2,25,1c-0.4,0.8,1.1,13.5-1,13c0,0-24,0-24,0c-2.1,0.6-0.6-12.3-1-13
			C194.4,340.9,194.9,340.4,195.4,340.4z"/>
		<path class="st18" d="M250.7,340.4c16.3,0.3,12.7-3.2,13,13c0.6,2-12.3,0.6-13,1c-0.6,0-1-0.4-1-1
			C250.1,352.7,248.7,339.9,250.7,340.4z"/>
		<path class="st18" d="M272.4,340.4c16.3,0.3,12.7-3.2,13,13c0.6,2-12.3,0.6-13,1c-0.6,0-1-0.4-1-1
			C271.8,352.7,270.3,339.9,272.4,340.4z"/>
		<path class="st18" d="M294,340.4c16.3,0.3,12.7-3.2,13,13c0.6,2-12.3,0.6-13,1c-0.6,0-1-0.4-1-1C293.4,352.7,292,339.9,294,340.4z
			"/>
		<path class="st18" d="M315.6,340.4c16.3,0.3,12.7-3.2,13,13c0.6,2-12.3,0.6-13,1c-0.6,0-1-0.4-1-1
			C315.1,352.7,313.6,339.9,315.6,340.4z"/>
		<path class="st18" d="M337.3,340.4c16.3,0.3,12.7-3.2,13,13c0.6,2-12.3,0.6-13,1c-0.6,0-1-0.4-1-1
			C336.7,352.7,335.2,339.9,337.3,340.4z"/>
		<path class="st18" d="M358.9,340.4c16.3,0.3,12.7-3.2,13,13c0.6,2-12.3,0.6-13,1c-0.6,0-1-0.4-1-1
			C358.3,352.7,356.9,339.9,358.9,340.4z"/>
		<path class="st18" d="M380.6,340.4c0.6,0.5,25.9-1.2,25,1c-0.4,0.8,1.1,13.5-1,13c0,0-24,0-24,0c-2.1,0.6-0.6-12.3-1-13
			C379.6,340.9,380,340.4,380.6,340.4z"/>
		<path class="st18" d="M217.3,320.8c16.3,0.3,12.7-3.2,13,13c0.6,2-12.3,0.6-13,1c-0.6,0-1-0.4-1-1
			C216.8,333.1,215.3,320.3,217.3,320.8z"/>
		<path class="st18" d="M195.4,320.8c16.3,0.3,12.7-3.2,13,13c0.6,2-12.3,0.6-13,1c-0.6,0-1-0.4-1-1
			C194.9,333.1,193.4,320.3,195.4,320.8z"/>
		<path class="st18" d="M239.2,320.8c16.3,0.3,12.7-3.2,13,13c0.6,2-12.3,0.6-13,1c-0.6,0-1-0.4-1-1
			C238.7,333.1,237.2,320.3,239.2,320.8z"/>
		<path class="st18" d="M261.1,320.8c16.3,0.3,12.7-3.2,13,13c0.6,2-12.3,0.6-13,1c-0.6,0-1-0.4-1-1
			C260.6,333.1,259.1,320.3,261.1,320.8z"/>
		<path class="st18" d="M283,320.8c16.3,0.3,12.7-3.2,13,13c0.6,2-12.3,0.6-13,1c-0.6,0-1-0.4-1-1C282.5,333.1,281,320.3,283,320.8z
			"/>
		<path class="st18" d="M305,320.8c16.3,0.3,12.7-3.2,13,13c0.6,2-12.3,0.6-13,1c-0.6,0-1-0.4-1-1
			C304.4,333.1,302.9,320.3,305,320.8z"/>
		<path class="st18" d="M326.9,320.8c16.3,0.3,12.7-3.2,13,13c0.6,2-12.3,0.6-13,1c-0.6,0-1-0.4-1-1
			C326.3,333.1,324.8,320.3,326.9,320.8z"/>
		<path class="st18" d="M348.8,320.8c16.3,0.3,12.7-3.2,13,13c0.6,2-12.3,0.6-13,1c-0.6,0-1-0.4-1-1
			C348.2,333.1,346.7,320.3,348.8,320.8z"/>
		<path class="st18" d="M370.7,320.8c16.3,0.3,12.7-3.2,13,13c0.6,2-12.3,0.6-13,1c-0.6,0-1-0.4-1-1
			C370.1,333.1,368.6,320.3,370.7,320.8z"/>
		<path class="st18" d="M392.6,320.8c16.3,0.3,12.7-3.2,13,13c0.6,2-12.3,0.6-13,1c-0.6,0-1-0.4-1-1
			C392,333.1,390.5,320.3,392.6,320.8z"/>
		<path class="st18" d="M215,288.9c0,0,170,0,170,0v13.4c0,2.2-1.8,4-4,4H219c-2.2,0-4-1.8-4-4V288.9L215,288.9z"/>
		<rect x="215" y="288.9" class="st26" width="170" height="2"/>
		<path class="st27" d="M381,302.4H219c-2.2,0-4-1.8-4-4c-0.1,3.1-0.4,8.1,4,8c0,0,162,0,162,0c4.3,0.1,4.2-4.9,4-8
			C385,300.6,383.2,302.4,381,302.4z"/>
		<g>
			<path class="st15" d="M381,307.4H219c-2.8,0-5-2.2-5-5c0.4-0.7-1.1-15.1,1-14.4c1.1,1,171.1-1.9,171,1
				C385.2,293.4,388.9,307.5,381,307.4z M216,289.9v12.4c0,1.7,1.3,3,3,3h162c1.7,0,3-1.3,3-3v-12.4H216z"/>
		</g>
		<path class="st25" d="M265,408.3h70c1.1,0,2,0.9,2,2c-1.1,1.2,2.5,50.8-2,49c0,0-70,0-70,0c-1.1,0-2-0.9-2-2
			C264.1,456.1,260.5,406.5,265,408.3z"/>
		<g>
			<path class="st18" d="M335,459.8c-1.1-1.2-75.4,2.9-72.5-2.5c0,0,0-47,0-47c0-1.4,1.1-2.5,2.5-2.5c1.1,1.2,75.4-2.9,72.5,2.5
				c0,0,0,47,0,47C337.5,458.7,336.4,459.8,335,459.8z M265,408.8c-3.6-0.7-0.5,47.2-1.5,48.5c0,0.8,0.7,1.5,1.5,1.5h70
				c3.6,0.7,0.5-47.2,1.5-48.5c0-0.8-0.7-1.5-1.5-1.5H265z"/>
		</g>
		<path class="st28" d="M300,141.1c3.9-0.1,3.9,6.1,0,6C296.1,147.1,296.1,141,300,141.1z"/>
		<g>
			<path class="st15" d="M300,147.6c-4.5,0.1-4.5-7.1,0-7C304.5,140.5,304.5,147.6,300,147.6z M300,141.6c-3.2,0-3.2,5,0,5
				C303.2,146.6,303.2,141.5,300,141.6z"/>
		</g>
		<path class="st22" d="M350.4,165.1c0.8,0.4,13.5-1,13,1l0,0c0.6,2-12.3,0.6-13,1c-0.6,0-1-0.4-1-1l0,0
			C349.4,165.6,349.8,165.1,350.4,165.1z"/>
		<path class="st22" d="M376.3,165.1c0.8,0.4,13.5-1,13,1l0,0c0.6,2-12.3,0.6-13,1c-0.6,0-1-0.4-1-1l0,0
			C375.3,165.6,375.8,165.1,376.3,165.1z"/>
		<path class="st22" d="M324.4,165.1c0.8,0.4,13.5-1,13,1l0,0c0.6,2-12.3,0.6-13,1c-0.6,0-1-0.4-1-1l0,0
			C323.4,165.6,323.8,165.1,324.4,165.1z"/>
		<path class="st22" d="M207.2,161.8c6.3-0.1,6.3,9.8,0,9.7C201,171.6,201,161.7,207.2,161.8z"/>
		<g class="st29">
			<rect x="249.3" y="219.6" class="st22" width="101.2" height="3.6"/>
			<rect x="262.1" y="207.5" class="st22" width="75.6" height="3.7"/>
		</g>
		<g>
			<path class="st22" d="M317.4,259.4h-28.8c-7.7,0.1-7.8-12.1,0-12c0,0,28.8,0,28.8,0C325.2,247.3,325.2,259.5,317.4,259.4z
				 M288.6,248.4c-6.5-0.1-6.5,10.1,0,10c0,0,28.8,0,28.8,0c6.5,0.1,6.5-10.1,0-10C317.4,248.4,288.6,248.4,288.6,248.4z"/>
		</g>
	</g>
</g>
</svg>
