<?xml version="1.0" encoding="utf-8"?>
<!-- Generator: Adobe Illustrator 24.3.0, SVG Export Plug-In . SVG Version: 6.00 Build 0)  -->
<svg version="1.1" id="Layer_1" xmlns="http://www.w3.org/2000/svg" xmlns:xlink="http://www.w3.org/1999/xlink" x="0px" y="0px"
	 viewBox="0 0 202.18 213.93" enable-background="new 0 0 202.18 213.93" xml:space="preserve">
<path fill="#5A3000" d="M188.59,62.25c-0.5-0.36-0.99-0.73-1.48-1.09c-3.83-2.85-8.16-6.07-15.61-6.07c-3.14,0-6.67,0.57-10.77,1.75
	c1.35-5.07,2.25-11.21,1.75-17.36c-0.86-10.72-5.77-19.65-14.18-25.82c-6.52-4.79-15.48-7.42-25.22-7.42
	c-4.98,0-10.02,0.71-14.56,2.05c-9.05,2.68-15.31,6.33-21.42,12.66c-7.58-6.03-16.23-9.31-24.74-9.31c-6.05,0-11.92,1.65-16.99,4.78
	c-5.32,3.29-12.82,8.61-16.43,16.83c-4.36,9.92-4.36,20.61,0.02,32.66c0.59,1.62,1.31,3.2,2.09,4.73c-0.8,0.15-1.58,0.31-2.35,0.48
	c-8.56,1.93-15.1,5.77-19.43,11.44c-6.42,8.4-6.48,18.64-0.15,26.73c3.33,4.26,8.46,7.74,15.3,10.39c-0.01,0.31-0.03,0.82,0.08,1.45
	c0.22,1.28,0.43,2.56,0.64,3.84c0.52,3.14,1.06,6.4,1.65,9.61c3.02,16.31,6.74,33.37,11.04,50.69c0.08,0.32,0.16,0.63,0.24,0.95
	c-0.37-0.04-0.75-0.06-1.14-0.06c-1.06,0-2,0.16-2.79,0.3c-3.03,0.56-4.56,2.33-5.32,3.71c-0.16,0.3-0.29,0.57-0.39,0.8
	c-0.68,0.52-1.66,1.33-2.36,2.7c-0.98,1.89-0.9,3.74-0.85,4.84l0,0.05c0.14,3.29,1.06,5.87,2.82,7.88c1.33,1.52,3.81,3.33,8.08,3.35
	l0.08,0l0.3,0l0.03,0c1.04,0.65,2.09,1.07,3.31,1.36c0.54,0.13,1.37,0.29,2.32,0.29c1.27,0,2.46-0.29,3.52-0.87
	c1.75-0.95,2.68-2.43,3.15-3.22c0.06-0.03,0.12-0.07,0.18-0.11c1.5-0.88,2.74-2.11,3.59-3.56c0.11-0.19,0.21-0.38,0.31-0.58
	c1.54,0.29,3.09,0.58,4.63,0.87l4.29,0.82c14.92,2.84,29.85,5.67,44.77,8.53c0.77,0.15,1.49,0.22,2.2,0.22
	c1.66,0,3.21-0.39,4.74-1.21c8.55-4.53,17.26-9.12,25.68-13.55c0.36-0.19,0.71-0.38,1.07-0.56c-0.05,1.18,0.07,2.71,0.79,4.19
	c0.56,1.15,1.72,2.73,4.08,3.8c0.9,0.4,1.76,0.67,2.51,0.91l0.42,0.13c0.16,0.05,0.32,0.11,0.48,0.16c0.83,0.28,1.87,0.63,3.08,0.78
	c0.32,0.04,0.64,0.06,0.97,0.06c1.19,0,2.16-0.25,2.87-0.43c0.16-0.04,0.31-0.08,0.47-0.12c0.19-0.04,0.39-0.06,0.58-0.09
	c0.76-0.1,1.79-0.24,2.93-0.71c0.41-0.17,0.81-0.36,1.19-0.58c0.43,0.18,0.87,0.35,1.35,0.47c0.59,0.15,1.21,0.25,1.89,0.32
	c0.06,0.01,0.12,0.01,0.18,0.02c0.87,0.36,1.77,0.54,2.68,0.54c2.23,0,4.28-1.15,5.49-3.08l0.06-0.1c0.35-0.3,0.83-0.73,1.3-1.34
	c1.98-2.59,1.93-6.05-0.13-8.42c-0.1-0.11-0.2-0.22-0.29-0.31c-0.16-0.35-0.38-0.77-0.69-1.19c-1.03-1.42-2.52-2.37-4.18-2.69
	c-0.37-0.07-0.76-0.11-1.15-0.11c-0.23,0-0.44,0.01-0.64,0.03c-0.07-0.02-0.15-0.04-0.23-0.05c-0.44-0.09-0.9-0.14-1.35-0.14
	c-0.04,0-0.08,0.01-0.12,0.01c-1.01-1.6-2.52-2.5-3.66-3.05c0.02-0.01,0.05-0.03,0.07-0.04c0.21-0.11,0.44-0.21,0.66-0.31
	c0.57-0.26,1.29-0.59,2.05-1.07c0.51,0.37,1.1,0.73,1.81,1.03c1.12,0.48,2.36,0.73,3.57,0.73c2.83,0,5.36-1.29,6.95-3.54
	c0.43-0.61,0.7-1.21,0.89-1.73c0.36-0.18,0.72-0.36,1.07-0.55c0.75-0.39,3.03-1.59,4.11-4.26c0.44-1.09,0.56-2.1,0.64-2.76
	c0.02-0.13,0.04-0.3,0.05-0.39c0.26-0.81,0.79-2.57,0.03-4.63c-0.75-2.02-2.29-3.06-2.8-3.4c-0.23-0.16-0.47-0.3-0.72-0.44
	c-0.05-0.32-0.12-0.63-0.2-0.94c-0.65-2.5-2.32-4.58-4.58-5.7c-0.91-0.45-1.9-0.74-2.92-0.85c0.12-0.62,0.25-1.25,0.37-1.87
	l3.66-18.08l5.48-27.06c0.02-0.07,0.04-0.14,0.06-0.22c0.11-0.42,0.28-1.01,0.35-1.75c7.2-4.33,13.52-11.57,15.43-20.83
	C199.28,78.6,195.57,67.29,188.59,62.25z"/>
<g>
	<path fill="#F8F189" d="M47.98,197.37c-0.73-0.36-1.89-0.24-1.92-1.4c-0.03-1.28-0.51-2.35-1.22-3.33
		c-0.31-0.28-0.65-0.49-1.08-0.47c-0.82,0.03-1.49,0.57-2.27,0.73c-0.82,0.18-1.54-0.12-2.26-0.47c-0.39-0.19-0.79-0.4-1.22-0.49
		c-0.47-0.1-0.94-0.01-1.41,0.02c-0.01,0-0.01,0-0.02,0c-0.66,0.17-1.31,0.33-1.97,0.5c-0.06,0.04-0.13,0.09-0.19,0.13
		c-0.08,0.08-0.17,0.14-0.27,0.18c-0.02,0.02-0.04,0.03-0.07,0.05c0.09-0.06-0.02,0.02-0.04,0.04c-0.02,0.02-0.05,0.04-0.07,0.07
		c-0.01,0.01-0.02,0.03-0.04,0.04c0,0.01,0,0.01-0.01,0.01c-0.09,0.13-0.17,0.26-0.24,0.39c-0.01,0.06-0.02,0.11-0.04,0.17
		c-0.05,0.22-0.12,0.43-0.25,0.62c-0.25,0.38-0.63,0.59-1.02,0.79c-0.09,0.05-0.17,0.09-0.25,0.14c-0.13,0.09-0.25,0.19-0.37,0.3
		c-0.28,0.26-0.42,0.57-0.51,0.94c-0.17,0.65-0.2,1.32-0.2,1.99c0.06,0.09,0.1,0.2,0.07,0.34c-0.02,0.09-0.04,0.18-0.05,0.27
		c-0.01,0.1-0.01,0.21-0.01,0.31c0.12,2.25,1.71,4.13,3.84,4.56c0.24-1.3,1.99-2.06,3.05-1.31c0.81,0.57,0,1.03-0.16,1.54
		c0.79-0.15,1.49-0.11,2,0.65c0.49,0.74,1.48,0.63,2.12,1.13c0.28-0.14,0.66,0.05,0.89-0.26c-0.16-0.52-0.52-0.91-0.63-1.49
		c-0.18-0.97-0.13-1.89,0.84-2.16c1-0.28,0.93,0.9,1.32,1.45c0.24-0.62,0.82-0.66,1.34-0.82C47.9,201.83,48.99,199.42,47.98,197.37z
		"/>
	<path fill="#F8F189" d="M172.86,178.14c-0.6,0.4-0.55,1.17-0.94,1.68c-0.3-0.87-0.04-1.82-0.45-2.68c-0.27-0.56-0.6-0.83-1.16-0.42
		c-0.9,0.66-1.22,1.58-1.03,2.66c0.17,0.97,0.46,1.91,1.74,1.91c-1.81,0.86-3.6,0.65-4.89-0.79c-0.79-0.88-1.59-1.13-2.66-0.79
		c1.07-1.96,1.07-1.96-0.52-2.41c0.8-3.98,1.59-7.96,2.41-11.94c0.09-0.42,0.11-1.31,0.83-0.71c1.12,0.93,2.01,0.4,2.99-0.12
		c0.37-0.19,0.77-0.32,1.15-0.48c0.01-0.08,0.05-0.13,0.13-0.14c0,0,0.01-0.05,0.01-0.05c0.39-0.15,0.79-0.13,1.17,0.02
		c1.73,1.3,2.86,2.87,2.37,5.19c-0.06,0.29-0.07,0.62,0.27,0.67c1.07,0.15,1.89,1.06,3.04,0.94l-0.02-0.02
		c0.62,1.56,0.67,3.12,0.06,4.69c-0.27,0.37-0.25,0.99-0.87,1.07c0,0,0.08,0.06,0.08,0.06l-0.11,0.05c0,0,0.02-0.03,0.02-0.03
		c-1.21,0.57-2.42,1.13-3.63,1.7L172.86,178.14z"/>
	<path fill="#F8F189" d="M159.14,192.19c0.54,0.15,0.94,0.47,1.21,0.96c0.36,1.1,0.37,2.23,0.27,3.37l0.02-0.03
		c-0.46,0.31-0.72,0.8-0.52,1.26c0.35,0.82,0.03,1.45-0.34,2.1l0.03-0.04c-0.18,0.11-0.36,0.22-0.53,0.33
		c-0.12-0.63,0.22-1.16,0.39-1.72c0.1-0.36,0.01-0.67-0.26-0.85c-0.26-0.17-0.52,0.07-0.73,0.22c-1.1,0.8-1.03,1.93,0.16,2.76
		c-0.23,0.24-0.63,0.3-0.71,0.69c0,0,0.03-0.03,0.03-0.03c-0.31-0.03-0.28,0.33-0.48,0.42c-0.12,0.07-0.25,0.15-0.37,0.22
		c0,0,0.05-0.01,0.05-0.01c-1.54-0.06-3.02,0.17-4.43,0.79c-0.17,0.07-0.4,0.23-0.51,0.17c-1.93-1.01-4.36-0.96-5.94-2.69
		c-1.03-1.13-0.86-2.7,0.27-3.7c0.8-0.7,1.21-1.58,0.97-2.66c-0.55-2.58-0.25-3.06,2.39-3.63c0.45-0.1,0.89-0.19,1.34-0.28
		c1.44-0.49,2.86-0.55,4.21,0.3c0,0-0.04-0.03-0.04-0.03c0.1,0.1,0.21,0.21,0.31,0.31c0,0-0.03-0.03-0.03-0.03
		c0.1,0.1,0.21,0.21,0.31,0.31c0,0-0.03-0.03-0.03-0.03c0.1,0.1,0.21,0.21,0.31,0.31l-0.03-0.03c0.08,0.33,0.34,0.31,0.59,0.3
		L157,191.2c0.47,0.47,1.08,0.55,1.7,0.58l-0.03-0.02C158.56,192.19,159.13,191.89,159.14,192.19z M154.94,193.05
		c0.12-0.07,0.9,0.47,1.12-0.19c0.23-0.73-0.39-1.31-0.96-1.67c-1.01-0.65-2.17-0.68-3.3-0.38c-0.6,0.16-0.9,0.65-0.28,1.08
		C152.43,192.52,153.26,193.46,154.94,193.05z"/>
	<path fill="#F8F189" d="M166.35,202.06c-0.85-0.56-2.08-0.4-3.2-0.73c-1.11-0.33-1.52-1.29-1.6-2.35c-0.06-0.84,0.27-1.46,0.98-2.1
		c1.07-0.96,2.07-1.32,3.33-0.66c0.37,0.19,0.67,0.04,0.9-0.07c0.85-0.42,1.46,0.28,1.54,0.7c0.14,0.81,0.43,1.29,1.13,1.65
		c0.46,0.24,0.15,0.64,0.01,0.96c-0.43,0.97-1.56,1.37-1.95,2.41C167.37,202.18,166.89,202.05,166.35,202.06z"/>
	<path fill="#422505" d="M177.33,170.66c-1.15,0.12-1.97-0.79-3.04-0.94c-0.34-0.05-0.34-0.38-0.27-0.67
		c0.49-2.31-0.65-3.88-2.37-5.19c1.96,0.89,2.68,2.53,2.65,4.55c-0.01,0.79,0.12,1.15,1.01,1.21
		C176.07,169.68,176.81,170.02,177.33,170.66z"/>
	<path fill="#422505" d="M177.36,175.33c0.61-1.57,0.56-3.13-0.06-4.69c1.22,0.92,1,2.11,0.6,3.31
		C177.75,174.43,177.54,174.88,177.36,175.33z"/>
	<path fill="#422505" d="M172.85,178.18c1.21-0.57,2.42-1.13,3.63-1.7C175.64,177.84,174.36,178.27,172.85,178.18z"/>
	<path fill="#422505" d="M155.64,190.13c-1.35-0.85-2.77-0.79-4.21-0.3C152.89,188.91,154.54,189.03,155.64,190.13z"/>
	<path fill="#422505" d="M160.62,196.52c0.1-1.14,0.09-2.27-0.27-3.37C161.14,194.22,161.04,195.36,160.62,196.52z"/>
	<path fill="#422505" d="M159.78,199.86c0.37-0.66,0.69-1.28,0.34-2.1c-0.2-0.46,0.06-0.96,0.52-1.26
		C160.18,197.57,160.36,198.81,159.78,199.86z"/>
	<path fill="#422505" d="M158.11,201.24c0.08-0.39,0.48-0.45,0.71-0.69l0.01-0.01c0.21-0.07,0.41-0.15,0.45-0.4l0,0.01
		c0.18-0.11,0.36-0.22,0.53-0.33C159.53,200.63,159,201.15,158.11,201.24z"/>
	<path fill="#422505" d="M158.7,191.78c-0.62-0.03-1.23-0.11-1.7-0.58C157.58,191.36,158.2,191.4,158.7,191.78z"/>
	<path fill="#422505" d="M159.14,192.19c-0.01-0.3-0.58,0-0.47-0.43C158.89,191.84,159.23,191.78,159.14,192.19z"/>
	<path fill="#422505" d="M157.66,201.63c0.2-0.1,0.17-0.45,0.48-0.42C158.27,201.68,157.74,201.4,157.66,201.63z"/>
	<path fill="#422505" d="M157.03,191.23c-0.25,0.01-0.51,0.02-0.59-0.3C156.73,190.85,156.87,191.06,157.03,191.23z"/>
	<polygon fill="#422505" points="157.34,201.84 157.29,201.86 157.29,201.87 	"/>
	<path fill="#422505" d="M155.91,190.41c-0.1-0.1-0.21-0.21-0.31-0.31C155.87,190.04,155.93,190.18,155.91,190.41z"/>
	<path fill="#422505" d="M156.19,190.68c-0.1-0.1-0.21-0.21-0.31-0.31C156.12,190.34,156.19,190.48,156.19,190.68z"/>
	<path fill="#422505" d="M156.47,190.96c-0.1-0.1-0.21-0.21-0.31-0.31C156.38,190.64,156.49,190.74,156.47,190.96z"/>
	<polygon fill="#422505" points="176.46,176.51 176.57,176.46 176.49,176.4 	"/>
	<path fill="#422505" d="M170.47,163.86c0,0-0.01,0.05-0.01,0.05C170.46,163.9,170.47,163.86,170.47,163.86z"/>
	<path fill="#F8F8F8" d="M77.36,193.28c0-5.45,0.03-10.91-0.01-16.36c-0.06-7.67-0.18-15.34-0.27-23.01
		c-0.09-7.9-0.13-15.8-0.31-23.7c-0.06-2.59-0.05-5.17-0.12-7.76c-0.02-0.68,0.11-1.21,0.65-1.71c2.93-2.68,5.82-5.41,8.73-8.11
		c0.55-0.51,0.9-0.72,1.59,0.09c5.27,6.17,10.59,12.29,16,18.34c0.84,0.94,1.05,1.91,1.1,3c0.22,4.47,0.37,8.94,0.58,13.41
		c0.3,6.44,0.64,12.88,0.95,19.33c0.21,4.33,0.37,8.66,0.57,12.99c0.31,6.58,0.65,13.17,0.96,19.75c0.08,1.66,0.06,3.32,0.16,4.98
		c0.05,0.76-0.09,0.94-0.89,0.78c-7.88-1.52-15.77-2.99-23.66-4.48c-1.5-0.28-2.98-0.63-4.49-0.82c-1.1-0.14-1.49-0.61-1.44-1.71
		c0.08-1.66,0.02-3.33,0.02-5C77.45,193.28,77.41,193.28,77.36,193.28z"/>
	<path fill="#EDF0F6" d="M110.35,204.97c-0.35-7.83-0.67-15.42-1.02-23.02c-0.41-8.98-0.82-17.96-1.26-26.94
		c-0.35-7.32-0.72-14.64-1.12-21.95c-0.05-0.86,0.26-1.46,0.78-2.1c5.63-6.82,11.25-13.65,16.86-20.49c0.43-0.52,0.68-0.81,1.3-0.06
		c1.99,2.41,4.09,4.74,6.18,7.07c0.34,0.38,0.47,0.73,0.48,1.22c0.08,4.85,0.17,9.7,0.27,14.55c0.18,8.22,0.36,16.43,0.56,24.64
		c0.12,5.12,0.28,10.24,0.41,15.36c0.15,6.23,0.28,12.46,0.44,18.69c0.01,0.47,0.1,0.82-0.45,1.1
		C126.01,196.99,118.26,200.94,110.35,204.97z"/>
	<path fill="#F8F8F8" d="M33.35,125.27c5.66,3.37,11.16,6.64,16.66,9.92c1.66,0.99,3.3,2.03,5,2.97c0.69,0.38,0.97,0.87,1.08,1.62
		c2.49,16.11,4.99,32.23,7.49,48.34c0.47,3.03,0.92,6.07,1.4,9.21c-5.4-1.03-10.69-2.05-15.98-3.02c-0.76-0.14-0.82-0.64-0.95-1.17
		c-3.23-12.46-6.23-24.96-8.94-37.54c-2.12-9.87-4.06-19.78-5.79-29.72C33.3,125.74,33.33,125.6,33.35,125.27z"/>
	<path fill="#EDF0F6" d="M172.67,114.64c-0.99,5.2-1.96,10.41-2.97,15.61c-3.11,15.92-6.25,31.83-9.33,47.75
		c-0.23,1.21-0.73,1.88-1.84,2.42c-3.73,1.82-7.4,3.76-11.1,5.64c-0.4,0.2-0.76,0.55-1.4,0.41c0-0.43,0-0.88,0-1.34
		c0-17.72,0.01-35.44-0.02-53.16c0-1.05,0.31-1.62,1.22-2.18c8.17-5.03,16.29-10.12,24.43-15.19c0.23-0.14,0.5-0.23,0.75-0.35
		C172.5,114.39,172.58,114.51,172.67,114.64z"/>
	<path fill="#EB4235" d="M74.43,124.09c0.1,1.75,0.26,3.4,0.28,5.05c0.06,7.03-0.05,14.07,0.12,21.1c0.21,8.14,0.1,16.28,0.29,24.42
		c0.17,7.68,0.2,15.35,0.26,23.03c0.01,1.06-0.2,1.36-1.3,1.1c-1.97-0.48-3.98-0.81-5.98-1.19c-0.57-0.11-0.82-0.37-0.91-1
		c-1.57-10.35-3.17-20.7-4.77-31.05c-1.32-8.52-2.62-17.05-3.98-25.56c-0.12-0.77-0.05-1.31,0.54-1.84
		c5.04-4.63,10.06-9.27,15.08-13.91C74.11,124.18,74.21,124.17,74.43,124.09z"/>
	<g>
		<path fill="#EB4235" d="M140.89,189.28c0,0.01,0,0.01,0,0.02C140.88,189.3,140.89,189.28,140.89,189.28z"/>
		<path fill="#EB4235" d="M140.33,189.56c0,0.01,0,0.01,0,0.02C140.33,189.57,140.34,189.56,140.33,189.56z"/>
	</g>
	<path fill="#F8F189" d="M37.21,116c-0.31-0.65-0.6-1.14-1.48-1.21c-1.64-0.14-3.26-0.57-4.9-0.7c-2.04-0.16-3.91-1.02-5.94-1.18
		c0.36,0.2,0.71,0.4,1.07,0.6c2.95,1.62,6.28,1.92,9.46,2.75c0.16,0.01,0.31,0.04,0.47,0.08c0.19,0.01,0.36,0.04,0.49,0.21
		c0.16,0.1,0.32,0.22,0.44,0.37c0.35,0.43,0.48,0.95,0.46,1.49c-0.02,0.51-0.1,1.03-0.28,1.51c-0.16,0.44-0.41,0.88-0.81,1.13
		c-0.68,1.57-0.28,2.22,1.26,3.23C38.61,121.49,38.5,118.73,37.21,116z"/>
	<path fill="#F8F3B4" d="M171.01,181.28c-1.28,0-1.56-0.94-1.74-1.91c-0.19-1.07,0.13-2,1.03-2.66c0.56-0.41,0.89-0.14,1.16,0.42
		c0.41,0.86,0.15,1.81,0.45,2.68c0,0,0,0.02,0,0.02c-0.74,0.17-0.77,0.68-0.62,1.28C171.19,181.17,171.1,181.23,171.01,181.28z"/>
	<path fill="#F8F3B4" d="M162.94,177.28c1.59,0.45,1.59,0.45,0.52,2.41c-0.56,0.25-1.13,0.5-0.91-0.55
		C162.69,178.53,162.81,177.9,162.94,177.28z"/>
	<path fill="#F8F189" d="M40.54,74.28c0.54,0.3,1.13,0.87,0.93,1.33c-0.31,0.71-1.19,0.21-1.81,0.32
		C39.95,75.38,40.25,74.83,40.54,74.28z"/>
	<path fill="#F8F189" d="M171.29,181.12c-0.15-0.6-0.12-1.11,0.62-1.28C171.79,180.31,171.83,180.86,171.29,181.12z"/>
	<path fill="#EDF0F6" d="M172.41,114.26c0.08-0.17,0.25-0.3,0.37-0.15c0.15,0.16,0.09,0.39-0.12,0.53
		C172.58,114.51,172.5,114.39,172.41,114.26z"/>
	<path fill="#F8F189" d="M86.16,28.42c-0.11-0.1-0.22-0.19-0.32-0.29C85.95,28.23,86.06,28.33,86.16,28.42z"/>
	<path fill="#F8F189" d="M86.5,28.57c-0.19,0.08-0.3,0-0.36-0.18C86.26,28.46,86.38,28.51,86.5,28.57z"/>
	<path fill="#F8F189" d="M86.8,28.85c-0.22,0.05-0.31-0.03-0.26-0.26C86.62,28.68,86.71,28.77,86.8,28.85z"/>
	<path fill="#F8F8F8" d="M152.37,65.2c-0.1,0.04-0.19,0.08-0.29,0.12c0.01-0.11,0.02-0.23,0.04-0.34
		C152.2,65.05,152.28,65.12,152.37,65.2z"/>
	<path fill="#F8F3B4" d="M44.42,203.86c-0.56,0.54-0.49,1.72-1.65,1.67c-0.16-0.52-0.52-0.91-0.63-1.49
		c-0.18-0.97-0.13-1.89,0.84-2.16c1-0.28,0.93,0.9,1.32,1.45C44.34,203.5,44.38,203.68,44.42,203.86z"/>
	<path fill="#F8F3B4" d="M37.77,204.02c-0.75,0.32-1.51,0.4-2.28,0.08c-0.08-0.32-0.29-0.37-0.57-0.31c0,0-0.04,0-0.04,0
		c0.24-1.3,1.99-2.06,3.05-1.31C38.74,203.06,37.93,203.51,37.77,204.02z"/>
	<path fill="#F8F3B4" d="M154.94,193.05c-1.68,0.41-2.51-0.53-3.42-1.16c-0.62-0.43-0.32-0.92,0.28-1.08
		c1.13-0.3,2.29-0.28,3.3,0.38c0.57,0.37,1.19,0.94,0.96,1.67C155.84,193.51,155.06,192.98,154.94,193.05z"/>
	<path fill="#F8F3B4" d="M158.82,200.56c-1.19-0.83-1.26-1.96-0.16-2.76c0.21-0.16,0.48-0.39,0.73-0.22
		c0.27,0.18,0.37,0.49,0.26,0.85c-0.16,0.57-0.51,1.09-0.39,1.72c0,0,0-0.01,0-0.01c-0.27,0-0.53,0.01-0.45,0.4L158.82,200.56z"/>
	<path fill="#F8F189" d="M34.92,203.79c0.28-0.06,0.5-0.01,0.57,0.31C35.23,204.12,35.01,204.07,34.92,203.79z"/>
	<path fill="#F8F189" d="M158.83,200.55c-0.08-0.39,0.18-0.4,0.45-0.4C159.24,200.4,159.04,200.48,158.83,200.55z"/>
	<path fill="#422505" d="M77.69,67.85c4.68,1.25,9.32,1.96,14.03,1.95c5.52-0.02,10.84-1.34,16.11-2.85
		c1.73-0.49,3.43-1.08,5.13-1.65c0.52-0.18,0.87-0.3,0.88,0.48c0.09,8.11-2.35,15.03-9.59,19.46c-7.36,4.5-16.95,2.21-22.03-5.06
		C79.81,76.74,78.13,72.2,77.69,67.85z M111.14,68.73c-0.72-0.13-1.35,0.23-2,0.42c-7.88,2.31-15.83,3.96-24.11,2.66
		c-1.35-0.21-2.7-0.39-4.15-0.6c0.55,2.47,1.48,4.63,2.77,6.59c3.28,5,7.77,7.77,13.96,7.06C106.06,83.89,111.1,75.78,111.14,68.73
		c0.03-0.02,0.07-0.03,0.09-0.05c0.01-0.01,0-0.05,0-0.08C111.2,68.64,111.17,68.69,111.14,68.73z"/>
	<path fill="#422505" d="M59.55,58.58c-0.17-1.24-0.2-2.47,0.16-3.69c0.87-2.91,3.61-3.87,6.09-2.14c2.55,1.78,4.03,5.86,3.23,8.86
		c-0.83,3.07-3.63,4.1-6.23,2.28c-0.87-0.61-1.62-1.36-2.02-2.38c0.23-0.01,0.46-0.03,0.69-0.02c1,0.06,1.75-0.33,2.02-1.3
		c0.25-0.89,0.12-1.77-0.77-2.31c-0.94-0.57-1.83-0.5-2.63,0.3C59.93,58.33,59.73,58.44,59.55,58.58z"/>
	<path fill="#422505" d="M120.61,54.24c0-0.51-0.09-1.03,0.02-1.52c0.44-1.92,1.18-3.64,3.36-4.13c1.7-0.38,3.59,0.67,4.71,2.74
		c1.46,2.7,1.75,5.53,0.24,8.3c-1.31,2.4-3.93,2.74-5.94,0.91c-1.02-0.93-1.66-2.09-2.1-3.37c1.77,0.6,2.97,0.26,3.32-0.97
		c0.24-0.86,0.11-1.65-0.61-2.24C122.53,53.1,121.55,53.53,120.61,54.24z"/>
	<path fill="#FFFFFF" d="M120.61,54.24c0.94-0.71,1.91-1.14,2.98-0.27c0.72,0.59,0.85,1.38,0.61,2.24
		c-0.35,1.23-1.54,1.57-3.32,0.97C120.25,56.25,120.07,55.28,120.61,54.24z"/>
	<path fill="#FFFFFF" d="M59.55,58.58c0.18-0.13,0.38-0.25,0.54-0.4c0.8-0.79,1.7-0.86,2.63-0.3c0.89,0.54,1.03,1.41,0.77,2.31
		c-0.27,0.97-1.02,1.36-2.02,1.3c-0.23-0.01-0.46,0.01-0.69,0.02C59.73,60.8,59.27,59.85,59.55,58.58z"/>
	<path fill="#EB4235" d="M111.13,68.72c-0.03,7.05-5.07,15.17-13.52,16.14c-6.19,0.71-10.68-2.06-13.96-7.06
		c-1.29-1.96-2.22-4.12-2.77-6.59c1.44,0.21,2.8,0.39,4.15,0.6c8.28,1.3,16.23-0.35,24.11-2.66
		C109.79,68.96,110.42,68.6,111.13,68.72L111.13,68.72z"/>
	<path fill="#EB4235" d="M111.14,68.73c0.03-0.04,0.06-0.08,0.09-0.13c0,0.03,0.01,0.06,0,0.08
		C111.21,68.7,111.17,68.71,111.14,68.73C111.13,68.72,111.14,68.73,111.14,68.73z"/>
	<path fill="#EB4235" d="M144.2,186.5c0.01-0.22,0.02-0.44,0.02-0.67c0-17.67-0.01-35.34,0.03-53.02c0-1.11-0.34-1.93-1.04-2.71
		c-1.9-2.14-3.73-4.34-5.66-6.44c-0.97-1.06-1.77-2.3-3.12-3.3c0.16,3.02,0.09,5.82,0.23,8.63c0.19,3.87,0.18,7.76,0.27,11.63
		c0.2,8.36,0.34,16.71,0.59,25.07c0.16,5.31,0.19,10.62,0.3,15.94c0.06,2.95,0.21,5.9,0.25,8.86c0.01,0.96,0.34,1.17,1.15,0.78
		c0.7-0.34,1.38-0.7,2.07-1.06c0.28-0.05,0.53-0.16,0.79-0.28c0.32-0.16,0.65-0.31,0.97-0.47c0.63-0.3,1.26-0.61,1.9-0.91
		c0.58-0.28,1.38-0.54,1.32-1.32C144.24,186.99,144.23,186.74,144.2,186.5z"/>
	<path fill="#5A3000" d="M185.66,66.3c-7.21-5.21-11.45-10.37-33.29-1.1c-0.1,0.04-0.19,0.08-0.29,0.12
		c0.01-0.11,0.02-0.23,0.04-0.34c1.61-1.64,14.9-31.38-6.78-47.29c-9.46-6.94-24.08-7.95-35.41-4.6
		c-9.16,2.71-15.11,6.48-21.35,13.65c-0.49,0.57-0.49,1.8-1.46,0.87C74.2,15.29,58.95,13.91,47.99,20.68
		c-5.39,3.33-11.58,7.99-14.48,14.59c-4.22,9.59-3.34,19.35,0.14,28.94c1.17,3.21,2.99,6.33,4.71,9.28
		c0.79,1.36,1.39,1.08-0.11,1.21c-2.76,0.23-5.76,0.7-8.46,1.31c-6.36,1.43-12.47,4.25-16.55,9.6c-4.3,5.62-5.74,13.51-0.18,20.61
		c7,8.94,22.69,11.49,22.87,11.71c-0.6,1.43-1.31,2.82-2.11,4.15c-0.04-0.02-0.08-0.04-0.12-0.07c-1.36-0.84-2.76-1.63-4.26-2.51
		c0,0.37-0.03,0.59,0,0.8c0.75,4.46,1.45,8.92,2.27,13.36c3.14,16.91,6.83,33.7,10.98,50.39c0.63,2.54,1.44,5.04,1.85,7.63
		c-0.43-0.16-0.87-0.23-1.36-0.16c-0.91,0.14-1.71,0.61-2.66,0.55c-1.01-0.07-1.84-0.71-2.82-0.87c-0.88-0.15-1.78,0-2.65,0.16
		c-0.79,0.15-1.45,0.47-1.84,1.19c-0.37,0.67-0.5,1.38-1.11,1.89c-0.57,0.48-1.24,0.83-1.59,1.52c-0.37,0.72-0.33,1.59-0.29,2.37
		c0.07,1.72,0.43,3.48,1.59,4.81c1.1,1.26,2.73,1.64,4.33,1.64c0.89,0,1.84-0.08,2.6,0.46c0.72,0.51,1.36,0.82,2.23,1.02
		c0.76,0.18,1.6,0.29,2.31-0.1c0.6-0.33,0.97-0.92,1.31-1.49c0.2-0.33,0.39-0.68,0.67-0.96c0.35-0.35,0.8-0.56,1.23-0.8
		c0.74-0.43,1.36-1.02,1.8-1.77c0.71-1.21,0.81-2.66,0.37-3.94c3.28,0.61,6.55,1.22,9.83,1.85c16.36,3.11,32.72,6.22,49.07,9.35
		c1.31,0.25,2.4,0.17,3.66-0.49c15.89-8.43,31.82-16.76,47.72-25.18c1.16-0.61,2.49-0.97,3.41-2.1c0.04-0.01,0.09-0.01,0.14-0.03
		c1.01-0.44,2.07-0.67,3.02,0.01c0.04,0.03,0.09,0.07,0.13,0.1c0.26,0.27,0.54,0.48,0.82,0.65c0.39,0.32,0.79,0.63,1.29,0.83
		c1.56,0.66,3.47,0.35,4.48-1.09c0.5-0.7,0.39-1.77,1.02-2.36c0.33-0.31,0.79-0.49,1.19-0.7c0.5-0.26,1-0.51,1.5-0.77
		c0.76-0.4,1.47-0.89,1.8-1.71c0.35-0.87,0.25-1.84,0.54-2.73c0.15-0.47,0.3-0.95,0.12-1.43c-0.16-0.43-0.51-0.72-0.89-0.97
		c-0.43-0.29-0.91-0.52-1.41-0.68c-0.27-0.09-0.75-0.15-1.09-0.33c-0.2-0.18-0.38-0.38-0.39-0.67c-0.01-0.3,0.06-0.61,0.08-0.92
		c0.03-0.56-0.01-1.14-0.16-1.69c-0.27-1.06-0.97-1.99-1.96-2.48c-1.02-0.51-2.23-0.51-3.26-0.02c-0.6,0.28-1.07,0.63-1.76,0.57
		c-0.49-0.04-1.42-0.25-1.6-0.79c-0.03-0.1-0.09-0.16-0.16-0.21c0.01-0.09,0-0.18,0.03-0.29c0.57-2.47,1.02-4.96,1.53-7.45
		c3.05-15.05,6.1-30.1,9.15-45.14c0.15-0.72,0.49-1.43,0.28-2.32c-2.03,1.27-3.96,2.48-5.98,3.74c-0.03-0.72-0.07-1.44-0.1-2.17
		c-0.03-0.54-0.03-0.54-0.05-1.09c9.07-1.8,19.4-9.84,21.71-20.98C193.94,79.72,191.22,70.32,185.66,66.3z M47.57,200.65
		c-0.36,0.65-0.89,1.16-1.53,1.53c-0.57,0.33-1.15,0.62-1.58,1.14c-0.37,0.45-0.62,0.98-0.95,1.46c-0.46,0.66-1.05,0.88-1.85,0.75
		c-0.77-0.12-1.57-0.32-2.2-0.79c-0.55-0.42-1.08-0.68-1.77-0.76c-1.49-0.19-3,0.13-4.37-0.67c-1.36-0.8-1.97-2.39-2.17-3.88
		c-0.1-0.77-0.17-1.59-0.09-2.36c0.08-0.81,0.58-1.22,1.19-1.67c0.51-0.38,0.96-0.78,1.24-1.37c0.27-0.58,0.42-1.33,1.05-1.64
		c0.39-0.19,0.88-0.23,1.3-0.29c0.48-0.07,0.97-0.13,1.46-0.09c0.94,0.08,1.72,0.67,2.63,0.85c0.88,0.17,1.69,0.02,2.53-0.25
		c0.42-0.14,0.85-0.29,1.3-0.25c0.45,0.04,0.84,0.26,1.22,0.5c0.63,0.93,1.04,1.93,1.08,3.12c0.03,1.05,0.96,1.06,1.68,1.31
		C48.18,198.36,48.17,199.59,47.57,200.65z M49,194.3c-0.76-0.14-0.82-0.64-0.95-1.17c-3.23-12.46-6.23-24.96-8.94-37.54
		c-2.12-9.87-4.06-19.78-5.79-29.72c-0.02-0.13,0.01-0.27,0.03-0.6c5.66,3.37,11.16,6.64,16.66,9.92c1.66,0.99,3.3,2.03,5,2.97
		c0.69,0.38,0.97,0.87,1.08,1.62c2.49,16.11,4.99,32.23,7.49,48.34c0.47,3.03,0.92,6.07,1.4,9.21C59.58,196.3,54.3,195.27,49,194.3z
		 M74.07,198.79c-1.97-0.48-3.98-0.81-5.98-1.19c-0.57-0.11-0.82-0.37-0.91-1c-1.57-10.35-3.17-20.7-4.77-31.05
		c-1.32-8.52-2.62-17.05-3.98-25.56c-0.12-0.77-0.05-1.31,0.54-1.84c5.04-4.63,10.06-9.27,15.08-13.91
		c0.06-0.05,0.16-0.07,0.38-0.15c0.1,1.75,0.26,3.4,0.28,5.05c0.06,7.03-0.05,14.07,0.12,21.1c0.21,8.14,0.1,16.28,0.29,24.42
		c0.17,7.68,0.2,15.35,0.26,23.03C75.38,198.75,75.17,199.06,74.07,198.79z M107.06,205.29c-7.88-1.52-15.77-2.99-23.66-4.48
		c-1.5-0.28-2.98-0.63-4.49-0.82c-1.1-0.14-1.49-0.61-1.44-1.71c0.08-1.66,0.02-3.33,0.02-5c-0.05,0-0.09,0-0.14,0
		c0-5.45,0.03-10.91-0.01-16.36c-0.06-7.67-0.18-15.34-0.27-23.01c-0.09-7.9-0.13-15.8-0.31-23.7c-0.06-2.59-0.05-5.17-0.12-7.76
		c-0.02-0.68,0.11-1.21,0.65-1.71c2.93-2.68,5.82-5.41,8.73-8.11c0.55-0.51,0.9-0.72,1.59,0.09c5.27,6.17,10.59,12.29,16,18.34
		c0.84,0.94,1.05,1.91,1.1,3c0.22,4.47,0.37,8.94,0.58,13.41c0.3,6.44,0.64,12.88,0.95,19.33c0.21,4.33,0.37,8.66,0.57,12.99
		c0.31,6.58,0.65,13.17,0.96,19.75c0.08,1.66,0.06,3.32,0.16,4.98C108,205.27,107.86,205.45,107.06,205.29z M133.77,193.06
		c-7.76,3.93-15.51,7.88-23.42,11.91c-0.35-7.83-0.67-15.42-1.02-23.02c-0.41-8.98-0.82-17.96-1.26-26.94
		c-0.35-7.32-0.72-14.64-1.12-21.95c-0.05-0.86,0.26-1.46,0.78-2.1c5.63-6.82,11.25-13.65,16.86-20.49c0.43-0.52,0.68-0.81,1.3-0.06
		c1.99,2.41,4.09,4.74,6.18,7.07c0.34,0.38,0.47,0.73,0.48,1.22c0.08,4.85,0.17,9.7,0.27,14.55c0.18,8.22,0.36,16.43,0.56,24.64
		c0.12,5.12,0.28,10.24,0.41,15.36c0.15,6.23,0.28,12.46,0.44,18.69C134.24,192.43,134.33,192.78,133.77,193.06z M144.22,185.83
		c0,0.51-0.03,1.02-0.05,1.52c-0.36,0.84-4.43,2.6-4.5,2.64c-0.82,0.42-1.63,0.85-2.46,1.26c-0.8,0.39-1.14,0.18-1.15-0.78
		c-0.04-2.95-0.19-5.9-0.25-8.86c-0.11-5.31-0.14-10.63-0.3-15.94c-0.25-8.36-0.38-16.71-0.59-25.07
		c-0.09-3.88-0.08-7.76-0.27-11.63c-0.14-2.81-0.07-5.61-0.23-8.63c1.35,1,2.15,2.24,3.12,3.3c1.93,2.11,3.76,4.31,5.66,6.44
		c0.7,0.79,1.05,1.61,1.04,2.71C144.21,150.49,144.22,168.16,144.22,185.83z M166.59,164.92c0.44,0.24,0.85,0.26,1.25,0.17
		c0.03,0,0.05,0,0.08,0c0.64-0.05,1.12-0.34,1.67-0.62c0.61-0.3,1.3-0.4,1.96-0.24c1.22,0.29,2.02,1.32,2.21,2.53
		c0.1,0.63,0,1.23-0.03,1.86c-0.01,0.1,0.01,0.19,0.02,0.28c0,0.03-0.01,0.05-0.01,0.08c0.05,0.49,0.29,0.83,0.64,1.07
		c0.03,0.03,0.06,0.07,0.1,0.1c0.09,0.08,0.18,0.11,0.28,0.11c0.13,0.06,0.27,0.11,0.41,0.15c0.46,0.13,0.9,0.25,1.33,0.46
		c0.4,0.2,1,0.49,1.09,0.98c0.08,0.43-0.24,0.97-0.32,1.39c-0.09,0.47-0.1,0.94-0.18,1.41c-0.17,1.02-0.81,1.51-1.68,1.96
		c-0.84,0.44-1.79,0.8-2.55,1.37c-0.73,0.54-0.81,1.26-1.06,2.07c-0.61,1.92-2.99,1.98-4.43,1.01c-0.8-0.54-1.4-1.34-2.36-1.62
		c-0.83-0.25-1.68-0.06-2.47,0.24c-0.02-0.12-0.02-0.28,0.03-0.52c0.13-0.62,0.25-1.24,0.38-1.87c0.8-3.98,1.59-7.96,2.41-11.94
		c0.06-0.3,0.09-0.81,0.35-0.89C165.96,164.66,166.26,164.81,166.59,164.92z M171.66,114.61c0.23-0.14,0.5-0.23,0.75-0.35
		c0.08-0.17,0.25-0.3,0.37-0.15c0.15,0.16,0.09,0.39-0.12,0.53c-0.99,5.2-1.96,10.41-2.97,15.61c-3.11,15.92-6.25,31.83-9.33,47.75
		c-0.23,1.21-0.73,1.88-1.84,2.42c-3.73,1.82-7.4,3.76-11.1,5.64c-0.4,0.2-0.76,0.55-1.4,0.41v-1.34c0-17.72,0.01-35.44-0.02-53.16
		c0-1.05,0.31-1.62,1.22-2.18C155.4,124.77,163.52,119.68,171.66,114.61z M190.22,86.59c-0.97,4.71-3.18,9-6.71,12.33
		c-3.08,2.9-6.49,5.44-10.55,6.95c-1.17,0.44-2.4,0.51-3.58,0.88c-0.77,0.24-1.23,0.56-1.02,1.42c0.2,0.84,0.02,1.75,0.27,2.57
		c0.27,0.88,0.22,2.31,0.22,2.31s-1.05,0.66-1.77,1.11c-7.03,4.34-14,8.79-20.98,13.23c-0.73,0.46-1.08,0.57-1.76-0.22
		c-6.07-7.01-12.24-13.94-18.34-20.92c-0.65-0.74-0.89-0.73-1.52,0.03c-5.97,7.27-12.01,14.5-17.97,21.78
		c-0.65,0.8-0.93,0.84-1.61,0.05c-5.66-6.57-11.37-13.1-17.04-19.66c-0.55-0.63-0.94-0.67-1.56-0.09
		c-5.36,5.02-10.74,10.02-16.13,15.01c-4.23,3.92-8.5,7.81-12.72,11.75c-0.54,0.5-0.88,0.56-1.52,0.17c-2.9-1.8-5.84-3.53-8.77-5.29
		c-3.23-1.89-6.47-3.79-9.7-5.68c-0.3-0.19-0.53-0.37-0.75-0.55c-0.04-0.02-0.09-0.05-0.13-0.07c-0.02-0.01-0.02-0.01-0.03-0.01
		c0,0,0,0-0.01,0c-0.15-0.06-0.32-0.12-0.46-0.21c-0.18-0.12-0.32-0.3-0.32-0.53c0-0.18,0.08-0.33,0.2-0.46
		c0.19-0.43,0.39-0.86,0.58-1.29c0.26-0.59,0.57-1.18,0.73-1.8c0.22-0.49,0.43-0.99,0.65-1.48c0.07-0.16,0.09-0.39-0.07-0.52
		c-0.46-0.39-0.97-0.67-1.51-0.86c-0.19-0.2-0.49-0.13-0.74-0.2c-3.23-0.87-6.25-1.46-9.63-2.8c-0.38-0.15-0.71-0.4-1.07-0.6
		c-4.09-1.74-8.13-3.59-10.81-7.36c-3.35-4.72-4.28-9.76-1.77-15.19c2.54-5.5,6.95-8.98,12.41-11.23c4.65-1.92,9.53-2.9,14.55-3.17
		c0.1,0.03,0.22,0.04,0.33,0.05c0.17,0.02,0.34,0.03,0.51,0.04c0.17,0.01,0.34,0.01,0.52,0c0.18-0.01,0.37-0.02,0.54-0.11
		c0.24-0.14,0.35-0.41,0.3-0.67c-0.04-0.2-0.16-0.36-0.29-0.51c-0.21-0.26-0.44-0.51-0.67-0.74c-0.05-0.06-0.12-0.09-0.19-0.1
		c-9.75-14.81-8.38-27.63-7.07-32.96c0.96-3.93,2.71-7.42,5.4-10.44c5.31-5.97,11.53-10.44,19.6-11.9
		c5.88-1.07,11.45-0.04,16.79,2.46c2.07,0.97,8,4.3,12.16,8.33c0.3,0.29,0.8,0.11,1.15,0.05c0.74-0.13,1.19-0.74,1.54-1.36
		c2.56-2.79,5.21-5.48,8.36-7.64c5.75-3.94,12.06-6.16,19.01-7.04c8.44-1.06,16.29,0.79,23.81,4.23c7.4,3.38,11.55,9.37,13.2,17.34
		c1.58,7.59,1.4,15.04-0.93,22.41c-0.84,2.67-1.56,5.39-2.73,7.96c-0.23,0.51-0.43,1.03-0.85,1.41c-0.05,0.4-0.1,0.79-0.11,1.2
		c0,0.1,0,0.2,0.01,0.3c0.04,0.04,0.08,0.08,0.12,0.12c0.35,0.02,0.7-0.02,1.03-0.12c0.25-0.49,0.68-0.7,1.13-0.91
		c4.67-2.24,9.48-3.94,14.59-5.03c8.48-1.8,15.02,1.52,19.85,7.89C189.88,74.83,191.44,80.62,190.22,86.59z"/>
	<path fill="#5A3000" d="M160.91,193.68c-0.36-1.96-2.88-2.1-4.22-3.12c-0.67-0.51-1.27-1.13-2.05-1.49
		c-0.91-0.42-1.85-0.33-2.76,0.03c-0.07,0.03-0.12,0.06-0.16,0.11c-0.32,0.08-0.63,0.17-0.95,0.26c-0.44,0.12-0.88,0.24-1.34,0.29
		c-0.38,0.04-0.77,0.04-1.14,0.16c-1.73,0.53-1.38,2.75-1.11,4.09c0.16,0.82-0.31,1.34-0.81,1.93c-0.47,0.55-0.9,1.1-1.03,1.83
		c-0.13,0.78-0.12,1.74,0.23,2.46c0.33,0.68,0.96,1.12,1.63,1.42c0.77,0.35,1.6,0.58,2.41,0.84c0.86,0.27,1.74,0.63,2.64,0.73
		c0.94,0.11,1.79-0.23,2.7-0.42c0.89-0.19,1.8-0.19,2.65-0.53c1.37-0.56,2.67-1.83,2.93-3.34c0.07-0.43-0.06-0.84-0.04-1.27
		c0.02-0.5,0.34-0.97,0.42-1.47C161.03,195.39,161.05,194.47,160.91,193.68z M160.13,195.13c0,0.4-0.02,0.8-0.12,1.19
		c-0.1,0.39-0.32,0.73-0.36,1.13c-0.05,0.39,0.09,0.78,0.06,1.17c-0.03,0.39-0.2,0.76-0.39,1.1c-0.37,0.63-0.9,1.15-1.54,1.51
		c-0.61,0.35-1.28,0.48-1.97,0.57c-0.81,0.11-1.57,0.32-2.36,0.49c-0.84,0.18-1.56,0-2.36-0.25c-0.83-0.25-1.65-0.52-2.47-0.79
		c-0.57-0.19-1.16-0.38-1.66-0.73c-0.74-0.53-0.85-1.34-0.81-2.2c0.06-1.37,1.3-1.96,1.78-3.14c0.28-0.68,0.08-1.29-0.04-1.98
		c-0.13-0.71-0.27-2.04,0.52-2.43c0.36-0.18,0.82-0.14,1.21-0.19c0.41-0.05,0.81-0.14,1.2-0.25c0.86-0.23,1.7-0.53,2.6-0.57
		c0.1,0,0.18-0.04,0.24-0.09c0.23,0.03,0.46,0.08,0.69,0.2c0.62,0.31,1.12,0.81,1.66,1.23c0.51,0.41,1.05,0.72,1.65,0.98
		c0.68,0.29,1.49,0.5,2.03,1.03C160.21,193.62,160.13,194.45,160.13,195.13z"/>
	<path fill="#5A3000" d="M169.72,197.99c-0.24-0.27-0.6-0.46-0.78-0.78c-0.19-0.35-0.23-0.73-0.47-1.06
		c-0.26-0.36-0.64-0.65-1.09-0.73c-0.49-0.09-0.97,0.21-1.43,0.11c-0.24-0.05-0.44-0.21-0.68-0.26c-0.24-0.05-0.49-0.03-0.73,0.01
		c-0.55,0.1-1.08,0.32-1.58,0.57c-0.22,0.11-0.25,0.31-0.18,0.48c-0.15,0.17-0.37,0.29-0.54,0.42c-0.33,0.25-0.6,0.54-0.77,0.92
		c-0.38,0.81-0.39,1.78-0.12,2.62c0.3,0.93,0.94,1.4,1.86,1.63c0.4,0.1,0.81,0.16,1.22,0.2c0.23,0.02,0.47,0.02,0.7,0.06
		c0.31,0.04,0.55,0.18,0.83,0.3c0.8,0.35,1.58,0.21,2.05-0.55c0.23-0.37,0.41-0.69,0.74-0.98c0.31-0.28,0.64-0.52,0.9-0.86
		C170.13,199.46,170.27,198.63,169.72,197.99z M169.02,199.51c-0.38,0.55-1.02,0.87-1.41,1.43c-0.16,0.23-0.26,0.56-0.47,0.75
		c-0.31,0.28-0.74,0.05-1.06-0.09c-1.19-0.55-3.4,0.04-3.91-1.53c-0.24-0.75-0.25-1.75,0.3-2.38c0.4-0.45,0.96-0.66,1.21-1.22
		c0.26-0.12,0.53-0.22,0.81-0.29c0.2-0.05,0.42-0.11,0.62-0.07c0.17,0.04,0.32,0.15,0.49,0.21c0.34,0.12,0.67,0.08,1.01,0.01
		c0.35-0.07,0.66-0.14,0.96,0.1c0.5,0.4,0.47,1.11,0.9,1.57c0.2,0.21,0.48,0.37,0.65,0.6C169.33,198.89,169.21,199.23,169.02,199.51
		z"/>
	<path fill="#F8F189" d="M186.37,70.18c-4.82-6.37-11.37-9.69-19.85-7.89c-5.1,1.08-9.92,2.78-14.59,5.03
		c-0.26,0.12-0.51,0.25-0.72,0.43c-0.14,0.06-0.29,0.13-0.44,0.19c-0.15,0.07-0.34,0.13-0.51,0.15c-0.03-0.01-0.06-0.03-0.09-0.05
		c0.04,0.03-0.07-0.07-0.08-0.09c-0.01-0.02-0.02-0.03-0.03-0.03c-0.02-0.02-0.03-0.04-0.05-0.07c-0.04-0.06-0.07-0.12-0.1-0.18
		c0-0.04,0-0.08,0-0.13c0-0.15,0.01-0.31,0.01-0.46c0.08-0.19,0.16-0.38,0.24-0.57c0.19-0.46,0.37-0.92,0.56-1.38
		c0.01-0.04,0.01-0.07,0.01-0.11c1.09-2.48,1.79-5.09,2.6-7.65c2.32-7.37,2.5-14.82,0.93-22.41c-1.65-7.97-5.8-13.96-13.2-17.34
		c-7.53-3.44-15.37-5.29-23.81-4.23c-6.94,0.87-13.26,3.1-19.01,7.04c-3.36,2.31-6.65,5.49-8.88,8.21c-0.45,0.55-1.04,0.78-1.72,0.8
		c-0.01-0.16-0.1-0.31-0.3-0.36c-0.31-0.08-0.54-0.35-0.78-0.56c-0.28-0.24-0.56-0.48-0.84-0.72c-0.57-0.47-1.14-0.93-1.73-1.38
		c-0.55-0.43-1.1-0.86-1.66-1.28c-0.24-0.18-0.5-0.33-0.76-0.47c-0.03-0.03-0.06-0.06-0.09-0.1c-2.01-1.44-4.24-2.47-6.46-3.51
		c-5.33-2.5-10.9-3.52-16.79-2.46c-8.07,1.46-14.29,5.92-19.6,11.9c-2.68,3.02-4.43,6.51-5.4,10.44
		c-1.31,5.33-1.15,10.67-0.31,16.03c0.28,1.77,0.62,3.63,1.27,5.2c1.76,4.21,3.96,8.21,6.32,12.11c0.54,0.3,1.13,0.87,0.93,1.33
		c-0.31,0.71-1.19,0.21-1.81,0.32c-5.15,0.24-10.16,1.23-14.93,3.2c-5.46,2.26-9.86,5.73-12.41,11.23
		c-2.51,5.42-1.58,10.47,1.77,15.19c2.19,3.09,5.31,4.88,8.6,6.39c0.69,0.34,1.4,0.65,2.11,0.97c1.95,0.85,3.89,1.83,5.91,2.49
		c1,0.33,2.03,0.53,3.06,0.73c0.84,0.16,1.77,0.27,2.52,0.69c1.82,1.03,0.29,3.96-0.51,5.22c-0.1,0.16-0.13,0.36-0.1,0.55
		c-0.14,0.17-0.23,0.38-0.17,0.6c0.05,0.17,0.17,0.28,0.31,0.37c0.07,0.05,0.14,0.09,0.21,0.12c0.17,0.08,0.34,0.15,0.52,0.19
		c0.06,0.01,0.11,0.02,0.17,0.03c0.24,0.15,0.5,0.25,0.76,0.24c-0.02,0.05-0.04,0.11-0.06,0.16c3.23,1.89,6.47,3.79,9.7,5.68
		c2.93,1.76,5.87,3.49,8.77,5.29c0.64,0.4,0.98,0.34,1.52-0.17c4.22-3.94,8.49-7.83,12.72-11.75c5.39-4.99,10.77-10,16.13-15.01
		c0.62-0.58,1.02-0.54,1.56,0.09c5.67,6.56,11.38,13.09,17.04,19.66c0.68,0.79,0.96,0.75,1.61-0.05c5.97-7.28,12-14.5,17.97-21.78
		c0.62-0.76,0.87-0.77,1.52-0.03c6.1,6.99,12.26,13.92,18.34,20.92c0.69,0.79,1.03,0.69,1.76,0.22c6.56-4.18,13.12-8.36,19.74-12.45
		c0.09,0.01,0.18,0.01,0.27-0.05c0.7-0.41,1.38-0.85,2.04-1.33c0.27-0.2,0.78-0.51,0.78-0.51s-0.15-1.12-0.17-1.53
		c-0.07-1.45-0.04-2.89-0.16-4.33c0.15-0.19,0.4-0.32,0.77-0.43c1.18-0.37,2.41-0.44,3.58-0.88c4.06-1.52,7.47-4.06,10.55-6.95
		c3.54-3.33,5.75-7.61,6.71-12.33C191.44,80.62,189.88,74.83,186.37,70.18z M56.49,80.69c0.03,0,0.06,0,0.09,0l0,0
		C56.55,80.69,56.52,80.69,56.49,80.69z M69.03,61.61c-0.83,3.07-3.63,4.1-6.23,2.28c-0.87-0.61-1.62-1.36-2.02-2.38
		c-1.06-0.7-1.52-1.66-1.24-2.93c-0.17-1.24-0.2-2.47,0.16-3.69c0.87-2.91,3.61-3.87,6.09-2.14C68.35,54.53,69.84,58.61,69.03,61.61
		z M69.48,22.09L69.48,22.09c0.09,0.01,0.19,0.02,0.28,0.04C69.67,22.11,69.57,22.1,69.48,22.09z M104.24,85.22
		c-7.36,4.5-16.95,2.21-22.03-5.06c-2.39-3.43-4.08-7.96-4.52-12.32c4.68,1.25,9.32,1.96,14.03,1.95
		c5.52-0.02,10.84-1.34,16.11-2.85c1.73-0.49,3.43-1.08,5.13-1.65c0.52-0.18,0.87-0.3,0.88,0.48
		C113.93,73.87,111.49,80.79,104.24,85.22z M128.93,59.63c-1.31,2.4-3.93,2.74-5.94,0.91c-1.02-0.93-1.66-2.09-2.1-3.37
		c-0.63-0.93-0.82-1.9-0.28-2.93c0-0.51-0.09-1.03,0.02-1.52c0.44-1.92,1.18-3.64,3.36-4.13c1.7-0.38,3.59,0.67,4.71,2.74
		C130.16,54.03,130.44,56.86,128.93,59.63z"/>
</g>
</svg>
