<?xml version="1.0" encoding="utf-8"?>
<!-- Generator: Adobe Illustrator 24.3.0, SVG Export Plug-In . SVG Version: 6.00 Build 0)  -->
<svg version="1.1" id="Layer_1" xmlns="http://www.w3.org/2000/svg" xmlns:xlink="http://www.w3.org/1999/xlink" x="0px" y="0px"
	 viewBox="0 0 1280 1280" enable-background="new 0 0 1280 1280" xml:space="preserve">
<g>
	<linearGradient id="SVGID_1_" gradientUnits="userSpaceOnUse" x1="408.4557" y1="1088.6448" x2="820.7098" y2="209.5005">
		<stop  offset="0" style="stop-color:#F46764"/>
		<stop  offset="0.0508" style="stop-color:#F56A64"/>
		<stop  offset="0.6663" style="stop-color:#FC8D62"/>
		<stop  offset="0.9983" style="stop-color:#FF9A61"/>
	</linearGradient>
	<circle fill-rule="evenodd" clip-rule="evenodd" fill="url(#SVGID_1_)" cx="625.17" cy="626.49" r="490.79"/>
	<path fill-rule="evenodd" clip-rule="evenodd" fill="#B3B3B3" d="M481.23,661.56l289.67,2.42c10.93,0,10.91-0.14,15.92,5.86
		l26.86,31.95c8.86,10.73-3.78,9.13-6.33,9.12H560.23L481.23,661.56z"/>
	<path fill-rule="evenodd" clip-rule="evenodd" fill="#FFFFFF" d="M518.63,501.09l-0.34,0.3l4.95,6.02
		c5.23,5.17,14.04,26.35,17.39,35.37c4.68,12.58,9.28,26.72,12.93,39.77l274.83,2.21c-0.28-48.7-0.79-97.36-1.18-146.01
		c-0.05-6.13,0.14-12.65-0.18-18.73c-0.9-17.48-23.45-14.52-40.18-14.51l-218.51,0.68c-8.05,0.03-29.39-0.84-35.62,1.04
		c-5.08,1.53-9.01,3.46-11.62,6.59c-3.95,4.75-3.23,7.94-3.27,14.93C517.7,452.67,517.91,477.26,518.63,501.09L518.63,501.09z"/>
	
		<rect x="466.18" y="1087.49" transform="matrix(0.9971 -0.0757 0.0757 0.9971 -82.0622 40.132)" fill-rule="evenodd" clip-rule="evenodd" fill="#B9DCFF" width="44.31" height="30.05"/>
	<path fill-rule="evenodd" clip-rule="evenodd" fill="#232B34" d="M451.79,1077.4c2.46,16.68,1.12,20.75,11.45,21.25
		c15.85,0.78,35.98-0.09,52.41-0.08c8.69-1.04,7.05-7.41,7.05-16.89c0-72.23-3.52-143.98-3.52-215.59
		c-13.93-2.52-75.38,38.25-78.15,41.09C441.72,955.28,445.31,1033.47,451.79,1077.4L451.79,1077.4z"/>
	<path fill-rule="evenodd" clip-rule="evenodd" fill="#292929" d="M510.53,1101.95c0.03,0.31-0.01,0.28,7.94,3.36
		c17.19,6.65,38.05,9.15,54.49,19.53c5.17,3.26,4.95,8.02,0.59,8.99c-2.86,0.63-93.89,0.01-103.99,0c-0.79,0-2.24-1.4-2.66-2.16
		c-1.28-2.32-2.55-17.95-0.99-19.9C468.1,1109.02,501.74,1112.7,510.53,1101.95L510.53,1101.95z"/>
	<path fill-rule="evenodd" clip-rule="evenodd" fill="#B0B0B0" d="M293.61,898.42c-20.51,76.13-44.81,156.62-66.69,232.34
		c-4.12,14.27-7.84,27.86-7.6,29.93c0.69,5.99,8.65,7.4,11.48,1.72c15.9-39.95,57.54-197.88,70.44-246.35
		c20.37,4.75,29.98,6.32,51.08,7.22c-13.49,206.57-9.09,135.77-13.19,201.87c-0.04,5.05,0.41,8.81,4.78,9.39
		c8.19,1.08,8.16-12.1,8.16-19.37c12.9-197.36-0.31,4.7,12.6-192.65c7.33-0.25,15.85-1.18,22.91-1.18c6.24,61.35,0,0,24.14,238.99
		c1.47,7.36,9.06,5.94,11.13,3.01c3.37-4.75-0.15-7.13-22.99-243.29c32.21-5.13,61.4-15.3,90.71-29.45
		c8.93,37.84,0.16,0.69,71.83,226.14c1.62,5.1,5.15,18.1,10.24,18.43c2.81,0.19,4.63-0.89,5.67-2.58c2.22-3.62-0.64-9.62-1.66-12.66
		c-25.79-80.63-61.55-173.48-81.36-254.01c-33.38,6.75-47.19,19.7-97.77,22.86C362.69,890.94,334.57,905.11,293.61,898.42
		L293.61,898.42z"/>
	
		<rect x="583.46" y="1099.19" transform="matrix(0.9971 -0.0757 0.0757 0.9971 -82.6112 49.0438)" fill-rule="evenodd" clip-rule="evenodd" fill="#B9DCFF" width="44.31" height="30.05"/>
	<path fill-rule="evenodd" clip-rule="evenodd" fill="#292A2B" d="M556.75,874.94c3.77,62.07,11.87,207.54,13.11,216.12
		c0.9,6.24,2.22,12.36,3.79,14.23c1.43,1.71,5.98,2.41,8.94,2.02c14.93,0.3,30.18,0.97,45.22-0.11c2.55-0.55,4.73-2.97,5.17-5.09
		c0.43-2.04,0.11-8.54,0.11-11.05c2.61-95.1,8.44-192.87,8.83-287.21c0.03-7.41-0.71-20.37-3.17-29.38
		c-5.54-20.3-57.06-22.07-74.66-22.07C592.18,802.13,556.87,853.43,556.75,874.94L556.75,874.94z"/>
	<path fill-rule="evenodd" clip-rule="evenodd" fill="#F6B0AB" d="M312.1,467.21c0.5,6.11-0.13,19.53-0.13,25.78
		c10.36-0.29,53.13,0.92,61.02-0.9c-0.11-5.15-0.83-11.52,4.96-13.37c13-4.14,17.36-14.08,21.9-26.68
		c3.6-9.98,1.42-11.58,4.16-14.36c1.94-1.96,4.85-0.74,6.71-3.03c0.73-0.89,0.8-2.06,0.54-3.56c-2.76-15.91-8.63-36.8-9.73-52.19
		C320.15,363.14,313.95,467.14,312.1,467.21z"/>
	
		<linearGradient id="SVGID_2_" gradientUnits="userSpaceOnUse" x1="-1969.4564" y1="-2740.1917" x2="-1969.4564" y2="-2742.9216" gradientTransform="matrix(44.3046 0 0 -47.5066 87601.1484 -129838.9531)">
		<stop  offset="0" style="stop-color:#664B3E"/>
		<stop  offset="0.367" style="stop-color:#5F4539"/>
		<stop  offset="0.9986" style="stop-color:#4C362C"/>
		<stop  offset="1" style="stop-color:#4C352C"/>
	</linearGradient>
	<path fill-rule="evenodd" clip-rule="evenodd" fill="url(#SVGID_2_)" d="M362.12,432.45l-6.98-6.29
		c-21.24-18.17,7.66-43.09,12-17.78c0.31,1.87,0.65,6.21,1.62,7.57c1.1,1.55,2.97-0.03,5.72-0.56c2.06-0.4,3.17-2.16,3.79-4.39
		c1.29-4.61,1.12-6.42,2.42-12.1c0.93-4.02,1.99-5.6,6.95-9c6.92-4.73,18.94-12.29,18.07-22.03c-0.24-2.66-1.44-5.83-4.36-9.63
		c-5.93-7.94-29.29-20.66-40.45-17.99c-2.41,0.58-5.93,2.09-7.59,1.45c-2.12-0.83-3.46-1.76-5.32-2.34c-4.86-1.53-10.06-1.32-15.3,0
		c-56.77,14.29-62.34,103.01-20.57,127.86c2.62,1.27,23.73,0.76,27.63-0.24C353.69,463.38,361.73,449.7,362.12,432.45z"/>
	<path fill-rule="evenodd" clip-rule="evenodd" fill="#F6B0AB" d="M661.58,681.33c-0.59,8.88-3.05,20.2-2.48,29.7
		c14.29,0,37.51,0.36,51.29,0c7.13-0.19,13.9-2.16,12.74-6.87c-1.55-6.27-7.38-7.32-18.27-12.04
		c-10.93-4.74-20.59-11.56-32.52-11.65C667.76,680.46,663.08,680.68,661.58,681.33L661.58,681.33z"/>
	<path opacity="0.7707" fill-rule="evenodd" clip-rule="evenodd" fill="#EBF6FD" d="M932.74,334h111.58
		c8.81,0,16.03,7.22,16.03,16.03v194.14c0,8.81-7.22,16.03-16.03,16.03H932.74c-8.81,0-16.03-7.22-16.03-16.03V350.03
		C916.71,341.2,923.93,334,932.74,334z"/>
	<path fill-rule="evenodd" clip-rule="evenodd" fill="#EBF6FD" d="M932.74,591.38h111.58c8.81,0,16.03,7.22,16.03,16.03v44.85
		c0,8.81-7.22,16.03-16.03,16.03H932.74c-8.81,0-16.03-7.22-16.03-16.03V607.4C916.71,598.59,923.93,591.38,932.74,591.38z"/>
	
		<path fill="none" stroke="#684215" stroke-width="1.1602" stroke-linecap="round" stroke-linejoin="round" stroke-miterlimit="1.8372" d="
		M937.64,468.26h101.78"/>
	
		<path fill="none" stroke="#684215" stroke-width="1.1602" stroke-linecap="round" stroke-linejoin="round" stroke-miterlimit="1.8372" d="
		M937.64,489.81h101.78"/>
	
		<path fill="none" stroke="#684215" stroke-width="1.1602" stroke-linecap="round" stroke-linejoin="round" stroke-miterlimit="1.8372" d="
		M937.64,447.09h101.78"/>
	
		<path fill="none" stroke="#684215" stroke-width="1.1602" stroke-linecap="round" stroke-linejoin="round" stroke-miterlimit="1.8372" d="
		M937.64,426.77h101.78"/>
	
		<path fill="none" stroke="#684215" stroke-width="1.1602" stroke-linecap="round" stroke-linejoin="round" stroke-miterlimit="1.8372" d="
		M937.64,407.68h101.78"/>
	<path fill-rule="evenodd" clip-rule="evenodd" fill="#E53C3C" d="M421.27,227.69h47.89c8.96,0,16.3,7.33,16.3,16.3v47.89
		c0,8.96-7.33,16.3-16.3,16.3h-47.89c-8.96,0-16.3-7.33-16.3-16.3v-47.89C404.98,235.02,412.31,227.69,421.27,227.69z"/>
	
		<path fill="none" stroke="#684215" stroke-width="1.1603" stroke-linecap="round" stroke-linejoin="round" stroke-miterlimit="1.8372" d="
		M936.14,603.02h38.75c4.33,0,7.88,3.55,7.88,7.88v38.75c0,4.33-3.55,7.88-7.88,7.88h-38.75c-4.33,0-7.88-3.55-7.88-7.88V610.9
		C928.26,606.57,931.81,603.02,936.14,603.02z"/>
	
		<path fill="none" stroke="#684215" stroke-width="1.1632" stroke-linecap="round" stroke-linejoin="round" stroke-miterlimit="1.8372" d="
		M995.67,657.54h51.74"/>
	
		<path fill="none" stroke="#684215" stroke-width="1.1632" stroke-linecap="round" stroke-linejoin="round" stroke-miterlimit="1.8372" d="
		M995.67,638.49h51.74"/>
	
		<path fill="none" stroke="#684215" stroke-width="1.1632" stroke-linecap="round" stroke-linejoin="round" stroke-miterlimit="1.8372" d="
		M995.67,620.2h51.74"/>
	
		<path fill="none" stroke="#684215" stroke-width="1.1585" stroke-linecap="round" stroke-linejoin="round" stroke-miterlimit="1.8372" d="
		M995.67,603.02h51.74"/>
	
		<path fill="none" stroke="#684215" stroke-width="1.1626" stroke-linecap="round" stroke-linejoin="round" stroke-miterlimit="1.8372" d="
		M954.81,373.75h67.43"/>
	
		<path fill="none" stroke="#684215" stroke-width="1.1559" stroke-linecap="round" stroke-linejoin="round" stroke-miterlimit="1.8372" d="
		M937.64,510.98h50.89"/>
	
		<path fill="none" stroke="#684215" stroke-width="1.1559" stroke-linecap="round" stroke-linejoin="round" stroke-miterlimit="1.8372" d="
		M937.64,532.52h50.89"/>
	<path fill-rule="evenodd" clip-rule="evenodd" fill="#B3B3B3" d="M475.66,392.65h351.75c7.79,0,14.16,5.89,14.16,13.1V628.5
		c0,7.2-6.37,13.1-14.16,13.1H475.66c-7.79,0-14.16-5.89-14.16-13.1V405.73C461.5,398.54,467.87,392.65,475.66,392.65z"/>
	<path fill-rule="evenodd" clip-rule="evenodd" fill="#EBF6FD" d="M493.14,408.35h317.28c7.79,0,14.16,5.89,14.16,13.1v177.2H478.98
		v-177.2C478.98,414.24,485.35,408.35,493.14,408.35z"/>
	<rect x="646.15" y="678.65" fill-rule="evenodd" clip-rule="evenodd" fill="#FEFEFE" width="20.57" height="32.5"/>
	<polygon fill-rule="evenodd" clip-rule="evenodd" fill="#FEFEFE" points="374.15,495.64 310.1,495.64 310.24,469.99 375.41,480.17 
			"/>
	<path fill-rule="evenodd" clip-rule="evenodd" fill="#808080" d="M453,711.05h443.3v25.89H453L453,711.05L453,711.05z"/>
	<linearGradient id="SVGID_3_" gradientUnits="userSpaceOnUse" x1="422.9822" y1="747.7086" x2="476.2729" y2="340.88">
		<stop  offset="0" style="stop-color:#FF931E"/>
		<stop  offset="0.1432" style="stop-color:#FF9522"/>
		<stop  offset="0.2778" style="stop-color:#FF9A2D"/>
		<stop  offset="0.409" style="stop-color:#FFA340"/>
		<stop  offset="0.538" style="stop-color:#FFB05B"/>
		<stop  offset="0.6655" style="stop-color:#FFC17D"/>
		<stop  offset="0.7918" style="stop-color:#FFD5A7"/>
		<stop  offset="0.9149" style="stop-color:#FFEDD8"/>
		<stop  offset="1" style="stop-color:#FFFFFF"/>
	</linearGradient>
	<path fill="url(#SVGID_3_)" d="M647.21,704.11c-0.56-9.5,2.52-22.76,3.11-31.65c-0.65-4.56-3.47-1.79-9.77-5.1
		c-12.88-6.76-15.16-13.03-27.9-10.61c-12.22,2.32-18,8.9-35.54,2.07c-11.01-4.29-24.1-3.86-36-1.38
		c-5.09,1.07-13.11-1.07-20.81-5.54c-9.83-5.72-11.26-16.35-14.77-26.45c-14.37-41.27-39.92-116.54-56.85-130.22
		c-13.3-10.74-27.06-10.96-48.16-10.88c-33.63,0.13-55.97,2.56-89.26,3.47c-27.63,2.41-69.83,2.67-77.41,36.6
		c-8.81,39.54-3.65,86.22-3.65,127.16c21.24-7.43,173.37,88.03,224.6,94.11c0.14-24.03-3.11-51.96-5.53-75.74
		c6.9,9.75,12.88,22.15,20.14,31.19c6.62,8.24,13.82,10.39,22.3,10.97c3.67,0.25,7.59,0.2,11.8,0.23
		c48.26,0.28,86.05-1.99,135.52,0.45C645.36,713.13,647.96,711.66,647.21,704.11L647.21,704.11z"/>
	<path fill-rule="evenodd" clip-rule="evenodd" fill="#FFAB3E" d="M812.7,547.33h27.68c5.18,0,9.42,5.28,9.42,11.71v34.44
		c0,6.44-4.24,11.72-9.42,11.72H812.7c-5.18,0-9.42-5.28-9.42-11.72v-34.44C803.28,552.61,807.52,547.33,812.7,547.33z"/>
	<path fill-rule="evenodd" clip-rule="evenodd" fill="#FE6941" d="M835.32,517.13h35.51c6.64,0,12.07,5.44,12.07,12.07v35.51
		c0,6.64-5.44,12.07-12.07,12.07h-35.51c-6.64,0-12.07-5.44-12.07-12.07V529.2C823.23,522.56,828.67,517.13,835.32,517.13z"/>
	<path fill-rule="evenodd" clip-rule="evenodd" fill="#B3B3B3" d="M633.93,631.5h35.21c0,22.02-2.02,21.39,14.48,33.79h-65.68
		C633.93,653.96,633.93,654.08,633.93,631.5z"/>
	
		<path fill-rule="evenodd" clip-rule="evenodd" fill="#FEFEFE" stroke="#684215" stroke-width="0.9783" stroke-linecap="round" stroke-linejoin="round" stroke-miterlimit="1.8372" d="
		M574.41,276.6H771.8c6.95,0,12.63,5.68,12.63,12.63v250.83c0,6.95-5.68,12.63-12.63,12.63H574.41c-6.95,0-12.63-5.68-12.63-12.63
		V289.22C561.79,282.28,567.47,276.6,574.41,276.6z"/>
	
		<path fill="none" stroke="#684215" stroke-width="0.9831" stroke-linecap="round" stroke-linejoin="round" stroke-miterlimit="1.8372" d="
		M592.4,494.34h80.15"/>
	
		<path fill="none" stroke="#684215" stroke-width="0.9831" stroke-linecap="round" stroke-linejoin="round" stroke-miterlimit="1.8372" d="
		M592.4,509.03h80.15"/>
	
		<path fill="none" stroke="#684215" stroke-width="0.9831" stroke-linecap="round" stroke-linejoin="round" stroke-miterlimit="1.8372" d="
		M592.4,524.17h80.15"/>
	
		<path fill="none" stroke="#684215" stroke-width="0.9186" stroke-linecap="round" stroke-linejoin="round" stroke-miterlimit="1.8372" d="
		M302.5,613.74c-0.8,17.69-0.55,37.78,4.93,57.2"/>
	<linearGradient id="SVGID_4_" gradientUnits="userSpaceOnUse" x1="289.6461" y1="925.7037" x2="427.8797" y2="700.5803">
		<stop  offset="0" style="stop-color:#D47C62"/>
		<stop  offset="1" style="stop-color:#FFFFFF"/>
	</linearGradient>
	<path fill-rule="evenodd" clip-rule="evenodd" fill="url(#SVGID_4_)" d="M535.71,867.49c16.83,1.2,33.68,3.96,42.14-8.07
		c8.68-12.35,6.22-47.39,4.66-61.84c-2.07-19.27-9.08-47.07-28.45-51.35c-44.83-9.92-93.68-9.01-139.81-20.06
		c-65.72-15.73-95.9-99.26-165.6-86.92c-32,5.67-48.23,32.76-65.87,57.82c-6.95,9.87-11.91,19.81-10.44,21.74
		c2.33,3.1,9.93,0.9,14.71,2.28c12.69,3.69,18.99,21.99,21.88,33.9c8.31,34.44,16.64,97.58,42.72,122.18
		c38.5,36.31,147.66,33.9,189.56,20.81C494.52,881.35,488.01,864.08,535.71,867.49L535.71,867.49z"/>
	<path fill-rule="evenodd" clip-rule="evenodd" fill="#292929" d="M627.88,1114.46c0,0,0.84,0.43,8.8,3.5
		c17.19,6.65,38.05,9.15,54.49,19.53c5.17,3.26,4.95,8.02,0.59,8.99c-2.86,0.63-93.89,0.01-103.99,0c-0.79,0-2.24-1.4-2.66-2.16
		c-1.28-2.32-2.57-19.53-1.03-21.49C586.28,1120.09,619.1,1125.22,627.88,1114.46L627.88,1114.46z"/>
	
		<path fill="none" stroke="#684215" stroke-width="0.9832" stroke-linecap="round" stroke-linejoin="round" stroke-miterlimit="1.8372" d="
		M369.85,415.8l44.87-11.3"/>
	
		<path fill="none" stroke="#684215" stroke-width="0.9832" stroke-linecap="round" stroke-linejoin="round" stroke-miterlimit="1.8372" d="
		M411.6,579.99c-0.65,5.58,3.39,18.41,5.57,22.86c9.44,19.27,33.7,69.43,34.29,70.32c6.01,9.15,11.47,19.91,17.95,27.98
		c6.88,8.56,14.39,10.56,23.32,11.03 M647.21,704.11c-0.56-9.5,2.52-22.76,3.11-31.65c-0.65-4.56-3.47-1.79-9.77-5.1
		c-12.88-6.76-15.16-13.03-27.9-10.61c-12.22,2.32-18,8.9-35.54,2.07c-11.01-4.29-24.1-3.86-36-1.38 M488.03,576.05
		c-1.18-2.9-13.47-34.94-14.66-37.71c-8.76-20.64-17.5-37.43-24.71-43.09c-13.44-10.57-27.06-10.96-48.16-10.88
		c-33.63,0.13-55.97,2.56-89.26,3.47c-21.56,1.88-52.01,2.46-67.93,18.73 M237.18,515.1c-1.43,2.8-2.56,5.89-3.32,9.34
		c-2.12,9.52-3.44,19.45-4.2,29.61"/>
	
		<path fill="none" stroke="#684215" stroke-width="0.9832" stroke-linecap="round" stroke-linejoin="round" stroke-miterlimit="1.8372" d="
		M404.73,587.35c2.61,6.86,6.47,11.52,12.44,15.5"/>
	<path fill="#FFFFFF" d="M325.72,689.27c24.15,25.9,49.3,57.07,82.91,68.68c41.79,14.46,81.66,0.63,122.64,6.01
		c20.37,2.67,44.2,21.26,51.02,40.47c-0.93-25.13-3.16-37.02-18.19-52.02c-15.62-15.57-32.72-12.7-54.66-15.48
		c-31.68-4.01-67.31-4.71-98.5-11.61c-17.14-3.79-33.25-14.27-46.48-25.75c-36.55-31.7-59.68-57.23-91.12-60.32
		c-5.91-0.58-32.25,1.22-32.25,1.22s5.05-1.89,26.82,4.09C300.86,653.61,309.1,671.45,325.72,689.27L325.72,689.27z"/>
	
		<path fill="none" stroke="#684215" stroke-width="0.9832" stroke-linecap="round" stroke-linejoin="round" stroke-miterlimit="1.8372" d="
		M794.77,549.06c0,7.59-6.21,13.79-13.79,13.79 M565.24,562.85c-7.59,0-13.79-6.21-13.79-13.79 M551.45,280.21
		c0-7.59,6.21-13.79,13.79-13.79 M780.98,266.42c7.59,0,13.79,6.21,13.79,13.79"/>
	
		<path fill="none" stroke="#684215" stroke-width="0.9186" stroke-linecap="round" stroke-linejoin="round" stroke-miterlimit="1.8372" d="
		M583.97,266.42h178.27"/>
	
		<path fill="none" stroke="#684215" stroke-width="0.9186" stroke-linecap="round" stroke-linejoin="round" stroke-miterlimit="1.8372" d="
		M551.45,299.61v52.37 M551.45,366.27v113.54"/>
	
		<path fill="none" stroke="#684215" stroke-width="0.9186" stroke-linecap="round" stroke-linejoin="round" stroke-miterlimit="1.8372" d="
		M794.77,294.53v47.29"/>
	
		<path fill="none" stroke="#684215" stroke-width="1.2376" stroke-linecap="round" stroke-linejoin="round" stroke-miterlimit="1.8372" d="
		M414.73,406.54v0.39c0,6.59-2.29,11.94-5.14,11.94c-2.83,0-5.07-6.54-5.07-9.9c0-1.68-0.01-2.26-0.04-2.42
		c-0.01,0.13-0.03,0.04-0.04,0l0,0l0,0c0-0.04,0.03-0.13,0.04,0c0.01-0.18,0.04-0.74,0.04-2.42c0-3.36,2.22-9.9,5.07-9.9
		c2.83,0,5.14,5.34,5.14,11.94V406.54L414.73,406.54z"/>
	
		<path fill="none" stroke="#684215" stroke-width="0.9832" stroke-linecap="round" stroke-linejoin="round" stroke-miterlimit="1.8372" d="
		M248.66,639.26c-32,5.67-48.23,32.76-65.87,57.82c-6.95,9.87-11.91,19.81-10.44,21.74 M208.93,755.02
		c8.31,34.44,16.64,97.58,42.72,122.18c14.26,13.44,38.18,21.58,64.79,25.83 M337.61,905.58c5.6,0.48,11.23,0.8,16.85,1
		c34.19,1.19,67.53-2.57,86.74-8.56c53.32-16.66,46.82-33.93,94.52-30.52c16.83,1.2,33.68,3.96,42.14-8.07"/>
	
		<path fill="none" stroke="#684215" stroke-width="0.9832" stroke-linecap="round" stroke-linejoin="round" stroke-miterlimit="1.8372" d="
		M356.39,409.67c6.95,5.39,6.34,5.57,9.22,12.42"/>
	
		<path fill="none" stroke="#684215" stroke-width="0.9832" stroke-linecap="round" stroke-linejoin="round" stroke-miterlimit="1.8372" d="
		M356.71,457.22c0.94,10.67,16.14,20.83,16.5,21.03"/>
	
		<path fill="none" stroke="#684215" stroke-width="0.9832" stroke-linecap="round" stroke-linejoin="round" stroke-miterlimit="1.8372" d="
		M310.14,487.94l0.1-17.95"/>
	
		<path fill="none" stroke="#684215" stroke-width="0.9831" stroke-linecap="round" stroke-linejoin="round" stroke-miterlimit="1.8372" d="
		M320.49,683.29c76.73,88.74,97.46,78.11,141.45,80.67"/>
	
		<path fill="none" stroke="#684215" stroke-width="0.9831" stroke-linecap="round" stroke-linejoin="round" stroke-miterlimit="1.8372" d="
		M476.42,763.59c6.42,0,16.42-0.29,22.93-0.29"/>
	<path fill-rule="evenodd" clip-rule="evenodd" fill="#7C915A" d="M877.37,884.76c4.75-0.55,36.47,12.74,65.43,8.29
		c20.74-3.2,61.37-12.3,59.62-34.48c-1.43-18-23.9-19.16-37.05-19.12c-19.28,0.06-85.61,13.45-88,36.67
		C877.07,878.84,877.37,882.34,877.37,884.76z"/>
	<path fill-rule="evenodd" clip-rule="evenodd" fill="#513C1C" d="M792.66,1070.24l11.61,81.81h66.61l10.57-59.35
		c-1.15-15.13,4.76-22.45-1.81-22.45h12.59v-14.16H784.75v14.16H792.66z"/>
	<path fill-rule="evenodd" clip-rule="evenodd" fill="#7C915A" d="M762.99,861.14c11.11,15.16,42.75,48.67,26.04,63.74
		c8.8,9.42,14.78,14.53,24.15,22.42c8.64-8,17.15-8.02,30.72-11.81c-5.22-22.68-9.8-54.8-21.77-73.55
		c-6.12-9.59-20.26-20.26-29.71-26.45c-5.84-3.84-12.59-7.15-17.85-5.32C766.12,833.08,763.3,854.06,762.99,861.14L762.99,861.14z"
		/>
	<path fill-rule="evenodd" clip-rule="evenodd" fill="#7C915A" d="M823.64,857.63c3.01,1.44,12.14,4.73,15.92,3.89l0.61-0.41
		c-7.38-1.29-10.26-9.32-13.3-13.73c6.36-22.94-7.02-28.31,3.27-50.59c-10.47-12.78-42.16-42.38-62.78-39.95
		c-5.55,0.65-9.87,4.28-9.84,10.74c0.05,17.6,26.58,55.19,39.78,68.08C806.68,846.1,811.87,850.45,823.64,857.63z"/>
	<path fill-rule="evenodd" clip-rule="evenodd" fill="#7C915A" d="M811.07,990.5c-6.19,14.52-2.17,25.26,5.99,31.78
		c15.65,12.49,47.49,5.7,63.77-1.33c35.52-15.36,7.91-50.95,7.61-55.68c-0.14-2.27-19.48-9.87-42.55-3.18
		C823.5,968.56,818.54,976.53,811.07,990.5z"/>
	<path fill-rule="evenodd" clip-rule="evenodd" fill="#D9E021" d="M862.66,972.61c-31.01,20.35-13.09,20.66-4.31,25.51
		c29.43,16.3,31.28,32.35,71.04,29.28c30.28-2.33,79.2-28.05,62.58-60.68c-9.67-18.97-41.49-16.78-60.26-15.9
		C906.74,952,883.94,958.63,862.66,972.61L862.66,972.61z"/>
	<path fill-rule="evenodd" clip-rule="evenodd" fill="#D9E021" d="M938.98,1110.79c8.95-2.37,7.32-14.49,5.13-23.9
		c-6.85-29.44-19.2-48.52-47.34-57.12c-18.66-5.7-32.87-3.17-48.18,9.2c-2.02,1.63-7.6,6.04-6.53,9.27
		c2.44,7.41,31.72,39.04,38.43,43.77C896.99,1103.65,923.35,1114.91,938.98,1110.79z"/>
	<path fill-rule="evenodd" clip-rule="evenodd" fill="#D9E021" d="M711.05,844.02c-14.22,1.34-35.86,14.59-32.2,25.49
		c3.62,10.79,66.22,38.8,95.56,50.31c14.04,5.5,58.3,21.5,43.63-7.77C802.49,881,746.05,840.71,711.05,844.02z"/>
	<path fill-rule="evenodd" clip-rule="evenodd" fill="#D9E021" d="M757.56,1044.79c19.86,3.3,50.55-3.66,66.21-15.12
		c6.63-4.85,0.65-13.93-2.88-21.5c-11.6-24.82-26.78-41.44-53.61-46.75c-30.62-6.07-69.66,20.12-73.91,44.66
		C690,1025.58,740.59,1041.97,757.56,1044.79z"/>
	<path fill-rule="evenodd" clip-rule="evenodd" fill="#D9E021" d="M898.07,756.91c-12.36-5.37-37.32,9.82-47.13,17.35
		c-13.3,10.22-23.19,23.14-30.33,38.94c-9.43,20.86-7.26,40.37,14.39,46.7c7.25,2.12,16.22,2.68,23.75,0.92
		c22.48-5.28,35.33-28.75,42.33-50.26C903.66,802.6,911.01,760.71,898.07,756.91L898.07,756.91z M813.17,947.29
		c0,28.03,33.46,14.34,46.05,11.36l23.91-7.13c3.6-1.43,8.22-2.86,8.17-7.64c-0.05-4.64-6.88-6.54-9.06-6.73
		c0,0,37.55-15.21,44.43-40.66c1.88-6.93,2.27-17.29-4.05-22.04c-15.45-11.61-42.04,6.16-55.99,15.65
		c-6.17,4.2-12.11,11.12-15.57,15.65c-4.43,5.79-6.41,19.22-2.93,26.92c0.65,1.48,1.17,1.52,0.97,1.49
		C840.23,933.44,817.22,939.83,813.17,947.29L813.17,947.29z"/>
	<rect x="838.84" y="840.26" fill-rule="evenodd" clip-rule="evenodd" fill="#D9E021" width="8.01" height="215.82"/>
	
		<path fill="none" stroke="#684215" stroke-width="0.9236" stroke-linecap="round" stroke-linejoin="round" stroke-miterlimit="1.8372" d="
		M898.07,756.91c-28.3,62.43-53.94,101.82-56.12,103.65"/>
	
		<path fill="none" stroke="#684215" stroke-width="0.9236" stroke-linecap="round" stroke-linejoin="round" stroke-miterlimit="1.8372" d="
		M678.86,869.52c33.8-17.09,98.46,2.67,114.08,11.92"/>
	
		<path fill="none" stroke="#684215" stroke-width="0.9236" stroke-linecap="round" stroke-linejoin="round" stroke-miterlimit="1.8372" d="
		M694.2,1012.63c39.41-11.2,95.78-16.1,120.52-16.22"/>
	
		<path fill="none" stroke="#684215" stroke-width="0.9236" stroke-linecap="round" stroke-linejoin="round" stroke-miterlimit="1.8372" d="
		M887.8,959.68c35.26,5.86,73.52,14.31,80.78,55.14"/>
	
		<path fill="none" stroke="#684215" stroke-width="0.9236" stroke-linecap="round" stroke-linejoin="round" stroke-miterlimit="1.8372" d="
		M938.98,1110.79c0.34-23.76-55.48-68.48-76.69-80.37"/>
	
		<path fill="none" stroke="#684215" stroke-width="0.9236" stroke-linecap="round" stroke-linejoin="round" stroke-miterlimit="1.8372" d="
		M924.22,875.93c-26.64,21.16-54.59,38.32-75.13,58.24"/>
	<path opacity="0.4959" fill-rule="evenodd" clip-rule="evenodd" fill="#FFAB3E" d="M965.43,236.31h35.51
		c6.64,0,12.07,5.44,12.07,12.07v35.51c0,6.64-5.44,12.07-12.07,12.07h-35.51c-6.64,0-12.09-5.44-12.09-12.07V248.4
		C953.35,241.75,958.79,236.31,965.43,236.31z"/>
	<path opacity="0.6997" fill-rule="evenodd" clip-rule="evenodd" fill="#FBB03B" d="M171.38,413.95h35.51
		c6.64,0,12.07,5.44,12.07,12.07v35.51c0,6.64-5.44,12.07-12.07,12.07h-35.51c-6.64,0-12.07-5.44-12.07-12.07v-35.51
		C159.31,419.38,164.74,413.95,171.38,413.95z"/>
	<path opacity="0.5992" fill-rule="evenodd" clip-rule="evenodd" fill="#F5D62A" d="M446.35,201.37h47.89
		c8.96,0,16.3,7.33,16.3,16.3v47.89c0,8.96-7.33,16.3-16.3,16.3h-47.89c-8.96,0-16.3-7.33-16.3-16.3v-47.89
		C430.06,208.69,437.38,201.37,446.35,201.37z"/>
</g>
<g id="_x30_dWbSD_1_">
	<g>
		<path fill="#FE6941" d="M605.79,399.12c-2.42,2.01-3.3,4.38-3.5,7.61c-0.22,3.51-1.79,6.97-2.96,10.38
			c-0.51,1.48-1.95,2.37-3.28,1.25c-2.14-3.15,1.22-7.49,2.03-10.61c-3.46,0.88-6.47,2.09-9.55,2.32
			c-9.88,1.2-14.35-11.66-8.1-17.78c7.11-5.39,15.69-3.49,20.76,5.23c13.09-21.26,14.46-36.22,40.88-46.36
			c-9.76-14.78-6.21-35.78,8.54-45.83c27.07-18.61,65.45,8.93,48.11,44.11c2.67,0.76,5.47,3.16,8.17,1.32
			c7.69-4.69,15.86-5.76,24.53-3.43c3.66,0.98,3.93,2.29,1.55,5.15c-2.87,3.44-5.47,7.13-8.01,10.82c-0.4,0.58-0.28,2.16,0.22,2.62
			c5.68,5.26,9.57,11.62,11.95,18.94c0.52,1.58,1.41,2.12,3.04,2.13c5.92-0.42,15.48,0.97,12.91,9.1
			c-2.75,7.95-5.58,15.88-8.5,23.77c-3.96,9.81-11.02,3.08-14.51,7.41c-2.44,3.03-5.03,5.98-7.83,8.69
			c-1.21,1.18-1.39,2.06-0.95,3.57c1.15,7.85,10.44,22.4-2.29,24.46c-18.23,2.59-18.73,6.12-25.76-12.68
			c-8.37,2.16-16.72,3.18-25.16,2.56c-5.34-0.39-10.66-1.3-15.94-2.28c-1.8-0.33-2.63-0.04-3.46,1.54
			c-8.79,17.53-8.89,13.72-26.57,11.2c-13.37-2.51-2.1-17.92-0.41-25.75c0.59-1.58,0.43-2.64-0.67-3.95
			C612,424.72,607,412.47,605.79,399.12z M650.47,359.88c-2.39-1.74-3.82-4.88-6.79-4.37c-14,5.6-24.56,14.74-30.14,29.12
			c-7.11,17.07,0.21,35.64,12.18,48.44c1.44,1.67,1.65,3.18,0.9,5.21c-2.11,5.7-4.06,11.45-6.04,17.19
			c-1.03,2.97-0.47,3.92,2.67,4.44c3.93,0.66,7.93,1.01,11.81,1.89c5.13,1.76,7.92-9.4,10.74-12.7c1.3-2.24,3.15-3.01,5.72-2.32
			c13.18,3.53,26.4,3.67,39.65,0.33c9.97-3.43,6.38,15.5,14.65,14.33c3.9-0.8,7.88-1.23,11.83-1.82c3.58-0.53,4.06-1.27,3.1-4.85
			c-0.73-6.36-7.65-17.42-1.91-21.98c4.07-2.76,8.19-12.36,12.96-11.86c3.04,0.46,7.24,1.17,8.43-2.45
			c2.86-7.72,5.55-15.51,8.29-23.27c1.87-7.4-14.26,0.94-15.52-8.27c-8.32-26.08-22.02-10.86-5.96-35.91
			c-13.01-2.87-18.04,6.97-23.75,4.95c-9.21-4.01-7.6-2.09-13.69,4.39c1.29,0.44,3.89,1.39,4.58,2.97c0.65,2.49-2.25,2.64-3.85,2.16
			c-8.79-3.21-17.83-4.71-27.11-3.35c-4.94,0.72-9.75,2.3-14.66,3.29c-3.12,0.68-5.3-2.75-1.71-4.14
			C647.94,360.89,649.06,360.44,650.47,359.88z M698.5,334.12c1.04-37.44-53.69-40.89-57.24-4.31
			c-1.25,11.97,5.29,25.82,17.79,28.16c7.11-0.98,14.18-0.99,21.27,0.13c1.16,0.18,2.64-0.05,3.64-0.64
			C693.37,351.86,698.11,343.48,698.5,334.12z M588.53,394.03c-8.17-0.54-8.52,11.47-0.71,11.65c3.7,0.31,6.44-1.67,8.95-3.98
			C597.61,397.4,592.63,393.96,588.53,394.03z"/>
		<path fill="#FE6941" d="M718.34,391.97c-5.11-0.01-4.8-8.43,0.33-8.31C724.54,383.55,724.26,392.28,718.34,391.97z"/>
		<path fill="#FE6941" d="M671.98,319.72c0.55,3.64-1.7,9.35,2.04,11.02c10.84,3.83,9.35,16.74-1.9,18.66
			c-0.84,1.62,1.03,5.01-2.56,4.89c-3.17-0.1-1.59-3.05-2.26-4.96c-14.99-3.41-7.31-16.89-4.79-9.33c0.35,2.76,2.15,3.92,5.02,4.38
			c0-3.62,0-6.72,0-10.29c-11.08-2.66-14.04-16.01,0.04-19.32c-0.57-2.26,0.59-3.73,2.31-5.08c0.76,0.79,2.21,1.62,2.16,2.36
			c-0.4,5.51,8.94,2.59,9.39,11.24c0.01,2.81-3.96,4.55-4.41,0.83C676.69,321.42,675,320.32,671.98,319.72z M672.01,344.3
			c6.89-0.72,6.07-8.16,0-8.95C672.01,338.28,672.01,341.2,672.01,344.3z M667.46,319.82c-6.84,1.11-6.05,7.99,0,8.95
			C667.46,325.84,667.46,322.92,667.46,319.82z"/>
	</g>
</g>
</svg>
