<?xml version="1.0" encoding="utf-8"?>
<!-- Generator: Adobe Illustrator 24.3.0, SVG Export Plug-In . SVG Version: 6.00 Build 0)  -->
<svg version="1.1" id="Layer_1" xmlns="http://www.w3.org/2000/svg" xmlns:xlink="http://www.w3.org/1999/xlink" x="0px" y="0px"
	 viewBox="0 0 100 100" enable-background="new 0 0 100 100" xml:space="preserve">
<path fill="#5A3000" d="M91.52,27.33c-3.15-2.98-8.28-4.38-13.26-2.58C85.11,2.67,57.23-7.01,43.24,7.68
	C27.56-5.55,6.4,13.61,16.66,31.29C2.5,32.92-0.87,50.05,13.52,54.6c1.5,10.6,3.85,20.77,6.52,31.62c-1.88-0.29-4.14,0.77-4.57,2.27
	c-3.33,2.96-1.22,9.22,3.78,8.94c1.79,1.35,4.97,0.86,5.86-1.17c0.85-0.47,1.52-1.2,1.95-2.05c8.87,1.55,17.67,3.55,26.58,4.94
	c5.3-1.25,10-5.12,14.96-7.24c-0.31,2.14,1.7,3.92,3.94,4.35c1.85,0.74,3.95,0.31,5.73-0.5c0.51,0.22,1.04,0.34,1.64,0.38
	c1.42,0.6,3.15,0.1,3.9-1.26c3.14-2.45-0.03-7.27-3.5-6.8c-0.47-0.76-1.2-1.2-1.73-1.45c0,0,0.03,0,0.03-0.03
	c0.44-0.22,0.78-0.36,1.29-0.66c1.99,1.6,5.46,0.85,6.27-1.64c1.11-0.27,2.88-2.09,2.8-3.78c0.72-1.11-0.48-3.7-1.67-4.03
	c-0.28-1.87-1.8-3.37-3.65-3.56c1.16-5.56,3.37-16.8,4.57-22.42c0.06-0.19,0.13-0.47,0.16-0.82C96.3,45.93,98.77,32.6,91.52,27.33z"
	/>
<g>
	<path fill="#F8F8F8" d="M38.65,89.59c0.02-11.23-0.14-24.86-0.35-33.66c1.48-1.84,4.91-5.01,5.23-4.63
		c2.47,3.46,6.1,6.88,8.13,10.14c0.47,11.15,1.13,22.32,1.51,33.48c-3.77,0.6-9.42-1.82-13.79-2.14c-1.31-0.24-0.44-2.22-0.69-3.18
		C38.71,89.59,38.68,89.59,38.65,89.59z"/>
	<path fill="#EDF0F6" d="M54.33,95.13c-0.49-11.47-0.98-22.71-1.61-34.14c2.81-3.35,5.33-8.4,8.48-10.77
		c0.93,1.35,3.08,3.61,3.7,5.1c0.21,11.6,0.45,22.07,0.77,33.67C62.81,91.58,57.93,92.9,54.33,95.13z"/>
	<path fill="#F8F8F8" d="M17.74,57.27c3.46,2.44,7.77,4.66,10.77,6.9c0.75,5.37,2.83,18.21,4.22,27.34
		c-2.49-0.87-6.22-0.42-8.03-2.01c-2.75-10.57-5.13-21.19-6.99-31.93C17.74,57.5,17.74,57.43,17.74,57.27z"/>
	<path fill="#EDF0F6" d="M83.93,52.2c-1.9,10.03-3.9,20.08-5.86,30.11c-0.9,1.9-4.9,3.08-6.8,4.03c0-8.62,0-17.27,0-25.89
		c3.7-2.67,8.59-5.57,12.53-8.41C83.87,52.08,83.9,52.14,83.93,52.2z"/>
	<path fill="#EB4235" d="M37.26,56.71c-0.33,11.43,0.54,35.46,0.54,35.46s-3.13-0.4-3.95-0.66c-0.76-4.91-3.76-23.99-3.95-28.18
		c1.39-1.96,4.79-4.41,7.18-6.61C37.1,56.74,37.17,56.74,37.26,56.71z"/>
	<g>
		<path fill="#EB4235" d="M68.85,87.66C68.85,87.7,68.85,87.7,68.85,87.66C68.85,87.7,68.85,87.66,68.85,87.66z"/>
		<path fill="#EB4235" d="M68.56,87.82L68.56,87.82C68.56,87.82,68.59,87.82,68.56,87.82z"/>
	</g>
	<path fill="#F8F189" d="M19.59,52.87c-1.13-1.21-4.17-0.82-5.86-1.48c1.48,1.56,7.72,0.61,5.39,3.84c-0.31,0.76-0.13,1.04,0.6,1.54
		C20.25,55.48,20.19,54.16,19.59,52.87z"/>
	<path fill="#F8F189" d="M86.17,78.85c-2.46,0.24-0.99-3.39-3.34-3.24v0.03c-0.03,0-0.06,0.03-0.06,0.06
		c-0.66,0.18-1.4-0.74-1.54,0.17c-0.23,1.44-0.76,4.15-1.43,5.94c0.76,0.19,0.23,0.37-0.28,1.31c1.59,0.27,4.76,2.49,4.58-0.79
		c0.56-0.23,1.68-0.75,1.68-0.75C86.57,81.07,86.48,79.7,86.17,78.85z"/>
	<path fill="#EDF0F6" d="M83.84,52.02c0.11-0.28,0.35,0.06,0.13,0.19C83.9,52.14,83.87,52.08,83.84,52.02z"/>
	<path fill="#F8F189" d="M42.83,11.23c-0.06-0.06-0.09-0.09-0.16-0.13C42.74,11.14,42.8,11.2,42.83,11.23z"/>
	<path fill="#F8F189" d="M42.99,11.3c-0.09,0.03-0.16,0-0.16-0.09C42.9,11.27,42.93,11.3,42.99,11.3z"/>
	<path fill="#F8F189" d="M43.15,11.45c-0.09,0.03-0.16,0-0.13-0.13C43.05,11.36,43.09,11.42,43.15,11.45z"/>
	<path fill="#F8F189" d="M24.34,91.41c-1.26-0.08-0.78-1.51-1.48-2.24c-1.59,0.15-3.53-0.69-5.07,0.13
		c0.05-0.05-0.05,0.05-0.06,0.06C11.81,95.08,24.98,98.49,24.34,91.41z"/>
	<path fill="#FFFFFF" d="M59.21,23.52c1.81-1.56,2.66,2.4,0.13,1.42C59.02,24.46,58.96,24.02,59.21,23.52z"/>
	<path fill="#FFFFFF" d="M30.21,25.56c1.66-1.79,3.04,1.65,0.63,1.39C30.27,26.63,30.05,26.16,30.21,25.56z"/>
	<path fill="#EB4235" d="M54.71,30.38c-0.14,9.13-12.45,10.69-14.39,1.2C45.22,32.68,50.04,31.73,54.71,30.38z"/>
	<path fill="#EB4235" d="M54.71,30.38c0-0.03,0.03-0.03,0.03-0.06C54.75,30.35,54.72,30.39,54.71,30.38L54.71,30.38z"/>
	<path fill="#EB4235" d="M70.42,86.34c0-8.51,0-17,0-25.51c-1.32-1.67-3.06-3.37-4.64-5.27c0.29,11.15,0.45,21.53,0.77,32.67
		c0.05,1.13,1.33-0.24,1.89-0.25C69.12,87.49,70.67,87.44,70.42,86.34z"/>
	<path fill="#F8F189" d="M78.36,89.77c-0.16-0.94-1.35-1.01-2.02-1.48c-0.61-0.59-1.44-1.07-2.3-0.69c-0.03,0-0.06,0.03-0.06,0.06
		c-0.53,0.18-1.07,0.27-1.61,0.31c-1.31,0.47,0,2.13-0.91,2.87c-2.27,3.09,3.29,3.98,5.32,3.02C78.42,93.27,78.33,91.2,78.36,89.77z
		"/>
	<path fill="#F8F189" d="M82.55,91.82c-0.51-0.29-0.46-1.1-1.1-1.23c-0.67,0.16-1.86-0.39-2.2,0.44c-1.06,0.52-1.08,2.39,0.19,2.68
		c0.45,0.13,0.9,0.03,1.32,0.28c0.68,0.33,0.96-0.28,1.32-0.72C82.54,92.98,82.95,92.28,82.55,91.82z"/>
	<path fill="#F8F189" d="M90.26,31.07c-3.99-6.19-11.81-3.65-17.23-1.04C73.07,30.03,73,30,73,30s0-0.03-0.03-0.03
		c-0.03-0.03-0.03-0.06-0.06-0.09v-0.28c0.11-0.33,0.34-0.66,0.38-1.01C83.44,5.83,57.9-4.23,43.31,11.68
		C28.26-3.35,8.34,17.01,20.92,33.03c0.86,0.55,0.36,0.94-0.41,0.79C6.52,33.96,0.66,48.09,16.29,52.55
		c3.21,0.74,3.66,0.4,2.27,3.72c0.09,0.21,0.31,0.27,0.5,0.35h0.09c0.13,0.06,0.25,0.13,0.35,0.13c0,0.03-0.03,0.06-0.03,0.06
		c3.16,1.39,6.34,4.66,9.48,5.13c4.57-4.21,9.18-8.45,13.7-12.69c3.31,1.49,5.87,6.66,8.85,9.38c0.31,0.38,0.44,0.35,0.76-0.03
		c11.28-13.03,6.27-13.38,17.98-0.41c2.71-1.48,7.14-4.44,10.23-5.83c0.5-0.15,1.06-0.68,1.48-0.91c-0.14-0.8-0.12-1.94-0.16-2.77
		C89.42,47.34,95.64,37.86,90.26,31.07z M34.52,27.01c-0.52,2.2-3.19,1.73-3.91-0.06c-0.54-0.31-0.76-0.79-0.63-1.39
		C29.43,19.96,35.67,23,34.52,27.01z M51.24,38.22c-5.81,3.62-12.34-2.05-12.6-8.25c5.7,2.18,12.14-0.12,17.16-1.01
		C55.84,32.84,54.68,36.11,51.24,38.22z M62.96,26.07c-1.4,2.58-4.68-0.57-3.97-2.55C59.28,17.79,65.27,22.38,62.96,26.07z"/>
</g>
</svg>
