<?xml version="1.0" encoding="utf-8"?>
<!-- Generator: Adobe Illustrator 24.3.0, SVG Export Plug-In . SVG Version: 6.00 Build 0)  -->
<svg version="1.1" id="Layer_1" xmlns="http://www.w3.org/2000/svg" xmlns:xlink="http://www.w3.org/1999/xlink" x="0px" y="0px"
	 viewBox="0 0 1280 1280" enable-background="new 0 0 1280 1280" xml:space="preserve">
<rect fill="#FFFFFF" width="1280" height="1280"/>
<g>
	<g>
		<g>
			<defs>
				<rect id="SVGID_399_" x="214" y="531.35" width="840" height="504"/>
			</defs>
			<clipPath id="SVGID_2_">
				<use xlink:href="#SVGID_399_"  overflow="visible"/>
			</clipPath>
			<rect x="218" y="535.35" clip-path="url(#SVGID_2_)" fill="#64615D" width="112" height="45.25"/>
			<rect x="330" y="535.35" clip-path="url(#SVGID_2_)" fill="#64615D" width="112" height="45.25"/>
			<rect x="442" y="535.35" clip-path="url(#SVGID_2_)" fill="#64615D" width="112" height="45.25"/>
			<rect x="554" y="535.35" clip-path="url(#SVGID_2_)" fill="#64615D" width="206" height="45.25"/>
			<rect x="760" y="535.35" clip-path="url(#SVGID_2_)" fill="#64615D" width="289.36" height="45.25"/>
			<rect x="218" y="625.6" clip-path="url(#SVGID_2_)" fill="#F0EBE3" width="112" height="45"/>
			<rect x="330" y="625.6" clip-path="url(#SVGID_2_)" fill="#F0EBE3" width="112" height="45"/>
			<rect x="442" y="625.6" clip-path="url(#SVGID_2_)" fill="#F0EBE3" width="112" height="45"/>
			<rect x="554" y="625.6" clip-path="url(#SVGID_2_)" fill="#F0EBE3" width="206" height="45"/>
			<rect x="760" y="625.6" clip-path="url(#SVGID_2_)" fill="#F0EBE3" width="289.36" height="45"/>
			<rect x="218" y="715.6" clip-path="url(#SVGID_2_)" fill="#F0EBE3" width="112" height="45"/>
			<rect x="330" y="715.6" clip-path="url(#SVGID_2_)" fill="#F0EBE3" width="112" height="45"/>
			<rect x="442" y="715.6" clip-path="url(#SVGID_2_)" fill="#F0EBE3" width="112" height="45"/>
			<rect x="554" y="715.6" clip-path="url(#SVGID_2_)" fill="#F0EBE3" width="206" height="45"/>
			<rect x="760" y="715.6" clip-path="url(#SVGID_2_)" fill="#F0EBE3" width="289.36" height="45"/>
			<rect x="218" y="805.6" clip-path="url(#SVGID_2_)" fill="#F0EBE3" width="112" height="45"/>
			<rect x="330" y="805.6" clip-path="url(#SVGID_2_)" fill="#F0EBE3" width="112" height="45"/>
			<rect x="442" y="805.6" clip-path="url(#SVGID_2_)" fill="#F0EBE3" width="112" height="45"/>
			<rect x="554" y="805.6" clip-path="url(#SVGID_2_)" fill="#F0EBE3" width="206" height="45"/>
			<rect x="760" y="805.6" clip-path="url(#SVGID_2_)" fill="#F0EBE3" width="289.36" height="45"/>
			<rect x="218" y="895.6" clip-path="url(#SVGID_2_)" fill="#F0EBE3" width="112" height="45"/>
			<rect x="330" y="895.6" clip-path="url(#SVGID_2_)" fill="#F0EBE3" width="112" height="45"/>
			<rect x="442" y="895.6" clip-path="url(#SVGID_2_)" fill="#F0EBE3" width="112" height="45"/>
			<rect x="554" y="895.6" clip-path="url(#SVGID_2_)" fill="#F0EBE3" width="206" height="45"/>
			<rect x="760" y="895.6" clip-path="url(#SVGID_2_)" fill="#F0EBE3" width="289.36" height="45"/>
			<rect x="218" y="985.6" clip-path="url(#SVGID_2_)" fill="#F0EBE3" width="112" height="45.25"/>
			<rect x="330" y="985.6" clip-path="url(#SVGID_2_)" fill="#F0EBE3" width="112" height="45.25"/>
			<rect x="442" y="985.6" clip-path="url(#SVGID_2_)" fill="#F0EBE3" width="112" height="45.25"/>
			<rect x="554" y="985.6" clip-path="url(#SVGID_2_)" fill="#F0EBE3" width="206" height="45.25"/>
			<rect x="760" y="985.6" clip-path="url(#SVGID_2_)" fill="#F0EBE3" width="289.36" height="45.25"/>
		</g>
		<g>
			<defs>
				<rect id="SVGID_401_" x="218.75" y="536.1" width="111.25" height="44"/>
			</defs>
			<clipPath id="SVGID_4_">
				<use xlink:href="#SVGID_401_"  overflow="visible"/>
			</clipPath>
			<g clip-path="url(#SVGID_4_)">
				<text transform="matrix(1 0 0 1 226.7495 564.7822)"><tspan x="0" y="0" fill="#FFFFFF" font-family="'AvenirNext-DemiBold'" font-size="20px" letter-spacing="-1">P</tspan><tspan x="10.92" y="0" fill="#FFFFFF" font-family="'AvenirNext-DemiBold'" font-size="20px">eriod</tspan></text>
			</g>
		</g>
		<g>
			<defs>
				<rect id="SVGID_403_" x="330" y="536.1" width="112" height="44"/>
			</defs>
			<clipPath id="SVGID_6_">
				<use xlink:href="#SVGID_403_"  overflow="visible"/>
			</clipPath>
			<g clip-path="url(#SVGID_6_)">
				<text transform="matrix(1 0 0 1 337.9995 564.7822)" fill="#FFFFFF" font-family="'AvenirNext-DemiBold'" font-size="20px">Month</text>
			</g>
		</g>
		<g>
			<defs>
				<rect id="SVGID_405_" x="442" y="536.1" width="112" height="44"/>
			</defs>
			<clipPath id="SVGID_8_">
				<use xlink:href="#SVGID_405_"  overflow="visible"/>
			</clipPath>
			<g clip-path="url(#SVGID_8_)">
				<text transform="matrix(1 0 0 1 449.9995 564.7822)"><tspan x="0" y="0" fill="#FFFFFF" font-family="'AvenirNext-DemiBold'" font-size="20px" letter-spacing="-1">P</tspan><tspan x="10.92" y="0" fill="#FFFFFF" font-family="'AvenirNext-DemiBold'" font-size="20px">erson</tspan></text>
			</g>
		</g>
		<g>
			<defs>
				<rect id="SVGID_407_" x="554" y="536.1" width="206" height="44"/>
			</defs>
			<clipPath id="SVGID_10_">
				<use xlink:href="#SVGID_407_"  overflow="visible"/>
			</clipPath>
			<g clip-path="url(#SVGID_10_)">
				<text transform="matrix(1 0 0 1 561.9995 564.7822)" fill="#FFFFFF" font-family="'AvenirNext-DemiBold'" font-size="20px">Salary</text>
			</g>
		</g>
		<g>
			<defs>
				<rect id="SVGID_409_" x="760" y="536.1" width="288.61" height="44"/>
			</defs>
			<clipPath id="SVGID_12_">
				<use xlink:href="#SVGID_409_"  overflow="visible"/>
			</clipPath>
			<g clip-path="url(#SVGID_12_)">
				<text transform="matrix(1 0 0 1 767.9995 564.7822)"><tspan x="0" y="0" fill="#FFFFFF" font-family="'AvenirNext-DemiBold'" font-size="20px" letter-spacing="-1">T</tspan><tspan x="9.44" y="0" fill="#FFFFFF" font-family="'AvenirNext-DemiBold'" font-size="20px">otal </tspan><tspan x="49.8" y="0" fill="#FFFFFF" font-family="'AvenirNext-DemiBold'" font-size="20px">C</tspan><tspan x="63.48" y="0" fill="#FFFFFF" font-family="'AvenirNext-DemiBold'" font-size="20px">ost</tspan></text>
			</g>
		</g>
		<g>
			<defs>
				<rect id="SVGID_411_" x="218.75" y="581.1" width="110.75" height="44"/>
			</defs>
			<clipPath id="SVGID_14_">
				<use xlink:href="#SVGID_411_"  overflow="visible"/>
			</clipPath>
			<g clip-path="url(#SVGID_14_)">
				<text transform="matrix(1 0 0 1 226.7495 609.7822)" font-family="'AvenirNext-Regular'" font-size="20px">1</text>
			</g>
		</g>
		<g>
			<defs>
				<rect id="SVGID_413_" x="330.5" y="581.1" width="111" height="44"/>
			</defs>
			<clipPath id="SVGID_16_">
				<use xlink:href="#SVGID_413_"  overflow="visible"/>
			</clipPath>
			<g clip-path="url(#SVGID_16_)">
				<text transform="matrix(1 0 0 1 362.2202 609.7822)"><tspan x="0" y="0" font-family="'AvenirNext-Regular'" font-size="20px">J</tspan><tspan x="9.74" y="0" font-family="'AvenirNext-Regular'" font-size="20px">anuary</tspan></text>
			</g>
		</g>
		<g>
			<defs>
				<rect id="SVGID_415_" x="442.5" y="581.1" width="111" height="44"/>
			</defs>
			<clipPath id="SVGID_18_">
				<use xlink:href="#SVGID_415_"  overflow="visible"/>
			</clipPath>
			<g clip-path="url(#SVGID_18_)">
				<text transform="matrix(1 0 0 1 450.4995 609.7822)" font-family="'AvenirNext-Regular'" font-size="20px">4</text>
			</g>
		</g>
		<g>
			<defs>
				<rect id="SVGID_417_" x="554.5" y="581.1" width="205" height="44"/>
			</defs>
			<clipPath id="SVGID_20_">
				<use xlink:href="#SVGID_417_"  overflow="visible"/>
			</clipPath>
			<g clip-path="url(#SVGID_20_)">
				<text transform="matrix(1 0 0 1 562.4995 609.7822)"><tspan x="0" y="0" font-family="'AvenirNext-Regular'" font-size="20px">IDR</tspan><tspan x="32.32" y="0" font-family="'AvenirNext-Regular'" font-size="20px" letter-spacing="60"> </tspan><tspan x="97.38" y="0" font-family="'AvenirNext-Regular'" font-size="20px">2,500,000</tspan></text>
			</g>
		</g>
		<g>
			<defs>
				<rect id="SVGID_419_" x="760.5" y="581.1" width="288.11" height="44"/>
			</defs>
			<clipPath id="SVGID_22_">
				<use xlink:href="#SVGID_419_"  overflow="visible"/>
			</clipPath>
			<g clip-path="url(#SVGID_22_)">
				<text transform="matrix(1 0 0 1 768.4995 609.7822)"><tspan x="0" y="0" font-family="'AvenirNext-Regular'" font-size="20px">IDR</tspan><tspan x="32.32" y="0" font-family="'AvenirNext-Regular'" font-size="20px" letter-spacing="131"> </tspan><tspan x="168.9" y="0" font-family="'AvenirNext-Regular'" font-size="20px">10,000,000</tspan></text>
			</g>
		</g>
		<g>
			<defs>
				<rect id="SVGID_421_" x="218.75" y="626.1" width="110.75" height="44"/>
			</defs>
			<clipPath id="SVGID_24_">
				<use xlink:href="#SVGID_421_"  overflow="visible"/>
			</clipPath>
			<g clip-path="url(#SVGID_24_)">
				<text transform="matrix(1 0 0 1 226.7495 654.7822)" font-family="'AvenirNext-Regular'" font-size="20px">2</text>
			</g>
		</g>
		<g>
			<defs>
				<rect id="SVGID_423_" x="330.5" y="626.1" width="111" height="44"/>
			</defs>
			<clipPath id="SVGID_26_">
				<use xlink:href="#SVGID_423_"  overflow="visible"/>
			</clipPath>
			<g clip-path="url(#SVGID_26_)">
				<text transform="matrix(1 0 0 1 352.5796 654.7822)"><tspan x="0" y="0" font-family="'AvenirNext-Regular'" font-size="20px">F</tspan><tspan x="10.3" y="0" font-family="'AvenirNext-Regular'" font-size="20px">ebruary</tspan></text>
			</g>
		</g>
		<g>
			<defs>
				<rect id="SVGID_425_" x="442.5" y="626.1" width="111" height="44"/>
			</defs>
			<clipPath id="SVGID_28_">
				<use xlink:href="#SVGID_425_"  overflow="visible"/>
			</clipPath>
			<g clip-path="url(#SVGID_28_)">
				<text transform="matrix(1 0 0 1 450.4995 654.7822)" font-family="'AvenirNext-Regular'" font-size="20px">4</text>
			</g>
		</g>
		<g>
			<defs>
				<rect id="SVGID_427_" x="554.5" y="626.1" width="205" height="44"/>
			</defs>
			<clipPath id="SVGID_30_">
				<use xlink:href="#SVGID_427_"  overflow="visible"/>
			</clipPath>
			<g clip-path="url(#SVGID_30_)">
				<text transform="matrix(1 0 0 1 562.4995 654.7822)"><tspan x="0" y="0" font-family="'AvenirNext-Regular'" font-size="20px">IDR</tspan><tspan x="32.32" y="0" font-family="'AvenirNext-Regular'" font-size="20px" letter-spacing="60"> </tspan><tspan x="97.38" y="0" font-family="'AvenirNext-Regular'" font-size="20px">2,500,000</tspan></text>
			</g>
		</g>
		<g>
			<defs>
				<rect id="SVGID_429_" x="760.5" y="626.1" width="288.11" height="44"/>
			</defs>
			<clipPath id="SVGID_32_">
				<use xlink:href="#SVGID_429_"  overflow="visible"/>
			</clipPath>
			<g clip-path="url(#SVGID_32_)">
				<text transform="matrix(1 0 0 1 768.4995 654.7822)"><tspan x="0" y="0" font-family="'AvenirNext-Regular'" font-size="20px">IDR</tspan><tspan x="32.32" y="0" font-family="'AvenirNext-Regular'" font-size="20px" letter-spacing="131"> </tspan><tspan x="168.9" y="0" font-family="'AvenirNext-Regular'" font-size="20px">10,000,000</tspan></text>
			</g>
		</g>
		<g>
			<defs>
				<rect id="SVGID_431_" x="218.75" y="671.1" width="110.75" height="44"/>
			</defs>
			<clipPath id="SVGID_34_">
				<use xlink:href="#SVGID_431_"  overflow="visible"/>
			</clipPath>
			<g clip-path="url(#SVGID_34_)">
				<text transform="matrix(1 0 0 1 226.7495 699.7822)" font-family="'AvenirNext-Regular'" font-size="20px">3</text>
			</g>
		</g>
		<g>
			<defs>
				<rect id="SVGID_433_" x="330.5" y="671.1" width="111" height="44"/>
			</defs>
			<clipPath id="SVGID_36_">
				<use xlink:href="#SVGID_433_"  overflow="visible"/>
			</clipPath>
			<g clip-path="url(#SVGID_36_)">
				<text transform="matrix(1 0 0 1 376.6001 699.7822)"><tspan x="0" y="0" font-family="'AvenirNext-Regular'" font-size="20px">Ma</tspan><tspan x="28.4" y="0" font-family="'AvenirNext-Regular'" font-size="20px">r</tspan><tspan x="35.26" y="0" font-family="'AvenirNext-Regular'" font-size="20px">ch</tspan></text>
			</g>
		</g>
		<g>
			<defs>
				<rect id="SVGID_435_" x="442.5" y="671.1" width="111" height="44"/>
			</defs>
			<clipPath id="SVGID_38_">
				<use xlink:href="#SVGID_435_"  overflow="visible"/>
			</clipPath>
			<g clip-path="url(#SVGID_38_)">
				<text transform="matrix(1 0 0 1 450.4995 699.7822)" font-family="'AvenirNext-Regular'" font-size="20px">4</text>
			</g>
		</g>
		<g>
			<defs>
				<rect id="SVGID_437_" x="554.5" y="671.1" width="205" height="44"/>
			</defs>
			<clipPath id="SVGID_40_">
				<use xlink:href="#SVGID_437_"  overflow="visible"/>
			</clipPath>
			<g clip-path="url(#SVGID_40_)">
				<text transform="matrix(1 0 0 1 562.4995 699.7822)"><tspan x="0" y="0" font-family="'AvenirNext-Regular'" font-size="20px">IDR</tspan><tspan x="32.32" y="0" font-family="'AvenirNext-Regular'" font-size="20px" letter-spacing="60"> </tspan><tspan x="97.38" y="0" font-family="'AvenirNext-Regular'" font-size="20px">2,500,000</tspan></text>
			</g>
		</g>
		<g>
			<defs>
				<rect id="SVGID_439_" x="760.5" y="671.1" width="288.11" height="44"/>
			</defs>
			<clipPath id="SVGID_42_">
				<use xlink:href="#SVGID_439_"  overflow="visible"/>
			</clipPath>
			<g clip-path="url(#SVGID_42_)">
				<text transform="matrix(1 0 0 1 768.4995 699.7822)"><tspan x="0" y="0" font-family="'AvenirNext-Regular'" font-size="20px">IDR</tspan><tspan x="32.32" y="0" font-family="'AvenirNext-Regular'" font-size="20px" letter-spacing="131"> </tspan><tspan x="168.9" y="0" font-family="'AvenirNext-Regular'" font-size="20px">10,000,000</tspan></text>
			</g>
		</g>
		<g>
			<defs>
				<rect id="SVGID_441_" x="218.75" y="716.1" width="110.75" height="44"/>
			</defs>
			<clipPath id="SVGID_44_">
				<use xlink:href="#SVGID_441_"  overflow="visible"/>
			</clipPath>
			<g clip-path="url(#SVGID_44_)">
				<text transform="matrix(1 0 0 1 226.7495 744.7822)" font-family="'AvenirNext-Regular'" font-size="20px">4</text>
			</g>
		</g>
		<g>
			<defs>
				<rect id="SVGID_443_" x="330.5" y="716.1" width="111" height="44"/>
			</defs>
			<clipPath id="SVGID_46_">
				<use xlink:href="#SVGID_443_"  overflow="visible"/>
			</clipPath>
			<g clip-path="url(#SVGID_46_)">
				<text transform="matrix(1 0 0 1 389.5601 744.7822)" font-family="'AvenirNext-Regular'" font-size="20px">April</text>
			</g>
		</g>
		<g>
			<defs>
				<rect id="SVGID_445_" x="442.5" y="716.1" width="111" height="44"/>
			</defs>
			<clipPath id="SVGID_48_">
				<use xlink:href="#SVGID_445_"  overflow="visible"/>
			</clipPath>
			<g clip-path="url(#SVGID_48_)">
				<text transform="matrix(1 0 0 1 450.4995 744.7822)" font-family="'AvenirNext-Regular'" font-size="20px">4</text>
			</g>
		</g>
		<g>
			<defs>
				<rect id="SVGID_447_" x="554.5" y="716.1" width="205" height="44"/>
			</defs>
			<clipPath id="SVGID_50_">
				<use xlink:href="#SVGID_447_"  overflow="visible"/>
			</clipPath>
			<g clip-path="url(#SVGID_50_)">
				<text transform="matrix(1 0 0 1 562.4995 744.7822)"><tspan x="0" y="0" font-family="'AvenirNext-Regular'" font-size="20px">IDR</tspan><tspan x="32.32" y="0" font-family="'AvenirNext-Regular'" font-size="20px" letter-spacing="60"> </tspan><tspan x="97.38" y="0" font-family="'AvenirNext-Regular'" font-size="20px">2,500,000</tspan></text>
			</g>
		</g>
		<g>
			<defs>
				<rect id="SVGID_449_" x="760.5" y="716.1" width="288.11" height="44"/>
			</defs>
			<clipPath id="SVGID_52_">
				<use xlink:href="#SVGID_449_"  overflow="visible"/>
			</clipPath>
			<g clip-path="url(#SVGID_52_)">
				<text transform="matrix(1 0 0 1 768.4995 744.7822)"><tspan x="0" y="0" font-family="'AvenirNext-Regular'" font-size="20px">IDR</tspan><tspan x="32.32" y="0" font-family="'AvenirNext-Regular'" font-size="20px" letter-spacing="131"> </tspan><tspan x="168.9" y="0" font-family="'AvenirNext-Regular'" font-size="20px">10,000,000</tspan></text>
			</g>
		</g>
		<g>
			<defs>
				<rect id="SVGID_451_" x="218.75" y="761.1" width="110.75" height="44"/>
			</defs>
			<clipPath id="SVGID_54_">
				<use xlink:href="#SVGID_451_"  overflow="visible"/>
			</clipPath>
			<g clip-path="url(#SVGID_54_)">
				<text transform="matrix(1 0 0 1 226.7495 789.7822)" font-family="'AvenirNext-Regular'" font-size="20px">5</text>
			</g>
		</g>
		<g>
			<defs>
				<rect id="SVGID_453_" x="330.5" y="761.1" width="111" height="44"/>
			</defs>
			<clipPath id="SVGID_56_">
				<use xlink:href="#SVGID_453_"  overflow="visible"/>
			</clipPath>
			<g clip-path="url(#SVGID_56_)">
				<text transform="matrix(1 0 0 1 395.3403 789.7822)" font-family="'AvenirNext-Regular'" font-size="20px">May</text>
			</g>
		</g>
		<g>
			<defs>
				<rect id="SVGID_455_" x="442.5" y="761.1" width="111" height="44"/>
			</defs>
			<clipPath id="SVGID_58_">
				<use xlink:href="#SVGID_455_"  overflow="visible"/>
			</clipPath>
			<g clip-path="url(#SVGID_58_)">
				<text transform="matrix(1 0 0 1 450.4995 789.7822)" font-family="'AvenirNext-Regular'" font-size="20px">3</text>
			</g>
		</g>
		<g>
			<defs>
				<rect id="SVGID_457_" x="554.5" y="761.1" width="205" height="44"/>
			</defs>
			<clipPath id="SVGID_60_">
				<use xlink:href="#SVGID_457_"  overflow="visible"/>
			</clipPath>
			<g clip-path="url(#SVGID_60_)">
				<text transform="matrix(1 0 0 1 562.4995 789.7822)"><tspan x="0" y="0" font-family="'AvenirNext-Regular'" font-size="20px">IDR</tspan><tspan x="32.32" y="0" font-family="'AvenirNext-Regular'" font-size="20px" letter-spacing="60"> </tspan><tspan x="97.38" y="0" font-family="'AvenirNext-Regular'" font-size="20px">3,000,000</tspan></text>
			</g>
		</g>
		<g>
			<defs>
				<rect id="SVGID_459_" x="760.5" y="761.1" width="288.11" height="44"/>
			</defs>
			<clipPath id="SVGID_62_">
				<use xlink:href="#SVGID_459_"  overflow="visible"/>
			</clipPath>
			<g clip-path="url(#SVGID_62_)">
				<text transform="matrix(1 0 0 1 768.4995 789.7822)"><tspan x="0" y="0" font-family="'AvenirNext-Regular'" font-size="20px">IDR</tspan><tspan x="32.32" y="0" font-family="'AvenirNext-Regular'" font-size="20px" letter-spacing="143"> </tspan><tspan x="180.5" y="0" font-family="'AvenirNext-Regular'" font-size="20px">9,000,000</tspan></text>
			</g>
		</g>
		<g>
			<defs>
				<rect id="SVGID_461_" x="218.75" y="806.1" width="110.75" height="44"/>
			</defs>
			<clipPath id="SVGID_64_">
				<use xlink:href="#SVGID_461_"  overflow="visible"/>
			</clipPath>
			<g clip-path="url(#SVGID_64_)">
				<text transform="matrix(1 0 0 1 226.7495 834.7822)" font-family="'AvenirNext-Regular'" font-size="20px">6</text>
			</g>
		</g>
		<g>
			<defs>
				<rect id="SVGID_463_" x="330.5" y="806.1" width="111" height="44"/>
			</defs>
			<clipPath id="SVGID_66_">
				<use xlink:href="#SVGID_463_"  overflow="visible"/>
			</clipPath>
			<g clip-path="url(#SVGID_66_)">
				<text transform="matrix(1 0 0 1 388.98 834.7822)" font-family="'AvenirNext-Regular'" font-size="20px">June</text>
			</g>
		</g>
		<g>
			<defs>
				<rect id="SVGID_465_" x="442.5" y="806.1" width="111" height="44"/>
			</defs>
			<clipPath id="SVGID_68_">
				<use xlink:href="#SVGID_465_"  overflow="visible"/>
			</clipPath>
			<g clip-path="url(#SVGID_68_)">
				<text transform="matrix(1 0 0 1 450.4995 834.7822)" font-family="'AvenirNext-Regular'" font-size="20px">3</text>
			</g>
		</g>
		<g>
			<defs>
				<rect id="SVGID_467_" x="554.5" y="806.1" width="205" height="44"/>
			</defs>
			<clipPath id="SVGID_70_">
				<use xlink:href="#SVGID_467_"  overflow="visible"/>
			</clipPath>
			<g clip-path="url(#SVGID_70_)">
				<text transform="matrix(1 0 0 1 562.4995 834.7822)"><tspan x="0" y="0" font-family="'AvenirNext-Regular'" font-size="20px">IDR</tspan><tspan x="32.32" y="0" font-family="'AvenirNext-Regular'" font-size="20px" letter-spacing="60"> </tspan><tspan x="97.38" y="0" font-family="'AvenirNext-Regular'" font-size="20px">3,000,000</tspan></text>
			</g>
		</g>
		<g>
			<defs>
				<rect id="SVGID_469_" x="760.5" y="806.1" width="288.11" height="44"/>
			</defs>
			<clipPath id="SVGID_72_">
				<use xlink:href="#SVGID_469_"  overflow="visible"/>
			</clipPath>
			<g clip-path="url(#SVGID_72_)">
				<text transform="matrix(1 0 0 1 768.4995 834.7822)"><tspan x="0" y="0" font-family="'AvenirNext-Regular'" font-size="20px">IDR</tspan><tspan x="32.32" y="0" font-family="'AvenirNext-Regular'" font-size="20px" letter-spacing="143"> </tspan><tspan x="180.5" y="0" font-family="'AvenirNext-Regular'" font-size="20px">9,000,000</tspan></text>
			</g>
		</g>
		<g>
			<defs>
				<rect id="SVGID_471_" x="218.75" y="851.1" width="110.75" height="44"/>
			</defs>
			<clipPath id="SVGID_98_">
				<use xlink:href="#SVGID_471_"  overflow="visible"/>
			</clipPath>
			<g clip-path="url(#SVGID_98_)">
				<text transform="matrix(1 0 0 1 226.7495 879.7822)" font-family="'AvenirNext-Regular'" font-size="20px">7</text>
			</g>
		</g>
		<g>
			<defs>
				<rect id="SVGID_473_" x="330.5" y="851.1" width="111" height="44"/>
			</defs>
			<clipPath id="SVGID_100_">
				<use xlink:href="#SVGID_473_"  overflow="visible"/>
			</clipPath>
			<g clip-path="url(#SVGID_100_)">
				<text transform="matrix(1 0 0 1 397.2397 879.7822)" font-family="'AvenirNext-Regular'" font-size="20px">July</text>
			</g>
		</g>
		<g>
			<defs>
				<rect id="SVGID_475_" x="442.5" y="851.1" width="111" height="44"/>
			</defs>
			<clipPath id="SVGID_102_">
				<use xlink:href="#SVGID_475_"  overflow="visible"/>
			</clipPath>
			<g clip-path="url(#SVGID_102_)">
				<text transform="matrix(1 0 0 1 450.4995 879.7822)" font-family="'AvenirNext-Regular'" font-size="20px">3</text>
			</g>
		</g>
		<g>
			<defs>
				<rect id="SVGID_477_" x="554.5" y="851.1" width="205" height="44"/>
			</defs>
			<clipPath id="SVGID_104_">
				<use xlink:href="#SVGID_477_"  overflow="visible"/>
			</clipPath>
			<g clip-path="url(#SVGID_104_)">
				<text transform="matrix(1 0 0 1 562.4995 879.7822)"><tspan x="0" y="0" font-family="'AvenirNext-Regular'" font-size="20px">IDR</tspan><tspan x="32.32" y="0" font-family="'AvenirNext-Regular'" font-size="20px" letter-spacing="60"> </tspan><tspan x="97.38" y="0" font-family="'AvenirNext-Regular'" font-size="20px">3,000,000</tspan></text>
			</g>
		</g>
		<g>
			<defs>
				<rect id="SVGID_479_" x="760.5" y="851.1" width="288.11" height="44"/>
			</defs>
			<clipPath id="SVGID_106_">
				<use xlink:href="#SVGID_479_"  overflow="visible"/>
			</clipPath>
			<g clip-path="url(#SVGID_106_)">
				<text transform="matrix(1 0 0 1 768.4995 879.7822)"><tspan x="0" y="0" font-family="'AvenirNext-Regular'" font-size="20px">IDR</tspan><tspan x="32.32" y="0" font-family="'AvenirNext-Regular'" font-size="20px" letter-spacing="143"> </tspan><tspan x="180.5" y="0" font-family="'AvenirNext-Regular'" font-size="20px">9,000,000</tspan></text>
			</g>
		</g>
		<g>
			<defs>
				<rect id="SVGID_481_" x="218.75" y="896.1" width="110.75" height="44"/>
			</defs>
			<clipPath id="SVGID_108_">
				<use xlink:href="#SVGID_481_"  overflow="visible"/>
			</clipPath>
			<g clip-path="url(#SVGID_108_)">
				<text transform="matrix(1 0 0 1 226.7495 924.7822)" font-family="'AvenirNext-Regular'" font-size="20px">8</text>
			</g>
		</g>
		<g>
			<defs>
				<rect id="SVGID_483_" x="330.5" y="896.1" width="111" height="44"/>
			</defs>
			<clipPath id="SVGID_110_">
				<use xlink:href="#SVGID_483_"  overflow="visible"/>
			</clipPath>
			<g clip-path="url(#SVGID_110_)">
				<text transform="matrix(1 0 0 1 368.3999 924.7822)" font-family="'AvenirNext-Regular'" font-size="20px">August</text>
			</g>
		</g>
		<g>
			<defs>
				<rect id="SVGID_485_" x="442.5" y="896.1" width="111" height="44"/>
			</defs>
			<clipPath id="SVGID_112_">
				<use xlink:href="#SVGID_485_"  overflow="visible"/>
			</clipPath>
			<g clip-path="url(#SVGID_112_)">
				<text transform="matrix(1 0 0 1 450.4995 924.7822)" font-family="'AvenirNext-Regular'" font-size="20px">3</text>
			</g>
		</g>
		<g>
			<defs>
				<rect id="SVGID_487_" x="554.5" y="896.1" width="205" height="44"/>
			</defs>
			<clipPath id="SVGID_114_">
				<use xlink:href="#SVGID_487_"  overflow="visible"/>
			</clipPath>
			<g clip-path="url(#SVGID_114_)">
				<text transform="matrix(1 0 0 1 562.4995 924.7822)"><tspan x="0" y="0" font-family="'AvenirNext-Regular'" font-size="20px">IDR</tspan><tspan x="32.32" y="0" font-family="'AvenirNext-Regular'" font-size="20px" letter-spacing="60"> </tspan><tspan x="97.38" y="0" font-family="'AvenirNext-Regular'" font-size="20px">3,000,000</tspan></text>
			</g>
		</g>
		<g>
			<defs>
				<rect id="SVGID_489_" x="760.5" y="896.1" width="288.11" height="44"/>
			</defs>
			<clipPath id="SVGID_116_">
				<use xlink:href="#SVGID_489_"  overflow="visible"/>
			</clipPath>
			<g clip-path="url(#SVGID_116_)">
				<text transform="matrix(1 0 0 1 768.4995 924.7822)"><tspan x="0" y="0" font-family="'AvenirNext-Regular'" font-size="20px">IDR</tspan><tspan x="32.32" y="0" font-family="'AvenirNext-Regular'" font-size="20px" letter-spacing="143"> </tspan><tspan x="180.5" y="0" font-family="'AvenirNext-Regular'" font-size="20px">9,000,000</tspan></text>
			</g>
		</g>
		<g>
			<defs>
				<rect id="SVGID_491_" x="214" y="531.35" width="840" height="504"/>
			</defs>
			<clipPath id="SVGID_118_">
				<use xlink:href="#SVGID_491_"  overflow="visible"/>
			</clipPath>
			<rect x="218" y="940.6" opacity="0" clip-path="url(#SVGID_118_)" fill="#DE3580" width="112" height="45"/>
			<rect x="330" y="940.6" opacity="0" clip-path="url(#SVGID_118_)" fill="#C3C80C" width="112" height="45"/>
			<rect x="442" y="940.6" opacity="0" clip-path="url(#SVGID_118_)" fill="#99BEC0" width="112" height="45"/>
			<rect x="554" y="940.6" opacity="0" clip-path="url(#SVGID_118_)" fill="#EB25CB" width="206" height="45"/>
			<rect x="760" y="940.6" opacity="0" clip-path="url(#SVGID_118_)" fill="#F12650" width="289.36" height="45"/>
			<rect x="218" y="985.6" opacity="0" clip-path="url(#SVGID_118_)" fill="#47D024" width="112" height="45.25"/>
			<rect x="330" y="985.6" opacity="0" clip-path="url(#SVGID_118_)" fill="#C05137" width="112" height="45.25"/>
			<rect x="442" y="985.6" opacity="0" clip-path="url(#SVGID_118_)" fill="#EFC425" width="112" height="45.25"/>
		</g>
		<g>
			<defs>
				<rect id="SVGID_493_" x="554.5" y="986.1" width="205" height="44"/>
			</defs>
			<clipPath id="SVGID_120_">
				<use xlink:href="#SVGID_493_"  overflow="visible"/>
			</clipPath>
			<g clip-path="url(#SVGID_120_)">
				<text transform="matrix(1 0 0 1 562.4995 1014.7822)"><tspan x="0" y="0" font-family="'AvenirNext-Bold'" font-size="20px">SUB</tspan><tspan x="39.88" y="0" font-family="'AvenirNext-Bold'" font-size="20px" letter-spacing="-1">-</tspan><tspan x="44.62" y="0" font-family="'AvenirNext-Bold'" font-size="20px">T</tspan><tspan x="55.66" y="0" font-family="'AvenirNext-Bold'" font-size="20px">O</tspan><tspan x="72.08" y="0" font-family="'AvenirNext-Bold'" font-size="20px" letter-spacing="-1">T</tspan><tspan x="82.52" y="0" font-family="'AvenirNext-Bold'" font-size="20px">AL</tspan></text>
			</g>
		</g>
		<g>
			<defs>
				<rect id="SVGID_495_" x="760.5" y="986.1" width="288.11" height="44"/>
			</defs>
			<clipPath id="SVGID_122_">
				<use xlink:href="#SVGID_495_"  overflow="visible"/>
			</clipPath>
			<g clip-path="url(#SVGID_122_)">
				<text transform="matrix(1 0 0 1 768.4995 1014.7822)"><tspan x="0" y="0" font-family="'AvenirNext-Bold'" font-size="20px">IDR</tspan><tspan x="35.1" y="0" font-family="'AvenirNext-Bold'" font-size="20px" letter-spacing="116"> </tspan><tspan x="156.74" y="0" font-family="'AvenirNext-Bold'" font-size="20px">76,000,000</tspan></text>
			</g>
		</g>
		<g>
			<defs>
				<rect id="SVGID_497_" x="214" y="531.35" width="840" height="504"/>
			</defs>
			<clipPath id="SVGID_124_">
				<use xlink:href="#SVGID_497_"  overflow="visible"/>
			</clipPath>
			
				<line clip-path="url(#SVGID_124_)" fill="none" stroke="#CFCCC9" stroke-width="0.5" x1="330" y1="579.6" x2="330" y2="1031.85"/>
			
				<line clip-path="url(#SVGID_124_)" fill="none" stroke="#CFCCC9" stroke-width="0.5" x1="442" y1="579.6" x2="442" y2="1031.85"/>
			
				<line clip-path="url(#SVGID_124_)" fill="none" stroke="#CFCCC9" stroke-width="0.5" x1="554" y1="579.6" x2="554" y2="1031.85"/>
			
				<line clip-path="url(#SVGID_124_)" fill="none" stroke="#CFCCC9" stroke-width="0.5" x1="760" y1="579.6" x2="760" y2="1031.85"/>
			
				<line clip-path="url(#SVGID_124_)" fill="none" stroke="#CFCCC9" stroke-width="0.5" x1="217" y1="625.6" x2="1050.36" y2="625.6"/>
			
				<line clip-path="url(#SVGID_124_)" fill="none" stroke="#CFCCC9" stroke-width="0.5" x1="217" y1="670.6" x2="1050.36" y2="670.6"/>
			
				<line clip-path="url(#SVGID_124_)" fill="none" stroke="#CFCCC9" stroke-width="0.5" x1="217" y1="715.6" x2="1050.36" y2="715.6"/>
			
				<line clip-path="url(#SVGID_124_)" fill="none" stroke="#CFCCC9" stroke-width="0.5" x1="217" y1="760.6" x2="1050.36" y2="760.6"/>
			
				<line clip-path="url(#SVGID_124_)" fill="none" stroke="#CFCCC9" stroke-width="0.5" x1="217" y1="805.6" x2="1050.36" y2="805.6"/>
			
				<line clip-path="url(#SVGID_124_)" fill="none" stroke="#CFCCC9" stroke-width="0.5" x1="217" y1="850.6" x2="1050.36" y2="850.6"/>
			
				<line clip-path="url(#SVGID_124_)" fill="none" stroke="#CFCCC9" stroke-width="0.5" x1="217" y1="895.6" x2="1050.36" y2="895.6"/>
			
				<line clip-path="url(#SVGID_124_)" fill="none" stroke="#CFCCC9" stroke-width="0.5" x1="217" y1="940.6" x2="1050.36" y2="940.6"/>
			
				<line clip-path="url(#SVGID_124_)" fill="none" stroke="#CFCCC9" stroke-width="0.5" x1="217" y1="985.6" x2="1050.36" y2="985.6"/>
			
				<line clip-path="url(#SVGID_124_)" fill="none" stroke="#CFCCC9" stroke-width="0.5" x1="217" y1="580.6" x2="1050.36" y2="580.6"/>
			
				<line clip-path="url(#SVGID_124_)" fill="none" stroke="#B6B2AD" stroke-width="0.75" x1="218" y1="534.35" x2="218" y2="580.6"/>
			
				<line clip-path="url(#SVGID_124_)" fill="none" stroke="#B6B2AD" stroke-width="0.75" x1="218" y1="580.6" x2="218" y2="1031.85"/>
			
				<line clip-path="url(#SVGID_124_)" fill="none" stroke="#B6B2AD" stroke-width="0.75" x1="1049.36" y1="534.35" x2="1049.36" y2="580.6"/>
			
				<line clip-path="url(#SVGID_124_)" fill="none" stroke="#B6B2AD" stroke-width="0.75" x1="1049.36" y1="580.6" x2="1049.36" y2="1031.85"/>
			
				<line clip-path="url(#SVGID_124_)" fill="none" stroke="#B6B2AD" stroke-width="0.75" x1="217" y1="535.35" x2="1050.36" y2="535.35"/>
			
				<line clip-path="url(#SVGID_124_)" fill="none" stroke="#B6B2AD" stroke-width="0.75" x1="217" y1="1030.85" x2="1050.36" y2="1030.85"/>
		</g>
		<g>
			<defs>
				<rect id="SVGID_499_" x="214" y="312.65" width="840" height="144"/>
			</defs>
			<clipPath id="SVGID_126_">
				<use xlink:href="#SVGID_499_"  overflow="visible"/>
			</clipPath>
			<rect x="218" y="316.65" clip-path="url(#SVGID_126_)" fill="#E5E3E0" width="542" height="45.25"/>
			<rect x="218" y="361.9" clip-path="url(#SVGID_126_)" fill="#E5E3E0" width="542" height="45"/>
			<rect x="760" y="361.9" clip-path="url(#SVGID_126_)" fill="#F0EBE3" width="290.11" height="45"/>
			<rect x="218" y="406.9" clip-path="url(#SVGID_126_)" fill="#E5E3E0" width="542" height="45.25"/>
		</g>
		<g>
			<defs>
				<rect id="SVGID_501_" x="218.75" y="317.4" width="540.75" height="44"/>
			</defs>
			<clipPath id="SVGID_128_">
				<use xlink:href="#SVGID_501_"  overflow="visible"/>
			</clipPath>
			<g clip-path="url(#SVGID_128_)">
				<text transform="matrix(1 0 0 1 226.7495 346.082)"><tspan x="0" y="0" font-family="'AvenirNext-DemiBold'" font-size="20px">W</tspan><tspan x="19.36" y="0" font-family="'AvenirNext-DemiBold'" font-size="20px">orking hour</tspan></text>
			</g>
		</g>
		<g>
			<defs>
				<rect id="SVGID_503_" x="760.5" y="317.4" width="288.86" height="44"/>
			</defs>
			<clipPath id="SVGID_130_">
				<use xlink:href="#SVGID_503_"  overflow="visible"/>
			</clipPath>
			<g clip-path="url(#SVGID_130_)">
				<text transform="matrix(1 0 0 1 768.4995 346.082)"><tspan x="0" y="0" font-family="'AvenirNext-Regular'" font-size="20px">8</tspan><tspan x="11.6" y="0" font-family="'AvenirNext-Regular'" font-size="20px"> </tspan><tspan x="16.38" y="0" font-family="'AvenirNext-Regular'" font-size="20px">J</tspan><tspan x="26.12" y="0" font-family="'AvenirNext-Regular'" font-size="20px">am / Hari</tspan></text>
			</g>
		</g>
		<g>
			<defs>
				<rect id="SVGID_505_" x="218.75" y="362.4" width="540.75" height="44"/>
			</defs>
			<clipPath id="SVGID_132_">
				<use xlink:href="#SVGID_505_"  overflow="visible"/>
			</clipPath>
			<g clip-path="url(#SVGID_132_)">
				<text transform="matrix(1 0 0 1 226.7495 391.082)" font-family="'AvenirNext-DemiBold'" font-size="20px">Budget</text>
			</g>
		</g>
		<g>
			<defs>
				<rect id="SVGID_507_" x="760.5" y="362.4" width="288.86" height="44"/>
			</defs>
			<clipPath id="SVGID_134_">
				<use xlink:href="#SVGID_507_"  overflow="visible"/>
			</clipPath>
			<g clip-path="url(#SVGID_134_)">
				<text transform="matrix(1 0 0 1 768.4995 391.082)"><tspan x="0" y="0" font-family="'AvenirNext-Regular'" font-size="20px">IDR</tspan><tspan x="32.32" y="0" font-family="'AvenirNext-Regular'" font-size="20px" letter-spacing="132"> </tspan><tspan x="169.66" y="0" font-family="'AvenirNext-Regular'" font-size="20px">80,000,000</tspan></text>
			</g>
		</g>
		<g>
			<defs>
				<rect id="SVGID_509_" x="218.75" y="407.4" width="540.75" height="44"/>
			</defs>
			<clipPath id="SVGID_136_">
				<use xlink:href="#SVGID_509_"  overflow="visible"/>
			</clipPath>
			<g clip-path="url(#SVGID_136_)">
				<text transform="matrix(1 0 0 1 226.7495 436.082)"><tspan x="0" y="0" font-family="'AvenirNext-DemiBold'" font-size="20px">Alloc</tspan><tspan x="46.8" y="0" font-family="'AvenirNext-DemiBold'" font-size="20px">a</tspan><tspan x="57.62" y="0" font-family="'AvenirNext-DemiBold'" font-size="20px">ted to </tspan></text>
			</g>
			<g clip-path="url(#SVGID_136_)">
				<text transform="matrix(1 0 0 1 344.3101 436.082)"><tspan x="0" y="0" font-family="'AvenirNext-DemiBoldItalic'" font-size="20px">PET</tspan><tspan x="34.52" y="0" font-family="'AvenirNext-DemiBoldItalic'" font-size="20px">T</tspan><tspan x="44.96" y="0" font-family="'AvenirNext-DemiBoldItalic'" font-size="20px">Y</tspan><tspan x="56" y="0" font-family="'AvenirNext-DemiBoldItalic'" font-size="20px"> </tspan><tspan x="61" y="0" font-family="'AvenirNext-DemiBoldItalic'" font-size="20px">C</tspan><tspan x="74.4" y="0" font-family="'AvenirNext-DemiBoldItalic'" font-size="20px">ASH</tspan></text>
			</g>
		</g>
		<g>
			<defs>
				<rect id="SVGID_511_" x="760.5" y="407.4" width="288.86" height="44"/>
			</defs>
			<clipPath id="SVGID_138_">
				<use xlink:href="#SVGID_511_"  overflow="visible"/>
			</clipPath>
			<g clip-path="url(#SVGID_138_)">
				<text transform="matrix(1 0 0 1 768.4995 436.082)"><tspan x="0" y="0" font-family="'AvenirNext-Regular'" font-size="20px">IDR</tspan><tspan x="32.32" y="0" font-family="'AvenirNext-Regular'" font-size="20px" letter-spacing="143"> </tspan><tspan x="181.26" y="0" font-family="'AvenirNext-Regular'" font-size="20px">4,000,000</tspan></text>
			</g>
		</g>
		<g>
			<defs>
				<rect id="SVGID_513_" x="214" y="312.65" width="840" height="144"/>
			</defs>
			<clipPath id="SVGID_140_">
				<use xlink:href="#SVGID_513_"  overflow="visible"/>
			</clipPath>
			<line clip-path="url(#SVGID_140_)" fill="none" stroke="#CFCCC9" stroke-width="0.5" x1="217" y1="361.9" x2="760" y2="361.9"/>
			
				<line clip-path="url(#SVGID_140_)" fill="none" stroke="#CFCCC9" stroke-width="0.5" x1="760" y1="361.9" x2="1051.11" y2="361.9"/>
			<line clip-path="url(#SVGID_140_)" fill="none" stroke="#CFCCC9" stroke-width="0.5" x1="217" y1="406.9" x2="760" y2="406.9"/>
			
				<line clip-path="url(#SVGID_140_)" fill="none" stroke="#CFCCC9" stroke-width="0.5" x1="760" y1="406.9" x2="1051.11" y2="406.9"/>
			
				<line clip-path="url(#SVGID_140_)" fill="none" stroke="#CFCCC9" stroke-width="0.5" x1="760" y1="315.65" x2="760" y2="453.15"/>
			
				<line clip-path="url(#SVGID_140_)" fill="none" stroke="#B6B2AD" stroke-width="0.75" x1="218" y1="315.65" x2="218" y2="453.15"/>
			
				<line clip-path="url(#SVGID_140_)" fill="none" stroke="#B6B2AD" stroke-width="0.75" x1="1050.11" y1="315.65" x2="1050.11" y2="453.15"/>
			
				<line clip-path="url(#SVGID_140_)" fill="none" stroke="#B6B2AD" stroke-width="0.75" x1="217" y1="316.65" x2="760" y2="316.65"/>
			
				<line clip-path="url(#SVGID_140_)" fill="none" stroke="#B6B2AD" stroke-width="0.75" x1="760" y1="316.65" x2="1051.11" y2="316.65"/>
			
				<line clip-path="url(#SVGID_140_)" fill="none" stroke="#B6B2AD" stroke-width="0.75" x1="217" y1="452.15" x2="760" y2="452.15"/>
			
				<line clip-path="url(#SVGID_140_)" fill="none" stroke="#B6B2AD" stroke-width="0.75" x1="760" y1="452.15" x2="1051.11" y2="452.15"/>
		</g>
		<g>
			<defs>
				<rect id="SVGID_515_" x="216.44" y="226" width="217.46" height="84.72"/>
			</defs>
			<clipPath id="SVGID_142_">
				<use xlink:href="#SVGID_515_"  overflow="visible"/>
			</clipPath>
			<g clip-path="url(#SVGID_142_)">
				<text transform="matrix(1 0 0 1 225.9995 263.3145)"><tspan x="0" y="0" font-family="'AvenirNext-Bold'" font-size="28px">C</tspan><tspan x="19.15" y="0" font-family="'AvenirNext-Bold'" font-size="28px">ONCE</tspan><tspan x="101.58" y="0" font-family="'AvenirNext-Bold'" font-size="28px">P</tspan><tspan x="119.34" y="0" font-family="'AvenirNext-Bold'" font-size="28px">T</tspan><tspan x="134.93" y="0" font-family="'AvenirNext-Bold'" font-size="28px"> </tspan><tspan x="141.46" y="0" font-family="'AvenirNext-Bold'" font-size="28px">A</tspan><tspan x="161.87" y="0" font-family="'AvenirNext-Bold'" font-size="28px">R</tspan><tspan x="180.09" y="0" font-family="'AvenirNext-Bold'" font-size="28px">T</tspan></text>
			</g>
		</g>
	</g>
</g>
</svg>
