<?xml version="1.0" encoding="utf-8"?>
<!-- Generator: Adobe Illustrator 24.3.0, SVG Export Plug-In . SVG Version: 6.00 Build 0)  -->
<svg version="1.1" id="Layer_1" xmlns="http://www.w3.org/2000/svg" xmlns:xlink="http://www.w3.org/1999/xlink" x="0px" y="0px"
	 viewBox="0 0 1280 1280" style="enable-background:new 0 0 1280 1280;" xml:space="preserve">
<style type="text/css">
	.st0{fill:#FFFFFF;}
	.st1{fill:#E5E3E0;}
	.st2{fill:#E6E3E0;}
	.st3{fill:#F0EBE3;}
	.st4{fill:#B6E29A;}
	.st5{fill:none;stroke:#CFCCC9;stroke-width:0.5;}
	.st6{fill:none;stroke:#B6B2AD;stroke-width:0.75;}
	.st7{fill:none;stroke:#535354;stroke-width:3;}
	.st8{fill:none;stroke:#9E9A93;}
	.st9{fill:none;stroke:#BBBBBB;stroke-width:0.5;}
	.st10{fill:none;stroke:#000000;stroke-width:0.5;}
	.st11{fill:none;stroke:#000000;stroke-linecap:square;}
	.st12{fill:none;stroke:#858687;}
	.st13{font-family:'AvenirNext-Bold';}
	.st14{font-size:28px;}
	.st15{fill:url(#SVGID_1_);}
	.st16{fill:url(#SVGID_2_);}
	.st17{fill:url(#SVGID_3_);}
	.st18{fill:url(#SVGID_4_);}
	.st19{fill:url(#SVGID_5_);}
	.st20{fill:url(#SVGID_6_);}
	.st21{fill:url(#SVGID_7_);}
	.st22{fill:url(#SVGID_8_);}
</style>
<rect class="st0" width="1280" height="1280"/>
<rect x="229.1" y="385.6" class="st1" width="148.6" height="256"/>
<g>
	<rect x="233.6" y="709.6" class="st2" width="144.9" height="192.6"/>
	<rect x="378.5" y="709.6" class="st2" width="104.7" height="21.6"/>
</g>
<path d="M230.2,366c6-1.1,7.2,4.8,0.8,4.3v3.7h-0.8L230.2,366L230.2,366z M231,369.6c4.5,0.6,4.5-3.6,0-2.9
	C231,366.7,231,369.6,231,369.6z"/>
<path d="M237.6,374h-0.8v-8c1.2,0.1,3.3-0.3,4.3,0.5c1.6,1.1,0.6,3.7-1.3,3.7l2.4,3.8h-1l-2.2-3.8h-1.4L237.6,374L237.6,374z
	 M237.6,369.6c4.7,0.6,4.6-3.6,0-2.9C237.6,366.7,237.6,369.6,237.6,369.6z"/>
<path d="M251.5,370c0.2,5.5-8.6,5.5-8.4,0C242.9,364.5,251.7,364.5,251.5,370z M250.7,370c0.2-4.6-6.9-4.5-6.7,0
	C243.8,374.6,250.9,374.6,250.7,370z"/>
<path d="M252.8,372.4c0.2,1.5,2.5,1.5,2.7,0c0.1-0.2,0-6,0.1-6.3h0.8c-0.1,1.3,0.4,6.3-0.4,7.4c-0.9,1.5-3.6,1-3.9-0.8L252.8,372.4z
	"/>
<path d="M259.2,373.3h4.3v0.7h-5.1v-8h5v0.7h-4.2v2.8h3.9v0.7h-3.9V373.3z"/>
<path d="M271.9,372.7c-2.1,3.1-7.5,1-7.2-2.7c-0.3-3.6,4.8-5.7,7-2.9l-0.7,0.5c-1.8-2.4-5.8-0.4-5.5,2.4c-0.3,3,3.9,4.9,5.7,2.3
	L271.9,372.7z"/>
<path d="M275.8,374H275v-7.3h-2.7V366h6.2v0.7h-2.7L275.8,374L275.8,374z"/>
<path d="M289,372.7c-2.1,3.1-7.5,1-7.2-2.7c-0.3-3.6,4.8-5.8,7-2.9l-0.7,0.5c-1.8-2.4-5.8-0.4-5.5,2.4c-0.3,3,3.9,4.9,5.7,2.3
	L289,372.7z"/>
<path d="M298.3,370c0.2,5.5-8.6,5.5-8.4,0C289.7,364.5,298.5,364.5,298.3,370z M297.4,370c0.2-4.6-6.9-4.5-6.7,0
	C290.5,374.6,297.6,374.6,297.4,370z"/>
<path d="M303.9,367.3c-1.1-1.9-4.8,0-2.8,1.8c1.1,0.7,2.7,0.6,3.4,1.9c1.3,3-3.4,4.5-4.9,2.1l0.7-0.5c2.5,2.9,6.6-1.2,0.2-3
	c-2.5-2.6,2.4-5.3,4.2-2.8L303.9,367.3z"/>
<path d="M308.7,374h-0.8v-7.3h-2.7V366h6.2v0.7h-2.7L308.7,374L308.7,374z"/>
<path d="M319.1,367.3c-1.1-1.9-4.8,0-2.8,1.8c1.1,0.7,2.7,0.6,3.4,1.9c1.3,3-3.4,4.5-4.9,2.1l0.7-0.5c2.5,2.9,6.6-1.2,0.2-3
	c-2.5-2.6,2.4-5.3,4.2-2.8L319.1,367.3z"/>
<path d="M324.6,374.2c-4.2,0.2-2.8-5.7-3-8.2h0.8c0.3,2-1.2,7.6,2.2,7.5c3.4,0.1,1.9-5.5,2.2-7.5h0.8
	C327.3,368.5,328.8,374.4,324.6,374.2z"/>
<path d="M333.6,372.6L333.6,372.6l2.7-6.6h1.2v8h-0.8v-7h0l-2.9,7h-0.4l-2.9-7h0v7h-0.8v-8h1.2L333.6,372.6z"/>
<path d="M343.7,372.6L343.7,372.6l2.7-6.6h1.2v8h-0.8v-7h0l-2.9,7h-0.4l-2.9-7h0v7h-0.8v-8h1.2L343.7,372.6z"/>
<path d="M349.7,374h-0.9l3.5-8h0.8l3.5,8h-0.9l-0.9-2.1h-4.1L349.7,374z M350.9,371.2h3.5l-1.8-4.3L350.9,371.2z"/>
<path d="M358.5,374h-0.8v-8c1.2,0.1,3.3-0.3,4.3,0.5c1.6,1.1,0.6,3.7-1.3,3.7l2.4,3.8h-1l-2.2-3.8h-1.4L358.5,374L358.5,374z
	 M358.5,369.6c4.7,0.6,4.6-3.6,0-2.9L358.5,369.6L358.5,369.6z"/>
<path d="M367.2,374h-0.8v-3.5l-3-4.6h1l2.4,3.9l2.4-3.9h1l-3,4.6L367.2,374L367.2,374z"/>
<rect x="377.8" y="407" class="st3" width="105.1" height="21.3"/>
<rect x="377.8" y="449.5" class="st3" width="105.1" height="21.3"/>
<rect x="377.8" y="492.1" class="st3" width="105.1" height="21.3"/>
<rect x="377.8" y="534.6" class="st3" width="105.1" height="21.3"/>
<rect x="377.8" y="577.2" class="st3" width="105.1" height="21.3"/>
<rect x="377.8" y="619.7" class="st4" width="105.1" height="21.4"/>
<path d="M238.8,394.4c-5.1-3.6-4.8,7.3,0.1,3.4l1,0.7c-7.8,5.6-8.2-10-0.1-4.8L238.8,394.4z"/>
<path d="M240.2,396.2c-0.2-4.6,7.4-4.6,7.2,0C247.6,400.8,240,400.8,240.2,396.2z M241.5,396.2c-0.2,3.2,4.8,3.2,4.6,0
	C246.2,393,241.3,393,241.5,396.2z"/>
<path d="M248.5,392.8h1.6l3.1,5h0v-5h1.2v6.7h-1.5l-3.2-5.2h0v5.2h-1.2C248.5,399.5,248.5,392.8,248.5,392.8z"/>
<path d="M260.7,394.4c-5.1-3.6-4.8,7.3,0.1,3.4l1,0.7c-7.8,5.6-8.2-10-0.1-4.8L260.7,394.4z"/>
<path d="M262.5,392.8h4.4v1h-3.2v1.7h3.1v1h-3.1v1.9h3.4v1.1h-4.6V392.8L262.5,392.8z"/>
<path d="M268.2,392.8c1.1,0.1,3.1-0.2,4,0.4c2.1,2-0.7,4-2.8,3.5v2.8h-1.2C268.2,399.5,268.2,392.8,268.2,392.8z M270.2,395.8
	c2.8-0.2,1.3-2.4-0.8-1.9v1.9L270.2,395.8z"/>
<path d="M275.3,393.9h-2v-1h5.3v1h-2v5.6h-1.2L275.3,393.9L275.3,393.9z"/>
<path d="M283.4,392.8h1l2.9,6.7h-1.4l-0.6-1.5h-2.9l-0.6,1.5h-1.3L283.4,392.8z M284.9,397l-1-2.7l-1,2.7H284.9z"/>
<path d="M288,392.8c1.1,0.1,3.1-0.2,4,0.4c1.3,0.9,0.8,3.1-0.8,3.3l1.8,3h-1.4l-1.5-2.8h-0.9v2.8h-1.2L288,392.8L288,392.8
	L288,392.8z M290.1,395.7c1,0.2,2.1-1,1-1.7c-0.5-0.3-1.4-0.2-2-0.2v1.9L290.1,395.7z"/>
<path d="M295.1,393.9h-2v-1h5.3v1h-2v5.6h-1.2L295.1,393.9L295.1,393.9z"/>
<path d="M383.4,399.5h-0.7v-6.7h0.7V399.5z"/>
<path d="M385.1,392.8c7.7-1.2,7.7,7.9,0,6.7V392.8z M385.8,398.9c5.8,0.9,5.7-6.4,0-5.5V398.9z"/>
<path d="M393,399.5h-0.7v-6.7c1,0.1,2.8-0.2,3.6,0.4c1.3,0.9,0.5,3.1-1.1,3.1l2,3.2H396l-1.9-3.1H393L393,399.5L393,399.5L393,399.5
	z M393,395.8c3.9,0.5,3.9-2.9,0-2.4L393,395.8L393,395.8z"/>
<path d="M434.7,393.5l-2.7,6.1h-0.8l2.8-6.1h-3.3v-0.6h4L434.7,393.5L434.7,393.5z"/>
<path d="M437.3,395.8L437.3,395.8c2.1-1.2,4.1,1.8,2.4,3.4c-1.3,1.2-3.8,0.4-3.7-1.5c-0.1-1.4,1.8-3.6,2.4-4.7h0.8L437.3,395.8z
	 M436.7,397.6c-0.1,2,3.1,2,3,0C439.8,395.6,436.6,395.6,436.7,397.6z"/>
<path d="M441.9,400.8h-0.5l0.6-2.2h0.7L441.9,400.8z"/>
<path d="M446.1,392.6c3,0.2,3.1,6.9,0,7C443.1,399.5,443.1,392.8,446.1,392.6z M446.1,393.2c-2.1,0.3-2.1,5.5,0,5.9
	C448.2,398.7,448.2,393.6,446.1,393.2z"/>
<path d="M451.6,392.6c3,0.2,3.1,6.9,0,7C448.5,399.5,448.5,392.8,451.6,392.6z M451.6,393.2c-2.1,0.3-2.1,5.5,0,5.9
	C453.7,398.7,453.7,393.6,451.6,393.2z"/>
<path d="M457.1,392.6c3,0.2,3.1,6.9,0,7C454,399.5,454,392.8,457.1,392.6z M457.1,393.2c-2.1,0.3-2.1,5.5,0,5.9
	C459.2,398.7,459.2,393.6,457.1,393.2z"/>
<path d="M460.8,400.8h-0.5l0.6-2.2h0.7L460.8,400.8z"/>
<path d="M465,392.6c3,0.2,3.1,6.9,0,7C462,399.5,462,392.8,465,392.6z M465,393.2c-2.1,0.3-2.1,5.5,0,5.9
	C467.1,398.7,467.1,393.6,465,393.2z"/>
<path d="M470.5,392.6c3,0.2,3.1,6.9,0,7C467.4,399.5,467.5,392.8,470.5,392.6z M470.5,393.2c-2.1,0.3-2.1,5.5,0,5.9
	C472.6,398.7,472.6,393.6,470.5,393.2z"/>
<path d="M476,392.6c3,0.2,3.1,6.9,0,7C472.9,399.5,472.9,392.8,476,392.6z M476,393.2c-2.1,0.3-2.1,5.5,0,5.9
	C478.1,398.7,478.1,393.6,476,393.2z"/>
<path d="M239.9,420.4c-8.3,3.6-7.7-10.1,0-5.7l-0.8,0.9c-4.6-3.4-5.6,6.1-0.3,4v-1.7h-1.4v-1h2.6V420.4z"/>
<path d="M243.4,414.1h1l2.9,6.7H246l-0.6-1.5h-2.9l-0.6,1.5h-1.3L243.4,414.1z M244.9,418.2l-1-2.7l-1.1,2.7H244.9z"/>
<path d="M248,414.1h1.9l1.7,4.8h0l1.7-4.8h1.9v6.7H254v-5.4h0l-2,5.4h-0.8l-2-5.4h0v5.4H248V414.1z"/>
<path d="M256.7,414.1h4.4v1h-3.2v1.7h3.1v1h-3.1v1.9h3.4v1.1h-4.6V414.1L256.7,414.1z"/>
<path d="M264.8,414.1c8.2-1.3,8.1,7.9,0,6.7V414.1z M267,419.8c4.2-0.1,2.9-5.6-1-4.6v4.6H267z"/>
<path d="M272,414.1h4.4v1h-3.2v1.7h3.1v1h-3.1v1.9h3.4v1.1H272V414.1L272,414.1z"/>
<path d="M281.2,415.5c-0.6-1-2.9-0.7-2.3,0.7c0.7,0.9,2.4,0.6,3,1.8c1.2,2.7-3,4-4.5,2l0.9-0.8c2.4,2.2,4.2-1.2,0.5-1.7
	c-3.2-1.9,1.2-5.2,3.3-2.9L281.2,415.5z"/>
<path d="M283.2,414.1h1.2v6.7h-1.2V414.1z"/>
<path d="M291.8,420.4c-8.3,3.6-7.7-10.1,0-5.7l-0.8,0.9c-4.6-3.4-5.6,6.1-0.3,4v-1.7h-1.4v-1h2.6V420.4L291.8,420.4z"/>
<path d="M293.2,414.1h1.6l3.1,5h0v-5h1.2v6.7h-1.5l-3.2-5.2h0v5.2h-1.2L293.2,414.1L293.2,414.1z"/>
<path d="M383.4,420.8h-0.7v-6.7h0.7V420.8z"/>
<path d="M385.1,414.1c7.7-1.2,7.7,7.9,0,6.7V414.1z M385.8,420.2c5.8,0.9,5.7-6.4,0-5.5V420.2z"/>
<path d="M393,420.8h-0.7v-6.7c1,0.1,2.8-0.2,3.6,0.4c1.3,0.9,0.5,3.1-1.1,3.1l2,3.2H396l-1.9-3.1H393L393,420.8L393,420.8L393,420.8
	z M393,417.1c3.9,0.5,3.9-2.9,0-2.4L393,417.1L393,417.1z"/>
<path d="M434.1,418.6h1v0.6h-1v1.6h-0.7v-1.6h-3.1v-0.7l2.8-4.4h0.9V418.6z M433.4,414.9L433.4,414.9l-2.3,3.7h2.4L433.4,414.9
	L433.4,414.9z"/>
<path d="M439,417.9L439,417.9c-2.1,1.2-4.1-1.8-2.4-3.4c1.3-1.2,3.8-0.4,3.7,1.5c0.1,1.4-1.8,3.6-2.4,4.7h-0.8L439,417.9z
	 M439.7,416c0.1-2-3.1-2-3,0C436.6,418,439.8,418,439.7,416z"/>
<path d="M441.9,422.1h-0.5l0.6-2.2h0.7L441.9,422.1z"/>
<path d="M446.1,413.9c3,0.2,3.1,6.9,0,7C443.1,420.8,443.1,414.1,446.1,413.9z M446.1,414.5c-2.1,0.3-2.1,5.5,0,5.9
	C448.2,420,448.2,414.9,446.1,414.5z"/>
<path d="M451.6,413.9c3,0.2,3.1,6.9,0,7C448.5,420.8,448.5,414.1,451.6,413.9z M451.6,414.5c-2.1,0.3-2.1,5.5,0,5.9
	C453.7,420,453.7,414.9,451.6,414.5z"/>
<path d="M457.1,413.9c3,0.2,3.1,6.9,0,7C454,420.8,454,414.1,457.1,413.9z M457.1,414.5c-2.1,0.3-2.1,5.5,0,5.9
	C459.2,420,459.2,414.9,457.1,414.5z"/>
<path d="M460.8,422.1h-0.5l0.6-2.2h0.7L460.8,422.1z"/>
<path d="M465,413.9c3,0.2,3.1,6.9,0,7C462,420.8,462,414.1,465,413.9z M465,414.5c-2.1,0.3-2.1,5.5,0,5.9
	C467.1,420,467.1,414.9,465,414.5z"/>
<path d="M470.5,413.9c3,0.2,3.1,6.9,0,7C467.4,420.8,467.5,414.1,470.5,413.9z M470.5,414.5c-2.1,0.3-2.1,5.5,0,5.9
	C472.6,420,472.6,414.9,470.5,414.5z"/>
<path d="M476,413.9c3,0.2,3.1,6.9,0,7C472.9,420.8,472.9,414.1,476,413.9z M476,414.5c-2.1,0.3-2.1,5.5,0,5.9
	C478.1,420,478.1,414.9,476,414.5z"/>
<path d="M236.1,435.4h1l2.9,6.7h-1.4l-0.6-1.5h-2.9l-0.6,1.5h-1.3L236.1,435.4z M237.6,439.5l-1-2.7l-1.1,2.7H237.6z"/>
<path d="M244.1,436.8c-0.6-1-2.9-0.7-2.3,0.7c0.7,0.9,2.4,0.6,3,1.8c1.2,2.7-3,4-4.5,2l0.9-0.8c2.4,2.2,4.2-1.2,0.5-1.7
	c-3.2-1.9,1.2-5.2,3.3-2.9L244.1,436.8z"/>
<path d="M249.5,436.8c-0.6-1-2.9-0.7-2.3,0.7c0.7,0.9,2.4,0.6,3,1.8c1.2,2.7-3,4-4.5,2l0.9-0.8c2.4,2.2,4.2-1.2,0.5-1.7
	c-3.2-1.9,1.2-5.2,3.3-2.9L249.5,436.8z"/>
<path d="M251.5,435.4h4.4v1h-3.2v1.7h3.1v1h-3.1v1.9h3.4v1.1h-4.6L251.5,435.4L251.5,435.4z"/>
<path d="M258.7,436.4h-2v-1h5.3v1h-2v5.6h-1.2L258.7,436.4L258.7,436.4z"/>
<path d="M262.7,435.4h1.2v6.7h-1.2V435.4z"/>
<path d="M265.3,435.4h1.6l3.1,5h0v-5h1.2v6.7h-1.5l-3.2-5.2h0v5.2h-1.2C265.3,442.1,265.3,435.4,265.3,435.4z"/>
<path d="M278.6,441.7c-8.3,3.6-7.7-10.1,0-5.7l-0.8,0.9c-4.6-3.4-5.6,6.1-0.3,4v-1.7H276v-1h2.6V441.7L278.6,441.7z"/>
<path d="M283.7,438.1c3.3,0.4,1-3.8-0.4-1.1l-1.1-0.3c1-3.6,6.9,0,3.1,1.8v0c4.2,1.8-2.2,6-3.4,2.1l1.1-0.3c1.6,2.9,4.4-1.5,0.7-1.3
	L283.7,438.1L283.7,438.1z"/>
<path d="M288.1,435.4c8.2-1.3,8.1,7.9,0,6.7V435.4z M290.3,441c4.2-0.1,2.9-5.6-1-4.6v4.6H290.3z"/>
<path d="M383.4,442.1h-0.7v-6.7h0.7V442.1z"/>
<path d="M385.1,435.4c7.7-1.2,7.7,7.9,0,6.7V435.4z M385.8,441.5c5.8,0.9,5.7-6.4,0-5.5V441.5z"/>
<path d="M393,442.1h-0.7v-6.7c1,0.1,2.8-0.2,3.6,0.4c1.3,0.9,0.5,3.1-1.1,3.1l2,3.2H396l-1.9-3.1H393L393,442.1L393,442.1L393,442.1
	z M393,438.4c3.9,0.5,3.9-2.9,0-2.4L393,438.4L393,438.4z"/>
<path d="M429.2,442.1H425v-0.7c0.6-0.8,3.2-2.9,3.5-3.9c0.6-1.9-2.4-2.4-2.6-0.5l-0.7-0.1c1.2-3.6,8-1.1,0.6,4.6h3.5L429.2,442.1
	L429.2,442.1L429.2,442.1z"/>
<path d="M434.1,439.8h1v0.6h-1v1.6h-0.7v-1.6h-3.1v-0.7l2.8-4.4h0.9V439.8z M433.4,436.1L433.4,436.1l-2.3,3.7h2.4L433.4,436.1
	L433.4,436.1z"/>
<path d="M438.2,435.2c3,0.2,3.1,6.9,0,7C435.1,442.1,435.1,435.4,438.2,435.2z M438.2,435.8c-2.1,0.3-2.1,5.5,0,5.9
	C440.3,441.3,440.3,436.1,438.2,435.8z"/>
<path d="M441.9,443.4h-0.5l0.6-2.2h0.7L441.9,443.4z"/>
<path d="M446.1,435.2c3,0.2,3.1,6.9,0,7C443.1,442.1,443.1,435.4,446.1,435.2z M446.1,435.8c-2.1,0.3-2.1,5.5,0,5.9
	C448.2,441.3,448.2,436.1,446.1,435.8z"/>
<path d="M451.6,435.2c3,0.2,3.1,6.9,0,7C448.5,442.1,448.5,435.4,451.6,435.2z M451.6,435.8c-2.1,0.3-2.1,5.5,0,5.9
	C453.7,441.3,453.7,436.1,451.6,435.8z"/>
<path d="M457.1,435.2c3,0.2,3.1,6.9,0,7C454,442.1,454,435.4,457.1,435.2z M457.1,435.8c-2.1,0.3-2.1,5.5,0,5.9
	C459.2,441.3,459.2,436.1,457.1,435.8z"/>
<path d="M460.8,443.4h-0.5l0.6-2.2h0.7L460.8,443.4z"/>
<path d="M465,435.2c3,0.2,3.1,6.9,0,7C462,442.1,462,435.4,465,435.2z M465,435.8c-2.1,0.3-2.1,5.5,0,5.9
	C467.1,441.3,467.1,436.1,465,435.8z"/>
<path d="M470.5,435.2c3,0.2,3.1,6.9,0,7C467.4,442.1,467.5,435.4,470.5,435.2z M470.5,435.8c-2.1,0.3-2.1,5.5,0,5.9
	C472.6,441.3,472.6,436.1,470.5,435.8z"/>
<path d="M476,435.2c3,0.2,3.1,6.9,0,7C472.9,442.1,472.9,435.4,476,435.2z M476,435.8c-2.1,0.3-2.1,5.5,0,5.9
	C478.1,441.3,478.1,436.1,476,435.8z"/>
<path d="M234,456.6c0.7,0,2.6-0.1,3.2,0.1c3.3,1.3,0.8,4.5-2,3.8v2.8H234C234,463.3,234,456.6,234,456.6z M236,459.6
	c2.8-0.2,1.3-2.4-0.8-1.9v1.9L236,459.6z"/>
<path d="M239.8,456.6c1.1,0.1,3.1-0.2,4,0.4c1.3,0.9,0.8,3.1-0.8,3.3l1.8,3h-1.4l-1.6-2.8H241v2.8h-1.2L239.8,456.6L239.8,456.6
	L239.8,456.6z M241.9,459.5c1,0.2,2.1-1,1-1.7c-0.5-0.3-1.4-0.2-2-0.2v1.9L241.9,459.5z"/>
<path d="M245.4,460c-0.2-4.6,7.4-4.6,7.2,0C252.8,464.6,245.2,464.6,245.4,460z M246.7,460c-0.2,3.2,4.8,3.2,4.6,0
	C251.4,456.8,246.5,456.8,246.7,460z"/>
<path d="M259.6,463c-8.3,3.6-7.7-10.1,0-5.7l-0.8,0.9c-4.6-3.4-5.6,6.1-0.3,4v-1.7h-1.4v-1h2.6V463z"/>
<path d="M261.1,456.6c1.1,0.1,3.1-0.2,4,0.4c1.3,0.9,0.8,3.1-0.8,3.3l1.8,3h-1.4l-1.5-2.8h-0.9v2.8h-1.2L261.1,456.6L261.1,456.6
	L261.1,456.6z M263.2,459.5c1,0.2,2.1-1,1-1.7c-0.5-0.3-1.4-0.2-2-0.2v1.9L263.2,459.5z"/>
<path d="M269.1,456.6h1l2.9,6.7h-1.4l-0.6-1.5h-2.9l-0.6,1.5h-1.3L269.1,456.6z M270.6,460.8l-1-2.7l-1,2.7H270.6z"/>
<path d="M273.7,456.6h1.9l1.7,4.8h0l1.7-4.8h1.9v6.7h-1.2V458h0l-2,5.4h-0.8l-2-5.4h0v5.4h-1.1L273.7,456.6L273.7,456.6z"/>
<path d="M282.4,456.6h1.9l1.7,4.8h0l1.7-4.8h1.9v6.7h-1.2V458h0l-2,5.4h-0.8l-2-5.4h0v5.4h-1.1L282.4,456.6L282.4,456.6z"/>
<path d="M291.1,456.6h1.2v6.7h-1.2V456.6z"/>
<path d="M293.7,456.6h1.6l3.1,5h0v-5h1.2v6.7h-1.5l-3.2-5.2h0v5.2h-1.2L293.7,456.6L293.7,456.6z"/>
<path d="M307,463c-8.3,3.6-7.7-10.1,0-5.7l-0.8,0.9c-4.6-3.4-5.6,6.1-0.3,4v-1.7h-1.4v-1h2.6V463L307,463z"/>
<path d="M383.4,463.3h-0.7v-6.7h0.7V463.3z"/>
<path d="M385.1,456.6c7.7-1.2,7.7,7.9,0,6.7V456.6z M385.8,462.7c5.8,0.9,5.7-6.4,0-5.5V462.7z"/>
<path d="M393,463.3h-0.7v-6.7c1,0.1,2.8-0.2,3.6,0.4c1.3,0.9,0.5,3.1-1.1,3.1l2,3.2H396l-1.9-3.1H393L393,463.3L393,463.3L393,463.3
	z M393,459.6c3.9,0.5,3.9-2.9,0-2.4L393,459.6L393,459.6z"/>
<path d="M429.2,463.3H425v-0.7c0.6-0.8,3.2-2.9,3.5-3.9c0.6-1.9-2.4-2.4-2.6-0.5l-0.7-0.1c1.2-3.6,8-1.1,0.6,4.6h3.5L429.2,463.3
	L429.2,463.3L429.2,463.3z"/>
<path d="M431.9,459.6L431.9,459.6c2.1-1.2,4.1,1.8,2.4,3.4c-1.3,1.2-3.8,0.4-3.7-1.5c-0.1-1.4,1.8-3.6,2.4-4.7h0.8L431.9,459.6z
	 M431.2,461.4c-0.1,2,3.1,2,3,0C434.3,459.4,431.1,459.4,431.2,461.4z"/>
<path d="M438.2,456.5c3,0.2,3.1,6.9,0,7C435.1,463.3,435.1,456.6,438.2,456.5z M438.2,457c-2.1,0.3-2.1,5.5,0,5.9
	C440.3,462.6,440.3,457.4,438.2,457z"/>
<path d="M441.9,464.6h-0.5l0.6-2.2h0.7L441.9,464.6z"/>
<path d="M446.1,456.5c3,0.2,3.1,6.9,0,7C443.1,463.3,443.1,456.6,446.1,456.5z M446.1,457c-2.1,0.3-2.1,5.5,0,5.9
	C448.2,462.6,448.2,457.4,446.1,457z"/>
<path d="M451.6,456.5c3,0.2,3.1,6.9,0,7C448.5,463.3,448.5,456.6,451.6,456.5z M451.6,457c-2.1,0.3-2.1,5.5,0,5.9
	C453.7,462.6,453.7,457.4,451.6,457z"/>
<path d="M457.1,456.5c3,0.2,3.1,6.9,0,7C454,463.3,454,456.6,457.1,456.5z M457.1,457c-2.1,0.3-2.1,5.5,0,5.9
	C459.2,462.6,459.2,457.4,457.1,457z"/>
<path d="M460.8,464.6h-0.5l0.6-2.2h0.7L460.8,464.6z"/>
<path d="M465,456.5c3,0.2,3.1,6.9,0,7C462,463.3,462,456.6,465,456.5z M465,457c-2.1,0.3-2.1,5.5,0,5.9
	C467.1,462.6,467.1,457.4,465,457z"/>
<path d="M470.5,456.5c3,0.2,3.1,6.9,0,7C467.4,463.3,467.4,456.6,470.5,456.5z M470.5,457c-2.1,0.3-2.1,5.5,0,5.9
	C472.6,462.6,472.6,457.4,470.5,457z"/>
<path d="M476,456.5c3,0.2,3.1,6.9,0,7C472.9,463.3,472.9,456.6,476,456.5z M476,457c-2.1,0.3-2.1,5.5,0,5.9
	C478.1,462.6,478.1,457.4,476,457z"/>
<path d="M236.1,477.9h1l2.9,6.7h-1.4l-0.6-1.5h-2.9l-0.6,1.5h-1.3L236.1,477.9z M237.6,482l-1-2.7l-1.1,2.7H237.6z"/>
<path d="M240.7,477.9h1.6l3.1,5h0v-5h1.2v6.7h-1.5l-3.2-5.2h0v5.2h-1.2C240.7,484.6,240.7,477.9,240.7,477.9z"/>
<path d="M248.1,477.9h1.2v6.7h-1.2V477.9z"/>
<path d="M250.7,477.9h1.9l1.7,4.8h0l1.7-4.8h1.9v6.7h-1.2v-5.4h0l-2,5.4h-0.8l-2-5.4h0v5.4h-1.1
	C250.7,484.6,250.7,477.9,250.7,477.9z"/>
<path d="M261.5,477.9h1l2.9,6.7h-1.4l-0.6-1.5h-2.9l-0.6,1.5h-1.3L261.5,477.9z M263,482l-1-2.7l-1,2.7H263z"/>
<path d="M266.9,479h-2v-1h5.3v1h-2v5.6h-1.2L266.9,479L266.9,479z"/>
<path d="M270.9,477.9h1.2v6.7h-1.2V477.9z"/>
<path d="M273.3,481.2c-0.2-4.6,7.4-4.6,7.2,0C280.7,485.8,273.1,485.8,273.3,481.2z M274.5,481.2c-0.2,3.2,4.8,3.2,4.6,0
	C279.3,478.1,274.4,478.1,274.5,481.2z"/>
<path d="M281.6,477.9h1.6l3.1,5h0v-5h1.2v6.7H286l-3.2-5.2h0v5.2h-1.2L281.6,477.9L281.6,477.9z"/>
<path d="M383.4,484.6h-0.7v-6.7h0.7V484.6z"/>
<path d="M385.1,477.9c7.7-1.2,7.7,7.9,0,6.7V477.9z M385.8,484c5.8,0.9,5.7-6.4,0-5.5V484z"/>
<path d="M393,484.6h-0.7v-6.7c1,0.1,2.8-0.2,3.6,0.4c1.3,0.9,0.5,3.1-1.1,3.1l2,3.2H396l-1.9-3.1H393L393,484.6L393,484.6L393,484.6
	z M393,480.9c3.9,0.5,3.9-2.9,0-2.4L393,480.9L393,480.9z"/>
<path d="M429.2,484.6H425v-0.7c0.6-0.8,3.2-2.9,3.5-3.9c0.6-1.9-2.4-2.4-2.6-0.5l-0.7-0.1c1.2-3.6,8-1.1,0.6,4.6h3.5L429.2,484.6
	L429.2,484.6L429.2,484.6z"/>
<path d="M433.3,484.6h-0.7v-5.9l-1.2,1l-0.4-0.5l1.7-1.4h0.6L433.3,484.6L433.3,484.6z"/>
<path d="M438.2,477.7c3,0.2,3.1,6.9,0,7C435.1,484.6,435.1,477.9,438.2,477.7z M438.2,478.3c-2.1,0.3-2.1,5.5,0,5.9
	C440.3,483.8,440.3,478.7,438.2,478.3z"/>
<path d="M441.9,485.9h-0.5l0.6-2.2h0.7L441.9,485.9z"/>
<path d="M446.1,477.7c3,0.2,3.1,6.9,0,7C443.1,484.6,443.1,477.9,446.1,477.7z M446.1,478.3c-2.1,0.3-2.1,5.5,0,5.9
	C448.2,483.8,448.2,478.7,446.1,478.3z"/>
<path d="M451.6,477.7c3,0.2,3.1,6.9,0,7C448.5,484.6,448.5,477.9,451.6,477.7z M451.6,478.3c-2.1,0.3-2.1,5.5,0,5.9
	C453.7,483.8,453.7,478.7,451.6,478.3z"/>
<path d="M457.1,477.7c3,0.2,3.1,6.9,0,7C454,484.6,454,477.9,457.1,477.7z M457.1,478.3c-2.1,0.3-2.1,5.5,0,5.9
	C459.2,483.8,459.2,478.7,457.1,478.3z"/>
<path d="M460.8,485.9h-0.5l0.6-2.2h0.7L460.8,485.9z"/>
<path d="M465,477.7c3,0.2,3.1,6.9,0,7C462,484.6,462,477.9,465,477.7z M465,478.3c-2.1,0.3-2.1,5.5,0,5.9
	C467.1,483.8,467.1,478.7,465,478.3z"/>
<path d="M470.5,477.7c3,0.2,3.1,6.9,0,7C467.4,484.6,467.5,477.9,470.5,477.7z M470.5,478.3c-2.1,0.3-2.1,5.5,0,5.9
	C472.6,483.8,472.6,478.7,470.5,478.3z"/>
<path d="M476,477.7c3,0.2,3.1,6.9,0,7C472.9,484.6,472.9,477.9,476,477.7z M476,478.3c-2.1,0.3-2.1,5.5,0,5.9
	C478.1,483.8,478.1,478.7,476,478.3z"/>
<path d="M233.2,499.2h1.3l1.9,5.1h0l1.9-5.1h1.3l-2.7,6.7h-1L233.2,499.2z"/>
<path d="M240.2,499.2h1.2v6.7h-1.2V499.2z"/>
<path d="M246.3,500.6c-0.6-1-2.9-0.7-2.3,0.7c0.7,0.9,2.4,0.6,3,1.8c1.2,2.7-3,4-4.5,2l0.9-0.8c2.4,2.2,4.2-1.2,0.5-1.7
	c-3.2-1.9,1.2-5.2,3.3-2.9L246.3,500.6z"/>
<path d="M253.6,503.4c0.2,2.8-4.2,3.6-5.2,1.1c-0.4-0.7-0.1-4.5-0.2-5.3h1.2c0.3,1.3-1,5.9,1.5,5.8c2.5,0.1,1.2-4.5,1.5-5.8h1.2
	L253.6,503.4L253.6,503.4z"/>
<path d="M257,499.2h1l2.9,6.7h-1.4l-0.6-1.5H256l-0.6,1.5h-1.3L257,499.2z M258.5,503.3l-1-2.7l-1,2.7H258.5z"/>
<path d="M261.6,499.2h1.2v5.6h2.9v1.1h-4V499.2L261.6,499.2z"/>
<path d="M268.6,499.2h4.4v1h-3.2v1.7h3.1v1h-3.1v1.9h3.4v1.1h-4.6V499.2L268.6,499.2z"/>
<path d="M274.3,499.2h4.3v1h-3.1v1.8h3v1h-3v2.8h-1.2V499.2z"/>
<path d="M279.7,499.2h4.3v1h-3.1v1.8h3v1h-3v2.8h-1.2V499.2z"/>
<path d="M285.2,499.2h4.4v1h-3.2v1.7h3.1v1h-3.1v1.9h3.4v1.1h-4.6V499.2L285.2,499.2z"/>
<path d="M295.8,500.8c-5.1-3.6-4.8,7.3,0.1,3.4l1,0.7c-7.8,5.6-8.2-10-0.1-4.8L295.8,500.8z"/>
<path d="M298.8,500.2h-2v-1h5.3v1h-2v5.6h-1.2L298.8,500.2L298.8,500.2z"/>
<path d="M383.4,505.9h-0.7v-6.7h0.7V505.9z"/>
<path d="M385.1,499.2c7.7-1.2,7.7,7.9,0,6.7V499.2z M385.8,505.3c5.8,0.9,5.7-6.4,0-5.5V505.3z"/>
<path d="M393,505.9h-0.7v-6.7c1,0.1,2.8-0.2,3.6,0.4c1.3,0.9,0.5,3.1-1.1,3.1l2,3.2H396l-1.9-3.1H393L393,505.9L393,505.9L393,505.9
	z M393,502.2c3.9,0.5,3.9-2.9,0-2.4L393,502.2L393,502.2z"/>
<path d="M427.9,505.9h-0.7V500l-1.2,1l-0.4-0.5l1.7-1.4h0.6L427.9,505.9L427.9,505.9z"/>
<path d="M432.7,499c3,0.2,3.1,6.9,0,7C429.6,505.9,429.6,499.2,432.7,499z M432.7,499.6c-2.1,0.3-2.1,5.5,0,5.9
	C434.8,505.1,434.8,500,432.7,499.6z"/>
<path d="M438.2,499c3,0.2,3.1,6.9,0,7C435.1,505.9,435.1,499.2,438.2,499z M438.2,499.6c-2.1,0.3-2.1,5.5,0,5.9
	C440.3,505.1,440.3,500,438.2,499.6z"/>
<path d="M441.9,507.2h-0.5l0.6-2.2h0.7L441.9,507.2z"/>
<path d="M446.1,499c3,0.2,3.1,6.9,0,7C443.1,505.9,443.1,499.2,446.1,499z M446.1,499.6c-2.1,0.3-2.1,5.5,0,5.9
	C448.2,505.1,448.2,500,446.1,499.6z"/>
<path d="M451.6,499c3,0.2,3.1,6.9,0,7C448.5,505.9,448.5,499.2,451.6,499z M451.6,499.6c-2.1,0.3-2.1,5.5,0,5.9
	C453.7,505.1,453.7,500,451.6,499.6z"/>
<path d="M457.1,499c3,0.2,3.1,6.9,0,7C454,505.9,454,499.2,457.1,499z M457.1,499.6c-2.1,0.3-2.1,5.5,0,5.9
	C459.2,505.1,459.2,500,457.1,499.6z"/>
<path d="M460.8,507.2h-0.5l0.6-2.2h0.7L460.8,507.2z"/>
<path d="M465,499c3,0.2,3.1,6.9,0,7C462,505.9,462,499.2,465,499z M465,499.6c-2.1,0.3-2.1,5.5,0,5.9
	C467.1,505.1,467.1,500,465,499.6z"/>
<path d="M470.5,499c3,0.2,3.1,6.9,0,7C467.4,505.9,467.5,499.2,470.5,499z M470.5,499.6c-2.1,0.3-2.1,5.5,0,5.9
	C472.6,505.1,472.6,500,470.5,499.6z"/>
<path d="M476,499c3,0.2,3.1,6.9,0,7C472.9,505.9,472.9,499.2,476,499z M476,499.6c-2.1,0.3-2.1,5.5,0,5.9
	C478.1,505.1,478.1,500,476,499.6z"/>
<path d="M236.1,520.5h1l2.9,6.7h-1.4l-0.6-1.5h-2.9l-0.6,1.5h-1.3L236.1,520.5z M237.6,524.6l-1-2.7l-1.1,2.7H237.6z"/>
<path d="M245.9,524.7c0.2,2.8-4.2,3.6-5.2,1.1c-0.4-0.7-0.1-4.5-0.2-5.3h1.2c0.3,1.3-1,5.9,1.5,5.8c2.5,0.1,1.2-4.5,1.5-5.8h1.2
	L245.9,524.7L245.9,524.7z"/>
<path d="M247.3,520.5c8.2-1.2,8.1,7.9,0,6.7V520.5z M249.5,526.1c4.2-0.1,2.9-5.6-1-4.6v4.6L249.5,526.1z"/>
<path d="M254.5,520.5h1.2v6.7h-1.2V520.5z"/>
<path d="M256.9,523.8c-0.2-4.6,7.4-4.6,7.2,0C264.3,528.4,256.7,528.4,256.9,523.8z M258.2,523.8c-0.2,3.2,4.8,3.2,4.6,0
	C262.9,520.6,258,520.6,258.2,523.8z"/>
<path d="M383.4,527.1h-0.7v-6.7h0.7V527.1z"/>
<path d="M385.1,520.5c7.7-1.2,7.7,7.9,0,6.7V520.5z M385.8,526.5c5.8,0.9,5.7-6.4,0-5.5V526.5z"/>
<path d="M393,527.1h-0.7v-6.7c1,0.1,2.8-0.2,3.6,0.4c1.3,0.9,0.5,3.1-1.1,3.1l2,3.2H396l-1.9-3.1H393L393,527.1L393,527.1L393,527.1
	z M393,523.4c3.9,0.5,3.9-2.9,0-2.4L393,523.4L393,523.4z"/>
<path d="M427.9,527.1h-0.7v-5.8l-1.2,1l-0.4-0.5l1.7-1.4h0.6L427.9,527.1L427.9,527.1z"/>
<path d="M434.1,524.9h1v0.6h-1v1.6h-0.7v-1.6h-3.1v-0.7l2.8-4.4h0.9V524.9z M433.4,521.2L433.4,521.2l-2.3,3.7h2.4L433.4,521.2
	L433.4,521.2z"/>
<path d="M438.2,520.3c3,0.2,3.1,6.9,0,7C435.1,527.2,435.1,520.4,438.2,520.3z M438.2,520.9c-2.1,0.3-2.1,5.5,0,5.9
	C440.3,526.4,440.3,521.2,438.2,520.9z"/>
<path d="M441.9,528.5h-0.5l0.6-2.2h0.7L441.9,528.5z"/>
<path d="M446.1,520.3c3,0.2,3.1,6.9,0,7C443.1,527.2,443.1,520.4,446.1,520.3z M446.1,520.9c-2.1,0.3-2.1,5.5,0,5.9
	C448.2,526.4,448.2,521.2,446.1,520.9z"/>
<path d="M451.6,520.3c3,0.2,3.1,6.9,0,7C448.5,527.2,448.5,520.4,451.6,520.3z M451.6,520.9c-2.1,0.3-2.1,5.5,0,5.9
	C453.7,526.4,453.7,521.2,451.6,520.9z"/>
<path d="M457.1,520.3c3,0.2,3.1,6.9,0,7C454,527.2,454,520.4,457.1,520.3z M457.1,520.9c-2.1,0.3-2.1,5.5,0,5.9
	C459.2,526.4,459.2,521.2,457.1,520.9z"/>
<path d="M460.8,528.5h-0.5l0.6-2.2h0.7L460.8,528.5z"/>
<path d="M465,520.3c3,0.2,3.1,6.9,0,7C462,527.2,462,520.4,465,520.3z M465,520.9c-2.1,0.3-2.1,5.5,0,5.9
	C467.1,526.4,467.1,521.2,465,520.9z"/>
<path d="M470.5,520.3c3,0.2,3.1,6.9,0,7C467.4,527.2,467.5,520.4,470.5,520.3z M470.5,520.9c-2.1,0.3-2.1,5.5,0,5.9
	C472.6,526.4,472.6,521.2,470.5,520.9z"/>
<path d="M476,520.3c3,0.2,3.1,6.9,0,7C472.9,527.2,472.9,520.4,476,520.3z M476,520.9c-2.1,0.3-2.1,5.5,0,5.9
	C478.1,526.4,478.1,521.2,476,520.9z"/>
<path d="M234,541.7h1.9l1.7,4.8h0l1.7-4.8h1.9v6.7h-1.2V543h0l-2,5.4h-0.8l-2-5.4h0v5.4H234C234,548.4,234,541.7,234,541.7z"/>
<path d="M244.8,541.7h1l2.9,6.7h-1.4l-0.6-1.5h-2.9l-0.6,1.5h-1.3L244.8,541.7z M246.3,545.9l-1-2.7l-1.1,2.7H246.3z"/>
<path d="M249.4,541.7h1.6l3.1,5h0v-5h1.2v6.7h-1.5l-3.2-5.2h0v5.2h-1.2C249.4,548.4,249.4,541.7,249.4,541.7z"/>
<path d="M258.9,541.7h1l2.9,6.7h-1.4l-0.6-1.5h-2.9l-0.6,1.5h-1.3L258.9,541.7z M260.4,545.9l-1-2.7l-1,2.7H260.4z"/>
<path d="M269.1,548.1c-8.3,3.6-7.7-10.1,0-5.7l-0.8,0.9c-4.6-3.4-5.6,6.1-0.3,4v-1.7h-1.4v-1h2.6V548.1z"/>
<path d="M270.6,541.7h4.4v1h-3.2v1.7h3.1v1h-3.1v1.9h3.4v1.1h-4.6V541.7L270.6,541.7z"/>
<path d="M276.3,541.7h1.9l1.7,4.8h0l1.7-4.8h1.9v6.7h-1.2V543h0l-2,5.4h-0.8l-2-5.4h0v5.4h-1.1L276.3,541.7L276.3,541.7z"/>
<path d="M285,541.7h4.4v1h-3.2v1.7h3.1v1h-3.1v1.9h3.4v1.1H285V541.7L285,541.7z"/>
<path d="M290.8,541.7h1.6l3.1,5h0v-5h1.2v6.7h-1.5l-3.2-5.2h0v5.2h-1.2L290.8,541.7L290.8,541.7z"/>
<path d="M299.5,542.8h-2v-1h5.3v1h-2v5.7h-1.2L299.5,542.8L299.5,542.8z"/>
<path d="M383.4,548.4h-0.7v-6.7h0.7V548.4z"/>
<path d="M385.1,541.7c7.7-1.2,7.7,7.9,0,6.7V541.7z M385.8,547.8c5.8,0.9,5.7-6.4,0-5.5V547.8z"/>
<path d="M393,548.4h-0.7v-6.7c1,0.1,2.8-0.2,3.6,0.4c1.3,0.9,0.5,3.1-1.1,3.1l2,3.2H396l-1.9-3.1H393L393,548.4L393,548.4L393,548.4
	z M393,544.7c3.9,0.5,3.9-2.9,0-2.4L393,544.7L393,544.7z"/>
<path d="M427.9,548.4h-0.7v-5.8l-1.2,1l-0.4-0.5l1.7-1.4h0.6L427.9,548.4L427.9,548.4z"/>
<path d="M434.7,548.4h-4.3v-0.7c0.6-0.8,3.2-2.9,3.5-3.9c0.6-1.9-2.4-2.4-2.6-0.5l-0.7-0.1c1.2-3.6,8-1.1,0.6,4.6h3.5L434.7,548.4
	L434.7,548.4L434.7,548.4z"/>
<path d="M438.2,541.5c3,0.2,3.1,6.9,0,7C435.1,548.4,435.1,541.7,438.2,541.5z M438.2,542.1c-2.1,0.3-2.1,5.5,0,5.9
	C440.3,547.6,440.3,542.5,438.2,542.1z"/>
<path d="M441.9,549.7h-0.5l0.6-2.2h0.7L441.9,549.7z"/>
<path d="M446.1,541.5c3,0.2,3.1,6.9,0,7C443.1,548.4,443.1,541.7,446.1,541.5z M446.1,542.1c-2.1,0.3-2.1,5.5,0,5.9
	C448.2,547.6,448.2,542.5,446.1,542.1z"/>
<path d="M451.6,541.5c3,0.2,3.1,6.9,0,7C448.5,548.4,448.5,541.7,451.6,541.5z M451.6,542.1c-2.1,0.3-2.1,5.5,0,5.9
	C453.7,547.6,453.7,542.5,451.6,542.1z"/>
<path d="M457.1,541.5c3,0.2,3.1,6.9,0,7C454,548.4,454,541.7,457.1,541.5z M457.1,542.1c-2.1,0.3-2.1,5.5,0,5.9
	C459.2,547.6,459.2,542.5,457.1,542.1z"/>
<path d="M460.8,549.7h-0.5l0.6-2.2h0.7L460.8,549.7z"/>
<path d="M465,541.5c3,0.2,3.1,6.9,0,7C462,548.4,462,541.7,465,541.5z M465,542.1c-2.1,0.3-2.1,5.5,0,5.9
	C467.1,547.6,467.1,542.5,465,542.1z"/>
<path d="M470.5,541.5c3,0.2,3.1,6.9,0,7C467.4,548.4,467.5,541.7,470.5,541.5z M470.5,542.1c-2.1,0.3-2.1,5.5,0,5.9
	C472.6,547.6,472.6,542.5,470.5,542.1z"/>
<path d="M476,541.5c3,0.2,3.1,6.9,0,7C472.9,548.4,472.9,541.7,476,541.5z M476,542.1c-2.1,0.3-2.1,5.5,0,5.9
	C478.1,547.6,478.1,542.5,476,542.1z"/>
<path d="M234,563h1.9l1.7,4.8h0l1.7-4.8h1.9v6.7h-1.2v-5.4h0l-2,5.4h-0.8l-2-5.4h0v5.4H234C234,569.7,234,563,234,563z"/>
<path d="M244.8,563h1l2.9,6.7h-1.4l-0.6-1.5h-2.9l-0.6,1.5h-1.3L244.8,563z M246.3,567.1l-1-2.7l-1.1,2.7H246.3z"/>
<path d="M249.4,563c1.1,0.1,3.1-0.2,4,0.4c1.3,0.9,0.8,3.1-0.8,3.3l1.8,3H253l-1.6-2.8h-0.9v2.8h-1.2L249.4,563L249.4,563L249.4,563
	z M251.6,565.9c1,0.2,2.1-1,1-1.7c-0.5-0.3-1.4-0.2-2-0.2v1.9L251.6,565.9L251.6,565.9z"/>
<path d="M255.3,563h1.2v2.9h0l2.8-2.9h1.6l-3.1,3.1l3.3,3.6h-1.7l-2.9-3.4h0v3.4h-1.2L255.3,563L255.3,563z"/>
<path d="M261.9,563h4.4v1H263v1.7h3.1v1H263v1.9h3.4v1.1h-4.6L261.9,563L261.9,563z"/>
<path d="M269,564h-2v-1h5.3v1h-2v5.7H269L269,564L269,564z"/>
<path d="M273,563h1.2v6.7H273C273,569.7,273,563,273,563z"/>
<path d="M275.6,563h1.6l3.1,5h0v-5h1.2v6.7H280l-3.2-5.2h0v5.2h-1.2L275.6,563L275.6,563z"/>
<path d="M288.9,569.3c-8.3,3.6-7.7-10.1,0-5.7l-0.8,0.9c-4.6-3.4-5.6,6.1-0.3,4v-1.7h-1.4v-1h2.6V569.3L288.9,569.3z"/>
<path d="M383.4,569.7h-0.7V563h0.7V569.7z"/>
<path d="M385.1,563c7.7-1.2,7.7,7.9,0,6.7V563z M385.8,569.1c5.8,0.9,5.7-6.4,0-5.5V569.1z"/>
<path d="M393,569.7h-0.7V563c1,0.1,2.8-0.2,3.6,0.4c1.3,0.9,0.5,3.1-1.1,3.1l2,3.2H396l-1.9-3.1H393L393,569.7L393,569.7L393,569.7z
	 M393,566c3.9,0.5,3.9-2.9,0-2.4L393,566L393,566z"/>
<path d="M426.5,565.9c3.5,0.3,1.1-4.4-0.8-1.7l-0.6-0.3c1.5-2.9,6,0.8,2.7,2.3v0c3.9,1.5-1.5,6-2.9,2.3l0.6-0.2
	c1.9,3.3,5-2.1,0.9-1.8L426.5,565.9L426.5,565.9z"/>
<path d="M431.9,565.9L431.9,565.9c2.1-1.2,4.1,1.8,2.4,3.4c-1.3,1.2-3.8,0.4-3.7-1.5c-0.1-1.4,1.8-3.6,2.4-4.7h0.8L431.9,565.9z
	 M431.2,567.8c-0.1,2,3.1,2,3,0C434.3,565.8,431.1,565.8,431.2,567.8z"/>
<path d="M438.2,562.8c3,0.2,3.1,6.9,0,7C435.1,569.7,435.1,563,438.2,562.8z M438.2,563.4c-2.1,0.3-2.1,5.5,0,5.9
	C440.3,568.9,440.3,563.8,438.2,563.4z"/>
<path d="M441.9,571h-0.5l0.6-2.2h0.7L441.9,571z"/>
<path d="M446.1,562.8c3,0.2,3.1,6.9,0,7C443.1,569.7,443.1,563,446.1,562.8z M446.1,563.4c-2.1,0.3-2.1,5.5,0,5.9
	C448.2,568.9,448.2,563.8,446.1,563.4z"/>
<path d="M451.6,562.8c3,0.2,3.1,6.9,0,7C448.5,569.7,448.5,563,451.6,562.8z M451.6,563.4c-2.1,0.3-2.1,5.5,0,5.9
	C453.7,568.9,453.7,563.8,451.6,563.4z"/>
<path d="M457.1,562.8c3,0.2,3.1,6.9,0,7C454,569.7,454,563,457.1,562.8z M457.1,563.4c-2.1,0.3-2.1,5.5,0,5.9
	C459.2,568.9,459.2,563.8,457.1,563.4z"/>
<path d="M460.8,571h-0.5l0.6-2.2h0.7L460.8,571z"/>
<path d="M465,562.8c3,0.2,3.1,6.9,0,7C462,569.7,462,563,465,562.8z M465,563.4c-2.1,0.3-2.1,5.5,0,5.9
	C467.1,568.9,467.1,563.8,465,563.4z"/>
<path d="M470.5,562.8c3,0.2,3.1,6.9,0,7C467.4,569.7,467.5,563,470.5,562.8z M470.5,563.4c-2.1,0.3-2.1,5.5,0,5.9
	C472.6,568.9,472.6,563.8,470.5,563.4z"/>
<path d="M476,562.8c3,0.2,3.1,6.9,0,7C472.9,569.7,472.9,563,476,562.8z M476,563.4c-2.1,0.3-2.1,5.5,0,5.9
	C478.1,568.9,478.1,563.8,476,563.4z"/>
<path d="M234,605.5c0.6,0,2.8-0.1,3.4,0.1c1.6,0.3,1.8,2.7,0.1,3.1v0c1.6,0.1,2,2.3,0.7,3.1c-1,0.7-3,0.4-4.1,0.4L234,605.5
	L234,605.5L234,605.5z M235.2,608.2c3,0.4,3.1-2.2,0-1.7L235.2,608.2L235.2,608.2z M235.2,611.2c3.4,0.5,3.5-2.4,0-2L235.2,611.2
	L235.2,611.2z"/>
<path d="M245.5,609.8c0.2,2.8-4.2,3.6-5.2,1.1c-0.4-0.7-0.1-4.5-0.2-5.3h1.2c0.3,1.3-1,5.9,1.5,5.8c2.5,0.1,1.2-4.5,1.5-5.8h1.2
	L245.5,609.8L245.5,609.8z"/>
<path d="M246.9,605.5c8.2-1.2,8.1,7.9,0,6.7V605.5z M249.1,611.2c4.2-0.1,2.9-5.6-1-4.6v4.6L249.1,611.2z"/>
<path d="M260,611.9c-8.3,3.6-7.7-10.1,0-5.7l-0.8,0.9c-4.6-3.4-5.6,6.1-0.3,4v-1.7h-1.4v-1h2.6L260,611.9L260,611.9z"/>
<path d="M261.4,605.5h4.4v1h-3.2v1.7h3.1v1h-3.1v1.9h3.4v1.1h-4.6V605.5L261.4,605.5z"/>
<path d="M268.5,606.6h-2v-1h5.3v1h-2v5.7h-1.2L268.5,606.6L268.5,606.6z"/>
<path d="M275.8,606.6h-2v-1h5.3v1h-2v5.7h-1.2L275.8,606.6L275.8,606.6z"/>
<path d="M279.2,608.9c-0.2-4.6,7.4-4.6,7.2,0C286.6,613.5,279,613.5,279.2,608.9z M280.5,608.9c-0.2,3.2,4.8,3.2,4.6,0
	C285.3,605.7,280.4,605.7,280.5,608.9z"/>
<path d="M288.7,606.6h-2v-1h5.3v1h-2v5.7h-1.2L288.7,606.6L288.7,606.6z"/>
<path d="M294.2,605.5h1l2.9,6.7h-1.4l-0.6-1.5h-2.9l-0.6,1.5h-1.3L294.2,605.5z M295.7,609.7l-1-2.7l-1,2.7H295.7z"/>
<path d="M298.8,605.5h1.2v5.6h2.9v1.1h-4V605.5L298.8,605.5z"/>
<path d="M383.4,612.2h-0.7v-6.7h0.7V612.2z"/>
<path d="M385.1,605.5c7.7-1.2,7.7,7.9,0,6.7V605.5z M385.8,611.6c5.8,0.9,5.7-6.4,0-5.5V611.6z"/>
<path d="M393,612.2h-0.7v-6.7c1,0.1,2.8-0.2,3.6,0.4c1.3,0.9,0.5,3.1-1.1,3.1l2,3.2H396l-1.9-3.1H393L393,612.2L393,612.2L393,612.2
	z M393,608.5c3.9,0.5,3.9-2.9,0-2.4L393,608.5L393,608.5z"/>
<path d="M419.9,612.2h-0.7v-5.8l-1.2,1l-0.4-0.5l1.7-1.4h0.6L419.9,612.2L419.9,612.2z"/>
<path d="M423,613.5h-0.5l0.6-2.2h0.7L423,613.5z"/>
<path d="M429,606.1h-2.8l0,2.1c5.7-1.2,2.2,7.5-1.1,3l0.6-0.3c3.2,3.6,4.3-4.2-0.2-1.9l0.1-3.5h3.4L429,606.1L429,606.1z"/>
<path d="M434.4,606.1h-2.8l0,2.1c5.7-1.2,2.2,7.5-1.1,3l0.6-0.3c3.2,3.6,4.3-4.2-0.2-1.9l0.1-3.5h3.4L434.4,606.1L434.4,606.1z"/>
<path d="M439.9,606.1h-2.8l0,2.1c5.7-1.2,2.2,7.5-1.1,3l0.6-0.3c3.2,3.6,4.3-4.2-0.2-1.9l0.1-3.5h3.4L439.9,606.1L439.9,606.1z"/>
<path d="M441.9,613.5h-0.5l0.6-2.2h0.7L441.9,613.5z"/>
<path d="M446.1,605.4c3,0.2,3.1,6.9,0,7C443.1,612.2,443.1,605.5,446.1,605.4z M446.1,605.9c-2.1,0.3-2.1,5.5,0,5.9
	C448.2,611.4,448.2,606.3,446.1,605.9z"/>
<path d="M451.6,605.4c3,0.2,3.1,6.9,0,7C448.5,612.2,448.5,605.5,451.6,605.4z M451.6,605.9c-2.1,0.3-2.1,5.5,0,5.9
	C453.7,611.4,453.7,606.3,451.6,605.9z"/>
<path d="M457.1,605.4c3,0.2,3.1,6.9,0,7C454,612.2,454,605.5,457.1,605.4z M457.1,605.9c-2.1,0.3-2.1,5.5,0,5.9
	C459.2,611.4,459.2,606.3,457.1,605.9z"/>
<path d="M460.8,613.5h-0.5l0.6-2.2h0.7L460.8,613.5z"/>
<path d="M465,605.4c3,0.2,3.1,6.9,0,7C462,612.2,462,605.5,465,605.4z M465,605.9c-2.1,0.3-2.1,5.5,0,5.9
	C467.1,611.4,467.1,606.3,465,605.9z"/>
<path d="M470.5,605.4c3,0.2,3.1,6.9,0,7C467.4,612.2,467.5,605.5,470.5,605.4z M470.5,605.9c-2.1,0.3-2.1,5.5,0,5.9
	C472.6,611.4,472.6,606.3,470.5,605.9z"/>
<path d="M476,605.4c3,0.2,3.1,6.9,0,7C472.9,612.2,472.9,605.5,476,605.4z M476,605.9c-2.1,0.3-2.1,5.5,0,5.9
	C478.1,611.4,478.1,606.3,476,605.9z"/>
<path d="M234,626.8c0.7,0,2.6-0.1,3.2,0.1c3.3,1.3,0.8,4.5-2,3.8v2.8H234C234,633.5,234,626.8,234,626.8z M236,629.7
	c2.8-0.2,1.3-2.4-0.8-1.9v1.9L236,629.7z"/>
<path d="M239.8,626.8h4.4v1H241v1.7h3.1v1H241v1.9h3.4v1.1h-4.6L239.8,626.8L239.8,626.8z"/>
<path d="M246.9,627.8h-2.1v-1h5.3v1h-2.1v5.7h-1.2L246.9,627.8L246.9,627.8z"/>
<path d="M252.3,627.8h-2.1v-1h5.3v1h-2.1v5.7h-1.2L252.3,627.8L252.3,627.8z"/>
<path d="M257.8,630.6l-2.5-3.8h1.5l1.7,2.8l1.7-2.8h1.4l-2.5,3.8v2.9h-1.2L257.8,630.6L257.8,630.6z"/>
<path d="M269,628.4c-5.1-3.6-4.8,7.3,0.1,3.4l1,0.7c-7.8,5.6-8.2-10-0.1-4.8L269,628.4z"/>
<path d="M272.8,626.8h1l2.9,6.7h-1.4l-0.6-1.5h-2.9l-0.6,1.5h-1.3L272.8,626.8z M274.3,630.9l-1-2.7l-1,2.7H274.3z"/>
<path d="M280.8,628.2c-0.6-1-2.9-0.7-2.3,0.7c0.7,0.9,2.4,0.6,3,1.8c1.2,2.7-3,4-4.5,2l0.9-0.8c2.4,2.2,4.2-1.2,0.5-1.7
	c-3.2-1.9,1.2-5.2,3.3-2.9L280.8,628.2z"/>
<path d="M282.8,626.8h1.2v2.7h3.1v-2.7h1.2v6.7h-1.2v-3H284v3h-1.2V626.8z"/>
<path d="M383.4,633.5h-0.7v-6.7h0.7V633.5z"/>
<path d="M385.1,626.8c7.7-1.2,7.7,7.9,0,6.7V626.8z M385.8,632.9c5.8,0.9,5.7-6.4,0-5.5V632.9z"/>
<path d="M393,633.5h-0.7v-6.7c1,0.1,2.8-0.2,3.6,0.4c1.3,0.9,0.5,3.1-1.1,3.1l2,3.2H396l-1.9-3.1H393L393,633.5L393,633.5L393,633.5
	z M393,629.8c3.9,0.5,3.9-2.9,0-2.4L393,629.8L393,629.8z"/>
<path d="M427.9,633.5h-0.7v-5.8l-1.2,1l-0.4-0.5l1.7-1.4h0.6L427.9,633.5L427.9,633.5z"/>
<path d="M433.6,630c2.2,0.7,1.3,3.9-0.9,3.7c-2.2,0.2-3-3-0.9-3.7v0c-1.8-0.7-1-3.5,0.9-3.3C434.5,626.5,435.3,629.3,433.6,630
	L433.6,630L433.6,630L433.6,630z M431.2,631.7c-0.1,1.9,3,1.9,2.9,0C434.2,629.8,431.1,629.8,431.2,631.7z M431.5,628.5
	c0,1.6,2.5,1.6,2.5,0C434,626.8,431.4,626.8,431.5,628.5z"/>
<path d="M439.1,630c2.2,0.7,1.3,3.9-0.9,3.7c-2.2,0.2-3-3-0.9-3.7v0c-1.8-0.7-1-3.5,0.9-3.3C440,626.5,440.8,629.3,439.1,630
	L439.1,630L439.1,630L439.1,630z M436.7,631.7c-0.1,1.9,3,1.9,2.9,0C439.7,629.8,436.6,629.8,436.7,631.7z M437,628.5
	c0,1.6,2.5,1.6,2.5,0C439.5,626.8,436.9,626.8,437,628.5z"/>
<path d="M441.9,634.8h-0.5l0.6-2.2h0.7L441.9,634.8z"/>
<path d="M446.1,626.6c3,0.2,3.1,6.9,0,7C443.1,633.5,443.1,626.8,446.1,626.6z M446.1,627.2c-2.1,0.3-2.1,5.5,0,5.9
	C448.2,632.7,448.2,627.6,446.1,627.2z"/>
<path d="M451.6,626.6c3,0.2,3.1,6.9,0,7C448.5,633.5,448.5,626.8,451.6,626.6z M451.6,627.2c-2.1,0.3-2.1,5.5,0,5.9
	C453.7,632.7,453.7,627.6,451.6,627.2z"/>
<path d="M457.1,626.6c3,0.2,3.1,6.9,0,7C454,633.5,454,626.8,457.1,626.6z M457.1,627.2c-2.1,0.3-2.1,5.5,0,5.9
	C459.2,632.7,459.2,627.6,457.1,627.2z"/>
<path d="M460.8,634.8h-0.5l0.6-2.2h0.7L460.8,634.8z"/>
<path d="M465,626.6c3,0.2,3.1,6.9,0,7C462,633.5,462,626.8,465,626.6z M465,627.2c-2.1,0.3-2.1,5.5,0,5.9
	C467.1,632.7,467.1,627.6,465,627.2z"/>
<path d="M470.5,626.6c3,0.2,3.1,6.9,0,7C467.4,633.5,467.5,626.8,470.5,626.6z M470.5,627.2c-2.1,0.3-2.1,5.5,0,5.9
	C472.6,632.7,472.6,627.6,470.5,627.2z"/>
<path d="M476,626.6c3,0.2,3.1,6.9,0,7C472.9,633.5,472.9,626.8,476,626.6z M476,627.2c-2.1,0.3-2.1,5.5,0,5.9
	C478.1,632.7,478.1,627.6,476,627.2z"/>
<line class="st5" x1="228.7" y1="407" x2="377.8" y2="407"/>
<line class="st5" x1="377.8" y1="407" x2="483.3" y2="407"/>
<line class="st5" x1="228.7" y1="428.3" x2="377.8" y2="428.3"/>
<line class="st5" x1="377.8" y1="428.3" x2="483.3" y2="428.3"/>
<line class="st5" x1="228.7" y1="449.5" x2="377.8" y2="449.5"/>
<line class="st5" x1="377.8" y1="449.5" x2="483.3" y2="449.5"/>
<line class="st5" x1="228.7" y1="470.8" x2="377.8" y2="470.8"/>
<line class="st5" x1="377.8" y1="470.8" x2="483.3" y2="470.8"/>
<line class="st5" x1="228.7" y1="492.1" x2="377.8" y2="492.1"/>
<line class="st5" x1="377.8" y1="492.1" x2="483.3" y2="492.1"/>
<line class="st5" x1="228.7" y1="513.3" x2="377.8" y2="513.3"/>
<line class="st5" x1="377.8" y1="513.3" x2="483.3" y2="513.3"/>
<line class="st5" x1="228.7" y1="534.6" x2="377.8" y2="534.6"/>
<line class="st5" x1="377.8" y1="534.6" x2="483.3" y2="534.6"/>
<line class="st5" x1="228.7" y1="555.9" x2="377.8" y2="555.9"/>
<line class="st5" x1="377.8" y1="555.9" x2="483.3" y2="555.9"/>
<line class="st5" x1="228.7" y1="577.2" x2="377.8" y2="577.2"/>
<line class="st5" x1="377.8" y1="577.2" x2="483.3" y2="577.2"/>
<line class="st5" x1="228.7" y1="598.4" x2="377.8" y2="598.4"/>
<line class="st5" x1="377.8" y1="598.4" x2="483.3" y2="598.4"/>
<line class="st5" x1="228.7" y1="619.7" x2="377.8" y2="619.7"/>
<line class="st5" x1="377.8" y1="619.7" x2="483.3" y2="619.7"/>
<line class="st5" x1="377.8" y1="385.1" x2="377.8" y2="641.6"/>
<line class="st6" x1="229.1" y1="385.1" x2="229.1" y2="641.6"/>
<line class="st6" x1="482.9" y1="385.1" x2="482.9" y2="641.6"/>
<line class="st6" x1="228.7" y1="385.6" x2="377.8" y2="385.6"/>
<line class="st6" x1="377.8" y1="385.6" x2="483.3" y2="385.6"/>
<line class="st6" x1="228.7" y1="641.1" x2="377.8" y2="641.1"/>
<line class="st6" x1="377.8" y1="641.1" x2="483.3" y2="641.1"/>
<line class="st7" x1="229.1" y1="318" x2="1134.1" y2="318"/>
<path d="M238.7,696.9L238.7,696.9l2.7-6.7h1.2v8h-0.8v-7h0l-2.9,7h-0.4l-2.9-7h0v7h-0.8v-8h1.2L238.7,696.9z"/>
<path d="M252.7,694.3c0.2,5.5-8.6,5.5-8.4,0C244.1,688.8,252.9,688.8,252.7,694.3z M251.8,694.3c0.2-4.6-6.9-4.5-6.7,0
	C245,698.8,252,698.8,251.8,694.3z"/>
<path d="M260.1,697.1L260.1,697.1l0-6.8h0.8v8h-1l-4.7-6.9h0v6.9h-0.8v-8h1L260.1,697.1z"/>
<path d="M265.6,698.3h-0.8V691h-2.7v-0.7h6.2v0.7h-2.7L265.6,698.3L265.6,698.3z"/>
<path d="M269.5,690.2h0.8v3.5h4.4v-3.5h0.8v8h-0.8v-3.8h-4.4v3.8h-0.8V690.2z"/>
<path d="M278.5,697.5h3.7v0.7h-4.6v-8h0.8V697.5z"/>
<path d="M285.2,698.3h-0.8v-3.5l-3-4.6h1l2.4,3.9l2.4-3.9h1l-3,4.6L285.2,698.3L285.2,698.3z"/>
<path d="M299.8,694.3c0.2,5.5-8.6,5.5-8.4,0C291.2,688.8,300,688.8,299.8,694.3z M298.9,694.3c0.2-4.6-6.9-4.5-6.7,0
	C292,698.8,299.1,698.8,298.9,694.3z"/>
<path d="M303.8,697.2L303.8,697.2l2.6-7h0.9l-3.1,8h-0.9l-3.1-8h0.9L303.8,697.2z"/>
<path d="M309.2,697.5h4.3v0.7h-5.1v-8h5v0.7h-4.2v2.8h3.9v0.7h-3.9V697.5z"/>
<path d="M316,698.3h-0.8v-8c1.2,0.1,3.3-0.3,4.3,0.5c1.6,1.1,0.6,3.7-1.3,3.7l2.4,3.8h-1l-2.2-3.8H316L316,698.3L316,698.3z
	 M316,693.8c4.7,0.6,4.6-3.6,0-2.9L316,693.8L316,693.8z"/>
<path d="M321.9,690.2h0.8v3.5h4.4v-3.5h0.8v8h-0.8v-3.8h-4.4v3.8h-0.8V690.2z"/>
<path d="M330.9,697.5h4.3v0.7h-5.1v-8h5v0.7h-4.2v2.8h3.9v0.7h-3.9V697.5z"/>
<path d="M336.7,698.3h-0.9l3.5-8h0.8l3.5,8h-0.9l-0.9-2.1h-4.1L336.7,698.3z M337.9,695.4h3.5l-1.8-4.3L337.9,695.4z"/>
<path d="M344.7,690.2c9.2-1.4,9.2,9.5,0,8V690.2z M345.6,697.5c6.9,1.1,6.9-7.7,0-6.6V697.5z"/>
<rect x="378.5" y="752.7" class="st3" width="104.7" height="21.3"/>
<rect x="378.5" y="795.3" class="st3" width="104.7" height="21.3"/>
<rect x="378.5" y="837.8" class="st3" width="104.7" height="21.3"/>
<rect x="378.5" y="880.3" class="st3" width="104.7" height="21.4"/>
<path d="M238.5,716.8h1.9l1.7,4.8h0l1.7-4.8h1.9v6.7h-1.2v-5.4h0l-2,5.4h-0.8l-2-5.4h0v5.4h-1.1L238.5,716.8L238.5,716.8z"/>
<path d="M246.9,721.2c-0.1-3.1,5-3.1,4.9,0C251.9,724.4,246.8,724.4,246.9,721.2z M248,721.2c-0.1,1.9,2.7,1.9,2.6,0
	C250.8,719.3,247.9,719.3,248,721.2z"/>
<path d="M252.9,719h1.1v0.7h0c0.5-1.3,2.7-1.1,3,0.3c0.2,0.5,0.1,3,0.1,3.5H256c-0.2-0.9,0.6-3.7-0.8-3.7c-1.6,0-0.9,2.8-1.1,3.7
	h-1.1L252.9,719L252.9,719z"/>
<path d="M257.8,719.9V719h0.8v-1.3h1.1v1.3h1.1v0.9h-1.1c0.1,0.8-0.6,3.4,1.1,2.7l0,0.9c-2.5,0.9-2.3-2-2.2-3.6L257.8,719.9
	L257.8,719.9z"/>
<path d="M264.2,718.8c2.3-0.1,1.5,3.3,1.7,4.7h-1.1c-0.2-0.9,0.6-3.7-0.8-3.7c-1.6,0-0.9,2.8-1.1,3.7h-1.1v-7.2h1.1v3.2h0
	C263.1,719.1,263.6,718.8,264.2,718.8z"/>
<path d="M387.8,718.4c-5.1-3.6-4.8,7.3,0.1,3.4l1,0.7c-7.8,5.6-8.2-10-0.1-4.8L387.8,718.4z"/>
<path d="M389.1,721.2c-0.1-3.1,5-3.1,4.9,0C394.2,724.4,389,724.4,389.1,721.2z M390.3,721.2c-0.1,1.9,2.7,1.9,2.6,0
	C393.1,719.3,390.2,719.3,390.3,721.2z"/>
<path d="M397.7,720.2c-0.3-0.5-1.6-0.8-1.7,0c0.3,0.9,1.9,0.4,2.3,1.4c0.9,2.2-2.5,2.7-3.6,1.3l0.8-0.7c0.4,0.9,2.6,0.7,1.6-0.4
	c-0.4-0.2-1.3-0.3-1.7-0.6c-1.7-1.9,2-3.3,3.1-1.7L397.7,720.2z"/>
<path d="M398.7,719.9V719h0.8v-1.3h1.1v1.3h1.1v0.9h-1.1c0.1,0.8-0.6,3.4,1.1,2.7l0,0.9c-2.5,0.9-2.3-2-2.2-3.6L398.7,719.9
	L398.7,719.9z"/>
<path d="M405.1,720.2c-0.3-0.8-2.4-0.5-1.5,0.4c0.4,0.2,1.3,0.3,1.7,0.6c1.9,2-2,3.4-3.3,1.7l0.8-0.7c0.4,0.9,2.6,0.7,1.6-0.4
	c-0.4-0.2-1.3-0.3-1.7-0.6c-1.7-1.9,2-3.3,3.1-1.7L405.1,720.2z"/>
<path d="M241.8,743.1c0.4,2.5-3.4,3.3-4,0.9l1.1-0.3c2.4,3.1,1.6-4.1,1.7-5.1h1.2L241.8,743.1L241.8,743.1L241.8,743.1z"/>
<path d="M245.9,744.7L245.9,744.7c-3.4,2.6-4.7-3,0-2.3c0.1-1.2-1.7-1.1-2.3-0.4l-0.6-0.7c3.6-2.4,4.3,1,3.9,4h-1L245.9,744.7
	L245.9,744.7z M245.9,743.2C241.7,742.9,245.6,746.4,245.9,743.2L245.9,743.2L245.9,743.2z"/>
<path d="M248.3,740.7h1.1v0.7h0c0.5-1.3,2.7-1.1,3,0.3c0.2,0.5,0.1,3,0.1,3.5h-1.1c-0.2-0.9,0.6-3.7-0.8-3.7c-1.6,0-0.9,2.8-1.1,3.7
	h-1.1L248.3,740.7L248.3,740.7z"/>
<path d="M258,745.3h-1.1v-0.7h0c-0.6,1.3-2.7,1.1-3-0.3c-0.2-0.5-0.1-3-0.1-3.5h1.1c0.2,0.9-0.6,3.7,0.8,3.7c1.6,0,0.9-2.8,1.1-3.7
	h1.1L258,745.3L258,745.3L258,745.3z"/>
<path d="M262.1,744.7L262.1,744.7c-3.4,2.6-4.7-3,0-2.3c0.1-1.2-1.7-1.1-2.3-0.4l-0.6-0.7c3.6-2.4,4.3,1,3.9,4h-1.1L262.1,744.7
	L262.1,744.7z M262.1,743.2C257.9,742.9,261.8,746.4,262.1,743.2L262.1,743.2L262.1,743.2z"/>
<path d="M264.5,740.7h1.1v0.8h0c0.3-0.6,0.9-1,1.6-0.9v1c-2.1-0.5-1.5,2.5-1.6,3.6h-1.1L264.5,740.7L264.5,740.7z"/>
<path d="M267.3,740.7h1.3l1.3,3.3h0l1.1-3.3h1.2c-1,1.4-1.7,7.8-4.4,6.7l0.1-1c0.9,0.4,1.2-0.5,1.5-1.2L267.3,740.7z"/>
<path d="M384.1,745.3h-0.7v-6.7h0.7V745.3z"/>
<path d="M385.9,738.6c7.7-1.2,7.7,7.9,0,6.7V738.6z M386.5,744.7c5.8,0.9,5.7-6.4,0-5.5V744.7z"/>
<path d="M393.7,745.3H393v-6.7c1,0.1,2.8-0.2,3.6,0.4c1.3,0.9,0.5,3.1-1.1,3.1l2,3.2h-0.8l-1.9-3.1h-1.1L393.7,745.3L393.7,745.3
	L393.7,745.3z M393.7,741.5c3.9,0.5,3.9-2.9,0-2.4L393.7,741.5L393.7,741.5z"/>
<path d="M428.2,745.3h-0.7v-5.8l-1.2,1l-0.4-0.5l1.7-1.4h0.6L428.2,745.3L428.2,745.3z"/>
<path d="M432.3,741.5c3.5,0.3,1.1-4.4-0.8-1.7l-0.6-0.3c1.5-2.9,6,0.8,2.7,2.3v0c3.9,1.5-1.5,6-2.9,2.3l0.6-0.2
	c1.9,3.3,5-2.1,0.9-1.8L432.3,741.5L432.3,741.5z"/>
<path d="M439.9,743h1v0.6h-1v1.6h-0.7v-1.6h-3.1V743l2.8-4.4h0.9V743z M439.2,739.3L439.2,739.3l-2.3,3.7h2.4L439.2,739.3
	L439.2,739.3z"/>
<path d="M442.2,746.6h-0.5l0.6-2.2h0.7L442.2,746.6z"/>
<path d="M446.5,738.4c3,0.2,3.1,6.9,0,7C443.4,745.3,443.4,738.5,446.5,738.4z M446.5,739c-2.1,0.3-2.1,5.5,0,5.9
	C448.6,744.5,448.6,739.3,446.5,739z"/>
<path d="M451.9,738.4c3,0.2,3.1,6.9,0,7C448.9,745.3,448.9,738.5,451.9,738.4z M451.9,739c-2.1,0.3-2.1,5.5,0,5.9
	C454.1,744.5,454.1,739.3,451.9,739z"/>
<path d="M457.4,738.4c3,0.2,3.1,6.9,0,7C454.4,745.3,454.4,738.5,457.4,738.4z M457.4,739c-2.1,0.3-2.1,5.5,0,5.9
	C459.6,744.5,459.5,739.3,457.4,739z"/>
<path d="M461.1,746.6h-0.5l0.6-2.2h0.7L461.1,746.6z"/>
<path d="M465.4,738.4c3,0.2,3.1,6.9,0,7C462.3,745.3,462.3,738.5,465.4,738.4z M465.4,739c-2.1,0.3-2.1,5.5,0,5.9
	C467.5,744.5,467.5,739.3,465.4,739z"/>
<path d="M470.9,738.4c3,0.2,3.1,6.9,0,7C467.8,745.3,467.8,738.5,470.9,738.4z M470.9,739c-2.1,0.3-2.1,5.5,0,5.9
	C473,744.5,473,739.3,470.9,739z"/>
<path d="M476.3,738.4c3,0.2,3.1,6.9,0,7C473.3,745.3,473.3,738.5,476.3,738.4z M476.3,739c-2.1,0.3-2.1,5.5,0,5.9
	C478.5,744.5,478.4,739.3,476.3,739z"/>
<path d="M238.5,759.8h4.3v1h-3.1v1.8h2.9v1h-2.9v2.8h-1.2V759.8z"/>
<path d="M247.8,764.3c0,0.1,0,0.2,0,0.3h-3.4c0.1,1.2,1.9,1.5,2.5,0.5l0.8,0.6c-1.6,2.2-5.4,0.2-4.2-2.5
	C244.3,761,248.1,761.7,247.8,764.3z M246.6,763.8c0.1-1.5-2.3-1.4-2.3,0L246.6,763.8z"/>
<path d="M250,759.4v3.2h0c5-3.6,4.6,7.2-0.1,3.3h0v0.7h-1.1v-7.2L250,759.4z M252.6,764.2c0.1-1.9-2.7-1.8-2.6,0
	C249.9,766.1,252.7,766.1,252.6,764.2z"/>
<path d="M254.9,762h1.1v0.8h0c0.3-0.6,0.9-1,1.6-0.9v1c-2.1-0.5-1.5,2.5-1.6,3.6h-1.1L254.9,762L254.9,762z"/>
<path d="M262.4,766.5h-1.1v-0.7h0c-0.6,1.3-2.7,1.1-3-0.3c-0.2-0.5-0.1-3-0.1-3.5h1.1c0.2,0.9-0.6,3.7,0.8,3.7
	c1.6,0,0.9-2.8,1.1-3.7h1.1L262.4,766.5L262.4,766.5L262.4,766.5z"/>
<path d="M266.6,766L266.6,766c-3.4,2.6-4.7-3,0-2.3c0.1-1.2-1.7-1.1-2.3-0.4l-0.6-0.7c3.6-2.4,4.3,1,3.9,4h-1.1L266.6,766L266.6,766
	z M266.6,764.5C262.4,764.2,266.3,767.7,266.6,764.5L266.6,764.5L266.6,764.5z"/>
<path d="M269,762h1.1v0.8h0c0.3-0.6,0.9-1,1.6-0.9v1c-2.1-0.5-1.5,2.5-1.6,3.6H269V762L269,762z"/>
<path d="M271.8,762h1.3l1.3,3.3h0l1.1-3.3h1.2c-1,1.4-1.7,7.8-4.4,6.7l0.1-1c0.9,0.4,1.2-0.5,1.5-1.2L271.8,762z"/>
<path d="M384.1,766.5h-0.7v-6.7h0.7V766.5z"/>
<path d="M385.9,759.8c7.7-1.2,7.7,7.9,0,6.7V759.8z M386.5,765.9c5.8,0.9,5.7-6.4,0-5.5V765.9z"/>
<path d="M393.7,766.5H393v-6.7c1,0.1,2.8-0.2,3.6,0.4c1.3,0.9,0.5,3.1-1.1,3.1l2,3.2h-0.8l-1.9-3.1h-1.1L393.7,766.5L393.7,766.5
	L393.7,766.5z M393.7,762.8c3.9,0.5,3.9-2.9,0-2.4L393.7,762.8L393.7,762.8z"/>
<path d="M428.2,766.5h-0.7v-5.8l-1.2,1l-0.4-0.5l1.7-1.4h0.6L428.2,766.5L428.2,766.5z"/>
<path d="M434.4,764.3h1v0.6h-1v1.6h-0.7v-1.6h-3.1v-0.7l2.8-4.4h0.9V764.3z M433.8,760.6L433.8,760.6l-2.3,3.7h2.4L433.8,760.6
	L433.8,760.6z"/>
<path d="M439.9,764.3h1v0.6h-1v1.6h-0.7v-1.6h-3.1v-0.7l2.8-4.4h0.9V764.3z M439.2,760.6L439.2,760.6l-2.3,3.7h2.4L439.2,760.6
	L439.2,760.6z"/>
<path d="M442.2,767.8h-0.5l0.6-2.2h0.7L442.2,767.8z"/>
<path d="M446.5,759.7c3,0.2,3.1,6.9,0,7C443.4,766.5,443.4,759.8,446.5,759.7z M446.5,760.2c-2.1,0.3-2.1,5.5,0,5.9
	C448.6,765.8,448.6,760.6,446.5,760.2z"/>
<path d="M451.9,759.7c3,0.2,3.1,6.9,0,7C448.9,766.5,448.9,759.8,451.9,759.7z M451.9,760.2c-2.1,0.3-2.1,5.5,0,5.9
	C454.1,765.8,454.1,760.6,451.9,760.2z"/>
<path d="M457.4,759.7c3,0.2,3.1,6.9,0,7C454.4,766.5,454.4,759.8,457.4,759.7z M457.4,760.2c-2.1,0.3-2.1,5.5,0,5.9
	C459.6,765.8,459.5,760.6,457.4,760.2z"/>
<path d="M461.1,767.8h-0.5l0.6-2.2h0.7L461.1,767.8z"/>
<path d="M465.4,759.7c3,0.2,3.1,6.9,0,7C462.3,766.5,462.3,759.8,465.4,759.7z M465.4,760.2c-2.1,0.3-2.1,5.5,0,5.9
	C467.5,765.8,467.5,760.6,465.4,760.2z"/>
<path d="M470.9,759.7c3,0.2,3.1,6.9,0,7C467.8,766.5,467.8,759.8,470.9,759.7z M470.9,760.2c-2.1,0.3-2.1,5.5,0,5.9
	C473,765.8,473,760.6,470.9,760.2z"/>
<path d="M476.3,759.7c3,0.2,3.1,6.9,0,7C473.3,766.5,473.3,759.8,476.3,759.7z M476.3,760.2c-2.1,0.3-2.1,5.5,0,5.9
	C478.5,765.8,478.4,760.6,476.3,760.2z"/>
<path d="M238.5,781.1h1.9l1.7,4.8h0l1.7-4.8h1.9v6.7h-1.2v-5.4h0l-2,5.4h-0.8l-2-5.4h0v5.4h-1.1L238.5,781.1L238.5,781.1z"/>
<path d="M250,787.2L250,787.2c-3.4,2.6-4.7-3,0-2.3c0.1-1.2-1.7-1.1-2.3-0.4l-0.6-0.7c3.6-2.4,4.3,1,3.9,4h-1.1L250,787.2L250,787.2
	z M249.9,785.7C245.8,785.5,249.7,788.9,249.9,785.7L249.9,785.7L249.9,785.7z"/>
<path d="M252.3,783.3h1.1v0.8h0c0.3-0.6,0.9-1,1.6-0.9v1c-2.1-0.5-1.5,2.5-1.6,3.6h-1.1L252.3,783.3L252.3,783.3z"/>
<path d="M258.7,784.5c-2.8-2.2-2.8,4.2,0.1,2.1l0.7,0.7c-5.4,3.4-5.2-7,0-3.5L258.7,784.5z"/>
<path d="M262.8,783.1c2.3-0.1,1.5,3.3,1.7,4.7h-1.1c-0.2-0.9,0.6-3.7-0.8-3.7c-1.6,0-0.9,2.8-1.1,3.7h-1.1v-7.2h1.1v3.2h0
	C261.7,783.4,262.2,783.1,262.8,783.1z"/>
<path d="M384.1,787.8h-0.7v-6.7h0.7V787.8z"/>
<path d="M385.9,781.1c7.7-1.2,7.7,7.9,0,6.7V781.1z M386.5,787.2c5.8,0.9,5.7-6.4,0-5.5V787.2z"/>
<path d="M393.7,787.8H393v-6.7c1,0.1,2.8-0.2,3.6,0.4c1.3,0.9,0.5,3.1-1.1,3.1l2,3.2h-0.8l-1.9-3.1h-1.1L393.7,787.8L393.7,787.8
	L393.7,787.8z M393.7,784.1c3.9,0.5,3.9-2.9,0-2.4L393.7,784.1L393.7,784.1z"/>
<path d="M428.2,787.8h-0.7v-5.8l-1.2,1l-0.4-0.5l1.7-1.4h0.6L428.2,787.8L428.2,787.8z"/>
<path d="M435,781.7l-2.7,6.1h-0.8l2.8-6.1H431v-0.6h4L435,781.7L435,781.7z"/>
<path d="M437.7,784L437.7,784c2.1-1.2,4.1,1.8,2.4,3.4c-1.3,1.2-3.8,0.4-3.7-1.5c-0.1-1.4,1.8-3.6,2.4-4.7h0.8L437.7,784z
	 M437,785.9c-0.1,2,3.1,2,3,0C440.1,783.9,436.9,783.9,437,785.9z"/>
<path d="M442.2,789.1h-0.5l0.6-2.2h0.7L442.2,789.1z"/>
<path d="M446.5,780.9c3,0.2,3.1,6.9,0,7C443.4,787.8,443.4,781.1,446.5,780.9z M446.5,781.5c-2.1,0.3-2.1,5.5,0,5.9
	C448.6,787,448.6,781.9,446.5,781.5z"/>
<path d="M451.9,780.9c3,0.2,3.1,6.9,0,7C448.9,787.8,448.9,781.1,451.9,780.9z M451.9,781.5c-2.1,0.3-2.1,5.5,0,5.9
	C454.1,787,454.1,781.9,451.9,781.5z"/>
<path d="M457.4,780.9c3,0.2,3.1,6.9,0,7C454.4,787.8,454.4,781.1,457.4,780.9z M457.4,781.5c-2.1,0.3-2.1,5.5,0,5.9
	C459.6,787,459.5,781.9,457.4,781.5z"/>
<path d="M461.1,789.1h-0.5l0.6-2.2h0.7L461.1,789.1z"/>
<path d="M465.4,780.9c3,0.2,3.1,6.9,0,7C462.3,787.8,462.3,781.1,465.4,780.9z M465.4,781.5c-2.1,0.3-2.1,5.5,0,5.9
	C467.5,787,467.5,781.9,465.4,781.5z"/>
<path d="M470.9,780.9c3,0.2,3.1,6.9,0,7C467.8,787.8,467.8,781.1,470.9,780.9z M470.9,781.5c-2.1,0.3-2.1,5.5,0,5.9
	C473,787,473,781.9,470.9,781.5z"/>
<path d="M476.3,780.9c3,0.2,3.1,6.9,0,7C473.3,787.8,473.3,781.1,476.3,780.9z M476.3,781.5c-2.1,0.3-2.1,5.5,0,5.9
	C478.5,787,478.5,781.9,476.3,781.5z"/>
<path d="M240.6,802.4h1l2.9,6.7h-1.4l-0.6-1.5h-2.9l-0.6,1.5h-1.3L240.6,802.4z M242.1,806.5l-1-2.7l-1.1,2.7H242.1z"/>
<path d="M246.2,804.5v0.6h0c4.8-3.8,4.9,6.9,0,3.3h0v2.9h-1.1v-6.8L246.2,804.5z M248.9,806.8c0.1-1.9-2.7-1.8-2.6,0
	C246.2,808.7,249,808.7,248.9,806.8z"/>
<path d="M251.1,804.5h1.1v0.8h0c0.3-0.6,0.9-1,1.6-0.9v1c-2.1-0.5-1.5,2.5-1.6,3.6h-1.1L251.1,804.5L251.1,804.5z"/>
<path d="M254.4,803c0-0.9,1.5-0.9,1.5,0C255.9,803.9,254.4,803.9,254.4,803z M254.6,804.5h1.1v4.5h-1.1V804.5z"/>
<path d="M257.1,801.9h1.1v7.2h-1.1V801.9z"/>
<path d="M384.1,809.1h-0.7v-6.7h0.7V809.1z"/>
<path d="M385.9,802.4c7.7-1.2,7.7,7.9,0,6.7V802.4z M386.5,808.5c5.8,0.9,5.7-6.4,0-5.5V808.5z"/>
<path d="M393.7,809.1H393v-6.7c1,0.1,2.8-0.2,3.6,0.4c1.3,0.9,0.5,3.1-1.1,3.1l2,3.2h-0.8l-1.9-3.1h-1.1L393.7,809.1L393.7,809.1
	L393.7,809.1z M393.7,805.3c3.9,0.5,3.9-2.9,0-2.4L393.7,805.3L393.7,805.3z"/>
<path d="M429.6,809.1h-4.3v-0.7c0.6-0.8,3.2-2.9,3.5-3.9c0.6-1.9-2.4-2.4-2.6-0.5l-0.7-0.1c1.2-3.6,8-1.1,0.6,4.6h3.5L429.6,809.1
	L429.6,809.1L429.6,809.1z"/>
<path d="M433,802.2c3,0.2,3.1,6.9,0,7C430,809.1,430,802.4,433,802.2z M433,802.8c-2.1,0.3-2.1,5.5,0,5.9
	C435.2,808.3,435.2,803.1,433,802.8z"/>
<path d="M437.8,805.3c3.5,0.3,1.1-4.4-0.8-1.7l-0.6-0.3c1.5-2.9,6,0.8,2.7,2.3v0c3.9,1.5-1.5,6-2.9,2.3l0.6-0.2
	c1.9,3.3,5-2.1,0.9-1.8L437.8,805.3L437.8,805.3z"/>
<path d="M442.2,810.4h-0.5l0.6-2.2h0.7L442.2,810.4z"/>
<path d="M446.5,802.2c3,0.2,3.1,6.9,0,7C443.4,809.1,443.4,802.4,446.5,802.2z M446.5,802.8c-2.1,0.3-2.1,5.5,0,5.9
	C448.6,808.3,448.6,803.1,446.5,802.8z"/>
<path d="M451.9,802.2c3,0.2,3.1,6.9,0,7C448.9,809.1,448.9,802.4,451.9,802.2z M451.9,802.8c-2.1,0.3-2.1,5.5,0,5.9
	C454.1,808.3,454.1,803.1,451.9,802.8z"/>
<path d="M457.4,802.2c3,0.2,3.1,6.9,0,7C454.4,809.1,454.4,802.4,457.4,802.2z M457.4,802.8c-2.1,0.3-2.1,5.5,0,5.9
	C459.6,808.3,459.5,803.1,457.4,802.8z"/>
<path d="M461.1,810.4h-0.5l0.6-2.2h0.7L461.1,810.4z"/>
<path d="M465.4,802.2c3,0.2,3.1,6.9,0,7C462.3,809.1,462.3,802.4,465.4,802.2z M465.4,802.8c-2.1,0.3-2.1,5.5,0,5.9
	C467.5,808.3,467.5,803.1,465.4,802.8z"/>
<path d="M470.9,802.2c3,0.2,3.1,6.9,0,7C467.8,809.1,467.8,802.4,470.9,802.2z M470.9,802.8c-2.1,0.3-2.1,5.5,0,5.9
	C473,808.3,473,803.1,470.9,802.8z"/>
<path d="M476.3,802.2c3,0.2,3.1,6.9,0,7C473.3,809.1,473.3,802.4,476.3,802.2z M476.3,802.8c-2.1,0.3-2.1,5.5,0,5.9
	C478.5,808.3,478.4,803.1,476.3,802.8z"/>
<path d="M238.5,823.6h1.9l1.7,4.8h0l1.7-4.8h1.9v6.7h-1.2V825h0l-2,5.4h-0.8l-2-5.4h0v5.4h-1.1L238.5,823.6L238.5,823.6z"/>
<path d="M250,829.8L250,829.8c-3.4,2.6-4.7-3,0-2.3c0.1-1.2-1.7-1.1-2.3-0.4l-0.6-0.7c3.6-2.4,4.3,1,3.9,4h-1.1L250,829.8L250,829.8
	z M249.9,828.3C245.8,828,249.7,831.5,249.9,828.3L249.9,828.3L249.9,828.3z"/>
<path d="M251.7,825.8h1.3l1.3,3.3h0l1.1-3.3h1.2c-1,1.4-1.7,7.8-4.4,6.7l0.1-1c0.9,0.4,1.2-0.5,1.5-1.2L251.7,825.8z"/>
<path d="M384.1,830.3h-0.7v-6.7h0.7V830.3z"/>
<path d="M385.9,823.6c7.7-1.2,7.7,7.9,0,6.7V823.6z M386.5,829.7c5.8,0.9,5.7-6.4,0-5.5V829.7z"/>
<path d="M393.7,830.3H393v-6.7c1,0.1,2.8-0.2,3.6,0.4c1.3,0.9,0.5,3.1-1.1,3.1l2,3.2h-0.8l-1.9-3.1h-1.1L393.7,830.3L393.7,830.3
	L393.7,830.3z M393.7,826.6c3.9,0.5,3.9-2.9,0-2.4L393.7,826.6L393.7,826.6z"/>
<path d="M428.2,830.3h-0.7v-5.8l-1.2,1l-0.4-0.5l1.7-1.4h0.6L428.2,830.3L428.2,830.3z"/>
<path d="M433.9,826.8c2.2,0.7,1.3,3.9-0.9,3.7c-2.2,0.2-3-3-0.9-3.7v0c-1.8-0.7-1-3.5,0.9-3.3C434.9,823.3,435.7,826.1,433.9,826.8
	L433.9,826.8L433.9,826.8L433.9,826.8z M431.6,828.5c-0.1,1.9,3,1.9,2.9,0C434.6,826.7,431.5,826.7,431.6,828.5z M431.8,825.3
	c0,1.6,2.5,1.6,2.5,0C434.3,823.7,431.7,823.7,431.8,825.3z"/>
<path d="M439.4,826.8c2.2,0.7,1.3,3.9-0.9,3.7c-2.2,0.2-3-3-0.9-3.7v0c-1.8-0.7-1-3.5,0.9-3.3C440.4,823.3,441.2,826.1,439.4,826.8
	L439.4,826.8L439.4,826.8L439.4,826.8z M437.1,828.5c-0.1,1.9,3,1.9,2.9,0C440.1,826.7,437,826.7,437.1,828.5z M437.3,825.3
	c0,1.6,2.5,1.6,2.5,0C439.8,823.7,437.2,823.7,437.3,825.3z"/>
<path d="M442.2,831.7h-0.5l0.6-2.2h0.7L442.2,831.7z"/>
<path d="M446.5,823.5c3,0.2,3.1,6.9,0,7C443.4,830.4,443.4,823.6,446.5,823.5z M446.5,824c-2.1,0.3-2.1,5.5,0,5.9
	C448.6,829.6,448.6,824.4,446.5,824z"/>
<path d="M451.9,823.5c3,0.2,3.1,6.9,0,7C448.9,830.4,448.9,823.6,451.9,823.5z M451.9,824c-2.1,0.3-2.1,5.5,0,5.9
	C454.1,829.6,454.1,824.4,451.9,824z"/>
<path d="M457.4,823.5c3,0.2,3.1,6.9,0,7C454.4,830.4,454.4,823.6,457.4,823.5z M457.4,824c-2.1,0.3-2.1,5.5,0,5.9
	C459.6,829.6,459.5,824.4,457.4,824z"/>
<path d="M461.1,831.7h-0.5l0.6-2.2h0.7L461.1,831.7z"/>
<path d="M465.4,823.5c3,0.2,3.1,6.9,0,7C462.3,830.4,462.3,823.6,465.4,823.5z M465.4,824c-2.1,0.3-2.1,5.5,0,5.9
	C467.5,829.6,467.5,824.4,465.4,824z"/>
<path d="M470.9,823.5c3,0.2,3.1,6.9,0,7C467.8,830.4,467.8,823.6,470.9,823.5z M470.9,824c-2.1,0.3-2.1,5.5,0,5.9
	C473,829.6,473,824.4,470.9,824z"/>
<path d="M476.3,823.5c3,0.2,3.1,6.9,0,7C473.3,830.4,473.3,823.6,476.3,823.5z M476.3,824c-2.1,0.3-2.1,5.5,0,5.9
	C478.5,829.6,478.4,824.4,476.3,824z"/>
<path d="M241.8,849.4c0.4,2.5-3.4,3.3-4,0.9l1.1-0.3c2.4,3.1,1.6-4.1,1.7-5.1h1.2V849.4L241.8,849.4z"/>
<path d="M247.3,851.6h-1.1v-0.7h0c-0.6,1.3-2.7,1.1-3-0.3c-0.2-0.5-0.1-3-0.1-3.5h1.1c0.2,0.9-0.6,3.7,0.8,3.7
	c1.6,0,0.9-2.8,1.1-3.7h1.1L247.3,851.6L247.3,851.6L247.3,851.6z"/>
<path d="M248.7,847.1h1.1v0.7h0c0.5-1.3,2.7-1.1,3,0.3c0.2,0.5,0.1,3,0.1,3.5h-1.1c-0.2-0.9,0.6-3.7-0.8-3.7c-1.6,0-0.9,2.8-1.1,3.7
	h-1.1L248.7,847.1L248.7,847.1z"/>
<path d="M258.5,849.4c0,0.1,0,0.2,0,0.3H255c0.1,1.2,1.9,1.5,2.5,0.5l0.8,0.6c-1.6,2.2-5.4,0.2-4.2-2.5
	C255,846,258.8,846.7,258.5,849.4z M257.4,848.9c0.1-1.5-2.3-1.4-2.3,0L257.4,848.9z"/>
<path d="M384.1,851.6h-0.7v-6.7h0.7V851.6z"/>
<path d="M385.9,844.9c7.7-1.2,7.7,7.9,0,6.7V844.9z M386.5,851c5.8,0.9,5.7-6.4,0-5.5V851z"/>
<path d="M393.7,851.6H393v-6.7c1,0.1,2.8-0.2,3.6,0.4c1.3,0.9,0.5,3.1-1.1,3.1l2,3.2h-0.8l-1.9-3.1h-1.1L393.7,851.6L393.7,851.6
	L393.7,851.6z M393.7,847.9c3.9,0.5,3.9-2.9,0-2.4L393.7,847.9L393.7,847.9z"/>
<path d="M429.6,851.6h-4.3v-0.7c0.6-0.8,3.2-2.9,3.5-3.9c0.6-1.9-2.4-2.4-2.6-0.5l-0.7-0.1c1.2-3.6,8-1.1,0.6,4.6h3.5L429.6,851.6
	L429.6,851.6L429.6,851.6z"/>
<path d="M433,844.7c3,0.2,3.1,6.9,0,7C430,851.6,430,844.9,433,844.7z M433,845.3c-2.1,0.3-2.1,5.5,0,5.9
	C435.2,850.8,435.2,845.7,433,845.3z"/>
<path d="M439.9,849.4h1v0.6h-1v1.6h-0.7V850h-3.1v-0.7l2.8-4.4h0.9V849.4z M439.2,845.7L439.2,845.7l-2.3,3.7h2.4L439.2,845.7
	L439.2,845.7z"/>
<path d="M442.2,852.9h-0.5l0.6-2.2h0.7L442.2,852.9z"/>
<path d="M446.5,844.7c3,0.2,3.1,6.9,0,7C443.4,851.6,443.4,844.9,446.5,844.7z M446.5,845.3c-2.1,0.3-2.1,5.5,0,5.9
	C448.6,850.8,448.6,845.7,446.5,845.3z"/>
<path d="M451.9,844.7c3,0.2,3.1,6.9,0,7C448.9,851.6,448.9,844.9,451.9,844.7z M451.9,845.3c-2.1,0.3-2.1,5.5,0,5.9
	C454.1,850.8,454.1,845.7,451.9,845.3z"/>
<path d="M457.4,844.7c3,0.2,3.1,6.9,0,7C454.4,851.6,454.4,844.9,457.4,844.7z M457.4,845.3c-2.1,0.3-2.1,5.5,0,5.9
	C459.6,850.8,459.5,845.7,457.4,845.3z"/>
<path d="M461.1,852.9h-0.5l0.6-2.2h0.7L461.1,852.9z"/>
<path d="M465.4,844.7c3,0.2,3.1,6.9,0,7C462.3,851.6,462.3,844.9,465.4,844.7z M465.4,845.3c-2.1,0.3-2.1,5.5,0,5.9
	C467.5,850.8,467.5,845.7,465.4,845.3z"/>
<path d="M470.9,844.7c3,0.2,3.1,6.9,0,7C467.8,851.6,467.8,844.9,470.9,844.7z M470.9,845.3c-2.1,0.3-2.1,5.5,0,5.9
	C473,850.8,473,845.7,470.9,845.3z"/>
<path d="M476.3,844.7c3,0.2,3.1,6.9,0,7C473.3,851.6,473.3,844.9,476.3,844.7z M476.3,845.3c-2.1,0.3-2.1,5.5,0,5.9
	C478.5,850.8,478.4,845.7,476.3,845.3z"/>
<path d="M241.8,870.7c0.4,2.5-3.4,3.3-4,0.9l1.1-0.3c2.4,3.1,1.6-4.1,1.7-5.1h1.2L241.8,870.7L241.8,870.7L241.8,870.7z"/>
<path d="M247.3,872.9h-1.1v-0.7h0c-0.6,1.3-2.7,1.1-3-0.3c-0.2-0.5-0.1-3-0.1-3.5h1.1c0.2,0.9-0.6,3.7,0.8,3.7
	c1.6,0,0.9-2.8,1.1-3.7h1.1L247.3,872.9L247.3,872.9L247.3,872.9z"/>
<path d="M248.7,865.7h1.1v7.2h-1.1V865.7z"/>
<path d="M250.5,868.3h1.3l1.3,3.3h0l1.1-3.3h1.2c-1,1.4-1.7,7.8-4.4,6.7l0.1-1c0.9,0.4,1.2-0.5,1.5-1.2L250.5,868.3z"/>
<path d="M384.1,872.9h-0.7v-6.7h0.7V872.9z"/>
<path d="M385.9,866.2c7.7-1.2,7.7,7.9,0,6.7V866.2z M386.5,872.3c5.8,0.9,5.7-6.4,0-5.5V872.3z"/>
<path d="M393.7,872.9H393v-6.7c1,0.1,2.8-0.2,3.6,0.4c1.3,0.9,0.5,3.1-1.1,3.1l2,3.2h-0.8l-1.9-3.1h-1.1L393.7,872.9L393.7,872.9
	L393.7,872.9z M393.7,869.2c3.9,0.5,3.9-2.9,0-2.4L393.7,869.2L393.7,869.2z"/>
<path d="M429.6,872.9h-4.3v-0.7c0.6-0.8,3.2-2.9,3.5-3.9c0.6-1.9-2.4-2.4-2.6-0.5l-0.7-0.1c1.2-3.6,8-1.1,0.6,4.6h3.5L429.6,872.9
	L429.6,872.9L429.6,872.9z"/>
<path d="M433,866c3,0.2,3.1,6.9,0,7C430,872.9,430,866.2,433,866z M433,866.6c-2.1,0.3-2.1,5.5,0,5.9
	C435.2,872.1,435.2,867,433,866.6z"/>
<path d="M439.9,870.7h1v0.6h-1v1.6h-0.7v-1.6h-3.1v-0.7l2.8-4.4h0.9V870.7z M439.2,867L439.2,867l-2.3,3.7h2.4L439.2,867L439.2,867z
	"/>
<path d="M442.2,874.2h-0.5l0.6-2.2h0.7L442.2,874.2z"/>
<path d="M446.5,866c3,0.2,3.1,6.9,0,7C443.4,872.9,443.4,866.2,446.5,866z M446.5,866.6c-2.1,0.3-2.1,5.5,0,5.9
	C448.6,872.1,448.6,867,446.5,866.6z"/>
<path d="M451.9,866c3,0.2,3.1,6.9,0,7C448.9,872.9,448.9,866.2,451.9,866z M451.9,866.6c-2.1,0.3-2.1,5.5,0,5.9
	C454.1,872.1,454.1,866.9,451.9,866.6z"/>
<path d="M457.4,866c3,0.2,3.1,6.9,0,7C454.4,872.9,454.4,866.2,457.4,866z M457.4,866.6c-2.1,0.3-2.1,5.5,0,5.9
	C459.6,872.1,459.5,867,457.4,866.6z"/>
<path d="M461.1,874.2h-0.5l0.6-2.2h0.7L461.1,874.2z"/>
<path d="M465.4,866c3,0.2,3.1,6.9,0,7C462.3,872.9,462.3,866.2,465.4,866z M465.4,866.6c-2.1,0.3-2.1,5.5,0,5.9
	C467.5,872.1,467.5,867,465.4,866.6z"/>
<path d="M470.9,866c3,0.2,3.1,6.9,0,7C467.8,872.9,467.8,866.2,470.9,866z M470.9,866.6c-2.1,0.3-2.1,5.5,0,5.9
	C473,872.1,473,867,470.9,866.6z"/>
<path d="M476.3,866c3,0.2,3.1,6.9,0,7C473.3,872.9,473.3,866.2,476.3,866z M476.3,866.6c-2.1,0.3-2.1,5.5,0,5.9
	C478.5,872.1,478.4,867,476.3,866.6z"/>
<path d="M240.6,887.5h1l2.9,6.7h-1.4l-0.6-1.5h-2.9l-0.6,1.5h-1.3L240.6,887.5z M242.1,891.6l-1-2.7l-1.1,2.7H242.1z"/>
<path d="M249.3,894.2h-1.1v-0.7h0c-0.6,1.3-2.7,1.1-3-0.3c-0.2-0.5-0.1-3-0.1-3.5h1.1c0.2,0.9-0.6,3.7,0.8,3.7
	c1.6,0,0.9-2.8,1.1-3.7h1.1L249.3,894.2L249.3,894.2L249.3,894.2z"/>
<path d="M255.2,889.6c0.3,3.5,0.2,9-4.8,6.1l0.6-0.9c1.2,1.2,3.4,0.7,3-1.3h0c-5,3.5-4.6-7.1,0.1-3.2h0v-0.7L255.2,889.6z
	 M252.8,890.4c-1.7-0.1-1.7,2.9,0,2.9C254.6,893.3,254.6,890.3,252.8,890.4z"/>
<path d="M260.7,894.2h-1.1v-0.7h0c-0.6,1.3-2.7,1.1-3-0.3c-0.2-0.5-0.1-3-0.1-3.5h1.1c0.2,0.9-0.6,3.7,0.8,3.7
	c1.6,0,0.9-2.8,1.1-3.7h1.1L260.7,894.2L260.7,894.2L260.7,894.2z"/>
<path d="M264.6,890.8c-0.3-0.8-2.4-0.5-1.5,0.4c0.4,0.2,1.3,0.3,1.7,0.6c1.9,2-2,3.4-3.3,1.7l0.8-0.7c0.4,0.9,2.6,0.7,1.6-0.4
	c-0.4-0.2-1.3-0.3-1.7-0.6c-1.7-1.9,2-3.3,3.1-1.7L264.6,890.8z"/>
<path d="M265.6,890.5v-0.9h0.8v-1.3h1.1v1.3h1.1v0.9h-1.1c0.1,0.8-0.6,3.4,1.1,2.7l0,0.9c-2.5,0.9-2.3-2-2.2-3.6L265.6,890.5
	L265.6,890.5z"/>
<path d="M384.1,894.2h-0.7v-6.7h0.7V894.2z"/>
<path d="M385.9,887.5c7.7-1.2,7.7,7.9,0,6.7V887.5z M386.5,893.5c5.8,0.9,5.7-6.4,0-5.5V893.5z"/>
<path d="M393.7,894.2H393v-6.7c1,0.1,2.8-0.2,3.6,0.4c1.3,0.9,0.5,3.1-1.1,3.1l2,3.2h-0.8l-1.9-3.1h-1.1L393.7,894.2L393.7,894.2
	L393.7,894.2z M393.7,890.4c3.9,0.5,3.9-2.9,0-2.4L393.7,890.4L393.7,890.4z"/>
<path d="M429.6,894.2h-4.3v-0.7c0.6-0.8,3.2-2.9,3.5-3.9c0.6-1.9-2.4-2.4-2.6-0.5l-0.7-0.1c1.2-3.6,8-1.1,0.6,4.6h3.5L429.6,894.2
	L429.6,894.2L429.6,894.2z"/>
<path d="M433,887.3c3,0.2,3.1,6.9,0,7C430,894.2,430,887.4,433,887.3z M433,887.9c-2.1,0.3-2.1,5.5,0,5.9
	C435.2,893.4,435.2,888.2,433,887.9z"/>
<path d="M439.9,891.9h1v0.6h-1v1.6h-0.7v-1.6h-3.1v-0.7l2.8-4.4h0.9V891.9z M439.2,888.2L439.2,888.2l-2.3,3.7h2.4L439.2,888.2
	L439.2,888.2z"/>
<path d="M442.2,895.5h-0.5l0.6-2.2h0.7L442.2,895.5z"/>
<path d="M446.5,887.3c3,0.2,3.1,6.9,0,7C443.4,894.2,443.4,887.4,446.5,887.3z M446.5,887.9c-2.1,0.3-2.1,5.5,0,5.9
	C448.6,893.4,448.6,888.2,446.5,887.9z"/>
<path d="M451.9,887.3c3,0.2,3.1,6.9,0,7C448.9,894.2,448.9,887.4,451.9,887.3z M451.9,887.9c-2.1,0.3-2.1,5.5,0,5.9
	C454.1,893.4,454.1,888.2,451.9,887.9z"/>
<path d="M457.4,887.3c3,0.2,3.1,6.9,0,7C454.4,894.2,454.4,887.4,457.4,887.3z M457.4,887.9c-2.1,0.3-2.1,5.5,0,5.9
	C459.6,893.4,459.5,888.2,457.4,887.9z"/>
<path d="M461.1,895.5h-0.5l0.6-2.2h0.7L461.1,895.5z"/>
<path d="M465.4,887.3c3,0.2,3.1,6.9,0,7C462.3,894.2,462.3,887.4,465.4,887.3z M465.4,887.9c-2.1,0.3-2.1,5.5,0,5.9
	C467.5,893.4,467.5,888.2,465.4,887.9z"/>
<path d="M470.9,887.3c3,0.2,3.1,6.9,0,7C467.8,894.2,467.8,887.4,470.9,887.3z M470.9,887.9c-2.1,0.3-2.1,5.5,0,5.9
	C473,893.4,473,888.2,470.9,887.9z"/>
<path d="M476.3,887.3c3,0.2,3.1,6.9,0,7C473.3,894.2,473.3,887.4,476.3,887.3z M476.3,887.9c-2.1,0.3-2.1,5.5,0,5.9
	C478.5,893.4,478.4,888.2,476.3,887.9z"/>
<line class="st5" x1="233.2" y1="752.7" x2="378.5" y2="752.7"/>
<line class="st5" x1="378.5" y1="752.7" x2="483.7" y2="752.7"/>
<line class="st5" x1="233.2" y1="774" x2="378.5" y2="774"/>
<line class="st5" x1="378.5" y1="774" x2="483.7" y2="774"/>
<line class="st5" x1="233.2" y1="795.3" x2="378.5" y2="795.3"/>
<line class="st5" x1="378.5" y1="795.3" x2="483.7" y2="795.3"/>
<line class="st5" x1="233.2" y1="816.5" x2="378.5" y2="816.5"/>
<line class="st5" x1="378.5" y1="816.5" x2="483.7" y2="816.5"/>
<line class="st5" x1="233.2" y1="837.8" x2="378.5" y2="837.8"/>
<line class="st5" x1="378.5" y1="837.8" x2="483.7" y2="837.8"/>
<line class="st5" x1="233.2" y1="859.1" x2="378.5" y2="859.1"/>
<line class="st5" x1="378.5" y1="859.1" x2="483.7" y2="859.1"/>
<line class="st5" x1="233.2" y1="880.3" x2="378.5" y2="880.3"/>
<line class="st5" x1="378.5" y1="880.3" x2="483.7" y2="880.3"/>
<line class="st5" x1="378.5" y1="730.8" x2="378.5" y2="902.2"/>
<line class="st8" x1="233.2" y1="731.2" x2="483.7" y2="731.2"/>
<line class="st6" x1="233.6" y1="709.1" x2="233.6" y2="731.2"/>
<line class="st6" x1="233.6" y1="731.2" x2="233.6" y2="902.2"/>
<line class="st6" x1="483.2" y1="709.1" x2="483.2" y2="731.2"/>
<line class="st6" x1="483.2" y1="731.2" x2="483.2" y2="902.2"/>
<line class="st6" x1="233.2" y1="709.6" x2="483.7" y2="709.6"/>
<line class="st6" x1="233.2" y1="901.7" x2="378.5" y2="901.7"/>
<line class="st6" x1="378.5" y1="901.7" x2="483.7" y2="901.7"/>
<path d="M844.1,385.6c0.2,5.5-8.6,5.5-8.4,0C835.5,380.1,844.3,380.1,844.1,385.6z M843.2,385.6c0.2-4.6-6.9-4.5-6.7,0
	C836.4,390.2,843.5,390.1,843.2,385.6z"/>
<path d="M848.2,388.5L848.2,388.5l2.6-7h0.9l-3.1,8h-0.9l-3.1-8h0.9L848.2,388.5z"/>
<path d="M853.6,388.9h4.3v0.7h-5.1v-8h5v0.7h-4.2v2.8h3.9v0.7h-3.9V388.9L853.6,388.9z"/>
<path d="M860.3,389.6h-0.8v-8c1.2,0.1,3.3-0.3,4.3,0.5c1.6,1.1,0.6,3.7-1.3,3.7l2.3,3.8h-1l-2.2-3.8h-1.4L860.3,389.6L860.3,389.6z
	 M860.3,385.2c4.7,0.6,4.6-3.6,0-2.9L860.3,385.2L860.3,385.2z"/>
<path d="M866.3,381.6h0.8v3.5h4.4v-3.5h0.8v8h-0.8v-3.8h-4.4v3.8h-0.8V381.6z"/>
<path d="M875.2,388.9h4.3v0.7h-5.1v-8h5v0.7h-4.2v2.8h3.9v0.7h-3.9V388.9L875.2,388.9z"/>
<path d="M881.1,389.6h-0.9l3.5-8h0.8l3.5,8H887l-0.9-2.1H882L881.1,389.6z M882.3,386.8h3.5l-1.8-4.3L882.3,386.8z"/>
<path d="M889.1,381.6c9.2-1.4,9.2,9.5,0,8.1V381.6z M889.9,388.9c6.9,1.1,6.9-7.7,0-6.6V388.9z"/>
<path d="M901.3,389.6h-0.8v-8h0.8V389.6z"/>
<path d="M909.1,388.4L909.1,388.4l0-6.8h0.8v8h-1l-4.7-6.9h0v6.9h-0.8v-8h1L909.1,388.4z"/>
<path d="M916,382.9c-1.1-1.9-4.8,0-2.8,1.8c1.1,0.7,2.7,0.6,3.4,1.9c1.3,3-3.4,4.5-4.9,2.1l0.7-0.5c2.5,2.9,6.6-1.2,0.2-3
	c-2.6-2.6,2.3-5.3,4.2-2.8L916,382.9z"/>
<path d="M919.3,389.6h-0.8v-8h0.8V389.6z"/>
<path d="M927.5,383c-6.8-4.6-7.7,9.1-0.2,5.6v-2.4h-1.9v-0.7h2.7v3.6c-9.6,4.8-9-12.1-0.1-6.6L927.5,383z"/>
<path d="M930.3,381.6h0.8v3.5h4.4v-3.5h0.8v8h-0.8v-3.8h-4.4v3.8h-0.8V381.6z"/>
<path d="M941,389.6h-0.8v-7.3h-2.7v-0.7h6.2v0.7H941L941,389.6L941,389.6z"/>
<line class="st9" x1="719.3" y1="804.1" x2="1059.6" y2="804.1"/>
<line class="st9" x1="719.3" y1="724.7" x2="1059.6" y2="724.7"/>
<line class="st9" x1="719.3" y1="645.3" x2="1059.6" y2="645.3"/>
<line class="st9" x1="719.3" y1="565.9" x2="1059.6" y2="565.9"/>
<line class="st9" x1="719.3" y1="486.5" x2="1059.6" y2="486.5"/>
<line class="st9" x1="719.3" y1="407.1" x2="1059.6" y2="407.1"/>
<line class="st10" x1="719.3" y1="843.8" x2="1059.6" y2="843.8"/>
<line class="st10" x1="719.3" y1="764.4" x2="1059.6" y2="764.4"/>
<line class="st10" x1="719.3" y1="685" x2="1059.6" y2="685"/>
<line class="st10" x1="719.3" y1="605.6" x2="1059.6" y2="605.6"/>
<line class="st10" x1="719.3" y1="526.2" x2="1059.6" y2="526.2"/>
<line class="st10" x1="719.3" y1="446.8" x2="1059.6" y2="446.8"/>
<path d="M685.9,886.9h-0.7v-6.7h0.7V886.9z"/>
<path d="M687.7,880.2c7.7-1.2,7.7,7.9,0,6.7V880.2z M688.3,886.3c5.8,0.9,5.7-6.4,0-5.5V886.3z"/>
<path d="M695.5,886.9h-0.7v-6.7c1,0.1,2.8-0.2,3.6,0.4c1.3,0.9,0.5,3.1-1.1,3.1l2,3.2h-0.8l-1.8-3.1h-1.1L695.5,886.9L695.5,886.9z
	 M695.5,883.2c3.9,0.5,3.9-2.9,0-2.4L695.5,883.2L695.5,883.2z"/>
<path d="M704.7,880c3,0.2,3.1,6.9,0,7C701.6,886.9,701.6,880.2,704.7,880z M704.7,880.6c-2.1,0.3-2.1,5.5,0,5.9
	C706.8,886.1,706.8,880.9,704.7,880.6z"/>
<path d="M642.6,807.4h-0.7v-6.7h0.7V807.4z"/>
<path d="M644.3,800.7c7.7-1.2,7.7,7.9,0,6.7V800.7z M645,806.8c5.8,0.9,5.7-6.4,0-5.5V806.8z"/>
<path d="M652.2,807.4h-0.7v-6.7c1,0.1,2.8-0.2,3.6,0.4c1.3,0.9,0.5,3.1-1.1,3.1l2,3.2h-0.8l-1.8-3.1h-1.1L652.2,807.4L652.2,807.4
	L652.2,807.4z M652.2,803.7c3.9,0.5,3.9-2.9,0-2.4L652.2,803.7L652.2,803.7z"/>
<path d="M660.7,803.6c3.5,0.3,1.1-4.4-0.8-1.7l-0.6-0.3c1.5-2.9,6,0.8,2.7,2.3v0c3.9,1.5-1.5,6-2.9,2.3l0.6-0.2
	c1.9,3.3,5-2.1,0.9-1.8L660.7,803.6L660.7,803.6z"/>
<path d="M668.6,801.3h-2.8l0,2.1c5.7-1.2,2.2,7.5-1.1,3l0.6-0.3c3.1,3.5,4.4-4.2-0.1-1.9l0.1-3.5h3.4L668.6,801.3L668.6,801.3z"/>
<path d="M671.3,807c0,0.7-1,0.7-1,0C670.3,806.3,671.4,806.3,671.3,807z"/>
<path d="M674.8,800.5c3,0.2,3.1,6.9,0,7C671.7,807.4,671.8,800.7,674.8,800.5z M674.8,801.1c-2.1,0.3-2.1,5.5,0,5.9
	C676.9,806.6,676.9,801.5,674.8,801.1z"/>
<path d="M680.3,800.5c3,0.2,3.1,6.9,0,7C677.2,807.4,677.2,800.7,680.3,800.5z M680.3,801.1c-2.1,0.3-2.1,5.5,0,5.9
	C682.4,806.6,682.4,801.5,680.3,801.1z"/>
<path d="M685.8,800.5c3,0.2,3.1,6.9,0,7C682.7,807.4,682.7,800.7,685.8,800.5z M685.8,801.1c-2.1,0.3-2.1,5.5,0,5.9
	C687.9,806.6,687.9,801.5,685.8,801.1z"/>
<path d="M690.2,807c0,0.7-1,0.7-1,0C689.2,806.3,690.3,806.3,690.2,807z"/>
<path d="M693.7,800.5c3,0.2,3.1,6.9,0,7C690.6,807.4,690.7,800.7,693.7,800.5z M693.7,801.1c-2.1,0.3-2.1,5.5,0,5.9
	C695.8,806.6,695.8,801.5,693.7,801.1z"/>
<path d="M699.2,800.5c3,0.2,3.1,6.9,0,7C696.1,807.4,696.1,800.7,699.2,800.5z M699.2,801.1c-2.1,0.3-2.1,5.5,0,5.9
	C701.3,806.6,701.3,801.5,699.2,801.1z"/>
<path d="M704.7,800.5c3,0.2,3.1,6.9,0,7C701.6,807.4,701.6,800.7,704.7,800.5z M704.7,801.1c-2.1,0.3-2.1,5.5,0,5.9
	C706.8,806.6,706.8,801.5,704.7,801.1z"/>
<path d="M642.6,728h-0.7v-6.7h0.7V728z"/>
<path d="M644.3,721.3c7.7-1.2,7.7,7.9,0,6.7V721.3z M645,727.4c5.8,0.9,5.7-6.4,0-5.5V727.4z"/>
<path d="M652.2,728h-0.7v-6.7c1,0.1,2.8-0.2,3.6,0.4c1.3,0.9,0.5,3.1-1.1,3.1l2,3.2h-0.8l-1.8-3.1h-1.1L652.2,728L652.2,728
	L652.2,728z M652.2,724.2c3.9,0.5,3.9-2.9,0-2.4L652.2,724.2L652.2,724.2z"/>
<path d="M663.3,721.9l-2.7,6.1h-0.8l2.8-6.1h-3.3v-0.6h4L663.3,721.9L663.3,721.9z"/>
<path d="M666.9,721.1c3,0.2,3.1,6.9,0,7C663.8,728,663.8,721.3,666.9,721.1z M666.9,721.7c-2.1,0.3-2.1,5.5,0,5.9
	C669,727.2,669,722,666.9,721.7z"/>
<path d="M671.3,727.5c0,0.7-1,0.7-1,0C670.3,726.8,671.4,726.8,671.3,727.5z"/>
<path d="M674.8,721.1c3,0.2,3.1,6.9,0,7C671.7,728,671.8,721.3,674.8,721.1z M674.8,721.7c-2.1,0.3-2.1,5.5,0,5.9
	C676.9,727.2,676.9,722,674.8,721.7z"/>
<path d="M680.3,721.1c3,0.2,3.1,6.9,0,7C677.2,728,677.2,721.3,680.3,721.1z M680.3,721.7c-2.1,0.3-2.1,5.5,0,5.9
	C682.4,727.2,682.4,722,680.3,721.7z"/>
<path d="M685.8,721.1c3,0.2,3.1,6.9,0,7C682.7,728,682.7,721.3,685.8,721.1z M685.8,721.7c-2.1,0.3-2.1,5.5,0,5.9
	C687.9,727.2,687.9,722,685.8,721.7z"/>
<path d="M690.2,727.5c0,0.7-1,0.7-1,0C689.2,726.8,690.3,726.8,690.2,727.5z"/>
<path d="M693.7,721.1c3,0.2,3.1,6.9,0,7C690.6,728,690.7,721.3,693.7,721.1z M693.7,721.7c-2.1,0.3-2.1,5.5,0,5.9
	C695.8,727.2,695.8,722,693.7,721.7z"/>
<path d="M699.2,721.1c3,0.2,3.1,6.9,0,7C696.1,728,696.1,721.3,699.2,721.1z M699.2,721.7c-2.1,0.3-2.1,5.5,0,5.9
	C701.3,727.2,701.3,722,699.2,721.7z"/>
<path d="M704.7,721.1c3,0.2,3.1,6.9,0,7C701.6,728,701.6,721.3,704.7,721.1z M704.7,721.7c-2.1,0.3-2.1,5.5,0,5.9
	C706.8,727.2,706.8,722,704.7,721.7z"/>
<path d="M637.1,648.5h-0.7v-6.7h0.7V648.5z"/>
<path d="M638.9,641.8c7.7-1.2,7.7,7.9,0,6.7V641.8z M639.5,647.9c5.8,0.9,5.7-6.4,0-5.5V647.9z"/>
<path d="M646.7,648.5H646v-6.7c1,0.1,2.8-0.2,3.6,0.4c1.3,0.9,0.5,3.1-1.1,3.1l2,3.2h-0.8l-1.8-3.1h-1.1L646.7,648.5L646.7,648.5
	L646.7,648.5z M646.7,644.8c3.9,0.5,3.9-2.9,0-2.4L646.7,644.8L646.7,644.8z"/>
<path d="M656.5,648.5h-0.7v-5.8l-1.2,1l-0.4-0.5l1.7-1.4h0.6V648.5L656.5,648.5z"/>
<path d="M661.4,641.7c3,0.2,3.1,6.9,0,7C658.3,648.5,658.3,641.8,661.4,641.7z M661.4,642.2c-2.1,0.3-2.1,5.5,0,5.9
	C663.5,647.7,663.5,642.6,661.4,642.2z"/>
<path d="M668.6,642.4h-2.8l0,2.1c5.7-1.2,2.2,7.5-1.1,3l0.6-0.3c3.2,3.6,4.3-4.2-0.1-1.9l0.1-3.5h3.4L668.6,642.4L668.6,642.4z"/>
<path d="M671.3,648.1c0,0.7-1,0.7-1,0C670.3,647.4,671.4,647.4,671.3,648.1z"/>
<path d="M674.8,641.7c3,0.2,3.1,6.9,0,7C671.7,648.5,671.8,641.8,674.8,641.7z M674.8,642.2c-2.1,0.3-2.1,5.5,0,5.9
	C676.9,647.7,676.9,642.6,674.8,642.2z"/>
<path d="M680.3,641.7c3,0.2,3.1,6.9,0,7C677.2,648.5,677.2,641.8,680.3,641.7z M680.3,642.2c-2.1,0.3-2.1,5.5,0,5.9
	C682.4,647.7,682.4,642.6,680.3,642.2z"/>
<path d="M685.8,641.7c3,0.2,3.1,6.9,0,7C682.7,648.5,682.7,641.8,685.8,641.7z M685.8,642.2c-2.1,0.3-2.1,5.5,0,5.9
	C687.9,647.7,687.9,642.6,685.8,642.2z"/>
<path d="M690.2,648.1c0,0.7-1,0.7-1,0C689.2,647.4,690.3,647.4,690.2,648.1z"/>
<path d="M693.7,641.7c3,0.2,3.1,6.9,0,7C690.6,648.5,690.7,641.8,693.7,641.7z M693.7,642.2c-2.1,0.3-2.1,5.5,0,5.9
	C695.8,647.7,695.8,642.6,693.7,642.2z"/>
<path d="M699.2,641.7c3,0.2,3.1,6.9,0,7C696.1,648.5,696.1,641.8,699.2,641.7z M699.2,642.2c-2.1,0.3-2.1,5.5,0,5.9
	C701.3,647.7,701.3,642.6,699.2,642.2z"/>
<path d="M704.7,641.7c3,0.2,3.1,6.9,0,7C701.6,648.5,701.6,641.8,704.7,641.7z M704.7,642.2c-2.1,0.3-2.1,5.5,0,5.9
	C706.8,647.7,706.8,642.6,704.7,642.2z"/>
<path d="M637.1,569.1h-0.7v-6.7h0.7V569.1z"/>
<path d="M638.9,562.4c7.7-1.2,7.7,7.9,0,6.7V562.4z M639.5,568.5c5.8,0.9,5.7-6.4,0-5.5V568.5z"/>
<path d="M646.7,569.1H646v-6.7c1,0.1,2.8-0.2,3.6,0.4c1.3,0.9,0.5,3.1-1.1,3.1l2,3.2h-0.8l-1.8-3.1h-1.1L646.7,569.1L646.7,569.1
	L646.7,569.1z M646.7,565.3c3.9,0.5,3.9-2.9,0-2.4L646.7,565.3L646.7,565.3z"/>
<path d="M656.5,569.1h-0.7v-5.8l-1.2,1l-0.4-0.5l1.7-1.4h0.6V569.1L656.5,569.1z"/>
<path d="M662.8,566.8h1v0.6h-1v1.6h-0.7v-1.6H659v-0.7l2.8-4.4h0.9L662.8,566.8L662.8,566.8z M662.1,563.1L662.1,563.1l-2.4,3.7h2.4
	L662.1,563.1L662.1,563.1z"/>
<path d="M666.9,562.2c3,0.2,3.1,6.9,0,7C663.8,569.1,663.8,562.4,666.9,562.2z M666.9,562.8c-2.1,0.3-2.1,5.5,0,5.9
	C669,568.3,669,563.1,666.9,562.8z"/>
<path d="M671.3,568.6c0,0.7-1,0.7-1,0C670.3,567.9,671.4,567.9,671.3,568.6z"/>
<path d="M674.8,562.2c3,0.2,3.1,6.9,0,7C671.7,569.1,671.8,562.4,674.8,562.2z M674.8,562.8c-2.1,0.3-2.1,5.5,0,5.9
	C676.9,568.3,676.9,563.1,674.8,562.8z"/>
<path d="M680.3,562.2c3,0.2,3.1,6.9,0,7C677.2,569.1,677.2,562.4,680.3,562.2z M680.3,562.8c-2.1,0.3-2.1,5.5,0,5.9
	C682.4,568.3,682.4,563.1,680.3,562.8z"/>
<path d="M685.8,562.2c3,0.2,3.1,6.9,0,7C682.7,569.1,682.7,562.4,685.8,562.2z M685.8,562.8c-2.1,0.3-2.1,5.5,0,5.9
	C687.9,568.3,687.9,563.1,685.8,562.8z"/>
<path d="M690.2,568.6c0,0.7-1,0.7-1,0C689.2,567.9,690.3,567.9,690.2,568.6z"/>
<path d="M693.7,562.2c3,0.2,3.1,6.9,0,7C690.6,569.1,690.7,562.4,693.7,562.2z M693.7,562.8c-2.1,0.3-2.1,5.5,0,5.9
	C695.8,568.3,695.8,563.1,693.7,562.8z"/>
<path d="M699.2,562.2c3,0.2,3.1,6.9,0,7C696.1,569.1,696.1,562.4,699.2,562.2z M699.2,562.8c-2.1,0.3-2.1,5.5,0,5.9
	C701.3,568.3,701.3,563.1,699.2,562.8z"/>
<path d="M704.7,562.2c3,0.2,3.1,6.9,0,7C701.6,569.1,701.6,562.4,704.7,562.2z M704.7,562.8c-2.1,0.3-2.1,5.5,0,5.9
	C706.8,568.3,706.8,563.1,704.7,562.8z"/>
<path d="M637.1,489.6h-0.7v-6.7h0.7V489.6z"/>
<path d="M638.9,482.9c7.7-1.2,7.7,7.9,0,6.7V482.9z M639.5,489c5.8,0.9,5.7-6.4,0-5.5V489z"/>
<path d="M646.7,489.6H646v-6.7c1,0.1,2.8-0.2,3.6,0.4c1.3,0.9,0.5,3.1-1.1,3.1l2,3.2h-0.8l-1.8-3.1h-1.1L646.7,489.6L646.7,489.6
	L646.7,489.6z M646.7,485.9c3.9,0.5,3.9-2.9,0-2.4L646.7,485.9L646.7,485.9z"/>
<path d="M656.5,489.6h-0.7v-5.9l-1.2,1l-0.4-0.5l1.7-1.4h0.6V489.6L656.5,489.6z"/>
<path d="M663.3,483.5l-2.7,6.1h-0.8l2.8-6.1h-3.3v-0.6h4L663.3,483.5L663.3,483.5z"/>
<path d="M668.6,483.5h-2.8l0,2.1c5.7-1.2,2.2,7.5-1.1,3l0.6-0.3c3.2,3.6,4.3-4.2-0.1-1.9l0.1-3.5h3.4L668.6,483.5L668.6,483.5z"/>
<path d="M671.3,489.1c0,0.7-1,0.7-1,0C670.3,488.5,671.4,488.5,671.3,489.1z"/>
<path d="M674.8,482.8c3,0.2,3.1,6.9,0,7C671.7,489.6,671.8,482.9,674.8,482.8z M674.8,483.3c-2.1,0.3-2.1,5.5,0,5.9
	C676.9,488.8,676.9,483.7,674.8,483.3z"/>
<path d="M680.3,482.8c3,0.2,3.1,6.9,0,7C677.2,489.6,677.2,482.9,680.3,482.8z M680.3,483.3c-2.1,0.3-2.1,5.5,0,5.9
	C682.4,488.8,682.4,483.7,680.3,483.3z"/>
<path d="M685.8,482.8c3,0.2,3.1,6.9,0,7C682.7,489.6,682.7,482.9,685.8,482.8z M685.8,483.3c-2.1,0.3-2.1,5.5,0,5.9
	C687.9,488.8,687.9,483.7,685.8,483.3z"/>
<path d="M690.2,489.1c0,0.7-1,0.7-1,0C689.2,488.5,690.3,488.5,690.2,489.1z"/>
<path d="M693.7,482.8c3,0.2,3.1,6.9,0,7C690.6,489.6,690.7,482.9,693.7,482.8z M693.7,483.3c-2.1,0.3-2.1,5.5,0,5.9
	C695.8,488.8,695.8,483.7,693.7,483.3z"/>
<path d="M699.2,482.8c3,0.2,3.1,6.9,0,7C696.1,489.6,696.1,482.9,699.2,482.8z M699.2,483.3c-2.1,0.3-2.1,5.5,0,5.9
	C701.3,488.8,701.3,483.7,699.2,483.3z"/>
<path d="M704.7,482.8c3,0.2,3.1,6.9,0,7C701.6,489.6,701.6,482.9,704.7,482.8z M704.7,483.3c-2.1,0.3-2.1,5.5,0,5.9
	C706.8,488.8,706.8,483.7,704.7,483.3z"/>
<path d="M637.1,410.2h-0.7v-6.7h0.7V410.2z"/>
<path d="M638.9,403.5c7.7-1.2,7.7,7.9,0,6.7V403.5z M639.5,409.5c5.8,0.9,5.7-6.4,0-5.5V409.5z"/>
<path d="M646.7,410.2H646v-6.7c1,0.1,2.8-0.2,3.6,0.4c1.3,0.9,0.5,3.1-1.1,3.1l2,3.2h-0.8l-1.8-3.1h-1.1L646.7,410.2L646.7,410.2
	L646.7,410.2z M646.7,406.4c3.9,0.5,3.9-2.9,0-2.4L646.7,406.4L646.7,406.4z"/>
<path d="M657.9,410.2h-4.3v-0.7c0.6-0.8,3.2-2.9,3.5-3.9c0.6-1.9-2.4-2.4-2.6-0.5l-0.7-0.1c1.2-3.6,8-1.1,0.6,4.6h3.5L657.9,410.2
	L657.9,410.2L657.9,410.2z"/>
<path d="M662,410.2h-0.7v-5.9l-1.2,1l-0.4-0.5l1.7-1.4h0.6V410.2L662,410.2z"/>
<path d="M666.9,403.3c3,0.2,3.1,6.9,0,7C663.8,410.2,663.8,403.5,666.9,403.3z M666.9,403.9c-2.1,0.3-2.1,5.5,0,5.9
	C669,409.4,669,404.2,666.9,403.9z"/>
<path d="M671.3,409.7c0,0.7-1,0.7-1,0C670.3,409,671.4,409,671.3,409.7z"/>
<path d="M674.8,403.3c3,0.2,3.1,6.9,0,7C671.7,410.2,671.8,403.5,674.8,403.3z M674.8,403.9c-2.1,0.3-2.1,5.5,0,5.9
	C676.9,409.4,676.9,404.2,674.8,403.9z"/>
<path d="M680.3,403.3c3,0.2,3.1,6.9,0,7C677.2,410.2,677.2,403.5,680.3,403.3z M680.3,403.9c-2.1,0.3-2.1,5.5,0,5.9
	C682.4,409.4,682.4,404.2,680.3,403.9z"/>
<path d="M685.8,403.3c3,0.2,3.1,6.9,0,7C682.7,410.2,682.7,403.5,685.8,403.3z M685.8,403.9c-2.1,0.3-2.1,5.5,0,5.9
	C687.9,409.4,687.9,404.2,685.8,403.9z"/>
<path d="M690.2,409.7c0,0.7-1,0.7-1,0C689.2,409,690.3,409,690.2,409.7z"/>
<path d="M693.7,403.3c3,0.2,3.1,6.9,0,7C690.6,410.2,690.7,403.5,693.7,403.3z M693.7,403.9c-2.1,0.3-2.1,5.5,0,5.9
	C695.8,409.4,695.8,404.2,693.7,403.9z"/>
<path d="M699.2,403.3c3,0.2,3.1,6.9,0,7C696.1,410.2,696.1,403.5,699.2,403.3z M699.2,403.9c-2.1,0.3-2.1,5.5,0,5.9
	C701.3,409.4,701.3,404.2,699.2,403.9z"/>
<path d="M704.7,403.3c3,0.2,3.1,6.9,0,7C701.6,410.2,701.6,403.5,704.7,403.3z M704.7,403.9c-2.1,0.3-2.1,5.5,0,5.9
	C706.8,409.4,706.8,404.2,704.7,403.9z"/>
<line class="st11" x1="718.8" y1="883.5" x2="1060.1" y2="883.5"/>
<path d="M732,897.2c0.1,1,1.5,1.3,2,0.5c0.5-0.6,0.2-5,0.2-5.8h0.7c-0.1,1.1,0.3,5.3-0.3,6.2c-0.8,1.2-3,0.8-3.3-0.7L732,897.2z"/>
<path d="M736.6,898.5h-0.8l2.9-6.7h0.7l2.9,6.7h-0.8l-0.7-1.8h-3.5L736.6,898.5z M737.6,896.1h3l-1.5-3.6L737.6,896.1z"/>
<path d="M748,897.5L748,897.5l0-5.7h0.7v6.7h-0.8l-3.9-5.8h0v5.8h-0.7v-6.7h0.8L748,897.5z"/>
<path d="M776.1,898.5h-0.7v-6.7h4v0.6h-3.4v2.3h3.1v0.6h-3.1V898.5L776.1,898.5z"/>
<path d="M781.4,897.9h3.6v0.6h-4.3v-6.7h4.2v0.6h-3.5v2.3h3.2v0.6h-3.2L781.4,897.9L781.4,897.9z"/>
<path d="M786.3,891.8c0.9,0.1,2.6-0.2,3.5,0.4c1.1,0.7,0.8,2.6-0.5,2.8v0c2,0.1,2,3.1,0.1,3.4c-0.6,0.2-2.3,0.1-3,0.1L786.3,891.8
	L786.3,891.8z M787,894.8c3.7,0.6,3.7-2.9,0-2.4L787,894.8L787,894.8z M787,897.9c4.1,0.6,4.2-3.2,0-2.6L787,897.9L787,897.9z"/>
<path d="M819.4,897.4L819.4,897.4l2.2-5.5h1v6.7H822v-5.8h0l-2.4,5.8h-0.4l-2.4-5.8h0v5.8h-0.7v-6.7h1L819.4,897.4z"/>
<path d="M824.5,898.5h-0.8l2.9-6.7h0.7l2.9,6.7h-0.8l-0.7-1.8h-3.5L824.5,898.5z M825.4,896.1h3l-1.5-3.6L825.4,896.1z"/>
<path d="M831.8,898.5h-0.7v-6.7c1,0.1,2.8-0.2,3.6,0.4c1.3,0.9,0.5,3.1-1.1,3.1l2,3.2h-0.8l-1.8-3.1h-1.1L831.8,898.5L831.8,898.5z
	 M831.8,894.8c3.9,0.5,3.9-2.9,0-2.4L831.8,894.8L831.8,894.8z"/>
<path d="M860.1,898.5h-0.8l2.9-6.7h0.7l2.9,6.7H865l-0.7-1.8h-3.5L860.1,898.5z M861.1,896.1h3l-1.5-3.6L861.1,896.1z"/>
<path d="M866.8,891.8c4.9-0.9,6,4,0.7,3.6v3.1h-0.7V891.8z M867.5,894.8c3.7,0.6,3.7-3,0-2.4L867.5,894.8L867.5,894.8z"/>
<path d="M873,898.5h-0.7v-6.7c1,0.1,2.8-0.2,3.6,0.4c1.3,0.9,0.5,3.1-1.1,3.1l2,3.2h-0.8l-1.8-3.1H873L873,898.5L873,898.5z
	 M873,894.8c3.9,0.5,3.9-2.9,0-2.4L873,894.8L873,894.8z"/>
<path d="M904.9,897.4L904.9,897.4l2.2-5.5h1v6.7h-0.7v-5.8h0l-2.4,5.8h-0.4l-2.4-5.8h0v5.8h-0.7v-6.7h1L904.9,897.4z"/>
<path d="M909.9,898.5h-0.8l2.9-6.7h0.7l2.9,6.7h-0.8l-0.7-1.8h-3.5L909.9,898.5z M910.9,896.1h3l-1.5-3.6L910.9,896.1z"/>
<path d="M918.3,898.5h-0.7v-2.9l-2.5-3.8h0.8l2,3.2l2-3.2h0.8l-2.5,3.8L918.3,898.5L918.3,898.5z"/>
<path d="M944.9,897.2c0.1,1,1.5,1.3,2,0.5c0.5-0.6,0.2-5,0.2-5.8h0.7c-0.1,1.1,0.3,5.3-0.3,6.2c-0.8,1.2-3,0.8-3.3-0.7L944.9,897.2z
	"/>
<path d="M952.1,898.7c-3.5,0.2-2.3-4.8-2.5-6.9h0.7c0.3,1.6-1,6.3,1.8,6.3c2.8,0.1,1.6-4.6,1.8-6.3h0.7
	C954.4,893.9,955.6,898.9,952.1,898.7z"/>
<path d="M961.1,897.5L961.1,897.5l0-5.7h0.7v6.7h-0.8l-3.9-5.8h0v5.8h-0.7v-6.7h0.8L961.1,897.5z"/>
<path d="M988.7,897.2c0.1,1,1.5,1.3,2,0.5c0.5-0.6,0.2-5,0.2-5.8h0.7c-0.1,1.1,0.3,5.3-0.3,6.2c-0.8,1.2-3,0.8-3.3-0.7L988.7,897.2z
	"/>
<path d="M995.9,898.7c-3.5,0.2-2.3-4.8-2.5-6.9h0.7c0.3,1.6-1,6.3,1.8,6.3c2.8,0.1,1.6-4.6,1.8-6.3h0.7
	C998.2,893.9,999.4,898.9,995.9,898.7z"/>
<path d="M1000.8,897.9h3.1v0.6h-3.8v-6.7h0.7V897.9L1000.8,897.9z"/>
<path d="M1029.1,898.5h-0.8l2.9-6.7h0.7l2.9,6.7h-0.8l-0.7-1.8h-3.5L1029.1,898.5z M1030.1,896.1h2.9l-1.5-3.6L1030.1,896.1z"/>
<path d="M1038.1,898.7c-3.5,0.2-2.3-4.8-2.5-6.9h0.7c0.3,1.6-1,6.3,1.8,6.3c2.8,0.1,1.6-4.6,1.8-6.3h0.7
	C1040.5,893.9,1041.7,898.9,1038.1,898.7z"/>
<path d="M1047.4,893c-5.7-3.9-6.5,7.6-0.1,4.6v-2h-1.6V895h2.2v3c-8,4-7.5-10.1-0.1-5.5L1047.4,893z"/>
<line class="st12" x1="518.4" y1="923.7" x2="518.4" y2="356.9"/>
<text transform="matrix(1 0 0 1 225.9995 263.3145)" class="st13 st14">SUMMARY - FINANCING FORECAST</text>
<linearGradient id="SVGID_1_" gradientUnits="userSpaceOnUse" x1="936.8599" y1="-5838.6182" x2="700.9422" y2="-5992.7925" gradientTransform="matrix(1 0 0 1 0 6702)">
	<stop  offset="0" style="stop-color:#F46764"/>
	<stop  offset="0.5376" style="stop-color:#FB7C62"/>
	<stop  offset="1" style="stop-color:#FF8961"/>
</linearGradient>
<path class="st15" d="M740.1,579.6c8.4,0,15.1,6.8,15.1,15.1c0,0,0,288.3,0,288.3h-30.2V594.7C724.9,586.4,731.7,579.6,740.1,579.6z
	"/>
<linearGradient id="SVGID_2_" gradientUnits="userSpaceOnUse" x1="955.8552" y1="-5865.335" x2="719.4871" y2="-6019.8037" gradientTransform="matrix(1 0 0 1 0 6702)">
	<stop  offset="0" style="stop-color:#F46764"/>
	<stop  offset="0.5376" style="stop-color:#FB7C62"/>
	<stop  offset="1" style="stop-color:#FF8961"/>
</linearGradient>
<path class="st16" d="M782.6,556.9c8.4,0,15.1,6.8,15.1,15.1c0,0,0,311,0,311h-30.2V572C767.5,563.7,774.3,556.9,782.6,556.9z"/>
<linearGradient id="SVGID_3_" gradientUnits="userSpaceOnUse" x1="986.4636" y1="-5909.7368" x2="749.1226" y2="-6064.8413" gradientTransform="matrix(1 0 0 1 0 6702)">
	<stop  offset="0" style="stop-color:#F46764"/>
	<stop  offset="0.5376" style="stop-color:#FB7C62"/>
	<stop  offset="1" style="stop-color:#FF8961"/>
</linearGradient>
<path class="st17" d="M825.6,484.1c8.6,0,15.6,7,15.6,15.6c0,0,0,383.3,0,383.3H810V499.7C810,491.1,817,484.1,825.6,484.1z"/>
<linearGradient id="SVGID_4_" gradientUnits="userSpaceOnUse" x1="1014.1581" y1="-5950.2681" x2="775.938" y2="-6105.9468" gradientTransform="matrix(1 0 0 1 0 6702)">
	<stop  offset="0" style="stop-color:#F46764"/>
	<stop  offset="0.5376" style="stop-color:#FB7C62"/>
	<stop  offset="1" style="stop-color:#FF8961"/>
</linearGradient>
<path class="st18" d="M867.7,422.6c8.7-0.5,16.1,6.4,16.1,15.1c0,0,0,445.3,0,445.3h-31.2V437.8
	C852.6,429.4,859.3,422.6,867.7,422.6z"/>
<linearGradient id="SVGID_5_" gradientUnits="userSpaceOnUse" x1="1019.6653" y1="-5957.3447" x2="781.9795" y2="-6112.6743" gradientTransform="matrix(1 0 0 1 0 6702)">
	<stop  offset="0" style="stop-color:#F46764"/>
	<stop  offset="0.5376" style="stop-color:#FB7C62"/>
	<stop  offset="1" style="stop-color:#FF8961"/>
</linearGradient>
<path class="st19" d="M910.7,456.7c8.6,0,15.6,7,15.6,15.6c0,0,0,410.8,0,410.8h-31.2V472.3C895.1,463.7,902.1,456.7,910.7,456.7z"
	/>
<linearGradient id="SVGID_6_" gradientUnits="userSpaceOnUse" x1="1041.4355" y1="-5989.2881" x2="803.2108" y2="-6144.9697" gradientTransform="matrix(1 0 0 1 0 6702)">
	<stop  offset="0" style="stop-color:#F46764"/>
	<stop  offset="0.5376" style="stop-color:#FB7C62"/>
	<stop  offset="1" style="stop-color:#FF8961"/>
</linearGradient>
<path class="st20" d="M953.7,420.8c8.4,0,15.1,6.8,15.1,15.1c0,0,0,447.2,0,447.2h-30.2V435.9C938.6,427.5,945.4,420.8,953.7,420.8z
	"/>
<linearGradient id="SVGID_7_" gradientUnits="userSpaceOnUse" x1="1054.7917" y1="-6008.3662" x2="816.567" y2="-6164.0483" gradientTransform="matrix(1 0 0 1 0 6702)">
	<stop  offset="0" style="stop-color:#F46764"/>
	<stop  offset="0.5376" style="stop-color:#FB7C62"/>
	<stop  offset="1" style="stop-color:#FF8961"/>
</linearGradient>
<path class="st21" d="M996.3,420.8c8.4,0,15.1,6.8,15.1,15.1c0,0,0,447.2,0,447.2h-30.2V435.9C981.1,427.5,987.9,420.8,996.3,420.8z
	"/>
<linearGradient id="SVGID_8_" gradientUnits="userSpaceOnUse" x1="1068.1448" y1="-6027.4404" x2="829.9201" y2="-6183.1221" gradientTransform="matrix(1 0 0 1 0 6702)">
	<stop  offset="0" style="stop-color:#F46764"/>
	<stop  offset="0.5376" style="stop-color:#FB7C62"/>
	<stop  offset="1" style="stop-color:#FF8961"/>
</linearGradient>
<path class="st22" d="M1038.8,420.8c8.4,0,15.1,6.8,15.1,15.1c0,0,0,447.2,0,447.2h-30.2V435.9
	C1023.7,427.5,1030.4,420.8,1038.8,420.8z"/>
</svg>
