<?xml version="1.0" encoding="utf-8"?>
<!-- Generator: Adobe Illustrator 24.3.0, SVG Export Plug-In . SVG Version: 6.00 Build 0)  -->
<svg version="1.1" id="Layer_1" xmlns="http://www.w3.org/2000/svg" xmlns:xlink="http://www.w3.org/1999/xlink" x="0px" y="0px"
	 viewBox="0 0 1000 1000" style="enable-background:new 0 0 1000 1000;" xml:space="preserve">
<style type="text/css">
	.st0{fill:#E4E8EC;}
	.st1{fill:#F9DCC7;}
	.st2{fill:#EFBB97;}
	.st3{fill:#171819;}
	.st4{fill:#F9E26E;}
	.st5{fill:#E5C84E;}
</style>
<ellipse class="st0" cx="495.9" cy="869.8" rx="258.3" ry="45.2"/>
<path class="st1" d="M437.4,272.5L362,511l-91.8,62.8L284.6,731l158.7-85c32.5-17.4,52.8-51.2,52.9-88.1l0.7-276.5
	c0-16.8-13.5-30.4-30.3-30.4c0,0-0.1,0-0.1,0l0,0C453.1,251,441.3,259.7,437.4,272.5z"/>
<path class="st2" d="M466.5,251c-7.1,0-13.9,2.5-19.4,7c16.6,0.3,29.9,13.8,29.8,30.4l-0.7,276.5c-0.1,36.9-20.4,70.7-52.9,88.1
	l-139.1,74.5l0.3,3.5l158.7-85c32.5-17.4,52.8-51.2,52.9-88.1l0.7-276.5C496.9,264.7,483.3,251,466.5,251
	C466.5,251,466.5,251,466.5,251z"/>
<path class="st3" d="M284.6,734c-1.6,0-2.8-1.2-3-2.7l-14.4-157.2c-0.1-1.1,0.4-2.1,1.3-2.8l91-62.2l75.1-237.5
	c5.4-17.6,24-27.5,41.6-22.2c14.1,4.3,23.7,17.3,23.6,32l-0.7,276.5c-0.1,38-21,72.9-54.5,90.8l-158.7,85
	C285.5,733.9,285.1,734,284.6,734z M273.3,575.3l13.8,150.9l154.7-82.8c31.6-16.9,51.3-49.7,51.3-85.5l0.7-276.5
	c0-15.1-12.2-27.4-27.3-27.4c-12.1,0-22.7,7.8-26.2,19.4c0,0,0,0,0,0l-75.5,238.5c-0.2,0.6-0.6,1.2-1.2,1.6L273.3,575.3z
	 M437.4,272.5L437.4,272.5z"/>
<path class="st4" d="M341.3,545.8l23.1,69.6c4.9,14.9,7.3,30.5,7,46.2l-0.9,48.4c-0.2,9.7-6,18.3-14.8,22.1l-153,66.4l-53.4-215.3
	l150.4-57.2c16.5-6.3,35,2,41.3,18.5C341,544.9,341.2,545.3,341.3,545.8z"/>
<path class="st5" d="M364.4,615.4l-23.1-69.6c-3.7-11.2-13.3-19.5-24.9-21.5l19.3,58.2c4.9,14.9,7.3,30.5,7,46.2l-0.9,48.4
	c-0.2,9.7-6,18.3-14.8,22.1l-134.4,58.4l10.2,40.9l153-66.4c8.9-3.8,14.6-12.5,14.8-22.1l0.9-48.4
	C371.7,645.8,369.3,630.2,364.4,615.4z"/>
<path class="st3" d="M202.7,801.4c-1.4,0-2.6-0.9-2.9-2.3l-53.4-215.3c-0.4-1.5,0.4-3,1.8-3.5l150.4-57.2
	c18.1-6.9,38.3,2.2,45.2,20.3c0.2,0.5,0.3,0.9,0.5,1.4l23.1,69.6c5,15.2,7.5,31.1,7.1,47.2l-0.9,48.4c-0.2,10.8-6.7,20.5-16.6,24.8
	l-153,66.4C203.5,801.3,203.1,801.4,202.7,801.4z M152.8,585l51.9,209.3l149.7-65c7.8-3.4,12.9-11,13-19.5l0.9-48.4
	c0.3-15.3-2-30.6-6.8-45.2l-23.1-69.6l0,0c-5-15.2-21.4-23.4-36.7-18.4c-0.4,0.1-0.8,0.3-1.2,0.4L152.8,585z"/>
<path class="st2" d="M472.2,391.9L472.2,391.9c-7.2,0-14,3.2-18.6,8.8c12.9,0.5,23.1,11.1,23.1,24V533h19.5V415.8
	C496.2,402.6,485.5,391.9,472.2,391.9L472.2,391.9z"/>
<path class="st3" d="M496.2,536c-1.7,0-3-1.3-3-3V415.8c0-11.6-9.4-21-21-21c-9.5,0-17.8,6.4-20.3,15.6l-28.3,105.3
	c-0.4,1.6-2.1,2.6-3.7,2.1s-2.6-2.1-2.1-3.7l0,0l28.3-105.3c3.8-14.4,18.6-23,33-19.1c11.8,3.2,20,13.8,20,26.1V533
	C499.2,534.7,497.9,536,496.2,536z"/>
<path class="st1" d="M556.2,272.5L631.7,511l91.8,62.8L709.1,731l-158.7-85c-32.5-17.4-52.8-51.2-52.9-88.1l-0.7-276.5
	c0-16.8,13.5-30.4,30.3-30.4c0,0,0,0,0.1,0l0,0C540.6,251,552.3,259.7,556.2,272.5z"/>
<path class="st2" d="M527.2,251c7.1,0,13.9,2.5,19.4,7c-16.6,0.3-29.9,13.8-29.8,30.4l0.7,276.5c0.1,36.9,20.4,70.7,52.9,88.1
	l139.1,74.5l-0.3,3.5l-158.7-85c-32.5-17.4-52.8-51.2-52.9-88.1l-0.7-276.5C496.8,264.7,510.4,251,527.2,251
	C527.1,251,527.2,251,527.2,251z"/>
<path class="st3" d="M709.1,734c-0.5,0-1-0.1-1.4-0.4l-158.7-85c-33.5-17.9-54.4-52.8-54.5-90.8l-0.7-276.5
	c0-18.4,14.9-33.4,33.3-33.4c14.7,0,27.7,9.6,32,23.6l75.1,237.5l91,62.2c0.9,0.6,1.4,1.7,1.3,2.8l-14.4,157.2
	C712,732.8,710.7,734,709.1,734z M527.2,254c-15.1,0-27.4,12.2-27.4,27.4c0,0,0,0,0,0.1l0.7,276.5c0.1,35.8,19.8,68.6,51.3,85.5
	l154.7,82.8l13.8-150.9L630,513.5c-0.6-0.4-1-0.9-1.2-1.6l-75.5-238.5l0,0C549.9,261.8,539.3,254,527.2,254z"/>
<path class="st4" d="M652.3,545.8l-23.1,69.6c-4.9,14.9-7.3,30.5-7,46.2l0.9,48.4c0.2,9.7,6,18.3,14.8,22.1l153,66.4l53.4-215.3
	l-150.4-57.2c-16.5-6.3-35,2-41.3,18.5C652.7,544.9,652.5,545.3,652.3,545.8z"/>
<path class="st5" d="M629.3,615.4l23.1-69.6c3.7-11.2,13.3-19.5,24.9-21.5L658,582.5c-4.9,14.9-7.3,30.5-7,46.2l0.9,48.4
	c0.2,9.7,6,18.3,14.8,22.1l134.4,58.4L791,798.4l-153-66.4c-8.9-3.8-14.7-12.5-14.8-22.1l-0.9-48.4
	C622,645.8,624.4,630.2,629.3,615.4z"/>
<path class="st3" d="M791,801.4c-0.4,0-0.8-0.1-1.2-0.2l-153-66.4c-9.9-4.3-16.4-14-16.6-24.8l-0.9-48.4c-0.3-16,2.1-32,7.1-47.2
	l23.1-69.6c6.1-18.3,25.9-28.3,44.2-22.2c0.5,0.2,1,0.3,1.4,0.5l150.4,57.2c1.4,0.5,2.2,2.1,1.8,3.5l-53.4,215.3
	C793.6,800.5,792.4,801.4,791,801.4z M652.3,545.8l2.8,0.9l-23.1,69.6c-4.8,14.6-7.1,29.8-6.8,45.2l0.9,48.4
	c0.2,8.5,5.3,16.1,13,19.5l149.7,65L840.9,585L693,528.7c-15-5.7-31.7,1.8-37.4,16.8c-0.1,0.4-0.3,0.8-0.4,1.2L652.3,545.8z"/>
<path class="st2" d="M521.5,391.9L521.5,391.9c7.2,0,14,3.2,18.6,8.8c-12.9,0.5-23.1,11.1-23.1,24V533h-19.5V415.8
	C497.5,402.6,508.2,391.9,521.5,391.9z"/>
<path class="st3" d="M497.5,536c-1.7,0-3-1.3-3-3V415.8c0-14.9,12.1-27,27-27c12.2,0,22.9,8.2,26.1,20l28.3,105.3
	c0.4,1.6-0.5,3.2-2.1,3.7c-1.6,0.4-3.2-0.5-3.7-2.1l-28.3-105.3c-3-11.2-14.5-17.9-25.7-14.9c-9.2,2.4-15.6,10.8-15.6,20.3V533
	C500.5,534.7,499.1,536,497.5,536z"/>
</svg>
