<?xml version="1.0" encoding="utf-8"?>
<!-- Generator: Adobe Illustrator 24.3.0, SVG Export Plug-In . SVG Version: 6.00 Build 0)  -->
<svg version="1.1" xmlns="http://www.w3.org/2000/svg" xmlns:xlink="http://www.w3.org/1999/xlink" x="0px" y="0px"
	 viewBox="0 0 800 800" style="enable-background:new 0 0 800 800;" xml:space="preserve">
<style type="text/css">
	.st0{fill:#353535;}
	.st1{fill:#EDB74C;}
</style>
<g id="Layer_1">
</g>
<g id="Layer_2">
	<rect x="-16" y="-17" class="st0" width="832" height="833"/>
	<g>
		<g>
			<path class="st1" d="M220.6,534.5c-0.4-0.1-16.3-5-35.3-15.9c3.4-4.2,9.8-15.2-1.8-29.6c0,0-8.8,14.8-3.5,26.4
				c-6.8-4.2-13.7-9.1-20.5-14.8c2-2,13.3-14.3-0.3-31.2c0,0-10.5,17.5-1.7,29.4c-8.7-7.7-16.9-16.8-23.3-27.3c3.3-1.5,17-9,10.8-29
				c0,0-15.6,12.1-12.5,26.1c-3.7-6.5-6.8-13.6-9-21.2c-0.8-2.8-1.5-5.6-2.1-8.4c4.4-0.9,18.1-5.3,17.2-25.2c0,0-15.8,6.7-18.4,19.2
				c-1.9-11-2.5-21.6-2-31.6c5,0.7,16.2,0.4,22-15c0,0-14.6,0-21.5,8.7c0.9-10,2.8-19.3,5.3-28c4,1.6,16.2,4.8,25.3-10.3
				c0,0-15.9-3-24,5.7c3.5-10.9,7.7-20.5,11.9-28.4c4.3,2.5,15,6.5,26-5.8c0,0-13.2-5.3-22.8-0.1c5.9-10.3,11.2-17,12.7-18.9
				c1.7-2.1,3.5-4,5.3-5.9c2.7,1.9,14.8,9.1,27.5-4.8c0,0-12.3-4.9-21.8-0.6c6-5.4,12.4-10,18.3-13.8c3.9,2.4,15,7.3,26.5-5.4
				c0,0-5.9-2.4-12.6-2.4c6.4-3.2,10.7-4.8,10.8-4.9l-1.7-4.6c-1.1,0.4-22.6,8.5-42.3,25.4c3.4-5.7,7.4-17.9-6.2-31.6
				c0,0-12.1,25.7,2.9,34.5c-3.7,3.4-7.2,7-10.5,11c-3,3.7-6,7.7-8.9,12.2c1.9-7.6,1-18.2-10.5-29.7c0,0-14.5,30.8,3.8,41.1
				c-3.2,5.8-6.1,12.1-8.8,18.7c-0.5-7.4-4.1-16.2-15.9-24.2c0,0-8.1,32.1,10.8,39.3c-2,6.7-3.6,13.7-4.7,20.9
				c-1.4-7.5-6.3-16.5-20.5-22.6c0,0-2.1,34.3,18.9,36.8c-0.6,9-0.4,18.3,0.7,27.7c-3.9-8.1-12.8-17.7-32.9-17.6
				c0,0,12.6,35.1,34.7,29.3c0.7,3.6,1.6,7.1,2.6,10.7c0.9,3.2,2,6.2,3.2,9.2c-6.3-5.8-16.8-10.3-33.6-5.9c0,0,20.6,30,40.3,19.9
				c4.4,7.5,9.6,14.3,15.2,20.4c-8-3.2-19.6-3.9-33.9,6.5c0,0,30,20.3,44.7,4c4.7,4.1,9.6,7.9,14.5,11.2
				c-8.4-1.4-19.7,0.4-31.5,13.2c0,0,33.3,13.9,44.6-4.9c19.9,11.5,36.5,16.6,36.9,16.7L220.6,534.5z"/>
			<path class="st1" d="M579.4,534.5c0.4-0.1,16.3-5,35.3-15.9c-3.4-4.2-9.8-15.2,1.8-29.6c0,0,8.8,14.8,3.5,26.4
				c6.8-4.2,13.7-9.1,20.5-14.8c-2-2-13.3-14.3,0.3-31.2c0,0,10.5,17.5,1.7,29.4c8.7-7.7,16.9-16.8,23.3-27.3c-3.3-1.5-17-9-10.8-29
				c0,0,15.6,12.1,12.5,26.1c3.7-6.5,6.8-13.6,9-21.2c0.8-2.8,1.5-5.6,2.1-8.4c-4.4-0.9-18.1-5.3-17.2-25.2c0,0,15.8,6.7,18.4,19.2
				c1.9-11,2.5-21.6,2-31.6c-5,0.7-16.2,0.4-22-15c0,0,14.6,0,21.5,8.7c-0.9-10-2.8-19.3-5.3-28c-4,1.6-16.2,4.8-25.3-10.3
				c0,0,15.9-3,24,5.7c-3.5-10.9-7.7-20.5-11.9-28.4c-4.3,2.5-15,6.5-26-5.8c0,0,13.2-5.3,22.8-0.1c-5.9-10.3-11.2-17-12.7-18.9
				c-1.7-2.1-3.5-4-5.3-5.9c-2.7,1.9-14.8,9.1-27.5-4.8c0,0,12.3-4.9,21.8-0.6c-6-5.4-12.4-10-18.3-13.8c-3.9,2.4-15,7.3-26.5-5.4
				c0,0,5.9-2.4,12.6-2.4c-6.4-3.2-10.7-4.8-10.8-4.9l1.7-4.6c1.1,0.4,22.6,8.5,42.3,25.4c-3.3-5.7-7.4-17.9,6.2-31.6
				c0,0,12.1,25.7-2.9,34.5c3.7,3.4,7.2,7,10.5,11c3,3.7,6,7.7,8.9,12.2c-1.9-7.6-1-18.2,10.5-29.7c0,0,14.5,30.8-3.8,41.1
				c3.2,5.8,6.1,12.1,8.8,18.7c0.5-7.4,4.1-16.2,15.9-24.2c0,0,8.1,32.1-10.8,39.3c2,6.7,3.6,13.7,4.7,20.9
				c1.4-7.5,6.3-16.5,20.5-22.6c0,0,2.1,34.3-18.9,36.8c0.6,9,0.4,18.3-0.7,27.7c3.9-8.1,12.8-17.7,32.9-17.6
				c0,0-12.6,35.1-34.7,29.3c-0.7,3.6-1.6,7.1-2.6,10.7c-0.9,3.2-2,6.2-3.2,9.2c6.3-5.8,16.8-10.3,33.6-5.9c0,0-20.6,30-40.3,19.9
				c-4.4,7.5-9.6,14.3-15.2,20.4c8-3.2,19.6-3.9,33.9,6.5c0,0-30,20.3-44.7,4c-4.7,4.1-9.6,7.9-14.5,11.2
				c8.4-1.4,19.7,0.4,31.5,13.2c0,0-33.3,13.9-44.6-4.9c-19.9,11.5-36.5,16.6-36.9,16.7L579.4,534.5z"/>
		</g>
		<g>
			<path class="st1" d="M209.1,388.4c-0.3-0.3-0.4-0.6-0.4-1.1v-22.2c0-0.4,0.1-0.8,0.4-1c0.3-0.3,0.6-0.4,1.1-0.4h8.4
				c2.6,0,4.7,0.6,6.1,1.9c1.5,1.3,2.2,3.1,2.2,5.4c0,2.3-0.7,4.2-2.2,5.5s-3.5,1.9-6.1,1.9h-7v8.9c0,0.4-0.1,0.8-0.4,1.1
				c-0.3,0.3-0.6,0.4-1.1,0.4C209.8,388.8,209.4,388.7,209.1,388.4z M224.1,371c0-3.3-1.9-4.9-5.7-4.9h-6.7v9.9h6.7
				C222.2,376,224.1,374.3,224.1,371z"/>
			<path class="st1" d="M232,388.4c-0.3-0.3-0.4-0.6-0.4-1.1v-22.2c0-0.4,0.1-0.8,0.4-1c0.3-0.3,0.6-0.4,1.1-0.4H246
				c0.4,0,0.8,0.1,1,0.3c0.2,0.2,0.4,0.5,0.4,0.9c0,0.4-0.1,0.7-0.4,0.9c-0.2,0.2-0.6,0.3-1,0.3h-11.5v8.6h10.8c0.4,0,0.8,0.1,1,0.3
				c0.2,0.2,0.4,0.5,0.4,0.9c0,0.4-0.1,0.7-0.4,0.9s-0.6,0.3-1,0.3h-10.8v10.2c0,0.4-0.1,0.8-0.4,1.1c-0.2,0.3-0.6,0.4-1,0.4
				C232.6,388.8,232.2,388.7,232,388.4z"/>
			<path class="st1" d="M271,363.9c0.2,0.3,0.4,0.6,0.4,1.1v22.4c0,0.4-0.1,0.8-0.4,1.1c-0.2,0.3-0.6,0.4-1,0.4s-0.8-0.2-1.2-0.6
				l-14.7-19.7v18.8c0,0.4-0.1,0.8-0.4,1.1c-0.2,0.3-0.6,0.4-1,0.4s-0.8-0.1-1-0.4c-0.2-0.3-0.4-0.6-0.4-1.1V365
				c0-0.4,0.1-0.8,0.4-1.1s0.6-0.4,1-0.4c0.5,0,0.9,0.2,1.2,0.6l14.7,19.7V365c0-0.4,0.1-0.8,0.4-1.1s0.6-0.4,1-0.4
				S270.7,363.6,271,363.9z"/>
			<path class="st1" d="M277.1,374.5c-0.4-0.4-0.6-0.8-0.6-1.4s0.2-1.1,0.6-1.4s0.9-0.5,1.4-0.5c0.5,0,1,0.2,1.4,0.5
				s0.5,0.8,0.5,1.4s-0.2,1.1-0.5,1.4s-0.8,0.5-1.4,0.5C277.9,375,277.5,374.8,277.1,374.5z M277.1,388.3c-0.4-0.4-0.6-0.8-0.6-1.4
				c0-0.6,0.2-1.1,0.6-1.5c0.4-0.4,0.9-0.6,1.4-0.6c0.5,0,1,0.2,1.4,0.6c0.4,0.4,0.5,0.9,0.5,1.5c0,0.6-0.2,1.1-0.5,1.4
				c-0.4,0.4-0.8,0.5-1.4,0.5C277.9,388.8,277.5,388.6,277.1,388.3z"/>
			<path class="st1" d="M315.1,363.9c0.2,0.3,0.4,0.6,0.4,1.1v22.4c0,0.4-0.1,0.8-0.4,1.1c-0.2,0.3-0.6,0.4-1,0.4
				c-0.4,0-0.8-0.1-1.1-0.4c-0.3-0.3-0.4-0.6-0.4-1.1v-10.1h-14.9v10.1c0,0.4-0.1,0.8-0.4,1.1c-0.3,0.3-0.6,0.4-1.1,0.4
				s-0.8-0.1-1-0.4c-0.2-0.3-0.4-0.6-0.4-1.1V365c0-0.4,0.1-0.8,0.4-1.1s0.6-0.4,1-0.4s0.8,0.1,1.1,0.4s0.4,0.6,0.4,1.1v9.7h14.9
				V365c0-0.4,0.1-0.8,0.4-1.1s0.6-0.4,1.1-0.4C314.5,363.5,314.8,363.6,315.1,363.9z"/>
			<path class="st1" d="M324,387.8c-1.2-0.7-2.2-1.8-2.9-3.1c-0.7-1.4-1-2.9-1-4.7c0-1.8,0.3-3.4,1-4.7c0.7-1.4,1.6-2.4,2.9-3.1
				c1.2-0.7,2.7-1.1,4.3-1.1c1.6,0,3.1,0.4,4.3,1.1c1.3,0.7,2.2,1.8,2.9,3.1c0.7,1.4,1,2.9,1,4.7c0,1.8-0.3,3.4-1,4.7
				c-0.7,1.4-1.6,2.4-2.9,3.1c-1.3,0.7-2.7,1.1-4.3,1.1C326.7,388.9,325.3,388.5,324,387.8z M332.2,384.8c0.9-1.1,1.4-2.8,1.4-4.9
				c0-2.1-0.5-3.7-1.4-4.9c-0.9-1.1-2.2-1.7-3.9-1.7c-1.7,0-3,0.6-3.9,1.7c-0.9,1.1-1.4,2.8-1.4,4.9c0,2.1,0.5,3.8,1.4,4.9
				c0.9,1.1,2.2,1.7,3.9,1.7S331.3,386,332.2,384.8z"/>
			<path class="st1" d="M355.7,377.8v9.6c0,0.4-0.1,0.8-0.4,1c-0.2,0.2-0.6,0.4-1,0.4c-0.4,0-0.8-0.1-1.1-0.4
				c-0.3-0.2-0.4-0.6-0.4-1V378c0-1.6-0.3-2.8-0.9-3.5c-0.6-0.7-1.6-1.1-3-1.1c-1.6,0-2.8,0.5-3.8,1.5c-0.9,1-1.4,2.3-1.4,3.9v8.6
				c0,0.4-0.1,0.8-0.4,1c-0.2,0.2-0.6,0.4-1,0.4s-0.8-0.1-1.1-0.4c-0.3-0.2-0.4-0.6-0.4-1v-14.9c0-0.4,0.1-0.8,0.4-1
				s0.6-0.4,1.1-0.4c0.4,0,0.8,0.1,1,0.4s0.4,0.6,0.4,1v1.8c0.6-1.1,1.4-1.9,2.4-2.4c1-0.6,2.2-0.8,3.5-0.8
				C353.6,371,355.7,373.2,355.7,377.8z"/>
			<path class="st1" d="M363.8,387.8c-1.2-0.7-2.2-1.8-2.9-3.1c-0.7-1.4-1-2.9-1-4.7c0-1.8,0.3-3.4,1-4.7c0.7-1.4,1.6-2.4,2.9-3.1
				c1.2-0.7,2.7-1.1,4.3-1.1c1.6,0,3.1,0.4,4.3,1.1c1.3,0.7,2.2,1.8,2.9,3.1c0.7,1.4,1,2.9,1,4.7c0,1.8-0.3,3.4-1,4.7
				c-0.7,1.4-1.6,2.4-2.9,3.1c-1.3,0.7-2.7,1.1-4.3,1.1C366.5,388.9,365,388.5,363.8,387.8z M372,384.8c0.9-1.1,1.4-2.8,1.4-4.9
				c0-2.1-0.5-3.7-1.4-4.9c-0.9-1.1-2.2-1.7-3.9-1.7c-1.7,0-3,0.6-3.9,1.7c-0.9,1.1-1.4,2.8-1.4,4.9c0,2.1,0.5,3.8,1.4,4.9
				c0.9,1.1,2.2,1.7,3.9,1.7S371.1,386,372,384.8z"/>
			<path class="st1" d="M390.6,372.2c0,0.4-0.1,0.7-0.3,0.9c-0.2,0.2-0.6,0.4-1.1,0.4l-1.1,0.1c-1.6,0.1-2.8,0.7-3.5,1.7
				c-0.8,1-1.2,2.1-1.2,3.5v8.6c0,0.5-0.1,0.8-0.4,1.1c-0.3,0.2-0.6,0.4-1,0.4c-0.4,0-0.8-0.1-1-0.4c-0.3-0.2-0.4-0.6-0.4-1v-14.9
				c0-0.4,0.1-0.8,0.4-1c0.3-0.2,0.6-0.4,1-0.4c0.4,0,0.7,0.1,1,0.4c0.3,0.2,0.4,0.6,0.4,1v2c0.5-1,1.2-1.8,2.1-2.4
				c0.9-0.5,2-0.9,3.1-1l0.5,0C390.1,371,390.6,371.4,390.6,372.2z"/>
			<path class="st1" d="M406.5,377.8v9.6c0,0.4-0.1,0.8-0.4,1c-0.2,0.3-0.6,0.4-1,0.4s-0.8-0.1-1-0.4c-0.3-0.3-0.4-0.6-0.4-1v-1.7
				c-0.4,1-1.1,1.8-2.1,2.4c-0.9,0.6-2,0.8-3.2,0.8c-1.1,0-2.1-0.2-3.1-0.7c-0.9-0.4-1.7-1.1-2.2-1.9c-0.5-0.8-0.8-1.7-0.8-2.7
				c0-1.3,0.3-2.3,1-3c0.7-0.7,1.7-1.2,3.3-1.6c1.5-0.3,3.6-0.5,6.3-0.5h0.8v-1.2c0-1.4-0.3-2.5-0.9-3.1c-0.6-0.7-1.5-1-2.8-1
				c-1.6,0-3.2,0.4-4.9,1.3c-0.6,0.4-1.1,0.6-1.3,0.6c-0.3,0-0.5-0.1-0.7-0.3c-0.2-0.2-0.3-0.5-0.3-0.8c0-0.3,0.1-0.6,0.3-0.9
				c0.2-0.2,0.5-0.5,1-0.8c0.8-0.5,1.8-0.8,2.8-1.1c1.1-0.3,2.1-0.4,3.1-0.4C404.3,371,406.5,373.2,406.5,377.8z M402.3,385.2
				c0.9-1,1.4-2.2,1.4-3.7v-1h-0.6c-2.1,0-3.7,0.1-4.7,0.3c-1.1,0.2-1.9,0.5-2.3,0.9c-0.5,0.4-0.7,1-0.7,1.8c0,0.9,0.3,1.7,1,2.3
				c0.7,0.6,1.5,0.9,2.5,0.9C400.3,386.6,401.4,386.1,402.3,385.2z"/>
			<path class="st1" d="M424.4,372.1c1.2,0.7,2.1,1.8,2.7,3.1c0.6,1.3,1,2.9,1,4.7c0,1.8-0.3,3.4-1,4.7c-0.6,1.4-1.5,2.4-2.7,3.2
				c-1.2,0.8-2.5,1.1-4,1.1c-1.3,0-2.5-0.3-3.5-0.9c-1-0.6-1.8-1.4-2.3-2.5v1.9c0,0.4-0.1,0.8-0.4,1c-0.2,0.3-0.6,0.4-1,0.4
				s-0.8-0.1-1.1-0.4c-0.3-0.3-0.4-0.6-0.4-1v-22.5c0-0.4,0.1-0.7,0.4-1s0.6-0.4,1.1-0.4s0.8,0.1,1,0.4s0.4,0.6,0.4,1v9.5
				c0.5-1.1,1.3-1.9,2.3-2.5c1-0.6,2.2-0.9,3.5-0.9C421.9,371,423.3,371.3,424.4,372.1z M423.8,384.8c0.9-1.2,1.4-2.8,1.4-4.9
				c0-2.1-0.5-3.6-1.4-4.8c-0.9-1.1-2.2-1.7-3.9-1.7s-3,0.6-3.9,1.7c-0.9,1.1-1.4,2.8-1.4,4.9c0,2.1,0.5,3.7,1.4,4.9
				c0.9,1.1,2.2,1.7,3.9,1.7S422.8,385.9,423.8,384.8z"/>
			<path class="st1" d="M432.8,388.4c-0.3-0.2-0.4-0.6-0.4-1v-22.5c0-0.4,0.1-0.8,0.4-1s0.6-0.4,1-0.4c0.4,0,0.7,0.1,1,0.4
				s0.4,0.6,0.4,1v22.5c0,0.4-0.1,0.8-0.4,1c-0.3,0.2-0.6,0.4-1,0.4C433.4,388.8,433,388.7,432.8,388.4z"/>
			<path class="st1" d="M454.6,385c0.2,0.2,0.3,0.5,0.3,0.8c0,0.6-0.4,1.1-1.2,1.6c-0.8,0.5-1.7,0.9-2.7,1.1s-1.9,0.4-2.8,0.4
				c-2.7,0-4.8-0.8-6.3-2.4s-2.3-3.8-2.3-6.6c0-1.8,0.3-3.3,1-4.7c0.7-1.4,1.6-2.4,2.9-3.2c1.2-0.8,2.7-1.1,4.2-1.1
				c2.2,0,4,0.7,5.3,2.2s2,3.4,2,6c0,0.5-0.1,0.8-0.3,1c-0.2,0.2-0.5,0.3-0.9,0.3h-11.4c0.2,4.1,2.1,6.1,5.8,6.1
				c0.9,0,1.7-0.1,2.4-0.4c0.7-0.2,1.4-0.6,2.1-1c0.6-0.4,1-0.5,1.2-0.5C454.2,384.6,454.4,384.7,454.6,385z M444.1,374.6
				c-0.9,0.9-1.4,2.3-1.6,4h10c0-1.7-0.5-3.1-1.3-4s-2-1.4-3.5-1.4C446.2,373.2,445,373.7,444.1,374.6z"/>
			<path class="st1" d="M492,363.9c0.2,0.3,0.4,0.6,0.4,1.1v22.4c0,0.4-0.1,0.8-0.4,1c-0.2,0.3-0.6,0.4-1,0.4c-0.4,0-0.7-0.1-1-0.4
				c-0.2-0.3-0.3-0.6-0.3-1v-18.1l-7.7,14.7c-0.3,0.7-0.8,1-1.5,1c-0.6,0-1.1-0.3-1.5-1l-7.7-14.6v17.9c0,0.4-0.1,0.8-0.3,1
				c-0.2,0.3-0.5,0.4-1,0.4s-0.8-0.1-1-0.4c-0.2-0.3-0.4-0.6-0.4-1V365c0-0.4,0.1-0.8,0.4-1.1s0.6-0.4,1.1-0.4c0.6,0,1.1,0.3,1.4,1
				l9,17.2l8.9-17.2c0.2-0.4,0.4-0.6,0.6-0.8c0.2-0.2,0.5-0.2,0.8-0.2C491.4,363.5,491.8,363.6,492,363.9z"/>
			<path class="st1" d="M512.2,385c0.2,0.2,0.3,0.5,0.3,0.8c0,0.6-0.4,1.1-1.2,1.6c-0.8,0.5-1.7,0.9-2.7,1.1s-1.9,0.4-2.8,0.4
				c-2.7,0-4.8-0.8-6.3-2.4s-2.3-3.8-2.3-6.6c0-1.8,0.3-3.3,1-4.7c0.7-1.4,1.6-2.4,2.9-3.2c1.2-0.8,2.7-1.1,4.2-1.1
				c2.2,0,4,0.7,5.3,2.2s2,3.4,2,6c0,0.5-0.1,0.8-0.3,1c-0.2,0.2-0.5,0.3-0.9,0.3H500c0.2,4.1,2.1,6.1,5.8,6.1
				c0.9,0,1.7-0.1,2.4-0.4c0.7-0.2,1.4-0.6,2.1-1c0.6-0.4,1-0.5,1.2-0.5C511.8,384.6,512,384.7,512.2,385z M501.7,374.6
				c-0.9,0.9-1.4,2.3-1.6,4h10c0-1.7-0.5-3.1-1.3-4s-2-1.4-3.5-1.4C503.8,373.2,502.6,373.7,501.7,374.6z"/>
			<path class="st1" d="M531.7,377.8v9.6c0,0.4-0.1,0.8-0.4,1c-0.2,0.2-0.6,0.4-1,0.4c-0.4,0-0.8-0.1-1.1-0.4
				c-0.3-0.2-0.4-0.6-0.4-1V378c0-1.6-0.3-2.8-0.9-3.5c-0.6-0.7-1.6-1.1-3-1.1c-1.6,0-2.8,0.5-3.8,1.5c-0.9,1-1.4,2.3-1.4,3.9v8.6
				c0,0.4-0.1,0.8-0.4,1c-0.2,0.2-0.6,0.4-1,0.4s-0.8-0.1-1.1-0.4c-0.3-0.2-0.4-0.6-0.4-1v-14.9c0-0.4,0.1-0.8,0.4-1
				s0.6-0.4,1.1-0.4c0.4,0,0.8,0.1,1,0.4s0.4,0.6,0.4,1v1.8c0.6-1.1,1.4-1.9,2.4-2.4c1-0.6,2.2-0.8,3.5-0.8
				C529.6,371,531.7,373.2,531.7,377.8z"/>
			<path class="st1" d="M546.2,387.7c0,0.4-0.1,0.7-0.4,0.9c-0.3,0.2-0.7,0.3-1.3,0.2l-1-0.1c-1.9-0.1-3.3-0.7-4.2-1.7
				c-0.9-1-1.3-2.5-1.3-4.5v-8.9h-2.4c-0.4,0-0.7-0.1-0.9-0.3c-0.2-0.2-0.3-0.5-0.3-0.8c0-0.4,0.1-0.6,0.3-0.8
				c0.2-0.2,0.5-0.3,0.9-0.3h2.4v-4c0-0.4,0.1-0.8,0.4-1c0.3-0.2,0.6-0.4,1.1-0.4c0.4,0,0.8,0.1,1,0.4s0.4,0.6,0.4,1v4h3.9
				c0.4,0,0.7,0.1,0.9,0.3c0.2,0.2,0.3,0.5,0.3,0.8c0,0.3-0.1,0.6-0.3,0.8c-0.2,0.2-0.5,0.3-0.9,0.3h-3.9v9c0,1.3,0.3,2.2,0.8,2.8
				c0.5,0.6,1.3,0.9,2.4,1l1,0.1C545.7,386.6,546.2,387,546.2,387.7z"/>
			<path class="st1" d="M549.1,366.8c-0.4-0.3-0.5-0.8-0.5-1.3c0-0.5,0.2-0.9,0.5-1.3s0.8-0.5,1.4-0.5c0.6,0,1,0.2,1.4,0.5
				s0.5,0.8,0.5,1.3c0,0.5-0.2,1-0.5,1.3c-0.4,0.3-0.8,0.5-1.4,0.5C549.9,367.3,549.4,367.2,549.1,366.8z M549.4,388.4
				c-0.3-0.2-0.4-0.6-0.4-1v-14.9c0-0.4,0.1-0.8,0.4-1c0.3-0.2,0.6-0.4,1-0.4c0.4,0,0.8,0.1,1,0.4c0.3,0.2,0.4,0.6,0.4,1v14.9
				c0,0.5-0.1,0.8-0.4,1.1c-0.3,0.2-0.6,0.4-1,0.4C550,388.8,549.7,388.7,549.4,388.4z"/>
			<path class="st1" d="M560.1,387.8c-1.2-0.7-2.2-1.8-2.9-3.1c-0.7-1.4-1-2.9-1-4.7c0-1.8,0.3-3.4,1-4.7c0.7-1.4,1.6-2.4,2.9-3.1
				c1.2-0.7,2.7-1.1,4.3-1.1c1.6,0,3.1,0.4,4.3,1.1c1.3,0.7,2.2,1.8,2.9,3.1c0.7,1.4,1,2.9,1,4.7c0,1.8-0.3,3.4-1,4.7
				c-0.7,1.4-1.6,2.4-2.9,3.1c-1.3,0.7-2.7,1.1-4.3,1.1C562.7,388.9,561.3,388.5,560.1,387.8z M568.3,384.8c0.9-1.1,1.4-2.8,1.4-4.9
				c0-2.1-0.5-3.7-1.4-4.9c-0.9-1.1-2.2-1.7-3.9-1.7c-1.7,0-3,0.6-3.9,1.7c-0.9,1.1-1.4,2.8-1.4,4.9c0,2.1,0.5,3.8,1.4,4.9
				c0.9,1.1,2.2,1.7,3.9,1.7S567.4,386,568.3,384.8z"/>
			<path class="st1" d="M591.7,377.8v9.6c0,0.4-0.1,0.8-0.4,1c-0.2,0.2-0.6,0.4-1,0.4c-0.4,0-0.8-0.1-1.1-0.4
				c-0.3-0.2-0.4-0.6-0.4-1V378c0-1.6-0.3-2.8-0.9-3.5c-0.6-0.7-1.6-1.1-3-1.1c-1.6,0-2.8,0.5-3.8,1.5c-0.9,1-1.4,2.3-1.4,3.9v8.6
				c0,0.4-0.1,0.8-0.4,1c-0.2,0.2-0.6,0.4-1,0.4s-0.8-0.1-1.1-0.4c-0.3-0.2-0.4-0.6-0.4-1v-14.9c0-0.4,0.1-0.8,0.4-1
				s0.6-0.4,1.1-0.4c0.4,0,0.8,0.1,1,0.4s0.4,0.6,0.4,1v1.8c0.6-1.1,1.4-1.9,2.4-2.4c1-0.6,2.2-0.8,3.5-0.8
				C589.7,371,591.7,373.2,591.7,377.8z"/>
		</g>
		<g>
			<path class="st1" d="M259.1,438.6c1,1.3,1.5,2.9,1.5,4.8c0,2.6-0.9,4.7-2.8,6.1s-4.4,2.2-7.7,2.2h-11.2c-0.8,0-1.5-0.2-2-0.7
				c-0.5-0.5-0.7-1.1-0.7-2v-25.4c0-0.8,0.2-1.5,0.7-2c0.5-0.5,1.1-0.7,2-0.7h10.8c3.2,0,5.7,0.7,7.5,2.1c1.8,1.4,2.7,3.4,2.7,5.9
				c0,1.6-0.4,3-1.3,4.2c-0.9,1.2-2,2.1-3.5,2.6C256.8,436.4,258.1,437.3,259.1,438.6z M241.6,433.9h7.1c3.9,0,5.8-1.4,5.8-4.3
				c0-1.5-0.5-2.5-1.4-3.2c-1-0.7-2.4-1-4.4-1h-7.1V433.9z M253.9,446.3c0.9-0.7,1.4-1.9,1.4-3.4c0-1.5-0.5-2.7-1.4-3.4
				c-0.9-0.8-2.4-1.1-4.4-1.1h-7.8v9.1h7.8C251.5,447.4,252.9,447,253.9,446.3z"/>
			<path class="st1" d="M283.4,446.4c0.3,0.4,0.5,0.9,0.5,1.5c0,0.9-0.5,1.7-1.6,2.3c-1,0.6-2.1,1-3.4,1.3c-1.2,0.3-2.4,0.5-3.6,0.5
				c-3.4,0-6.1-1-8.1-3c-2-2-3-4.7-3-8.1c0-2.2,0.4-4.1,1.3-5.8c0.9-1.7,2.1-3,3.7-3.9s3.4-1.4,5.4-1.4c1.9,0,3.6,0.4,5,1.3
				c1.4,0.8,2.5,2,3.3,3.6s1.2,3.4,1.2,5.4c0,1.2-0.6,1.9-1.7,1.9h-12.8c0.2,2,0.7,3.5,1.7,4.4c1,0.9,2.4,1.4,4.2,1.4
				c0.9,0,1.7-0.1,2.5-0.3s1.5-0.6,2.4-1c0.9-0.5,1.5-0.7,1.9-0.7C282.7,445.9,283.1,446.1,283.4,446.4z M271.1,435.1
				c-0.9,0.9-1.4,2.3-1.6,4h9.8c-0.1-1.8-0.5-3.1-1.3-4c-0.8-0.9-1.9-1.4-3.4-1.4C273.2,433.7,272,434.2,271.1,435.1z"/>
			<path class="st1" d="M288.5,450.2c-0.9-0.6-1.4-1.3-1.4-2.3c0-0.6,0.2-1.1,0.5-1.4c0.3-0.4,0.7-0.5,1.2-0.5c0.5,0,1.2,0.2,2,0.7
				c0.9,0.4,1.8,0.8,2.5,1c0.8,0.2,1.7,0.3,2.9,0.3c1.2,0,2.2-0.2,2.9-0.6c0.7-0.4,1-1,1-1.7c0-0.5-0.1-0.9-0.4-1.2
				s-0.8-0.6-1.5-0.8c-0.7-0.2-1.8-0.5-3.2-0.8c-2.6-0.5-4.4-1.3-5.5-2.2c-1.1-1-1.7-2.3-1.7-4c0-1.3,0.4-2.4,1.1-3.5
				c0.8-1,1.8-1.8,3.1-2.4c1.3-0.6,2.8-0.8,4.5-0.8c1.2,0,2.4,0.2,3.5,0.5c1.1,0.3,2.1,0.7,3,1.3c0.9,0.6,1.4,1.3,1.4,2.3
				c0,0.6-0.2,1.1-0.5,1.5s-0.7,0.6-1.2,0.6c-0.3,0-0.6-0.1-0.9-0.2s-0.7-0.3-1.2-0.6c-0.8-0.4-1.6-0.8-2.2-1
				c-0.6-0.2-1.4-0.3-2.3-0.3c-1.1,0-1.9,0.2-2.5,0.7s-0.9,1-0.9,1.8c0,0.7,0.3,1.3,1,1.7c0.6,0.4,1.9,0.8,3.7,1.1
				c1.9,0.4,3.5,0.9,4.6,1.4c1.1,0.5,1.9,1.2,2.4,2c0.5,0.8,0.7,1.8,0.7,3c0,2-0.8,3.6-2.5,4.7c-1.6,1.2-3.8,1.8-6.5,1.8
				C293,452.1,290.4,451.4,288.5,450.2z"/>
			<path class="st1" d="M322.6,449.9c0,0.7-0.3,1.2-0.8,1.6c-0.6,0.4-1.4,0.5-2.4,0.5l-1.2-0.1c-4.9-0.3-7.3-3-7.3-7.8v-9.5h-2.2
				c-0.8,0-1.4-0.2-1.8-0.5c-0.4-0.3-0.6-0.9-0.6-1.5c0-0.7,0.2-1.2,0.6-1.5c0.4-0.3,1-0.5,1.8-0.5h2.2v-4c0-0.8,0.2-1.4,0.7-1.9
				c0.5-0.5,1.2-0.7,2-0.7c0.8,0,1.5,0.2,2,0.7c0.5,0.5,0.7,1.1,0.7,1.9v4h3.7c0.8,0,1.4,0.2,1.8,0.5c0.4,0.3,0.6,0.9,0.6,1.5
				c0,0.7-0.2,1.2-0.6,1.5c-0.4,0.3-1,0.5-1.8,0.5h-3.7v9.9c0,2.1,1,3.3,3,3.4l1.2,0.1C321.9,448,322.6,448.7,322.6,449.9z"/>
			<path class="st1" d="M362.7,435.7c0.4,0.4,0.6,0.9,0.6,1.5v9.4c0,1.3-0.2,2.3-0.5,2.8c-0.3,0.6-1.1,1-2.1,1.3
				c-1.2,0.4-2.5,0.7-4,1c-1.5,0.2-3,0.3-4.4,0.3c-3.2,0-5.9-0.6-8.2-1.9c-2.3-1.2-4.1-3.1-5.3-5.4c-1.2-2.4-1.8-5.2-1.8-8.5
				c0-3.2,0.6-6,1.8-8.4c1.2-2.4,3-4.2,5.2-5.4c2.3-1.3,4.9-1.9,8-1.9c4.1,0,7.4,1.1,10.1,3.3c0.3,0.3,0.6,0.6,0.8,1
				c0.2,0.3,0.2,0.7,0.2,1.1c0,0.6-0.2,1.2-0.5,1.6c-0.3,0.4-0.8,0.7-1.3,0.7c-0.3,0-0.6-0.1-0.9-0.2c-0.3-0.1-0.6-0.3-0.9-0.5
				c-1.3-0.9-2.5-1.5-3.6-1.9c-1.1-0.4-2.4-0.5-3.7-0.5c-3.2,0-5.5,0.9-7.2,2.8c-1.6,1.9-2.4,4.7-2.4,8.3c0,7.5,3.3,11.3,9.9,11.3
				c2,0,3.9-0.3,5.9-0.8v-7.7h-4.9c-0.7,0-1.2-0.2-1.6-0.5c-0.4-0.3-0.6-0.8-0.6-1.5c0-0.6,0.2-1.1,0.6-1.5c0.4-0.3,0.9-0.5,1.6-0.5
				h7.7C361.7,435.1,362.3,435.3,362.7,435.7z"/>
			<path class="st1" d="M384.9,432.1c1.4,1.5,2.2,3.7,2.2,6.7v10.6c0,0.8-0.2,1.4-0.7,1.8c-0.5,0.5-1.1,0.7-1.9,0.7
				c-0.8,0-1.4-0.2-1.8-0.7s-0.7-1.1-0.7-1.8v-1c-0.5,1.1-1.3,2-2.3,2.7c-1.1,0.6-2.3,1-3.7,1c-1.4,0-2.7-0.3-3.9-0.9
				c-1.2-0.6-2.1-1.4-2.7-2.4c-0.7-1-1-2.1-1-3.4c0-1.6,0.4-2.8,1.2-3.7c0.8-0.9,2.1-1.6,3.9-2s4.3-0.6,7.4-0.6h1.1v-1
				c0-1.4-0.3-2.5-0.9-3.1c-0.6-0.7-1.6-1-3-1c-0.8,0-1.7,0.1-2.6,0.4c-0.9,0.2-1.9,0.6-3.1,1.1c-0.8,0.4-1.3,0.6-1.7,0.6
				c-0.5,0-1-0.2-1.3-0.6c-0.3-0.4-0.5-0.9-0.5-1.5c0-0.5,0.1-0.9,0.4-1.3c0.2-0.4,0.7-0.7,1.2-1c1-0.6,2.2-1,3.6-1.3
				c1.4-0.3,2.8-0.5,4.2-0.5C381.3,429.9,383.5,430.6,384.9,432.1z M380.5,446.7c0.9-1,1.4-2.2,1.4-3.8V442h-0.8
				c-1.9,0-3.5,0.1-4.5,0.3c-1.1,0.2-1.8,0.5-2.3,0.9c-0.5,0.4-0.7,1-0.7,1.8c0,0.9,0.3,1.7,1,2.3c0.7,0.6,1.5,0.9,2.4,0.9
				C378.4,448.1,379.6,447.6,380.5,446.7z"/>
			<path class="st1" d="M423.2,432c1.2,1.4,1.8,3.6,1.8,6.7v10.7c0,0.8-0.3,1.5-0.8,1.9c-0.5,0.4-1.2,0.7-2,0.7
				c-0.8,0-1.4-0.2-1.9-0.7c-0.5-0.5-0.8-1.1-0.8-1.9v-10.7c0-1.6-0.3-2.7-0.8-3.4c-0.6-0.7-1.4-1-2.6-1c-1.4,0-2.6,0.5-3.4,1.5
				c-0.8,1-1.3,2.3-1.3,4v9.7c0,0.8-0.3,1.5-0.8,1.9c-0.5,0.4-1.2,0.7-1.9,0.7c-0.8,0-1.4-0.2-2-0.7c-0.5-0.5-0.8-1.1-0.8-1.9v-10.7
				c0-1.6-0.3-2.7-0.8-3.4s-1.4-1-2.6-1c-1.4,0-2.5,0.5-3.4,1.5c-0.8,1-1.2,2.3-1.2,4v9.7c0,0.8-0.3,1.5-0.8,1.9
				c-0.5,0.4-1.2,0.7-2,0.7s-1.4-0.2-1.9-0.7c-0.5-0.5-0.8-1.1-0.8-1.9v-16.8c0-0.8,0.3-1.4,0.8-1.9c0.5-0.4,1.2-0.7,2-0.7
				c0.8,0,1.4,0.2,1.8,0.6c0.5,0.4,0.7,1,0.7,1.8v1c0.7-1.2,1.6-2,2.7-2.7s2.4-0.9,3.9-0.9c3.2,0,5.3,1.3,6.4,4
				c0.6-1.2,1.6-2.2,2.8-2.9c1.2-0.7,2.7-1.1,4.2-1.1C420.2,429.9,422,430.6,423.2,432z"/>
			<path class="st1" d="M448.6,446.4c0.3,0.4,0.5,0.9,0.5,1.5c0,0.9-0.5,1.7-1.6,2.3c-1,0.6-2.1,1-3.4,1.3c-1.2,0.3-2.4,0.5-3.6,0.5
				c-3.4,0-6.1-1-8.1-3c-2-2-3-4.7-3-8.1c0-2.2,0.4-4.1,1.3-5.8c0.9-1.7,2.1-3,3.7-3.9s3.4-1.4,5.4-1.4c1.9,0,3.6,0.4,5,1.3
				c1.4,0.8,2.5,2,3.3,3.6s1.2,3.4,1.2,5.4c0,1.2-0.6,1.9-1.7,1.9h-12.8c0.2,2,0.7,3.5,1.7,4.4c1,0.9,2.4,1.4,4.2,1.4
				c0.9,0,1.7-0.1,2.5-0.3s1.5-0.6,2.4-1c0.9-0.5,1.5-0.7,1.9-0.7C447.9,445.9,448.3,446.1,448.6,446.4z M436.4,435.1
				c-0.9,0.9-1.4,2.3-1.6,4h9.8c-0.1-1.8-0.5-3.1-1.3-4c-0.8-0.9-1.9-1.4-3.4-1.4C438.4,433.7,437.2,434.2,436.4,435.1z"/>
			<path class="st1" d="M487,449.4c0,1.5-0.9,2.3-2.6,2.3h-16.5c-0.8,0-1.3-0.2-1.8-0.7c-0.4-0.4-0.7-1-0.7-1.7c0-0.9,0.3-1.7,1-2.3
				l9.9-10.7c1.2-1.3,2.1-2.6,2.7-3.7c0.6-1.1,0.8-2.2,0.8-3.3c0-1.4-0.4-2.4-1.2-3.1c-0.8-0.7-1.9-1.1-3.4-1.1
				c-1.2,0-2.3,0.2-3.5,0.7c-1.1,0.5-2.2,1.1-3.4,1.8c-0.3,0.2-0.6,0.4-0.9,0.5s-0.6,0.2-0.9,0.2c-0.5,0-0.9-0.2-1.3-0.7
				c-0.4-0.5-0.5-1-0.5-1.7c0-0.4,0.1-0.8,0.2-1.1c0.2-0.3,0.4-0.6,0.8-0.9c1.3-1,2.8-1.8,4.5-2.4s3.4-0.9,5.1-0.9
				c3,0,5.4,0.8,7.2,2.3s2.7,3.5,2.7,6.1c0,1.8-0.4,3.4-1.1,5c-0.8,1.6-2,3.3-3.8,5.2l-7.5,8h11.5C486.1,447.2,487,447.9,487,449.4z
				"/>
			<path class="st1" d="M493.6,448.1c-1.9-2.7-2.9-6.6-2.9-11.7c0-5.1,1-9,2.9-11.7c1.9-2.7,4.7-4,8.3-4c3.6,0,6.4,1.3,8.3,4
				c1.9,2.7,2.9,6.6,2.9,11.7c0,5.1-1,9-2.9,11.7c-1.9,2.7-4.7,4-8.3,4C498.3,452.1,495.5,450.8,493.6,448.1z M506.2,445
				c0.9-1.8,1.3-4.7,1.3-8.6c0-4-0.5-6.9-1.3-8.6c-0.9-1.8-2.3-2.7-4.3-2.7c-2,0-3.4,0.9-4.3,2.7c-0.9,1.8-1.3,4.7-1.3,8.6
				c0,3.9,0.4,6.8,1.3,8.6c0.9,1.8,2.3,2.7,4.3,2.7C503.9,447.7,505.3,446.8,506.2,445z"/>
			<path class="st1" d="M539.2,449.4c0,1.5-0.9,2.3-2.6,2.3h-16.5c-0.8,0-1.3-0.2-1.8-0.7c-0.4-0.4-0.7-1-0.7-1.7
				c0-0.9,0.3-1.7,1-2.3l9.9-10.7c1.2-1.3,2.1-2.6,2.7-3.7c0.6-1.1,0.8-2.2,0.8-3.3c0-1.4-0.4-2.4-1.2-3.1c-0.8-0.7-1.9-1.1-3.4-1.1
				c-1.2,0-2.3,0.2-3.5,0.7c-1.1,0.5-2.2,1.1-3.4,1.8c-0.3,0.2-0.6,0.4-0.9,0.5s-0.6,0.2-0.9,0.2c-0.5,0-0.9-0.2-1.3-0.7
				c-0.4-0.5-0.5-1-0.5-1.7c0-0.4,0.1-0.8,0.2-1.1c0.2-0.3,0.4-0.6,0.8-0.9c1.3-1,2.8-1.8,4.5-2.4s3.4-0.9,5.1-0.9
				c3,0,5.4,0.8,7.2,2.3s2.7,3.5,2.7,6.1c0,1.8-0.4,3.4-1.1,5c-0.8,1.6-2,3.3-3.8,5.2l-7.5,8h11.5
				C538.4,447.2,539.2,447.9,539.2,449.4z"/>
			<path class="st1" d="M565.5,449.4c0,1.5-0.9,2.3-2.6,2.3h-14.7c-1.8,0-2.7-0.8-2.7-2.3c0-1.5,0.9-2.2,2.7-2.2h4.5v-19.8l-4.2,2.6
				c-0.4,0.2-0.8,0.3-1.1,0.3c-0.6,0-1.1-0.3-1.5-0.8s-0.6-1.1-0.6-1.7c0-0.8,0.4-1.5,1.1-2l6.7-4.2c0.9-0.5,1.7-0.8,2.5-0.8
				c0.8,0,1.5,0.2,2,0.7c0.5,0.5,0.7,1.2,0.7,2v23.6h4.6C564.6,447.2,565.5,447.9,565.5,449.4z"/>
		</g>
	</g>
</g>
</svg>
