<?xml version="1.0" encoding="utf-8"?>
<!-- Generator: Adobe Illustrator 24.3.0, SVG Export Plug-In . SVG Version: 6.00 Build 0)  -->
<svg version="1.1" xmlns="http://www.w3.org/2000/svg" xmlns:xlink="http://www.w3.org/1999/xlink" x="0px" y="0px"
	 viewBox="0 0 800 800" style="enable-background:new 0 0 800 800;" xml:space="preserve">
<style type="text/css">
	.st0{fill:#353535;}
	.st1{fill:#EDB74C;}
</style>
<g id="Layer_1">
</g>
<g id="Layer_2">
	<rect x="-16" y="-17" class="st0" width="832" height="833"/>
	<g>
		<g>
			<path class="st1" d="M220.6,534.5c-0.4-0.1-16.3-5-35.3-15.9c3.4-4.2,9.8-15.2-1.8-29.6c0,0-8.8,14.8-3.5,26.4
				c-6.8-4.2-13.7-9.1-20.5-14.8c2-2,13.3-14.3-0.3-31.2c0,0-10.5,17.5-1.7,29.4c-8.7-7.7-16.9-16.8-23.3-27.3c3.3-1.5,17-9,10.8-29
				c0,0-15.6,12.1-12.5,26.1c-3.7-6.5-6.8-13.6-9-21.2c-0.8-2.8-1.5-5.6-2.1-8.4c4.4-0.9,18.1-5.3,17.2-25.2c0,0-15.8,6.7-18.4,19.2
				c-1.9-11-2.5-21.6-2-31.6c5,0.7,16.2,0.4,22-15c0,0-14.6,0-21.5,8.7c0.9-10,2.8-19.3,5.3-28c4,1.6,16.2,4.8,25.3-10.3
				c0,0-15.9-3-24,5.7c3.5-10.9,7.7-20.5,11.9-28.4c4.3,2.5,15,6.5,26-5.8c0,0-13.2-5.3-22.8-0.1c5.9-10.3,11.2-17,12.7-18.9
				c1.7-2.1,3.5-4,5.3-5.9c2.7,1.9,14.8,9.1,27.5-4.8c0,0-12.3-4.9-21.8-0.6c6-5.4,12.4-10,18.3-13.8c3.9,2.4,15,7.3,26.5-5.4
				c0,0-5.9-2.4-12.6-2.4c6.4-3.2,10.7-4.8,10.8-4.9l-1.7-4.6c-1.1,0.4-22.6,8.5-42.3,25.4c3.4-5.7,7.4-17.9-6.2-31.6
				c0,0-12.1,25.7,2.9,34.5c-3.7,3.4-7.2,7-10.5,11c-3,3.7-6,7.7-8.9,12.2c1.9-7.6,1-18.2-10.5-29.7c0,0-14.5,30.8,3.8,41.1
				c-3.2,5.8-6.1,12.1-8.8,18.7c-0.5-7.4-4.1-16.2-15.9-24.2c0,0-8.1,32.1,10.8,39.3c-2,6.7-3.6,13.7-4.7,20.9
				c-1.4-7.5-6.3-16.5-20.5-22.6c0,0-2.1,34.3,18.9,36.8c-0.6,9-0.4,18.3,0.7,27.7c-3.9-8.1-12.8-17.7-32.9-17.6
				c0,0,12.6,35.1,34.7,29.3c0.7,3.6,1.6,7.1,2.6,10.7c0.9,3.2,2,6.2,3.2,9.2c-6.3-5.8-16.8-10.3-33.6-5.9c0,0,20.6,30,40.3,19.9
				c4.4,7.5,9.6,14.3,15.2,20.4c-8-3.2-19.6-3.9-33.9,6.5c0,0,30,20.3,44.7,4c4.7,4.1,9.6,7.9,14.5,11.2
				c-8.4-1.4-19.7,0.4-31.5,13.2c0,0,33.3,13.9,44.6-4.9c19.9,11.5,36.5,16.6,36.9,16.7L220.6,534.5z"/>
			<path class="st1" d="M579.4,534.5c0.4-0.1,16.3-5,35.3-15.9c-3.4-4.2-9.8-15.2,1.8-29.6c0,0,8.8,14.8,3.5,26.4
				c6.8-4.2,13.7-9.1,20.5-14.8c-2-2-13.3-14.3,0.3-31.2c0,0,10.5,17.5,1.7,29.4c8.7-7.7,16.9-16.8,23.3-27.3c-3.3-1.5-17-9-10.8-29
				c0,0,15.6,12.1,12.5,26.1c3.7-6.5,6.8-13.6,9-21.2c0.8-2.8,1.5-5.6,2.1-8.4c-4.4-0.9-18.1-5.3-17.2-25.2c0,0,15.8,6.7,18.4,19.2
				c1.9-11,2.5-21.6,2-31.6c-5,0.7-16.2,0.4-22-15c0,0,14.6,0,21.5,8.7c-0.9-10-2.8-19.3-5.3-28c-4,1.6-16.2,4.8-25.3-10.3
				c0,0,15.9-3,24,5.7c-3.5-10.9-7.7-20.5-11.9-28.4c-4.3,2.5-15,6.5-26-5.8c0,0,13.2-5.3,22.8-0.1c-5.9-10.3-11.2-17-12.7-18.9
				c-1.7-2.1-3.5-4-5.3-5.9c-2.7,1.9-14.8,9.1-27.5-4.8c0,0,12.3-4.9,21.8-0.6c-6-5.4-12.4-10-18.3-13.8c-3.9,2.4-15,7.3-26.5-5.4
				c0,0,5.9-2.4,12.6-2.4c-6.4-3.2-10.7-4.8-10.8-4.9l1.7-4.6c1.1,0.4,22.6,8.5,42.3,25.4c-3.3-5.7-7.4-17.9,6.2-31.6
				c0,0,12.1,25.7-2.9,34.5c3.7,3.4,7.2,7,10.5,11c3,3.7,6,7.7,8.9,12.2c-1.9-7.6-1-18.2,10.5-29.7c0,0,14.5,30.8-3.8,41.1
				c3.2,5.8,6.1,12.1,8.8,18.7c0.5-7.4,4.1-16.2,15.9-24.2c0,0,8.1,32.1-10.8,39.3c2,6.7,3.6,13.7,4.7,20.9
				c1.4-7.5,6.3-16.5,20.5-22.6c0,0,2.1,34.3-18.9,36.8c0.6,9,0.4,18.3-0.7,27.7c3.9-8.1,12.8-17.7,32.9-17.6
				c0,0-12.6,35.1-34.7,29.3c-0.7,3.6-1.6,7.1-2.6,10.7c-0.9,3.2-2,6.2-3.2,9.2c6.3-5.8,16.8-10.3,33.6-5.9c0,0-20.6,30-40.3,19.9
				c-4.4,7.5-9.6,14.3-15.2,20.4c8-3.2,19.6-3.9,33.9,6.5c0,0-30,20.3-44.7,4c-4.7,4.1-9.6,7.9-14.5,11.2
				c8.4-1.4,19.7,0.4,31.5,13.2c0,0-33.3,13.9-44.6-4.9c-19.9,11.5-36.5,16.6-36.9,16.7L579.4,534.5z"/>
		</g>
		<g>
			<path class="st1" d="M235.3,358.9c0,0.3-0.1,0.6-0.4,0.9c-0.3,0.3-0.6,0.4-0.9,0.4c-0.3,0-0.6-0.1-1-0.4l-13.2-11.6v10.6
				c0,0.4-0.1,0.8-0.4,1.1c-0.3,0.3-0.6,0.4-1.1,0.4c-0.4,0-0.8-0.1-1.1-0.4c-0.3-0.3-0.4-0.6-0.4-1.1v-22.4c0-0.4,0.1-0.8,0.4-1.1
				c0.3-0.3,0.6-0.4,1.1-0.4c0.4,0,0.8,0.1,1.1,0.4s0.4,0.6,0.4,1.1v10.2l12.6-11.2c0.3-0.3,0.6-0.4,0.9-0.4c0.4,0,0.7,0.1,0.9,0.4
				c0.3,0.3,0.4,0.6,0.4,0.9c0,0.4-0.2,0.7-0.5,1l-11.4,10.1l12.1,10.6C235.1,358.2,235.3,358.5,235.3,358.9z"/>
			<path class="st1" d="M252.5,356.4c0.2,0.2,0.3,0.5,0.3,0.8c0,0.6-0.4,1.1-1.2,1.6c-0.9,0.5-1.7,0.9-2.7,1.1
				c-0.9,0.2-1.9,0.4-2.8,0.4c-2.7,0-4.8-0.8-6.3-2.4c-1.5-1.6-2.3-3.8-2.3-6.6c0-1.8,0.3-3.3,1-4.7c0.7-1.4,1.6-2.4,2.9-3.2
				s2.7-1.1,4.2-1.1c2.2,0,4,0.7,5.3,2.2c1.3,1.5,2,3.4,2,6c0,0.5-0.1,0.8-0.3,1c-0.2,0.2-0.5,0.3-0.9,0.3h-11.4
				c0.2,4.1,2.1,6.1,5.8,6.1c0.9,0,1.7-0.1,2.4-0.4c0.7-0.2,1.4-0.6,2.1-1c0.6-0.4,1-0.5,1.2-0.5
				C252.1,356.1,252.3,356.2,252.5,356.4z M242,346c-0.9,0.9-1.4,2.3-1.6,4h10c0-1.7-0.5-3.1-1.3-4c-0.8-0.9-2-1.4-3.5-1.4
				C244.1,344.6,242.9,345.1,242,346z"/>
			<path class="st1" d="M282.1,349.2v9.6c0,0.4-0.1,0.8-0.4,1c-0.3,0.2-0.6,0.4-1,0.4c-0.4,0-0.8-0.1-1-0.4c-0.3-0.2-0.4-0.6-0.4-1
				v-9.5c0-1.6-0.3-2.7-0.9-3.4c-0.6-0.7-1.5-1.1-2.7-1.1c-1.4,0-2.6,0.5-3.4,1.5c-0.8,1-1.2,2.3-1.2,3.9v8.6c0,0.4-0.1,0.8-0.4,1
				c-0.3,0.2-0.6,0.4-1,0.4c-0.4,0-0.8-0.1-1-0.4c-0.3-0.2-0.4-0.6-0.4-1v-9.5c0-1.6-0.3-2.7-0.9-3.4c-0.6-0.7-1.5-1.1-2.7-1.1
				c-1.4,0-2.5,0.5-3.4,1.5c-0.8,1-1.3,2.3-1.3,3.9v8.6c0,0.4-0.1,0.8-0.4,1c-0.3,0.2-0.6,0.4-1,0.4c-0.4,0-0.8-0.1-1-0.4
				c-0.3-0.2-0.4-0.6-0.4-1v-14.9c0-0.4,0.1-0.8,0.4-1c0.3-0.3,0.6-0.4,1-0.4c0.4,0,0.7,0.1,1,0.4c0.3,0.2,0.4,0.6,0.4,1v1.7
				c0.5-1,1.2-1.8,2.2-2.3c0.9-0.5,2-0.8,3.2-0.8c2.7,0,4.5,1.1,5.3,3.4c0.5-1,1.3-1.9,2.3-2.5c1-0.6,2.2-0.9,3.5-0.9
				C280.2,342.4,282.1,344.7,282.1,349.2z"/>
			<path class="st1" d="M301.4,356.4c0.2,0.2,0.3,0.5,0.3,0.8c0,0.6-0.4,1.1-1.2,1.6c-0.8,0.5-1.7,0.9-2.7,1.1
				c-0.9,0.2-1.9,0.4-2.8,0.4c-2.7,0-4.8-0.8-6.3-2.4c-1.5-1.6-2.3-3.8-2.3-6.6c0-1.8,0.3-3.3,1-4.7c0.7-1.4,1.6-2.4,2.9-3.2
				s2.7-1.1,4.2-1.1c2.2,0,4,0.7,5.3,2.2s2,3.4,2,6c0,0.5-0.1,0.8-0.3,1s-0.5,0.3-0.9,0.3h-11.4c0.2,4.1,2.1,6.1,5.8,6.1
				c0.9,0,1.7-0.1,2.4-0.4c0.7-0.2,1.4-0.6,2.1-1c0.6-0.4,1-0.5,1.2-0.5C300.9,356.1,301.2,356.2,301.4,356.4z M290.9,346
				c-0.9,0.9-1.4,2.3-1.6,4h10c0-1.7-0.5-3.1-1.3-4s-2-1.4-3.5-1.4C293,344.6,291.8,345.1,290.9,346z"/>
			<path class="st1" d="M320.9,349.2v9.6c0,0.4-0.1,0.8-0.4,1c-0.2,0.2-0.6,0.4-1,0.4c-0.4,0-0.8-0.1-1.1-0.4
				c-0.3-0.2-0.4-0.6-0.4-1v-9.4c0-1.6-0.3-2.8-0.9-3.5c-0.6-0.7-1.6-1.1-3-1.1c-1.6,0-2.8,0.5-3.8,1.5c-0.9,1-1.4,2.3-1.4,3.9v8.6
				c0,0.4-0.1,0.8-0.4,1c-0.2,0.2-0.6,0.4-1,0.4s-0.8-0.1-1.1-0.4c-0.3-0.2-0.4-0.6-0.4-1v-14.9c0-0.4,0.1-0.8,0.4-1
				s0.6-0.4,1.1-0.4c0.4,0,0.8,0.1,1,0.4s0.4,0.6,0.4,1v1.8c0.6-1.1,1.4-1.9,2.4-2.4c1-0.6,2.2-0.8,3.5-0.8
				C318.8,342.4,320.9,344.7,320.9,349.2z"/>
			<path class="st1" d="M338.8,343.5c1.2,0.8,2.1,1.8,2.7,3.2c0.6,1.4,1,2.9,1,4.7c0,1.8-0.3,3.4-1,4.7c-0.6,1.3-1.5,2.4-2.7,3.1
				c-1.1,0.7-2.5,1.1-4,1.1c-1.3,0-2.5-0.3-3.5-0.9c-1-0.6-1.8-1.4-2.3-2.5v8.3c0,0.4-0.1,0.8-0.4,1s-0.6,0.4-1,0.4
				s-0.8-0.1-1.1-0.4s-0.4-0.6-0.4-1v-21.4c0-0.4,0.1-0.8,0.4-1s0.6-0.4,1.1-0.4s0.8,0.1,1,0.4s0.4,0.6,0.4,1v1.9
				c0.5-1.1,1.3-1.9,2.3-2.5c1-0.6,2.2-0.9,3.5-0.9C336.3,342.4,337.6,342.8,338.8,343.5z M338.1,356.2c0.9-1.1,1.4-2.7,1.4-4.8
				c0-2.1-0.5-3.7-1.4-4.9s-2.2-1.8-3.9-1.8s-3,0.6-3.9,1.7c-0.9,1.1-1.4,2.8-1.4,4.9c0,2.1,0.5,3.7,1.4,4.9
				c0.9,1.1,2.2,1.7,3.9,1.7S337.2,357.4,338.1,356.2z"/>
			<path class="st1" d="M360.3,349.2v9.6c0,0.4-0.1,0.8-0.4,1c-0.2,0.3-0.6,0.4-1,0.4s-0.8-0.1-1-0.4c-0.3-0.3-0.4-0.6-0.4-1v-1.7
				c-0.4,1-1.1,1.8-2.1,2.4c-0.9,0.6-2,0.8-3.2,0.8c-1.1,0-2.1-0.2-3.1-0.7c-0.9-0.4-1.7-1.1-2.2-1.9c-0.5-0.8-0.8-1.7-0.8-2.7
				c0-1.3,0.3-2.3,1-3c0.7-0.7,1.7-1.2,3.3-1.6c1.5-0.3,3.6-0.5,6.3-0.5h0.8v-1.2c0-1.4-0.3-2.5-0.9-3.1c-0.6-0.7-1.5-1-2.8-1
				c-1.6,0-3.2,0.4-4.9,1.3c-0.6,0.4-1.1,0.6-1.3,0.6c-0.3,0-0.5-0.1-0.7-0.3c-0.2-0.2-0.3-0.5-0.3-0.8c0-0.3,0.1-0.6,0.3-0.9
				c0.2-0.2,0.5-0.5,1-0.8c0.8-0.5,1.8-0.8,2.8-1.1c1.1-0.3,2.1-0.4,3.1-0.4C358.1,342.4,360.3,344.7,360.3,349.2z M356.1,356.6
				c0.9-1,1.4-2.2,1.4-3.7v-1h-0.6c-2.1,0-3.7,0.1-4.7,0.3c-1.1,0.2-1.9,0.5-2.3,0.9c-0.5,0.4-0.7,1-0.7,1.8c0,0.9,0.3,1.7,1,2.3
				c0.7,0.6,1.5,0.9,2.5,0.9C354,358,355.2,357.6,356.1,356.6z"/>
			<path class="st1" d="M375.5,343.7c0,0.4-0.1,0.7-0.3,0.9c-0.2,0.2-0.6,0.4-1.1,0.4l-1.1,0.1c-1.6,0.1-2.8,0.7-3.5,1.7
				c-0.8,1-1.2,2.1-1.2,3.5v8.6c0,0.5-0.1,0.8-0.4,1.1c-0.3,0.2-0.6,0.4-1,0.4c-0.4,0-0.8-0.1-1-0.4c-0.3-0.2-0.4-0.6-0.4-1v-14.9
				c0-0.4,0.1-0.8,0.4-1c0.3-0.2,0.6-0.4,1-0.4c0.4,0,0.7,0.1,1,0.4c0.3,0.2,0.4,0.6,0.4,1v2c0.5-1,1.2-1.8,2.1-2.4
				c0.9-0.5,2-0.9,3.1-1l0.5,0C375,342.4,375.5,342.8,375.5,343.7z"/>
			<path class="st1" d="M391.7,356.4c0.2,0.2,0.3,0.5,0.3,0.8c0,0.6-0.4,1.1-1.2,1.6c-0.8,0.5-1.7,0.9-2.7,1.1s-1.9,0.4-2.8,0.4
				c-2.7,0-4.8-0.8-6.3-2.4s-2.3-3.8-2.3-6.6c0-1.8,0.3-3.3,1-4.7c0.7-1.4,1.6-2.4,2.9-3.2c1.2-0.8,2.7-1.1,4.2-1.1
				c2.2,0,4,0.7,5.3,2.2s2,3.4,2,6c0,0.5-0.1,0.8-0.3,1c-0.2,0.2-0.5,0.3-0.9,0.3h-11.4c0.2,4.1,2.1,6.1,5.8,6.1
				c0.9,0,1.7-0.1,2.4-0.4c0.7-0.2,1.4-0.6,2.1-1c0.6-0.4,1-0.5,1.2-0.5C391.3,356.1,391.5,356.2,391.7,356.4z M381.2,346
				c-0.9,0.9-1.4,2.3-1.6,4h10c0-1.7-0.5-3.1-1.3-4s-2-1.4-3.5-1.4C383.3,344.6,382.1,345.1,381.2,346z"/>
			<path class="st1" d="M410.7,358.9c0,0.4-0.1,0.7-0.4,0.9c-0.2,0.3-0.5,0.4-0.9,0.4c-0.3,0-0.6-0.1-1-0.4l-9.2-8v7
				c0,0.4-0.1,0.8-0.4,1c-0.3,0.2-0.6,0.4-1,0.4c-0.4,0-0.8-0.1-1-0.4c-0.3-0.2-0.4-0.6-0.4-1v-22.5c0-0.4,0.1-0.8,0.4-1
				s0.6-0.4,1-0.4c0.4,0,0.7,0.1,1,0.4s0.4,0.6,0.4,1v14.4l8.5-7.8c0.3-0.3,0.6-0.4,1-0.4s0.7,0.1,0.9,0.4c0.3,0.3,0.4,0.6,0.4,0.9
				c0,0.4-0.2,0.8-0.5,1.1l-7,6.2l7.7,6.7C410.5,358.1,410.7,358.5,410.7,358.9z"/>
			<path class="st1" d="M424.1,343.7c0,0.4-0.1,0.7-0.3,0.9c-0.2,0.2-0.6,0.4-1.1,0.4l-1.1,0.1c-1.6,0.1-2.8,0.7-3.5,1.7
				c-0.8,1-1.2,2.1-1.2,3.5v8.6c0,0.5-0.1,0.8-0.4,1.1c-0.3,0.2-0.6,0.4-1,0.4c-0.4,0-0.8-0.1-1-0.4c-0.3-0.2-0.4-0.6-0.4-1v-14.9
				c0-0.4,0.1-0.8,0.4-1c0.3-0.2,0.6-0.4,1-0.4c0.4,0,0.7,0.1,1,0.4c0.3,0.2,0.4,0.6,0.4,1v2c0.5-1,1.2-1.8,2.1-2.4
				c0.9-0.5,2-0.9,3.1-1l0.5,0C423.6,342.4,424.1,342.8,424.1,343.7z"/>
			<path class="st1" d="M439.9,349.2v9.6c0,0.4-0.1,0.8-0.4,1c-0.2,0.3-0.6,0.4-1,0.4s-0.8-0.1-1-0.4c-0.3-0.3-0.4-0.6-0.4-1v-1.7
				c-0.4,1-1.1,1.8-2.1,2.4c-0.9,0.6-2,0.8-3.2,0.8c-1.1,0-2.1-0.2-3.1-0.7c-0.9-0.4-1.7-1.1-2.2-1.9c-0.5-0.8-0.8-1.7-0.8-2.7
				c0-1.3,0.3-2.3,1-3c0.7-0.7,1.7-1.2,3.3-1.6c1.5-0.3,3.6-0.5,6.3-0.5h0.8v-1.2c0-1.4-0.3-2.5-0.9-3.1c-0.6-0.7-1.5-1-2.8-1
				c-1.6,0-3.2,0.4-4.9,1.3c-0.6,0.4-1.1,0.6-1.3,0.6c-0.3,0-0.5-0.1-0.7-0.3c-0.2-0.2-0.3-0.5-0.3-0.8c0-0.3,0.1-0.6,0.3-0.9
				c0.2-0.2,0.5-0.5,1-0.8c0.8-0.5,1.8-0.8,2.8-1.1c1.1-0.3,2.1-0.4,3.1-0.4C437.8,342.4,439.9,344.7,439.9,349.2z M435.8,356.6
				c0.9-1,1.4-2.2,1.4-3.7v-1h-0.6c-2.1,0-3.7,0.1-4.7,0.3c-1.1,0.2-1.9,0.5-2.3,0.9c-0.5,0.4-0.7,1-0.7,1.8c0,0.9,0.3,1.7,1,2.3
				c0.7,0.6,1.5,0.9,2.5,0.9C433.7,358,434.8,357.6,435.8,356.6z"/>
			<path class="st1" d="M449.9,338.5c-0.6,0.7-1,1.7-1,3.1v1.1h3.9c0.4,0,0.7,0.1,0.9,0.3c0.2,0.2,0.3,0.5,0.3,0.8
				c0,0.4-0.1,0.6-0.3,0.8c-0.2,0.2-0.5,0.3-0.9,0.3H449v13.7c0,0.4-0.1,0.8-0.4,1c-0.3,0.2-0.6,0.4-1,0.4c-0.4,0-0.8-0.1-1-0.4
				c-0.3-0.2-0.4-0.6-0.4-1v-13.7h-2.4c-0.4,0-0.7-0.1-0.9-0.3c-0.2-0.2-0.3-0.5-0.3-0.8c0-0.4,0.1-0.6,0.3-0.8
				c0.2-0.2,0.5-0.3,0.9-0.3h2.4v-0.6c0-2.1,0.5-3.8,1.6-5c1.1-1.2,2.6-1.9,4.6-2l0.9-0.1c0.6,0,1.1,0,1.3,0.2
				c0.3,0.2,0.4,0.5,0.4,0.9c0,0.7-0.4,1.1-1.2,1.2l-0.9,0.1C451.5,337.5,450.6,337.8,449.9,338.5z"/>
			<path class="st1" d="M488,359c0,0.4-0.1,0.6-0.4,0.9c-0.3,0.2-0.6,0.4-1,0.4c-0.6,0-1-0.3-1.2-0.8l-2.5-5.7h-13.4l-2.6,5.7
				c-0.2,0.6-0.6,0.8-1.2,0.8c-0.4,0-0.7-0.1-1-0.4c-0.3-0.2-0.4-0.5-0.4-0.9c0-0.2,0-0.4,0.1-0.6l10.1-22.5
				c0.1-0.3,0.4-0.6,0.6-0.7s0.6-0.2,0.9-0.2c0.4,0,0.7,0.1,1,0.3c0.3,0.2,0.5,0.4,0.6,0.7l10.1,22.5C487.9,358.6,488,358.8,488,359
				z M470.6,351.2h11.2l-5.6-12.7L470.6,351.2z"/>
			<path class="st1" d="M515.6,342.5c0.4,0,0.7,0.1,1,0.4c0.3,0.2,0.4,0.5,0.4,0.9c0,0.2,0,0.3-0.1,0.5l-5.9,14.9
				c-0.1,0.3-0.3,0.5-0.6,0.7c-0.3,0.2-0.6,0.3-0.9,0.3c-0.3,0-0.6-0.1-0.9-0.3c-0.3-0.2-0.5-0.4-0.6-0.7l-4.9-12.4l-4.9,12.4
				c-0.1,0.3-0.3,0.5-0.6,0.7c-0.3,0.2-0.6,0.3-0.9,0.3c-0.3,0-0.6-0.1-0.9-0.3c-0.3-0.2-0.5-0.4-0.6-0.7l-5.9-14.8
				c-0.1-0.2-0.1-0.4-0.1-0.5c0-0.4,0.2-0.7,0.5-1c0.3-0.3,0.7-0.4,1-0.4c0.6,0,1,0.3,1.2,0.8l4.9,13.1l5-13
				c0.1-0.3,0.3-0.5,0.6-0.7s0.5-0.2,0.8-0.2c0.3,0,0.6,0.1,0.8,0.2s0.4,0.4,0.5,0.7l5,12.9l4.9-13
				C514.7,342.8,515.1,342.5,515.6,342.5z"/>
			<path class="st1" d="M533.9,349.2v9.6c0,0.4-0.1,0.8-0.4,1c-0.2,0.3-0.6,0.4-1,0.4s-0.8-0.1-1-0.4c-0.3-0.3-0.4-0.6-0.4-1v-1.7
				c-0.4,1-1.1,1.8-2.1,2.4c-0.9,0.6-2,0.8-3.2,0.8c-1.1,0-2.1-0.2-3.1-0.7c-0.9-0.4-1.7-1.1-2.2-1.9c-0.5-0.8-0.8-1.7-0.8-2.7
				c0-1.3,0.3-2.3,1-3c0.7-0.7,1.7-1.2,3.3-1.6c1.5-0.3,3.6-0.5,6.3-0.5h0.8v-1.2c0-1.4-0.3-2.5-0.9-3.1c-0.6-0.7-1.5-1-2.8-1
				c-1.6,0-3.2,0.4-4.9,1.3c-0.6,0.4-1.1,0.6-1.3,0.6c-0.3,0-0.5-0.1-0.7-0.3c-0.2-0.2-0.3-0.5-0.3-0.8c0-0.3,0.1-0.6,0.3-0.9
				c0.2-0.2,0.5-0.5,1-0.8c0.8-0.5,1.8-0.8,2.8-1.1c1.1-0.3,2.1-0.4,3.1-0.4C531.7,342.4,533.9,344.7,533.9,349.2z M529.7,356.6
				c0.9-1,1.4-2.2,1.4-3.7v-1h-0.6c-2.1,0-3.7,0.1-4.7,0.3c-1.1,0.2-1.9,0.5-2.3,0.9c-0.5,0.4-0.7,1-0.7,1.8c0,0.9,0.3,1.7,1,2.3
				c0.7,0.6,1.5,0.9,2.5,0.9C527.7,358,528.8,357.6,529.7,356.6z"/>
			<path class="st1" d="M549.2,343.7c0,0.4-0.1,0.7-0.3,0.9c-0.2,0.2-0.6,0.4-1.1,0.4l-1.1,0.1c-1.6,0.1-2.8,0.7-3.5,1.7
				c-0.8,1-1.2,2.1-1.2,3.5v8.6c0,0.5-0.1,0.8-0.4,1.1c-0.3,0.2-0.6,0.4-1,0.4c-0.4,0-0.8-0.1-1-0.4c-0.3-0.2-0.4-0.6-0.4-1v-14.9
				c0-0.4,0.1-0.8,0.4-1c0.3-0.2,0.6-0.4,1-0.4c0.4,0,0.7,0.1,1,0.4c0.3,0.2,0.4,0.6,0.4,1v2c0.5-1,1.2-1.8,2.1-2.4
				c0.9-0.5,2-0.9,3.1-1l0.5,0C548.7,342.4,549.2,342.8,549.2,343.7z"/>
			<path class="st1" d="M566.2,335.3c0.3,0.3,0.4,0.6,0.4,1v22.5c0,0.4-0.1,0.8-0.4,1c-0.3,0.3-0.6,0.4-1.1,0.4
				c-0.4,0-0.8-0.1-1-0.4c-0.2-0.3-0.4-0.6-0.4-1v-1.9c-0.5,1.1-1.3,1.9-2.3,2.5c-1,0.6-2.2,0.9-3.5,0.9c-1.5,0-2.8-0.4-4-1.1
				c-1.2-0.8-2.1-1.8-2.7-3.2c-0.6-1.4-1-2.9-1-4.7c0-1.8,0.3-3.3,1-4.7c0.6-1.3,1.5-2.4,2.7-3.1c1.2-0.7,2.5-1.1,4-1.1
				c1.3,0,2.5,0.3,3.5,0.9c1,0.6,1.8,1.4,2.3,2.5v-9.5c0-0.4,0.1-0.8,0.4-1s0.6-0.4,1-0.4C565.6,334.9,565.9,335,566.2,335.3z
				 M562.3,356.2c0.9-1.1,1.4-2.8,1.4-4.9c0-2.1-0.5-3.7-1.4-4.9c-0.9-1.1-2.2-1.7-3.9-1.7s-3,0.6-3.9,1.7c-0.9,1.1-1.4,2.7-1.4,4.8
				c0,2.1,0.5,3.7,1.4,4.9s2.2,1.8,3.9,1.8S561.4,357.4,562.3,356.2z"/>
			<path class="st1" d="M574.6,359.9c-1-0.3-1.8-0.6-2.6-1.1c-0.4-0.3-0.7-0.5-0.9-0.8c-0.2-0.2-0.3-0.5-0.3-0.9
				c0-0.3,0.1-0.6,0.3-0.8c0.2-0.2,0.4-0.3,0.7-0.3c0.3,0,0.7,0.2,1.2,0.5c0.7,0.4,1.4,0.8,2.1,1s1.6,0.4,2.6,0.4
				c1.3,0,2.3-0.2,3-0.7c0.7-0.4,1.1-1.1,1.1-1.9c0-0.5-0.1-0.9-0.4-1.3c-0.3-0.3-0.7-0.6-1.3-0.8c-0.6-0.2-1.6-0.5-2.8-0.8
				c-2.1-0.4-3.6-1-4.5-1.8c-0.9-0.8-1.3-1.8-1.3-3.1c0-1,0.3-1.9,0.8-2.7c0.6-0.8,1.4-1.4,2.4-1.8c1-0.4,2.1-0.7,3.4-0.7
				c0.9,0,1.8,0.1,2.7,0.4c0.9,0.2,1.6,0.6,2.3,1c0.8,0.6,1.2,1.2,1.2,1.8c0,0.3-0.1,0.6-0.3,0.8c-0.2,0.2-0.4,0.3-0.7,0.3
				c-0.3,0-0.7-0.2-1.3-0.6c-0.7-0.4-1.3-0.8-1.9-1c-0.6-0.2-1.3-0.4-2.2-0.4c-1.1,0-2,0.2-2.7,0.7c-0.7,0.5-1,1.2-1,2
				c0,0.5,0.1,0.9,0.4,1.3c0.2,0.3,0.7,0.6,1.2,0.9c0.6,0.2,1.4,0.5,2.5,0.7c1.6,0.4,2.9,0.7,3.7,1.2c0.9,0.4,1.5,0.9,1.9,1.6
				c0.4,0.6,0.6,1.4,0.6,2.3c0,1.5-0.6,2.7-1.9,3.6c-1.3,0.9-2.9,1.4-5,1.4C576.6,360.3,575.6,360.2,574.6,359.9z"/>
		</g>
		<g>
			<path class="st1" d="M300.7,426.7c-0.5-0.5-0.8-1.2-0.8-2v-25.5c0-0.8,0.3-1.5,0.8-2c0.5-0.5,1.2-0.8,2-0.8
				c0.9,0,1.6,0.3,2.1,0.8c0.5,0.5,0.8,1.2,0.8,2v25.5c0,0.8-0.3,1.5-0.8,2c-0.5,0.5-1.2,0.8-2.1,0.8
				C301.9,427.5,301.2,427.3,300.7,426.7z"/>
			<path class="st1" d="M329.8,407.6c1.2,1.5,1.9,3.6,1.9,6.6v10.7c0,0.8-0.2,1.5-0.7,1.9c-0.5,0.5-1.1,0.7-2,0.7
				c-0.8,0-1.5-0.2-2-0.7c-0.5-0.5-0.7-1.1-0.7-1.9v-10.4c0-1.7-0.3-2.9-0.9-3.6c-0.6-0.8-1.6-1.1-2.9-1.1c-1.6,0-2.8,0.5-3.8,1.5
				c-0.9,1-1.4,2.3-1.4,4v9.7c0,0.8-0.2,1.5-0.7,1.9c-0.5,0.5-1.2,0.7-2,0.7c-0.8,0-1.5-0.2-2-0.7s-0.7-1.1-0.7-1.9v-16.8
				c0-0.8,0.2-1.4,0.7-1.8c0.5-0.5,1.2-0.7,2-0.7c0.8,0,1.4,0.2,1.8,0.7c0.5,0.5,0.7,1,0.7,1.8v1.2c0.7-1.2,1.7-2.1,2.9-2.7
				c1.2-0.6,2.6-1,4.1-1C326.6,405.5,328.5,406.2,329.8,407.6z"/>
			<path class="st1" d="M355.2,407.6c1.2,1.5,1.9,3.6,1.9,6.6v10.7c0,0.8-0.2,1.5-0.7,1.9c-0.5,0.5-1.1,0.7-2,0.7
				c-0.8,0-1.5-0.2-2-0.7c-0.5-0.5-0.7-1.1-0.7-1.9v-10.4c0-1.7-0.3-2.9-0.9-3.6c-0.6-0.8-1.6-1.1-2.9-1.1c-1.6,0-2.8,0.5-3.8,1.5
				c-0.9,1-1.4,2.3-1.4,4v9.7c0,0.8-0.2,1.5-0.7,1.9c-0.5,0.5-1.2,0.7-2,0.7c-0.8,0-1.5-0.2-2-0.7s-0.7-1.1-0.7-1.9v-16.8
				c0-0.8,0.2-1.4,0.7-1.8c0.5-0.5,1.2-0.7,2-0.7c0.8,0,1.4,0.2,1.8,0.7c0.5,0.5,0.7,1,0.7,1.8v1.2c0.7-1.2,1.7-2.1,2.9-2.7
				c1.2-0.6,2.6-1,4.1-1C352.1,405.5,354,406.2,355.2,407.6z"/>
			<path class="st1" d="M366.6,426.3c-1.6-0.9-2.9-2.2-3.8-3.9s-1.3-3.6-1.3-5.9c0-2.2,0.5-4.2,1.3-5.9c0.9-1.7,2.2-3,3.8-3.9
				c1.6-0.9,3.5-1.3,5.7-1.3s4.1,0.5,5.7,1.3c1.6,0.9,2.9,2.2,3.8,3.9c0.9,1.7,1.3,3.6,1.3,5.9c0,2.2-0.4,4.2-1.3,5.9
				s-2.1,3-3.8,3.9c-1.6,0.9-3.5,1.3-5.7,1.3S368.3,427.2,366.6,426.3z M376.3,421.7c0.9-1.2,1.4-2.9,1.4-5.1c0-2.2-0.5-3.9-1.4-5.1
				c-0.9-1.2-2.3-1.8-4-1.8c-1.7,0-3.1,0.6-4,1.8c-0.9,1.2-1.4,2.9-1.4,5.1c0,2.3,0.5,4,1.4,5.1c0.9,1.2,2.3,1.7,4,1.7
				C374.1,423.4,375.4,422.8,376.3,421.7z"/>
			<path class="st1" d="M403.1,405.9c0.4-0.3,0.8-0.4,1.3-0.4c0.7,0,1.3,0.2,1.8,0.7c0.5,0.5,0.8,1,0.8,1.7c0,0.3-0.1,0.7-0.3,1
				l-8.1,16.8c-0.3,0.6-0.6,1-1.1,1.3c-0.5,0.3-1,0.4-1.6,0.4c-0.6,0-1.1-0.1-1.6-0.4c-0.5-0.3-0.9-0.7-1.2-1.3l-8.1-16.8
				c-0.1-0.3-0.2-0.6-0.2-1c0-0.7,0.3-1.2,0.8-1.7c0.6-0.5,1.2-0.7,1.9-0.7c1,0,1.8,0.5,2.3,1.5l6.1,13.4l6-13.4
				C402.4,406.6,402.7,406.2,403.1,405.9z"/>
			<path class="st1" d="M425.7,407.7c1.4,1.5,2.2,3.7,2.2,6.7V425c0,0.8-0.2,1.4-0.7,1.8c-0.5,0.5-1.1,0.7-1.9,0.7
				c-0.8,0-1.4-0.2-1.8-0.7s-0.7-1.1-0.7-1.8v-1c-0.5,1.1-1.3,2-2.3,2.7c-1.1,0.6-2.3,1-3.7,1c-1.4,0-2.7-0.3-3.9-0.9
				c-1.2-0.6-2.1-1.4-2.7-2.4c-0.7-1-1-2.1-1-3.4c0-1.6,0.4-2.8,1.2-3.7c0.8-0.9,2.1-1.6,3.9-2s4.3-0.6,7.4-0.6h1.1v-1
				c0-1.4-0.3-2.5-0.9-3.1c-0.6-0.7-1.6-1-3-1c-0.8,0-1.7,0.1-2.6,0.4c-0.9,0.2-1.9,0.6-3.1,1.1c-0.8,0.4-1.3,0.6-1.7,0.6
				c-0.5,0-1-0.2-1.3-0.6c-0.3-0.4-0.5-0.9-0.5-1.5c0-0.5,0.1-0.9,0.4-1.3c0.2-0.4,0.7-0.7,1.2-1c1-0.6,2.2-1,3.6-1.3
				c1.4-0.3,2.8-0.5,4.2-0.5C422.1,405.5,424.3,406.2,425.7,407.7z M421.3,422.2c0.9-1,1.4-2.2,1.4-3.8v-0.9h-0.8
				c-1.9,0-3.5,0.1-4.5,0.3c-1.1,0.2-1.8,0.5-2.3,0.9c-0.5,0.4-0.7,1-0.7,1.8c0,0.9,0.3,1.7,1,2.3c0.7,0.6,1.5,0.9,2.4,0.9
				C419.2,423.7,420.4,423.2,421.3,422.2z"/>
			<path class="st1" d="M446.6,425.4c0,0.7-0.3,1.2-0.8,1.6c-0.6,0.4-1.4,0.5-2.4,0.5l-1.2-0.1c-4.9-0.3-7.3-3-7.3-7.8v-9.5h-2.2
				c-0.8,0-1.4-0.2-1.8-0.5c-0.4-0.3-0.6-0.9-0.6-1.5c0-0.7,0.2-1.2,0.6-1.5c0.4-0.3,1-0.5,1.8-0.5h2.2v-4c0-0.8,0.2-1.4,0.7-1.9
				c0.5-0.5,1.2-0.7,2-0.7c0.8,0,1.5,0.2,2,0.7c0.5,0.5,0.7,1.1,0.7,1.9v4h3.7c0.8,0,1.4,0.2,1.8,0.5c0.4,0.3,0.6,0.9,0.6,1.5
				c0,0.7-0.2,1.2-0.6,1.5c-0.4,0.3-1,0.5-1.8,0.5h-3.7v9.9c0,2.1,1,3.3,3,3.4l1.2,0.1C445.9,423.6,446.6,424.2,446.6,425.4z"/>
			<path class="st1" d="M449.8,400.9c-0.6-0.5-0.9-1.2-0.9-2.1c0-0.9,0.3-1.6,0.9-2.1c0.6-0.5,1.4-0.8,2.4-0.8c1,0,1.7,0.3,2.3,0.8
				c0.6,0.5,0.9,1.2,0.9,2.1c0,0.9-0.3,1.6-0.9,2.1c-0.6,0.5-1.4,0.8-2.3,0.8C451.2,401.7,450.4,401.4,449.8,400.9z M450.2,426.9
				c-0.5-0.5-0.8-1.1-0.8-1.9v-16.8c0-0.8,0.3-1.5,0.8-1.9c0.5-0.4,1.2-0.7,1.9-0.7s1.4,0.2,2,0.7c0.5,0.4,0.8,1.1,0.8,1.9v16.8
				c0,0.8-0.3,1.5-0.8,1.9c-0.5,0.4-1.2,0.7-2,0.7S450.7,427.3,450.2,426.9z"/>
			<path class="st1" d="M476.3,405.9c0.4-0.3,0.8-0.4,1.3-0.4c0.7,0,1.3,0.2,1.8,0.7c0.5,0.5,0.8,1,0.8,1.7c0,0.3-0.1,0.7-0.3,1
				l-8.1,16.8c-0.3,0.6-0.6,1-1.1,1.3c-0.5,0.3-1,0.4-1.6,0.4c-0.6,0-1.1-0.1-1.6-0.4c-0.5-0.3-0.9-0.7-1.2-1.3l-8.1-16.8
				c-0.1-0.3-0.2-0.6-0.2-1c0-0.7,0.3-1.2,0.8-1.7c0.6-0.5,1.2-0.7,1.9-0.7c1,0,1.8,0.5,2.3,1.5l6.1,13.4l6-13.4
				C475.6,406.6,475.9,406.2,476.3,405.9z"/>
			<path class="st1" d="M501.1,422c0.3,0.4,0.5,0.9,0.5,1.5c0,0.9-0.5,1.7-1.6,2.3c-1,0.6-2.1,1-3.4,1.3c-1.2,0.3-2.4,0.5-3.6,0.5
				c-3.4,0-6.1-1-8.1-3c-2-2-3-4.7-3-8.1c0-2.2,0.4-4.1,1.3-5.8c0.9-1.7,2.1-3,3.7-3.9s3.4-1.4,5.4-1.4c1.9,0,3.6,0.4,5,1.3
				c1.4,0.8,2.5,2,3.3,3.6s1.2,3.4,1.2,5.4c0,1.2-0.6,1.9-1.7,1.9h-12.8c0.2,2,0.7,3.5,1.7,4.4c1,0.9,2.4,1.4,4.2,1.4
				c0.9,0,1.7-0.1,2.5-0.3s1.5-0.6,2.4-1c0.9-0.5,1.5-0.7,1.9-0.7C500.4,421.4,500.8,421.6,501.1,422z M488.8,410.7
				c-0.9,0.9-1.4,2.3-1.6,4h9.8c-0.1-1.8-0.5-3.1-1.3-4c-0.8-0.9-1.9-1.4-3.4-1.4C490.9,409.3,489.7,409.8,488.8,410.7z"/>
			<path class="st1" d="M252.6,478.8c-0.5-0.5-0.7-1.1-0.7-2v-25.4c0-0.8,0.2-1.5,0.7-2c0.5-0.5,1.1-0.7,2-0.7h8.6
				c5,0,8.9,1.3,11.7,4c2.8,2.7,4.2,6.4,4.2,11.3c0,4.9-1.4,8.7-4.2,11.3c-2.8,2.7-6.7,4-11.7,4h-8.6
				C253.7,479.5,253.1,479.3,252.6,478.8z M273.4,464.1c0-7.2-3.5-10.7-10.6-10.7h-5.4v21.5h5.4
				C269.9,474.9,273.4,471.3,273.4,464.1z"/>
			<path class="st1" d="M284.5,453.1c-0.6-0.5-0.9-1.2-0.9-2.1c0-0.9,0.3-1.6,0.9-2.1c0.6-0.5,1.4-0.8,2.4-0.8c1,0,1.7,0.3,2.3,0.8
				c0.6,0.5,0.9,1.2,0.9,2.1c0,0.9-0.3,1.6-0.9,2.1c-0.6,0.5-1.4,0.8-2.3,0.8C285.9,453.9,285.1,453.6,284.5,453.1z M285,479.1
				c-0.5-0.5-0.8-1.1-0.8-1.9v-16.8c0-0.8,0.3-1.5,0.8-1.9c0.5-0.4,1.2-0.7,1.9-0.7c0.8,0,1.4,0.2,2,0.7c0.5,0.4,0.8,1.1,0.8,1.9
				v16.8c0,0.8-0.3,1.5-0.8,1.9c-0.5,0.4-1.2,0.7-2,0.7C286.1,479.8,285.5,479.5,285,479.1z"/>
			<path class="st1" d="M315.2,458.5c0.5,0.5,0.7,1.1,0.7,1.9v17.2c0,3.3-0.9,5.9-2.8,7.6c-1.9,1.7-4.6,2.6-8.2,2.6
				c-3.2,0-5.8-0.6-7.9-1.8c-1.1-0.6-1.6-1.4-1.6-2.3c0-0.6,0.2-1.1,0.5-1.5s0.7-0.6,1.2-0.6c0.3,0,0.6,0.1,1,0.2
				c0.4,0.1,0.8,0.3,1.2,0.5c1,0.4,2,0.8,2.8,1c0.8,0.2,1.8,0.3,2.9,0.3c3.8,0,5.7-1.9,5.7-5.6v-2.8c-0.6,1.2-1.6,2.1-2.8,2.8
				c-1.2,0.7-2.6,1-4.2,1c-1.9,0-3.5-0.4-4.9-1.3s-2.6-2.1-3.4-3.7s-1.2-3.4-1.2-5.5s0.4-3.9,1.2-5.5s1.9-2.9,3.4-3.7
				c1.5-0.9,3.1-1.3,5-1.3c1.6,0,3,0.3,4.2,1c1.2,0.7,2.1,1.6,2.8,2.8v-1.1c0-0.8,0.2-1.4,0.7-1.8c0.5-0.5,1.1-0.7,2-0.7
				C314.1,457.8,314.7,458,315.2,458.5z M309.1,473c1-1.1,1.5-2.7,1.5-4.7c0-2-0.5-3.6-1.5-4.7c-1-1.1-2.3-1.7-4.1-1.7
				c-1.7,0-3.1,0.6-4,1.7c-1,1.1-1.5,2.7-1.5,4.7c0,2,0.5,3.5,1.5,4.7c1,1.1,2.3,1.7,4,1.7C306.8,474.7,308.1,474.1,309.1,473z"/>
			<path class="st1" d="M321.9,453.1c-0.6-0.5-0.9-1.2-0.9-2.1c0-0.9,0.3-1.6,0.9-2.1c0.6-0.5,1.4-0.8,2.4-0.8c1,0,1.7,0.3,2.3,0.8
				c0.6,0.5,0.9,1.2,0.9,2.1c0,0.9-0.3,1.6-0.9,2.1c-0.6,0.5-1.4,0.8-2.3,0.8C323.3,453.9,322.5,453.6,321.9,453.1z M322.3,479.1
				c-0.5-0.5-0.8-1.1-0.8-1.9v-16.8c0-0.8,0.3-1.5,0.8-1.9c0.5-0.4,1.2-0.7,1.9-0.7s1.4,0.2,2,0.7c0.5,0.4,0.8,1.1,0.8,1.9v16.8
				c0,0.8-0.3,1.5-0.8,1.9c-0.5,0.4-1.2,0.7-2,0.7S322.8,479.5,322.3,479.1z"/>
			<path class="st1" d="M346.8,477.7c0,0.7-0.3,1.2-0.8,1.6c-0.6,0.4-1.4,0.5-2.4,0.5l-1.2-0.1c-4.9-0.3-7.3-3-7.3-7.8v-9.5h-2.2
				c-0.8,0-1.4-0.2-1.8-0.5c-0.4-0.3-0.6-0.9-0.6-1.5c0-0.7,0.2-1.2,0.6-1.5c0.4-0.3,1-0.5,1.8-0.5h2.2v-4c0-0.8,0.2-1.4,0.7-1.9
				c0.5-0.5,1.2-0.7,2-0.7c0.8,0,1.5,0.2,2,0.7c0.5,0.5,0.7,1.1,0.7,1.9v4h3.7c0.8,0,1.4,0.2,1.8,0.5c0.4,0.3,0.6,0.9,0.6,1.5
				c0,0.7-0.2,1.2-0.6,1.5c-0.4,0.3-1,0.5-1.8,0.5h-3.7v9.9c0,2.1,1,3.3,3,3.4l1.2,0.1C346.1,475.8,346.8,476.4,346.8,477.7z"/>
			<path class="st1" d="M365.4,459.9c1.4,1.5,2.2,3.7,2.2,6.7v10.6c0,0.8-0.2,1.4-0.7,1.8c-0.5,0.5-1.1,0.7-1.9,0.7
				c-0.8,0-1.4-0.2-1.8-0.7s-0.7-1.1-0.7-1.8v-1c-0.5,1.1-1.3,2-2.3,2.7c-1.1,0.6-2.3,1-3.7,1c-1.4,0-2.7-0.3-3.9-0.9
				c-1.2-0.6-2.1-1.4-2.7-2.4c-0.7-1-1-2.1-1-3.4c0-1.6,0.4-2.8,1.2-3.7c0.8-0.9,2.1-1.6,3.9-2s4.3-0.6,7.4-0.6h1.1v-1
				c0-1.4-0.3-2.5-0.9-3.1c-0.6-0.7-1.6-1-3-1c-0.8,0-1.7,0.1-2.6,0.4c-0.9,0.2-1.9,0.6-3.1,1.1c-0.8,0.4-1.3,0.6-1.7,0.6
				c-0.5,0-1-0.2-1.3-0.6c-0.3-0.4-0.5-0.9-0.5-1.5c0-0.5,0.1-0.9,0.4-1.3c0.2-0.4,0.7-0.7,1.2-1c1-0.6,2.2-1,3.6-1.3
				c1.4-0.3,2.8-0.5,4.2-0.5C361.8,457.7,364,458.4,365.4,459.9z M361,474.5c0.9-1,1.4-2.2,1.4-3.8v-0.9h-0.8
				c-1.9,0-3.5,0.1-4.5,0.3c-1.1,0.2-1.8,0.5-2.3,0.9c-0.5,0.4-0.7,1-0.7,1.8c0,0.9,0.3,1.7,1,2.3c0.7,0.6,1.5,0.9,2.4,0.9
				C358.9,475.9,360.1,475.4,361,474.5z"/>
			<path class="st1" d="M373.9,479.1c-0.5-0.5-0.8-1.1-0.8-1.9v-26c0-0.8,0.3-1.5,0.8-1.9c0.5-0.4,1.2-0.7,1.9-0.7s1.4,0.2,2,0.7
				c0.5,0.4,0.8,1.1,0.8,1.9v26c0,0.8-0.3,1.5-0.8,1.9c-0.5,0.4-1.2,0.7-2,0.7S374.4,479.5,373.9,479.1z"/>
			<path class="st1" d="M397.2,479c-0.5-0.5-0.8-1.2-0.8-2.1v-25.5c0-0.8,0.2-1.5,0.7-2c0.5-0.5,1.1-0.7,2-0.7h10.7
				c3.3,0,5.8,0.8,7.7,2.5c1.8,1.6,2.7,3.9,2.7,6.9s-0.9,5.3-2.7,6.9c-1.8,1.7-4.4,2.5-7.7,2.5H402v9.4c0,0.9-0.3,1.6-0.8,2.1
				c-0.5,0.5-1.2,0.8-2.1,0.8C398.4,479.8,397.7,479.5,397.2,479z M414.9,458.2c0-3.4-1.9-5-5.8-5H402v10.1h7.1
				C413,463.3,414.9,461.6,414.9,458.2z"/>
			<path class="st1" d="M437.9,458.3c0.4,0.4,0.7,0.9,0.7,1.7c0,0.8-0.2,1.4-0.6,1.7s-1.1,0.6-2,0.7l-1.3,0.1
				c-1.7,0.2-3,0.8-3.8,1.7c-0.8,1-1.2,2.2-1.2,3.7v9.1c0,0.8-0.3,1.5-0.8,1.9c-0.5,0.4-1.2,0.7-2,0.7s-1.4-0.2-1.9-0.7
				c-0.5-0.5-0.8-1.1-0.8-1.9v-16.8c0-0.8,0.3-1.4,0.8-1.9c0.5-0.4,1.1-0.7,1.9-0.7c0.8,0,1.4,0.2,1.8,0.6c0.5,0.4,0.7,1,0.7,1.8
				v1.7c0.6-1.3,1.4-2.3,2.5-3s2.3-1.1,3.6-1.2l0.6,0C436.9,457.7,437.5,457.9,437.9,458.3z"/>
			<path class="st1" d="M444.5,478.5c-1.6-0.9-2.9-2.2-3.8-3.9s-1.3-3.6-1.3-5.9c0-2.2,0.5-4.2,1.3-5.9c0.9-1.7,2.2-3,3.8-3.9
				c1.6-0.9,3.5-1.3,5.7-1.3s4.1,0.5,5.7,1.3c1.6,0.9,2.9,2.2,3.8,3.9c0.9,1.7,1.3,3.6,1.3,5.9c0,2.2-0.4,4.2-1.3,5.9
				s-2.1,3-3.8,3.9c-1.6,0.9-3.5,1.3-5.7,1.3S446.1,479.4,444.5,478.5z M454.2,473.9c0.9-1.2,1.4-2.9,1.4-5.1c0-2.2-0.5-3.9-1.4-5.1
				c-0.9-1.2-2.3-1.8-4-1.8c-1.7,0-3.1,0.6-4,1.8c-0.9,1.2-1.4,2.9-1.4,5.1c0,2.3,0.5,4,1.4,5.1c0.9,1.2,2.3,1.7,4,1.7
				C451.9,475.6,453.3,475,454.2,473.9z"/>
			<path class="st1" d="M485.3,449.3c0.5,0.5,0.8,1.1,0.8,1.8v26c0,0.8-0.2,1.4-0.7,1.9c-0.5,0.5-1.1,0.7-2,0.7s-1.5-0.2-2-0.7
				s-0.7-1.1-0.7-1.9v-1.1c-0.6,1.2-1.6,2.1-2.8,2.8c-1.2,0.7-2.6,1-4.1,1c-1.8,0-3.5-0.5-4.9-1.4c-1.4-0.9-2.6-2.2-3.4-3.9
				s-1.2-3.6-1.2-5.9c0-2.2,0.4-4.1,1.2-5.8c0.8-1.7,1.9-2.9,3.3-3.8c1.4-0.9,3.1-1.3,4.9-1.3c1.5,0,2.9,0.3,4.1,1
				c1.2,0.6,2.1,1.5,2.7,2.7V451c0-0.7,0.2-1.3,0.7-1.8c0.5-0.4,1.1-0.7,1.9-0.7S484.7,448.8,485.3,449.3z M479.2,473.8
				c0.9-1.2,1.4-2.9,1.4-5.1c0-2.2-0.5-3.9-1.4-5.1c-0.9-1.2-2.3-1.8-4-1.8c-1.7,0-3.1,0.6-4,1.7c-1,1.2-1.4,2.8-1.4,5
				c0,2.2,0.5,3.9,1.4,5.1c1,1.2,2.3,1.8,4,1.8C476.9,475.6,478.3,475,479.2,473.8z"/>
			<path class="st1" d="M510.5,458.5c0.5,0.5,0.7,1.1,0.7,1.9v16.9c0,0.8-0.3,1.4-0.8,1.8c-0.5,0.5-1.2,0.7-2,0.7
				c-0.8,0-1.4-0.2-1.9-0.7c-0.5-0.4-0.7-1-0.7-1.8v-1.1c-0.7,1.2-1.6,2.1-2.7,2.7c-1.1,0.6-2.4,0.9-3.8,0.9c-5.2,0-7.8-2.9-7.8-8.8
				v-10.7c0-0.8,0.2-1.4,0.7-1.9c0.5-0.5,1.1-0.7,2-0.7c0.8,0,1.5,0.2,2,0.7c0.5,0.5,0.7,1.1,0.7,1.9v10.8c0,1.5,0.3,2.6,0.9,3.4
				c0.6,0.7,1.6,1.1,2.9,1.1c1.5,0,2.7-0.5,3.6-1.5s1.4-2.3,1.4-4v-9.7c0-0.8,0.2-1.4,0.7-1.9c0.5-0.5,1.1-0.7,2-0.7
				C509.3,457.8,510,458,510.5,458.5z"/>
			<path class="st1" d="M520.7,478.5c-1.6-0.9-2.9-2.2-3.7-3.8c-0.9-1.7-1.3-3.6-1.3-5.8c0-2.2,0.5-4.2,1.4-5.9s2.2-3,3.9-3.9
				c1.7-0.9,3.6-1.4,5.7-1.4c1.1,0,2.3,0.2,3.4,0.5c1.1,0.3,2.2,0.8,3,1.3c0.9,0.6,1.4,1.4,1.4,2.3c0,0.6-0.2,1.2-0.5,1.5
				s-0.7,0.6-1.2,0.6c-0.3,0-0.7-0.1-1-0.2c-0.3-0.1-0.7-0.3-1-0.5c-0.6-0.4-1.2-0.7-1.8-0.9c-0.6-0.2-1.2-0.3-2-0.3
				c-1.8,0-3.2,0.6-4.2,1.8s-1.5,2.9-1.5,5.1c0,2.2,0.5,3.9,1.5,5s2.4,1.8,4.2,1.8c0.7,0,1.4-0.1,1.9-0.3c0.6-0.2,1.2-0.5,1.9-0.9
				c0.4-0.3,0.8-0.5,1.1-0.6c0.3-0.1,0.6-0.2,1-0.2c0.5,0,0.9,0.2,1.2,0.6s0.5,0.9,0.5,1.5c0,0.5-0.1,0.9-0.3,1.3
				c-0.2,0.4-0.6,0.7-1.1,1c-0.9,0.6-1.9,1-3.1,1.4c-1.2,0.3-2.4,0.5-3.7,0.5C524.2,479.8,522.3,479.4,520.7,478.5z"/>
			<path class="st1" d="M551.5,477.7c0,0.7-0.3,1.2-0.8,1.6c-0.6,0.4-1.4,0.5-2.4,0.5l-1.2-0.1c-4.9-0.3-7.3-3-7.3-7.8v-9.5h-2.2
				c-0.8,0-1.4-0.2-1.8-0.5c-0.4-0.3-0.6-0.9-0.6-1.5c0-0.7,0.2-1.2,0.6-1.5c0.4-0.3,1-0.5,1.8-0.5h2.2v-4c0-0.8,0.2-1.4,0.7-1.9
				c0.5-0.5,1.2-0.7,2-0.7c0.8,0,1.5,0.2,2,0.7c0.5,0.5,0.7,1.1,0.7,1.9v4h3.7c0.8,0,1.4,0.2,1.8,0.5c0.4,0.3,0.6,0.9,0.6,1.5
				c0,0.7-0.2,1.2-0.6,1.5c-0.4,0.3-1,0.5-1.8,0.5h-3.7v9.9c0,2.1,1,3.3,3,3.4l1.2,0.1C550.7,475.8,551.5,476.4,551.5,477.7z"/>
		</g>
	</g>
</g>
</svg>
