<?xml version="1.0" encoding="utf-8"?>
<!-- Generator: Adobe Illustrator 24.3.0, SVG Export Plug-In . SVG Version: 6.00 Build 0)  -->
<svg version="1.1" id="Layer_1" xmlns="http://www.w3.org/2000/svg" xmlns:xlink="http://www.w3.org/1999/xlink" x="0px" y="0px"
	 viewBox="0 0 480 480" style="enable-background:new 0 0 480 480;" xml:space="preserve">
<style type="text/css">
	.st0{fill:#B7E9F9;}
	.st1{fill:#87CEE9;}
	.st2{fill:#D7F7FF;}
	.st3{fill:#D3843D;}
	.st4{fill:#C65C38;}
	.st5{fill:#DA1C4B;}
	.st6{fill:#BF0443;}
	.st7{fill:#EA5471;}
	.st8{fill:#9C2D20;}
</style>
<path class="st0" d="M292.8,99.7H187.6c0,0-0.3,22.3-12.4,28.9h130.1C293.1,122,292.8,99.7,292.8,99.7z"/>
<path class="st1" d="M201.8,99.7h-14.3c0,0-0.3,22.3-12.4,28.9h14.3C201.5,122,201.8,99.7,201.8,99.7z"/>
<path class="st2" d="M332.7,126.2H147.7c-17.2,0-31.2,14-31.2,31.2v224c0,17.2,14,31.2,31.2,31.2h184.9c17.2,0,31.2-14,31.2-31.2
	v-224C363.9,140.3,349.8,126.2,332.7,126.2z"/>
<path class="st0" d="M130.5,381.4v-224c0-17.2,14-31.2,31.2-31.2h-14c-17.2,0-31.2,14-31.2,31.2v224c0,17.2,14,31.2,31.2,31.2h14
	C144.6,412.7,130.5,398.6,130.5,381.4z"/>
<path class="st0" d="M116.7,384.9c1.7,15.5,15,27.7,31,27.7h184.9c16,0,29.3-12.2,31-27.7H116.7z"/>
<path class="st1" d="M130.7,384.9h-14c1.8,15.6,15.1,27.7,31,27.7h14C145.7,412.7,132.5,400.5,130.7,384.9z"/>
<path class="st3" d="M356.7,327.4c0,31.8-25.8,57.6-57.6,57.6c-31.8,0-57.6-25.8-57.6-57.6c0-31.8,25.8-57.6,57.6-57.6
	C331,269.8,356.7,295.6,356.7,327.4z"/>
<path class="st4" d="M241.6,327.4c0,31.8,25.8,57.6,57.6,57.6c1,0,2,0,3-0.1c17.6-13.1,29-34,29-57.5s-11.4-44.4-29-57.5
	c-1-0.1-2-0.1-3-0.1C267.4,269.8,241.6,295.6,241.6,327.4z"/>
<path class="st4" d="M356,317.9c-1.7-10.2-6.1-19.5-12.4-27.2c-7.1,1.3-12.6,7.6-12.6,15.1c0,8.5,6.9,15.4,15.4,15.4
	C350,321.2,353.3,320,356,317.9z"/>
<path class="st5" d="M204.7,65H241v35.9h-36.3V65z"/>
<path class="st6" d="M204.7,86.9H241v14h-36.3V86.9z"/>
<path class="st7" d="M240.3,65h35.5v35.9h-35.5V65z"/>
<path class="st5" d="M240.3,86.9h35.5v14h-35.5V86.9z"/>
<path class="st5" d="M302.4,65h-27.2v35.9h27.2c4.1,0,7.4-3.3,7.4-7.4v-21C309.9,68.3,306.5,65,302.4,65z"/>
<path class="st6" d="M302.4,86.9h-27.2v14h27.2c4.1,0,7.4-3.3,7.4-7.4v-14C309.9,83.5,306.5,86.9,302.4,86.9z"/>
<path class="st7" d="M178,65c-4.1,0-7.4,3.3-7.4,7.4v21c0,4.1,3.3,7.4,7.4,7.4h27.4V65H178z"/>
<path class="st5" d="M170.5,79.4v14c0,4.1,3.3,7.4,7.4,7.4h27.4v-14H178C173.9,86.9,170.5,83.5,170.5,79.4z"/>
<path class="st3" d="M317.7,327.4c0,31.8-25.8,57.6-57.6,57.6c-31.8,0-57.6-25.8-57.6-57.6c0-31.8,25.8-57.6,57.6-57.6
	C291.9,269.8,317.7,295.6,317.7,327.4z"/>
<path class="st4" d="M202.6,327.4c0,32.9,27.5,59.2,60.6,57.5c17.6-13.1,29-34,29-57.5s-11.4-44.4-29-57.5c-1-0.1-2-0.1-3-0.1
	C228.4,269.8,202.6,295.6,202.6,327.4z"/>
<path class="st3" d="M277.7,327.4c0,31.8-25.8,57.6-57.6,57.6c-31.8,0-57.6-25.8-57.6-57.6c0-31.8,25.8-57.6,57.6-57.6
	C251.9,269.8,277.7,295.6,277.7,327.4z"/>
<path class="st4" d="M162.6,327.4c0,32.9,27.5,59.2,60.6,57.5c17.6-13.1,29-34,29-57.5s-11.4-44.4-29-57.5c-1-0.1-2-0.1-3-0.1
	C188.4,269.8,162.6,295.6,162.6,327.4z"/>
<path class="st4" d="M264.3,338.8c-8.4,0-15.2,6.8-15.2,15.2c0,7,4.7,12.9,11.1,14.7c7-6.8,12.4-15.4,15.2-25.1
	C272.6,340.6,268.7,338.8,264.3,338.8z"/>
<path class="st8" d="M345,305.8c0-3.4,1.1-6.5,2.9-9c-1.3-2.1-2.8-4.2-4.4-6.1c-7.1,1.3-12.5,7.6-12.5,15.1
	c0,8.5,6.9,15.4,15.4,15.4c2.5,0,4.9-0.6,7-1.7C348.4,317,345,311.8,345,305.8z"/>
<path class="st8" d="M263,354c0-5.9,3.3-11,8.2-13.5c-2.1-1.1-4.5-1.7-7-1.7c-8.4,0-15.2,6.8-15.2,15.2c0,7,4.7,12.9,11.1,14.7
	c2-1.9,3.8-4,5.5-6.1C264,360.1,263,357.2,263,354z"/>
<path class="st3" d="M238.2,327.4c0,31.8-25.8,57.6-57.6,57.6c-31.8,0-57.6-25.8-57.6-57.6c0-31.8,25.8-57.6,57.6-57.6
	C212.4,269.8,238.2,295.6,238.2,327.4z"/>
<g>
	<path class="st4" d="M137.1,327.4c0-29.4,22.1-53.7,50.6-57.1c-2.3-0.3-4.6-0.4-7-0.4c-31.8,0-57.6,25.8-57.6,57.6
		s25.8,57.6,57.6,57.6c2.4,0,4.7-0.2,7-0.4C159.1,381,137.1,356.8,137.1,327.4z"/>
	<path class="st4" d="M211.1,341.2c0,6.5-5.3,11.8-11.8,11.8c-6.5,0-11.8-5.3-11.8-11.8c0-6.5,5.3-11.8,11.8-11.8
		C205.8,329.4,211.1,334.7,211.1,341.2z"/>
	<path class="st4" d="M231.5,300.5c-5.4-10.1-13.7-18.5-23.8-23.9c-4,3.1-6.5,7.9-6.5,13.4c0,9.4,7.6,17,17,17
		C223.6,306.9,228.4,304.4,231.5,300.5z"/>
</g>
<path class="st8" d="M215.2,289.9c0-2.6,0.6-5.1,1.7-7.3c-2.8-2.3-5.9-4.3-9.1-6.1c-4,3.1-6.5,7.9-6.5,13.4c0,9.4,7.6,17,17,17
	c2.5,0,4.9-0.5,7-1.5C219.3,302.8,215.2,296.8,215.2,289.9z"/>
<path class="st4" d="M165.6,323.2c0,5.7-4.6,10.2-10.2,10.2c-5.7,0-10.2-4.6-10.2-10.2s4.6-10.2,10.2-10.2
	C161,313,165.6,317.6,165.6,323.2z"/>
<path class="st8" d="M201.7,341.2c0-3.8,1.9-7.3,4.7-9.4c-2-1.5-4.4-2.4-7.1-2.4c-6.5,0-11.8,5.3-11.8,11.8
	c0,6.5,5.3,11.8,11.8,11.8c2.7,0,5.1-0.9,7.1-2.4C203.5,348.4,201.7,345,201.7,341.2z"/>
<path class="st8" d="M159.2,323.2c0-2.9,1.2-5.5,3.2-7.4c-1.8-1.8-4.3-2.8-7.1-2.8c-5.6,0-10.2,4.6-10.2,10.2
	c0,5.7,4.6,10.2,10.2,10.2c2.7,0,5.2-1.1,7.1-2.8C160.5,328.7,159.2,326.1,159.2,323.2z"/>
<path class="st4" d="M151.4,356.9c-6.1,0-11.3,4.3-12.6,10c5.6,5.9,12.4,10.6,20,13.8C169.2,373.4,164.2,356.9,151.4,356.9z"/>
<path class="st8" d="M145.9,358.1c-3.6,1.7-6.2,4.9-7.2,8.8c9.6,10.1,20,13.8,20,13.8c1.9-1.3,3.4-3,4.4-5.1
	C156.2,371,150.4,365,145.9,358.1z"/>
<path d="M199.4,358.4c9.4,0,17-7.6,17-17c0-9.4-7.6-17-17-17c-9.4,0-17,7.6-17,17C182.4,350.7,190,358.4,199.4,358.4z M199.4,334.8
	c3.6,0,6.5,2.9,6.5,6.5c0,3.6-2.9,6.5-6.5,6.5c-3.6,0-6.5-2.9-6.5-6.5C192.9,337.7,195.8,334.8,199.4,334.8z"/>
<path d="M155.4,307.9c-8.5,0-15.5,6.9-15.5,15.5c0,8.5,6.9,15.5,15.5,15.5c8.5,0,15.5-6.9,15.5-15.5
	C170.9,314.8,164,307.9,155.4,307.9z M155.4,328.4c-2.7,0-5-2.2-5-5s2.2-5,5-5c2.7,0,5,2.2,5,5S158.2,328.4,155.4,328.4z"/>
<path d="M364,256.7c2.9,0,5.2-2.4,5.2-5.2v-93.8c0-20.1-16.4-36.5-36.5-36.5h-26.1c-4.7-2.9-7-9.6-7.9-14.9h3.8
	c7,0,12.7-5.7,12.7-12.7v-21c0-7-5.7-12.7-12.7-12.7H178.1c-7,0-12.7,5.7-12.7,12.7v21c0,7,5.7,12.7,12.7,12.7h3.8
	c-0.9,5.2-3.2,12-7.9,14.9h-26.1c-20.1,0-36.5,16.4-36.5,36.5v224c0,4,0.7,7.9,1.9,11.6c0.1,0.3,0.2,0.6,0.3,0.9
	c0,0.1,0.1,0.2,0.1,0.4c0.2,0.5,0.3,0.9,0.5,1.3c0,0,0,0,0,0.1c3.9,9.3,11.6,16.6,21,20c0,0,0,0,0,0c0.5,0.2,1,0.4,1.6,0.5
	c0.1,0,0.2,0,0.2,0.1c0.5,0.1,0.9,0.3,1.4,0.4c0.1,0,0.2,0.1,0.4,0.1c0.4,0.1,0.9,0.2,1.3,0.3c0.2,0,0.3,0.1,0.5,0.1
	c0.4,0.1,0.8,0.2,1.2,0.2c0.2,0,0.4,0.1,0.5,0.1c0.4,0.1,0.8,0.1,1.2,0.2c0.2,0,0.4,0,0.6,0.1c0.4,0,0.8,0.1,1.3,0.1
	c0.2,0,0.4,0,0.5,0c0.6,0,1.2,0,1.8,0h184.9c0.6,0,1.2,0,1.8,0c0.2,0,0.4,0,0.5,0c0.4,0,0.8-0.1,1.3-0.1c0.2,0,0.4,0,0.6-0.1
	c0.4,0,0.8-0.1,1.2-0.2c0.2,0,0.4-0.1,0.5-0.1c0.4-0.1,0.8-0.1,1.2-0.2c0.2,0,0.3-0.1,0.5-0.1c0.4-0.1,0.9-0.2,1.3-0.3
	c0.1,0,0.2-0.1,0.4-0.1c0.5-0.1,0.9-0.3,1.4-0.4c0.1,0,0.2,0,0.2-0.1c0.5-0.2,1-0.3,1.6-0.5c0,0,0,0,0,0c9.4-3.5,17.1-10.7,21-20
	c0,0,0,0,0-0.1c0.2-0.4,0.4-0.9,0.5-1.3c0-0.1,0.1-0.2,0.1-0.4c0.1-0.3,0.2-0.6,0.3-0.9c1.2-3.6,1.9-7.5,1.9-11.6V275.9
	c0-2.9-2.3-5.2-5.2-5.2s-5.2,2.3-5.2,5.2v31.4c-0.2-0.6-0.4-1.2-0.7-1.8c-0.1-0.1-0.1-0.3-0.2-0.4c-0.2-0.4-0.3-0.8-0.5-1.3
	c-0.1-0.2-0.2-0.4-0.2-0.6c-0.1-0.3-0.3-0.6-0.4-1c-0.3-0.6-0.5-1.2-0.8-1.8c0,0,0-0.1-0.1-0.1c-2.2-4.5-4.9-8.8-8.1-12.7
	c-0.1-0.1-0.2-0.3-0.4-0.4c-11.5-13.7-28.8-22.5-48.1-22.5c-6.8,0-13.4,1.1-19.8,3.2c-6.2-2.1-12.9-3.2-19.8-3.2
	c-6.8,0-13.4,1.1-19.8,3.2c-6.2-2.1-12.9-3.2-19.8-3.2c-6.8,0-13.4,1.1-19.8,3.2c-2.1-0.7-4.2-1.3-6.4-1.8c-2.8-0.6-5.6,1.2-6.2,4
	c-0.6,2.8,1.2,5.6,4,6.2c2.6,0.6,5,1.3,7.4,2.2c-2.1,3.4-3.2,7.4-3.2,11.5c0,12.3,10,22.2,22.2,22.2c4.1,0,8-1.1,11.4-3.1
	c0.9,2.3,1.6,4.6,2.1,7c0,0.1,0,0.1,0,0.2c0.1,0.6,0.3,1.2,0.4,1.8c0,0.2,0.1,0.3,0.1,0.4c0.1,0.5,0.2,1.1,0.3,1.6
	c0,0.2,0.1,0.4,0.1,0.6c0.1,0.5,0.1,1,0.2,1.5c0,0.2,0,0.4,0.1,0.7c0,0.5,0.1,1,0.1,1.6c0,0.2,0,0.4,0,0.6c0,0.7,0,1.5,0,2.2
	c0,0.8,0,1.6-0.1,2.4c0,0.3,0,0.6-0.1,0.9c0,0.5-0.1,1-0.1,1.5c0,0.4-0.1,0.7-0.1,1.1c0,0.3-0.1,0.7-0.1,1c-0.2,1.7-0.5,3.5-0.9,5.2
	l0,0c-1.5,6.5-4.3,12.6-8.1,17.9c0,0,0,0,0,0c-1,1.4-2,2.7-3,3.9c-0.3,0.3-0.6,0.7-0.8,1c-0.2,0.2-0.4,0.4-0.6,0.6
	c-0.4,0.4-0.8,0.9-1.2,1.3c-0.1,0.1-0.2,0.2-0.3,0.3c-9.5,9.4-22.5,15.2-36.9,15.2c-4.5,0-8.8-0.6-12.9-1.6c1.3-2.5,1.9-5.3,1.9-8.2
	c0-10.1-8.2-18.3-18.3-18.3c-5.3,0-10.1,2.2-13.5,5.9c-6.1-8.5-9.6-18.9-9.6-30.2c0-24.4,17.3-45.9,41.2-51.1c2.8-0.6,4.6-3.4,4-6.2
	c-0.6-2.8-3.4-4.6-6.2-4c-13.8,3-26.3,10.7-35.3,21.7c-4.4,5.4-7.8,11.4-10.2,17.8v-148c0-14.3,11.6-26,26-26h184.9
	c14.3,0,26,11.7,26,26v93.8C358.7,254.3,361.1,256.7,364,256.7z M358.7,347.8v32.1H334C345.4,372.2,354.2,361,358.7,347.8z
	 M341.8,297.1c1.2,1.7,2.4,3.5,3.4,5.4c0.1,0.1,0.1,0.2,0.2,0.3c0.3,0.6,0.6,1.2,0.9,1.8c0.1,0.2,0.2,0.4,0.3,0.6
	c0.2,0.5,0.5,1,0.7,1.5c0.1,0.3,0.3,0.6,0.4,0.9c0.2,0.4,0.3,0.8,0.5,1.3c0.2,0.4,0.3,0.8,0.5,1.2c0.1,0.3,0.2,0.7,0.4,1
	c0.2,0.5,0.3,1,0.5,1.5c0.1,0.3,0.2,0.6,0.2,0.9c0.2,0.6,0.3,1.1,0.4,1.7c0,0.1,0,0.2,0.1,0.3c-1.2,0.5-2.4,0.7-3.7,0.7
	c-5.6,0-10.1-4.5-10.1-10.1C336.4,302.2,338.5,298.8,341.8,297.1z M299.3,275.2c13.7,0,26.1,5.3,35.4,13.9c-5.4,3.8-8.8,10-8.8,16.9
	c0,11.4,9.3,20.6,20.6,20.6c1.7,0,3.4-0.2,5-0.6c0,0.5,0,1,0,1.5c0,28.8-23.5,52.3-52.3,52.3c-1.5,0-3-0.1-4.5-0.2
	c2.9-2,5.6-4.2,8.1-6.6c0.1-0.1,0.2-0.2,0.3-0.2c0.3-0.3,0.5-0.5,0.8-0.8c0.2-0.2,0.5-0.5,0.7-0.7c0.1-0.1,0.3-0.3,0.4-0.4
	c9.9-10.4,16.3-24.1,17.3-39.3c0-0.1,0-0.2,0-0.3c0-0.5,0.1-1,0.1-1.5c0-0.1,0-0.3,0-0.4c0-0.6,0-1.2,0-1.8s0-1.2,0-1.8
	c0-0.1,0-0.3,0-0.4c0-0.5,0-1-0.1-1.5c0-0.1,0-0.2,0-0.3c-1-15.2-7.4-28.9-17.3-39.3c-0.2-0.2-0.3-0.3-0.5-0.5
	c-0.2-0.2-0.4-0.4-0.6-0.6c-0.3-0.3-0.6-0.5-0.8-0.8c-0.1-0.1-0.1-0.1-0.2-0.2c-2.5-2.4-5.3-4.6-8.2-6.6
	C296.3,275.3,297.8,275.2,299.3,275.2z M259.8,275.2c14.4,0,27.4,5.8,36.9,15.2c0.1,0.1,0.2,0.2,0.3,0.3c0.4,0.4,0.8,0.8,1.2,1.3
	c0.2,0.2,0.4,0.4,0.6,0.6c0.3,0.3,0.6,0.6,0.8,1c6.5,7.6,10.7,17,12.1,27.1c0,0.3,0.1,0.7,0.1,1c0,0.4,0.1,0.7,0.1,1.1
	c0,0.5,0.1,1,0.1,1.4c0,0.3,0,0.6,0.1,0.9c0,0.8,0.1,1.6,0.1,2.4c0,0.8,0,1.6-0.1,2.4c0,0.3,0,0.6-0.1,0.9c0,0.5-0.1,1-0.1,1.4
	c0,0.4-0.1,0.7-0.1,1.1c0,0.3-0.1,0.7-0.1,1c-1.3,10.1-5.6,19.5-12.1,27.1c-0.3,0.3-0.5,0.6-0.8,1c-0.2,0.2-0.4,0.4-0.6,0.6
	c-0.4,0.4-0.8,0.8-1.2,1.3c-0.1,0.1-0.2,0.2-0.3,0.3c-9.5,9.4-22.5,15.2-36.9,15.2c-1.5,0-3-0.1-4.5-0.2c2.9-2,5.7-4.2,8.2-6.6
	c0.1,0,0.1-0.1,0.2-0.2c0,0,0,0,0,0c0.1-0.1,0.2-0.1,0.2-0.2c3.1-3,5.9-6.4,8.3-10c0-0.1,0.1-0.1,0.1-0.2c0.7-1.1,1.4-2.2,2-3.3
	c0.1-0.2,0.3-0.5,0.4-0.7c0.1-0.3,0.3-0.5,0.4-0.8c0.2-0.3,0.3-0.6,0.5-0.9c0.1-0.2,0.2-0.4,0.3-0.6c0.3-0.5,0.5-1.1,0.8-1.6
	c0,0,0-0.1,0.1-0.1c0.3-0.5,0.5-1.1,0.7-1.6c0-0.1,0.1-0.2,0.1-0.3c0.2-0.5,0.4-1,0.7-1.6c0-0.1,0-0.1,0.1-0.2
	c2.4-6,3.9-12.5,4.4-19.3c0-0.1,0-0.2,0-0.3c0-0.5,0.1-1,0.1-1.5c0-0.1,0-0.3,0-0.4c0-0.6,0-1.2,0-1.8s0-1.2,0-1.8
	c0-0.1,0-0.3,0-0.4c0-0.5,0-1-0.1-1.5c0-0.1,0-0.2,0-0.3c-1-15.2-7.4-28.9-17.3-39.3c-0.2-0.2-0.3-0.3-0.5-0.5
	c-0.2-0.2-0.4-0.4-0.6-0.6c-0.3-0.3-0.6-0.5-0.8-0.8c-0.1-0.1-0.1-0.1-0.2-0.2c-2.5-2.4-5.3-4.6-8.2-6.6
	C256.8,275.3,258.3,275.2,259.8,275.2z M254.4,354.2c0-5.5,4.5-10,10-10c1.8,0,3.5,0.5,5,1.3c-2.1,5.8-5.3,11.2-9.3,15.9
	c-0.3,0.3-0.6,0.6-0.8,1c-0.1,0.1-0.1,0.1-0.2,0.2C256.2,360.8,254.4,357.7,254.4,354.2z M218.3,301.9c-6.5,0-11.7-5.3-11.7-11.7
	c0-2.5,0.8-4.8,2.1-6.7c6.6,4.2,12.1,9.8,16.3,16.4C223.1,301.1,220.8,301.9,218.3,301.9z M224,373.1c0.1,0,0.1-0.1,0.2-0.1
	c0.3-0.3,0.6-0.6,0.9-0.9c0.2-0.2,0.4-0.4,0.6-0.6c0.2-0.2,0.4-0.4,0.5-0.6c9.9-10.4,16.3-24.1,17.3-39.3c0-0.1,0-0.2,0-0.3
	c0-0.5,0.1-1,0.1-1.5c0-0.1,0-0.3,0-0.4c0-0.6,0-1.2,0-1.8c0-0.8,0-1.6-0.1-2.4c0-0.2,0-0.5,0-0.7c0-0.6-0.1-1.2-0.1-1.9
	c0-0.2,0-0.4,0-0.6c-0.1-0.8-0.2-1.6-0.3-2.4c0-0.2,0-0.3-0.1-0.5c-0.1-0.6-0.2-1.2-0.3-1.8c0-0.3-0.1-0.6-0.2-0.9
	c-0.1-0.5-0.2-1-0.3-1.5c-0.1-0.3-0.1-0.6-0.2-0.9c-0.1-0.7-0.3-1.3-0.5-2c-0.1-0.5-0.2-0.9-0.4-1.4c-0.1-0.2-0.1-0.4-0.2-0.6
	c-1.2-4-2.7-7.8-4.6-11.5c0-0.1-0.1-0.1-0.1-0.2c-0.2-0.4-0.4-0.7-0.6-1.1c-0.1-0.2-0.2-0.4-0.3-0.6c-0.3-0.6-0.7-1.1-1-1.7
	c-0.1-0.2-0.2-0.3-0.3-0.5c-0.9-1.5-1.9-2.9-2.9-4.3c-0.1-0.1-0.2-0.2-0.2-0.3c-0.5-0.6-0.9-1.2-1.4-1.8c0,0-0.1-0.1-0.1-0.1
	c0-0.1-0.1-0.1-0.1-0.2c-0.5-0.6-1-1.2-1.5-1.8c0,0-0.1-0.1-0.1-0.1c-3-3.4-6.5-6.5-10.2-9.2c-0.1-0.1-0.2-0.1-0.3-0.2
	c-0.4-0.3-0.8-0.6-1.2-0.8c-0.1,0-0.1-0.1-0.2-0.1c1.5-0.1,3-0.2,4.5-0.2c14.4,0,27.4,5.8,36.9,15.2c0.1,0.1,0.2,0.2,0.3,0.3
	c0.4,0.4,0.8,0.9,1.2,1.3c0.2,0.2,0.4,0.4,0.5,0.6c0.3,0.3,0.6,0.7,0.9,1c1.1,1.3,2.1,2.6,3,3.9c0,0,0,0,0,0
	c4.7,6.8,7.9,14.7,9,23.1c0,0.3,0.1,0.7,0.1,1c0,0.4,0.1,0.7,0.1,1.1c0,0.5,0.1,1,0.1,1.4c0,0.3,0,0.6,0.1,0.9
	c0,0.8,0.1,1.6,0.1,2.4c0,0.8,0,1.6-0.1,2.4c0,0.3,0,0.6-0.1,0.9c0,0.5-0.1,1-0.1,1.4c0,0.4-0.1,0.7-0.1,1.1c0,0.3-0.1,0.7-0.1,1
	c0,0.3-0.1,0.5-0.1,0.8c-2.4-1-5-1.5-7.6-1.5c-11.3,0-20.5,9.2-20.5,20.5c0,6.1,2.8,11.7,7.2,15.6c-8.7,6.3-19.3,10.1-30.8,10.1
	c-1.5,0-3-0.1-4.5-0.2C218.7,377.7,221.4,375.5,224,373.1z M357.2,390.3C357.2,390.4,357.2,390.4,357.2,390.3
	c-0.1,0.2-0.1,0.3-0.2,0.5c-0.1,0.3-0.2,0.5-0.3,0.8c0,0.1-0.1,0.2-0.1,0.2c-3.1,7.3-9.5,12.9-17.3,14.9c0,0-0.1,0-0.1,0
	c-0.4,0.1-0.8,0.2-1.2,0.3c0,0,0,0,0,0c-0.4,0.1-0.8,0.2-1.2,0.2c-0.1,0-0.1,0-0.2,0c-0.3,0-0.7,0.1-1,0.1c-0.1,0-0.2,0-0.4,0
	c-0.3,0-0.6,0-0.9,0.1c-0.1,0-0.2,0-0.4,0c-0.4,0-0.8,0-1.2,0H147.8c-0.4,0-0.8,0-1.2,0c-0.1,0-0.2,0-0.4,0c-0.3,0-0.6,0-0.9-0.1
	c-0.1,0-0.2,0-0.4,0c-0.3,0-0.7-0.1-1-0.1c-0.1,0-0.1,0-0.2,0c-0.4-0.1-0.8-0.1-1.2-0.2c-0.4-0.1-0.8-0.2-1.2-0.3c0,0-0.1,0-0.1,0
	c-7.8-2-14.2-7.6-17.3-14.9c0-0.1-0.1-0.2-0.1-0.2c-0.1-0.3-0.2-0.5-0.3-0.8c0-0.1-0.1-0.3-0.1-0.4c0,0,0-0.1,0-0.1H357.2z
	 M151.5,362.3c4.3,0,7.8,3.5,7.8,7.8c0,1.6-0.5,3.2-1.4,4.5c-4.7-2.3-9-5.3-12.8-8.8C146.5,363.6,148.8,362.3,151.5,362.3z
	 M134.9,370.4c0.1,0.1,0.1,0.2,0.2,0.2c0.2,0.2,0.5,0.5,0.7,0.7c0.3,0.3,0.6,0.6,0.9,0.9c0.5,0.5,1.1,1,1.6,1.5
	c0.2,0.2,0.4,0.3,0.6,0.5c2.3,2,4.6,3.9,7.2,5.5h-24.1v-30.4C124.8,357.3,129.2,364.4,134.9,370.4z M245.7,70.4h24.4v25.4h-24.4
	V70.4z M210.7,70.4h24.4v25.4h-24.4V70.4z M178.1,95.8c-1.2,0-2.2-1-2.2-2.2v-21c0-1.2,1-2.2,2.2-2.2h22.1v25.4H178.1z M187.7,121.2
	c2.9-5.1,4.2-10.9,4.7-14.9h95.7c0.6,4,1.9,9.7,4.7,14.9H187.7z M280.6,95.8V70.4h21.9c1.2,0,2.2,1,2.2,2.2v21c0,1.2-1,2.2-2.2,2.2
	H280.6z"/>
</svg>
