<?xml version="1.0" encoding="utf-8"?>
<!-- Generator: Adobe Illustrator 24.3.0, SVG Export Plug-In . SVG Version: 6.00 Build 0)  -->
<svg version="1.1" xmlns="http://www.w3.org/2000/svg" xmlns:xlink="http://www.w3.org/1999/xlink" x="0px" y="0px"
	 viewBox="0 0 800 800" style="enable-background:new 0 0 800 800;" xml:space="preserve">
<style type="text/css">
	.st0{fill:url(#SVGID_1_);}
	.st1{fill:#FFC0BB;}
	.st2{opacity:0.2;fill:#FFC0BB;}
	.st3{fill:#EDFDFC;}
	.st4{fill:url(#SVGID_2_);}
	.st5{fill:url(#SVGID_3_);}
	.st6{fill:url(#SVGID_4_);}
	.st7{fill:url(#SVGID_5_);}
	.st8{fill:url(#SVGID_6_);}
	.st9{fill:url(#SVGID_7_);}
	.st10{fill:url(#SVGID_8_);}
	.st11{fill:#B7D972;}
	.st12{fill:#EAA0A0;}
	.st13{fill:url(#SVGID_9_);}
	.st14{fill:url(#SVGID_10_);}
	.st15{opacity:0.3;fill:#DAEEF7;}
	.st16{fill:#DAEEF7;}
	.st17{fill:#C0EFFF;}
	.st18{fill:#473B1E;}
	.st19{fill:#212121;}
	.st20{fill:#EFADAB;}
	.st21{fill:url(#SVGID_11_);}
	.st22{fill:url(#SVGID_12_);}
	.st23{fill:url(#SVGID_13_);}
	.st24{fill:url(#SVGID_14_);}
	.st25{fill:url(#SVGID_15_);}
	.st26{fill:url(#SVGID_16_);}
	.st27{fill:url(#SVGID_17_);}
	.st28{fill:url(#SVGID_18_);}
	.st29{fill:url(#SVGID_19_);}
	.st30{fill:url(#SVGID_20_);}
	.st31{fill:url(#SVGID_21_);}
	.st32{fill:url(#SVGID_22_);}
	.st33{fill:url(#SVGID_23_);}
	.st34{fill:url(#SVGID_24_);}
	.st35{fill:url(#SVGID_25_);}
	.st36{fill:url(#SVGID_26_);}
	.st37{fill:url(#SVGID_27_);}
	.st38{fill:url(#SVGID_28_);}
	.st39{fill:url(#SVGID_29_);}
	.st40{clip-path:url(#SVGID_31_);fill:url(#SVGID_32_);}
	.st41{clip-path:url(#SVGID_31_);fill:url(#SVGID_33_);}
	.st42{clip-path:url(#SVGID_31_);fill:url(#SVGID_34_);}
	.st43{clip-path:url(#SVGID_31_);fill:url(#SVGID_35_);}
	.st44{fill:#FFFFFF;}
</style>
<g id="_x2014_ÎÓÈ_x5F_2">
</g>
<g id="Layer_1">
	<g>
		
			<linearGradient id="SVGID_1_" gradientUnits="userSpaceOnUse" x1="3281.0012" y1="152.0473" x2="3502.917" y2="695.4286" gradientTransform="matrix(-1 0 0 1 3827.0583 0)">
			<stop  offset="0" style="stop-color:#53CD9F"/>
			<stop  offset="1" style="stop-color:#0D7A5C"/>
		</linearGradient>
		<path class="st0" d="M398.3,769.5c158.9-14.3,375.3-99.8,209.6-330.4c-40-55.6,76.4-103.4,10.8-191.8
			c-65.6-88.5-162.3-90-203.1-48.3c-40.8,41.7-87.7-25.5-163.4,12.3C176.6,249,158.1,325.4,182,385.1
			c23.9,59.7-74.2,116.7-86.5,184.4C83.2,637.2,194.3,799.3,398.3,769.5z"/>
		<path class="st1" d="M638.8,801.2H496.6c-7.6-18.8-13.8-49.3-35.5-57c-31.3-8-76.9-81.1-77.6-89.1l88.2-0.4
			c0,0-7.9-49.3,35.9-114.8c4.7-7,6.8-15.4,6.1-23.8l-4.2-47.8c0,0-29.8-33.3-11.5-74.6c0,0,17.5-24.2,24.4-15.3
			c0,0,52.8,125.7,57.6,144.3c4.8,18.7,11.2,30.4,4.8,89.2C571.4,688.8,610.4,735.6,638.8,801.2z"/>
		<path class="st2" d="M506.2,719.7c45-34.2,61.8,8.6,76.3-73.9c-5.2,44.7,39.9,115.8,56.4,155.5H496.6
			c-23-68.3-20.2-38.5-67.1-78.9C468.7,738.8,492.9,734.4,506.2,719.7z"/>
		<path class="st3" d="M194.9,391c0.5-2.6,3.4-4.4,6-3.6c1.4-3.1,5.3-5,8.7-3.8c3.4-6.3,13.9-5.3,16,1.6c4.1-2.4,9.7,1.2,9.1,5.9
			H194.9z"/>
		<path class="st3" d="M252.3,247.1c1.4-6.8,8.8-11.4,15.7-9.5c3.6-8.2,13.9-13,22.7-10c8.9-16.5,36.2-13.8,41.8,4.1
			c10.7-6.4,25.2,3,23.6,15.5H252.3z"/>
		<path class="st3" d="M590,344.9c1.2-5.7,7.4-9.6,13.2-8c3-6.9,11.6-10.8,19-8.4c7.5-13.8,30.3-11.6,35,3.4c9-5.3,21.1,2.5,19.8,13
			H590z"/>
		<g>
			
				<linearGradient id="SVGID_2_" gradientUnits="userSpaceOnUse" x1="3380.4771" y1="355.9161" x2="3221.4727" y2="220.0713" gradientTransform="matrix(-1 0 0 1 3827.0583 0)">
				<stop  offset="0" style="stop-color:#00503E"/>
				<stop  offset="1" style="stop-color:#023222"/>
			</linearGradient>
			<path class="st4" d="M569.1,231.9c-32.7,51.6-113.3,97.6-113.3,97.6s64.1-5.2,95.9-46.6l-11.5-9.5c0,0,9.2,0.9,16.8,1.8
				C564,263.4,568.6,249.2,569.1,231.9z"/>
			
				<linearGradient id="SVGID_3_" gradientUnits="userSpaceOnUse" x1="3380.3142" y1="245.3674" x2="3270.134" y2="304.735" gradientTransform="matrix(-1 0 0 1 3827.0583 0)">
				<stop  offset="0" style="stop-color:#C7A44F"/>
				<stop  offset="1" style="stop-color:#609A3F"/>
			</linearGradient>
			<path class="st5" d="M483.2,253.3c5,2.3,12.3,5.7,12.3,5.7l-7.1-10.2c8.3-6.4,17.3-10.7,26.3-13.5c3.7,5.3,7.9,11.3,7.9,11.3
				l0.9-13.6c24.1-5.2,45.4-1,45.4-1c-32.7,51.6-113.3,97.6-113.3,97.6C456.1,291.6,467.7,268,483.2,253.3z"/>
		</g>
		<g>
			
				<linearGradient id="SVGID_4_" gradientUnits="userSpaceOnUse" x1="3388.7" y1="260.9302" x2="3278.5198" y2="320.2978" gradientTransform="matrix(-1 0 0 1 3827.0583 0)">
				<stop  offset="0" style="stop-color:#C7A44F"/>
				<stop  offset="1" style="stop-color:#609A3F"/>
			</linearGradient>
			<path class="st6" d="M581.1,304.8c-9.6-5.7-19.4-8.7-28.9-9.9c-2.9,3.3-6.4,7.1-6.4,7.1l-0.2-7.7c-36.5-1.7-67.2,21.2-67.2,21.2
				c20.9,12.7,38.8,16.2,53.6,15.2c0.9-2.7,2.3-6.7,2.3-6.7l2.5,6.2c7.1-1,13.4-3.1,18.8-5.6c-1.3-3.2-2.7-6.9-2.7-6.9l7.8,4.3
				C574.1,314.4,581.1,304.8,581.1,304.8z"/>
			
				<linearGradient id="SVGID_5_" gradientUnits="userSpaceOnUse" x1="3367.6189" y1="370.9662" x2="3208.6138" y2="235.1208" gradientTransform="matrix(-1 0 0 1 3827.0583 0)">
				<stop  offset="0" style="stop-color:#00503E"/>
				<stop  offset="1" style="stop-color:#023222"/>
			</linearGradient>
			<path class="st7" d="M532.1,330.6c0.9-2.7,2.3-6.7,2.3-6.7l2.5,6.2c7.1-1,13.4-3.1,18.8-5.6c-1.3-3.2-2.7-6.9-2.7-6.9l7.8,4.3
				c13.3-7.6,20.3-17.2,20.3-17.2c-42.4-4.8-102.6,10.7-102.6,10.7C499.3,328.1,517.3,331.7,532.1,330.6z"/>
		</g>
		<g>
			
				<linearGradient id="SVGID_6_" gradientUnits="userSpaceOnUse" x1="3608.6553" y1="375.1511" x2="3627.6667" y2="319.1539" gradientTransform="matrix(-1 0 0 1 3827.0583 0)">
				<stop  offset="0" style="stop-color:#FB9A2B"/>
				<stop  offset="1" style="stop-color:#E65925"/>
			</linearGradient>
			<path class="st8" d="M222.1,299.5l3.1,23.2c-9.9-9.9-54-31.2-66.8-37.8c14.6,1.4,46.2,3.1,59.9,9.4
				C219.3,295.2,222.1,299.5,222.1,299.5z"/>
			
				<linearGradient id="SVGID_7_" gradientUnits="userSpaceOnUse" x1="3609.0369" y1="288.8781" x2="3693.7236" y2="298.9023" gradientTransform="matrix(-1 0 0 1 3827.0583 0)">
				<stop  offset="0" style="stop-color:#FB9A2B"/>
				<stop  offset="1" style="stop-color:#E65925"/>
			</linearGradient>
			<polygon class="st9" points="239.4,285.5 158.3,284.9 222.1,299.5 			"/>
			
				<linearGradient id="SVGID_8_" gradientUnits="userSpaceOnUse" x1="3607.856" y1="298.8545" x2="3692.5432" y2="308.8787" gradientTransform="matrix(-1 0 0 1 3827.0583 0)">
				<stop  offset="0" style="stop-color:#FB9A2B"/>
				<stop  offset="1" style="stop-color:#E65925"/>
			</linearGradient>
			<polygon class="st10" points="196.1,322.8 217.3,305.7 158.3,284.9 			"/>
		</g>
		<g>
			<g>
				<path class="st11" d="M230.5,311.5c-3.1-1.2-5.4-1.4-5.4-1.4l0.2-1.4c0.1,0,2.5,0.3,5.8,1.5L230.5,311.5z"/>
			</g>
			<g>
				<path class="st11" d="M280.9,441.9c-3.4-1.7-6.6-3.6-9.5-5.5l0.8-1.2c2.9,1.9,6,3.7,9.4,5.4L280.9,441.9z M262.6,429.6
					c-2.8-2.5-5.3-5.3-7.5-8.2l1.2-0.9c2.1,2.8,4.6,5.5,7.3,8L262.6,429.6z M249.4,412c-1.6-3.3-2.8-6.8-3.8-10.4l1.4-0.4
					c0.9,3.5,2.1,6.9,3.7,10.1L249.4,412z M245.2,390.6l-1.4,0.1c-0.3-3.5-0.4-7.1-0.4-11l1.4,0
					C244.8,383.6,244.9,387.1,245.2,390.6z M245.6,368.8l-1.4-0.1c0.3-3.2,0.8-6.7,1.4-10.9l1.4,0.2
					C246.4,362.2,245.9,365.7,245.6,368.8z M248.6,347.2l-1.4-0.2c0.6-3.8,0.8-7.5,0.5-10.8l1.4-0.1
					C249.3,339.5,249.1,343.3,248.6,347.2z M245.4,325.8c-1.4-3.4-3.4-6.3-5.9-8.7l1-1.1c2.7,2.6,4.8,5.7,6.3,9.2L245.4,325.8z"/>
			</g>
			<g>
				<path class="st11" d="M296.4,448.4c-1.9-0.6-3.7-1.3-5.5-2l0.5-1.3c1.7,0.7,3.6,1.4,5.4,2L296.4,448.4z"/>
			</g>
		</g>
		<g>
			<path class="st12" d="M303.9,294.6c0,0-30.1-20.2-37-6.9C260,301,306.1,348,306.1,348L303.9,294.6z"/>
			<path class="st12" d="M303.9,382.5c0,0-30.1-20.2-37-6.9c-6.9,13.3,39.1,60.3,39.1,60.3L303.9,382.5z"/>
			<path class="st12" d="M303.9,442.4c0,0-30.1-20.2-37-6.9c-6.9,13.3,39.1,60.3,39.1,60.3L303.9,442.4z"/>
		</g>
		
			<linearGradient id="SVGID_9_" gradientUnits="userSpaceOnUse" x1="3314.593" y1="463.3602" x2="3524.6504" y2="463.3602" gradientTransform="matrix(-1 0 0 1 3827.0583 0)">
			<stop  offset="0" style="stop-color:#00503E"/>
			<stop  offset="1" style="stop-color:#023222"/>
		</linearGradient>
		<path class="st13" d="M324.7,272c0,0,165.4,0,165.4,0c12.3,0,22.3,10,22.3,22.3c0,46.3,0,297.8,0,338.1
			c0,12.4-10.1,22.3-22.3,22.3c0,0-165.4,0-165.4,0c-12.3,0-22.3-10-22.3-22.3c0-46.3,0-297.8,0-338.1
			C302.4,281.9,312.5,272,324.7,272z"/>
		<path class="st2" d="M497.4,556.3c0,0,29.9,73.2,27,87.1c-7.4,49.8-129.7,14.2-140.9,11.8c0,0-1.9-98.8,0-103.9s82-40.6,85.1-40.6
			C471.7,510.7,497.4,556.3,497.4,556.3z"/>
		<rect x="313.2" y="302.4" class="st3" width="188.4" height="321.9"/>
		<g>
			
				<linearGradient id="SVGID_10_" gradientUnits="userSpaceOnUse" x1="3474.5581" y1="352.0284" x2="3360.4895" y2="553.2036" gradientTransform="matrix(-1 0 0 1 3827.0583 0)">
				<stop  offset="0" style="stop-color:#C9CD55"/>
				<stop  offset="0.5065" style="stop-color:#659C52"/>
				<stop  offset="1" style="stop-color:#287F50"/>
			</linearGradient>
			<path class="st14" d="M361.1,522h92.7c6.5,0,11.7-5.2,11.7-11.7V387.5c0-6.5-5.2-11.7-11.7-11.7h-92.7c-6.5,0-11.7,5.2-11.7,11.7
				v122.7C349.4,516.8,354.6,522,361.1,522z"/>
			<g>
				<path class="st3" d="M367.1,435l9.2,44.1c0.4,1.9,2,3.3,4,3.3h54.4c1.9,0,3.6-1.4,4-3.3l9.2-44.1H367.1z M429.3,476l3.1-31.3
					c0-1.2,1-2.2,2.2-2.2c1.2,0,2.2,1,2.2,2.2l-3.1,31.3C433.8,478.8,429.3,478.9,429.3,476z M418.1,476l1.2-31.3
					c0-2.9,4.5-2.9,4.5,0c0,0-1.2,31.3-1.2,31.3c0,1.2-1,2.2-2.2,2.2C419.1,478.2,418.1,477.2,418.1,476z M405.2,444.7
					c0-2.9,4.5-2.9,4.5,0c0,0,0,31.3,0,31.3c0,1.2-1,2.2-2.2,2.2c-1.2,0-2.2-1-2.2-2.2V444.7z M391,444.7c0-2.9,4.5-2.9,4.5,0
					c0,0,1.2,31.3,1.2,31.3c0,1.2-1,2.2-2.2,2.2c-1.2,0-2.2-1-2.2-2.2L391,444.7z M378,444.7c0-2.9,4.5-2.9,4.5,0
					c0,0,3.1,31.3,3.1,31.3c0,1.2-1,2.2-2.2,2.2s-2.2-1-2.2-2.2L378,444.7z"/>
				<path class="st3" d="M366.5,438.6h81.9c2,0,3.6-1.6,3.6-3.6l0,0c0-2-1.6-3.6-3.6-3.6h-81.9c-2,0-3.6,1.6-3.6,3.6l0,0
					C362.9,437,364.5,438.6,366.5,438.6z"/>
				<path class="st3" d="M431.2,431.7c0.8-6.1-2.5-12.4-9.3-12.4c0,0-28.9,0-28.9,0c-5.1,0-9.3,4.2-9.3,9.3c0,1.6,0.6,5.1-2,5.1
					c-2.7,0-1.9-3.6-2-5.3c-0.1-7.3,6.6-13.3,13.3-13.1c12.9,1.6,41.8-6.5,42.2,13.3c-0.1,1.7,0.6,5.1-2,5.1
					C432.1,433.7,431.2,432.8,431.2,431.7z"/>
			</g>
		</g>
		<path class="st11" d="M368.6,292.3H446c0.9,0,1.6-0.7,1.6-1.6c0.1-1.1-0.3-2.4-1.6-2.4c0,0-77.4,0-77.4,0
			C366.4,288.2,366.4,292.3,368.6,292.3z"/>
		<path class="st1" d="M516.2,497.1c0,0-1.1,4.2-3.7,6.3l-3.1-35.1c-10-7.9-32.7-60.7-0.6-86.8c4.9-4.3,10.3-7.2,13.5-3.1
			c0,0,24.8,59.1,42,102.3L516.2,497.1z"/>
		<g>
			<path class="st15" d="M398.3,639.8c0.2,12.2,18.3,12.2,18.5,0C416.6,627.6,398.5,627.6,398.3,639.8z"/>
			<g>
				<path class="st16" d="M403.7,642.6v-5.5c0-0.6,0.5-1.1,1.1-1.1h5.5c0.6,0,1.1,0.5,1.1,1.1v5.5c0,0.6-0.5,1.1-1.1,1.1h-5.5
					C404.2,643.7,403.7,643.2,403.7,642.6z M404.8,636.3c-0.4,0-0.8,0.4-0.8,0.8v5.5c0,0.4,0.4,0.8,0.8,0.8h5.5
					c0.4,0,0.8-0.4,0.8-0.8v-5.5c0-0.4-0.4-0.8-0.8-0.8H404.8z"/>
			</g>
		</g>
		<rect x="313.2" y="605.3" class="st11" width="188.4" height="19"/>
		<rect x="313.2" y="302.4" class="st17" width="188.4" height="17.1"/>
		<path class="st12" d="M517.9,413.1c-6.9-3.2-10.4-21-11.7-29c19.5-18.2,15.7-2.1,29.2,25.6C530.2,412.6,523,415.5,517.9,413.1z"/>
		<path class="st18" d="M597.8,717.3c-15.1,9.2-63.5,36.9-113.6,42.8c-2.9,0.3-5,3-4.1,5.4c0,0,8.8,23.4,8.8,23.4
			c12.6,6.3,81.1-10.8,122.9-41.9c1.5-1.1,2.1-2.8,1.5-4.3c0,0-8.9-23.9-8.9-23.9C603.5,716.5,600.3,715.8,597.8,717.3z"/>
		<path class="st19" d="M602.2,739.7c1-0.3,1.5-1.3,1.2-2.2c0,0-2.7-7.2-2.7-7.2c-0.3-0.9-1.3-1.3-2.2-1c-1,0.3-1.5,1.3-1.2,2.2
			c0,0,2.7,7.2,2.7,7.2C600.4,739.6,601.4,740,602.2,739.7z"/>
		<path class="st19" d="M593.2,745.3c1-0.3,1.5-1.3,1.2-2.2c0,0-2.7-7.2-2.7-7.2c-0.3-0.9-1.3-1.3-2.2-1c-1,0.3-1.5,1.3-1.2,2.2
			c0,0,2.7,7.2,2.7,7.2C591.4,745.1,592.4,745.6,593.2,745.3z"/>
		<path class="st19" d="M584.2,750.8c1-0.3,1.5-1.3,1.2-2.2c0,0-2.7-7.2-2.7-7.2c-0.3-0.9-1.3-1.3-2.2-1c-1,0.3-1.5,1.3-1.2,2.2
			c0,0,2.7,7.2,2.7,7.2C582.3,750.7,583.3,751.1,584.2,750.8z"/>
		<path class="st19" d="M574.9,755.3c1-0.3,1.5-1.3,1.2-2.2c0,0-2.7-7.2-2.7-7.2c-0.3-0.9-1.3-1.3-2.2-1c-1,0.3-1.5,1.3-1.2,2.2
			c0,0,2.7,7.2,2.7,7.2C573.1,755.1,574,755.6,574.9,755.3z"/>
		<path class="st19" d="M565.8,760.5c1-0.3,1.5-1.3,1.2-2.2c0,0-2.7-7.2-2.7-7.2c-0.3-0.9-1.3-1.3-2.2-1c-1,0.3-1.5,1.3-1.2,2.2
			c0,0,2.7,7.2,2.7,7.2C563.9,760.4,564.9,760.8,565.8,760.5z"/>
		<path class="st19" d="M556.2,764.6c1-0.3,1.5-1.3,1.2-2.2c0,0-2.7-7.2-2.7-7.2c-0.3-0.9-1.3-1.3-2.2-1c-1,0.3-1.5,1.3-1.2,2.2
			c0,0,2.7,7.2,2.7,7.2C554.4,764.5,555.4,764.9,556.2,764.6z"/>
		<path class="st19" d="M546.5,768.3c1-0.3,1.5-1.3,1.2-2.2c0,0-2.7-7.2-2.7-7.2c-0.3-0.9-1.3-1.3-2.2-1c-1,0.3-1.5,1.3-1.2,2.2
			c0,0,2.7,7.2,2.7,7.2C544.6,768.1,545.6,768.6,546.5,768.3z"/>
		<path class="st19" d="M536.6,771.4c1-0.3,1.5-1.3,1.2-2.2c0,0-2.7-7.2-2.7-7.2c-0.3-0.9-1.3-1.3-2.2-1c-1,0.3-1.5,1.3-1.2,2.2
			c0,0,2.7,7.2,2.7,7.2C534.7,771.3,535.7,771.7,536.6,771.4z"/>
		<path class="st19" d="M526.3,773.4c1-0.3,1.5-1.3,1.2-2.2c0,0-2.7-7.2-2.7-7.2c-0.3-0.9-1.3-1.3-2.2-1c-1,0.3-1.5,1.3-1.2,2.2
			c0,0,2.7,7.2,2.7,7.2C524.4,773.3,525.4,773.8,526.3,773.4z"/>
		<path class="st19" d="M516.2,776.2c1-0.3,1.5-1.3,1.2-2.2c0,0-2.7-7.2-2.7-7.2c-0.3-0.9-1.3-1.3-2.2-1c-1,0.3-1.5,1.3-1.2,2.2
			c0,0,2.7,7.2,2.7,7.2C514.4,776.1,515.3,776.5,516.2,776.2z"/>
		<path class="st19" d="M505.8,778c1-0.3,1.5-1.3,1.2-2.2c0,0-2.7-7.2-2.7-7.2c-0.3-0.9-1.3-1.3-2.2-1c-1,0.3-1.5,1.3-1.2,2.2
			c0,0,2.7,7.2,2.7,7.2C503.9,777.8,504.9,778.3,505.8,778z"/>
		<path class="st19" d="M495.3,779.7c1-0.3,1.5-1.3,1.2-2.2c0,0-2.7-7.2-2.7-7.2c-0.3-0.9-1.3-1.3-2.2-1c-1,0.3-1.5,1.3-1.2,2.2
			c0,0,2.7,7.2,2.7,7.2C493.5,779.6,494.4,780,495.3,779.7z"/>
		<path class="st3" d="M568.1,771.6l0-0.1c0.2,0,0.3-0.1,0.5-0.1l11.9-4.4c1.2-0.4,1.7-1.8,1.3-3.1L571,735.2
			c-0.5-1.3-1.8-1.9-3-1.5c-1.2,0.8-13.4,4-13.2,6c-0.9,0.4-1.9,0.8-2.8,1.2c-0.3-2.4,0.9-4.7,3.1-5.6l11.9-4.4
			c2.6-1,5.6,0.5,6.6,3.3l10.7,28.6c1,2.8-0.2,5.9-2.8,6.9l-11.9,4.4c-1.8,0.7-3.7,0.2-5.1-1.1C565.7,772.6,566.9,772.1,568.1,771.6
			z"/>
		<path class="st11" d="M570.7,748.9l5.2-1.9c0.9-0.3,2,0.2,2.3,1.2c0.4,1-0.1,2.1-1,2.4l-5.2,1.9L570.7,748.9z"/>
		<g>
			<path class="st20" d="M345.1,514.4c0,0,25.4,2.1,26.3,8.9c0.9,6.8-1.1,18.7-25.1,21h-24.9c0,0,7.4-20.6,7.1-21.4
				C328.2,522.2,345.1,514.4,345.1,514.4z"/>
			<path class="st1" d="M385.9,615.3c3.4,1.8,4.6,6.2,2.7,9.6c-11.7,20.2-58.3,100.5-62.5,107c-18.8,36.6-90,31.5-110.5,69.4H95.5
				c0,0,28.3-44.8,51.8-161.2c0,0,18.2-96.6,52.3-93.4c0,0,20.8-21.9,41.1-17.6c0,0,38.4-23,60.3-23l52.6-62.1
				c5.2-6.1,14.4-7.4,20.8-2.5c26.4,21.3-117.7,166.7-80.3,245.6c0,0,23.5-17.6,43.8-45.9C354.9,617.4,374.9,609.4,385.9,615.3z"/>
			<path class="st12" d="M300.9,506c-26.5,24-53.3,54.7-60.1,90.4l0.2,0c9.4-36,32.9-62.4,60.1-90.4L300.9,506z"/>
			<path class="st12" d="M241.1,528.8c-23,13.1-35.9,36.5-36.4,63.7l0.2,0c1.9-25.1,15-49.7,36.3-63.5L241.1,528.8z"/>
			<path class="st12" d="M200.1,546.1c-13.9,11.7-20.7,28.5-21.4,46.3l0.2,0c2.9-17.6,8.7-32.6,21.3-46.2L200.1,546.1z"/>
			<path class="st12" d="M361.7,640.1c-1.1-5.4,5.2-14,10.9-20.4c5.4-7,20.9-6.2,16,5.2c-3.1,5.4-8.8,15.2-15.5,26.7
				C368.1,649,362.7,645.1,361.7,640.1z"/>
			<path class="st12" d="M356.6,468.3c-3-0.6-16.8-5.2-16-7.7l0,0c5.6-5.5,14.9-21.6,23.9-21.5c16.4-0.2,3,19.7-2.6,27.1
				C360.8,467.9,358.7,468.7,356.6,468.3z"/>
			<path class="st2" d="M215.6,801.2H95.5c0,0,18.5-29.4,38.1-102.4c17.9,89,145.1,44.7,191.8,34
				C306.2,768.3,236.1,763.5,215.6,801.2z"/>
			<path class="st2" d="M339,524.3c-23.6,37.8-65.8,124.8-44.9,162.7l-13.9,13.7c0,0-35.1-38.8,20.7-124.5
				C314,556.3,326.9,539,339,524.3z"/>
		</g>
		
			<linearGradient id="SVGID_11_" gradientUnits="userSpaceOnUse" x1="3675.0107" y1="40.022" x2="3011.146" y2="546.7648" gradientTransform="matrix(-1 0 0 1 3827.0583 0)">
			<stop  offset="0" style="stop-color:#53CD9F"/>
			<stop  offset="1" style="stop-color:#0D7A5C"/>
		</linearGradient>
		<path class="st21" d="M656.6,399.8c4.8-29.9-40.8-30.9-38.9-1.1c-3.2,66.5,68.9,76.8,37.9,18.5
			C652.9,411.6,655.4,406.2,656.6,399.8z"/>
		
			<linearGradient id="SVGID_12_" gradientUnits="userSpaceOnUse" x1="3850.7654" y1="303.0307" x2="3200.1157" y2="799.686" gradientTransform="matrix(-1 0 0 1 3827.0583 0)">
			<stop  offset="0" style="stop-color:#53CD9F"/>
			<stop  offset="1" style="stop-color:#0D7A5C"/>
		</linearGradient>
		<path class="st22" d="M127.6,360.3c25.2-7.6,32.3,23.3,33.8,42.8c4.5,83.9-102.7,96.1-47.9,16.6
			C122,407.3,104.7,368.3,127.6,360.3z"/>
		<g>
			<g>
				<path class="st11" d="M624.2,503.6c2.5-2.2,4.6-3.2,4.6-3.2l-0.6-1.3c-0.1,0-2.2,1.1-4.9,3.4L624.2,503.6z"/>
			</g>
			<g>
				<path class="st11" d="M620.9,642.4c2.6-2.7,4.9-5.6,6.9-8.3l1.2,0.9c-2.1,2.8-4.4,5.7-7,8.5L620.9,642.4z M633.5,624.9
					c1.7-3.3,3.1-6.6,4.1-10l1.4,0.4c-1,3.4-2.4,6.9-4.2,10.2L633.5,624.9z M639.7,604.3c0.3-3.6,0.3-7.2-0.1-10.8l1.4-0.1
					c0.4,3.7,0.4,7.4,0.1,11.1L639.7,604.3z M634.2,572.6l1.3-0.5c1.4,3.7,2.6,7.1,3.5,10.5l-1.4,0.4
					C636.8,579.6,635.7,576.2,634.2,572.6z M624.8,553l1.3-0.7c2,3.8,3.6,6.9,5,9.7l-1.3,0.6C628.4,559.8,626.8,556.7,624.8,553z
					 M619.5,543.3c-1.9-3.5-3.3-6.9-4.3-10.1l1.4-0.4c0.9,3.2,2.4,6.5,4.2,9.9L619.5,543.3L619.5,543.3z M613.7,522.2
					c0.1-3.8,1-7.5,2.7-10.8l1.3,0.6c-1.6,3.2-2.4,6.6-2.6,10.2L613.7,522.2z"/>
			</g>
			<g>
				<path class="st11" d="M609.6,654.9c1.5-1.2,3-2.5,4.4-3.8l-1-1.1c-1.4,1.2-2.9,2.5-4.4,3.7L609.6,654.9z"/>
			</g>
		</g>
		<g>
			<g>
				<path class="st11" d="M611.5,135.2c2.7-2,4.8-2.9,4.8-2.9l-0.5-1.3c-0.1,0-2.3,1-5.1,3L611.5,135.2z"/>
			</g>
			<g>
				<path class="st11" d="M598.2,273.4c2.8-2.6,5.3-5.2,7.5-7.8l1.1,0.9c-2.3,2.7-4.8,5.4-7.6,8L598.2,273.4z M612,256.8
					c1.9-3.1,3.5-6.4,4.8-9.7l1.4,0.5c-1.3,3.4-2.9,6.7-4.9,9.9L612,256.8z M619.7,236.8c0.6-3.5,0.8-7.1,0.7-10.8l1.4,0
					c0.1,3.7-0.1,7.4-0.7,11L619.7,236.8z M616.5,204.7l1.4-0.4c1.2,3.8,2.1,7.2,2.7,10.7l-1.4,0.3
					C618.5,211.9,617.7,208.4,616.5,204.7z M608.5,184.5l1.3-0.6c1.8,3.9,3.1,7.1,4.3,10.1l-1.3,0.5
					C611.6,191.5,610.3,188.3,608.5,184.5z M603.9,174.4c-1.6-3.6-2.8-7.1-3.6-10.4l1.4-0.3c0.7,3.2,1.9,6.7,3.5,10.2L603.9,174.4
					L603.9,174.4z M599.6,152.9c0.4-3.8,1.6-7.4,3.5-10.6l1.2,0.7c-1.8,3-2.9,6.4-3.3,10L599.6,152.9z"/>
			</g>
			<g>
				<path class="st11" d="M586,285c1.6-1.1,3.2-2.3,4.7-3.4l-0.9-1.1c-1.5,1.1-3,2.3-4.6,3.4L586,285z"/>
			</g>
		</g>
		<g>
			
				<linearGradient id="SVGID_13_" gradientUnits="userSpaceOnUse" x1="3229.1055" y1="563.3124" x2="3169.9971" y2="473.872" gradientTransform="matrix(-1 0 0 1 3827.0583 0)">
				<stop  offset="0" style="stop-color:#FB9A2B"/>
				<stop  offset="1" style="stop-color:#E65925"/>
			</linearGradient>
			<path class="st23" d="M633.8,479.2l1.9,23.3c7.6-11.8,46.1-41.9,57.3-51.1c-14,4.4-44.5,12.8-56.5,21.9
				C635.6,474.4,633.8,479.2,633.8,479.2z"/>
			
				<linearGradient id="SVGID_14_" gradientUnits="userSpaceOnUse" x1="3163.9683" y1="439.1818" x2="3200.0037" y2="517.993" gradientTransform="matrix(-1 0 0 1 3827.0583 0)">
				<stop  offset="0" style="stop-color:#FB9A2B"/>
				<stop  offset="1" style="stop-color:#E65925"/>
			</linearGradient>
			<polygon class="st24" points="613.9,469.2 693,451.4 633.8,479.2 			"/>
			
				<linearGradient id="SVGID_15_" gradientUnits="userSpaceOnUse" x1="3150.4126" y1="445.3799" x2="3186.448" y2="524.191" gradientTransform="matrix(-1 0 0 1 3827.0583 0)">
				<stop  offset="0" style="stop-color:#FB9A2B"/>
				<stop  offset="1" style="stop-color:#E65925"/>
			</linearGradient>
			<polygon class="st25" points="664.2,496.4 639.8,484.3 693,451.4 			"/>
		</g>
		<path class="st3" d="M266.2,356.4c-1.1-5.4-7-9.1-12.5-7.5c-2.9-6.5-11-10.3-18-7.9c-7.1-13.1-28.7-11-33.1,3.2
			c-8.5-5-20,2.4-18.7,12.3H266.2z"/>
		<path class="st3" d="M536.9,216.7c-0.8-3.9-5-6.5-8.9-5.4c-2-4.6-7.9-7.3-12.9-5.7c-5-9.3-20.5-7.8-23.7,2.3
			c-6.1-3.6-14.3,1.7-13.4,8.8H536.9z"/>
		<path class="st3" d="M225.6,483.7c0,0,1.2,12.2,10.9,13c-9.6,0.8-10.9,13-10.9,13s-1.2-12.2-10.9-13
			C224.4,495.9,225.6,483.7,225.6,483.7z"/>
		<path class="st3" d="M577.4,393.5c0,0,1.2,12.2,10.9,13c-9.6,0.8-10.9,13-10.9,13s-1.2-12.2-10.9-13
			C576.1,405.7,577.4,393.5,577.4,393.5z"/>
		<path class="st3" d="M200.1,450c0,0,0.8,8.1,7.2,8.6c-6.4,0.6-7.2,8.6-7.2,8.6s-0.8-8.1-7.2-8.6C199.3,458,200.1,450,200.1,450z"
			/>
		<path class="st3" d="M557.1,365c0,0,0.8,8.1,7.2,8.6c-6.4,0.6-7.2,8.6-7.2,8.6s-0.8-8.1-7.2-8.6C556.3,373.1,557.1,365,557.1,365z
			"/>
		<path class="st3" d="M237.4,425.7c0,0,0.4,3.6,3.2,3.9c-2.8,0.2-3.2,3.9-3.2,3.9s-0.4-3.6-3.2-3.9
			C237,429.3,237.4,425.7,237.4,425.7z"/>
		<path class="st3" d="M568.8,441.2c0,0,0.4,3.6,3.2,3.9c-2.8,0.2-3.2,3.9-3.2,3.9s-0.4-3.6-3.2-3.9
			C568.4,444.8,568.8,441.2,568.8,441.2z"/>
		<g>
			<g>
				<g>
					
						<linearGradient id="SVGID_16_" gradientUnits="userSpaceOnUse" x1="3448.1252" y1="476.4523" x2="3449.5078" y2="362.7424" gradientTransform="matrix(-1 0 0 1 3827.0583 0)">
						<stop  offset="0" style="stop-color:#FB9A2B"/>
						<stop  offset="1" style="stop-color:#E65925"/>
					</linearGradient>
					<path class="st26" d="M377.3,366.6c15.4-0.7,15.7-14.2,15.1-26.2h-30.1C361.7,352.4,361.9,365.8,377.3,366.6z"/>
					
						<linearGradient id="SVGID_17_" gradientUnits="userSpaceOnUse" x1="3569.6135" y1="219.3679" x2="3325.301" y2="431.4522" gradientTransform="matrix(-1 0 0 1 3827.0583 0)">
						<stop  offset="0" style="stop-color:#C7A44F"/>
						<stop  offset="1" style="stop-color:#609A3F"/>
					</linearGradient>
					<path class="st27" d="M407.3,366.6c15.4-0.7,15.7-14.2,15.1-26.2h-30.1C391.7,352.4,392,365.8,407.3,366.6z"/>
					
						<linearGradient id="SVGID_18_" gradientUnits="userSpaceOnUse" x1="3388.0244" y1="475.7216" x2="3389.407" y2="362.0117" gradientTransform="matrix(-1 0 0 1 3827.0583 0)">
						<stop  offset="0" style="stop-color:#FB9A2B"/>
						<stop  offset="1" style="stop-color:#E65925"/>
					</linearGradient>
					<path class="st28" d="M437.4,366.6c15.4-0.7,15.7-14.2,15.1-26.2h-30.1C421.8,352.4,422.1,365.8,437.4,366.6z"/>
					
						<linearGradient id="SVGID_19_" gradientUnits="userSpaceOnUse" x1="3543.8696" y1="189.5355" x2="3299.5569" y2="401.62" gradientTransform="matrix(-1 0 0 1 3827.0583 0)">
						<stop  offset="0" style="stop-color:#C7A44F"/>
						<stop  offset="1" style="stop-color:#609A3F"/>
					</linearGradient>
					<path class="st29" d="M467.4,366.6c15.4-0.7,15.7-14.2,15.1-26.2h-30.1C451.9,352.4,452.1,365.8,467.4,366.6z"/>
					
						<linearGradient id="SVGID_20_" gradientUnits="userSpaceOnUse" x1="3327.9236" y1="474.9909" x2="3329.3062" y2="361.281" gradientTransform="matrix(-1 0 0 1 3827.0583 0)">
						<stop  offset="0" style="stop-color:#FB9A2B"/>
						<stop  offset="1" style="stop-color:#E65925"/>
					</linearGradient>
					<path class="st30" d="M497.5,366.6c15.4-0.7,15.7-14.2,15.1-26.2h-30.1C481.9,352.4,482.2,365.8,497.5,366.6z"/>
					
						<linearGradient id="SVGID_21_" gradientUnits="userSpaceOnUse" x1="3621.0718" y1="278.9982" x2="3376.759" y2="491.0826" gradientTransform="matrix(-1 0 0 1 3827.0583 0)">
						<stop  offset="0" style="stop-color:#C7A44F"/>
						<stop  offset="1" style="stop-color:#609A3F"/>
					</linearGradient>
					<path class="st31" d="M287.2,366.6c15.4-0.7,15.7-14.2,15.1-26.2h-30.1C271.6,352.4,271.9,365.8,287.2,366.6z"/>
					
						<linearGradient id="SVGID_22_" gradientUnits="userSpaceOnUse" x1="3508.1565" y1="477.182" x2="3509.5391" y2="363.4721" gradientTransform="matrix(-1 0 0 1 3827.0583 0)">
						<stop  offset="0" style="stop-color:#FB9A2B"/>
						<stop  offset="1" style="stop-color:#E65925"/>
					</linearGradient>
					<path class="st32" d="M317.2,366.6c15.4-0.7,15.7-14.2,15.1-26.2h-30.1C301.7,352.4,301.9,365.8,317.2,366.6z"/>
					
						<linearGradient id="SVGID_23_" gradientUnits="userSpaceOnUse" x1="3595.3574" y1="249.2003" x2="3351.0449" y2="461.2847" gradientTransform="matrix(-1 0 0 1 3827.0583 0)">
						<stop  offset="0" style="stop-color:#C7A44F"/>
						<stop  offset="1" style="stop-color:#609A3F"/>
					</linearGradient>
					<path class="st33" d="M347.2,366.6c15.4-0.7,15.7-14.2,15.1-26.2h-30.1C331.6,352.4,331.9,365.8,347.2,366.6z"/>
					
						<linearGradient id="SVGID_24_" gradientUnits="userSpaceOnUse" x1="3518.1257" y1="159.703" x2="3273.813" y2="371.7875" gradientTransform="matrix(-1 0 0 1 3827.0583 0)">
						<stop  offset="0" style="stop-color:#C7A44F"/>
						<stop  offset="1" style="stop-color:#609A3F"/>
					</linearGradient>
					<path class="st34" d="M527.5,366.6c15.4-0.7,15.7-14.2,15.1-26.2h-30.1C512,352.4,512.2,365.8,527.5,366.6z"/>
				</g>
				<g>
					<polygon class="st3" points="396.7,302.4 418.1,302.4 422.4,340.4 392.4,340.4 					"/>
					
						<linearGradient id="SVGID_25_" gradientUnits="userSpaceOnUse" x1="3378.3408" y1="376.7989" x2="3420.5117" y2="240.6081" gradientTransform="matrix(-1 0 0 1 3827.0583 0)">
						<stop  offset="0" style="stop-color:#FB9A2B"/>
						<stop  offset="1" style="stop-color:#E65925"/>
					</linearGradient>
					<polygon class="st35" points="418.1,302.4 439.5,302.4 452.5,340.4 422.4,340.4 					"/>
					<polygon class="st3" points="439.5,302.4 460.8,302.4 482.5,340.4 452.5,340.4 					"/>
					
						<linearGradient id="SVGID_26_" gradientUnits="userSpaceOnUse" x1="3328.0276" y1="361.2196" x2="3370.1985" y2="225.0289" gradientTransform="matrix(-1 0 0 1 3827.0583 0)">
						<stop  offset="0" style="stop-color:#FB9A2B"/>
						<stop  offset="1" style="stop-color:#E65925"/>
					</linearGradient>
					<polygon class="st36" points="460.8,302.4 482.2,302.4 512.6,340.4 482.5,340.4 					"/>
					<polygon class="st3" points="482.2,302.4 503.6,302.4 542.6,340.4 512.6,340.4 					"/>
					<polygon class="st3" points="311.4,302.4 332.8,302.4 302.3,340.4 272.2,340.4 					"/>
					
						<linearGradient id="SVGID_27_" gradientUnits="userSpaceOnUse" x1="3472.7158" y1="406.0215" x2="3514.8867" y2="269.8306" gradientTransform="matrix(-1 0 0 1 3827.0583 0)">
						<stop  offset="0" style="stop-color:#FB9A2B"/>
						<stop  offset="1" style="stop-color:#E65925"/>
					</linearGradient>
					<polygon class="st37" points="332.6,302.4 354,302.4 332.3,340.4 302.3,340.4 					"/>
					<polygon class="st3" points="354,302.4 375.4,302.4 362.3,340.4 332.3,340.4 					"/>
					
						<linearGradient id="SVGID_28_" gradientUnits="userSpaceOnUse" x1="3425.8232" y1="391.5013" x2="3467.9941" y2="255.3105" gradientTransform="matrix(-1 0 0 1 3827.0583 0)">
						<stop  offset="0" style="stop-color:#FB9A2B"/>
						<stop  offset="1" style="stop-color:#E65925"/>
					</linearGradient>
					<polygon class="st38" points="375.4,302.4 396.8,302.4 392.4,340.4 362.3,340.4 					"/>
				</g>
			</g>
		</g>
		<g>
			
				<linearGradient id="SVGID_29_" gradientUnits="userSpaceOnUse" x1="3110.9944" y1="572.0731" x2="3250.5012" y2="572.0731" gradientTransform="matrix(1 0 0 1 -2773.2981 0)">
				<stop  offset="0" style="stop-color:#FB9A2B"/>
				<stop  offset="1" style="stop-color:#E65925"/>
			</linearGradient>
			<path class="st39" d="M465.6,585.2H349.3c-8,0.1-12.5-7.5-11.5-14.9c0-6.3,5.1-11.5,11.5-11.5h116.3
				C481.1,558.7,481.1,585.5,465.6,585.2z"/>
		</g>
	</g>
	<g id="PLAY_2_">
		<defs>
			<path id="SVGID_30_" d="M711.5,118.6L693.1,108c0,0-33.7-19.4-35.6-20.6s-4-0.5-4,1.9c0,4,0,41.5,0,41.5s0,40.6,0,42.4
				c0,1.8,1.4,2.6,3.1,1.6c1.7-1,36.5-21.1,36.5-21.1l18.5-10.7c0,0,15.7-9.1,17.8-10.3c2.1-1.2,1.9-2.9,0.1-3.8
				C727.7,128,711.5,118.6,711.5,118.6z"/>
		</defs>
		<clipPath id="SVGID_31_">
			<use xlink:href="#SVGID_30_"  style="overflow:visible;"/>
		</clipPath>
		<linearGradient id="SVGID_32_" gradientUnits="userSpaceOnUse" x1="676.3443" y1="85.443" x2="676.3443" y2="176.241">
			<stop  offset="0" style="stop-color:#257DB0"/>
			<stop  offset="0.208" style="stop-color:#3C90B3"/>
			<stop  offset="0.7416" style="stop-color:#73BDB9"/>
			<stop  offset="1" style="stop-color:#89CEBC"/>
		</linearGradient>
		<polygon class="st40" points="653.5,85.4 653.5,130.8 653.5,176.2 699.2,130.8 		"/>
		<linearGradient id="SVGID_33_" gradientUnits="userSpaceOnUse" x1="653.4515" y1="107.9778" x2="711.5348" y2="107.9778">
			<stop  offset="0" style="stop-color:#51BFAC"/>
			<stop  offset="1" style="stop-color:#DEE899"/>
		</linearGradient>
		<polygon class="st41" points="711.5,118.6 693.1,108 653.5,85.1 653.5,85.4 699.2,130.8 		"/>
		<linearGradient id="SVGID_34_" gradientUnits="userSpaceOnUse" x1="682.4927" y1="130.8428" x2="682.4927" y2="176.5713">
			<stop  offset="0" style="stop-color:#EB403D"/>
			<stop  offset="0.1937" style="stop-color:#D64252"/>
			<stop  offset="0.7369" style="stop-color:#9F4887"/>
			<stop  offset="1" style="stop-color:#894A9C"/>
		</linearGradient>
		<polygon class="st42" points="653.5,176.2 653.5,176.6 693.1,153.7 711.5,143 699.2,130.8 		"/>
		<linearGradient id="SVGID_35_" gradientUnits="userSpaceOnUse" x1="715.9464" y1="118.6484" x2="715.9464" y2="143.0356">
			<stop  offset="0" style="stop-color:#F48779"/>
			<stop  offset="0.6121" style="stop-color:#FAB076"/>
			<stop  offset="1" style="stop-color:#FDC674"/>
		</linearGradient>
		<polygon class="st43" points="711.5,118.6 699.2,130.8 711.5,143 732.7,130.8 		"/>
	</g>
	<g>
		<path class="st44" d="M358.1,566.3c2.9-1.3,14.6-0.3,9.3,4.6c5.4,2.1,3.1,6.8-2.1,7c-2.2,0.3-6.4-0.3-8-0.3
			C357.5,577.3,355.7,566.3,358.1,566.3z M365.6,567.2c-2.2-0.4-7.9-2.2-7.4,1.8c0.2,1.7-0.2,2.1,1.1,2
			C361.6,571.3,371.4,570.2,365.6,567.2z M367.7,572.2c-1.8-0.9-7.2-0.3-9.1-0.1c-0.1,0.1-0.2,0.8-0.2,2.1
			C356.8,579.5,374.4,577.4,367.7,572.2z"/>
		<path class="st44" d="M371.3,567.5c2.2-1,0.7,5.3,1.9,6.5c2.1,5.8,6.9,3.3,8-1.4c0.5-1.1-0.2-3.5,0.6-4.4c1.6-0.3,0.8,1,1.3,3.3
			c-0.6,2.2,3.4,6.5,1,6.3c-2.7-4.6-1.2-4.5-3.9-0.8C374.6,582.1,370.3,572.2,371.3,567.5z"/>
		<path class="st44" d="M398.7,566.3c0.2-0.4,1.2-0.6,1.4-0.2c0.2,1.1-2.6,1.6-2.7,2.5c-0.8,2.1-1.3,5.2-2.7,7.2
			c-0.7,1.1-2.2,2.1-2.2,1c1.3-1.2,2.4-3.3,2.3-5.1c-2.9,0.3-5.6-0.2-7.9-2.4c-1-0.9-2.1-2.4-0.7-2.7c1.5,2.7,5.8,5.6,9.2,3.9
			C396.5,568.8,396.4,567,398.7,566.3z"/>
		<path class="st44" d="M420.3,571.5c5.6,5.4,5.7,5.9,5.4-2.8c-0.1-1.6,0-1.8,1.1-1.5c0.2,0.1,0.2,1.4,0.2,4
			c0.3,8.4-2.1,6.4-5.9,2.7c-1.3-1.3-4-3.6-5.5-4.7c-0.6,2.2,0.9,6,0.7,8.2c-1.5,2.6-2.1-6.8-2-7.9
			C414.5,563.3,418.1,570.5,420.3,571.5z"/>
		<path class="st44" d="M432.3,566c3.3-1.3,6.3,1.4,7.6,4.3c0.8,3.6-1.4,7.4-4.9,8.4c-4.8,1.6-7.5-4.2-7.3-8.3
			C427.9,568.4,430.5,566.8,432.3,566z M436,567c-1.6-1.9-5.5,0.4-6.6,2.1c-1.5,2.9,0,8,3.3,8.9C438.8,578.6,440.6,570.4,436,567z"
			/>
		<path class="st44" d="M440.9,568.5c1.7-0.5,1.9,3.5,2.9,4.5c2.5,5.3,2.8,0.4,4.8-2c2.2-3,3.6,3.8,5.1,4.7c0.9-0.8,1.2-3.3,2.2-4.2
			c0.1-0.5,2-3.8,2.5-2c-1.5,2.4-3.5,5.4-3.7,8.4c-1.6,1.4-3.6-5.3-4.9-6c-2.5,0.5-2,5.6-4,5.8c-1.6-1.2-2.9-4.2-3.9-5.9
			C442,570.9,439.9,569.3,440.9,568.5z"/>
	</g>
</g>
</svg>
