<?xml version="1.0" encoding="utf-8"?>
<!-- Generator: Adobe Illustrator 24.3.0, SVG Export Plug-In . SVG Version: 6.00 Build 0)  -->
<svg version="1.1" id="Layer_1" xmlns="http://www.w3.org/2000/svg" xmlns:xlink="http://www.w3.org/1999/xlink" x="0px" y="0px"
	 viewBox="0 0 32 32" enable-background="new 0 0 32 32" xml:space="preserve">
<path fill="#5A3000" d="M29.21,8.74c-0.08-0.05-0.15-0.11-0.22-0.16c-0.58-0.43-1.23-0.92-2.36-0.92c-0.47,0-1.01,0.09-1.63,0.26
	c0.2-0.76,0.34-1.69,0.26-2.62c-0.13-1.62-0.87-2.96-2.14-3.9c-0.98-0.72-2.34-1.12-3.81-1.12c-0.75,0-1.51,0.11-2.2,0.31
	c-1.37,0.4-2.31,0.96-3.23,1.91c-1.14-0.91-2.45-1.4-3.73-1.4c-0.91,0-1.8,0.25-2.56,0.72c-0.8,0.5-1.93,1.3-2.48,2.54
	c-0.66,1.5-0.66,3.11,0,4.93C5.21,9.53,5.32,9.77,5.44,10c-0.12,0.02-0.24,0.05-0.35,0.07c-1.29,0.29-2.28,0.87-2.93,1.73
	c-0.97,1.27-0.98,2.81-0.02,4.03C2.63,16.48,3.4,17,4.44,17.4c0,0.05,0,0.12,0.01,0.22c0.03,0.19,0.06,0.39,0.1,0.58
	c0.08,0.47,0.16,0.97,0.25,1.45c0.46,2.46,1.02,5.04,1.67,7.65c0.01,0.05,0.02,0.1,0.04,0.14c-0.06-0.01-0.11-0.01-0.17-0.01
	c-0.16,0-0.3,0.02-0.42,0.05c-0.46,0.08-0.69,0.35-0.8,0.56c-0.02,0.05-0.04,0.09-0.06,0.12c-0.1,0.08-0.25,0.2-0.36,0.41
	c-0.15,0.29-0.14,0.56-0.13,0.73v0.01c0.02,0.5,0.16,0.89,0.43,1.19C5.18,30.72,5.56,31,6.2,31h0.01h0.05h0
	c0.16,0.1,0.32,0.16,0.5,0.21c0.08,0.02,0.21,0.04,0.35,0.04c0.19,0,0.37-0.04,0.53-0.13c0.26-0.14,0.4-0.37,0.48-0.49
	c0.01,0,0.02-0.01,0.03-0.02c0.23-0.13,0.41-0.32,0.54-0.54c0.02-0.03,0.03-0.06,0.05-0.09c0.23,0.04,0.47,0.09,0.7,0.13l0.65,0.12
	c2.25,0.43,4.5,0.86,6.76,1.29c0.12,0.02,0.22,0.03,0.33,0.03c0.25,0,0.48-0.06,0.72-0.18c1.29-0.68,2.6-1.38,3.87-2.04
	c0.05-0.03,0.11-0.06,0.16-0.08c-0.01,0.18,0.01,0.41,0.12,0.63c0.08,0.17,0.26,0.41,0.62,0.57c0.14,0.06,0.27,0.1,0.38,0.14
	l0.06,0.02c0.02,0.01,0.05,0.02,0.07,0.02c0.13,0.04,0.28,0.1,0.46,0.12c0.05,0.01,0.1,0.01,0.15,0.01c0.18,0,0.33-0.04,0.43-0.06
	c0.02-0.01,0.05-0.01,0.07-0.02c0.03-0.01,0.06-0.01,0.09-0.01c0.11-0.02,0.27-0.04,0.44-0.11c0.06-0.03,0.12-0.05,0.18-0.09
	c0.06,0.03,0.13,0.05,0.2,0.07c0.09,0.02,0.18,0.04,0.29,0.05c0.01,0,0.02,0,0.03,0c0.13,0.05,0.27,0.08,0.4,0.08
	c0.34,0,0.65-0.17,0.83-0.46l0.01-0.02c0.05-0.05,0.13-0.11,0.2-0.2c0.3-0.39,0.29-0.91-0.02-1.27c-0.02-0.02-0.03-0.03-0.04-0.05
	c-0.02-0.05-0.06-0.12-0.1-0.18c-0.16-0.21-0.38-0.36-0.63-0.41c-0.06-0.01-0.11-0.02-0.17-0.02c-0.03,0-0.07,0-0.1,0
	c-0.01,0-0.02-0.01-0.03-0.01c-0.07-0.01-0.14-0.02-0.2-0.02c-0.01,0-0.01,0-0.02,0c-0.15-0.24-0.38-0.38-0.55-0.46
	c0,0,0.01,0,0.01-0.01c0.03-0.02,0.07-0.03,0.1-0.05c0.09-0.04,0.19-0.09,0.31-0.16c0.08,0.06,0.17,0.11,0.27,0.16
	c0.17,0.07,0.36,0.11,0.54,0.11c0.43,0,0.81-0.19,1.05-0.53c0.06-0.09,0.11-0.18,0.13-0.26c0.05-0.03,0.11-0.05,0.16-0.08
	c0.11-0.06,0.46-0.24,0.62-0.64c0.07-0.16,0.08-0.32,0.1-0.42c0-0.02,0.01-0.05,0.01-0.06c0.04-0.12,0.12-0.39,0-0.7
	c-0.11-0.3-0.35-0.46-0.42-0.51c-0.03-0.02-0.07-0.05-0.11-0.07c-0.01-0.05-0.02-0.1-0.03-0.14c-0.1-0.38-0.35-0.69-0.69-0.86
	c-0.14-0.07-0.29-0.11-0.44-0.13c0.02-0.09,0.04-0.19,0.06-0.28l0.55-2.73l0.83-4.08c0-0.01,0.01-0.02,0.01-0.03
	c0.02-0.06,0.04-0.15,0.05-0.26c1.09-0.65,2.04-1.75,2.33-3.14C30.82,11.2,30.26,9.5,29.21,8.74z"/>
<g>
	<path fill="#F8F189" d="M7.99,29.12c-0.11-0.05-0.29-0.04-0.29-0.21c0-0.19-0.08-0.35-0.18-0.5c-0.05-0.04-0.1-0.07-0.16-0.07
		c-0.12,0-0.22,0.09-0.34,0.11c-0.12,0.03-0.23-0.02-0.34-0.07c-0.06-0.03-0.12-0.06-0.18-0.07c-0.07-0.02-0.14,0-0.21,0
		c0,0,0,0,0,0c-0.1,0.03-0.2,0.05-0.3,0.08c-0.01,0.01-0.02,0.01-0.03,0.02c-0.01,0.01-0.03,0.02-0.04,0.03c0,0-0.01,0-0.01,0.01
		c0.01-0.01,0,0-0.01,0.01c0,0-0.01,0.01-0.01,0.01c0,0,0,0-0.01,0.01c0,0,0,0,0,0c-0.01,0.02-0.03,0.04-0.04,0.06
		c0,0.01,0,0.02-0.01,0.03c-0.01,0.03-0.02,0.06-0.04,0.09c-0.04,0.06-0.1,0.09-0.15,0.12c-0.01,0.01-0.03,0.01-0.04,0.02
		c-0.02,0.01-0.04,0.03-0.06,0.05c-0.04,0.04-0.06,0.09-0.08,0.14c-0.03,0.1-0.03,0.2-0.03,0.3c0.01,0.01,0.02,0.03,0.01,0.05
		c0,0.01-0.01,0.03-0.01,0.04c0,0.02,0,0.03,0,0.05c0.02,0.34,0.26,0.62,0.58,0.69c0.04-0.2,0.3-0.31,0.46-0.2
		c0.12,0.09,0,0.16-0.02,0.23c0.12-0.02,0.22-0.02,0.3,0.1c0.07,0.11,0.22,0.1,0.32,0.17c0.04-0.02,0.1,0.01,0.13-0.04
		c-0.02-0.08-0.08-0.14-0.1-0.22c-0.03-0.15-0.02-0.29,0.13-0.33c0.15-0.04,0.14,0.14,0.2,0.22c0.04-0.09,0.12-0.1,0.2-0.12
		C7.98,29.8,8.14,29.43,7.99,29.12z"/>
	<path fill="#F8F189" d="M26.83,26.22c-0.09,0.06-0.08,0.18-0.14,0.25c-0.05-0.13-0.01-0.27-0.07-0.4
		c-0.04-0.08-0.09-0.13-0.18-0.06c-0.14,0.1-0.18,0.24-0.16,0.4c0.03,0.15,0.07,0.29,0.26,0.29c-0.27,0.13-0.54,0.1-0.74-0.12
		c-0.12-0.13-0.24-0.17-0.4-0.12c0.16-0.3,0.16-0.3-0.08-0.36c0.12-0.6,0.24-1.2,0.36-1.8c0.01-0.06,0.02-0.2,0.13-0.11
		c0.17,0.14,0.3,0.06,0.45-0.02c0.06-0.03,0.12-0.05,0.17-0.07c0-0.01,0.01-0.02,0.02-0.02l0-0.01c0.06-0.02,0.12-0.02,0.18,0
		c0.26,0.2,0.43,0.43,0.36,0.78C27,24.9,27,24.95,27.05,24.96c0.16,0.02,0.29,0.16,0.46,0.14l0,0c0.09,0.24,0.1,0.47,0.01,0.71
		c-0.04,0.06-0.04,0.15-0.13,0.16l0.01,0.01l-0.02,0.01l0,0C27.2,26.06,27.01,26.15,26.83,26.22L26.83,26.22z"/>
	<path fill="#F8F189" d="M24.76,28.34c0.08,0.02,0.14,0.07,0.18,0.14C25,28.65,25,28.82,24.99,29l0,0
		c-0.07,0.05-0.11,0.12-0.08,0.19c0.05,0.12,0,0.22-0.05,0.32l0-0.01c-0.03,0.02-0.05,0.03-0.08,0.05c-0.02-0.1,0.03-0.18,0.06-0.26
		c0.02-0.05,0-0.1-0.04-0.13c-0.04-0.03-0.08,0.01-0.11,0.03c-0.17,0.12-0.16,0.29,0.02,0.42c-0.03,0.04-0.1,0.05-0.11,0.1l0,0
		c-0.05,0-0.04,0.05-0.07,0.06c-0.02,0.01-0.04,0.02-0.06,0.03l0.01,0c-0.23-0.01-0.46,0.03-0.67,0.12
		c-0.03,0.01-0.06,0.03-0.08,0.03c-0.29-0.15-0.66-0.14-0.9-0.41c-0.16-0.17-0.13-0.41,0.04-0.56c0.12-0.11,0.18-0.24,0.15-0.4
		c-0.08-0.39-0.04-0.46,0.36-0.55c0.07-0.02,0.13-0.03,0.2-0.04c0.22-0.07,0.43-0.08,0.64,0.05l-0.01,0
		c0.02,0.02,0.03,0.03,0.05,0.05l0,0c0.02,0.02,0.03,0.03,0.05,0.05l0,0c0.02,0.02,0.03,0.03,0.05,0.05l0,0
		c0.01,0.05,0.05,0.05,0.09,0.05l-0.01-0.01c0.07,0.07,0.16,0.08,0.26,0.09l0,0C24.68,28.34,24.76,28.3,24.76,28.34z M24.13,28.47
		c0.02-0.01,0.14,0.07,0.17-0.03c0.03-0.11-0.06-0.2-0.14-0.25c-0.15-0.1-0.33-0.1-0.5-0.06c-0.09,0.02-0.14,0.1-0.04,0.16
		C23.75,28.39,23.88,28.53,24.13,28.47z"/>
	<path fill="#F8F189" d="M25.85,29.83c-0.13-0.08-0.31-0.06-0.48-0.11c-0.17-0.05-0.23-0.19-0.24-0.35
		c-0.01-0.13,0.04-0.22,0.15-0.32c0.16-0.14,0.31-0.2,0.5-0.1c0.06,0.03,0.1,0.01,0.14-0.01c0.13-0.06,0.22,0.04,0.23,0.11
		c0.02,0.12,0.06,0.19,0.17,0.25c0.07,0.04,0.02,0.1,0,0.14c-0.06,0.15-0.24,0.21-0.29,0.36C26,29.85,25.93,29.83,25.85,29.83z"/>
	<path fill="#422505" d="M27.51,25.09c-0.17,0.02-0.3-0.12-0.46-0.14C27,24.95,27,24.9,27.01,24.85c0.07-0.35-0.1-0.59-0.36-0.78
		c0.3,0.13,0.4,0.38,0.4,0.69c0,0.12,0.02,0.17,0.15,0.18C27.32,24.95,27.43,25,27.51,25.09z"/>
	<path fill="#422505" d="M27.51,25.8c0.09-0.24,0.08-0.47-0.01-0.71c0.18,0.14,0.15,0.32,0.09,0.5
		C27.57,25.66,27.54,25.73,27.51,25.8z"/>
	<path fill="#422505" d="M26.83,26.23c0.18-0.09,0.37-0.17,0.55-0.26C27.25,26.18,27.06,26.24,26.83,26.23z"/>
	<path fill="#422505" d="M24.23,28.03c-0.2-0.13-0.42-0.12-0.64-0.05C23.82,27.85,24.07,27.87,24.23,28.03z"/>
	<path fill="#422505" d="M24.99,29c0.02-0.17,0.01-0.34-0.04-0.51C25.06,28.65,25.05,28.82,24.99,29z"/>
	<path fill="#422505" d="M24.86,29.5c0.06-0.1,0.1-0.19,0.05-0.32c-0.03-0.07,0.01-0.14,0.08-0.19
		C24.92,29.15,24.95,29.34,24.86,29.5z"/>
	<path fill="#422505" d="M24.61,29.71c0.01-0.06,0.07-0.07,0.11-0.1l0,0c0.03-0.01,0.06-0.02,0.07-0.06v0
		c0.03-0.02,0.05-0.03,0.08-0.05C24.82,29.62,24.74,29.69,24.61,29.71z"/>
	<path fill="#422505" d="M24.7,28.28c-0.09,0-0.19-0.02-0.26-0.09C24.53,28.22,24.62,28.22,24.7,28.28z"/>
	<path fill="#422505" d="M24.76,28.34c0-0.05-0.09,0-0.07-0.06C24.73,28.29,24.78,28.28,24.76,28.34z"/>
	<path fill="#422505" d="M24.54,29.77c0.03-0.02,0.03-0.07,0.07-0.06C24.63,29.77,24.55,29.73,24.54,29.77z"/>
	<path fill="#422505" d="M24.44,28.2c-0.04,0-0.08,0-0.09-0.05C24.4,28.14,24.42,28.17,24.44,28.2z"/>
	<polygon fill="#422505" points="24.49,29.8 24.48,29.8 24.48,29.8 	"/>
	<path fill="#422505" d="M24.28,28.07c-0.02-0.02-0.03-0.03-0.05-0.05C24.27,28.02,24.28,28.04,24.28,28.07z"/>
	<path fill="#422505" d="M24.32,28.12c-0.02-0.02-0.03-0.03-0.05-0.05C24.31,28.06,24.32,28.08,24.32,28.12z"/>
	<path fill="#422505" d="M24.36,28.16c-0.02-0.02-0.03-0.03-0.05-0.05C24.35,28.11,24.36,28.12,24.36,28.16z"/>
	<polygon fill="#422505" points="27.38,25.98 27.39,25.97 27.38,25.96 	"/>
	<path fill="#422505" d="M26.47,24.07L26.47,24.07C26.47,24.07,26.47,24.07,26.47,24.07z"/>
	<path fill="#F8F8F8" d="M12.42,28.51c0-0.82,0-1.65,0-2.47c-0.01-1.16-0.03-2.31-0.04-3.47c-0.01-1.19-0.02-2.38-0.05-3.58
		c-0.01-0.39-0.01-0.78-0.02-1.17c0-0.1,0.02-0.18,0.1-0.26c0.44-0.4,0.88-0.82,1.32-1.22c0.08-0.08,0.14-0.11,0.24,0.01
		c0.8,0.93,1.6,1.85,2.41,2.77c0.13,0.14,0.16,0.29,0.17,0.45c0.03,0.67,0.06,1.35,0.09,2.02c0.05,0.97,0.1,1.94,0.14,2.92
		c0.03,0.65,0.06,1.31,0.09,1.96c0.05,0.99,0.1,1.99,0.14,2.98c0.01,0.25,0.01,0.5,0.02,0.75c0.01,0.11-0.01,0.14-0.13,0.12
		c-1.19-0.23-2.38-0.45-3.57-0.68c-0.23-0.04-0.45-0.1-0.68-0.12c-0.17-0.02-0.22-0.09-0.22-0.26c0.01-0.25,0-0.5,0-0.75
		C12.44,28.51,12.43,28.51,12.42,28.51z"/>
	<path fill="#EDF0F6" d="M17.4,30.27c-0.05-1.18-0.1-2.33-0.15-3.47c-0.06-1.35-0.12-2.71-0.19-4.06c-0.05-1.1-0.11-2.21-0.17-3.31
		c-0.01-0.13,0.04-0.22,0.12-0.32c0.85-1.03,1.7-2.06,2.54-3.09c0.06-0.08,0.1-0.12,0.2-0.01c0.3,0.36,0.62,0.72,0.93,1.07
		c0.05,0.06,0.07,0.11,0.07,0.18c0.01,0.73,0.03,1.46,0.04,2.2c0.03,1.24,0.05,2.48,0.08,3.72c0.02,0.77,0.04,1.55,0.06,2.32
		c0.02,0.94,0.04,1.88,0.07,2.82c0,0.07,0.02,0.12-0.07,0.17C19.76,29.07,18.59,29.66,17.4,30.27z"/>
	<path fill="#F8F8F8" d="M5.78,18.25c0.85,0.51,1.68,1,2.51,1.5c0.25,0.15,0.5,0.31,0.75,0.45c0.1,0.06,0.15,0.13,0.16,0.24
		c0.38,2.43,0.75,4.86,1.13,7.29c0.07,0.46,0.14,0.92,0.21,1.39c-0.81-0.16-1.61-0.31-2.41-0.46c-0.11-0.02-0.12-0.1-0.14-0.18
		c-0.49-1.88-0.94-3.77-1.35-5.66c-0.32-1.49-0.61-2.98-0.87-4.48C5.78,18.32,5.78,18.3,5.78,18.25z"/>
	<path fill="#EDF0F6" d="M26.8,16.64c-0.15,0.78-0.3,1.57-0.45,2.36c-0.47,2.4-0.94,4.8-1.41,7.2c-0.03,0.18-0.11,0.28-0.28,0.37
		c-0.56,0.27-1.12,0.57-1.67,0.85c-0.06,0.03-0.11,0.08-0.21,0.06c0-0.06,0-0.13,0-0.2c0-2.67,0-5.35,0-8.02
		c0-0.16,0.05-0.24,0.18-0.33c1.23-0.76,2.46-1.53,3.69-2.29c0.03-0.02,0.08-0.03,0.11-0.05C26.78,16.6,26.79,16.62,26.8,16.64z"/>
	<path fill="#EB4235" d="M11.98,18.07c0.02,0.26,0.04,0.51,0.04,0.76c0.01,1.06-0.01,2.12,0.02,3.18c0.03,1.23,0.02,2.46,0.04,3.68
		c0.03,1.16,0.03,2.32,0.04,3.47c0,0.16-0.03,0.21-0.2,0.17c-0.3-0.07-0.6-0.12-0.9-0.18c-0.09-0.02-0.12-0.06-0.14-0.15
		c-0.24-1.56-0.48-3.12-0.72-4.69c-0.2-1.29-0.4-2.57-0.6-3.86c-0.02-0.12-0.01-0.2,0.08-0.28c0.76-0.7,1.52-1.4,2.28-2.1
		C11.93,18.08,11.95,18.08,11.98,18.07z"/>
	<g>
		<path fill="#EB4235" d="M22.01,27.9C22.01,27.91,22.01,27.91,22.01,27.9C22.01,27.91,22.01,27.9,22.01,27.9z"/>
		<path fill="#EB4235" d="M21.92,27.95C21.92,27.95,21.92,27.95,21.92,27.95C21.92,27.95,21.93,27.95,21.92,27.95z"/>
	</g>
	<path fill="#F8F189" d="M6.37,16.85c-0.05-0.1-0.09-0.17-0.22-0.18c-0.25-0.02-0.49-0.09-0.74-0.11c-0.31-0.02-0.59-0.15-0.9-0.18
		c0.05,0.03,0.11,0.06,0.16,0.09c0.45,0.24,0.95,0.29,1.43,0.41c0.02,0,0.05,0.01,0.07,0.01c0.03,0,0.05,0.01,0.07,0.03
		c0.02,0.02,0.05,0.03,0.07,0.06c0.05,0.06,0.07,0.14,0.07,0.22c0,0.08-0.02,0.16-0.04,0.23c-0.02,0.07-0.06,0.13-0.12,0.17
		c-0.1,0.24-0.04,0.33,0.19,0.49C6.58,17.68,6.56,17.26,6.37,16.85z"/>
	<path fill="#F8F3B4" d="M26.55,26.7c-0.19,0-0.24-0.14-0.26-0.29c-0.03-0.16,0.02-0.3,0.16-0.4c0.08-0.06,0.13-0.02,0.18,0.06
		c0.06,0.13,0.02,0.27,0.07,0.4v0c-0.11,0.03-0.12,0.1-0.09,0.19C26.58,26.68,26.57,26.69,26.55,26.7z"/>
	<path fill="#F8F3B4" d="M25.34,26.09c0.24,0.07,0.24,0.07,0.08,0.36c-0.08,0.04-0.17,0.08-0.14-0.08
		C25.3,26.28,25.32,26.19,25.34,26.09z"/>
	<path fill="#F8F189" d="M6.87,10.55c0.08,0.05,0.17,0.13,0.14,0.2c-0.05,0.11-0.18,0.03-0.27,0.05
		C6.78,10.72,6.82,10.63,6.87,10.55z"/>
	<path fill="#F8F189" d="M26.6,26.67c-0.02-0.09-0.02-0.17,0.09-0.19C26.67,26.55,26.68,26.63,26.6,26.67z"/>
	<path fill="#EDF0F6" d="M26.77,16.58c0.01-0.03,0.04-0.05,0.06-0.02c0.02,0.02,0.01,0.06-0.02,0.08
		C26.79,16.62,26.78,16.6,26.77,16.58z"/>
	<path fill="#F8F189" d="M13.75,3.63c-0.02-0.02-0.03-0.03-0.05-0.04C13.72,3.6,13.74,3.62,13.75,3.63z"/>
	<path fill="#F8F189" d="M13.8,3.65c-0.03,0.01-0.05,0-0.05-0.03C13.77,3.64,13.78,3.65,13.8,3.65z"/>
	<path fill="#F8F189" d="M13.85,3.7c-0.03,0.01-0.05,0-0.04-0.04C13.82,3.67,13.83,3.69,13.85,3.7z"/>
	<path fill="#F8F8F8" d="M23.74,9.18c-0.02,0.01-0.03,0.01-0.04,0.02c0-0.02,0-0.03,0.01-0.05C23.72,9.16,23.73,9.17,23.74,9.18z"/>
	<path fill="#F8F3B4" d="M7.45,30.1c-0.08,0.08-0.07,0.26-0.25,0.25c-0.02-0.08-0.08-0.14-0.1-0.22c-0.03-0.15-0.02-0.29,0.13-0.33
		c0.15-0.04,0.14,0.14,0.2,0.22C7.44,30.05,7.45,30.08,7.45,30.1z"/>
	<path fill="#F8F3B4" d="M6.45,30.13c-0.11,0.05-0.23,0.06-0.34,0.01c-0.01-0.05-0.04-0.06-0.09-0.05H6.01
		c0.04-0.2,0.3-0.31,0.46-0.2C6.6,29.98,6.47,30.05,6.45,30.13z"/>
	<path fill="#F8F3B4" d="M24.13,28.47c-0.25,0.06-0.38-0.08-0.52-0.18c-0.09-0.06-0.05-0.14,0.04-0.16c0.17-0.05,0.35-0.04,0.5,0.06
		c0.09,0.06,0.18,0.14,0.14,0.25C24.27,28.54,24.15,28.46,24.13,28.47z"/>
	<path fill="#F8F3B4" d="M24.71,29.61c-0.18-0.13-0.19-0.3-0.02-0.42c0.03-0.02,0.07-0.06,0.11-0.03c0.04,0.03,0.06,0.07,0.04,0.13
		c-0.02,0.09-0.08,0.16-0.06,0.26v0C24.74,29.54,24.7,29.54,24.71,29.61L24.71,29.61z"/>
	<path fill="#F8F189" d="M6.02,30.09c0.04-0.01,0.08,0,0.09,0.05C6.07,30.14,6.03,30.14,6.02,30.09z"/>
	<path fill="#F8F189" d="M24.72,29.6c-0.01-0.06,0.03-0.06,0.07-0.06C24.78,29.58,24.75,29.59,24.72,29.6z"/>
	<path fill="#422505" d="M12.47,9.58c0.71,0.19,1.41,0.3,2.12,0.29c0.83,0,1.64-0.2,2.43-0.43c0.26-0.07,0.52-0.16,0.77-0.25
		c0.08-0.03,0.13-0.05,0.13,0.07c0.01,1.22-0.35,2.27-1.45,2.94c-1.11,0.68-2.56,0.33-3.32-0.76C12.79,10.92,12.54,10.24,12.47,9.58
		z M17.52,9.71c-0.11-0.02-0.2,0.03-0.3,0.06c-1.19,0.35-2.39,0.6-3.64,0.4c-0.2-0.03-0.41-0.06-0.63-0.09
		c0.08,0.37,0.22,0.7,0.42,0.99c0.49,0.75,1.17,1.17,2.11,1.07C16.75,12,17.51,10.78,17.52,9.71c0,0,0.01,0,0.01-0.01
		c0,0,0-0.01,0-0.01C17.53,9.7,17.52,9.71,17.52,9.71z"/>
	<path fill="#422505" d="M9.74,8.18C9.71,8,9.71,7.81,9.76,7.63c0.13-0.44,0.54-0.58,0.92-0.32c0.38,0.27,0.61,0.88,0.49,1.34
		c-0.13,0.46-0.55,0.62-0.94,0.34c-0.13-0.09-0.24-0.21-0.3-0.36c0.03,0,0.07,0,0.1,0c0.15,0.01,0.26-0.05,0.3-0.2
		c0.04-0.13,0.02-0.27-0.12-0.35C10.07,7.99,9.94,8,9.82,8.12C9.79,8.15,9.76,8.16,9.74,8.18z"/>
	<path fill="#422505" d="M18.95,7.53c0-0.08-0.01-0.16,0-0.23c0.07-0.29,0.18-0.55,0.51-0.62c0.26-0.06,0.54,0.1,0.71,0.41
		c0.22,0.41,0.26,0.83,0.04,1.25c-0.2,0.36-0.59,0.41-0.9,0.14c-0.15-0.14-0.25-0.32-0.32-0.51c0.27,0.09,0.45,0.04,0.5-0.15
		c0.04-0.13,0.02-0.25-0.09-0.34C19.24,7.36,19.09,7.42,18.95,7.53z"/>
	<path fill="#FFFFFF" d="M18.95,7.53c0.14-0.11,0.29-0.17,0.45-0.04c0.11,0.09,0.13,0.21,0.09,0.34c-0.05,0.19-0.23,0.24-0.5,0.15
		C18.89,7.83,18.87,7.69,18.95,7.53z"/>
	<path fill="#FFFFFF" d="M9.74,8.18c0.03-0.02,0.06-0.04,0.08-0.06c0.12-0.12,0.26-0.13,0.4-0.05c0.13,0.08,0.16,0.21,0.12,0.35
		c-0.04,0.15-0.15,0.21-0.3,0.2c-0.03,0-0.07,0-0.1,0C9.76,8.52,9.69,8.37,9.74,8.18z"/>
	<path fill="#EB4235" d="M17.52,9.71c0,1.06-0.76,2.29-2.04,2.44c-0.93,0.11-1.61-0.31-2.11-1.07c-0.19-0.3-0.33-0.62-0.42-0.99
		c0.22,0.03,0.42,0.06,0.63,0.09c1.25,0.2,2.45-0.05,3.64-0.4C17.32,9.75,17.41,9.69,17.52,9.71L17.52,9.71z"/>
	<path fill="#EB4235" d="M17.52,9.71c0-0.01,0.01-0.01,0.01-0.02c0,0,0,0.01,0,0.01C17.53,9.71,17.52,9.71,17.52,9.71
		C17.52,9.71,17.52,9.71,17.52,9.71z"/>
	<path fill="#EB4235" d="M22.51,27.48c0-0.03,0-0.07,0-0.1c0-2.67,0-5.33,0-8c0-0.17-0.05-0.29-0.16-0.41
		c-0.29-0.32-0.56-0.65-0.85-0.97c-0.15-0.16-0.27-0.35-0.47-0.5c0.02,0.46,0.01,0.88,0.03,1.3c0.03,0.58,0.03,1.17,0.04,1.75
		c0.03,1.26,0.05,2.52,0.09,3.78c0.02,0.8,0.03,1.6,0.05,2.41c0.01,0.45,0.03,0.89,0.04,1.34c0,0.14,0.05,0.18,0.17,0.12
		c0.11-0.05,0.21-0.11,0.31-0.16c0.04-0.01,0.08-0.02,0.12-0.04c0.05-0.02,0.1-0.05,0.15-0.07c0.1-0.05,0.19-0.09,0.29-0.14
		c0.09-0.04,0.21-0.08,0.2-0.2C22.51,27.56,22.51,27.52,22.51,27.48z"/>
	<path fill="#5A3000" d="M28.76,9.35c-1.09-0.79-1.73-1.56-5.02-0.17c-0.02,0.01-0.03,0.01-0.04,0.02c0-0.02,0-0.03,0.01-0.05
		c0.24-0.25,2.25-4.73-1.02-7.14c-1.43-1.05-3.63-1.2-5.34-0.69c-1.38,0.41-2.28,0.98-3.22,2.06c-0.07,0.09-0.07,0.27-0.22,0.13
		c-1.95-1.86-4.25-2.07-5.9-1.05c-0.81,0.5-1.75,1.21-2.18,2.2C5.17,6.11,5.3,7.59,5.83,9.03C6,9.52,6.28,9.99,6.54,10.43
		c0.12,0.21,0.21,0.16-0.02,0.18c-0.42,0.03-0.87,0.11-1.28,0.2c-0.96,0.22-1.88,0.64-2.5,1.45c-0.65,0.85-0.87,2.04-0.03,3.11
		c1.06,1.35,3.42,1.73,3.45,1.77c-0.09,0.22-0.2,0.43-0.32,0.63c-0.01,0-0.01-0.01-0.02-0.01c-0.21-0.13-0.42-0.25-0.64-0.38
		c0,0.06,0,0.09,0,0.12c0.11,0.67,0.22,1.35,0.34,2.02c0.47,2.55,1.03,5.08,1.66,7.6c0.1,0.38,0.22,0.76,0.28,1.15
		c-0.06-0.02-0.13-0.03-0.21-0.02c-0.14,0.02-0.26,0.09-0.4,0.08c-0.15-0.01-0.28-0.11-0.43-0.13c-0.13-0.02-0.27,0-0.4,0.02
		c-0.12,0.02-0.22,0.07-0.28,0.18c-0.06,0.1-0.08,0.21-0.17,0.29c-0.09,0.07-0.19,0.13-0.24,0.23c-0.06,0.11-0.05,0.24-0.04,0.36
		c0.01,0.26,0.06,0.53,0.24,0.73c0.17,0.19,0.41,0.25,0.65,0.25c0.13,0,0.28-0.01,0.39,0.07c0.11,0.08,0.21,0.12,0.34,0.15
		c0.11,0.03,0.24,0.04,0.35-0.02c0.09-0.05,0.15-0.14,0.2-0.22c0.03-0.05,0.06-0.1,0.1-0.14C7.63,30.03,7.7,30,7.77,29.96
		c0.11-0.06,0.21-0.15,0.27-0.27c0.11-0.18,0.12-0.4,0.06-0.59c0.49,0.09,0.99,0.18,1.48,0.28c2.47,0.47,4.94,0.94,7.4,1.41
		c0.2,0.04,0.36,0.03,0.55-0.07c2.4-1.27,4.8-2.53,7.2-3.8c0.18-0.09,0.38-0.15,0.51-0.32c0.01,0,0.01,0,0.02,0
		c0.15-0.07,0.31-0.1,0.46,0c0.01,0,0.01,0.01,0.02,0.02c0.04,0.04,0.08,0.07,0.12,0.1c0.06,0.05,0.12,0.1,0.19,0.13
		c0.24,0.1,0.52,0.05,0.68-0.16c0.08-0.11,0.06-0.27,0.15-0.36c0.05-0.05,0.12-0.07,0.18-0.11c0.08-0.04,0.15-0.08,0.23-0.12
		c0.11-0.06,0.22-0.13,0.27-0.26c0.05-0.13,0.04-0.28,0.08-0.41c0.02-0.07,0.05-0.14,0.02-0.22c-0.02-0.06-0.08-0.11-0.13-0.15
		c-0.06-0.04-0.14-0.08-0.21-0.1c-0.04-0.01-0.11-0.02-0.16-0.05c-0.03-0.03-0.06-0.06-0.06-0.1c0-0.05,0.01-0.09,0.01-0.14
		c0-0.08,0-0.17-0.02-0.25c-0.04-0.16-0.15-0.3-0.3-0.37c-0.15-0.08-0.34-0.08-0.49,0c-0.09,0.04-0.16,0.1-0.27,0.09
		c-0.07-0.01-0.21-0.04-0.24-0.12c0-0.02-0.01-0.02-0.02-0.03c0-0.01,0-0.03,0-0.04c0.09-0.37,0.15-0.75,0.23-1.12
		c0.46-2.27,0.92-4.54,1.38-6.81c0.02-0.11,0.07-0.22,0.04-0.35c-0.31,0.19-0.6,0.37-0.9,0.56c0-0.11-0.01-0.22-0.02-0.33
		c0-0.08,0-0.08-0.01-0.16c1.37-0.27,2.93-1.48,3.28-3.17C30.01,11.37,29.6,9.95,28.76,9.35z M7.93,29.62
		c-0.05,0.1-0.13,0.18-0.23,0.23c-0.09,0.05-0.17,0.09-0.24,0.17c-0.06,0.07-0.09,0.15-0.14,0.22c-0.07,0.1-0.16,0.13-0.28,0.11
		c-0.12-0.02-0.24-0.05-0.33-0.12c-0.08-0.06-0.16-0.1-0.27-0.11c-0.22-0.03-0.45,0.02-0.66-0.1c-0.21-0.12-0.3-0.36-0.33-0.59
		c-0.02-0.12-0.03-0.24-0.01-0.36c0.01-0.12,0.09-0.18,0.18-0.25c0.08-0.06,0.14-0.12,0.19-0.21c0.04-0.09,0.06-0.2,0.16-0.25
		c0.06-0.03,0.13-0.03,0.2-0.04c0.07-0.01,0.15-0.02,0.22-0.01c0.14,0.01,0.26,0.1,0.4,0.13c0.13,0.03,0.25,0,0.38-0.04
		c0.06-0.02,0.13-0.04,0.2-0.04c0.07,0.01,0.13,0.04,0.18,0.08c0.1,0.14,0.16,0.29,0.16,0.47c0,0.16,0.14,0.16,0.25,0.2
		C8.02,29.27,8.02,29.46,7.93,29.62z M8.14,28.66c-0.11-0.02-0.12-0.1-0.14-0.18c-0.49-1.88-0.94-3.77-1.35-5.66
		c-0.32-1.49-0.61-2.98-0.87-4.48c0-0.02,0-0.04,0-0.09c0.85,0.51,1.68,1,2.51,1.5c0.25,0.15,0.5,0.31,0.75,0.45
		c0.1,0.06,0.15,0.13,0.16,0.24c0.38,2.43,0.75,4.86,1.13,7.29c0.07,0.46,0.14,0.92,0.21,1.39C9.74,28.96,8.94,28.81,8.14,28.66z
		 M11.93,29.34c-0.3-0.07-0.6-0.12-0.9-0.18c-0.09-0.02-0.12-0.06-0.14-0.15c-0.24-1.56-0.48-3.12-0.72-4.69
		c-0.2-1.29-0.4-2.57-0.6-3.86c-0.02-0.12-0.01-0.2,0.08-0.28c0.76-0.7,1.52-1.4,2.28-2.1c0.01-0.01,0.02-0.01,0.06-0.02
		c0.02,0.26,0.04,0.51,0.04,0.76c0.01,1.06-0.01,2.12,0.02,3.18c0.03,1.23,0.02,2.46,0.04,3.68c0.03,1.16,0.03,2.32,0.04,3.47
		C12.12,29.33,12.09,29.38,11.93,29.34z M16.9,30.32c-1.19-0.23-2.38-0.45-3.57-0.68c-0.23-0.04-0.45-0.1-0.68-0.12
		c-0.17-0.02-0.22-0.09-0.22-0.26c0.01-0.25,0-0.5,0-0.75c-0.01,0-0.01,0-0.02,0c0-0.82,0-1.65,0-2.47
		c-0.01-1.16-0.03-2.31-0.04-3.47c-0.01-1.19-0.02-2.38-0.05-3.58c-0.01-0.39-0.01-0.78-0.02-1.17c0-0.1,0.02-0.18,0.1-0.26
		c0.44-0.4,0.88-0.82,1.32-1.22c0.08-0.08,0.14-0.11,0.24,0.01c0.8,0.93,1.6,1.85,2.41,2.77c0.13,0.14,0.16,0.29,0.17,0.45
		c0.03,0.67,0.06,1.35,0.09,2.02c0.05,0.97,0.1,1.94,0.14,2.92c0.03,0.65,0.06,1.31,0.09,1.96c0.05,0.99,0.1,1.99,0.14,2.98
		c0.01,0.25,0.01,0.5,0.02,0.75C17.05,30.32,17.03,30.34,16.9,30.32z M20.93,28.47c-1.17,0.59-2.34,1.19-3.53,1.8
		c-0.05-1.18-0.1-2.33-0.15-3.47c-0.06-1.35-0.12-2.71-0.19-4.06c-0.05-1.1-0.11-2.21-0.17-3.31c-0.01-0.13,0.04-0.22,0.12-0.32
		c0.85-1.03,1.7-2.06,2.54-3.09c0.06-0.08,0.1-0.12,0.2-0.01c0.3,0.36,0.62,0.72,0.93,1.07c0.05,0.06,0.07,0.11,0.07,0.18
		c0.01,0.73,0.03,1.46,0.04,2.2c0.03,1.24,0.05,2.48,0.08,3.72c0.02,0.77,0.04,1.55,0.06,2.32c0.02,0.94,0.04,1.88,0.07,2.82
		C21.01,28.38,21.02,28.43,20.93,28.47z M22.51,27.38c0,0.08,0,0.15-0.01,0.23c-0.05,0.13-0.67,0.39-0.68,0.4
		c-0.12,0.06-0.25,0.13-0.37,0.19c-0.12,0.06-0.17,0.03-0.17-0.12c-0.01-0.45-0.03-0.89-0.04-1.34c-0.02-0.8-0.02-1.6-0.05-2.41
		c-0.04-1.26-0.06-2.52-0.09-3.78c-0.01-0.59-0.01-1.17-0.04-1.75c-0.02-0.42-0.01-0.85-0.03-1.3c0.2,0.15,0.32,0.34,0.47,0.5
		c0.29,0.32,0.57,0.65,0.85,0.97c0.11,0.12,0.16,0.24,0.16,0.41C22.51,22.05,22.51,24.72,22.51,27.38z M25.89,24.23
		c0.07,0.04,0.13,0.04,0.19,0.03c0,0,0.01,0,0.01,0c0.1-0.01,0.17-0.05,0.25-0.09c0.09-0.05,0.2-0.06,0.3-0.04
		c0.18,0.04,0.3,0.2,0.33,0.38c0.02,0.1,0,0.19,0,0.28c0,0.02,0,0.03,0,0.04c0,0,0,0.01,0,0.01c0.01,0.07,0.04,0.13,0.1,0.16
		c0,0,0.01,0.01,0.02,0.02c0.01,0.01,0.03,0.02,0.04,0.02c0.02,0.01,0.04,0.02,0.06,0.02c0.07,0.02,0.14,0.04,0.2,0.07
		c0.06,0.03,0.15,0.07,0.16,0.15c0.01,0.06-0.04,0.15-0.05,0.21c-0.01,0.07-0.02,0.14-0.03,0.21c-0.03,0.15-0.12,0.23-0.25,0.3
		c-0.13,0.07-0.27,0.12-0.38,0.21c-0.11,0.08-0.12,0.19-0.16,0.31c-0.09,0.29-0.45,0.3-0.67,0.15c-0.12-0.08-0.21-0.2-0.36-0.24
		c-0.13-0.04-0.25-0.01-0.37,0.04c0-0.02,0-0.04,0-0.08c0.02-0.09,0.04-0.19,0.06-0.28c0.12-0.6,0.24-1.2,0.36-1.8
		c0.01-0.05,0.01-0.12,0.05-0.13C25.79,24.19,25.84,24.21,25.89,24.23z M26.65,16.64c0.03-0.02,0.08-0.03,0.11-0.05
		c0.01-0.03,0.04-0.05,0.06-0.02c0.02,0.02,0.01,0.06-0.02,0.08c-0.15,0.78-0.3,1.57-0.45,2.36c-0.47,2.4-0.94,4.8-1.41,7.2
		c-0.03,0.18-0.11,0.28-0.28,0.37c-0.56,0.27-1.12,0.57-1.67,0.85c-0.06,0.03-0.11,0.08-0.21,0.06v-0.2c0-2.67,0-5.35,0-8.02
		c0-0.16,0.05-0.24,0.18-0.33C24.2,18.17,25.42,17.4,26.65,16.64z M29.45,12.41c-0.15,0.71-0.48,1.36-1.01,1.86
		c-0.46,0.44-0.98,0.82-1.59,1.05c-0.18,0.07-0.36,0.08-0.54,0.13c-0.12,0.04-0.19,0.08-0.15,0.21c0.03,0.13,0,0.26,0.04,0.39
		c0.04,0.13,0.03,0.35,0.03,0.35s-0.16,0.1-0.27,0.17c-1.06,0.65-2.11,1.33-3.17,2c-0.11,0.07-0.16,0.09-0.27-0.03
		c-0.92-1.06-1.85-2.1-2.77-3.16c-0.1-0.11-0.13-0.11-0.23,0c-0.9,1.1-1.81,2.19-2.71,3.29c-0.1,0.12-0.14,0.13-0.24,0.01
		c-0.85-0.99-1.72-1.98-2.57-2.97c-0.08-0.1-0.14-0.1-0.24-0.01c-0.81,0.76-1.62,1.51-2.43,2.26c-0.64,0.59-1.28,1.18-1.92,1.77
		c-0.08,0.08-0.13,0.08-0.23,0.03c-0.44-0.27-0.88-0.53-1.32-0.8c-0.49-0.29-0.98-0.57-1.46-0.86c-0.05-0.03-0.08-0.06-0.11-0.08
		c-0.01,0-0.01-0.01-0.02-0.01c0,0,0,0,0,0c0,0,0,0,0,0C6.24,18,6.22,17.99,6.19,17.98c-0.03-0.02-0.05-0.05-0.05-0.08
		c0-0.03,0.01-0.05,0.03-0.07c0.03-0.06,0.06-0.13,0.09-0.19c0.04-0.09,0.09-0.18,0.11-0.27c0.03-0.07,0.06-0.15,0.1-0.22
		c0.01-0.02,0.01-0.06-0.01-0.08c-0.07-0.06-0.15-0.1-0.23-0.13c-0.03-0.03-0.07-0.02-0.11-0.03c-0.49-0.13-0.94-0.22-1.45-0.42
		c-0.06-0.02-0.11-0.06-0.16-0.09c-0.62-0.26-1.23-0.54-1.63-1.11c-0.51-0.71-0.65-1.47-0.27-2.29c0.38-0.83,1.05-1.35,1.87-1.69
		c0.7-0.29,1.44-0.44,2.2-0.48c0.02,0,0.03,0.01,0.05,0.01c0.03,0,0.05,0,0.08,0.01c0.03,0,0.05,0,0.08,0c0.03,0,0.06,0,0.08-0.02
		c0.04-0.02,0.05-0.06,0.05-0.1C7,10.68,6.99,10.65,6.97,10.63c-0.03-0.04-0.07-0.08-0.1-0.11c-0.01-0.01-0.02-0.01-0.03-0.02
		C5.36,8.27,5.57,6.33,5.77,5.53c0.14-0.59,0.41-1.12,0.81-1.58c0.8-0.9,1.74-1.58,2.96-1.8c0.89-0.16,1.73-0.01,2.53,0.37
		c0.31,0.15,1.21,0.65,1.83,1.26c0.05,0.04,0.12,0.02,0.17,0.01c0.11-0.02,0.18-0.11,0.23-0.21c0.39-0.42,0.79-0.83,1.26-1.15
		c0.87-0.59,1.82-0.93,2.87-1.06c1.27-0.16,2.46,0.12,3.59,0.64c1.12,0.51,1.74,1.41,1.99,2.62c0.24,1.15,0.21,2.27-0.14,3.38
		c-0.13,0.4-0.24,0.81-0.41,1.2c-0.03,0.08-0.06,0.16-0.13,0.21c-0.01,0.06-0.02,0.12-0.02,0.18c0,0.02,0,0.03,0,0.05
		c0.01,0.01,0.01,0.01,0.02,0.02c0.05,0,0.11,0,0.16-0.02c0.04-0.07,0.1-0.11,0.17-0.14c0.7-0.34,1.43-0.59,2.2-0.76
		c1.28-0.27,2.27,0.23,3,1.19C29.4,10.63,29.64,11.51,29.45,12.41z"/>
	<path fill="#5A3000" d="M25.03,28.57c-0.05-0.3-0.43-0.32-0.64-0.47c-0.1-0.08-0.19-0.17-0.31-0.22c-0.14-0.06-0.28-0.05-0.42,0
		c-0.01,0-0.02,0.01-0.02,0.02c-0.05,0.01-0.1,0.03-0.14,0.04c-0.07,0.02-0.13,0.04-0.2,0.04c-0.06,0.01-0.12,0.01-0.17,0.02
		c-0.26,0.08-0.21,0.41-0.17,0.62c0.02,0.12-0.05,0.2-0.12,0.29c-0.07,0.08-0.14,0.17-0.16,0.28c-0.02,0.12-0.02,0.26,0.03,0.37
		c0.05,0.1,0.14,0.17,0.25,0.21c0.12,0.05,0.24,0.09,0.36,0.13c0.13,0.04,0.26,0.1,0.4,0.11c0.14,0.02,0.27-0.03,0.41-0.06
		c0.13-0.03,0.27-0.03,0.4-0.08c0.21-0.08,0.4-0.28,0.44-0.5c0.01-0.06-0.01-0.13-0.01-0.19c0-0.08,0.05-0.15,0.06-0.22
		C25.05,28.83,25.05,28.69,25.03,28.57z M24.91,28.79c0,0.06,0,0.12-0.02,0.18c-0.02,0.06-0.05,0.11-0.05,0.17
		c-0.01,0.06,0.01,0.12,0.01,0.18s-0.03,0.11-0.06,0.17c-0.06,0.1-0.14,0.17-0.23,0.23c-0.09,0.05-0.19,0.07-0.3,0.09
		c-0.12,0.02-0.24,0.05-0.36,0.07c-0.13,0.03-0.24,0-0.36-0.04c-0.13-0.04-0.25-0.08-0.37-0.12c-0.09-0.03-0.18-0.06-0.25-0.11
		c-0.11-0.08-0.13-0.2-0.12-0.33c0.01-0.21,0.2-0.3,0.27-0.47c0.04-0.1,0.01-0.19-0.01-0.3c-0.02-0.11-0.04-0.31,0.08-0.37
		c0.05-0.03,0.12-0.02,0.18-0.03c0.06-0.01,0.12-0.02,0.18-0.04c0.13-0.03,0.26-0.08,0.39-0.09c0.02,0,0.03-0.01,0.04-0.01
		c0.03,0,0.07,0.01,0.1,0.03c0.09,0.05,0.17,0.12,0.25,0.19c0.08,0.06,0.16,0.11,0.25,0.15c0.1,0.04,0.22,0.08,0.31,0.16
		C24.92,28.56,24.91,28.68,24.91,28.79z"/>
	<path fill="#5A3000" d="M26.36,29.22c-0.04-0.04-0.09-0.07-0.12-0.12c-0.03-0.05-0.03-0.11-0.07-0.16c-0.04-0.05-0.1-0.1-0.16-0.11
		c-0.07-0.01-0.15,0.03-0.22,0.02c-0.04-0.01-0.07-0.03-0.1-0.04c-0.04-0.01-0.07,0-0.11,0c-0.08,0.02-0.16,0.05-0.24,0.09
		c-0.03,0.02-0.04,0.05-0.03,0.07c-0.02,0.03-0.06,0.04-0.08,0.06c-0.05,0.04-0.09,0.08-0.12,0.14c-0.06,0.12-0.06,0.27-0.02,0.4
		c0.05,0.14,0.14,0.21,0.28,0.25c0.06,0.02,0.12,0.02,0.18,0.03c0.03,0,0.07,0,0.11,0.01c0.05,0.01,0.08,0.03,0.13,0.05
		c0.12,0.05,0.24,0.03,0.31-0.08c0.03-0.06,0.06-0.1,0.11-0.15c0.05-0.04,0.1-0.08,0.14-0.13C26.42,29.44,26.44,29.31,26.36,29.22z
		 M26.25,29.45c-0.06,0.08-0.15,0.13-0.21,0.22c-0.02,0.03-0.04,0.08-0.07,0.11c-0.05,0.04-0.11,0.01-0.16-0.01
		c-0.18-0.08-0.51,0.01-0.59-0.23c-0.04-0.11-0.04-0.26,0.05-0.36c0.06-0.07,0.14-0.1,0.18-0.18c0.04-0.02,0.08-0.03,0.12-0.04
		c0.03-0.01,0.06-0.02,0.09-0.01c0.03,0.01,0.05,0.02,0.07,0.03c0.05,0.02,0.1,0.01,0.15,0c0.05-0.01,0.1-0.02,0.14,0.02
		c0.08,0.06,0.07,0.17,0.14,0.24c0.03,0.03,0.07,0.06,0.1,0.09C26.3,29.35,26.28,29.41,26.25,29.45z"/>
	<path fill="#F8F189" d="M28.87,9.93c-0.73-0.96-1.72-1.46-3-1.19c-0.77,0.16-1.5,0.42-2.2,0.76c-0.04,0.02-0.08,0.04-0.11,0.06
		c-0.02,0.01-0.04,0.02-0.07,0.03c-0.02,0.01-0.05,0.02-0.08,0.02c0,0-0.01,0-0.01-0.01c0.01,0-0.01-0.01-0.01-0.01s0,0,0,0
		c0,0,0-0.01-0.01-0.01c-0.01-0.01-0.01-0.02-0.02-0.03c0-0.01,0-0.01,0-0.02c0-0.02,0-0.05,0-0.07c0.01-0.03,0.02-0.06,0.04-0.09
		c0.03-0.07,0.06-0.14,0.08-0.21c0-0.01,0-0.01,0-0.02c0.16-0.37,0.27-0.77,0.39-1.15c0.35-1.11,0.38-2.24,0.14-3.38
		c-0.25-1.2-0.88-2.11-1.99-2.62c-1.14-0.52-2.32-0.8-3.59-0.64c-1.05,0.13-2,0.47-2.87,1.06c-0.51,0.35-1,0.83-1.34,1.24
		c-0.07,0.08-0.16,0.12-0.26,0.12c0-0.02-0.02-0.05-0.05-0.05c-0.05-0.01-0.08-0.05-0.12-0.08c-0.04-0.04-0.08-0.07-0.13-0.11
		c-0.09-0.07-0.17-0.14-0.26-0.21c-0.08-0.06-0.17-0.13-0.25-0.19c-0.04-0.03-0.08-0.05-0.11-0.07c0,0-0.01-0.01-0.01-0.02
		c-0.3-0.22-0.64-0.37-0.97-0.53c-0.8-0.38-1.64-0.53-2.53-0.37c-1.22,0.22-2.16,0.89-2.96,1.8C6.18,4.4,5.91,4.93,5.76,5.52
		c-0.2,0.8-0.17,1.61-0.05,2.42c0.04,0.27,0.09,0.55,0.19,0.78c0.27,0.64,0.6,1.24,0.95,1.83c0.08,0.05,0.17,0.13,0.14,0.2
		c-0.05,0.11-0.18,0.03-0.27,0.05c-0.78,0.04-1.53,0.19-2.25,0.48c-0.82,0.34-1.49,0.86-1.87,1.69c-0.38,0.82-0.24,1.58,0.27,2.29
		c0.33,0.47,0.8,0.74,1.3,0.96c0.1,0.05,0.21,0.1,0.32,0.15c0.29,0.13,0.59,0.28,0.89,0.38c0.15,0.05,0.31,0.08,0.46,0.11
		c0.13,0.02,0.27,0.04,0.38,0.1c0.27,0.16,0.04,0.6-0.08,0.79c-0.02,0.02-0.02,0.05-0.02,0.08C6.11,17.87,6.1,17.9,6.1,17.93
		c0.01,0.03,0.03,0.04,0.05,0.06C6.16,18,6.17,18,6.18,18.01c0.03,0.01,0.05,0.02,0.08,0.03c0.01,0,0.02,0,0.03,0
		c0.04,0.02,0.08,0.04,0.11,0.04c0,0.01-0.01,0.02-0.01,0.02c0.49,0.29,0.98,0.57,1.46,0.86c0.44,0.27,0.89,0.53,1.32,0.8
		c0.1,0.06,0.15,0.05,0.23-0.03c0.64-0.59,1.28-1.18,1.92-1.77c0.81-0.75,1.63-1.51,2.43-2.26c0.09-0.09,0.15-0.08,0.24,0.01
		c0.86,0.99,1.72,1.98,2.57,2.97c0.1,0.12,0.14,0.11,0.24-0.01c0.9-1.1,1.81-2.19,2.71-3.29c0.09-0.11,0.13-0.12,0.23,0
		c0.92,1.05,1.85,2.1,2.77,3.16c0.1,0.12,0.16,0.1,0.27,0.03c0.99-0.63,1.98-1.26,2.98-1.88c0.01,0,0.03,0,0.04-0.01
		c0.11-0.06,0.21-0.13,0.31-0.2c0.04-0.03,0.12-0.08,0.12-0.08s-0.02-0.17-0.03-0.23c-0.01-0.22-0.01-0.44-0.02-0.65
		c0.02-0.03,0.06-0.05,0.12-0.06c0.18-0.06,0.36-0.07,0.54-0.13c0.61-0.23,1.13-0.61,1.59-1.05c0.53-0.5,0.87-1.15,1.01-1.86
		C29.64,11.51,29.4,10.63,28.87,9.93z M9.27,11.52c0,0,0.01,0,0.01,0l0,0C9.28,11.52,9.28,11.52,9.27,11.52z M11.17,8.64
		c-0.13,0.46-0.55,0.62-0.94,0.34c-0.13-0.09-0.24-0.21-0.3-0.36C9.76,8.52,9.69,8.37,9.73,8.18C9.71,8,9.7,7.81,9.76,7.63
		c0.13-0.44,0.54-0.58,0.92-0.32C11.06,7.57,11.29,8.19,11.17,8.64z M11.23,2.68L11.23,2.68c0.01,0,0.03,0,0.04,0.01
		C11.26,2.68,11.25,2.68,11.23,2.68z M16.48,12.2c-1.11,0.68-2.56,0.33-3.32-0.76c-0.36-0.52-0.62-1.2-0.68-1.86
		c0.71,0.19,1.41,0.3,2.12,0.29c0.83,0,1.64-0.2,2.43-0.43c0.26-0.07,0.52-0.16,0.77-0.25c0.08-0.03,0.13-0.05,0.13,0.07
		C17.94,10.49,17.57,11.53,16.48,12.2z M20.2,8.34c-0.2,0.36-0.59,0.41-0.9,0.14c-0.15-0.14-0.25-0.32-0.32-0.51
		c-0.1-0.14-0.12-0.29-0.04-0.44c0-0.08-0.01-0.16,0-0.23c0.07-0.29,0.18-0.55,0.51-0.62c0.26-0.06,0.54,0.1,0.71,0.41
		C20.39,7.5,20.43,7.92,20.2,8.34z"/>
</g>
</svg>
