<svg xmlns="http://www.w3.org/2000/svg" xmlns:xlink="http://www.w3.org/1999/xlink" viewBox="0 0 500 500"><defs><style>.a{isolation:isolate;}.b{fill:#3a8ecf;}.c{fill:#ff922b;}.d,.t{fill:#d6d6d6;}.aa,.d{mix-blend-mode:overlay;}.e{fill:url(#a);}.f{fill:#f57429;}.g{fill:#a3b3d4;}.h{fill:#2a2f3b;}.i{fill:#697594;}.j{fill:url(#b);}.k{fill:#3f4758;}.l{fill:url(#c);}.m{fill:#242933;}.n{fill:#ff595f;}.o{fill:#fff;}.p{opacity:0.1;}.q{fill:url(#d);}.r{fill:url(#e);}.s{fill:#141213;}.u{fill:#3a3a4f;}.v{fill:#7d4231;}.w{fill:#613426;}.x{fill:#c9d8f5;}.y{fill:#dfe6f5;}.z{fill:#b6c9ed;}.aa{opacity:0.3;}.ab{fill:#ad5b44;}.ac{fill:url(#f);}.ad{fill:#cfcfcf;}.ae{fill:#14171c;}.af{fill:url(#g);}.ag{fill:url(#h);}.ah{fill:url(#i);}.ai,.aj,.ak{fill:none;stroke:#a3b3d4;stroke-width:2px;}.ai,.aj{stroke-miterlimit:10;}.aj{stroke-linecap:round;}.ak{stroke-linejoin:round;}.al{mix-blend-mode:multiply;}.am{fill:#b8c7e3;}.an{fill:#8ccc62;}</style><linearGradient id="a" x1="-2948.29" y1="1848.87" x2="-2896.01" y2="1848.87" gradientTransform="translate(447.76 3664.29) rotate(122.12)" gradientUnits="userSpaceOnUse"><stop offset="0" stop-color="#ffd84a"/><stop offset="1" stop-color="#ffa217"/></linearGradient><linearGradient id="b" x1="434.6" y1="228.08" x2="350.6" y2="157.08" gradientUnits="userSpaceOnUse"><stop offset="0" stop-color="#e0e9ff"/><stop offset="1" stop-color="#eff4ff"/></linearGradient><linearGradient id="c" x1="174.12" y1="354.8" x2="105.62" y2="273.3" xlink:href="#b"/><linearGradient id="d" x1="234.38" y1="267.66" x2="238.05" y2="179" gradientUnits="userSpaceOnUse"><stop offset="0" stop-color="#fff"/><stop offset="1" stop-color="#dfe3eb" stop-opacity="0"/></linearGradient><linearGradient id="e" x1="356.59" y1="272.72" x2="360.26" y2="184.05" xlink:href="#d"/><radialGradient id="f" cx="477.92" cy="3675.46" r="53.04" gradientTransform="matrix(-0.23, -0.97, 0.97, -0.23, -3235.04, 1712.15)" gradientUnits="userSpaceOnUse"><stop offset="0" stop-color="#454e61"/><stop offset="1" stop-color="#242933"/></radialGradient><linearGradient id="g" x1="321.83" y1="368.79" x2="388.57" y2="368.79" gradientTransform="matrix(1, 0, 0, 1, 0, 0)" xlink:href="#a"/><linearGradient id="h" x1="238.07" y1="109.53" x2="291.69" y2="109.53" gradientTransform="matrix(1, 0, 0, 1, 0, 0)" xlink:href="#a"/><linearGradient id="i" x1="50.26" y1="344.55" x2="102.54" y2="344.55" gradientTransform="matrix(1, 0, 0, 1, 0, 0)" xlink:href="#a"/></defs><g class="a"><path class="b" d="M199.56,378.15c0,4.17-19.38,7.55-43.28,7.55S113,382.32,113,378.15s19.38-7.55,43.28-7.55S199.56,374,199.56,378.15Z"/><path class="c" d="M402.2,209.87,401,198c-.37-3.61.87-7.43,3.91-11.08,8.72-10.46,29-15.51,45.35-11.27,10.64,2.77,17,8.8,17.65,15.57l1.21,11.91c-.69-6.77-7-12.81-17.65-15.57-16.32-4.25-36.62.8-45.35,11.27C403.07,202.44,401.84,206.26,402.2,209.87Z"/><path class="d" d="M419.79,224.59c16.33,4.25,36.63-.8,45.36-11.27s2.58-22.4-13.75-26.64-36.62.8-45.35,11.27S403.47,220.35,419.79,224.59Z"/><path class="e" d="M419.85,225.44c16.32,4.25,36.63-.8,45.36-11.27s2.58-22.4-13.75-26.64-36.62.8-45.35,11.27S403.53,221.19,419.85,225.44Z"/><path class="c" d="M424.79,219.51C436,222.43,450,219,456,211.76s1.76-15.39-9.45-18.31-25.17.56-31.17,7.75S413.57,216.6,424.79,219.51Z"/><path class="f" d="M424.79,219.51C436,222.43,450,219,456,211.76a10.82,10.82,0,0,0,2.67-6.12,12.14,12.14,0,0,1-2.18,3.78c-6,7.19-20,10.66-31.18,7.74-8.08-2.1-12.51-6.94-12.12-12.18C411,211.07,415.51,217.1,424.79,219.51Z"/><g class="a"><path class="g" d="M440,223.28c0,8.23-5.12,16.18-14,20.1L397.44,256l.05,13.54L426,256.92c8.9-3.92,14-11.86,14-20.1Q440,230.06,440,223.28Z"/><polygon class="h" points="397.44 255.95 397.49 269.49 185.72 362.77 185.67 349.22 397.44 255.95"/><polygon class="i" points="397.44 256.8 397.44 255.95 185.67 349.22 185.68 350.07 397.44 256.8"/><path class="g" d="M185.67,349.22l-28.53,12.57c-12.49,5.5-27.65,1-33.86-10l-43.4-77.15a20,20,0,0,1-2.65-9.85l0,13.55a20.17,20.17,0,0,0,2.64,9.85l43.4,77.14c6.22,11,21.38,15.54,33.87,10l28.53-12.57Z"/><path class="j" d="M437.35,213.42,394,136.28c-6.21-11-21.38-15.53-33.87-10l-28.53,12.57L397.44,256,426,243.38C438.47,237.88,443.56,224.46,437.35,213.42Z"/><polygon class="k" points="331.55 138.82 119.78 232.1 185.67 349.22 397.44 255.95 331.55 138.82"/><path class="l" d="M119.78,232.1,91.24,244.67c-12.49,5.5-17.57,18.91-11.36,29.94l43.4,77.15c6.21,11,21.37,15.53,33.86,10l28.53-12.57Z"/><polygon class="m" points="326.83 147.98 130.88 234.28 190.4 340.07 386.35 253.76 326.83 147.98"/><path class="n" d="M219.33,231.58c1,1.93,2.2,2.37,3.15,2a2.53,2.53,0,0,0,1.25-1l.67,1a3.17,3.17,0,0,1-1.5,1.25c-1.61.69-3.36-.49-4.54-2.87s-1.18-4.65.34-5.31c1.71-.74,3.29,1.33,4,2.78.14.29.23.53.3.68Zm2.28-2.23c-.44-.92-1.4-2.23-2.47-1.76s-.72,1.93-.31,3Z"/><path class="n" d="M224.92,226.65c-.41-.82-.75-1.48-1.1-2.12l.84-.36.7,1.28h0a2,2,0,0,1,1-2.23c.72-.32,2.17-.15,3.51,2.55l2.33,4.71-.95.42L229,226.34c-.63-1.27-1.47-2.19-2.37-1.81-.63.27-.78,1.15-.55,2a4,4,0,0,0,.27.7l2.35,4.74-.95.41Z"/><path class="n" d="M231.57,218.43l1.12,2.27,1.36-.59.54,1.09-1.36.59,2.11,4.25c.48,1,.94,1.45,1.47,1.22a1.34,1.34,0,0,0,.5-.33l.58,1a1.6,1.6,0,0,1-.75.56,1.29,1.29,0,0,1-1.32-.15,4.79,4.79,0,0,1-1.39-1.9l-2.13-4.3-.81.35-.54-1.09.81-.35-.94-1.89Z"/><path class="n" d="M239.4,222.9c1,1.93,2.2,2.37,3.15,2a2.58,2.58,0,0,0,1.25-1l.67.95A3.17,3.17,0,0,1,243,226c-1.61.69-3.37-.49-4.55-2.87s-1.17-4.65.35-5.31c1.71-.74,3.29,1.33,4,2.78a6.94,6.94,0,0,1,.3.68Zm2.28-2.23c-.44-.92-1.41-2.23-2.48-1.76s-.72,1.93-.3,3Z"/><path class="n" d="M245.15,218.3c-.46-.93-.87-1.73-1.27-2.45l.84-.36.8,1.54,0,0c-.29-1.16-.05-2.08.59-2.35a.65.65,0,0,1,.29-.07l.68,1.35a1,1,0,0,0-.35.09c-.67.29-.77,1.26-.37,2.39a7.39,7.39,0,0,0,.29.69l2.09,4.21-.94.4Z"/><path class="n" d="M253.23,209.06l1.12,2.27,1.37-.59.54,1.09-1.37.59,2.11,4.25c.49,1,.95,1.45,1.48,1.22a1.53,1.53,0,0,0,.5-.33l.58,1.05a1.67,1.67,0,0,1-.75.56,1.29,1.29,0,0,1-1.33-.16,4.67,4.67,0,0,1-1.38-1.89l-2.14-4.3-.81.35-.54-1.09.81-.35-.93-1.89Z"/><path class="n" d="M256.69,205.84l.95-.41,2.44,4.92h0a2.52,2.52,0,0,1,.18-1.3,1.53,1.53,0,0,1,.77-.83c.71-.3,2.15-.14,3.5,2.58l2.33,4.7-.95.41-2.25-4.53c-.63-1.27-1.48-2.21-2.37-1.83-.62.27-.78,1.13-.57,2a3,3,0,0,0,.28.71l2.36,4.76-1,.41Z"/><path class="n" d="M266.2,203.51c.25.48.21,1-.17,1.14s-.77-.14-1-.63-.19-1,.15-1.15S266,203,266.2,203.51Zm3.95,10.56-3.91-7.89.95-.41,3.91,7.89Z"/><path class="n" d="M273.55,210.82a2.32,2.32,0,0,0,1.54,0c.69-.3.76-1,.43-1.62a1.76,1.76,0,0,0-1.69-1,2.88,2.88,0,0,1-2.49-1.64c-.63-1.27-.47-2.61.66-3.09a2.21,2.21,0,0,1,1.53-.07l.28,1.14a1.86,1.86,0,0,0-1.3,0c-.56.24-.63.87-.34,1.45s.78.81,1.65.91a3,3,0,0,1,2.56,1.79c.68,1.38.45,2.67-.79,3.21a2.56,2.56,0,0,1-1.74.09Z"/><path class="n" d="M208.11,265.22l-.57-1h0a1.92,1.92,0,0,1-1,1.87c-1.06.45-2.16-.43-2.72-1.58-1-1.9-.34-3.43,1.69-4.29l-.08-.16c-.33-.66-1-1.78-2.1-1.31a2.06,2.06,0,0,0-1.07,1.17l-.68-.85a2.51,2.51,0,0,1,1.37-1.44c1.6-.7,2.8.78,3.59,2.36L208,263a19,19,0,0,0,1,1.85Zm-2.14-4c-1.05.42-2.09,1.21-1.33,2.74.46.93,1.09,1.19,1.57,1a1.53,1.53,0,0,0,.61-1.87,2.74,2.74,0,0,0-.17-.48Z"/><path class="n" d="M209.3,257.72c-.41-.82-.75-1.48-1.1-2.12l.84-.36.7,1.28h0a2,2,0,0,1,1-2.23c.72-.32,2.17-.15,3.51,2.55l2.33,4.71-.95.42-2.25-4.55c-.63-1.27-1.47-2.2-2.37-1.81-.63.27-.78,1.15-.55,2a4,4,0,0,0,.27.7l2.35,4.74-.95.41Z"/><path class="n" d="M215.93,249.57c.25.48.2,1-.17,1.14s-.77-.14-1-.63-.2-1,.15-1.16S215.67,249.06,215.93,249.57Zm3.94,10.56L216,252.24l1-.41,3.91,7.89Z"/><path class="n" d="M221.28,252.54c-.4-.82-.75-1.48-1.1-2.12l.83-.36.67,1.25h0c-.08-.88.06-1.79.92-2.16s1.58.11,2.27.94h0a3.44,3.44,0,0,1,.07-1.28,1.49,1.49,0,0,1,.89-1.06c.69-.3,2.05-.06,3.41,2.68l2.3,4.65-.93.4L228.46,251c-.75-1.51-1.57-2.27-2.34-1.93-.54.23-.66,1-.48,1.79a4.43,4.43,0,0,0,.28.75l2.42,4.87-.93.4-2.35-4.72c-.62-1.26-1.44-2-2.16-1.7s-.67,1.16-.47,1.94a3.33,3.33,0,0,0,.27.74l2.36,4.76-.93.4Z"/><path class="n" d="M237.77,252.39l-.57-1h0a1.9,1.9,0,0,1-1,1.87c-1.06.46-2.16-.43-2.72-1.58-1-1.9-.34-3.43,1.69-4.29l-.08-.16c-.32-.66-1-1.78-2.09-1.31a2,2,0,0,0-1.08,1.17l-.68-.85a2.51,2.51,0,0,1,1.37-1.44c1.6-.7,2.81.78,3.59,2.36l1.46,2.95a17,17,0,0,0,1,1.85Zm-2.13-4c-1.06.42-2.1,1.21-1.34,2.74.46.93,1.09,1.19,1.57,1a1.52,1.52,0,0,0,.62-1.87,2.78,2.78,0,0,0-.18-.48Z"/><path class="n" d="M237.88,240l1.12,2.27,1.37-.59.54,1.09-1.37.59,2.11,4.25c.49,1,.95,1.46,1.48,1.23a1.7,1.7,0,0,0,.5-.34l.58,1.06a1.74,1.74,0,0,1-.75.56,1.34,1.34,0,0,1-1.33-.16,4.79,4.79,0,0,1-1.38-1.9l-2.14-4.3-.81.35-.54-1.09.81-.35-.93-1.89Z"/><path class="n" d="M243.12,237.8c.26.49.21,1-.16,1.15s-.77-.15-1-.64-.2-1,.15-1.15S242.87,237.3,243.12,237.8Zm3.95,10.57-3.91-7.89,1-.41L248,248Z"/><path class="n" d="M254.08,240.47c1.45,2.91.73,4.77-.53,5.31-1.42.61-3.28-.48-4.52-3-1.31-2.64-.93-4.69.52-5.31S252.88,238.06,254.08,240.47ZM250,242.34c.85,1.73,2.16,2.75,3.09,2.35s.95-2,.07-3.75c-.66-1.34-1.95-2.84-3.07-2.36S249.22,240.85,250,242.34Z"/><path class="n" d="M256.14,237.46c-.4-.82-.75-1.48-1.1-2.12l.84-.36.7,1.28h0a2,2,0,0,1,1-2.23c.72-.32,2.17-.15,3.51,2.55l2.34,4.71-.95.42-2.26-4.55c-.63-1.27-1.47-2.2-2.36-1.81-.63.27-.79,1.15-.55,2a3.22,3.22,0,0,0,.26.7l2.35,4.74-.95.41Z"/><path class="n" d="M265,226.56l.95-.41,5.74,11.57-.95.41Z"/><path class="n" d="M273.72,232.37c1,1.93,2.2,2.37,3.15,2a2.54,2.54,0,0,0,1.25-1l.67,1a3.16,3.16,0,0,1-1.5,1.24c-1.61.7-3.36-.48-4.54-2.86s-1.18-4.66.34-5.32c1.71-.73,3.29,1.33,4,2.79.14.29.24.53.3.68Zm2.28-2.24c-.44-.91-1.4-2.22-2.47-1.76s-.72,1.94-.31,3Z"/><path class="n" d="M281.3,231.78a2.32,2.32,0,0,0,1.54,0c.69-.3.76-1,.44-1.62a1.78,1.78,0,0,0-1.7-1,2.88,2.88,0,0,1-2.49-1.64c-.63-1.27-.46-2.61.66-3.09a2.21,2.21,0,0,1,1.53-.07l.28,1.14a1.86,1.86,0,0,0-1.3,0c-.56.24-.63.87-.34,1.46s.78.8,1.66.9a2.93,2.93,0,0,1,2.55,1.79c.69,1.38.46,2.67-.79,3.21a2.53,2.53,0,0,1-1.73.09Z"/><path class="n" d="M287.31,229.18a2.2,2.2,0,0,0,1.54,0c.69-.3.76-1,.43-1.61a1.75,1.75,0,0,0-1.69-1,2.88,2.88,0,0,1-2.49-1.64c-.63-1.27-.47-2.61.66-3.09a2.21,2.21,0,0,1,1.53-.07l.28,1.15a1.8,1.8,0,0,0-1.3,0c-.56.25-.63.87-.34,1.46s.78.81,1.65.9a3,3,0,0,1,2.56,1.79c.68,1.38.45,2.67-.79,3.21a2.6,2.6,0,0,1-1.73.1Z"/><path class="n" d="M296.92,221.94c1.45,2.91.74,4.76-.53,5.31s-3.28-.48-4.51-3c-1.31-2.64-.93-4.69.51-5.31S295.73,219.52,296.92,221.94Zm-4.11,1.87c.86,1.73,2.16,2.75,3.09,2.35s1-2,.07-3.75c-.66-1.34-1.94-2.84-3.06-2.36S292.07,222.31,292.81,223.81Z"/><path class="n" d="M299,218.93c-.41-.82-.75-1.48-1.11-2.12l.85-.36.7,1.28h0a2,2,0,0,1,1-2.23c.72-.32,2.17-.15,3.51,2.55l2.33,4.71-1,.41-2.25-4.54c-.63-1.27-1.47-2.2-2.37-1.81-.63.27-.78,1.15-.55,2a3.61,3.61,0,0,0,.27.69l2.35,4.75-1,.41Z"/><path class="n" d="M308.76,217.91l-.24-.42a5.52,5.52,0,0,1-.72-3.11,4.89,4.89,0,0,0-.35-2.56c-.41-.83-1-1.23-1.73-.95a1.56,1.56,0,0,0-.84,1l-.76-.91a2.23,2.23,0,0,1,1.22-1.32c1.24-.54,2.38.37,3,1.61a6,6,0,0,1,.48,3.24,4.59,4.59,0,0,0,.57,2.66l.22.42Zm.89,2.38c-.3-.6-.24-1.14.14-1.31s.85.15,1.15.75.25,1.12-.15,1.3S309.93,220.86,309.65,220.29Z"/><path class="n" d="M242.21,289.15l-2.31-4.66-5.44-5.33,1.07-.46,2.53,2.59c.69.71,1.24,1.28,1.85,1.95h0c-.15-.81-.26-1.63-.39-2.59l-.45-3.48,1.07-.46.68,7.36,2.32,4.68Z"/><path class="n" d="M246,283c1,1.93,2.2,2.37,3.15,2a2.53,2.53,0,0,0,1.25-1l.67,1a3.16,3.16,0,0,1-1.5,1.24c-1.61.69-3.36-.49-4.54-2.87s-1.18-4.65.34-5.31c1.71-.74,3.29,1.33,4,2.78.14.29.23.53.3.68Zm2.28-2.23c-.44-.92-1.4-2.22-2.47-1.76s-.72,1.93-.31,3Z"/><path class="n" d="M253.59,282.44a2.2,2.2,0,0,0,1.54,0c.69-.3.76-1,.43-1.61a1.77,1.77,0,0,0-1.69-1,2.88,2.88,0,0,1-2.49-1.64c-.63-1.27-.46-2.6.66-3.09a2.26,2.26,0,0,1,1.53-.07l.28,1.15a1.8,1.8,0,0,0-1.3,0c-.56.25-.63.87-.34,1.46s.78.81,1.66.9a3,3,0,0,1,2.55,1.79c.69,1.39.46,2.67-.79,3.21a2.54,2.54,0,0,1-1.73.1Z"/><path class="o" d="M296.67,265.59l-5.45-11,1-.44,5.09,4.54c1.18,1.06,2.17,2,3.08,3v0c-.81-1.43-1.5-2.76-2.35-4.47l-2.27-4.59.88-.39,5.45,11-.95.41-5.08-4.57c-1.11-1-2.22-2.05-3.18-3.08l0,0c.74,1.36,1.41,2.67,2.32,4.5l2.32,4.69Z"/><path class="o" d="M308.22,255.73c1.45,2.91.74,4.77-.53,5.31s-3.28-.48-4.52-3-.93-4.68.52-5.31S307,253.32,308.22,255.73Zm-4.11,1.87c.86,1.73,2.16,2.75,3.09,2.35s.95-2,.07-3.75c-.66-1.34-1.94-2.84-3.07-2.36S303.37,256.11,304.11,257.6Z"/><path class="h" d="M386.62,180c-3,1.3-4.18,4.49-2.7,7.11a6.37,6.37,0,0,0,8,2.38c3-1.31,4.18-4.5,2.71-7.12A6.38,6.38,0,0,0,386.62,180Z"/><path class="h" d="M382.76,161.19a6.39,6.39,0,0,0-8.05-2.38c-3,1.31-4.18,4.5-2.7,7.12a6.37,6.37,0,0,0,8,2.38A5,5,0,0,0,382.76,161.19Z"/><path class="h" d="M400.69,166.5a6.38,6.38,0,0,0-8.05-2.37,5,5,0,0,0-2.7,7.11,6.38,6.38,0,0,0,8,2.38A5.05,5.05,0,0,0,400.69,166.5Z"/><path class="h" d="M368.69,174.68c-3,1.3-4.18,4.49-2.7,7.11a6.37,6.37,0,0,0,8,2.38c3-1.31,4.18-4.5,2.71-7.12A6.38,6.38,0,0,0,368.69,174.68Z"/><path class="h" d="M418,212.35c-2.89-5.14-9.94-7.22-15.75-4.66s-8.18,8.79-5.29,13.92,9.94,7.23,15.75,4.67S420.85,217.48,418,212.35Z"/><path class="h" d="M119.83,277a6.37,6.37,0,0,0-8-2.38,5,5,0,0,0-2.7,7.11,6.38,6.38,0,0,0,8,2.39C120.1,282.81,121.31,279.62,119.83,277Z"/><path class="h" d="M137.76,282.31a6.37,6.37,0,0,0-8-2.38c-3,1.31-4.18,4.49-2.71,7.11a6.37,6.37,0,0,0,8,2.38A5,5,0,0,0,137.76,282.31Z"/><path class="h" d="M105.77,290.48c-3,1.31-4.17,4.49-2.7,7.11a6.38,6.38,0,0,0,8,2.39c3-1.31,4.18-4.5,2.7-7.12A6.37,6.37,0,0,0,105.77,290.48Z"/><path class="h" d="M123.7,295.79c-3,1.31-4.18,4.49-2.7,7.11a6.38,6.38,0,0,0,8,2.39c3-1.31,4.18-4.5,2.7-7.12A6.37,6.37,0,0,0,123.7,295.79Z"/><path class="h" d="M139.28,323.49c-5.81,2.56-8.17,8.8-5.29,13.93s9.94,7.23,15.75,4.67,8.18-8.8,5.3-13.94S145.1,320.93,139.28,323.49Z"/><g class="p"><polygon class="q" points="281.46 160.89 209.17 192.72 188.4 348.02 260.69 316.18 281.46 160.89"/><polygon class="r" points="319.96 290.07 392.25 258.24 393.49 248.93 338.53 151.23 319.96 290.07"/></g></g><polygon class="s" points="401.77 334.58 401.77 331.3 401.77 328.02 401.77 324.75 401.77 321.47 401.77 318.19 401.77 314.91 401.77 311.64 401.77 308.36 401.77 305.08 401.77 301.8 401.77 298.52 401.77 295.25 401.77 291.97 405.05 291.97 405.05 288.69 401.77 288.69 401.77 285.41 398.5 285.41 398.5 288.69 398.5 291.97 398.5 295.25 398.5 298.52 398.5 301.8 398.5 305.08 398.5 308.36 398.5 311.64 398.5 314.91 398.5 318.19 398.5 321.47 398.5 324.75 398.5 328.02 398.5 331.3 398.5 334.58 398.5 337.86 398.5 341.13 401.77 341.13 405.05 341.13 405.05 337.86 401.77 337.86 401.77 334.58"/><rect class="s" x="405.05" y="291.97" width="3.28" height="3.28"/><rect class="s" x="408.33" y="295.25" width="3.28" height="3.28"/><rect class="s" x="411.6" y="298.52" width="3.28" height="3.28"/><rect class="s" x="414.88" y="301.8" width="3.28" height="3.28"/><rect class="s" x="418.16" y="305.08" width="3.28" height="3.28"/><rect class="s" x="421.44" y="308.36" width="3.28" height="3.28"/><rect class="s" x="424.71" y="311.64" width="3.28" height="3.28"/><rect class="s" x="427.99" y="314.91" width="3.28" height="3.28"/><rect class="s" x="431.27" y="318.19" width="3.28" height="3.28"/><polygon class="s" points="434.55 321.47 434.55 324.75 431.27 324.75 427.99 324.75 424.71 324.75 421.44 324.75 421.44 328.02 421.44 331.3 424.71 331.3 424.71 328.02 427.99 328.02 431.27 328.02 434.55 328.02 437.83 328.02 437.83 324.75 437.83 321.47 434.55 321.47"/><polygon class="s" points="424.71 337.86 427.99 337.86 427.99 334.58 427.99 331.3 424.71 331.3 424.71 334.58 424.71 337.86"/><polygon class="s" points="427.99 344.41 431.27 344.41 431.27 341.13 431.27 337.86 427.99 337.86 427.99 341.13 427.99 344.41"/><polygon class="s" points="421.44 337.86 418.16 337.86 418.16 341.13 418.16 344.41 421.44 344.41 421.44 341.13 421.44 337.86"/><polygon class="s" points="418.16 331.3 414.88 331.3 414.88 334.58 414.88 337.86 418.16 337.86 418.16 334.58 418.16 331.3"/><rect class="s" x="411.6" y="328.02" width="3.28" height="3.28"/><rect class="s" x="408.33" y="331.3" width="3.28" height="3.28"/><rect class="s" x="405.05" y="334.58" width="3.28" height="3.28"/><polygon class="s" points="421.44 344.41 421.44 347.69 424.71 347.69 427.99 347.69 427.99 344.41 424.71 344.41 421.44 344.41"/><polygon class="t" points="401.77 286.63 434.55 319.4 435.54 324.32 423.43 324.32 424.71 329.24 427.99 335.79 429.63 339.46 427.99 342.35 424.31 343.99 421.44 342.35 418.16 335.79 414.88 329.24 413.24 327.6 403.1 337.74 400.3 337.74 400.3 286.63 401.77 286.63"/><polygon class="u" points="401.77 332.52 401.77 329.24 401.77 325.96 401.77 322.68 401.77 319.4 401.77 316.13 401.77 312.85 401.77 309.57 401.77 306.3 401.77 303.02 401.77 299.74 401.77 296.46 401.77 293.18 401.77 289.91 405.05 289.91 405.05 286.63 401.77 286.63 401.77 283.35 398.5 283.35 398.5 286.63 398.5 289.91 398.5 293.18 398.5 296.46 398.5 299.74 398.5 303.02 398.5 306.3 398.5 309.57 398.5 312.85 398.5 316.13 398.5 319.4 398.5 322.68 398.5 325.96 398.5 329.24 398.5 332.52 398.5 335.79 398.5 339.07 401.77 339.07 405.05 339.07 405.05 335.79 401.77 335.79 401.77 332.52"/><rect class="u" x="405.05" y="289.91" width="3.28" height="3.28"/><rect class="u" x="408.33" y="293.18" width="3.28" height="3.28"/><rect class="u" x="411.6" y="296.46" width="3.28" height="3.28"/><rect class="u" x="414.88" y="299.74" width="3.28" height="3.28"/><rect class="u" x="418.16" y="303.02" width="3.28" height="3.28"/><rect class="u" x="421.44" y="306.3" width="3.28" height="3.28"/><rect class="u" x="424.71" y="309.57" width="3.28" height="3.28"/><rect class="u" x="427.99" y="312.85" width="3.28" height="3.28"/><rect class="u" x="431.27" y="316.13" width="3.28" height="3.28"/><polygon class="u" points="434.55 319.4 434.55 322.68 431.27 322.68 427.99 322.68 424.71 322.68 421.44 322.68 421.44 325.96 421.44 329.24 424.71 329.24 424.71 325.96 427.99 325.96 431.27 325.96 434.55 325.96 437.83 325.96 437.83 322.68 437.83 319.4 434.55 319.4"/><polygon class="u" points="424.71 335.79 427.99 335.79 427.99 332.52 427.99 329.24 424.71 329.24 424.71 332.52 424.71 335.79"/><polygon class="u" points="427.99 342.35 431.27 342.35 431.27 339.07 431.27 335.79 427.99 335.79 427.99 339.07 427.99 342.35"/><polygon class="u" points="421.44 335.79 418.16 335.79 418.16 339.07 418.16 342.35 421.44 342.35 421.44 339.07 421.44 335.79"/><polygon class="u" points="418.16 329.24 414.88 329.24 414.88 332.52 414.88 335.79 418.16 335.79 418.16 332.52 418.16 329.24"/><rect class="u" x="411.6" y="325.96" width="3.28" height="3.28"/><rect class="u" x="408.33" y="329.24" width="3.28" height="3.28"/><rect class="u" x="405.05" y="332.52" width="3.28" height="3.28"/><polygon class="u" points="421.44 342.35 421.44 345.63 424.71 345.63 427.99 345.63 427.99 342.35 424.71 342.35 421.44 342.35"/><polygon class="v" points="131.99 240.83 121.02 235.1 135.48 201.09 151.61 209.5 131.99 240.83"/><polygon class="w" points="129.63 214.86 147.96 215.33 151.61 209.5 135.48 201.09 129.63 214.86"/><path class="x" d="M197,102.75l-49.88,95.62-13.3-6.93,34.79-66.69C174.16,114.19,183,108.23,197,102.75Z"/><path class="y" d="M197,102.74l-49.88,95.63,13.29,6.94,34.79-66.69C200.75,128.06,200.58,117.41,197,102.74Z"/><path class="t" d="M188.7,119.54h0c-8.48,3.31-13.81,6.9-17.13,13.28s-32.1,61.54-32.1,61.54l8,4.18h0l8,4.19,32.1-61.54C190.94,134.82,190.84,128.39,188.7,119.54Z"/><path class="z" d="M188.37,119.36h0c-8.48,3.31-13.81,6.91-17.14,13.29l-32.1,61.54,8,4.18h0l8,4.19L187.28,141C190.61,134.64,190.51,128.22,188.37,119.36Z"/><path class="m" d="M132.54,245.4a8.79,8.79,0,1,1-3.73-11.86A8.78,8.78,0,0,1,132.54,245.4Z"/><g class="aa"><path class="t" d="M181.15,165.62l8.51-16.3L178.23,113a37.18,37.18,0,0,0-9.58,11.79l-.22.41Z"/><path class="t" d="M169.25,188.45,156.53,148,148,164.29l12.72,40.46C161.71,202.9,165,196.56,169.25,188.45Z"/></g><path class="ab" d="M174.1,217.53a6.06,6.06,0,0,1-8.18,2.57L118.6,195.41a6.06,6.06,0,0,1-2.57-8.18h0a6.06,6.06,0,0,1,8.18-2.57l47.32,24.68a6.07,6.07,0,0,1,2.57,8.19Z"/><path class="ac" d="M220.38,358a39.92,39.92,0,0,0-3.42,4.11,35.82,35.82,0,0,0-2.9,4.66c-.49,1-1.11,2.26-1.54,3.26-.25.55-.54,1.31-.73,1.88a39.19,39.19,0,0,0-2.3,12.21,41.91,41.91,0,0,0,.39,6.79,39.62,39.62,0,0,0,3,10.25,39.16,39.16,0,0,0,15.45,17.63A39.37,39.37,0,0,0,242,424a38.89,38.89,0,0,0,8.34.56,40.45,40.45,0,0,0,6.93-.9,42.94,42.94,0,0,0,5-1.46,37.62,37.62,0,0,0,5.3-2.38A39.44,39.44,0,0,0,288,380.39a40.11,40.11,0,0,0-2.83-10.59,37.43,37.43,0,0,0-3.23-6.07,46.57,46.57,0,0,0-3.76-4.88,41.69,41.69,0,0,0-4.6-4.35,46.21,46.21,0,0,0-4.09-2.87c-1-.59-2.37-1.38-3.42-1.88-1.31-.61-3.1-1.34-4.46-1.83-.75-.27-1.77-.59-2.55-.78-1.38-.33-3.24-.72-4.65-.94a41.9,41.9,0,0,0-4.62-.38c-1.05,0-2.45,0-3.49.08A39.55,39.55,0,0,0,220.38,358Z"/><path class="ad" d="M242.74,389c-9.48,15.3.84,30.54,14.06,27.28a26.5,26.5,0,0,0,4.07-1.57c.89.43,1.76.79,2.6,1.1,2.94.7,5.92-2.27,5.13-3.72a1.89,1.89,0,0,0-.58-.51c-.53-.24-1.07-.51-1.64-.8.59-.53,1-.89,1.65-1.6,1.11.6,2.14,1.11,3.08,1.52,2.83.76,5.35-3.53,4.36-4.8a1.61,1.61,0,0,0-.28-.24c-.86-.53-1.81-1.13-2.86-1.8.57-.86.87-1.34,1.28-2.05l1.48,1c2.42,1.11,4.72-3.1,4-5.11a2.49,2.49,0,0,0-.49-.75c-.65-.54-1.35-1.11-2.12-1.7.69-3.11,2-8.89-3.39-13.72C267,376.09,252.2,376.28,242.74,389Zm17.11,14.29a4.83,4.83,0,0,1-.13,7.05c-4.56,3.9-11.16,1.05-10.77-3.39S256.27,400.1,259.85,403.32Zm9.86-15.81.45.33a6.63,6.63,0,0,1,1,8.3c-3.3,4.94-9.25,3.69-10.33-.91C259.55,389.76,265.36,384.71,269.71,387.51Z"/><path class="d" d="M253.26,412.05a4.17,4.17,0,0,1,.09.72,3.42,3.42,0,0,1-3.35,3.49,30.91,30.91,0,0,1-17.37-4.56,33,33,0,0,1-4.67-3.49,3.43,3.43,0,1,1,4.59-5.09,26.24,26.24,0,0,0,3.66,2.74,24.27,24.27,0,0,0,8.43,3.21,24.59,24.59,0,0,0,5.21.35A3.43,3.43,0,0,1,253.26,412.05ZM227.2,396c-.16-.33-.33-.67-.49-1a3.43,3.43,0,0,0-6.25,2.82l.61,1.28a3.42,3.42,0,0,0,6.4-2.31A3.76,3.76,0,0,0,227.2,396Z"/><path class="ae" d="M214.65,384.14l-7-4.73.21.14c4.81,2.95,13.2-1.5,18.73-9.93s6.11-17.39,1.53-20.48c2.34,1.58,4.67,3.15,7,4.74,4.58,3.09,3.93,12.17-1.52,20.47s-13.92,12.89-18.73,9.94Z"/><path class="k" d="M227.91,349c4.81,2.95,4.22,12.18-1.32,20.62s-13.92,12.88-18.73,9.93-4.22-12.18,1.31-20.62S223.1,346.05,227.91,349Z"/><path class="ab" d="M220.92,313.71A27,27,0,0,1,218.43,332l-.51,1c-4.6,8.73-7.76,18.25,2.55,25.71,0,0,2,2.53-1.4,6-2.55,2.6-4.68,1.44-4.68,1.44-17.92-13-8.5-30.85-5-37.59l.49-.93c.25-.49,6.06-12-3.1-18.73l5.69-7.72A21.56,21.56,0,0,1,220.92,313.71Z"/><path class="t" d="M200.62,313.27l-16.46,3.83a4.49,4.49,0,0,1-2-8.74,4.62,4.62,0,0,1,1.61-.07l16.75,2.23a1.4,1.4,0,0,1,.13,2.75Z"/><path class="t" d="M203.7,302.09l-14-9.47a4.48,4.48,0,0,1,5-7.43,4.42,4.42,0,0,1,1.15,1.13l9.75,13.8a1.4,1.4,0,0,1-1.93,2Z"/><path class="t" d="M214,296.75,211.43,280a4.49,4.49,0,0,1,8.87-1.35,4.57,4.57,0,0,1-.05,1.61l-3.5,16.53a1.4,1.4,0,0,1-2.76-.08Z"/><path class="n" d="M390.72,112.43c-7.3-3.83-14.66-2.51-19,4.32-.37-8.06-6.11-12.86-14.35-13.13-6.55-.22-17.59,7.22-13.53,22.17s18.24,27.39,18.24,27.39,18.49-3.79,29.4-14.78S396.52,115.48,390.72,112.43Z"/><path class="c" d="M388.45,373.87q-.94,6.11-1.88,12.2c-1.09,7.15-9.31,12.89-22,14.21-17.34,1.8-36.44-5.36-42.67-16a12.57,12.57,0,0,1-1.84-8.35q.93-6.11,1.87-12.2a12.61,12.61,0,0,0,1.84,8.36c6.23,10.65,25.33,17.82,42.67,16C379.13,386.76,387.35,381,388.45,373.87Z"/><path class="d" d="M386.48,366.27c-6.23-10.65-25.34-17.83-42.68-16s-26.35,11.91-20.12,22.57,25.33,17.82,42.67,16S392.7,376.92,386.48,366.27Z"/><path class="af" d="M386.6,365.52c-6.22-10.65-25.33-17.83-42.67-16s-26.35,11.91-20.13,22.57,25.33,17.82,42.67,16S392.82,376.17,386.6,365.52Z"/><path class="c" d="M363,382.05c-11.92,1.24-25.05-3.69-29.33-11s1.92-14.26,13.83-15.51,25.06,3.69,29.33,11S374.86,380.8,363,382.05Z"/><path class="f" d="M347.45,357.87c11.92-1.25,25.06,3.68,29.33,11a9.55,9.55,0,0,1,1.26,3.41,8.59,8.59,0,0,0-1.26-5.75c-4.27-7.32-17.41-12.25-29.33-11-10,1.05-16,6.14-15.09,12.09C333.12,362.72,338.76,358.77,347.45,357.87Z"/><path class="c" d="M284.45,82.19l9.05,6.47A17.09,17.09,0,0,1,300,98.83c3.4,13.8-5.52,32.68-19.93,42.17-9.68,6.37-19.38,6.89-25.73,2.35l-9.05-6.47c6.35,4.53,16,4,25.73-2.35C285.45,125,294.37,106.16,291,92.36A17.17,17.17,0,0,0,284.45,82.19Z"/><path class="d" d="M291.47,92.65c-3.4-13.81-17.84-17.31-32.24-7.83S235.89,113.2,239.29,127s17.83,17.31,32.25,7.82S294.87,106.45,291.47,92.65Z"/><path class="ag" d="M291,92.36c-3.4-13.81-17.84-17.32-32.24-7.83s-23.34,28.38-19.94,42.18S256.62,144,271,134.53,294.37,106.16,291,92.36Z"/><path class="c" d="M282.82,97.72c-2.34-9.49-12.27-11.89-22.17-5.37s-16,19.5-13.7,29,12.25,11.9,22.16,5.38S285.15,107.21,282.82,97.72Z"/><path class="f" d="M250.07,120.59c-2.33-9.49,3.8-22.47,13.71-29a23.92,23.92,0,0,1,5.48-2.73,21.57,21.57,0,0,0-8.61,3.48c-9.91,6.52-16,19.5-13.7,29,1.9,7.72,8.82,10.75,16.67,8.1C257.12,130.42,251.72,127.26,250.07,120.59Z"/><path class="c" d="M97.06,371.08l-9.44,7.36c-2.86,2.23-6.75,3.22-11.45,2.58-13.51-1.82-28.58-16.34-33.66-32.41-3.32-10.49-1.57-19.05,3.8-23.23L55.75,318c-5.37,4.18-7.12,12.74-3.8,23.23C57,357.33,72.1,371.84,85.61,373.67,90.31,374.3,94.2,373.32,97.06,371.08Z"/><path class="d" d="M100.18,348.36C95.09,332.28,80,317.77,66.51,315.94s-20.34,9.73-15.25,25.81,20.15,30.59,33.66,32.42S105.26,364.44,100.18,348.36Z"/><path class="ah" d="M100.86,347.86c-5.08-16.08-20.15-30.59-33.66-32.42S46.86,325.17,52,341.25s20.15,30.59,33.66,32.42S106,363.94,100.86,347.86Z"/><path class="c" d="M93.22,346.83c-3.5-11.05-13.86-21-23.14-22.29s-14,6.69-10.49,17.74,13.86,21,23.14,22.28S96.71,357.88,93.22,346.83Z"/><path class="f" d="M93.22,346.83c-3.5-11.05-13.86-21-23.14-22.29a10.75,10.75,0,0,0-6.61,1,12,12,0,0,1,4.36-.16c9.28,1.25,19.64,11.23,23.14,22.28,2.51,8,.76,14.29-3.88,16.75C93.38,363,96.11,356,93.22,346.83Z"/><path class="t" d="M371.69,364.6c-1-8.14-4.2-10.61-12.34-9.59,8.14-1,10.61-4.21,9.59-12.35,1,8.14,4.2,10.61,12.34,9.59C373.14,353.27,370.67,356.46,371.69,364.6Z"/><path class="t" d="M64.85,328.17c4.09-7.11,3-11-4.08-15.09,7.11,4.09,11,3,15.09-4.08-4.08,7.11-3,11,4.08,15.09C72.83,320,68.94,321.06,64.85,328.17Z"/><path class="t" d="M283.48,106.24c4.09-7.12,3-11-4.08-15.09,7.11,4.08,11,3,15.09-4.08-4.08,7.11-3,11,4.08,15.09C291.46,98.07,287.57,99.12,283.48,106.24Z"/><path class="t" d="M439.1,195.61c4.09-7.12,3-11-4.08-15.09,7.11,4.08,11,3,15.09-4.08-4.08,7.11-3,11,4.08,15.09C447.08,187.44,443.19,188.49,439.1,195.61Z"/><path class="t" d="M357.27,394.22c-.4-3.21-1.66-4.18-4.87-3.78,3.21-.4,4.19-1.66,3.78-4.87.41,3.21,1.66,4.19,4.87,3.78C357.84,389.76,356.87,391,357.27,394.22Z"/><path class="t" d="M90.59,367.34c-.4-3.21-1.66-4.18-4.87-3.78,3.21-.4,4.19-1.66,3.78-4.87.41,3.21,1.66,4.18,4.87,3.78C91.16,362.87,90.19,364.13,90.59,367.34Z"/><path class="t" d="M245.85,129.24c-.4-3.21-1.66-4.19-4.87-3.78,3.21-.41,4.19-1.66,3.79-4.87.4,3.21,1.65,4.18,4.86,3.78C246.42,124.77,245.45,126,245.85,129.24Z"/><path class="t" d="M335.93,322.75h-2.08v-2.09a1.59,1.59,0,0,0-3.17,0v2.09H328.6a1.58,1.58,0,0,0,0,3.16h2.08V328a1.59,1.59,0,0,0,3.17,0v-2.09h2.08a1.58,1.58,0,1,0,0-3.16Z"/><path class="ai" d="M174.73,400.56a4.47,4.47,0,1,1-4.47-4.47A4.47,4.47,0,0,1,174.73,400.56Z"/><path class="ai" d="M222.35,158a4.47,4.47,0,1,1-4.47-4.47A4.47,4.47,0,0,1,222.35,158Z"/><polygon class="ai" points="358.92 424.73 352.64 421.7 358.39 417.77 358.92 424.73"/><polygon class="ai" points="428.36 138.07 422.07 135.05 427.83 131.11 428.36 138.07"/><path class="aj" d="M65.55,180.28c2.87,2.56.47,5.25,3.34,7.8s5.27-.14,8.14,2.42.47,5.24,3.35,7.8,5.26-.14,8.13,2.41.48,5.25,3.35,7.8,5.27-.13,8.14,2.42"/><path class="aj" d="M423.68,274.18c3.48-1.61,5,1.66,8.48.05s2-4.88,5.46-6.5,5,1.66,8.49,0,2-4.88,5.46-6.5,5,1.66,8.5.05,2-4.88,5.47-6.5"/><path class="aj" d="M364.24,70.24c3.59,1.38,2.3,4.74,5.88,6.12s4.88-2,8.47-.62,2.3,4.74,5.89,6.11,4.88-2,8.46-.61,2.3,4.74,5.89,6.11,4.88-2,8.47-.61"/><path class="ak" d="M121.8,133.64a8.85,8.85,0,0,0-1.64.16,12.47,12.47,0,0,0-23.44,0,8.85,8.85,0,0,0-1.64-.16,8.46,8.46,0,0,0,0,16.91H121.8a8.46,8.46,0,1,0,0-16.91Z"/><g class="al"><path class="am" d="M353.29,238.46c-.09-3.2-4.47-5.51-9.78-5.16s-9.53,3.24-9.44,6.44,4.48,5.52,9.78,5.17S353.39,241.67,353.29,238.46Z"/><path class="am" d="M377,236.89c-.17-5.67-4.36-10.85-11.49-14.19a10,10,0,0,0-9.39.92,3.47,3.47,0,0,0-1.63,2.8,3.43,3.43,0,0,0,2.3,2.84c4.28,2,6.8,5.12,6.9,8.52s-2.22,6.82-6.37,9.39a3.76,3.76,0,0,0-2.11,3.13,3.21,3.21,0,0,0,1.78,2.58,10,10,0,0,0,9.42-.33C373.26,248.27,377.12,242.56,377,236.89Z"/><path class="am" d="M397.57,235.52c-.27-8.8-6.25-16.66-16.84-22.14a10,10,0,0,0-9.4.67,3.61,3.61,0,0,0-1.84,2.94,3.36,3.36,0,0,0,2.08,2.74c8,4.13,12.49,10.05,12.69,16.68s-3.94,13.11-11.64,18.29a3.65,3.65,0,0,0-1.91,3,3.28,3.28,0,0,0,2,2.68,10,10,0,0,0,9.4-.57C392.34,252.94,397.83,244.32,397.57,235.52Z"/></g><path class="an" d="M344.15,228.21c-1.16-4.05-4.47-4.9-7.4-1.89a14.52,14.52,0,0,0-3.21,12.79c1.16,4.06,4.47,4.91,7.4,1.9A14.57,14.57,0,0,0,344.15,228.21Z"/><path class="an" d="M357.2,214.8c-2.05-7.18-6.24-11.78-11.49-12.62-2-.33-4.31,2.21-5.07,5.7a9,9,0,0,0,0,4.37,3.12,3.12,0,0,0,2.29,2.52c3.16.51,5.67,3.28,6.9,7.58a28.62,28.62,0,0,1-.43,15.08,9.42,9.42,0,0,0-.13,5,3.36,3.36,0,0,0,1.91,2.43c2,.7,4.32-1.52,5.3-4.95C359,231.15,359.25,222,357.2,214.8Z"/><path class="an" d="M368.57,203.12c-3.18-11.13-9.32-18.31-17.29-20.22-2-.49-4.32,1.93-5.17,5.39a9.27,9.27,0,0,0,0,4.65,3.24,3.24,0,0,0,2.13,2.5c6,1.44,10.64,6.84,13,15.22s2.25,18.68-.39,29a9.27,9.27,0,0,0-.06,4.76,3.26,3.26,0,0,0,2.06,2.48c2,.54,4.33-1.81,5.21-5.27C371.56,227.93,371.75,214.25,368.57,203.12Z"/></g></svg>