<?xml version="1.0" encoding="utf-8"?>
<!-- Generator: Adobe Illustrator 24.3.0, SVG Export Plug-In . SVG Version: 6.00 Build 0)  -->
<svg version="1.1" id="Layer_1" xmlns="http://www.w3.org/2000/svg" xmlns:xlink="http://www.w3.org/1999/xlink" x="0px" y="0px"
	 viewBox="0 0 32 32" enable-background="new 0 0 32 32" xml:space="preserve">
<path fill="#5A3000" d="M29.44,8.71c-1.02-0.96-2.67-1.42-4.28-0.83c2.21-7.13-6.79-10.26-11.31-5.51C8.78-1.91,1.94,4.28,5.25,9.99
	c-4.58,0.53-5.67,6.06-1.02,7.53c0.48,3.42,1.24,6.71,2.11,10.22c-0.61-0.09-1.34,0.25-1.48,0.73c-1.07,0.96-0.39,2.98,1.22,2.89
	c0.58,0.44,1.61,0.28,1.89-0.38c0.27-0.15,0.49-0.39,0.63-0.66c2.86,0.5,5.71,1.15,8.59,1.6c1.71-0.4,3.23-1.65,4.83-2.34
	c-0.1,0.69,0.55,1.27,1.27,1.4c0.6,0.24,1.28,0.1,1.85-0.16c0.17,0.07,0.34,0.11,0.53,0.12c0.46,0.19,1.02,0.03,1.26-0.41
	c1.02-0.79-0.01-2.35-1.13-2.2c-0.15-0.24-0.39-0.39-0.56-0.47c0,0,0.01,0,0.01-0.01c0.14-0.07,0.25-0.12,0.42-0.21
	c0.64,0.52,1.77,0.27,2.02-0.53c0.36-0.09,0.93-0.68,0.91-1.22c0.23-0.36-0.15-1.2-0.54-1.3c-0.09-0.6-0.58-1.09-1.18-1.15
	c0.37-1.8,1.09-5.43,1.48-7.24c0.02-0.06,0.04-0.15,0.05-0.26C30.98,14.72,31.78,10.41,29.44,8.71z"/>
<g>
	<path fill="#F8F8F8" d="M12.44,28.53c0-3.55-0.04-7.85-0.11-10.63c0.47-0.58,1.55-1.58,1.65-1.46c0.78,1.09,1.93,2.17,2.57,3.2
		c0.15,3.52,0.36,7.05,0.48,10.57c-1.19,0.19-2.97-0.58-4.36-0.68C12.25,29.46,12.53,28.84,12.44,28.53
		C12.46,28.53,12.45,28.53,12.44,28.53z"/>
	<path fill="#EDF0F6" d="M17.39,30.29c-0.15-3.62-0.31-7.17-0.51-10.78c0.89-1.06,1.68-2.65,2.68-3.4c0.29,0.43,0.97,1.14,1.17,1.61
		c0.06,3.66,0.14,6.97,0.24,10.63C20.07,29.16,18.53,29.58,17.39,30.29z"/>
	<path fill="#F8F8F8" d="M5.84,18.33c1.09,0.77,2.45,1.47,3.4,2.18c0.24,1.69,0.9,5.75,1.33,8.63c-0.79-0.27-1.96-0.13-2.54-0.64
		c-0.87-3.34-1.62-6.69-2.21-10.08C5.84,18.4,5.84,18.38,5.84,18.33z"/>
	<path fill="#EDF0F6" d="M26.74,16.73c-0.6,3.17-1.23,6.34-1.85,9.51c-0.28,0.6-1.55,0.97-2.15,1.27c0-2.72,0-5.45,0-8.17
		c1.17-0.84,2.71-1.76,3.96-2.66C26.72,16.69,26.73,16.71,26.74,16.73z"/>
	<path fill="#EB4235" d="M12,18.15c-0.1,3.61,0.17,11.2,0.17,11.2s-0.99-0.13-1.25-0.21c-0.24-1.55-1.19-7.58-1.25-8.9
		c0.44-0.62,1.51-1.39,2.27-2.09C11.95,18.16,11.97,18.16,12,18.15z"/>
	<g>
		<path fill="#EB4235" d="M21.98,27.93C21.98,27.94,21.98,27.94,21.98,27.93C21.98,27.94,21.98,27.93,21.98,27.93z"/>
		<path fill="#EB4235" d="M21.89,27.98L21.89,27.98C21.89,27.98,21.9,27.98,21.89,27.98z"/>
	</g>
	<path fill="#F8F189" d="M6.42,16.94c-0.36-0.38-1.32-0.26-1.85-0.47c0.47,0.49,2.44,0.19,1.7,1.21c-0.1,0.24-0.04,0.33,0.19,0.49
		C6.63,17.77,6.61,17.35,6.42,16.94z"/>
	<path fill="#F8F189" d="M27.45,25.14c-0.78,0.07-0.31-1.07-1.05-1.02v0.01c-0.01,0-0.02,0.01-0.02,0.02
		c-0.21,0.06-0.44-0.23-0.49,0.06c-0.07,0.45-0.24,1.31-0.45,1.88c0.24,0.06,0.07,0.12-0.09,0.41c0.5,0.09,1.5,0.79,1.45-0.25
		c0.18-0.07,0.53-0.24,0.53-0.24C27.57,25.85,27.54,25.41,27.45,25.14z"/>
	<path fill="#EDF0F6" d="M26.71,16.67c0.03-0.09,0.11,0.02,0.04,0.06C26.73,16.71,26.72,16.69,26.71,16.67z"/>
	<path fill="#F8F189" d="M13.76,3.79c-0.02-0.02-0.03-0.03-0.05-0.04C13.73,3.76,13.75,3.78,13.76,3.79z"/>
	<path fill="#F8F189" d="M13.81,3.81c-0.03,0.01-0.05,0-0.05-0.03C13.78,3.8,13.79,3.81,13.81,3.81z"/>
	<path fill="#F8F189" d="M13.86,3.86c-0.03,0.01-0.05,0-0.04-0.04C13.83,3.83,13.84,3.85,13.86,3.86z"/>
	<path fill="#F8F189" d="M7.92,29.3c-0.4-0.02-0.25-0.48-0.47-0.71c-0.5,0.05-1.11-0.22-1.6,0.04c0.01-0.01-0.01,0.01-0.02,0.02
		C3.97,30.46,8.12,31.53,7.92,29.3z"/>
	<path fill="#FFFFFF" d="M18.93,7.67c0.57-0.49,0.84,0.76,0.04,0.45C18.87,7.97,18.85,7.83,18.93,7.67z"/>
	<path fill="#FFFFFF" d="M9.78,8.32c0.52-0.57,0.96,0.52,0.2,0.44C9.79,8.66,9.73,8.51,9.78,8.32z"/>
	<path fill="#EB4235" d="M17.51,9.84c-0.04,2.88-3.93,3.38-4.54,0.38C14.52,10.57,16.04,10.27,17.51,9.84z"/>
	<path fill="#EB4235" d="M17.51,9.84c0-0.01,0.01-0.01,0.01-0.02C17.52,9.83,17.52,9.84,17.51,9.84L17.51,9.84z"/>
	<path fill="#EB4235" d="M22.47,27.51c0-2.69,0-5.37,0-8.05c-0.42-0.53-0.97-1.06-1.47-1.66c0.09,3.52,0.14,6.8,0.24,10.32
		c0.01,0.36,0.42-0.08,0.6-0.08C22.06,27.87,22.55,27.86,22.47,27.51z"/>
	<path fill="#F8F189" d="M24.98,28.59c-0.05-0.3-0.43-0.32-0.64-0.47c-0.19-0.19-0.46-0.34-0.73-0.22c-0.01,0-0.02,0.01-0.02,0.02
		c-0.17,0.06-0.34,0.09-0.51,0.1c-0.41,0.15,0,0.67-0.29,0.9c-0.72,0.98,1.04,1.26,1.68,0.95C25,29.7,24.97,29.04,24.98,28.59z"/>
	<path fill="#F8F189" d="M26.3,29.24c-0.16-0.09-0.14-0.35-0.35-0.39c-0.21,0.05-0.59-0.12-0.7,0.14c-0.33,0.17-0.34,0.75,0.06,0.85
		c0.14,0.04,0.28,0.01,0.42,0.09c0.21,0.1,0.3-0.09,0.42-0.23C26.3,29.61,26.43,29.39,26.3,29.24z"/>
	<path fill="#F8F189" d="M28.74,10.06c-1.26-1.95-3.73-1.15-5.44-0.33c0.01,0-0.01-0.01-0.01-0.01s0-0.01-0.01-0.01
		c-0.01-0.01-0.01-0.02-0.02-0.03V9.59c0.03-0.1,0.11-0.21,0.12-0.32c3.21-7.19-4.86-10.36-9.47-5.34
		C9.16-0.81,2.87,5.62,6.84,10.67c0.27,0.17,0.11,0.3-0.13,0.25c-4.42,0.05-6.27,4.51-1.33,5.92c1.01,0.24,1.15,0.13,0.72,1.17
		c0.03,0.07,0.1,0.09,0.16,0.11h0.03c0.04,0.02,0.08,0.04,0.11,0.04c0,0.01-0.01,0.02-0.01,0.02c1,0.44,2,1.47,2.99,1.62
		c1.44-1.33,2.9-2.67,4.33-4.01c1.05,0.47,1.85,2.1,2.79,2.96c0.1,0.12,0.14,0.11,0.24-0.01c3.56-4.12,1.98-4.22,5.68-0.13
		c0.86-0.47,2.25-1.4,3.23-1.84c0.16-0.05,0.34-0.22,0.47-0.29c-0.04-0.25-0.04-0.61-0.05-0.88C28.47,15.2,30.44,12.2,28.74,10.06z
		 M11.14,8.78c-0.16,0.7-1.01,0.55-1.23-0.02c-0.17-0.1-0.24-0.25-0.2-0.44C9.53,6.55,11.5,7.51,11.14,8.78z M16.42,12.32
		c-1.84,1.14-3.9-0.65-3.98-2.61c1.8,0.69,3.83-0.04,5.42-0.32C17.87,10.62,17.5,11.65,16.42,12.32z M20.12,8.48
		c-0.44,0.82-1.48-0.18-1.25-0.81C18.96,5.86,20.85,7.31,20.12,8.48z"/>
</g>
</svg>
