<?xml version="1.0" encoding="utf-8"?>
<!-- Generator: Adobe Illustrator 24.3.0, SVG Export Plug-In . SVG Version: 6.00 Build 0)  -->
<svg version="1.1" id="Layer_1" xmlns="http://www.w3.org/2000/svg" xmlns:xlink="http://www.w3.org/1999/xlink" x="0px" y="0px"
	 viewBox="0 0 467 213.9" style="enable-background:new 0 0 467 213.9;" xml:space="preserve">
<style type="text/css">
	.st0{fill:#5A3000;}
	.st1{fill:#F8F189;}
	.st2{fill:#422505;}
	.st3{fill:#F8F8F8;}
	.st4{fill:#EDF0F6;}
	.st5{fill:#EB4235;}
	.st6{fill:#F8F3B4;}
	.st7{fill:#FFFFFF;}
</style>
<path class="st0" d="M188.6,62.2c-0.5-0.4-1-0.7-1.5-1.1c-3.8-2.8-8.2-6.1-15.6-6.1c-3.1,0-6.7,0.6-10.8,1.8
	c1.4-5.1,2.2-11.2,1.8-17.4c-0.9-10.7-5.8-19.6-14.2-25.8c-6.5-4.8-15.5-7.4-25.2-7.4c-5,0-10,0.7-14.6,2.1
	C99.5,11,93.2,14.6,87.1,21c-7.6-6-16.2-9.3-24.7-9.3c-6,0-11.9,1.6-17,4.8C40,19.7,32.5,25,28.9,33.2c-4.4,9.9-4.4,20.6,0,32.7
	c0.6,1.6,1.3,3.2,2.1,4.7c-0.8,0.2-1.6,0.3-2.4,0.5c-8.6,1.9-15.1,5.8-19.4,11.4c-6.4,8.4-6.5,18.6-0.1,26.7
	c3.3,4.3,8.5,7.7,15.3,10.4c0,0.3,0,0.8,0.1,1.4c0.2,1.3,0.4,2.6,0.6,3.8c0.5,3.1,1.1,6.4,1.6,9.6c3,16.3,6.7,33.4,11,50.7
	c0.1,0.3,0.2,0.6,0.2,0.9c-0.4,0-0.8-0.1-1.1-0.1c-1.1,0-2,0.2-2.8,0.3c-3,0.6-4.6,2.3-5.3,3.7c-0.2,0.3-0.3,0.6-0.4,0.8
	c-0.7,0.5-1.7,1.3-2.4,2.7c-1,1.9-0.9,3.7-0.9,4.8v0.1c0.1,3.3,1.1,5.9,2.8,7.9c1.3,1.5,3.8,3.3,8.1,3.4h0.1h0.3h0
	c1,0.6,2.1,1.1,3.3,1.4c0.5,0.1,1.4,0.3,2.3,0.3c1.3,0,2.5-0.3,3.5-0.9c1.8-0.9,2.7-2.4,3.2-3.2c0.1,0,0.1-0.1,0.2-0.1
	c1.5-0.9,2.7-2.1,3.6-3.6c0.1-0.2,0.2-0.4,0.3-0.6c1.5,0.3,3.1,0.6,4.6,0.9l4.3,0.8c14.9,2.8,29.8,5.7,44.8,8.5
	c0.8,0.1,1.5,0.2,2.2,0.2c1.7,0,3.2-0.4,4.7-1.2c8.6-4.5,17.3-9.1,25.7-13.6c0.4-0.2,0.7-0.4,1.1-0.6c-0.1,1.2,0.1,2.7,0.8,4.2
	c0.6,1.1,1.7,2.7,4.1,3.8c0.9,0.4,1.8,0.7,2.5,0.9l0.4,0.1c0.2,0.1,0.3,0.1,0.5,0.2c0.8,0.3,1.9,0.6,3.1,0.8c0.3,0,0.6,0.1,1,0.1
	c1.2,0,2.2-0.2,2.9-0.4c0.2,0,0.3-0.1,0.5-0.1c0.2,0,0.4-0.1,0.6-0.1c0.8-0.1,1.8-0.2,2.9-0.7c0.4-0.2,0.8-0.4,1.2-0.6
	c0.4,0.2,0.9,0.4,1.4,0.5c0.6,0.1,1.2,0.2,1.9,0.3c0.1,0,0.1,0,0.2,0c0.9,0.4,1.8,0.5,2.7,0.5c2.2,0,4.3-1.1,5.5-3.1l0.1-0.1
	c0.4-0.3,0.8-0.7,1.3-1.3c2-2.6,1.9-6.1-0.1-8.4c-0.1-0.1-0.2-0.2-0.3-0.3c-0.2-0.4-0.4-0.8-0.7-1.2c-1-1.4-2.5-2.4-4.2-2.7
	c-0.4-0.1-0.8-0.1-1.1-0.1c-0.2,0-0.4,0-0.6,0c-0.1,0-0.1,0-0.2-0.1c-0.4-0.1-0.9-0.1-1.4-0.1c0,0-0.1,0-0.1,0
	c-1-1.6-2.5-2.5-3.7-3.1c0,0,0.1,0,0.1,0c0.2-0.1,0.4-0.2,0.7-0.3c0.6-0.3,1.3-0.6,2.1-1.1c0.5,0.4,1.1,0.7,1.8,1
	c1.1,0.5,2.4,0.7,3.6,0.7c2.8,0,5.4-1.3,6.9-3.5c0.4-0.6,0.7-1.2,0.9-1.7c0.4-0.2,0.7-0.4,1.1-0.6c0.8-0.4,3-1.6,4.1-4.3
	c0.4-1.1,0.6-2.1,0.6-2.8c0-0.1,0-0.3,0.1-0.4c0.3-0.8,0.8-2.6,0-4.6c-0.8-2-2.3-3.1-2.8-3.4c-0.2-0.2-0.5-0.3-0.7-0.4
	c-0.1-0.3-0.1-0.6-0.2-0.9c-0.6-2.5-2.3-4.6-4.6-5.7c-0.9-0.4-1.9-0.7-2.9-0.9c0.1-0.6,0.2-1.2,0.4-1.9l3.7-18.1l5.5-27.1
	c0-0.1,0-0.1,0.1-0.2c0.1-0.4,0.3-1,0.4-1.8c7.2-4.3,13.5-11.6,15.4-20.8C199.3,78.6,195.6,67.3,188.6,62.2z"/>
<g>
	<path class="st1" d="M48,197.4c-0.7-0.4-1.9-0.2-1.9-1.4c0-1.3-0.5-2.4-1.2-3.3c-0.3-0.3-0.7-0.5-1.1-0.5c-0.8,0-1.5,0.6-2.3,0.7
		c-0.8,0.2-1.5-0.1-2.3-0.5c-0.4-0.2-0.8-0.4-1.2-0.5c-0.5-0.1-0.9,0-1.4,0c0,0,0,0,0,0c-0.7,0.2-1.3,0.3-2,0.5
		c-0.1,0-0.1,0.1-0.2,0.1c-0.1,0.1-0.2,0.1-0.3,0.2c0,0,0,0-0.1,0.1c0.1-0.1,0,0,0,0c0,0,0,0-0.1,0.1c0,0,0,0,0,0c0,0,0,0,0,0
		c-0.1,0.1-0.2,0.3-0.2,0.4c0,0.1,0,0.1,0,0.2c0,0.2-0.1,0.4-0.2,0.6c-0.2,0.4-0.6,0.6-1,0.8c-0.1,0.1-0.2,0.1-0.2,0.1
		c-0.1,0.1-0.2,0.2-0.4,0.3c-0.3,0.3-0.4,0.6-0.5,0.9c-0.2,0.6-0.2,1.3-0.2,2c0.1,0.1,0.1,0.2,0.1,0.3c0,0.1,0,0.2,0,0.3
		c0,0.1,0,0.2,0,0.3c0.1,2.2,1.7,4.1,3.8,4.6c0.2-1.3,2-2.1,3-1.3c0.8,0.6,0,1-0.2,1.5c0.8-0.1,1.5-0.1,2,0.6
		c0.5,0.7,1.5,0.6,2.1,1.1c0.3-0.1,0.7,0.1,0.9-0.3c-0.2-0.5-0.5-0.9-0.6-1.5c-0.2-1-0.1-1.9,0.8-2.2c1-0.3,0.9,0.9,1.3,1.4
		c0.2-0.6,0.8-0.7,1.3-0.8C47.9,201.8,49,199.4,48,197.4z"/>
	<path class="st1" d="M172.9,178.1c-0.6,0.4-0.6,1.2-0.9,1.7c-0.3-0.9,0-1.8-0.4-2.7c-0.3-0.6-0.6-0.8-1.2-0.4
		c-0.9,0.7-1.2,1.6-1,2.7c0.2,1,0.5,1.9,1.7,1.9c-1.8,0.9-3.6,0.6-4.9-0.8c-0.8-0.9-1.6-1.1-2.7-0.8c1.1-2,1.1-2-0.5-2.4
		c0.8-4,1.6-8,2.4-11.9c0.1-0.4,0.1-1.3,0.8-0.7c1.1,0.9,2,0.4,3-0.1c0.4-0.2,0.8-0.3,1.1-0.5c0-0.1,0.1-0.1,0.1-0.1l0-0.1
		c0.4-0.1,0.8-0.1,1.2,0c1.7,1.3,2.9,2.9,2.4,5.2c-0.1,0.3-0.1,0.6,0.3,0.7c1.1,0.1,1.9,1.1,3,0.9l0,0c0.6,1.6,0.7,3.1,0.1,4.7
		c-0.3,0.4-0.2,1-0.9,1.1l0.1,0.1l-0.1,0.1l0,0C175.3,177.1,174.1,177.6,172.9,178.1L172.9,178.1z"/>
	<path class="st1" d="M159.1,192.2c0.5,0.1,0.9,0.5,1.2,1c0.4,1.1,0.4,2.2,0.3,3.4l0,0c-0.5,0.3-0.7,0.8-0.5,1.3
		c0.4,0.8,0,1.4-0.3,2.1l0,0c-0.2,0.1-0.4,0.2-0.5,0.3c-0.1-0.6,0.2-1.2,0.4-1.7c0.1-0.4,0-0.7-0.3-0.9c-0.3-0.2-0.5,0.1-0.7,0.2
		c-1.1,0.8-1,1.9,0.2,2.8c-0.2,0.2-0.6,0.3-0.7,0.7l0,0c-0.3,0-0.3,0.3-0.5,0.4c-0.1,0.1-0.2,0.1-0.4,0.2l0.1,0
		c-1.5-0.1-3,0.2-4.4,0.8c-0.2,0.1-0.4,0.2-0.5,0.2c-1.9-1-4.4-1-5.9-2.7c-1-1.1-0.9-2.7,0.3-3.7c0.8-0.7,1.2-1.6,1-2.7
		c-0.6-2.6-0.2-3.1,2.4-3.6c0.4-0.1,0.9-0.2,1.3-0.3c1.4-0.5,2.9-0.6,4.2,0.3l0,0c0.1,0.1,0.2,0.2,0.3,0.3l0,0
		c0.1,0.1,0.2,0.2,0.3,0.3l0,0c0.1,0.1,0.2,0.2,0.3,0.3l0,0c0.1,0.3,0.3,0.3,0.6,0.3l-0.1-0.1c0.5,0.5,1.1,0.6,1.7,0.6l0,0
		C158.6,192.2,159.1,191.9,159.1,192.2z M154.9,193.1c0.1-0.1,0.9,0.5,1.1-0.2c0.2-0.7-0.4-1.3-1-1.7c-1-0.6-2.2-0.7-3.3-0.4
		c-0.6,0.2-0.9,0.6-0.3,1.1C152.4,192.5,153.3,193.5,154.9,193.1z"/>
	<path class="st1" d="M166.4,202.1c-0.9-0.6-2.1-0.4-3.2-0.7c-1.1-0.3-1.5-1.3-1.6-2.4c-0.1-0.8,0.3-1.5,1-2.1
		c1.1-1,2.1-1.3,3.3-0.7c0.4,0.2,0.7,0,0.9-0.1c0.9-0.4,1.5,0.3,1.5,0.7c0.1,0.8,0.4,1.3,1.1,1.6c0.5,0.2,0.1,0.6,0,1
		c-0.4,1-1.6,1.4-1.9,2.4C167.4,202.2,166.9,202.1,166.4,202.1z"/>
	<path class="st2" d="M177.3,170.7c-1.1,0.1-2-0.8-3-0.9c-0.3-0.1-0.3-0.4-0.3-0.7c0.5-2.3-0.6-3.9-2.4-5.2c2,0.9,2.7,2.5,2.6,4.6
		c0,0.8,0.1,1.1,1,1.2C176.1,169.7,176.8,170,177.3,170.7z"/>
	<path class="st2" d="M177.4,175.3c0.6-1.6,0.6-3.1-0.1-4.7c1.2,0.9,1,2.1,0.6,3.3C177.8,174.4,177.5,174.9,177.4,175.3z"/>
	<path class="st2" d="M172.9,178.2c1.2-0.6,2.4-1.1,3.6-1.7C175.6,177.8,174.4,178.3,172.9,178.2z"/>
	<path class="st2" d="M155.6,190.1c-1.4-0.9-2.8-0.8-4.2-0.3C152.9,188.9,154.5,189,155.6,190.1z"/>
	<path class="st2" d="M160.6,196.5c0.1-1.1,0.1-2.3-0.3-3.4C161.1,194.2,161,195.4,160.6,196.5z"/>
	<path class="st2" d="M159.8,199.9c0.4-0.7,0.7-1.3,0.3-2.1c-0.2-0.5,0.1-1,0.5-1.3C160.2,197.6,160.4,198.8,159.8,199.9z"/>
	<path class="st2" d="M158.1,201.2c0.1-0.4,0.5-0.4,0.7-0.7l0,0c0.2-0.1,0.4-0.1,0.4-0.4v0c0.2-0.1,0.4-0.2,0.5-0.3
		C159.5,200.6,159,201.1,158.1,201.2z"/>
	<path class="st2" d="M158.7,191.8c-0.6,0-1.2-0.1-1.7-0.6C157.6,191.4,158.2,191.4,158.7,191.8z"/>
	<path class="st2" d="M159.1,192.2c0-0.3-0.6,0-0.5-0.4C158.9,191.8,159.2,191.8,159.1,192.2z"/>
	<path class="st2" d="M157.7,201.6c0.2-0.1,0.2-0.4,0.5-0.4C158.3,201.7,157.7,201.4,157.7,201.6z"/>
	<path class="st2" d="M157,191.2c-0.2,0-0.5,0-0.6-0.3C156.7,190.9,156.9,191.1,157,191.2z"/>
	<polygon class="st2" points="157.3,201.8 157.3,201.9 157.3,201.9 	"/>
	<path class="st2" d="M155.9,190.4c-0.1-0.1-0.2-0.2-0.3-0.3C155.9,190,155.9,190.2,155.9,190.4z"/>
	<path class="st2" d="M156.2,190.7c-0.1-0.1-0.2-0.2-0.3-0.3C156.1,190.3,156.2,190.5,156.2,190.7z"/>
	<path class="st2" d="M156.5,191c-0.1-0.1-0.2-0.2-0.3-0.3C156.4,190.6,156.5,190.7,156.5,191z"/>
	<polygon class="st2" points="176.5,176.5 176.6,176.5 176.5,176.4 	"/>
	<path class="st2" d="M170.5,163.9L170.5,163.9C170.5,163.9,170.5,163.9,170.5,163.9z"/>
	<path class="st3" d="M77.4,193.3c0-5.4,0-10.9,0-16.4c-0.1-7.7-0.2-15.3-0.3-23c-0.1-7.9-0.1-15.8-0.3-23.7
		c-0.1-2.6-0.1-5.2-0.1-7.8c0-0.7,0.1-1.2,0.7-1.7c2.9-2.7,5.8-5.4,8.7-8.1c0.6-0.5,0.9-0.7,1.6,0.1c5.3,6.2,10.6,12.3,16,18.3
		c0.8,0.9,1.1,1.9,1.1,3c0.2,4.5,0.4,8.9,0.6,13.4c0.3,6.4,0.6,12.9,0.9,19.3c0.2,4.3,0.4,8.7,0.6,13c0.3,6.6,0.7,13.2,1,19.8
		c0.1,1.7,0.1,3.3,0.2,5c0.1,0.8-0.1,0.9-0.9,0.8c-7.9-1.5-15.8-3-23.7-4.5c-1.5-0.3-3-0.6-4.5-0.8c-1.1-0.1-1.5-0.6-1.4-1.7
		c0.1-1.7,0-3.3,0-5C77.4,193.3,77.4,193.3,77.4,193.3z"/>
	<path class="st4" d="M110.3,205c-0.3-7.8-0.7-15.4-1-23c-0.4-9-0.8-18-1.3-26.9c-0.3-7.3-0.7-14.6-1.1-21.9
		c-0.1-0.9,0.3-1.5,0.8-2.1c5.6-6.8,11.2-13.7,16.9-20.5c0.4-0.5,0.7-0.8,1.3-0.1c2,2.4,4.1,4.7,6.2,7.1c0.3,0.4,0.5,0.7,0.5,1.2
		c0.1,4.8,0.2,9.7,0.3,14.6c0.2,8.2,0.4,16.4,0.6,24.6c0.1,5.1,0.3,10.2,0.4,15.4c0.1,6.2,0.3,12.5,0.4,18.7c0,0.5,0.1,0.8-0.4,1.1
		C126,197,118.3,200.9,110.3,205z"/>
	<path class="st3" d="M33.3,125.3c5.7,3.4,11.2,6.6,16.7,9.9c1.7,1,3.3,2,5,3c0.7,0.4,1,0.9,1.1,1.6c2.5,16.1,5,32.2,7.5,48.3
		c0.5,3,0.9,6.1,1.4,9.2c-5.4-1-10.7-2.1-16-3c-0.8-0.1-0.8-0.6-1-1.2c-3.2-12.5-6.2-25-8.9-37.5c-2.1-9.9-4.1-19.8-5.8-29.7
		C33.3,125.7,33.3,125.6,33.3,125.3z"/>
	<path class="st4" d="M172.7,114.6c-1,5.2-2,10.4-3,15.6c-3.1,15.9-6.2,31.8-9.3,47.8c-0.2,1.2-0.7,1.9-1.8,2.4
		c-3.7,1.8-7.4,3.8-11.1,5.6c-0.4,0.2-0.8,0.6-1.4,0.4c0-0.4,0-0.9,0-1.3c0-17.7,0-35.4,0-53.2c0-1.1,0.3-1.6,1.2-2.2
		c8.2-5,16.3-10.1,24.4-15.2c0.2-0.1,0.5-0.2,0.8-0.3C172.5,114.4,172.6,114.5,172.7,114.6z"/>
	<path class="st5" d="M74.4,124.1c0.1,1.8,0.3,3.4,0.3,5.1c0.1,7-0.1,14.1,0.1,21.1c0.2,8.1,0.1,16.3,0.3,24.4
		c0.2,7.7,0.2,15.4,0.3,23c0,1.1-0.2,1.4-1.3,1.1c-2-0.5-4-0.8-6-1.2c-0.6-0.1-0.8-0.4-0.9-1c-1.6-10.4-3.2-20.7-4.8-31.1
		c-1.3-8.5-2.6-17.1-4-25.6c-0.1-0.8,0-1.3,0.5-1.8c5-4.6,10.1-9.3,15.1-13.9C74.1,124.2,74.2,124.2,74.4,124.1z"/>
	<g>
		<path class="st5" d="M140.9,189.3C140.9,189.3,140.9,189.3,140.9,189.3C140.9,189.3,140.9,189.3,140.9,189.3z"/>
		<path class="st5" d="M140.3,189.6C140.3,189.6,140.3,189.6,140.3,189.6C140.3,189.6,140.3,189.6,140.3,189.6z"/>
	</g>
	<path class="st1" d="M37.2,116c-0.3-0.7-0.6-1.1-1.5-1.2c-1.6-0.1-3.3-0.6-4.9-0.7c-2-0.2-3.9-1-5.9-1.2c0.4,0.2,0.7,0.4,1.1,0.6
		c3,1.6,6.3,1.9,9.5,2.8c0.2,0,0.3,0,0.5,0.1c0.2,0,0.4,0,0.5,0.2c0.2,0.1,0.3,0.2,0.4,0.4c0.3,0.4,0.5,0.9,0.5,1.5
		c0,0.5-0.1,1-0.3,1.5c-0.2,0.4-0.4,0.9-0.8,1.1c-0.7,1.6-0.3,2.2,1.3,3.2C38.6,121.5,38.5,118.7,37.2,116z"/>
	<path class="st6" d="M171,181.3c-1.3,0-1.6-0.9-1.7-1.9c-0.2-1.1,0.1-2,1-2.7c0.6-0.4,0.9-0.1,1.2,0.4c0.4,0.9,0.1,1.8,0.4,2.7v0
		c-0.7,0.2-0.8,0.7-0.6,1.3C171.2,181.2,171.1,181.2,171,181.3z"/>
	<path class="st6" d="M162.9,177.3c1.6,0.4,1.6,0.4,0.5,2.4c-0.6,0.2-1.1,0.5-0.9-0.6C162.7,178.5,162.8,177.9,162.9,177.3z"/>
	<path class="st1" d="M40.5,74.3c0.5,0.3,1.1,0.9,0.9,1.3c-0.3,0.7-1.2,0.2-1.8,0.3C40,75.4,40.2,74.8,40.5,74.3z"/>
	<path class="st1" d="M171.3,181.1c-0.1-0.6-0.1-1.1,0.6-1.3C171.8,180.3,171.8,180.9,171.3,181.1z"/>
	<path class="st4" d="M172.4,114.3c0.1-0.2,0.2-0.3,0.4-0.2c0.1,0.2,0.1,0.4-0.1,0.5C172.6,114.5,172.5,114.4,172.4,114.3z"/>
	<path class="st1" d="M86.2,28.4c-0.1-0.1-0.2-0.2-0.3-0.3C85.9,28.2,86.1,28.3,86.2,28.4z"/>
	<path class="st1" d="M86.5,28.6c-0.2,0.1-0.3,0-0.4-0.2C86.3,28.5,86.4,28.5,86.5,28.6z"/>
	<path class="st1" d="M86.8,28.9c-0.2,0-0.3,0-0.3-0.3C86.6,28.7,86.7,28.8,86.8,28.9z"/>
	<path class="st3" d="M152.4,65.2c-0.1,0-0.2,0.1-0.3,0.1c0-0.1,0-0.2,0-0.3C152.2,65.1,152.3,65.1,152.4,65.2z"/>
	<path class="st6" d="M44.4,203.9c-0.6,0.5-0.5,1.7-1.7,1.7c-0.2-0.5-0.5-0.9-0.6-1.5c-0.2-1-0.1-1.9,0.8-2.2c1-0.3,0.9,0.9,1.3,1.4
		C44.3,203.5,44.4,203.7,44.4,203.9z"/>
	<path class="st6" d="M37.8,204c-0.8,0.3-1.5,0.4-2.3,0.1c-0.1-0.3-0.3-0.4-0.6-0.3h0c0.2-1.3,2-2.1,3-1.3
		C38.7,203.1,37.9,203.5,37.8,204z"/>
	<path class="st6" d="M154.9,193.1c-1.7,0.4-2.5-0.5-3.4-1.2c-0.6-0.4-0.3-0.9,0.3-1.1c1.1-0.3,2.3-0.3,3.3,0.4
		c0.6,0.4,1.2,0.9,1,1.7C155.8,193.5,155.1,193,154.9,193.1z"/>
	<path class="st6" d="M158.8,200.6c-1.2-0.8-1.3-2-0.2-2.8c0.2-0.2,0.5-0.4,0.7-0.2c0.3,0.2,0.4,0.5,0.3,0.9
		c-0.2,0.6-0.5,1.1-0.4,1.7v0C159,200.1,158.7,200.2,158.8,200.6L158.8,200.6z"/>
	<path class="st1" d="M34.9,203.8c0.3-0.1,0.5,0,0.6,0.3C35.2,204.1,35,204.1,34.9,203.8z"/>
	<path class="st1" d="M158.8,200.6c-0.1-0.4,0.2-0.4,0.4-0.4C159.2,200.4,159,200.5,158.8,200.6z"/>
	<path class="st2" d="M77.7,67.8c4.7,1.2,9.3,2,14,1.9c5.5,0,10.8-1.3,16.1-2.8c1.7-0.5,3.4-1.1,5.1-1.7c0.5-0.2,0.9-0.3,0.9,0.5
		c0.1,8.1-2.3,15-9.6,19.5c-7.4,4.5-16.9,2.2-22-5.1C79.8,76.7,78.1,72.2,77.7,67.8z M111.1,68.7c-0.7-0.1-1.3,0.2-2,0.4
		c-7.9,2.3-15.8,4-24.1,2.7c-1.3-0.2-2.7-0.4-4.2-0.6c0.6,2.5,1.5,4.6,2.8,6.6c3.3,5,7.8,7.8,14,7.1
		C106.1,83.9,111.1,75.8,111.1,68.7C111.2,68.7,111.2,68.7,111.1,68.7c0.1-0.1,0.1-0.1,0.1-0.1C111.2,68.6,111.2,68.7,111.1,68.7z"
		/>
	<path class="st2" d="M59.5,58.6c-0.2-1.2-0.2-2.5,0.2-3.7c0.9-2.9,3.6-3.9,6.1-2.1c2.6,1.8,4,5.9,3.2,8.9c-0.8,3.1-3.6,4.1-6.2,2.3
		c-0.9-0.6-1.6-1.4-2-2.4c0.2,0,0.5,0,0.7,0c1,0.1,1.8-0.3,2-1.3c0.2-0.9,0.1-1.8-0.8-2.3c-0.9-0.6-1.8-0.5-2.6,0.3
		C59.9,58.3,59.7,58.4,59.5,58.6z"/>
	<path class="st2" d="M120.6,54.2c0-0.5-0.1-1,0-1.5c0.4-1.9,1.2-3.6,3.4-4.1c1.7-0.4,3.6,0.7,4.7,2.7c1.5,2.7,1.8,5.5,0.2,8.3
		c-1.3,2.4-3.9,2.7-5.9,0.9c-1-0.9-1.7-2.1-2.1-3.4c1.8,0.6,3,0.3,3.3-1c0.2-0.9,0.1-1.7-0.6-2.2C122.5,53.1,121.6,53.5,120.6,54.2z
		"/>
	<path class="st7" d="M120.6,54.2c0.9-0.7,1.9-1.1,3-0.3c0.7,0.6,0.8,1.4,0.6,2.2c-0.3,1.2-1.5,1.6-3.3,1
		C120.2,56.2,120.1,55.3,120.6,54.2z"/>
	<path class="st7" d="M59.5,58.6c0.2-0.1,0.4-0.2,0.5-0.4c0.8-0.8,1.7-0.9,2.6-0.3c0.9,0.5,1,1.4,0.8,2.3c-0.3,1-1,1.4-2,1.3
		c-0.2,0-0.5,0-0.7,0C59.7,60.8,59.3,59.8,59.5,58.6z"/>
	<path class="st5" d="M111.1,68.7c0,7.1-5.1,15.2-13.5,16.1c-6.2,0.7-10.7-2.1-14-7.1c-1.3-2-2.2-4.1-2.8-6.6
		c1.4,0.2,2.8,0.4,4.2,0.6c8.3,1.3,16.2-0.3,24.1-2.7C109.8,69,110.4,68.6,111.1,68.7L111.1,68.7z"/>
	<path class="st5" d="M111.1,68.7c0,0,0.1-0.1,0.1-0.1C111.2,68.6,111.2,68.7,111.1,68.7C111.2,68.7,111.2,68.7,111.1,68.7
		C111.1,68.7,111.1,68.7,111.1,68.7z"/>
	<path class="st5" d="M144.2,186.5c0-0.2,0-0.4,0-0.7c0-17.7,0-35.3,0-53c0-1.1-0.3-1.9-1-2.7c-1.9-2.1-3.7-4.3-5.7-6.4
		c-1-1.1-1.8-2.3-3.1-3.3c0.2,3,0.1,5.8,0.2,8.6c0.2,3.9,0.2,7.8,0.3,11.6c0.2,8.4,0.3,16.7,0.6,25.1c0.2,5.3,0.2,10.6,0.3,15.9
		c0.1,2.9,0.2,5.9,0.2,8.9c0,1,0.3,1.2,1.1,0.8c0.7-0.3,1.4-0.7,2.1-1.1c0.3-0.1,0.5-0.2,0.8-0.3c0.3-0.2,0.6-0.3,1-0.5
		c0.6-0.3,1.3-0.6,1.9-0.9c0.6-0.3,1.4-0.5,1.3-1.3C144.2,187,144.2,186.7,144.2,186.5z"/>
	<path class="st0" d="M185.7,66.3c-7.2-5.2-11.4-10.4-33.3-1.1c-0.1,0-0.2,0.1-0.3,0.1c0-0.1,0-0.2,0-0.3
		c1.6-1.6,14.9-31.4-6.8-47.3c-9.5-6.9-24.1-7.9-35.4-4.6c-9.2,2.7-15.1,6.5-21.3,13.6c-0.5,0.6-0.5,1.8-1.5,0.9
		C74.2,15.3,59,13.9,48,20.7c-5.4,3.3-11.6,8-14.5,14.6c-4.2,9.6-3.3,19.4,0.1,28.9c1.2,3.2,3,6.3,4.7,9.3c0.8,1.4,1.4,1.1-0.1,1.2
		c-2.8,0.2-5.8,0.7-8.5,1.3c-6.4,1.4-12.5,4.2-16.5,9.6c-4.3,5.6-5.7,13.5-0.2,20.6c7,8.9,22.7,11.5,22.9,11.7
		c-0.6,1.4-1.3,2.8-2.1,4.2c0,0-0.1,0-0.1-0.1c-1.4-0.8-2.8-1.6-4.3-2.5c0,0.4,0,0.6,0,0.8c0.8,4.5,1.5,8.9,2.3,13.4
		c3.1,16.9,6.8,33.7,11,50.4c0.6,2.5,1.4,5,1.8,7.6c-0.4-0.2-0.9-0.2-1.4-0.2c-0.9,0.1-1.7,0.6-2.7,0.6c-1-0.1-1.8-0.7-2.8-0.9
		c-0.9-0.1-1.8,0-2.7,0.2c-0.8,0.1-1.5,0.5-1.8,1.2c-0.4,0.7-0.5,1.4-1.1,1.9c-0.6,0.5-1.2,0.8-1.6,1.5c-0.4,0.7-0.3,1.6-0.3,2.4
		c0.1,1.7,0.4,3.5,1.6,4.8c1.1,1.3,2.7,1.6,4.3,1.6c0.9,0,1.8-0.1,2.6,0.5c0.7,0.5,1.4,0.8,2.2,1c0.8,0.2,1.6,0.3,2.3-0.1
		c0.6-0.3,1-0.9,1.3-1.5c0.2-0.3,0.4-0.7,0.7-1c0.3-0.4,0.8-0.6,1.2-0.8c0.7-0.4,1.4-1,1.8-1.8c0.7-1.2,0.8-2.7,0.4-3.9
		c3.3,0.6,6.5,1.2,9.8,1.9c16.4,3.1,32.7,6.2,49.1,9.4c1.3,0.2,2.4,0.2,3.7-0.5c15.9-8.4,31.8-16.8,47.7-25.2c1.2-0.6,2.5-1,3.4-2.1
		c0,0,0.1,0,0.1,0c1-0.4,2.1-0.7,3,0c0,0,0.1,0.1,0.1,0.1c0.3,0.3,0.5,0.5,0.8,0.6c0.4,0.3,0.8,0.6,1.3,0.8c1.6,0.7,3.5,0.4,4.5-1.1
		c0.5-0.7,0.4-1.8,1-2.4c0.3-0.3,0.8-0.5,1.2-0.7c0.5-0.3,1-0.5,1.5-0.8c0.8-0.4,1.5-0.9,1.8-1.7c0.4-0.9,0.2-1.8,0.5-2.7
		c0.1-0.5,0.3-0.9,0.1-1.4c-0.2-0.4-0.5-0.7-0.9-1c-0.4-0.3-0.9-0.5-1.4-0.7c-0.3-0.1-0.8-0.1-1.1-0.3c-0.2-0.2-0.4-0.4-0.4-0.7
		c0-0.3,0.1-0.6,0.1-0.9c0-0.6,0-1.1-0.2-1.7c-0.3-1.1-1-2-2-2.5c-1-0.5-2.2-0.5-3.3,0c-0.6,0.3-1.1,0.6-1.8,0.6
		c-0.5,0-1.4-0.2-1.6-0.8c0-0.1-0.1-0.2-0.2-0.2c0-0.1,0-0.2,0-0.3c0.6-2.5,1-5,1.5-7.4c3.1-15.1,6.1-30.1,9.1-45.1
		c0.1-0.7,0.5-1.4,0.3-2.3c-2,1.3-4,2.5-6,3.7c0-0.7-0.1-1.4-0.1-2.2c0-0.5,0-0.5-0.1-1.1c9.1-1.8,19.4-9.8,21.7-21
		C193.9,79.7,191.2,70.3,185.7,66.3z M47.6,200.6c-0.4,0.6-0.9,1.2-1.5,1.5c-0.6,0.3-1.2,0.6-1.6,1.1c-0.4,0.4-0.6,1-1,1.5
		c-0.5,0.7-1,0.9-1.8,0.8c-0.8-0.1-1.6-0.3-2.2-0.8c-0.5-0.4-1.1-0.7-1.8-0.8c-1.5-0.2-3,0.1-4.4-0.7c-1.4-0.8-2-2.4-2.2-3.9
		c-0.1-0.8-0.2-1.6-0.1-2.4c0.1-0.8,0.6-1.2,1.2-1.7c0.5-0.4,1-0.8,1.2-1.4c0.3-0.6,0.4-1.3,1-1.6c0.4-0.2,0.9-0.2,1.3-0.3
		c0.5-0.1,1-0.1,1.5-0.1c0.9,0.1,1.7,0.7,2.6,0.9c0.9,0.2,1.7,0,2.5-0.2c0.4-0.1,0.8-0.3,1.3-0.2s0.8,0.3,1.2,0.5
		c0.6,0.9,1,1.9,1.1,3.1c0,1.1,1,1.1,1.7,1.3C48.2,198.4,48.2,199.6,47.6,200.6z M49,194.3c-0.8-0.1-0.8-0.6-1-1.2
		c-3.2-12.5-6.2-25-8.9-37.5c-2.1-9.9-4.1-19.8-5.8-29.7c0-0.1,0-0.3,0-0.6c5.7,3.4,11.2,6.6,16.7,9.9c1.7,1,3.3,2,5,3
		c0.7,0.4,1,0.9,1.1,1.6c2.5,16.1,5,32.2,7.5,48.3c0.5,3,0.9,6.1,1.4,9.2C59.6,196.3,54.3,195.3,49,194.3z M74.1,198.8
		c-2-0.5-4-0.8-6-1.2c-0.6-0.1-0.8-0.4-0.9-1c-1.6-10.4-3.2-20.7-4.8-31.1c-1.3-8.5-2.6-17.1-4-25.6c-0.1-0.8,0-1.3,0.5-1.8
		c5-4.6,10.1-9.3,15.1-13.9c0.1-0.1,0.2-0.1,0.4-0.2c0.1,1.8,0.3,3.4,0.3,5c0.1,7-0.1,14.1,0.1,21.1c0.2,8.1,0.1,16.3,0.3,24.4
		c0.2,7.7,0.2,15.4,0.3,23C75.4,198.8,75.2,199.1,74.1,198.8z M107.1,205.3c-7.9-1.5-15.8-3-23.7-4.5c-1.5-0.3-3-0.6-4.5-0.8
		c-1.1-0.1-1.5-0.6-1.4-1.7c0.1-1.7,0-3.3,0-5c-0.1,0-0.1,0-0.1,0c0-5.4,0-10.9,0-16.4c-0.1-7.7-0.2-15.3-0.3-23
		c-0.1-7.9-0.1-15.8-0.3-23.7c-0.1-2.6-0.1-5.2-0.1-7.8c0-0.7,0.1-1.2,0.7-1.7c2.9-2.7,5.8-5.4,8.7-8.1c0.6-0.5,0.9-0.7,1.6,0.1
		c5.3,6.2,10.6,12.3,16,18.3c0.8,0.9,1.1,1.9,1.1,3c0.2,4.5,0.4,8.9,0.6,13.4c0.3,6.4,0.6,12.9,0.9,19.3c0.2,4.3,0.4,8.7,0.6,13
		c0.3,6.6,0.7,13.2,1,19.8c0.1,1.7,0.1,3.3,0.2,5C108,205.3,107.9,205.4,107.1,205.3z M133.8,193.1c-7.8,3.9-15.5,7.9-23.4,11.9
		c-0.3-7.8-0.7-15.4-1-23c-0.4-9-0.8-18-1.3-26.9c-0.3-7.3-0.7-14.6-1.1-21.9c-0.1-0.9,0.3-1.5,0.8-2.1c5.6-6.8,11.2-13.7,16.9-20.5
		c0.4-0.5,0.7-0.8,1.3-0.1c2,2.4,4.1,4.7,6.2,7.1c0.3,0.4,0.5,0.7,0.5,1.2c0.1,4.8,0.2,9.7,0.3,14.6c0.2,8.2,0.4,16.4,0.6,24.6
		c0.1,5.1,0.3,10.2,0.4,15.4c0.1,6.2,0.3,12.5,0.4,18.7C134.2,192.4,134.3,192.8,133.8,193.1z M144.2,185.8c0,0.5,0,1-0.1,1.5
		c-0.4,0.8-4.4,2.6-4.5,2.6c-0.8,0.4-1.6,0.9-2.5,1.3c-0.8,0.4-1.1,0.2-1.1-0.8c0-2.9-0.2-5.9-0.2-8.9c-0.1-5.3-0.1-10.6-0.3-15.9
		c-0.2-8.4-0.4-16.7-0.6-25.1c-0.1-3.9-0.1-7.8-0.3-11.6c-0.1-2.8-0.1-5.6-0.2-8.6c1.4,1,2.1,2.2,3.1,3.3c1.9,2.1,3.8,4.3,5.7,6.4
		c0.7,0.8,1.1,1.6,1,2.7C144.2,150.5,144.2,168.2,144.2,185.8z M166.6,164.9c0.4,0.2,0.9,0.3,1.2,0.2c0,0,0.1,0,0.1,0
		c0.6-0.1,1.1-0.3,1.7-0.6c0.6-0.3,1.3-0.4,2-0.2c1.2,0.3,2,1.3,2.2,2.5c0.1,0.6,0,1.2,0,1.9c0,0.1,0,0.2,0,0.3c0,0,0,0.1,0,0.1
		c0.1,0.5,0.3,0.8,0.6,1.1c0,0,0.1,0.1,0.1,0.1c0.1,0.1,0.2,0.1,0.3,0.1c0.1,0.1,0.3,0.1,0.4,0.1c0.5,0.1,0.9,0.2,1.3,0.5
		c0.4,0.2,1,0.5,1.1,1c0.1,0.4-0.2,1-0.3,1.4c-0.1,0.5-0.1,0.9-0.2,1.4c-0.2,1-0.8,1.5-1.7,2c-0.8,0.4-1.8,0.8-2.6,1.4
		c-0.7,0.5-0.8,1.3-1.1,2.1c-0.6,1.9-3,2-4.4,1c-0.8-0.5-1.4-1.3-2.4-1.6c-0.8-0.2-1.7-0.1-2.5,0.2c0-0.1,0-0.3,0-0.5
		c0.1-0.6,0.2-1.2,0.4-1.9c0.8-4,1.6-8,2.4-11.9c0.1-0.3,0.1-0.8,0.4-0.9C166,164.7,166.3,164.8,166.6,164.9z M171.7,114.6
		c0.2-0.1,0.5-0.2,0.8-0.3c0.1-0.2,0.2-0.3,0.4-0.2c0.1,0.2,0.1,0.4-0.1,0.5c-1,5.2-2,10.4-3,15.6c-3.1,15.9-6.2,31.8-9.3,47.8
		c-0.2,1.2-0.7,1.9-1.8,2.4c-3.7,1.8-7.4,3.8-11.1,5.6c-0.4,0.2-0.8,0.6-1.4,0.4v-1.3c0-17.7,0-35.4,0-53.2c0-1.1,0.3-1.6,1.2-2.2
		C155.4,124.8,163.5,119.7,171.7,114.6z M190.2,86.6c-1,4.7-3.2,9-6.7,12.3c-3.1,2.9-6.5,5.4-10.6,6.9c-1.2,0.4-2.4,0.5-3.6,0.9
		c-0.8,0.2-1.2,0.6-1,1.4c0.2,0.8,0,1.8,0.3,2.6c0.3,0.9,0.2,2.3,0.2,2.3s-1.1,0.7-1.8,1.1c-7,4.3-14,8.8-21,13.2
		c-0.7,0.5-1.1,0.6-1.8-0.2c-6.1-7-12.2-13.9-18.3-20.9c-0.7-0.7-0.9-0.7-1.5,0c-6,7.3-12,14.5-18,21.8c-0.7,0.8-0.9,0.8-1.6,0.1
		c-5.7-6.6-11.4-13.1-17-19.7c-0.6-0.6-0.9-0.7-1.6-0.1c-5.4,5-10.7,10-16.1,15c-4.2,3.9-8.5,7.8-12.7,11.8
		c-0.5,0.5-0.9,0.6-1.5,0.2c-2.9-1.8-5.8-3.5-8.8-5.3c-3.2-1.9-6.5-3.8-9.7-5.7c-0.3-0.2-0.5-0.4-0.8-0.6c0,0-0.1-0.1-0.1-0.1
		c0,0,0,0,0,0c0,0,0,0,0,0c-0.2-0.1-0.3-0.1-0.5-0.2c-0.2-0.1-0.3-0.3-0.3-0.5c0-0.2,0.1-0.3,0.2-0.5c0.2-0.4,0.4-0.9,0.6-1.3
		c0.3-0.6,0.6-1.2,0.7-1.8c0.2-0.5,0.4-1,0.7-1.5c0.1-0.2,0.1-0.4-0.1-0.5c-0.5-0.4-1-0.7-1.5-0.9c-0.2-0.2-0.5-0.1-0.7-0.2
		c-3.2-0.9-6.2-1.5-9.6-2.8c-0.4-0.2-0.7-0.4-1.1-0.6c-4.1-1.7-8.1-3.6-10.8-7.4c-3.3-4.7-4.3-9.8-1.8-15.2c2.5-5.5,6.9-9,12.4-11.2
		c4.6-1.9,9.5-2.9,14.6-3.2c0.1,0,0.2,0,0.3,0.1c0.2,0,0.3,0,0.5,0s0.3,0,0.5,0s0.4,0,0.5-0.1c0.2-0.1,0.3-0.4,0.3-0.7
		c0-0.2-0.2-0.4-0.3-0.5c-0.2-0.3-0.4-0.5-0.7-0.7c0-0.1-0.1-0.1-0.2-0.1c-9.8-14.8-8.4-27.6-7.1-33c1-3.9,2.7-7.4,5.4-10.4
		c5.3-6,11.5-10.4,19.6-11.9c5.9-1.1,11.4,0,16.8,2.5c2.1,1,8,4.3,12.2,8.3c0.3,0.3,0.8,0.1,1.2,0c0.7-0.1,1.2-0.7,1.5-1.4
		c2.6-2.8,5.2-5.5,8.4-7.6c5.8-3.9,12.1-6.2,19-7c8.4-1.1,16.3,0.8,23.8,4.2c7.4,3.4,11.6,9.4,13.2,17.3c1.6,7.6,1.4,15-0.9,22.4
		c-0.8,2.7-1.6,5.4-2.7,8c-0.2,0.5-0.4,1-0.9,1.4c-0.1,0.4-0.1,0.8-0.1,1.2c0,0.1,0,0.2,0,0.3c0,0,0.1,0.1,0.1,0.1
		c0.4,0,0.7,0,1-0.1c0.2-0.5,0.7-0.7,1.1-0.9c4.7-2.2,9.5-3.9,14.6-5c8.5-1.8,15,1.5,19.9,7.9C189.9,74.8,191.4,80.6,190.2,86.6z"/>
	<path class="st0" d="M160.9,193.7c-0.4-2-2.9-2.1-4.2-3.1c-0.7-0.5-1.3-1.1-2.1-1.5c-0.9-0.4-1.9-0.3-2.8,0c-0.1,0-0.1,0.1-0.2,0.1
		c-0.3,0.1-0.6,0.2-0.9,0.3c-0.4,0.1-0.9,0.2-1.3,0.3c-0.4,0-0.8,0-1.1,0.2c-1.7,0.5-1.4,2.8-1.1,4.1c0.2,0.8-0.3,1.3-0.8,1.9
		c-0.5,0.6-0.9,1.1-1,1.8c-0.1,0.8-0.1,1.7,0.2,2.5c0.3,0.7,1,1.1,1.6,1.4c0.8,0.4,1.6,0.6,2.4,0.8c0.9,0.3,1.7,0.6,2.6,0.7
		c0.9,0.1,1.8-0.2,2.7-0.4c0.9-0.2,1.8-0.2,2.6-0.5c1.4-0.6,2.7-1.8,2.9-3.3c0.1-0.4-0.1-0.8,0-1.3c0-0.5,0.3-1,0.4-1.5
		C161,195.4,161.1,194.5,160.9,193.7z M160.1,195.1c0,0.4,0,0.8-0.1,1.2c-0.1,0.4-0.3,0.7-0.4,1.1c-0.1,0.4,0.1,0.8,0.1,1.2
		s-0.2,0.8-0.4,1.1c-0.4,0.6-0.9,1.1-1.5,1.5c-0.6,0.4-1.3,0.5-2,0.6c-0.8,0.1-1.6,0.3-2.4,0.5c-0.8,0.2-1.6,0-2.4-0.2
		c-0.8-0.2-1.6-0.5-2.5-0.8c-0.6-0.2-1.2-0.4-1.7-0.7c-0.7-0.5-0.9-1.3-0.8-2.2c0.1-1.4,1.3-2,1.8-3.1c0.3-0.7,0.1-1.3,0-2
		c-0.1-0.7-0.3-2,0.5-2.4c0.4-0.2,0.8-0.1,1.2-0.2c0.4-0.1,0.8-0.1,1.2-0.2c0.9-0.2,1.7-0.5,2.6-0.6c0.1,0,0.2,0,0.2-0.1
		c0.2,0,0.5,0.1,0.7,0.2c0.6,0.3,1.1,0.8,1.7,1.2c0.5,0.4,1.1,0.7,1.6,1c0.7,0.3,1.5,0.5,2,1C160.2,193.6,160.1,194.4,160.1,195.1z"
		/>
	<path class="st0" d="M169.7,198c-0.2-0.3-0.6-0.5-0.8-0.8c-0.2-0.4-0.2-0.7-0.5-1.1c-0.3-0.4-0.6-0.6-1.1-0.7
		c-0.5-0.1-1,0.2-1.4,0.1c-0.2-0.1-0.4-0.2-0.7-0.3c-0.2-0.1-0.5,0-0.7,0c-0.6,0.1-1.1,0.3-1.6,0.6c-0.2,0.1-0.2,0.3-0.2,0.5
		c-0.1,0.2-0.4,0.3-0.5,0.4c-0.3,0.2-0.6,0.5-0.8,0.9c-0.4,0.8-0.4,1.8-0.1,2.6c0.3,0.9,0.9,1.4,1.9,1.6c0.4,0.1,0.8,0.2,1.2,0.2
		c0.2,0,0.5,0,0.7,0.1c0.3,0,0.6,0.2,0.8,0.3c0.8,0.4,1.6,0.2,2.1-0.6c0.2-0.4,0.4-0.7,0.7-1c0.3-0.3,0.6-0.5,0.9-0.9
		C170.1,199.5,170.3,198.6,169.7,198z M169,199.5c-0.4,0.6-1,0.9-1.4,1.4c-0.2,0.2-0.3,0.6-0.5,0.8c-0.3,0.3-0.7,0.1-1.1-0.1
		c-1.2-0.6-3.4,0-3.9-1.5c-0.2-0.8-0.2-1.8,0.3-2.4c0.4-0.4,1-0.7,1.2-1.2c0.3-0.1,0.5-0.2,0.8-0.3c0.2-0.1,0.4-0.1,0.6-0.1
		c0.2,0,0.3,0.1,0.5,0.2c0.3,0.1,0.7,0.1,1,0c0.4-0.1,0.7-0.1,1,0.1c0.5,0.4,0.5,1.1,0.9,1.6c0.2,0.2,0.5,0.4,0.6,0.6
		C169.3,198.9,169.2,199.2,169,199.5z"/>
	<path class="st1" d="M186.4,70.2c-4.8-6.4-11.4-9.7-19.9-7.9c-5.1,1.1-9.9,2.8-14.6,5c-0.3,0.1-0.5,0.2-0.7,0.4
		c-0.1,0.1-0.3,0.1-0.4,0.2c-0.1,0.1-0.3,0.1-0.5,0.2c0,0-0.1,0-0.1-0.1c0,0-0.1-0.1-0.1-0.1s0,0,0,0c0,0,0,0-0.1-0.1
		c0-0.1-0.1-0.1-0.1-0.2c0,0,0-0.1,0-0.1c0-0.2,0-0.3,0-0.5c0.1-0.2,0.2-0.4,0.2-0.6c0.2-0.5,0.4-0.9,0.6-1.4c0,0,0-0.1,0-0.1
		c1.1-2.5,1.8-5.1,2.6-7.7c2.3-7.4,2.5-14.8,0.9-22.4c-1.6-8-5.8-14-13.2-17.3c-7.5-3.4-15.4-5.3-23.8-4.2c-6.9,0.9-13.3,3.1-19,7
		c-3.4,2.3-6.7,5.5-8.9,8.2c-0.4,0.5-1,0.8-1.7,0.8c0-0.2-0.1-0.3-0.3-0.4c-0.3-0.1-0.5-0.4-0.8-0.6c-0.3-0.2-0.6-0.5-0.8-0.7
		c-0.6-0.5-1.1-0.9-1.7-1.4c-0.6-0.4-1.1-0.9-1.7-1.3c-0.2-0.2-0.5-0.3-0.8-0.5c0,0-0.1-0.1-0.1-0.1c-2-1.4-4.2-2.5-6.5-3.5
		c-5.3-2.5-10.9-3.5-16.8-2.5c-8.1,1.5-14.3,5.9-19.6,11.9c-2.7,3-4.4,6.5-5.4,10.4c-1.3,5.3-1.2,10.7-0.3,16
		c0.3,1.8,0.6,3.6,1.3,5.2c1.8,4.2,4,8.2,6.3,12.1c0.5,0.3,1.1,0.9,0.9,1.3c-0.3,0.7-1.2,0.2-1.8,0.3c-5.2,0.2-10.2,1.2-14.9,3.2
		c-5.5,2.3-9.9,5.7-12.4,11.2c-2.5,5.4-1.6,10.5,1.8,15.2c2.2,3.1,5.3,4.9,8.6,6.4c0.7,0.3,1.4,0.7,2.1,1c2,0.8,3.9,1.8,5.9,2.5
		c1,0.3,2,0.5,3.1,0.7c0.8,0.2,1.8,0.3,2.5,0.7c1.8,1,0.3,4-0.5,5.2c-0.1,0.2-0.1,0.4-0.1,0.6c-0.1,0.2-0.2,0.4-0.2,0.6
		c0,0.2,0.2,0.3,0.3,0.4c0.1,0.1,0.1,0.1,0.2,0.1c0.2,0.1,0.3,0.2,0.5,0.2c0.1,0,0.1,0,0.2,0c0.2,0.2,0.5,0.2,0.8,0.2
		c0,0.1,0,0.1-0.1,0.2c3.2,1.9,6.5,3.8,9.7,5.7c2.9,1.8,5.9,3.5,8.8,5.3c0.6,0.4,1,0.3,1.5-0.2c4.2-3.9,8.5-7.8,12.7-11.8
		c5.4-5,10.8-10,16.1-15c0.6-0.6,1-0.5,1.6,0.1c5.7,6.6,11.4,13.1,17,19.7c0.7,0.8,1,0.8,1.6-0.1c6-7.3,12-14.5,18-21.8
		c0.6-0.8,0.9-0.8,1.5,0c6.1,7,12.3,13.9,18.3,20.9c0.7,0.8,1,0.7,1.8,0.2c6.6-4.2,13.1-8.4,19.7-12.4c0.1,0,0.2,0,0.3-0.1
		c0.7-0.4,1.4-0.8,2-1.3c0.3-0.2,0.8-0.5,0.8-0.5s-0.1-1.1-0.2-1.5c-0.1-1.4,0-2.9-0.2-4.3c0.1-0.2,0.4-0.3,0.8-0.4
		c1.2-0.4,2.4-0.4,3.6-0.9c4.1-1.5,7.5-4.1,10.6-6.9c3.5-3.3,5.8-7.6,6.7-12.3C191.4,80.6,189.9,74.8,186.4,70.2z M56.5,80.7
		C56.5,80.7,56.6,80.7,56.5,80.7L56.5,80.7C56.5,80.7,56.5,80.7,56.5,80.7z M69,61.6c-0.8,3.1-3.6,4.1-6.2,2.3
		c-0.9-0.6-1.6-1.4-2-2.4c-1.1-0.7-1.5-1.7-1.2-2.9c-0.2-1.2-0.2-2.5,0.2-3.7c0.9-2.9,3.6-3.9,6.1-2.1C68.3,54.5,69.8,58.6,69,61.6z
		 M69.5,22.1L69.5,22.1c0.1,0,0.2,0,0.3,0C69.7,22.1,69.6,22.1,69.5,22.1z M104.2,85.2c-7.4,4.5-17,2.2-22-5.1
		c-2.4-3.4-4.1-8-4.5-12.3c4.7,1.2,9.3,2,14,1.9c5.5,0,10.8-1.3,16.1-2.8c1.7-0.5,3.4-1.1,5.1-1.7c0.5-0.2,0.9-0.3,0.9,0.5
		C113.9,73.9,111.5,80.8,104.2,85.2z M128.9,59.6c-1.3,2.4-3.9,2.7-5.9,0.9c-1-0.9-1.7-2.1-2.1-3.4c-0.6-0.9-0.8-1.9-0.3-2.9
		c0-0.5-0.1-1,0-1.5c0.4-1.9,1.2-3.6,3.4-4.1c1.7-0.4,3.6,0.7,4.7,2.7C130.2,54,130.4,56.9,128.9,59.6z"/>
</g>
<g>
	<path class="st7" d="M322.7,62.6c-1.1,11.8,5,18.2,15.3,21.8c1.9,0.7,3.2,2.8,4.9,4.1c1.5,1.2,3.2,2.3,4.9,3.6
		c2.1-4.3,3.7-7.6,5.1-10.6c-2.7-0.8-5.5-1.7-8.2-2.5c2.1-9.6,10.4-7.4,16.9-8.2c1.4,6.2,3.1,13.3,5.1,21.7c2.2-1.6,3.6-2.4,4.8-3.5
		c1.7-1.4,2.9-3.8,4.8-4.4c10.5-3.5,16.8-9.9,16.8-21.9c1.2,2.6,2.8,5,3.4,7.7c2,8.8,3.6,17.6,1.7,26.7c-2,9.5-6,17.7-15.8,21.2
		c-2.9,1-6.3,0.5-9.7,0.7c1.3,4.4,2.8,9.4,4.6,15.7c5.5-3.8,9.8-6.7,14.3-9.9c-0.3,1.1-0.5,2.2-0.8,3.3c1.1,0.3,2,0.6,3.2,0.9
		c-1.7,1.8-3.4,3.4-4.8,5.2c-1.4,1.8-2.2,4.8-5.4,2.1c-2.1,6.5-9.4,4.7-13.1,9c0.4,1.1,1,2.5,1.7,4.2c-10,2.4-19.9,1.8-30.1,0.2
		c0.6-1.6,1.1-3,1.6-4.3c-3.2-4.6-10.8-2.3-12.6-8.7c-6.8,2.4-5.6-6.5-10.4-7.5c1-0.4,2-0.8,3-1.2c-0.3-1-0.5-1.9-0.8-3.1
		c4.5,3,8.6,5.9,12.7,8.7c6.2-3.7,3.1-10.5,7.3-15.9c-7.7,3.1-13.2,0.7-17.9-3.7c-6.3-5.8-9-13.5-9.1-21.8c0-7.1,1-14.2,2.1-21.2
		c0.4-2.9,2.2-5.6,3.4-8.4C322,62.5,322.3,62.6,322.7,62.6z M364.7,126.7c1.4,4.4,2.7,8.5,3.9,12.6c0.4,0.2,0.9,0.3,1.3,0.5
		c1.4-2,4.4-4.3,4-6C373.2,129.6,369.4,127.7,364.7,126.7z M350.1,127.2c-4.2,0.4-9.4,3.8-9.2,6c0.3,2.8,1.7,5.3,5.5,5.8
		C347.5,135.4,348.7,131.6,350.1,127.2z"/>
	<path class="st7" d="M398.6,45.4c27.1,5.3,52.2,28.3,58.3,60c6.3,32.6-10.2,61.6-27.2,73.7c13.8-23.2,18.2-47.7,12-73.5
		C435.6,79.8,420.9,59.9,398.6,45.4z"/>
	<path class="st7" d="M459,94.5c-9.7-24.5-25.9-43.1-49.8-54.4c-23.8-11.2-48.2-12.2-73.5-3.7c11-11.7,41.8-23.2,71-13.3
		C440.7,34.4,459.2,66.1,459,94.5z"/>
	<path class="st7" d="M346.6,208.6c26.2-3.9,47.9-15.7,64.2-36.6c16.3-20.9,22.5-44.9,19.8-71.4c11.1,11.1,10.3,49.5-0.9,69.7
		C411.8,202.8,376,215.7,346.6,208.6z"/>
	<path class="st7" d="M293.7,143.9c-22.1-16.9-33.5-46.9-27.2-76c6.9-31.5,31.8-52.6,57.6-58.2c-22.9,15.3-37.4,35.4-43.1,61.3
		C275.4,96.9,280.1,121.2,293.7,143.9z"/>
	<path class="st7" d="M261.1,72.8c-5.2,52.9,31.2,100.5,85.7,107c-18,5.9-51.5,2.1-74.2-23.6C249.7,130.4,249.4,95,261.1,72.8z"/>
	<path class="st7" d="M288.6,81c-0.9-25.5,13.6-56.7,45.1-71c28-12.7,59.6-6,78.2,9.9c-25.8-8.2-50.4-7.1-74.2,4.6
		C313.9,36.3,297.9,55.2,288.6,81z"/>
	<path class="st7" d="M270.8,161c19.7,18.8,42.5,28.6,68.9,28.3c26.5-0.2,49.2-10.2,68.4-29.2c-7.5,19.4-31.3,41.3-62.1,43.8
		C309,207,281,184,270.8,161z"/>
</g>
</svg>
