<?xml version="1.0" encoding="utf-8"?>
<!-- Generator: Adobe Illustrator 24.3.0, SVG Export Plug-In . SVG Version: 6.00 Build 0)  -->
<svg version="1.1" id="Layer_1" xmlns="http://www.w3.org/2000/svg" xmlns:xlink="http://www.w3.org/1999/xlink" x="0px" y="0px"
	 viewBox="0 0 1043.86 860" enable-background="new 0 0 1043.86 860" xml:space="preserve">
<g>
	<line fill="none" stroke="#B8B8B8" stroke-width="0.5" x1="574" y1="609.19" x2="957" y2="609.19"/>
	<line fill="none" stroke="#B8B8B8" stroke-width="0.5" x1="574" y1="486.19" x2="957" y2="486.19"/>
	<line fill="none" stroke="#B8B8B8" stroke-width="0.5" x1="574" y1="363.19" x2="957" y2="363.19"/>
	<line fill="none" stroke="#B8B8B8" stroke-width="0.5" x1="574" y1="241.19" x2="957" y2="241.19"/>
	<line fill="none" stroke="#000000" stroke-width="0.5" x1="574" y1="670.19" x2="957" y2="670.19"/>
	<line fill="none" stroke="#000000" stroke-width="0.5" x1="574" y1="548.19" x2="957" y2="548.19"/>
	<line fill="none" stroke="#000000" stroke-width="0.5" x1="574" y1="425.19" x2="957" y2="425.19"/>
	<line fill="none" stroke="#000000" stroke-width="0.5" x1="574" y1="302.19" x2="957" y2="302.19"/>
	<g>
		<text transform="matrix(1 0 0 1 88.2105 92.3309)"><tspan x="0" y="0" font-family="'AvenirNext-Bold'" font-size="24px">IN</tspan><tspan x="26.59" y="0" font-family="'AvenirNext-Bold'" font-size="24px"> </tspan><tspan x="32.18" y="0" font-family="'AvenirNext-Bold'" font-size="24px">APP PURCHASE (IAP)</tspan></text>
		<g>
			<polygon fill="#E6E2DF" points="88.96,228.83 88.96,269.94 266.64,269.94 417.17,269.94 417.17,228.83 266.64,228.83 			"/>
		</g>
		<g>
			<rect x="188.38" y="310.82" fill="#F0EBE2" width="84.23" height="40.44"/>
			<rect x="272.61" y="310.82" fill="#F0EBE2" width="144.56" height="40.44"/>
			<rect x="188.38" y="391.69" fill="#F0EBE2" width="84.23" height="40.44"/>
			<rect x="272.61" y="391.69" fill="#F0EBE2" width="144.56" height="40.44"/>
			<rect x="188.38" y="472.57" fill="#F0EBE2" width="84.23" height="40.44"/>
			<rect x="272.61" y="472.57" fill="#F0EBE2" width="144.56" height="40.44"/>
			<rect x="188.38" y="553.44" fill="#F0EBE2" width="84.23" height="40.44"/>
			<rect x="272.61" y="553.44" fill="#F0EBE2" width="144.56" height="40.44"/>
			<rect x="188.38" y="634.31" fill="#F0EBE2" width="84.23" height="40.44"/>
			<rect x="272.61" y="634.31" fill="#F0EBE2" width="144.56" height="40.44"/>
			<rect x="188.38" y="715.18" fill="#F0EBE2" width="84.23" height="40.66"/>
			<rect x="272.61" y="715.18" fill="#F0EBE2" width="144.56" height="40.66"/>
		</g>
		<text transform="matrix(1 0 0 1 93.3355 253.4439)" font-family="'AvenirNext-DemiBold'" font-size="13px">MONTH</text>
		<text transform="matrix(1 0 0 1 192.3813 253.4439)" font-family="'AvenirNext-DemiBold'" font-size="13px">USERS</text>
		<text transform="matrix(1 0 0 1 276.6075 253.4439)" font-family="'AvenirNext-DemiBold'" font-size="13px">IAP REVENUE</text>
		<text transform="matrix(1 0 0 1 93.3355 294.6789)" font-family="'AvenirNext-DemiBold'" font-size="13px">September</text>
		<text transform="matrix(1 0 0 1 234.8175 294.6789)" font-family="'AvenirNext-Regular'" font-size="13px">5,000</text>
		<text transform="matrix(1 0 0 1 345.7132 294.6789)" font-family="'AvenirNext-Regular'" font-size="13px">45,000,000</text>
		<text transform="matrix(1 0 0 1 93.3355 335.3139)" font-family="'AvenirNext-DemiBold'" font-size="13px">October</text>
		<text transform="matrix(1 0 0 1 234.8175 335.3139)" font-family="'AvenirNext-Regular'" font-size="13px">7,500</text>
		<text transform="matrix(1 0 0 1 345.7132 335.3139)" font-family="'AvenirNext-Regular'" font-size="13px">67,500,000</text>
		<text transform="matrix(1 0 0 1 93.3355 375.7499)" font-family="'AvenirNext-DemiBold'" font-size="13px">November</text>
		<text transform="matrix(1 0 0 1 227.2775 375.7499)" font-family="'AvenirNext-Regular'" font-size="13px">11,250</text>
		<text transform="matrix(1 0 0 1 338.1732 375.7499)" font-family="'AvenirNext-Regular'" font-size="13px">101,250,000</text>
		<text transform="matrix(1 0 0 1 93.3355 416.1859)" font-family="'AvenirNext-DemiBold'" font-size="13px">December</text>
		<text transform="matrix(1 0 0 1 227.2775 416.1859)" font-family="'AvenirNext-Regular'" font-size="13px">16,875</text>
		<text transform="matrix(1 0 0 1 338.1732 416.1859)" font-family="'AvenirNext-Regular'" font-size="13px">151,875,000</text>
		<text transform="matrix(1 0 0 1 93.3355 456.6219)"><tspan x="0" y="0" font-family="'AvenirNext-DemiBold'" font-size="13px">J</tspan><tspan x="6.41" y="0" font-family="'AvenirNext-DemiBold'" font-size="13px">anuary</tspan></text>
		<text transform="matrix(1 0 0 1 227.2775 456.6219)" font-family="'AvenirNext-Regular'" font-size="13px">25,312</text>
		<text transform="matrix(1 0 0 1 338.1732 456.6219)" font-family="'AvenirNext-Regular'" font-size="13px">227,808,000</text>
		<text transform="matrix(1 0 0 1 93.3355 497.0582)"><tspan x="0" y="0" font-family="'AvenirNext-DemiBold'" font-size="13px">F</tspan><tspan x="6.84" y="0" font-family="'AvenirNext-DemiBold'" font-size="13px">ebruary</tspan></text>
		<text transform="matrix(1 0 0 1 227.2775 497.0582)" font-family="'AvenirNext-Regular'" font-size="13px">37,968</text>
		<text transform="matrix(1 0 0 1 338.1732 497.0582)" font-family="'AvenirNext-Regular'" font-size="13px">341,712,000</text>
		<text transform="matrix(1 0 0 1 93.3355 537.4943)"><tspan x="0" y="0" font-family="'AvenirNext-DemiBold'" font-size="13px">Ma</tspan><tspan x="19.11" y="0" font-family="'AvenirNext-DemiBold'" font-size="13px">r</tspan><tspan x="23.62" y="0" font-family="'AvenirNext-DemiBold'" font-size="13px">ch</tspan></text>
		<text transform="matrix(1 0 0 1 227.2775 537.4943)" font-family="'AvenirNext-Regular'" font-size="13px">56,953</text>
		<text transform="matrix(1 0 0 1 338.1732 537.4943)" font-family="'AvenirNext-Regular'" font-size="13px">512,577,000</text>
		<text transform="matrix(1 0 0 1 93.3355 577.9304)" font-family="'AvenirNext-DemiBold'" font-size="13px">April</text>
		<text transform="matrix(1 0 0 1 227.2775 577.9304)" font-family="'AvenirNext-Regular'" font-size="13px">85,492</text>
		<text transform="matrix(1 0 0 1 338.1732 577.9304)" font-family="'AvenirNext-Regular'" font-size="13px">769,428,000</text>
		<text transform="matrix(1 0 0 1 93.3355 618.3665)" font-family="'AvenirNext-DemiBold'" font-size="13px">May</text>
		<text transform="matrix(1 0 0 1 219.7375 618.3665)" font-family="'AvenirNext-Regular'" font-size="13px">128,144</text>
		<text transform="matrix(1 0 0 1 327.2532 618.3665)" font-family="'AvenirNext-Regular'" font-size="13px">1,153,296,000</text>
		<text transform="matrix(1 0 0 1 93.3355 658.8026)" font-family="'AvenirNext-DemiBold'" font-size="13px">June</text>
		<text transform="matrix(1 0 0 1 219.7375 658.8026)" font-family="'AvenirNext-Regular'" font-size="13px">192,216</text>
		<text transform="matrix(1 0 0 1 327.2532 658.8026)" font-family="'AvenirNext-Regular'" font-size="13px">1,729,944,000</text>
		<text transform="matrix(1 0 0 1 93.3355 699.2387)" font-family="'AvenirNext-DemiBold'" font-size="13px">July</text>
		<text transform="matrix(1 0 0 1 219.7375 699.2387)" font-family="'AvenirNext-Regular'" font-size="13px">288,325</text>
		<text transform="matrix(1 0 0 1 327.2532 699.2387)" font-family="'AvenirNext-Regular'" font-size="13px">2,594,925,000</text>
		<text transform="matrix(1 0 0 1 93.3355 739.6748)" font-family="'AvenirNext-DemiBold'" font-size="13px">August</text>
		<text transform="matrix(1 0 0 1 219.7375 739.6748)" font-family="'AvenirNext-Regular'" font-size="13px">432,487</text>
		<text transform="matrix(1 0 0 1 327.2532 739.6748)" font-family="'AvenirNext-Regular'" font-size="13px">3,892,383,000</text>
		<line fill="none" stroke="#CDCAC7" stroke-width="0.5" x1="272.61" y1="269.44" x2="272.61" y2="756.34"/>
		<line fill="none" stroke="#CDCAC7" stroke-width="0.5" x1="88.46" y1="310.82" x2="188.38" y2="310.82"/>
		<line fill="none" stroke="#CDCAC7" stroke-width="0.5" x1="188.38" y1="310.82" x2="417.67" y2="310.82"/>
		<line fill="none" stroke="#CDCAC7" stroke-width="0.5" x1="88.46" y1="351.26" x2="188.38" y2="351.26"/>
		<line fill="none" stroke="#CDCAC7" stroke-width="0.5" x1="188.38" y1="351.26" x2="417.67" y2="351.26"/>
		<line fill="none" stroke="#CDCAC7" stroke-width="0.5" x1="88.46" y1="391.69" x2="188.38" y2="391.69"/>
		<line fill="none" stroke="#CDCAC7" stroke-width="0.5" x1="188.38" y1="391.69" x2="417.67" y2="391.69"/>
		<line fill="none" stroke="#CDCAC7" stroke-width="0.5" x1="88.46" y1="432.13" x2="188.38" y2="432.13"/>
		<line fill="none" stroke="#CDCAC7" stroke-width="0.5" x1="188.38" y1="432.13" x2="417.67" y2="432.13"/>
		<line fill="none" stroke="#CDCAC7" stroke-width="0.5" x1="88.46" y1="472.57" x2="188.38" y2="472.57"/>
		<line fill="none" stroke="#CDCAC7" stroke-width="0.5" x1="188.38" y1="472.57" x2="417.67" y2="472.57"/>
		<line fill="none" stroke="#CDCAC7" stroke-width="0.5" x1="88.46" y1="513" x2="188.38" y2="513"/>
		<line fill="none" stroke="#CDCAC7" stroke-width="0.5" x1="188.38" y1="513" x2="417.67" y2="513"/>
		<line fill="none" stroke="#CDCAC7" stroke-width="0.5" x1="88.46" y1="553.44" x2="188.38" y2="553.44"/>
		<line fill="none" stroke="#CDCAC7" stroke-width="0.5" x1="188.38" y1="553.44" x2="417.67" y2="553.44"/>
		<line fill="none" stroke="#CDCAC7" stroke-width="0.5" x1="88.46" y1="593.87" x2="188.38" y2="593.87"/>
		<line fill="none" stroke="#CDCAC7" stroke-width="0.5" x1="188.38" y1="593.87" x2="417.67" y2="593.87"/>
		<line fill="none" stroke="#CDCAC7" stroke-width="0.5" x1="88.46" y1="634.31" x2="188.38" y2="634.31"/>
		<line fill="none" stroke="#CDCAC7" stroke-width="0.5" x1="188.38" y1="634.31" x2="417.67" y2="634.31"/>
		<line fill="none" stroke="#CDCAC7" stroke-width="0.5" x1="88.46" y1="674.75" x2="188.38" y2="674.75"/>
		<line fill="none" stroke="#CDCAC7" stroke-width="0.5" x1="188.38" y1="674.75" x2="417.67" y2="674.75"/>
		<line fill="none" stroke="#CDCAC7" stroke-width="0.5" x1="88.46" y1="715.18" x2="188.38" y2="715.18"/>
		<line fill="none" stroke="#CDCAC7" stroke-width="0.5" x1="188.38" y1="715.18" x2="417.67" y2="715.18"/>
		<line fill="none" stroke="#CDCAC7" stroke-width="0.5" x1="188.38" y1="269.44" x2="188.38" y2="756.34"/>
		<line fill="none" stroke="#9A958E" x1="88.46" y1="269.94" x2="417.67" y2="269.94"/>
		<line fill="none" stroke="#B3AFAA" stroke-width="0.75" x1="88.96" y1="228.33" x2="88.96" y2="269.94"/>
		<line fill="none" stroke="#B3AFAA" stroke-width="0.75" x1="88.96" y1="269.94" x2="88.96" y2="756.34"/>
		<line fill="none" stroke="#B3AFAA" stroke-width="0.75" x1="417.17" y1="228.33" x2="417.17" y2="269.94"/>
		<line fill="none" stroke="#B3AFAA" stroke-width="0.75" x1="417.17" y1="269.94" x2="417.17" y2="756.34"/>
		<line fill="none" stroke="#B3AFAA" stroke-width="0.75" x1="88.46" y1="228.83" x2="417.67" y2="228.83"/>
		<line fill="none" stroke="#B3AFAA" stroke-width="0.75" x1="88.46" y1="755.84" x2="188.38" y2="755.84"/>
		<line fill="none" stroke="#B3AFAA" stroke-width="0.75" x1="188.38" y1="755.84" x2="417.67" y2="755.84"/>
		<text transform="matrix(1 0 0 1 555.5764 735.2621)" font-family="'AvenirNext-Regular'" font-size="10px">0</text>
		<text transform="matrix(1 0 0 1 495.5764 612.4985)" font-family="'AvenirNext-Regular'" font-size="10px">1,000,000,000</text>
		<text transform="matrix(1 0 0 1 495.5764 489.735)" font-family="'AvenirNext-Regular'" font-size="10px">2,000,000,000</text>
		<text transform="matrix(1 0 0 1 495.5764 366.9709)" font-family="'AvenirNext-Regular'" font-size="10px">3,000,000,000</text>
		<text transform="matrix(1 0 0 1 495.5764 244.2079)" font-family="'AvenirNext-Regular'" font-size="10px">4,000,000,000</text>
		<line fill="none" stroke="#000000" stroke-linecap="square" x1="573.5" y1="732.19" x2="956.5" y2="732.19"/>
		<text transform="matrix(1 0 0 1 580.9801 747.5921)" font-family="'AvenirNext-Regular'" font-size="10px">SEP</text>
		<text transform="matrix(1 0 0 1 610.8976 747.5921)"><tspan x="0" y="0" font-family="'AvenirNext-Regular'" font-size="10px">O</tspan><tspan x="8.5" y="0" font-family="'AvenirNext-Regular'" font-size="10px">C</tspan><tspan x="15.65" y="0" font-family="'AvenirNext-Regular'" font-size="10px">T</tspan></text>
		<text transform="matrix(1 0 0 1 642.3501 747.5921)"><tspan x="0" y="0" font-family="'AvenirNext-Regular'" font-size="10px">N</tspan><tspan x="7.64" y="0" font-family="'AvenirNext-Regular'" font-size="10px">O</tspan><tspan x="16.03" y="0" font-family="'AvenirNext-Regular'" font-size="10px">V</tspan></text>
		<text transform="matrix(1 0 0 1 675.8176 747.5921)" font-family="'AvenirNext-Regular'" font-size="10px">DES</text>
		<text transform="matrix(1 0 0 1 707.5701 747.5921)"><tspan x="0" y="0" font-family="'AvenirNext-Regular'" font-size="10px">J</tspan><tspan x="4.81" y="0" font-family="'AvenirNext-Regular'" font-size="10px">AN</tspan></text>
		<text transform="matrix(1 0 0 1 740.2476 747.5921)" font-family="'AvenirNext-Regular'" font-size="10px">FEB</text>
		<text transform="matrix(1 0 0 1 770.1801 747.5921)" font-family="'AvenirNext-Regular'" font-size="10px">MAR</text>
		<text transform="matrix(1 0 0 1 803.6176 747.5921)" font-family="'AvenirNext-Regular'" font-size="10px">APR</text>
		<text transform="matrix(1 0 0 1 834.2801 747.5921)"><tspan x="0" y="0" font-family="'AvenirNext-Regular'" font-size="10px">M</tspan><tspan x="8.86" y="0" font-family="'AvenirNext-Regular'" font-size="10px">A</tspan><tspan x="15.27" y="0" font-family="'AvenirNext-Regular'" font-size="10px">Y</tspan></text>
		<text transform="matrix(1 0 0 1 866.9976 747.5921)" font-family="'AvenirNext-Regular'" font-size="10px">JUN</text>
		<text transform="matrix(1 0 0 1 900.1751 747.5921)" font-family="'AvenirNext-Regular'" font-size="10px">JUL</text>
		<text transform="matrix(1 0 0 1 929.7576 747.5921)"><tspan x="0" y="0" font-family="'AvenirNext-Regular'" font-size="10px">A</tspan><tspan x="6.88" y="0" font-family="'AvenirNext-Regular'" font-size="10px">UG</tspan></text>
		<linearGradient id="SVGID_1_" gradientUnits="userSpaceOnUse" x1="760.4117" y1="916.9193" x2="549.7897" y2="687.4521">
			<stop  offset="0" style="stop-color:#F45A6F"/>
			<stop  offset="0.4493" style="stop-color:#FA8E6D"/>
			<stop  offset="0.8074" style="stop-color:#FEB16C"/>
			<stop  offset="1" style="stop-color:#FFBE6C"/>
		</linearGradient>
		<path fill="url(#SVGID_1_)" d="M583,726.69h13c2.76,0,5,2.24,5,5l0,0h-23l0,0C578,728.93,580.24,726.69,583,726.69z"/>
		<linearGradient id="SVGID_2_" gradientUnits="userSpaceOnUse" x1="778.5268" y1="900.2921" x2="567.9047" y2="670.8248">
			<stop  offset="0" style="stop-color:#F45A6F"/>
			<stop  offset="0.4493" style="stop-color:#FA8E6D"/>
			<stop  offset="0.8074" style="stop-color:#FEB16C"/>
			<stop  offset="1" style="stop-color:#FFBE6C"/>
		</linearGradient>
		<path fill="url(#SVGID_2_)" d="M615,723.69h13c2.76,0,5,2.24,5,5v3h-23v-3C610,725.93,612.24,723.69,615,723.69z"/>
		<linearGradient id="SVGID_3_" gradientUnits="userSpaceOnUse" x1="796.8769" y1="883.4208" x2="586.2548" y2="653.9536">
			<stop  offset="0" style="stop-color:#F45A6F"/>
			<stop  offset="0.4493" style="stop-color:#FA8E6D"/>
			<stop  offset="0.8074" style="stop-color:#FEB16C"/>
			<stop  offset="1" style="stop-color:#FFBE6C"/>
		</linearGradient>
		<path fill="url(#SVGID_3_)" d="M647,719.69h13c2.76,0,5,2.24,5,5v7h-23v-7C642,721.93,644.24,719.69,647,719.69z"/>
		<linearGradient id="SVGID_4_" gradientUnits="userSpaceOnUse" x1="814.8406" y1="866.9605" x2="604.2185" y2="637.4933">
			<stop  offset="0" style="stop-color:#F45A6F"/>
			<stop  offset="0.4493" style="stop-color:#FA8E6D"/>
			<stop  offset="0.8074" style="stop-color:#FEB16C"/>
			<stop  offset="1" style="stop-color:#FFBE6C"/>
		</linearGradient>
		<path fill="url(#SVGID_4_)" d="M685,713.69h1c6.08,0,11,4.92,11,11v7h-23v-7C674,718.61,678.92,713.69,685,713.69z"/>
		<linearGradient id="SVGID_5_" gradientUnits="userSpaceOnUse" x1="834.6992" y1="848.7328" x2="624.0771" y2="619.2656">
			<stop  offset="0" style="stop-color:#F45A6F"/>
			<stop  offset="0.4493" style="stop-color:#FA8E6D"/>
			<stop  offset="0.8074" style="stop-color:#FEB16C"/>
			<stop  offset="1" style="stop-color:#FFBE6C"/>
		</linearGradient>
		<path fill="url(#SVGID_5_)" d="M717,703.69h1c6.08,0,11,4.92,11,11v17h-23v-17C706,708.61,710.92,703.69,717,703.69z"/>
		<linearGradient id="SVGID_6_" gradientUnits="userSpaceOnUse" x1="855.5541" y1="829.5906" x2="644.9321" y2="600.1234">
			<stop  offset="0" style="stop-color:#F45A6F"/>
			<stop  offset="0.4493" style="stop-color:#FA8E6D"/>
			<stop  offset="0.8074" style="stop-color:#FEB16C"/>
			<stop  offset="1" style="stop-color:#FFBE6C"/>
		</linearGradient>
		<path fill="url(#SVGID_6_)" d="M749,689.69h1c6.08,0,11,4.92,11,11v31h-23v-31C738,694.61,742.92,689.69,749,689.69z"/>
		<linearGradient id="SVGID_7_" gradientUnits="userSpaceOnUse" x1="878.1527" y1="808.848" x2="667.5306" y2="579.3807">
			<stop  offset="0" style="stop-color:#F45A6F"/>
			<stop  offset="0.4493" style="stop-color:#FA8E6D"/>
			<stop  offset="0.8074" style="stop-color:#FEB16C"/>
			<stop  offset="1" style="stop-color:#FFBE6C"/>
		</linearGradient>
		<path fill="url(#SVGID_7_)" d="M781,668.69h1c6.08,0,11,4.92,11,11v52h-23v-52C770,673.61,774.92,668.69,781,668.69z"/>
		<linearGradient id="SVGID_8_" gradientUnits="userSpaceOnUse" x1="902.9708" y1="786.0681" x2="692.3486" y2="556.6009">
			<stop  offset="0" style="stop-color:#F45A6F"/>
			<stop  offset="0.4493" style="stop-color:#FA8E6D"/>
			<stop  offset="0.8074" style="stop-color:#FEB16C"/>
			<stop  offset="1" style="stop-color:#FFBE6C"/>
		</linearGradient>
		<path fill="url(#SVGID_8_)" d="M813,637.69L813,637.69c6.08,0,11,4.92,11,11v83h-22v-83C802,642.61,806.92,637.69,813,637.69z"/>
		<linearGradient id="SVGID_9_" gradientUnits="userSpaceOnUse" x1="932.0455" y1="759.3812" x2="721.4234" y2="529.9139">
			<stop  offset="0" style="stop-color:#F45A6F"/>
			<stop  offset="0.4493" style="stop-color:#FA8E6D"/>
			<stop  offset="0.8074" style="stop-color:#FEB16C"/>
			<stop  offset="1" style="stop-color:#FFBE6C"/>
		</linearGradient>
		<path fill="url(#SVGID_9_)" d="M845,590.69L845,590.69c6.08,0,11,4.92,11,11v130h-22v-130C834,595.61,838.92,590.69,845,590.69z"
			/>
		<linearGradient id="SVGID_10_" gradientUnits="userSpaceOnUse" x1="966.8269" y1="727.4562" x2="756.2048" y2="497.9889">
			<stop  offset="0" style="stop-color:#F45A6F"/>
			<stop  offset="0.4493" style="stop-color:#FA8E6D"/>
			<stop  offset="0.8074" style="stop-color:#FEB16C"/>
			<stop  offset="1" style="stop-color:#FFBE6C"/>
		</linearGradient>
		<path fill="url(#SVGID_10_)" d="M876,519.69h1c6.08,0,11,4.92,11,11v201h-23v-201C865,524.61,869.92,519.69,876,519.69z"/>
		<linearGradient id="SVGID_11_" gradientUnits="userSpaceOnUse" x1="1010.5977" y1="687.2801" x2="799.9756" y2="457.8129">
			<stop  offset="0" style="stop-color:#F45A6F"/>
			<stop  offset="0.4493" style="stop-color:#FA8E6D"/>
			<stop  offset="0.8074" style="stop-color:#FEB16C"/>
			<stop  offset="1" style="stop-color:#FFBE6C"/>
		</linearGradient>
		<path fill="url(#SVGID_11_)" d="M908,413.69h1c6.08,0,11,4.92,11,11v307h-23v-307C897,418.61,901.92,413.69,908,413.69z"/>
		<linearGradient id="SVGID_12_" gradientUnits="userSpaceOnUse" x1="1067.819" y1="634.7581" x2="857.197" y2="405.2909">
			<stop  offset="0" style="stop-color:#F45A6F"/>
			<stop  offset="0.4493" style="stop-color:#FA8E6D"/>
			<stop  offset="0.8074" style="stop-color:#FEB16C"/>
			<stop  offset="1" style="stop-color:#FFBE6C"/>
		</linearGradient>
		<path fill="url(#SVGID_12_)" d="M940,253.69h1c6.08,0,11,4.92,11,11v467h-23v-467C929,258.61,933.92,253.69,940,253.69z"/>
		
			<line fill="none" stroke="#C2C3C6" stroke-width="3" stroke-linecap="round" stroke-linejoin="round" stroke-dasharray="3.000000e-03,9" x1="464.12" y1="755.68" x2="464.12" y2="228.99"/>
		<text transform="matrix(1 0 0 1 92.5855 173.7529)"><tspan x="0" y="0" font-family="'AvenirNext-Regular'" font-size="15px">REVENUE</tspan><tspan x="67.08" y="0" font-family="'AvenirNext-Regular'" font-size="15px"> </tspan><tspan x="70.56" y="0" font-family="'AvenirNext-Regular'" font-size="15px">AT</tspan><tspan x="87.84" y="0" font-family="'AvenirNext-Regular'" font-size="15px">AS 1% USER SELAM</tspan><tspan x="225" y="0" font-family="'AvenirNext-Regular'" font-size="15px">A</tspan><tspan x="235.24" y="0" font-family="'AvenirNext-Regular'" font-size="15px"> 1 BULAN </tspan></text>
		<text transform="matrix(1 0 0 1 92.5855 197.7529)" font-family="'AvenirNext-Bold'" font-size="15px">FORMULA: ( [USER] x 0.01) x IDR 30,000 x 30 hari )</text>
	</g>
</g>
</svg>
