<?xml version="1.0" encoding="utf-8"?>
<!-- Generator: Adobe Illustrator 24.3.0, SVG Export Plug-In . SVG Version: 6.00 Build 0)  -->
<svg version="1.1" id="Layer_1" xmlns="http://www.w3.org/2000/svg" xmlns:xlink="http://www.w3.org/1999/xlink" x="0px" y="0px"
	 viewBox="0 0 1280 1280" enable-background="new 0 0 1280 1280" xml:space="preserve">
<rect fill="#FFFFFF" width="1280" height="1280"/>
<g>
	<g>
		<g>
			<defs>
				<rect id="SVGID_1225_" x="124.17" y="541.08" width="1046" height="504"/>
			</defs>
			<clipPath id="SVGID_2_">
				<use xlink:href="#SVGID_1225_"  overflow="visible"/>
			</clipPath>
			<rect x="128.17" y="545.08" clip-path="url(#SVGID_2_)" fill="#64615D" width="112" height="45.25"/>
			<rect x="240.17" y="545.08" clip-path="url(#SVGID_2_)" fill="#64615D" width="112" height="45.25"/>
			<rect x="352.17" y="545.08" clip-path="url(#SVGID_2_)" fill="#64615D" width="112" height="45.25"/>
			<rect x="464.17" y="545.08" clip-path="url(#SVGID_2_)" fill="#64615D" width="206" height="45.25"/>
			<rect x="670.17" y="545.08" clip-path="url(#SVGID_2_)" fill="#64615D" width="206" height="45.25"/>
			<rect x="876.17" y="545.08" clip-path="url(#SVGID_2_)" fill="#64615D" width="289.36" height="45.25"/>
			<rect x="128.17" y="635.33" clip-path="url(#SVGID_2_)" fill="#F0EBE3" width="112" height="45"/>
			<rect x="240.17" y="635.33" clip-path="url(#SVGID_2_)" fill="#F0EBE3" width="112" height="45"/>
			<rect x="352.17" y="635.33" clip-path="url(#SVGID_2_)" fill="#F0EBE3" width="112" height="45"/>
			<rect x="464.17" y="635.33" clip-path="url(#SVGID_2_)" fill="#F0EBE3" width="206" height="45"/>
			<rect x="670.17" y="635.33" clip-path="url(#SVGID_2_)" fill="#F0EBE3" width="206" height="45"/>
			<rect x="876.17" y="635.33" clip-path="url(#SVGID_2_)" fill="#F0EBE3" width="289.36" height="45"/>
			<rect x="128.17" y="725.33" clip-path="url(#SVGID_2_)" fill="#F0EBE3" width="112" height="45"/>
			<rect x="240.17" y="725.33" clip-path="url(#SVGID_2_)" fill="#F0EBE3" width="112" height="45"/>
			<rect x="352.17" y="725.33" clip-path="url(#SVGID_2_)" fill="#F0EBE3" width="112" height="45"/>
			<rect x="464.17" y="725.33" clip-path="url(#SVGID_2_)" fill="#F0EBE3" width="206" height="45"/>
			<rect x="670.17" y="725.33" clip-path="url(#SVGID_2_)" fill="#F0EBE3" width="206" height="45"/>
			<rect x="876.17" y="725.33" clip-path="url(#SVGID_2_)" fill="#F0EBE3" width="289.36" height="45"/>
			<rect x="128.17" y="815.33" clip-path="url(#SVGID_2_)" fill="#F0EBE3" width="112" height="45"/>
			<rect x="240.17" y="815.33" clip-path="url(#SVGID_2_)" fill="#F0EBE3" width="112" height="45"/>
			<rect x="352.17" y="815.33" clip-path="url(#SVGID_2_)" fill="#F0EBE3" width="112" height="45"/>
			<rect x="464.17" y="815.33" clip-path="url(#SVGID_2_)" fill="#F0EBE3" width="206" height="45"/>
			<rect x="670.17" y="815.33" clip-path="url(#SVGID_2_)" fill="#F0EBE3" width="206" height="45"/>
			<rect x="876.17" y="815.33" clip-path="url(#SVGID_2_)" fill="#F0EBE3" width="289.36" height="45"/>
			<rect x="128.17" y="905.33" clip-path="url(#SVGID_2_)" fill="#F0EBE3" width="112" height="45"/>
			<rect x="240.17" y="905.33" clip-path="url(#SVGID_2_)" fill="#F0EBE3" width="112" height="45"/>
			<rect x="352.17" y="905.33" clip-path="url(#SVGID_2_)" fill="#F0EBE3" width="112" height="45"/>
			<rect x="464.17" y="905.33" clip-path="url(#SVGID_2_)" fill="#F0EBE3" width="206" height="45"/>
			<rect x="670.17" y="905.33" clip-path="url(#SVGID_2_)" fill="#F0EBE3" width="206" height="45"/>
			<rect x="876.17" y="905.33" clip-path="url(#SVGID_2_)" fill="#F0EBE3" width="289.36" height="45"/>
			<rect x="128.17" y="995.33" clip-path="url(#SVGID_2_)" fill="#F0EBE3" width="112" height="45.25"/>
			<rect x="240.17" y="995.33" clip-path="url(#SVGID_2_)" fill="#F0EBE3" width="112" height="45.25"/>
			<rect x="352.17" y="995.33" clip-path="url(#SVGID_2_)" fill="#F0EBE3" width="112" height="45.25"/>
			<rect x="464.17" y="995.33" clip-path="url(#SVGID_2_)" fill="#F0EBE3" width="206" height="45.25"/>
			<rect x="670.17" y="995.33" clip-path="url(#SVGID_2_)" fill="#F0EBE3" width="206" height="45.25"/>
			<rect x="876.17" y="995.33" clip-path="url(#SVGID_2_)" fill="#F0EBE3" width="289.36" height="45.25"/>
		</g>
		<g>
			<defs>
				<rect id="SVGID_1227_" x="128.92" y="545.83" width="111.25" height="44"/>
			</defs>
			<clipPath id="SVGID_4_">
				<use xlink:href="#SVGID_1227_"  overflow="visible"/>
			</clipPath>
			<g clip-path="url(#SVGID_4_)">
				<text transform="matrix(1 0 0 1 136.9199 574.5098)"><tspan x="0" y="0" fill="#FFFFFF" font-family="'AvenirNext-DemiBold'" font-size="20px" letter-spacing="-1">P</tspan><tspan x="10.92" y="0" fill="#FFFFFF" font-family="'AvenirNext-DemiBold'" font-size="20px">eriod</tspan></text>
			</g>
		</g>
		<g>
			<defs>
				<rect id="SVGID_1229_" x="240.17" y="545.83" width="112" height="44"/>
			</defs>
			<clipPath id="SVGID_6_">
				<use xlink:href="#SVGID_1229_"  overflow="visible"/>
			</clipPath>
			<g clip-path="url(#SVGID_6_)">
				<text transform="matrix(1 0 0 1 248.1699 574.5098)" fill="#FFFFFF" font-family="'AvenirNext-DemiBold'" font-size="20px">Month</text>
			</g>
		</g>
		<g>
			<defs>
				<rect id="SVGID_1231_" x="352.17" y="545.83" width="112" height="44"/>
			</defs>
			<clipPath id="SVGID_8_">
				<use xlink:href="#SVGID_1231_"  overflow="visible"/>
			</clipPath>
			<g clip-path="url(#SVGID_8_)">
				<text transform="matrix(1 0 0 1 360.1709 574.5098)"><tspan x="0" y="0" fill="#FFFFFF" font-family="'AvenirNext-DemiBold'" font-size="20px" letter-spacing="-1">P</tspan><tspan x="10.92" y="0" fill="#FFFFFF" font-family="'AvenirNext-DemiBold'" font-size="20px">erson</tspan></text>
			</g>
		</g>
		<g>
			<defs>
				<rect id="SVGID_1233_" x="464.17" y="545.83" width="206" height="44"/>
			</defs>
			<clipPath id="SVGID_10_">
				<use xlink:href="#SVGID_1233_"  overflow="visible"/>
			</clipPath>
			<g clip-path="url(#SVGID_10_)">
				<text transform="matrix(1 0 0 1 472.1709 574.5098)"><tspan x="0" y="0" fill="#FFFFFF" font-family="'AvenirNext-DemiBold'" font-size="20px">R</tspan><tspan x="12.34" y="0" fill="#FFFFFF" font-family="'AvenirNext-DemiBold'" font-size="20px">esponsibility</tspan></text>
			</g>
		</g>
		<g>
			<defs>
				<rect id="SVGID_1235_" x="670.17" y="545.83" width="206" height="44"/>
			</defs>
			<clipPath id="SVGID_12_">
				<use xlink:href="#SVGID_1235_"  overflow="visible"/>
			</clipPath>
			<g clip-path="url(#SVGID_12_)">
				<text transform="matrix(1 0 0 1 678.1709 574.5098)" fill="#FFFFFF" font-family="'AvenirNext-DemiBold'" font-size="20px">Salary</text>
			</g>
		</g>
		<g>
			<defs>
				<rect id="SVGID_1237_" x="876.17" y="545.83" width="288.61" height="44"/>
			</defs>
			<clipPath id="SVGID_14_">
				<use xlink:href="#SVGID_1237_"  overflow="visible"/>
			</clipPath>
			<g clip-path="url(#SVGID_14_)">
				<text transform="matrix(1 0 0 1 884.1709 574.5098)"><tspan x="0" y="0" fill="#FFFFFF" font-family="'AvenirNext-DemiBold'" font-size="20px" letter-spacing="-1">T</tspan><tspan x="9.44" y="0" fill="#FFFFFF" font-family="'AvenirNext-DemiBold'" font-size="20px">otal </tspan><tspan x="49.8" y="0" fill="#FFFFFF" font-family="'AvenirNext-DemiBold'" font-size="20px">C</tspan><tspan x="63.48" y="0" fill="#FFFFFF" font-family="'AvenirNext-DemiBold'" font-size="20px">ost</tspan></text>
			</g>
		</g>
		<g>
			<defs>
				<rect id="SVGID_1239_" x="128.92" y="590.83" width="110.75" height="44"/>
			</defs>
			<clipPath id="SVGID_16_">
				<use xlink:href="#SVGID_1239_"  overflow="visible"/>
			</clipPath>
			<g clip-path="url(#SVGID_16_)">
				<text transform="matrix(1 0 0 1 136.9199 619.5098)" font-family="'AvenirNext-Regular'" font-size="20px">1</text>
			</g>
		</g>
		<g>
			<defs>
				<rect id="SVGID_1241_" x="240.67" y="590.83" width="111" height="44"/>
			</defs>
			<clipPath id="SVGID_18_">
				<use xlink:href="#SVGID_1241_"  overflow="visible"/>
			</clipPath>
			<g clip-path="url(#SVGID_18_)">
				<text transform="matrix(1 0 0 1 272.3906 619.5098)"><tspan x="0" y="0" font-family="'AvenirNext-Regular'" font-size="20px">J</tspan><tspan x="9.74" y="0" font-family="'AvenirNext-Regular'" font-size="20px">anuary</tspan></text>
			</g>
		</g>
		<g>
			<defs>
				<rect id="SVGID_1243_" x="352.67" y="590.83" width="111" height="44"/>
			</defs>
			<clipPath id="SVGID_20_">
				<use xlink:href="#SVGID_1243_"  overflow="visible"/>
			</clipPath>
			<g clip-path="url(#SVGID_20_)">
				<text transform="matrix(1 0 0 1 360.6709 619.5098)" font-family="'AvenirNext-Regular'" font-size="20px">2</text>
			</g>
		</g>
		<g>
			<defs>
				<rect id="SVGID_1245_" x="124.17" y="541.08" width="1046" height="504"/>
			</defs>
			<clipPath id="SVGID_22_">
				<use xlink:href="#SVGID_1245_"  overflow="visible"/>
			</clipPath>
			<rect x="464.17" y="590.33" opacity="0" clip-path="url(#SVGID_22_)" fill="#544349" width="206" height="45"/>
		</g>
		<g>
			<defs>
				<rect id="SVGID_1247_" x="670.67" y="590.83" width="205" height="44"/>
			</defs>
			<clipPath id="SVGID_24_">
				<use xlink:href="#SVGID_1247_"  overflow="visible"/>
			</clipPath>
			<g clip-path="url(#SVGID_24_)">
				<text transform="matrix(1 0 0 1 678.6709 619.5098)"><tspan x="0" y="0" font-family="'AvenirNext-Regular'" font-size="20px">IDR</tspan><tspan x="32.32" y="0" font-family="'AvenirNext-Regular'" font-size="20px" letter-spacing="60"> </tspan><tspan x="97.38" y="0" font-family="'AvenirNext-Regular'" font-size="20px">3,000,000</tspan></text>
			</g>
		</g>
		<g>
			<defs>
				<rect id="SVGID_1249_" x="876.67" y="590.83" width="288.11" height="44"/>
			</defs>
			<clipPath id="SVGID_26_">
				<use xlink:href="#SVGID_1249_"  overflow="visible"/>
			</clipPath>
			<g clip-path="url(#SVGID_26_)">
				<text transform="matrix(1 0 0 1 884.6709 619.5098)"><tspan x="0" y="0" font-family="'AvenirNext-Regular'" font-size="20px">IDR</tspan><tspan x="32.32" y="0" font-family="'AvenirNext-Regular'" font-size="20px" letter-spacing="143"> </tspan><tspan x="180.5" y="0" font-family="'AvenirNext-Regular'" font-size="20px">6,000,000</tspan></text>
			</g>
		</g>
		<g>
			<defs>
				<rect id="SVGID_1251_" x="128.92" y="635.83" width="110.75" height="44"/>
			</defs>
			<clipPath id="SVGID_28_">
				<use xlink:href="#SVGID_1251_"  overflow="visible"/>
			</clipPath>
			<g clip-path="url(#SVGID_28_)">
				<text transform="matrix(1 0 0 1 136.9199 664.5098)" font-family="'AvenirNext-Regular'" font-size="20px">2</text>
			</g>
		</g>
		<g>
			<defs>
				<rect id="SVGID_1253_" x="240.67" y="635.83" width="111" height="44"/>
			</defs>
			<clipPath id="SVGID_30_">
				<use xlink:href="#SVGID_1253_"  overflow="visible"/>
			</clipPath>
			<g clip-path="url(#SVGID_30_)">
				<text transform="matrix(1 0 0 1 262.75 664.5098)"><tspan x="0" y="0" font-family="'AvenirNext-Regular'" font-size="20px">F</tspan><tspan x="10.3" y="0" font-family="'AvenirNext-Regular'" font-size="20px">ebruary</tspan></text>
			</g>
		</g>
		<g>
			<defs>
				<rect id="SVGID_1255_" x="352.67" y="635.83" width="111" height="44"/>
			</defs>
			<clipPath id="SVGID_32_">
				<use xlink:href="#SVGID_1255_"  overflow="visible"/>
			</clipPath>
			<g clip-path="url(#SVGID_32_)">
				<text transform="matrix(1 0 0 1 360.6709 664.5098)" font-family="'AvenirNext-Regular'" font-size="20px">2</text>
			</g>
		</g>
		<g>
			<defs>
				<rect id="SVGID_1257_" x="124.17" y="541.08" width="1046" height="504"/>
			</defs>
			<clipPath id="SVGID_34_">
				<use xlink:href="#SVGID_1257_"  overflow="visible"/>
			</clipPath>
			<rect x="464.17" y="635.33" opacity="0" clip-path="url(#SVGID_34_)" fill="#98562C" width="206" height="45"/>
		</g>
		<g>
			<defs>
				<rect id="SVGID_1259_" x="670.67" y="635.83" width="205" height="44"/>
			</defs>
			<clipPath id="SVGID_36_">
				<use xlink:href="#SVGID_1259_"  overflow="visible"/>
			</clipPath>
			<g clip-path="url(#SVGID_36_)">
				<text transform="matrix(1 0 0 1 678.6709 664.5098)"><tspan x="0" y="0" font-family="'AvenirNext-Regular'" font-size="20px">IDR</tspan><tspan x="32.32" y="0" font-family="'AvenirNext-Regular'" font-size="20px" letter-spacing="60"> </tspan><tspan x="97.38" y="0" font-family="'AvenirNext-Regular'" font-size="20px">3,000,000</tspan></text>
			</g>
		</g>
		<g>
			<defs>
				<rect id="SVGID_1261_" x="876.67" y="635.83" width="288.11" height="44"/>
			</defs>
			<clipPath id="SVGID_38_">
				<use xlink:href="#SVGID_1261_"  overflow="visible"/>
			</clipPath>
			<g clip-path="url(#SVGID_38_)">
				<text transform="matrix(1 0 0 1 884.6709 664.5098)"><tspan x="0" y="0" font-family="'AvenirNext-Regular'" font-size="20px">IDR</tspan><tspan x="32.32" y="0" font-family="'AvenirNext-Regular'" font-size="20px" letter-spacing="143"> </tspan><tspan x="180.5" y="0" font-family="'AvenirNext-Regular'" font-size="20px">6,000,000</tspan></text>
			</g>
		</g>
		<g>
			<defs>
				<rect id="SVGID_1263_" x="128.92" y="680.83" width="110.75" height="44"/>
			</defs>
			<clipPath id="SVGID_40_">
				<use xlink:href="#SVGID_1263_"  overflow="visible"/>
			</clipPath>
			<g clip-path="url(#SVGID_40_)">
				<text transform="matrix(1 0 0 1 136.9199 709.5098)" font-family="'AvenirNext-Regular'" font-size="20px">3</text>
			</g>
		</g>
		<g>
			<defs>
				<rect id="SVGID_1265_" x="240.67" y="680.83" width="111" height="44"/>
			</defs>
			<clipPath id="SVGID_42_">
				<use xlink:href="#SVGID_1265_"  overflow="visible"/>
			</clipPath>
			<g clip-path="url(#SVGID_42_)">
				<text transform="matrix(1 0 0 1 286.7705 709.5098)"><tspan x="0" y="0" font-family="'AvenirNext-Regular'" font-size="20px">Ma</tspan><tspan x="28.4" y="0" font-family="'AvenirNext-Regular'" font-size="20px">r</tspan><tspan x="35.26" y="0" font-family="'AvenirNext-Regular'" font-size="20px">ch</tspan></text>
			</g>
		</g>
		<g>
			<defs>
				<rect id="SVGID_1267_" x="352.67" y="680.83" width="111" height="44"/>
			</defs>
			<clipPath id="SVGID_44_">
				<use xlink:href="#SVGID_1267_"  overflow="visible"/>
			</clipPath>
			<g clip-path="url(#SVGID_44_)">
				<text transform="matrix(1 0 0 1 360.6709 709.5098)" font-family="'AvenirNext-Regular'" font-size="20px">2</text>
			</g>
		</g>
		<g>
			<defs>
				<rect id="SVGID_1269_" x="124.17" y="541.08" width="1046" height="504"/>
			</defs>
			<clipPath id="SVGID_46_">
				<use xlink:href="#SVGID_1269_"  overflow="visible"/>
			</clipPath>
			<rect x="464.17" y="680.33" opacity="0" clip-path="url(#SVGID_46_)" fill="#C18082" width="206" height="45"/>
		</g>
		<g>
			<defs>
				<rect id="SVGID_1271_" x="670.67" y="680.83" width="205" height="44"/>
			</defs>
			<clipPath id="SVGID_48_">
				<use xlink:href="#SVGID_1271_"  overflow="visible"/>
			</clipPath>
			<g clip-path="url(#SVGID_48_)">
				<text transform="matrix(1 0 0 1 678.6709 709.5098)"><tspan x="0" y="0" font-family="'AvenirNext-Regular'" font-size="20px">IDR</tspan><tspan x="32.32" y="0" font-family="'AvenirNext-Regular'" font-size="20px" letter-spacing="60"> </tspan><tspan x="97.38" y="0" font-family="'AvenirNext-Regular'" font-size="20px">3,000,000</tspan></text>
			</g>
		</g>
		<g>
			<defs>
				<rect id="SVGID_1273_" x="876.67" y="680.83" width="288.11" height="44"/>
			</defs>
			<clipPath id="SVGID_50_">
				<use xlink:href="#SVGID_1273_"  overflow="visible"/>
			</clipPath>
			<g clip-path="url(#SVGID_50_)">
				<text transform="matrix(1 0 0 1 884.6709 709.5098)"><tspan x="0" y="0" font-family="'AvenirNext-Regular'" font-size="20px">IDR</tspan><tspan x="32.32" y="0" font-family="'AvenirNext-Regular'" font-size="20px" letter-spacing="143"> </tspan><tspan x="180.5" y="0" font-family="'AvenirNext-Regular'" font-size="20px">6,000,000</tspan></text>
			</g>
		</g>
		<g>
			<defs>
				<rect id="SVGID_1275_" x="128.92" y="725.83" width="110.75" height="44"/>
			</defs>
			<clipPath id="SVGID_52_">
				<use xlink:href="#SVGID_1275_"  overflow="visible"/>
			</clipPath>
			<g clip-path="url(#SVGID_52_)">
				<text transform="matrix(1 0 0 1 136.9199 754.5098)" font-family="'AvenirNext-Regular'" font-size="20px">4</text>
			</g>
		</g>
		<g>
			<defs>
				<rect id="SVGID_1277_" x="240.67" y="725.83" width="111" height="44"/>
			</defs>
			<clipPath id="SVGID_54_">
				<use xlink:href="#SVGID_1277_"  overflow="visible"/>
			</clipPath>
			<g clip-path="url(#SVGID_54_)">
				<text transform="matrix(1 0 0 1 299.7305 754.5098)" font-family="'AvenirNext-Regular'" font-size="20px">April</text>
			</g>
		</g>
		<g>
			<defs>
				<rect id="SVGID_1279_" x="352.67" y="725.83" width="111" height="44"/>
			</defs>
			<clipPath id="SVGID_56_">
				<use xlink:href="#SVGID_1279_"  overflow="visible"/>
			</clipPath>
			<g clip-path="url(#SVGID_56_)">
				<text transform="matrix(1 0 0 1 360.6709 754.5098)" font-family="'AvenirNext-Regular'" font-size="20px">4</text>
			</g>
		</g>
		<g>
			<defs>
				<rect id="SVGID_1281_" x="124.17" y="541.08" width="1046" height="504"/>
			</defs>
			<clipPath id="SVGID_58_">
				<use xlink:href="#SVGID_1281_"  overflow="visible"/>
			</clipPath>
			<rect x="464.17" y="725.33" opacity="0" clip-path="url(#SVGID_58_)" fill="#3CDC2E" width="206" height="45"/>
		</g>
		<g>
			<defs>
				<rect id="SVGID_1283_" x="670.67" y="725.83" width="205" height="44"/>
			</defs>
			<clipPath id="SVGID_60_">
				<use xlink:href="#SVGID_1283_"  overflow="visible"/>
			</clipPath>
			<g clip-path="url(#SVGID_60_)">
				<text transform="matrix(1 0 0 1 678.6709 754.5098)"><tspan x="0" y="0" font-family="'AvenirNext-Regular'" font-size="20px">IDR</tspan><tspan x="32.32" y="0" font-family="'AvenirNext-Regular'" font-size="20px" letter-spacing="60"> </tspan><tspan x="97.38" y="0" font-family="'AvenirNext-Regular'" font-size="20px">5,000,000</tspan></text>
			</g>
		</g>
		<g>
			<defs>
				<rect id="SVGID_1285_" x="876.67" y="725.83" width="288.11" height="44"/>
			</defs>
			<clipPath id="SVGID_62_">
				<use xlink:href="#SVGID_1285_"  overflow="visible"/>
			</clipPath>
			<g clip-path="url(#SVGID_62_)">
				<text transform="matrix(1 0 0 1 884.6709 754.5098)"><tspan x="0" y="0" font-family="'AvenirNext-Regular'" font-size="20px">IDR</tspan><tspan x="32.32" y="0" font-family="'AvenirNext-Regular'" font-size="20px" letter-spacing="131"> </tspan><tspan x="168.9" y="0" font-family="'AvenirNext-Regular'" font-size="20px">20,000,000</tspan></text>
			</g>
		</g>
		<g>
			<defs>
				<rect id="SVGID_1287_" x="128.92" y="770.83" width="110.75" height="44"/>
			</defs>
			<clipPath id="SVGID_64_">
				<use xlink:href="#SVGID_1287_"  overflow="visible"/>
			</clipPath>
			<g clip-path="url(#SVGID_64_)">
				<text transform="matrix(1 0 0 1 136.9199 799.5098)" font-family="'AvenirNext-Regular'" font-size="20px">5</text>
			</g>
		</g>
		<g>
			<defs>
				<rect id="SVGID_1289_" x="240.67" y="770.83" width="111" height="44"/>
			</defs>
			<clipPath id="SVGID_66_">
				<use xlink:href="#SVGID_1289_"  overflow="visible"/>
			</clipPath>
			<g clip-path="url(#SVGID_66_)">
				<text transform="matrix(1 0 0 1 305.5107 799.5098)" font-family="'AvenirNext-Regular'" font-size="20px">May</text>
			</g>
		</g>
		<g>
			<defs>
				<rect id="SVGID_1291_" x="352.67" y="770.83" width="111" height="44"/>
			</defs>
			<clipPath id="SVGID_68_">
				<use xlink:href="#SVGID_1291_"  overflow="visible"/>
			</clipPath>
			<g clip-path="url(#SVGID_68_)">
				<text transform="matrix(1 0 0 1 360.6709 799.5098)" font-family="'AvenirNext-Regular'" font-size="20px">4</text>
			</g>
		</g>
		<g>
			<defs>
				<rect id="SVGID_1293_" x="124.17" y="541.08" width="1046" height="504"/>
			</defs>
			<clipPath id="SVGID_70_">
				<use xlink:href="#SVGID_1293_"  overflow="visible"/>
			</clipPath>
			<rect x="464.17" y="770.33" opacity="0" clip-path="url(#SVGID_70_)" fill="#543A09" width="206" height="45"/>
		</g>
		<g>
			<defs>
				<rect id="SVGID_1295_" x="670.67" y="770.83" width="205" height="44"/>
			</defs>
			<clipPath id="SVGID_72_">
				<use xlink:href="#SVGID_1295_"  overflow="visible"/>
			</clipPath>
			<g clip-path="url(#SVGID_72_)">
				<text transform="matrix(1 0 0 1 678.6709 799.5098)"><tspan x="0" y="0" font-family="'AvenirNext-Regular'" font-size="20px">IDR</tspan><tspan x="32.32" y="0" font-family="'AvenirNext-Regular'" font-size="20px" letter-spacing="60"> </tspan><tspan x="97.38" y="0" font-family="'AvenirNext-Regular'" font-size="20px">5,000,000</tspan></text>
			</g>
		</g>
		<g>
			<defs>
				<rect id="SVGID_1297_" x="876.67" y="770.83" width="288.11" height="44"/>
			</defs>
			<clipPath id="SVGID_98_">
				<use xlink:href="#SVGID_1297_"  overflow="visible"/>
			</clipPath>
			<g clip-path="url(#SVGID_98_)">
				<text transform="matrix(1 0 0 1 884.6709 799.5098)"><tspan x="0" y="0" font-family="'AvenirNext-Regular'" font-size="20px">IDR</tspan><tspan x="32.32" y="0" font-family="'AvenirNext-Regular'" font-size="20px" letter-spacing="131"> </tspan><tspan x="168.9" y="0" font-family="'AvenirNext-Regular'" font-size="20px">20,000,000</tspan></text>
			</g>
		</g>
		<g>
			<defs>
				<rect id="SVGID_1299_" x="128.92" y="815.83" width="110.75" height="44"/>
			</defs>
			<clipPath id="SVGID_100_">
				<use xlink:href="#SVGID_1299_"  overflow="visible"/>
			</clipPath>
			<g clip-path="url(#SVGID_100_)">
				<text transform="matrix(1 0 0 1 136.9199 844.5098)" font-family="'AvenirNext-Regular'" font-size="20px">6</text>
			</g>
		</g>
		<g>
			<defs>
				<rect id="SVGID_1301_" x="240.67" y="815.83" width="111" height="44"/>
			</defs>
			<clipPath id="SVGID_102_">
				<use xlink:href="#SVGID_1301_"  overflow="visible"/>
			</clipPath>
			<g clip-path="url(#SVGID_102_)">
				<text transform="matrix(1 0 0 1 299.1504 844.5098)" font-family="'AvenirNext-Regular'" font-size="20px">June</text>
			</g>
		</g>
		<g>
			<defs>
				<rect id="SVGID_1303_" x="352.67" y="815.83" width="111" height="44"/>
			</defs>
			<clipPath id="SVGID_104_">
				<use xlink:href="#SVGID_1303_"  overflow="visible"/>
			</clipPath>
			<g clip-path="url(#SVGID_104_)">
				<text transform="matrix(1 0 0 1 360.6709 844.5098)" font-family="'AvenirNext-Regular'" font-size="20px">4</text>
			</g>
		</g>
		<g>
			<defs>
				<rect id="SVGID_1305_" x="124.17" y="541.08" width="1046" height="504"/>
			</defs>
			<clipPath id="SVGID_106_">
				<use xlink:href="#SVGID_1305_"  overflow="visible"/>
			</clipPath>
			<rect x="464.17" y="815.33" opacity="0" clip-path="url(#SVGID_106_)" fill="#E653D0" width="206" height="45"/>
		</g>
		<g>
			<defs>
				<rect id="SVGID_1307_" x="670.67" y="815.83" width="205" height="44"/>
			</defs>
			<clipPath id="SVGID_108_">
				<use xlink:href="#SVGID_1307_"  overflow="visible"/>
			</clipPath>
			<g clip-path="url(#SVGID_108_)">
				<text transform="matrix(1 0 0 1 678.6709 844.5098)"><tspan x="0" y="0" font-family="'AvenirNext-Regular'" font-size="20px">IDR</tspan><tspan x="32.32" y="0" font-family="'AvenirNext-Regular'" font-size="20px" letter-spacing="60"> </tspan><tspan x="97.38" y="0" font-family="'AvenirNext-Regular'" font-size="20px">5,000,000</tspan></text>
			</g>
		</g>
		<g>
			<defs>
				<rect id="SVGID_1309_" x="876.67" y="815.83" width="288.11" height="44"/>
			</defs>
			<clipPath id="SVGID_110_">
				<use xlink:href="#SVGID_1309_"  overflow="visible"/>
			</clipPath>
			<g clip-path="url(#SVGID_110_)">
				<text transform="matrix(1 0 0 1 884.6709 844.5098)"><tspan x="0" y="0" font-family="'AvenirNext-Regular'" font-size="20px">IDR</tspan><tspan x="32.32" y="0" font-family="'AvenirNext-Regular'" font-size="20px" letter-spacing="131"> </tspan><tspan x="168.9" y="0" font-family="'AvenirNext-Regular'" font-size="20px">20,000,000</tspan></text>
			</g>
		</g>
		<g>
			<defs>
				<rect id="SVGID_1311_" x="128.92" y="860.83" width="110.75" height="44"/>
			</defs>
			<clipPath id="SVGID_112_">
				<use xlink:href="#SVGID_1311_"  overflow="visible"/>
			</clipPath>
			<g clip-path="url(#SVGID_112_)">
				<text transform="matrix(1 0 0 1 136.9199 889.5098)" font-family="'AvenirNext-Regular'" font-size="20px">7</text>
			</g>
		</g>
		<g>
			<defs>
				<rect id="SVGID_1313_" x="240.67" y="860.83" width="111" height="44"/>
			</defs>
			<clipPath id="SVGID_114_">
				<use xlink:href="#SVGID_1313_"  overflow="visible"/>
			</clipPath>
			<g clip-path="url(#SVGID_114_)">
				<text transform="matrix(1 0 0 1 307.4102 889.5098)" font-family="'AvenirNext-Regular'" font-size="20px">July</text>
			</g>
		</g>
		<g>
			<defs>
				<rect id="SVGID_1315_" x="352.67" y="860.83" width="111" height="44"/>
			</defs>
			<clipPath id="SVGID_116_">
				<use xlink:href="#SVGID_1315_"  overflow="visible"/>
			</clipPath>
			<g clip-path="url(#SVGID_116_)">
				<text transform="matrix(1 0 0 1 360.6709 889.5098)" font-family="'AvenirNext-Regular'" font-size="20px">4</text>
			</g>
		</g>
		<g>
			<defs>
				<rect id="SVGID_1317_" x="124.17" y="541.08" width="1046" height="504"/>
			</defs>
			<clipPath id="SVGID_118_">
				<use xlink:href="#SVGID_1317_"  overflow="visible"/>
			</clipPath>
			<rect x="464.17" y="860.33" opacity="0" clip-path="url(#SVGID_118_)" fill="#AAB238" width="206" height="45"/>
		</g>
		<g>
			<defs>
				<rect id="SVGID_1319_" x="670.67" y="860.83" width="205" height="44"/>
			</defs>
			<clipPath id="SVGID_120_">
				<use xlink:href="#SVGID_1319_"  overflow="visible"/>
			</clipPath>
			<g clip-path="url(#SVGID_120_)">
				<text transform="matrix(1 0 0 1 678.6709 889.5098)"><tspan x="0" y="0" font-family="'AvenirNext-Regular'" font-size="20px">IDR</tspan><tspan x="32.32" y="0" font-family="'AvenirNext-Regular'" font-size="20px" letter-spacing="60"> </tspan><tspan x="97.38" y="0" font-family="'AvenirNext-Regular'" font-size="20px">5,000,000</tspan></text>
			</g>
		</g>
		<g>
			<defs>
				<rect id="SVGID_1321_" x="876.67" y="860.83" width="288.11" height="44"/>
			</defs>
			<clipPath id="SVGID_122_">
				<use xlink:href="#SVGID_1321_"  overflow="visible"/>
			</clipPath>
			<g clip-path="url(#SVGID_122_)">
				<text transform="matrix(1 0 0 1 884.6709 889.5098)"><tspan x="0" y="0" font-family="'AvenirNext-Regular'" font-size="20px">IDR</tspan><tspan x="32.32" y="0" font-family="'AvenirNext-Regular'" font-size="20px" letter-spacing="131"> </tspan><tspan x="168.9" y="0" font-family="'AvenirNext-Regular'" font-size="20px">20,000,000</tspan></text>
			</g>
		</g>
		<g>
			<defs>
				<rect id="SVGID_1323_" x="128.92" y="905.83" width="110.75" height="44"/>
			</defs>
			<clipPath id="SVGID_124_">
				<use xlink:href="#SVGID_1323_"  overflow="visible"/>
			</clipPath>
			<g clip-path="url(#SVGID_124_)">
				<text transform="matrix(1 0 0 1 136.9199 934.5098)" font-family="'AvenirNext-Regular'" font-size="20px">8</text>
			</g>
		</g>
		<g>
			<defs>
				<rect id="SVGID_1325_" x="240.67" y="905.83" width="111" height="44"/>
			</defs>
			<clipPath id="SVGID_126_">
				<use xlink:href="#SVGID_1325_"  overflow="visible"/>
			</clipPath>
			<g clip-path="url(#SVGID_126_)">
				<text transform="matrix(1 0 0 1 278.5703 934.5098)" font-family="'AvenirNext-Regular'" font-size="20px">August</text>
			</g>
		</g>
		<g>
			<defs>
				<rect id="SVGID_1327_" x="352.67" y="905.83" width="111" height="44"/>
			</defs>
			<clipPath id="SVGID_128_">
				<use xlink:href="#SVGID_1327_"  overflow="visible"/>
			</clipPath>
			<g clip-path="url(#SVGID_128_)">
				<text transform="matrix(1 0 0 1 360.6709 934.5098)" font-family="'AvenirNext-Regular'" font-size="20px">4</text>
			</g>
		</g>
		<g>
			<defs>
				<rect id="SVGID_1329_" x="124.17" y="541.08" width="1046" height="504"/>
			</defs>
			<clipPath id="SVGID_130_">
				<use xlink:href="#SVGID_1329_"  overflow="visible"/>
			</clipPath>
			<rect x="464.17" y="905.33" opacity="0" clip-path="url(#SVGID_130_)" fill="#18F5C8" width="206" height="45"/>
		</g>
		<g>
			<defs>
				<rect id="SVGID_1331_" x="670.67" y="905.83" width="205" height="44"/>
			</defs>
			<clipPath id="SVGID_132_">
				<use xlink:href="#SVGID_1331_"  overflow="visible"/>
			</clipPath>
			<g clip-path="url(#SVGID_132_)">
				<text transform="matrix(1 0 0 1 678.6709 934.5098)"><tspan x="0" y="0" font-family="'AvenirNext-Regular'" font-size="20px">IDR</tspan><tspan x="32.32" y="0" font-family="'AvenirNext-Regular'" font-size="20px" letter-spacing="60"> </tspan><tspan x="97.38" y="0" font-family="'AvenirNext-Regular'" font-size="20px">5,000,000</tspan></text>
			</g>
		</g>
		<g>
			<defs>
				<rect id="SVGID_1333_" x="876.67" y="905.83" width="288.11" height="44"/>
			</defs>
			<clipPath id="SVGID_134_">
				<use xlink:href="#SVGID_1333_"  overflow="visible"/>
			</clipPath>
			<g clip-path="url(#SVGID_134_)">
				<text transform="matrix(1 0 0 1 884.6709 934.5098)"><tspan x="0" y="0" font-family="'AvenirNext-Regular'" font-size="20px">IDR</tspan><tspan x="32.32" y="0" font-family="'AvenirNext-Regular'" font-size="20px" letter-spacing="131"> </tspan><tspan x="168.9" y="0" font-family="'AvenirNext-Regular'" font-size="20px">20,000,000</tspan></text>
			</g>
		</g>
		<g>
			<defs>
				<rect id="SVGID_1335_" x="124.17" y="541.08" width="1046" height="504"/>
			</defs>
			<clipPath id="SVGID_136_">
				<use xlink:href="#SVGID_1335_"  overflow="visible"/>
			</clipPath>
			<rect x="128.17" y="950.33" opacity="0" clip-path="url(#SVGID_136_)" fill="#29DD40" width="112" height="45"/>
			<rect x="240.17" y="950.33" opacity="0" clip-path="url(#SVGID_136_)" fill="#FD8EAD" width="112" height="45"/>
			<rect x="352.17" y="950.33" opacity="0" clip-path="url(#SVGID_136_)" fill="#7ED4E4" width="112" height="45"/>
			<rect x="464.17" y="950.33" opacity="0" clip-path="url(#SVGID_136_)" fill="#B96F3C" width="206" height="45"/>
			<rect x="670.17" y="950.33" opacity="0" clip-path="url(#SVGID_136_)" fill="#D732AF" width="206" height="45"/>
			<rect x="876.17" y="950.33" opacity="0" clip-path="url(#SVGID_136_)" fill="#5C628D" width="289.36" height="45"/>
			<rect x="128.17" y="995.33" opacity="0" clip-path="url(#SVGID_136_)" fill="#7CA7BA" width="112" height="45.25"/>
			<rect x="240.17" y="995.33" opacity="0" clip-path="url(#SVGID_136_)" fill="#7C8F09" width="112" height="45.25"/>
			<rect x="352.17" y="995.33" opacity="0" clip-path="url(#SVGID_136_)" fill="#4F3CB4" width="112" height="45.25"/>
			<rect x="464.17" y="995.33" opacity="0" clip-path="url(#SVGID_136_)" fill="#7846AB" width="206" height="45.25"/>
		</g>
		<g>
			<defs>
				<rect id="SVGID_1337_" x="670.67" y="995.83" width="205" height="44"/>
			</defs>
			<clipPath id="SVGID_138_">
				<use xlink:href="#SVGID_1337_"  overflow="visible"/>
			</clipPath>
			<g clip-path="url(#SVGID_138_)">
				<text transform="matrix(1 0 0 1 678.6709 1024.5098)"><tspan x="0" y="0" font-family="'AvenirNext-Bold'" font-size="20px">SUB</tspan><tspan x="39.88" y="0" font-family="'AvenirNext-Bold'" font-size="20px" letter-spacing="-1">-</tspan><tspan x="44.62" y="0" font-family="'AvenirNext-Bold'" font-size="20px">T</tspan><tspan x="55.66" y="0" font-family="'AvenirNext-Bold'" font-size="20px">O</tspan><tspan x="72.08" y="0" font-family="'AvenirNext-Bold'" font-size="20px" letter-spacing="-1">T</tspan><tspan x="82.52" y="0" font-family="'AvenirNext-Bold'" font-size="20px">AL</tspan></text>
			</g>
		</g>
		<g>
			<defs>
				<rect id="SVGID_1339_" x="876.67" y="995.83" width="288.11" height="44"/>
			</defs>
			<clipPath id="SVGID_140_">
				<use xlink:href="#SVGID_1339_"  overflow="visible"/>
			</clipPath>
			<g clip-path="url(#SVGID_140_)">
				<text transform="matrix(1 0 0 1 884.6709 1024.5098)"><tspan x="0" y="0" font-family="'AvenirNext-Bold'" font-size="20px">IDR</tspan><tspan x="35.1" y="0" font-family="'AvenirNext-Bold'" font-size="20px" letter-spacing="103"> </tspan><tspan x="143.82" y="0" font-family="'AvenirNext-Bold'" font-size="20px">118,000,000</tspan></text>
			</g>
		</g>
		<g>
			<defs>
				<rect id="SVGID_1341_" x="124.17" y="541.08" width="1046" height="504"/>
			</defs>
			<clipPath id="SVGID_142_">
				<use xlink:href="#SVGID_1341_"  overflow="visible"/>
			</clipPath>
			
				<line clip-path="url(#SVGID_142_)" fill="none" stroke="#CFCCC9" stroke-width="0.5" x1="240.17" y1="589.33" x2="240.17" y2="1041.58"/>
			
				<line clip-path="url(#SVGID_142_)" fill="none" stroke="#CFCCC9" stroke-width="0.5" x1="352.17" y1="589.33" x2="352.17" y2="1041.58"/>
			
				<line clip-path="url(#SVGID_142_)" fill="none" stroke="#CFCCC9" stroke-width="0.5" x1="464.17" y1="589.33" x2="464.17" y2="1041.58"/>
			
				<line clip-path="url(#SVGID_142_)" fill="none" stroke="#CFCCC9" stroke-width="0.5" x1="670.17" y1="589.33" x2="670.17" y2="1041.58"/>
			
				<line clip-path="url(#SVGID_142_)" fill="none" stroke="#CFCCC9" stroke-width="0.5" x1="876.17" y1="589.33" x2="876.17" y2="1041.58"/>
			
				<line clip-path="url(#SVGID_142_)" fill="none" stroke="#CFCCC9" stroke-width="0.5" x1="127.17" y1="635.33" x2="1166.53" y2="635.33"/>
			
				<line clip-path="url(#SVGID_142_)" fill="none" stroke="#CFCCC9" stroke-width="0.5" x1="127.17" y1="680.33" x2="1166.53" y2="680.33"/>
			
				<line clip-path="url(#SVGID_142_)" fill="none" stroke="#CFCCC9" stroke-width="0.5" x1="127.17" y1="725.33" x2="1166.53" y2="725.33"/>
			
				<line clip-path="url(#SVGID_142_)" fill="none" stroke="#CFCCC9" stroke-width="0.5" x1="127.17" y1="770.33" x2="1166.53" y2="770.33"/>
			
				<line clip-path="url(#SVGID_142_)" fill="none" stroke="#CFCCC9" stroke-width="0.5" x1="127.17" y1="815.33" x2="1166.53" y2="815.33"/>
			
				<line clip-path="url(#SVGID_142_)" fill="none" stroke="#CFCCC9" stroke-width="0.5" x1="127.17" y1="860.33" x2="1166.53" y2="860.33"/>
			
				<line clip-path="url(#SVGID_142_)" fill="none" stroke="#CFCCC9" stroke-width="0.5" x1="127.17" y1="905.33" x2="1166.53" y2="905.33"/>
			
				<line clip-path="url(#SVGID_142_)" fill="none" stroke="#CFCCC9" stroke-width="0.5" x1="127.17" y1="950.33" x2="1166.53" y2="950.33"/>
			
				<line clip-path="url(#SVGID_142_)" fill="none" stroke="#CFCCC9" stroke-width="0.5" x1="127.17" y1="995.33" x2="1166.53" y2="995.33"/>
			
				<line clip-path="url(#SVGID_142_)" fill="none" stroke="#CFCCC9" stroke-width="0.5" x1="127.17" y1="590.33" x2="1166.53" y2="590.33"/>
			
				<line clip-path="url(#SVGID_142_)" fill="none" stroke="#B6B2AD" stroke-width="0.75" x1="128.17" y1="544.08" x2="128.17" y2="590.33"/>
			
				<line clip-path="url(#SVGID_142_)" fill="none" stroke="#B6B2AD" stroke-width="0.75" x1="128.17" y1="590.33" x2="128.17" y2="1041.58"/>
			
				<line clip-path="url(#SVGID_142_)" fill="none" stroke="#B6B2AD" stroke-width="0.75" x1="1165.53" y1="544.08" x2="1165.53" y2="590.33"/>
			
				<line clip-path="url(#SVGID_142_)" fill="none" stroke="#B6B2AD" stroke-width="0.75" x1="1165.53" y1="590.33" x2="1165.53" y2="1041.58"/>
			
				<line clip-path="url(#SVGID_142_)" fill="none" stroke="#B6B2AD" stroke-width="0.75" x1="127.17" y1="545.08" x2="1166.53" y2="545.08"/>
			
				<line clip-path="url(#SVGID_142_)" fill="none" stroke="#B6B2AD" stroke-width="0.75" x1="127.17" y1="1040.58" x2="1166.53" y2="1040.58"/>
		</g>
		<g>
			<defs>
				<rect id="SVGID_1343_" x="124.17" y="322.38" width="840" height="144"/>
			</defs>
			<clipPath id="SVGID_144_">
				<use xlink:href="#SVGID_1343_"  overflow="visible"/>
			</clipPath>
			<rect x="128.17" y="326.38" clip-path="url(#SVGID_144_)" fill="#E5E3E0" width="542" height="45.25"/>
			<rect x="128.17" y="371.63" clip-path="url(#SVGID_144_)" fill="#E5E3E0" width="542" height="45"/>
			<rect x="670.17" y="371.63" clip-path="url(#SVGID_144_)" fill="#F0EBE3" width="290.11" height="45"/>
			<rect x="128.17" y="416.63" clip-path="url(#SVGID_144_)" fill="#E5E3E0" width="542" height="45.25"/>
		</g>
		<g>
			<defs>
				<rect id="SVGID_1345_" x="128.92" y="327.13" width="540.75" height="44"/>
			</defs>
			<clipPath id="SVGID_146_">
				<use xlink:href="#SVGID_1345_"  overflow="visible"/>
			</clipPath>
			<g clip-path="url(#SVGID_146_)">
				<text transform="matrix(1 0 0 1 136.9199 355.8096)"><tspan x="0" y="0" font-family="'AvenirNext-DemiBold'" font-size="20px">W</tspan><tspan x="19.36" y="0" font-family="'AvenirNext-DemiBold'" font-size="20px">orking hour</tspan></text>
			</g>
		</g>
		<g>
			<defs>
				<rect id="SVGID_1347_" x="670.67" y="327.13" width="288.86" height="44"/>
			</defs>
			<clipPath id="SVGID_148_">
				<use xlink:href="#SVGID_1347_"  overflow="visible"/>
			</clipPath>
			<g clip-path="url(#SVGID_148_)">
				<text transform="matrix(1 0 0 1 678.6709 355.8096)"><tspan x="0" y="0" font-family="'AvenirNext-Regular'" font-size="20px">8</tspan><tspan x="11.6" y="0" font-family="'AvenirNext-Regular'" font-size="20px"> </tspan><tspan x="16.38" y="0" font-family="'AvenirNext-Regular'" font-size="20px">J</tspan><tspan x="26.12" y="0" font-family="'AvenirNext-Regular'" font-size="20px">am / Hari</tspan></text>
			</g>
		</g>
		<g>
			<defs>
				<rect id="SVGID_1349_" x="128.92" y="372.13" width="540.75" height="44"/>
			</defs>
			<clipPath id="SVGID_150_">
				<use xlink:href="#SVGID_1349_"  overflow="visible"/>
			</clipPath>
			<g clip-path="url(#SVGID_150_)">
				<text transform="matrix(1 0 0 1 136.9199 400.8096)" font-family="'AvenirNext-DemiBold'" font-size="20px">Budget</text>
			</g>
		</g>
		<g>
			<defs>
				<rect id="SVGID_1351_" x="670.67" y="372.13" width="288.86" height="44"/>
			</defs>
			<clipPath id="SVGID_152_">
				<use xlink:href="#SVGID_1351_"  overflow="visible"/>
			</clipPath>
			<g clip-path="url(#SVGID_152_)">
				<text transform="matrix(1 0 0 1 678.6709 400.8096)"><tspan x="0" y="0" font-family="'AvenirNext-Regular'" font-size="20px">IDR</tspan><tspan x="32.32" y="0" font-family="'AvenirNext-Regular'" font-size="20px" letter-spacing="120"> </tspan><tspan x="158.06" y="0" font-family="'AvenirNext-Regular'" font-size="20px">120,000,000</tspan></text>
			</g>
		</g>
		<g>
			<defs>
				<rect id="SVGID_1353_" x="128.92" y="417.13" width="540.75" height="44"/>
			</defs>
			<clipPath id="SVGID_154_">
				<use xlink:href="#SVGID_1353_"  overflow="visible"/>
			</clipPath>
			<g clip-path="url(#SVGID_154_)">
				<text transform="matrix(1 0 0 1 136.9199 445.8096)"><tspan x="0" y="0" font-family="'AvenirNext-DemiBold'" font-size="20px">Alloc</tspan><tspan x="46.8" y="0" font-family="'AvenirNext-DemiBold'" font-size="20px">a</tspan><tspan x="57.62" y="0" font-family="'AvenirNext-DemiBold'" font-size="20px">ted to </tspan></text>
			</g>
			<g clip-path="url(#SVGID_154_)">
				<text transform="matrix(1 0 0 1 254.4805 445.8096)"><tspan x="0" y="0" font-family="'AvenirNext-DemiBoldItalic'" font-size="20px">PET</tspan><tspan x="34.52" y="0" font-family="'AvenirNext-DemiBoldItalic'" font-size="20px">T</tspan><tspan x="44.96" y="0" font-family="'AvenirNext-DemiBoldItalic'" font-size="20px">Y</tspan><tspan x="56" y="0" font-family="'AvenirNext-DemiBoldItalic'" font-size="20px"> </tspan><tspan x="61" y="0" font-family="'AvenirNext-DemiBoldItalic'" font-size="20px">C</tspan><tspan x="74.4" y="0" font-family="'AvenirNext-DemiBoldItalic'" font-size="20px">ASH</tspan></text>
			</g>
		</g>
		<g>
			<defs>
				<rect id="SVGID_1355_" x="670.67" y="417.13" width="288.86" height="44"/>
			</defs>
			<clipPath id="SVGID_156_">
				<use xlink:href="#SVGID_1355_"  overflow="visible"/>
			</clipPath>
			<g clip-path="url(#SVGID_156_)">
				<text transform="matrix(1 0 0 1 678.6709 445.8096)"><tspan x="0" y="0" font-family="'AvenirNext-Regular'" font-size="20px">IDR</tspan><tspan x="32.32" y="0" font-family="'AvenirNext-Regular'" font-size="20px" letter-spacing="143"> </tspan><tspan x="181.26" y="0" font-family="'AvenirNext-Regular'" font-size="20px">2,000,000</tspan></text>
			</g>
		</g>
		<g>
			<defs>
				<rect id="SVGID_1357_" x="124.17" y="322.38" width="840" height="144"/>
			</defs>
			<clipPath id="SVGID_158_">
				<use xlink:href="#SVGID_1357_"  overflow="visible"/>
			</clipPath>
			
				<line clip-path="url(#SVGID_158_)" fill="none" stroke="#CFCCC9" stroke-width="0.5" x1="127.17" y1="371.63" x2="670.17" y2="371.63"/>
			
				<line clip-path="url(#SVGID_158_)" fill="none" stroke="#CFCCC9" stroke-width="0.5" x1="670.17" y1="371.63" x2="961.28" y2="371.63"/>
			
				<line clip-path="url(#SVGID_158_)" fill="none" stroke="#CFCCC9" stroke-width="0.5" x1="127.17" y1="416.63" x2="670.17" y2="416.63"/>
			
				<line clip-path="url(#SVGID_158_)" fill="none" stroke="#CFCCC9" stroke-width="0.5" x1="670.17" y1="416.63" x2="961.28" y2="416.63"/>
			
				<line clip-path="url(#SVGID_158_)" fill="none" stroke="#CFCCC9" stroke-width="0.5" x1="670.17" y1="325.38" x2="670.17" y2="462.88"/>
			
				<line clip-path="url(#SVGID_158_)" fill="none" stroke="#B6B2AD" stroke-width="0.75" x1="128.17" y1="325.38" x2="128.17" y2="462.88"/>
			
				<line clip-path="url(#SVGID_158_)" fill="none" stroke="#B6B2AD" stroke-width="0.75" x1="960.28" y1="325.38" x2="960.28" y2="462.88"/>
			
				<line clip-path="url(#SVGID_158_)" fill="none" stroke="#B6B2AD" stroke-width="0.75" x1="127.17" y1="326.38" x2="670.17" y2="326.38"/>
			
				<line clip-path="url(#SVGID_158_)" fill="none" stroke="#B6B2AD" stroke-width="0.75" x1="670.17" y1="326.38" x2="961.28" y2="326.38"/>
			
				<line clip-path="url(#SVGID_158_)" fill="none" stroke="#B6B2AD" stroke-width="0.75" x1="127.17" y1="461.88" x2="670.17" y2="461.88"/>
			
				<line clip-path="url(#SVGID_158_)" fill="none" stroke="#B6B2AD" stroke-width="0.75" x1="670.17" y1="461.88" x2="961.28" y2="461.88"/>
		</g>
		<g>
			<defs>
				<rect id="SVGID_1359_" x="126.61" y="235.73" width="230.96" height="84.72"/>
			</defs>
			<clipPath id="SVGID_160_">
				<use xlink:href="#SVGID_1359_"  overflow="visible"/>
			</clipPath>
			<g clip-path="url(#SVGID_160_)">
				<text transform="matrix(1 0 0 1 136.1699 273.042)"><tspan x="0" y="0" font-family="'AvenirNext-Bold'" font-size="28px">MAN</tspan><tspan x="69.27" y="0" font-family="'AvenirNext-Bold'" font-size="28px">A</tspan><tspan x="89.21" y="0" font-family="'AvenirNext-Bold'" font-size="28px">GEMENT</tspan></text>
			</g>
		</g>
	</g>
</g>
</svg>
